<?xml version="1.0" encoding="UTF-8"?>
<svg id="Layer_2" data-name="Layer 2" xmlns="http://www.w3.org/2000/svg" viewBox="0 0 1620.09 4930.29">
  <g id="Layer_1-2" data-name="Layer 1">
    <g>
      <g>
        <path d="M142.89,4048.76c-1.02,6.15-.67,4.05-.83,4.98,1.81-10.51.76-4.71.83-4.98Z"/>
        <path d="M158.68,3944.82l-.03,1.87c.58-5.13,1.14-10.27,1.66-15.41l-1.63,13.54Z"/>
        <path d="M174.26,3847.76c-1.78,4.44-3.07,13.25-4.44,23.08-1.35,9.84-2.82,20.7-4.51,29.3l-.81,2.8-.09,7.96c1.65-10.51,3.44-22.61,5.09-33.93,1.67-11.32,3.24-21.86,4.75-29.21Z"/>
        <path d="M188.33,3796.87c-1.59,3.03,1.21-11.27-2.54,11.97.32-1.15.44-1.47.65-2.14.37-2.09.91-4.96,1.9-9.83Z"/>
        <path d="M186.43,3806.7c-1.84,10.19,2.06-6.54,0,0h0Z"/>
        <path d="M194.64,3759.63l-.82,6.76-.76,6.77c.59-1.35,1.47-5,2.21-7.75.74-2.74,1.29-4.59,1.08-2.34,2.26-13.79.94-11.08-1.7-3.45Z"/>
        <path d="M194.91,3746.61l-.88,7.01c.52-1.17.98-2.99.88-7.01Z"/>
        <path d="M192.13,3768.47l1.9-14.85c-.86,1.87-1.84,1.93-.96,6.81-.63-1.33-.37,1.7-.94,8.05Z"/>
        <path d="M190.19,3776.76c-1.97,7.43-4,17.12-2.59,3.5-4.07,25.75-1.71,22.21,2.59-3.5Z"/>
        <path d="M172.91,3842.5l-2.15,10.02-.68,8.84c.34-4.42,3.57-19.39,2.83-18.86Z"/>
        <path d="M213,3676.62c-.64-.96-3.03,4.16-4.22,5l-1.03,10.02c1.52-5,3.93-14.54,5.26-15.02Z"/>
        <path d="M208.78,3681.62l1.46-15.01c-2.67,13.19-2.48,15.71-1.46,15.01Z"/>
        <path d="M191.94,3743.7c-.64,8.24-1.41,16.47-2.13,24.7,1.01-9.79,2.03-19.59,2.93-29.4l-.8,4.7Z"/>
        <polygon points="224.57 3620.27 224.92 3628.96 224.87 3613.56 224.57 3620.27"/>
        <path d="M232.19,3582.9c.56,6.49,5.1-7.92,4.85-1.2,1.93-10.17,2.16-19.09,2.27-27.14-.91,8.42-3.1,17.19-7.12,28.34Z"/>
        <path d="M239.8,3541.08c-.38,4.22-.4,8.66-.48,13.47.48-4.47.73-8.91.48-13.47Z"/>
        <path d="M215.45,3641.47c.75-1.06,2.55-3.04,4.79-11.23l-3.64,5.41c-.35,1.77-.75,3.78-1.15,5.82Z"/>
        <path d="M216.48,3635.85l.12-.19c1.26-6.3,2.15-10.67,2.55-12.54-.34,1.61-1.14,5.44-2.67,12.74Z"/>
        <path d="M215.16,3642.94c.11-.54.19-.93.29-1.46-.35.52-.49.85-.29,1.46Z"/>
        <path d="M200.74,3705.11c.48-8.88,2.3-27.27-2.58-9.96.35,6.48,3.2-3.42,2.58,9.96Z"/>
        <path d="M210.77,3649.68l-3.41,15.65c.66-.21,2.09-2.91,1.93,1.5l1.49-17.15Z"/>
        <polygon points="211.41 3641.85 210.77 3649.68 212.05 3643.88 211.41 3641.85"/>
        <path d="M231.41,3567.43c.13-6.98,1.51-14.41,2.99-22.81-2.41,8.87-4.58,18.09-6.34,26.9.66,1.39,1.47,5.53,3.34-4.09Z"/>
        <path d="M223.81,3600.62c.03-.48.13-1.08.15-1.53-.42.89-.64,1.62-.15,1.53Z"/>
        <path d="M251.34,3462.32c-.29.42-.62.78-.92,1.21.18.14.36.25.54.42l.38-1.62Z"/>
        <path d="M227.23,3572.94c-1.89,6.66-1.99,10.8-1.91,14.78.74-5.09,1.62-10.46,2.75-16.2-.29-.63-.54-.78-.84,1.42Z"/>
        <path d="M243.16,3517.89c-1.4,3.39-2.78,7.27-4.15,11.36,1.69-3.26,4.72-9.98,4.15-11.36Z"/>
        <path d="M225.18,3596.94c-.03.34-.04.66-.09,1.03,1.04-2.11.7-1.88.09-1.03Z"/>
        <path d="M225.18,3596.94c.32-3.53.2-6.37.14-9.21-.61,4.14-1.08,8-1.36,11.36.36-.8.83-1.59,1.22-2.15Z"/>
        <path d="M233.13,3433.23c1.6.9,2.38,5.95,1.93,12.6-.44,6.65-2.12,14.91-5.23,22.3-.32,15.55,11.72,7.44,20.58-4.6-1.33-.72-2.6-.94-1.38-16.77-1.47,2.55-4.28,10.95-6.72,17.03-2.45,6.08-4.51,9.83-4.7,3.02,2.28-20.86,4.4-16.65,8.16-26.32-2.94,3.87-3.17-2.93-3.65-10.31-.46-7.37-1.19-15.31-4.8-13.64l-1.02,18.48c-1.02.17-1.41-6.67-3.18-1.8Z"/>
        <path d="M243.93,3492.94l-.9,6.44c1-3.59,2.07-6.63,3.45-9.91,1.39-3.28,3.04-6.82,5.36-11.37.79-10.83.03-13.25-.89-14.16l-3.59,15.62c-1.19,5.21-2.27,10.43-3.41,15.65l-.02-2.26Z"/>
        <path d="M237.28,3528.01c-2.13-5.51-.61-21.1-5.88-12.3-3.27,18.81.2,13.6-.62,25.03,2.54-15.19,2.56-12.94,2.69-9.59.13,3.35.33,7.79,3.41-2.97-.66,6.02-1.58,11.39-2.47,16.45,1.47-5.37,3-10.53,4.6-15.37-.13.26-.22.45-.34.66l-.02.14s-.02-.03-.04-.04c-.66,1.23-.98,1.62-.46.19-.02-.11.04-.48.06-.64-.4-.28-.67-.9-.91-1.57,2.42-8.63,1.1-1.23.91,1.57.13.13.23.39.39.45.02-.03.04-.07.06-.11l4.36-30.53c-1.75,6.32-3.25,14.35-5.75,28.62Z"/>
        <path d="M196.1,3678.16c.35-.92.5-.85.68-.89.04-2.01-.04-2.79-.68.89Z"/>
        <path d="M199.49,3665.84c-.03,2.27.58,4.26-.84,11.42-1.7,6.14-1.07-.2-1.87.01-.08,4.44-.89,15.44,2.45,2l.05-2.2c2.77-12.15,8.48-27.4,8.46-25.21-2.79,3.22-4.87,6.13-8.25,13.97Z"/>
        <path d="M216.66,3595.7l3.28-25.5-4.8,12.47,1.58-.41c-3.17,14.29-.84,11.48-.07,13.44Z"/>
        <path d="M253.73,3459.76l3.02,3.99c-.68-5.14-1.4-10.28-2.17-15.44l-.85,11.45Z"/>
        <polygon points="260.37 3427.07 263.56 3428.89 263.36 3419.91 260.37 3427.07"/>
        <path d="M643.94,1574.57l-1.39-8.61c.05,3.86.59,6.52,1.39,8.61Z"/>
        <path d="M626.24,1626.82l5.89,3.54c-2.69-3.67-4.94-5.58-5.89-3.54Z"/>
        <path d="M459.97,2633.39c10.35-8.69,25.4-17.46,16.12-18.46l-9.61,1.02c-.63,7.74-3.27,13.12-6.52,17.44Z"/>
        <path d="M559.94,2079.04c-1.46.65-2.98,1.32-4.49,1.99,3.19,3.78,6.13,7.32,8.9,10.51-1.41-3.78-2.86-8.03-4.4-12.5Z"/>
        <path d="M513.84,2056.66l11.58-11.67c-3.56,2.32-7.38,6.05-11.58,11.67Z"/>
        <path d="M725.15,1282.61l-13.14-14.86c-4.56,13.24,5.6,10.66,13.14,14.86Z"/>
        <path d="M335.1,3093.77c4.48-8.74,7.25-15.85,9.1-22.23-6.13,10.36-13.22,18.29-9.1,22.23Z"/>
        <path d="M788.07,1649.59c-.9-5.2-3.09-8.08-6.31-9.1.73,5.29,2.47,8.75,6.31,9.1Z"/>
        <path d="M350.9,3045.02c-1.02,1.49-1.74,3.01-2.67,4.55-.69,6.93-1.68,13.84-4.03,21.98,4.48-7.67,8.62-16.64,6.7-26.53Z"/>
        <path d="M1173.45,279.33c1.29-.2,2.17-.81,3.6-.85-2.67-1.77-3.34-.87-3.6.85Z"/>
        <path d="M1545.6,131.18c-.34,3.38-3.07,7.55-5.38,11.65,2.75-1,4.73-4.28,5.38-11.65Z"/>
        <path d="M291.43,3296.38c-1.31,6.95.25,1.19,0,0h0Z"/>
        <path d="M266.32,3326.64c-.19-1.57-.58-2.81-1.56-3.17.94.77,1.41,1.86,1.56,3.17Z"/>
        <path d="M328.03,2967.93c.05-.2.09-.36.15-.59-1.72,1.78-1.4,1.48-.15.59Z"/>
        <path d="M286.96,3306.36c1.15-2.48,2.3-5.38,3.39-8.56-.68,1.36-1.75,3.95-3.39,8.56Z"/>
        <path d="M289.42,3305.37c-.76,2.34-1.3,4.18-1.84,5.94.54,1.01,1.2.33,1.84-5.94Z"/>
        <path d="M293.42,3286.73c-.84,3.96-1.92,7.59-3.07,11.07.62-1.29,1.01-1.81,1.08-1.42.4-2.03.97-4.9,1.98-9.65Z"/>
        <path d="M972.25,836.27c.77-.16,1.36-.49,2.35-.59-4.6-10.08-4.69-6.64-2.35.59Z"/>
        <path d="M413.33,2430.56c.02.35.23.59.27.92.18-.3.4-.67.58-.93l-.85.02Z"/>
        <path d="M412.09,2403.72c9.56,13.9,6.54,19.47,2.09,26.82l29.73-.69-31.82-26.13Z"/>
        <path d="M681.48,1447.55l-19.09,12.1c-15.28-29.06-2.99-41.38-27.06-32.29,23.12,10.13,18.87,27.31,14.63,44.48-4.24,17.17-8.48,34.33,13.98,43.97l-13.38,7.74c1.52-3.07-1-4.58.51-7.62-14.56,6.96-7.62,14.12.86,22.69,4.25,4.29,8.89,8.94,11.46,14.13,2.59,5.19,3.02,10.89-.91,17.37-6.68,8.59-15.38,13.14-18.54,4.47l3.94,25.99c-2.94,6.08-10.13,1.75-7.24-4.32l-7.3,34.82-1.21-.71c5.37,7.25,12.41,21.83,15.14,28.68-9.06,6.27-3.21-5.89-9.37-5.65l4.41,22.21c-6.86,1.79-11.72-2.09-14.18-7.98-2.46-5.88-2.51-13.76.37-19.89-24.56.96-22.96,5.85-20.03,13.98,1.48,4.07,3.3,8.96,2.43,14.61-.44,2.83-1.54,5.85-3.7,9.07-1.07,1.61-2.42,3.26-4.05,4.97-1.62,1.71-3.54,3.48-5.81,5.29-.06-6.53-.01-13.03.02-19.53-6.99.7-11.94,2.29-15.76,4.51-3.81,2.22-6.44,5.09-8.88,8.32-4.87,6.47-8.92,14.41-19.28,21.9,4.58-1.05,16.91-7.86,28.79-11.32,11.87-3.48,23.26-3.62,25.45,8.35-4.98,4.58-8.77,11.61-3.65,25.45-15.04-5.07-14.59,6.89-17.83,20.53l-19.41-7.64c1.38,16.45,11.68,18.7,17.88,30.18-6.88,15.41-22.88,13.69-36.61,13.26-5.32,12.46,1.95,9.98,9.93,8.4,7.97-1.58,16.68-2.24,13.81,13.61-7.01,9.46-9.45,18.7-9.83,29.19-.37,10.5,1.4,22.27,3.18,36.93-10.88,12.9-10.66-6.38-17.6-2.75l10.96,18.2c-1.32,3.14-5.56.6-7.7-.68,2.42,13.09,18.29,6.99,17.96,26.18,9.42,5.66-.8,12.23-11.17,21.12-5.19,4.44-10.42,9.46-13.34,15.19-2.93,5.73-3.4,12.2.62,19.44-6.63,3.77-10.25-6.1-17.67-6.67,3.16,17.39,3.96,24.64,5.59,31.44,1.62,6.78,4.08,13.11,10.17,28.41-5.89,5.76-11.74,11.55-17.55,17.35,8.74-5.67,15.61-2.36,21.15,4.96,5.54,7.32,9.75,18.64,13.37,29.09,7.91-3.48,14.85-6.39,18.45-8.67.21,9.99.38,19.96.51,29.91-3.86,2.41-8.82-2.11-14.56-8.75.83,2.28,1.66,4.47,2.52,6.23-9.38,7.77-17.55-.24-24.98-10.17,4.37-2.29,8.99-4.48,13.56-6.58-8.34-9.93-18.08-19.85-28.6-21.57,1.47,2.4,2.17,6.36,2.02,10.43-2.31-2.64-4.52-4.56-6.48-4.27-2.08.37.9,4.42,3.95,10.25l-20.86.39,7.12,3.84c-7.48,10.76-14.57,21.64-21.71,32.53,5.96,15.81,14.17,31.35,20.26,48.25,6.1,16.91,10.05,35.17,7.7,56.53-10.14-13.93-20.8-8.47-36.15-13.57,9.76-3.17,10.26-11.58,9.37-21.78-.87-10.19-3.16-22.18,1.45-32.3-4.8,10.56-11.7,5.87-13.6,2.24,1.74,14.2,3.38,28.35,4.92,42.45-12.54-4.62-11.76,5.23-19.64,13.62,13.52-.08,15.77,8.21,15,18.69-.67,10.51-4.2,23.27-2.51,32.06-8.45-1.41-15.87-7.53-9.02-25.85-11.97,7.73-6.41,16.59-.66,25.42,5.78,8.85,11.76,17.67,1.32,25.64,1.02-4.66,2.93-6.77-.72-9.77,2.2,6.41.09,15.75-3.2,22.48-3.29,6.73-7.75,10.87-10.43,6.79l1.03-4.64c-5.4,14.88-11.44,38.17-13.92,58.94-1.2,10.39-1.38,20.2-.25,27.98,1.15,7.79,3.69,13.58,8.19,16.03-2.54-.37-22.11-10.35-25.57-13.29,17.16,24.21,33.63,48.11,49.41,71.71-7.33-4.53-21.81-4.8-34.66-7.36-12.86-2.56-24.15-7.44-25.63-21.42-4.08,6.69-8.85,15.06-6.98,31.98,3.42-4.41,26.02-6.26,25.74.91-11.22,6.94-14.34,9.57-17.31,12.81-2.95,3.25-5.75,7.11-15.91,16.69,5.17-6.59,27.45,8.15,23.74,19.7-3.17-2.79-24.04-5.28-25.56-10.27,5.66,11.92,11.17,23.78,16.54,35.58-2.41-8.42-19.5-6.47-27.53-1.56,5.23-1.89-6.22,25.41-5.74,33.86l8.16-11.14c-5.56,16.2.51,26.46,6.68,36.69,6.19,10.23,12.48,20.43,7.72,36.64-3.48-5.08-25.61-16.89-32.22-.79,4.73,5.26,16.26,17.15,26.45,31.5,10.22,14.36,19.05,31.15,19.32,46.55l-7.55,4.04c.39,7.94.74,15.87,1.05,23.79-6.03-8.78-14.94-24.9-23.74-42.03-8.76-17.12-17.4-35.25-21.9-47.68-7.68,11.25-8.16,1.64-11.56,20.52-7.19,5.19-6.73-12.42-5.96-18.04l-12.61,42.85c12.9,1.12,5.48,36.43,15.92,37.2-.75-16.77-1.65-33.59-2.7-50.47,6.48.59,13.97,9.64,18.5,22.24,4.55,12.61,6.09,28.77,1.41,43.84-3.31,3.32-8.31.58-13.05-3.05-4.73-3.63-9.22-8.15-11.31-8.32,3.34,5.02,1.51,31.16-2,33.3l-3.53-14.61c-4.05,8.07-1.65,16.01-.1,24.2,1.53,8.18,2.01,16.56-5.6,25.61-1.1,3.48-5.87,7.95-9.5,11.92-3.64,3.96-6.17,7.42-2.95,8.81,15.12-8.7,56.16-1.45,63.93,8.45-.75,1.13-6.16,9.64-12.32,18.73-6.16,9.08-13.04,18.76-17.06,22.09-6.25,4.7-11.02-.99-15.68-6.9-4.65-5.9-9.19-12.03-14.46-8,2.92,1.12,5.26,8.45,5.86,11.42-4.12,6.9-8.59-5.21-10.61,11.37,10.37,5.2-7.87,32.86,7.6,9.78-.3,16.58-5.93,16.35-9.16,35.18,4.01-2.22,8.99,3.29,12.79,11.37,3.82,8.09,6.43,18.75,6.1,26.99-2.4-1.51-6.58,1.3-8.49,2.69-8.02,32.27-16.2,48.77-22.68,79.1-1.44,1.16-3.64,5.24-5.75,8.17-2.11,2.93-4.19,4.68-5.61,1.13.83,4.74,3.2,9.43,1.58,18.87-11.42,16.53,2.77-21.23-9.48-9.38,5.18,2.33,2.82,25.9,3.43,39.94,4.39-1.23,6.34-8.86,7.07-17.96.73-9.09.2-19.66-.2-26.72,5.78,1.19,10.54,8.25,13.52,19.07,3,10.82,4.21,25.39,3.18,41.7-2.95,25.64-9.38,9.46-8.82,14.13-6.04,23.42-3.66,34.41-1.96,44.2,1.76,9.8,2.7,18.38-5.08,37.27-4.81,7.16-7.89,6.74-10.49,4.83-2.59-1.91-4.68-5.29-7.26-4,.86-10.52,3.32-18.24,6.09-25.03,2.77-6.79,5.68-12.69,7.04-19.66l-6.7,16.5c-.75-6.95.4-21,3.86-28.08-2.17,2.97-4.34,9.44-6.58,18.04-1.12,4.3-2.26,9.13-3.42,14.31-1.13,5.19-2.23,10.75-3.39,16.49-4.6,22.97-9.76,48.88-15.59,66.76.72,6.89.51,18.5,3.82,13.62l1.46-11.74c3.37-4.88,3.92.88,4.2,6.07.29,5.19.34,9.81,2.92,2.7.02,8.06.35,16.66-.27,25.9-.58,9.25-2.21,19.11-5.65,29.79l-6.84,2.98c.92-.07,2.51-3.48,3.81-7.67,1.33-4.19,2.39-9.17,2.08-12.41.42,4.8-3.45,12.76-6.41,21.01-3.02,8.24-5.32,16.73-2.49,22.42,2.34-4.86,4.71-9.72,7.11-14.56-.07,8.06.44,17.18.17,26.65-.26,9.46-1.29,19.27-4.21,28.77,3.65-3.9,3.75-5.04,4.08-6.77.34-1.73.89-4.07,5.66-10.32-5.34,5.2-2.59-7.12-.1-18.55,2.51-11.42,4.72-21.97-1.77-13.25,10.94-12.6,8.48-23.75,19.9-40.71-2.2.18-5.46,5.74-.69-10.2-.44-.84-.82-2.71-1.03-3.89.17-.48.24-.65.41-1.06-.16.31-.3.53-.45.84-.15-.76-.21-.83-.16.31-1.8,3.67-3.61,6.58-5.05,7.63-2.97-8.92,2.77-34.64,2.04-43.85,3.12-9.41,1.65,4.5,5.14-.29l-1.1-13.76c2.62-.16,6.09-6.13,8.69-9.16,2.59-3.03,4.28-3.11,3.14,8.45l4.91-20.25c5.65-11.38,10.68-27.56,10.9-38.11,3.55-9.29-.12-25.31,2.12-16.14,1.46-10.8,2.88-21.62,4.25-32.44h1.48c4.16-15.59,5.67-32.2,8.42-49.15,1.38-8.47,3.09-17.03,5.68-25.55,1.3-4.26,2.81-8.52,4.65-12.75,1.88-4.22,4.05-8.42,6.61-12.58,1.12-10.84,1.86-22.15,8.16-39.33l6.52-2.2c.76-6.95,4.8-16.76,8.14-25.7,3.33-8.94,5.95-17.02,3.63-20.6,4.91-2.75,8.69-8.15,11.73-15.06,1.52-3.46,2.85-7.29,4.05-11.36.6-2.04,1.16-4.13,1.7-6.27.55-2.13,1.09-4.3,1.6-6.5,4.1-17.56,6.69-36.69,11.48-48.12l-8.08-2.81c4.88-16.15,6.75-32.27,8.64-53.3l-8-.56c-.88-9.47,3.32-20.39,8.72-32.37,5.5-11.95,12.16-24.96,15.57-38.79,2.59,2.62-.18,9.38-3.4,13.87,13.66-14.22,15.36-32.25,15.98-50.19.68-17.91.3-35.71,11.51-48.82-.54-4.1-.2-7.43.78-10.31.99-2.88,2.57-5.3,4.43-7.62-.18.69-.2,1.35-.08,1.95.33-.73.67-1.85.99-3.01,2.46-2.88,5.2-5.8,7.69-9.08-3.05,2.55-5.68,5.07-7.24,7.44,1.48-5.74,2.91-14.66,3.13-23.71l10.63-1.17c.08-.72.26-1.27.31-2.03,6.02-7.39-2.61-7.85-11.12-5.25-.35-4.67-1.15-9.08-2.63-12.72,8.78-1.38,9.08-7.27,9.56-13.46.49-6.18,1.15-12.66,11-15.06-6.66-7.87,6.04-44.24-10.76-53.55,2.43.33,4.24-1.88,3.11,2.75,4.7-8.95,9.63-17.81,6.91-27.68l14.38-.48c-3.88-8.44-7.83-16.92-11.86-25.43,11.74-10.37,18.18-14.22,24.79.98-3.45-17.12-3.22-23.65-3.08-29.58.11-5.94.12-11.3-4.3-26.33l8.59,3.71c1.17-4.61-.19-11.4-.74-17.48-.55-6.08-.27-11.44,4.28-13.16,11.69-7.81,20.16-32.75,29.63-61.75,4.74-14.49,9.75-29.99,15.67-44.81,2.96-7.41,6.15-14.65,9.66-21.5,3.55-6.84,7.51-13.26,11.82-19.1-16.22.76-11-4.33-4.45-10.67,6.56-6.34,14.54-13.91,3.4-18.33,7.96-.96,14.34-6.98,17.64,3.2.96-14.22,7.04-23.31,11.26-31.83,4.2-8.52,6.54-16.46-.42-28.61,8.26-.82,8.7,8.85,13.87,7.46-.84-2.58-3.46-10.27,1.78-11.71,5.22-1.37,4.78,5.7,6.5,10.82,4-13.6.61-22.8-6.39-29.67-6.95-6.86-17.5-11.38-27.79-15.61,14.58-10.63,15.57-17.83,4.69-32.11,8.59-2.61,18.69-8.23,15.57,9.31,2.1-4.56,9.55-18.15,14.37-31.37,4.82-13.23,6.95-26.13-1.76-29.42,5.48-1.54,5.73-12.77,4.49-15.92,4.06-10.43,6.65-15.97,8.88-21.58,2.28-5.59,4.25-11.23,6.98-21.86l-4.97,4.79c-9.55-7.62-9.33-12.34-6.3-17.35,3.02-5,8.87-10.27,10.4-19.08l2.12,1.22c14.64-16.55,14.19-21.29,13.92-25.91-.24-4.61-.3-9.11,15.64-24.88l-14.89-2.64c-14.63-6.81-7.36-13.76,3.18-22.16,5.24-4.21,11.42-8.74,16.02-13.84,4.6-5.1,7.62-10.75,6.6-17.22l-11.1,5.1c-3.21-7.77,10.32-12.58,25.89-16.64,15.54-4.08,33.12-7.42,37.36-12.67,3.75-1.64,2.88,5.59,3.53,9.89,15.29-12.3,10.88-14.93,3.11-17.62-7.76-2.68-18.77-5.35-16.73-17.75,12.13-.65,24.61,14.68,32.55-.17,5.77-2.39,1.56-16.59-.71-32.07-1.14-7.74-1.61-15.73-.11-22.71,1.52-6.96,5.12-12.87,12.4-16.32-10.2,1.7-20.27,3.44-22.44-9.54,1.65-8.78,13.84-17.11,23.12-26.21,9.27-9.11,15.61-19.01,4.98-31.31,3.14-1.25,5.69-1.23,7.86-.54-1.05-7.54-.01-18.81-.23-29.83-.09-10.98-1.44-21.72-7.42-28.25,29.96,4.35,31.16-17.47,30.89-38.24-.23-20.75-1.85-40.38,24.43-30.31l6.31-19.76c1.03-3.3,2.12-6.58,3.22-9.85l3.28-9.83,5.03,3.08c13.81-23.04,4.57-36.61-4.9-50.29,6.01-4.25,9.37,1.86,12.01,3.42,25.78-31.52,25.21-35.74,10-76.73l19.33,4.04c-3.5-6.12,9.08-16.19,21.92-30.01,12.81-13.85,25.95-31.39,22.71-53.19,1.95,1.2,5.24,3.39,6.64,7.21-1.15-11.98,3.98-22.54,11.51-32.21,7.66-9.61,17.67-18.34,25.93-26.87,16.5-17.06,25.97-33.31-5.77-55.24-1.9-11-3.84-22.04-5.83-33.11-10.09,15.54-17.12,11.09-23.9,3.8-6.77-7.28-13.32-17.43-22.09-12.97.74-7.53,9.67-13.86,18.05-16.03,8.38-2.18,16.18-.21,14.48,8.67l-4.63,1.03c17.11,10.85,24.8,1.8,31.69-8.32,6.82-10.15,12.46-21.56,24.93-15.61,7.1-16.45,15.56-32.19,24.75-47.44,4.6-7.63,9.38-15.14,14.26-22.56,2.44-3.71,4.91-7.4,7.39-11.07,2.5-3.66,5.09-7.27,7.64-10.89,20.5-28.9,41.38-56.89,57-86.5l-33.92-7.18c3.98-6.76,7.89-13.55,11.93-20.29,4.95-1.09,11.88-.13,16.48,2.89,4.62,3.03,6.79,8.05,2.52,15.25,10.57.08,10.14-7.81,6.17-16.22-3.97-8.41-11.46-17.36-14.72-19.14,13.56-11.7,21.19-4.57,25.99,4.32,4.81,8.9,6.81,19.56,9.47,15.29l3.9-13.14-5.01,1.02c-7.61-15.71-20.62-22.94-10.08-40.14,11.94-8.38,22.16,3.33,25.63-.55,2.2,1.08,4.01.08,4.38-6.38l16.07-24.87-30.16-1.44c-6.38-17.55,13.69-24.18-20.56-25.56,25.99,1.39,42.8-20.96,55.18-44.41,12.42-23.42,20.52-47.93,30.28-49.89-2.55-6.38-3.93-12.17-4.37-17.56-.45-5.39.17-10.31,1.43-15.06,2.56-9.47,7.98-18.07,14.41-27.35-8.03,2.15-38.66-9.66-26.11-25.04,28.47,18.52,39.17,14.05,49.16,6.09,9.99-7.96,19.19-19.52,44.84-14.94-17.86-1.46-13.09-14.37-10.36-27.27,2.89-12.79,3.73-25.61-22.38-26.97,6.38-5.76,12.25-2.94,19.07.92,6.82,3.86,14.57,8.75,24.81,7.27-2.49-22.89,11.68-39.26,28.54-55.34,8.42-8.05,17.51-16.04,25.44-24.84,8.07-8.72,15.04-18.22,18.98-29.49-7.92-5.2-24.55-5.3-31.78-20.85,17.99.39,36.04.88,54.15,1.46.34-5.12-10.59-13.64-16.92-20.72-6.32-7.07-8.07-12.73,10.75-11.96-8.26-1.87-20.66-4.67-20.19-11.58,10.92-7.16,20.07-15.36,28.03-24.27,8.1-8.83,14.95-18.4,21.05-28.45,12.2-20.09,21.39-42.09,31.7-63.53,1.29-2.68,2.6-5.35,3.93-8l2.02-3.97,2.13-3.91c2.88-5.19,5.89-10.29,9.11-15.28,6.44-9.97,13.69-19.45,22.32-28.08,8.63-8.63,18.62-16.4,30.55-22.94,5.96-3.27,12.41-6.22,19.4-8.82,3.5-1.3,7.13-2.51,10.93-3.61,3.83-1.08,7.8-2.07,11.93-2.95-24.01.1-20.99-7.91-16.29-16.38-7.53,2.75-21.59-13.43-34.16-19.7,18.15-4.25,36.36-8.37,54.64-12.36-14.62-13.3-9.43-22.48-4.25-31.19,5.17-8.72,10.33-17-4.52-28.82l-1.05,14.07c-14.3-18.8-38.41-27.19-64.68-34.66-26.29-7.51-54.73-14.08-78.16-30.17,16.43,21.45-5.84,22.21-26.45,26.01-20.59,3.76-39.72,10.49-17.19,42.45-13.12.07-12.41-14.43-25.28-17.96,16.5,19.34,15.94,30.09-1.94,39.96l-4.03-4.76c-9.84,23.1-22.41,36.25-37.55,48.86-3.79,3.15-7.73,6.26-11.84,9.49-4.11,3.22-8.25,6.62-12.61,10.24-8.69,7.26-18.01,15.54-27.91,26.01l24.93,9.65c-8.82,8.76-17.21,6.84-25.62,8.5,28.11,32.1,18.08-28.54,50.45,4.72-27.22-6.61-37.5,11.93-48.3,29.39-5.39,8.74-10.91,17.21-18.67,22.26-7.68,5.09-17.54,6.79-31.85,1.84-4.37,8.18,2.78,10.63,9.93,13.09,7.15,2.46,14.31,4.93,9.88,13.02l-16.37-3.54,16,14.29c-8.62,9.03-29,4.71-41.09-1.48,2.76-1.84.49-9.32.91-12.71-11.87,2.42-15.49,13.16-17.17,23.46-1.67,10.31-1.38,20.19-5.29,21.14l16.73-11.13c-2.51,13.05-7.33,25.61-13.02,38.05-2.89,6.2-5.84,12.45-8.86,18.7-3.02,6.25-6.09,12.51-9.03,18.83-11.78,25.24-21.52,51.36-18.63,80.35l11.9,2.08c1.03,21.48-4.95,26.69-12.46,31.67-7.51,4.97-16.43,9.75-20.98,30.31l-1.76-2.57c6.51,12.52,6.78,24.85.75,34.26-3.62-7.61-11.46-6.19-19.24-5.17-7.79,1.01-15.53,1.63-19.11-7.78,1.27,23.27,2.97,29.68,7.59,35.68,2.31,2.99,5.34,5.87,9.37,10.65,2.02,2.39,4.28,5.25,6.84,8.84,2.58,3.6,5.45,7.93,8.63,13.22l-19.05-2.71c11.01,15.6,18.5,20.18,14,40.51-3.43-10.96-11.06-11.15-19.12-11.82-8.07-.68-16.55-1.81-21.9-14.89-13.43,5.24-19.5,12.64-22.07,20.58-2.56,7.94-1.61,16.44-.9,24,1.45,15.14,1.94,26.51-27.82,22.99,36.14,39.24,40.3-21.44,45.2-6.87,9.26-.58,15.9,7.16,18.9,16.22,3.01,9.06,2.38,19.45-2.74,24.36-3.4,5.87-19.96,4.27-37.31,5.2-17.35.92-35.4,4.44-41.9,20.35,1.59-3.02-1.64-4.82-.07-7.84-8.18,3.22-6.92,10.79-6.71,18.25.22,7.47-.61,14.82-12.79,17.79,11.36,10.22,8.89,14.7,7.67,18.9-1.23,4.2-1.24,8.1,14.9,17.04l5.14-32.24c.75,10.19,9.19,23.68,13.49,36.76,4.31,13.09,4.4,25.73-10.82,34.77-5.74-5.16-11.06-17.21-13.56-24.98-6.64,1.64-6.62,6.19-6.7,10.74-.07,4.55-.2,9.12-6.96,10.88-16.01-8.78-14.07-18.41-10.34-29.49,3.84-11.04,9.62-23.44.69-38.2-8.92.92-6.48,12.07-5.89,19.72.59,7.65-.62,11.87-16.71-.92,20.1,16.99,15.38,24.09,8.84,31.67-6.55,7.57-14.8,15.7-2.09,34.29l-19.06-10.41c1.68,4.82,7.98,16.07,4.83,22.06l-20.68-22.91c7.24,13.67-1.02,19.86-10.4,25.49-9.39,5.61-19.89,10.65-17.5,21.66,6.9-17.68,13.58-16.99,21.06-12.93,7.49,4.06,15.74,11.43,25.96,7.31,3.89,27.28-11.48,27.65-29.02,27.91-17.63.2-37.23.36-42.19,26.79-.05-3.9,5.25-8.82,11.18-10.97,5.93-2.15,12.5-1.53,14.89,5.58-7.65,7.47-19.83,16.44-32.04,17.75-4.35,17.02.99,17.9,8.24,16.92,7.24-.99,16.42-3.82,19.49,5.56-13.76.38-12.96,5.38-8.57,12.39,4.4,7.02,12.41,16.05,13.2,24.63l-19.17-8.22c-26.91,31.25,35.71,26.82,7.6,53.17l-20.64-25.15c-.04,6.69-.11,13.36-.05,20.08l-20.11-12.77c8.76,25.64,2.29,29.64-10.68,45.56,14.79,1.29,32.93,16.73,27.07,33.1-15.35,6.41-15.19-13.59-21.53,10.5-9.5-10-21.9-21.86-.94-24.71-5.65-3.57-9.68-10.05-15.27-13.64-17.23,6.66-14.28,28.98-17.31,37.41,1.91-2.94,4.36-6.39,7.74-7.27,4.27,14.74,8.44,29.4,12.54,43.99-8.89,2.42-12.76-4.01-16.57-10.38-.31,3.8,1.18,7.73,2.46,12.04,1.32,4.32,2.44,9.02,1.36,14.33-13.77-8.64-29.28-14.29-31.05-31.4l4.71,38.9c-7.17-.48-23.43,9.39-27.31,3.02-7.46,7.22-4.25,21.1-1.76,35.46,2.51,14.38,4.28,29.25-5.54,38.85,2.33,2.33,4.09,5.85,4.31,11.68-11.31,20.85-35.06,34.05-25.09,67.94-10.07,1.76-20.09,3.55-30.07,5.37-.69,11.5,8.83,9.39,18.28,9.25,9.44-.16,18.82,1.64,17.41,20.58-.75,27.29-24.24,1-34.05,6.94,2.06,4.23,4.72,9.31,7.1,14.78,2.4,5.48,4.44,11.32,5.51,17.14,2.09,11.63-.37,22.95-13.95,30.49-2.06-9.15,3.46-13.64,3.98-21.26ZM608.1,1707.47c-1.6-6.07-8.5-19.5,1.71-19.97,15.6,11.75,5.92,13.21-1.71,19.97ZM523.95,2109.2c-3.13-4.99.47-10.13,7.28-15.09-.38,4.99-2.33,10.18-7.28,15.09ZM304.46,3219.97c-.04-.23-.08-.4-.15-.59,4.75-10.8,2.97-6.99.15.59ZM296.8,3242.84c.23,2.5,1.02,2.48,2,1.64-1-1.9.08-7.16,1.81-13.05-1.82,1.37-3.48,4.2-3.82,11.42ZM1142.37,832.81l-7.48,1.55c-1.22-12.13,2.83-6.97,7.48-1.55Z"/>
        <path d="M519.16,2059.4c2.6-.74,5.14-.38,7.69.05-1.62-2.64-4.14-3.47-7.69-.05Z"/>
        <path d="M727.56,1285.35c.24-.2.27-.48.48-.7-.9-.85-1.89-1.5-2.89-2.04l2.42,2.74Z"/>
        <path d="M317.96,2867.54c2.11-4.59,4.11-6.97,5.97-8.42-1.88-.71-3.96,1.12-5.97,8.42Z"/>
        <path d="M277.22,3368.17l2.12-15.19c-1.37,7.28-2.97,9.68-4.5,13.2,1.15-.13,3.36-2.7,2.39,1.99Z"/>
        <path d="M225.24,3494.13c.09,2.29-.74,4.7-.64,6.96l1.82-.31c1.52-9.44,1.2-16.28-1.18-6.66Z"/>
        <path d="M259.1,3379.27c-4.05.5-4.58,10.18-5.98,20.85.11-.64.2-1.24.37-1.87,4.53,4.04,5.13-7.48,5.62-18.99Z"/>
        <path d="M252.76,3402.59c-.47,3.28-1.03,6.62-1.83,9.77,1.78,1.6,1.21-3.87,1.83-9.77Z"/>
        <path d="M293.08,3273.04c-2.26,4.75,4.91,4.2,2.46,6.66,2.13,3.3,2.41-5.28,1.65-11.24-.76-5.96-2.51-9.3-4.11,4.58Z"/>
        <polygon points="245.03 3385.54 250.37 3382.6 247.7 3375.98 245.03 3385.54"/>
        <path d="M264.37,3302.75l-4.76,16.59c.9-.09.98,2.14.84,4.84,2.23-10.36,5.54-21.54,3.92-21.43Z"/>
        <path d="M260.46,3324.19c-1.17,5.39-2.09,10.56-1.87,13.72.53-2.94,1.63-9.26,1.87-13.72Z"/>
        <polygon points="247.76 3362.15 249.66 3357.33 252.17 3345.45 247.76 3362.15"/>
        <path d="M302.49,3122l2.01-18.73c-1.87-2.34-4.28,2.38-4.81,9.4.65,4.72.06,11.7,2.8,9.33Z"/>
        <path d="M274.07,3174.13c2.22-4.73,3.65-4.79,6.23-7.19l-7.49-2.1,1.27,9.29Z"/>
        <path d="M282.56,3119.96c-1.83-2.28-1.42-28.14-5.23-4.6,1.88,2.34.2,21.2,5.23,4.6Z"/>
        <polygon points="352.05 2845.57 351.12 2850.26 368.15 2853.49 352.05 2845.57"/>
        <path d="M361.49,2590.79c-9.58,20.62,11.28,8.33.9,26.52,3.55,6.3,8.5-14.86,11.41-8.58-2-14.4,2.36-20.6-12.31-17.94Z"/>
        <path d="M373.81,2608.73c.31,2.3.76,4.77,1.5,7.47-.37-4.11-.92-6.15-1.5-7.47Z"/>
        <polygon points="1601.56 105.51 1620.09 100.66 1597.79 97.28 1601.56 105.51"/>
        <path d="M1578.38,59.03l34.64,18.05-25.05-25.9c-.29,3.59-.85,10.53-9.59,7.86Z"/>
        <path d="M555.91,1731.85l4.52,2.72c5.84-.36,7.19-3.47,9.92-9.69l-14.44,6.98Z"/>
        <polygon points="628.44 1549.58 626.96 1552.63 648.43 1553.76 628.44 1549.58"/>
        <path d="M653.62,1383.03c-2.96,6.08-.87,15.37-3.87,21.46.88-15.4,30.15-13.32,3.87-21.46Z"/>
      </g>
      <g>
        <path d="M.91,4924.88c-1.12,6.71-.74,4.4-.91,5.41,1.98-11.44.84-5.13.91-5.41Z"/>
        <path d="M18.38,4811.83l-.06,2.04c.67-5.58,1.3-11.17,1.91-16.75l-1.85,14.72Z"/>
        <path d="M35.9,4706.33c-1.88,4.83-3.36,14.4-4.94,25.09-1.57,10.69-3.27,22.49-5.14,31.84l-.87,3.05-.28,8.64c1.91-11.42,3.94-24.57,5.85-36.87,1.91-12.3,3.72-23.75,5.38-31.75Z"/>
        <path d="M51.09,4651.01c-1.66,3.3,1.46-12.25-2.81,13.01.35-1.25.48-1.6.69-2.33.42-2.27,1.02-5.39,2.11-10.68Z"/>
        <path d="M48.98,4661.69c-2.06,11.07,2.2-7.11,0,0h0Z"/>
        <path d="M58.3,4610.56c-.64,4.9-1.39,9.78-1.96,14.69,1.16-2.95,4.14-15.83,3.58-10.96,2.63-14.97,1.24-12.03-1.61-3.74Z"/>
        <path d="M58.91,4596.42l-1.06,7.61c.55-1.28,1.06-3.25,1.06-7.61Z"/>
        <path d="M55.52,4620.15l2.33-16.12c-.91,2.03-1.89,2.1-1.15,7.39-.61-1.45-.39,1.85-1.18,8.73Z"/>
        <path d="M53.38,4629.15c-2.13,8.08-4.37,18.6-2.67,3.81-4.63,27.98-2.19,24.13,2.67-3.81Z"/>
        <path d="M34.66,4700.62l-2.36,10.89-.87,9.6c.43-4.8,4-21.08,3.24-20.49Z"/>
        <path d="M78.9,4520.42c-.61-1.04-3.14,4.52-4.36,5.43l-1.3,10.88c1.65-5.42,4.32-15.79,5.66-16.31Z"/>
        <path d="M74.53,4525.85l1.86-16.3c-3.02,14.32-2.9,17.06-1.86,16.3Z"/>
        <path d="M56.01,4593.27c-.88,8.95-1.82,17.88-2.82,26.81,1.32-10.62,2.57-21.26,3.75-31.92l-.93,5.11Z"/>
        <path d="M92.08,4459.26l.02,9.43c.2-5.56.36-11.12.48-16.7l-.51,7.27Z"/>
        <path d="M100.89,4418.72c.36,7.04,5.36-8.59,4.9-1.3,2.25-11.03,2.75-20.71,3.12-29.44-1.17,9.14-3.64,18.65-8.02,30.74Z"/>
        <path d="M109.81,4373.36c-.51,4.58-.67,9.39-.9,14.62.62-4.85,1.01-9.67.9-14.62Z"/>
        <path d="M82.28,4482.26c.78-1.15,2.64-3.3,5.09-12.19l-3.79,5.87c-.4,1.93-.85,4.11-1.31,6.32Z"/>
        <path d="M83.46,4476.15l.12-.21c.72-3.42,1.31-6.32,1.83-8.61.53-2.29.91-3.98,1.15-4.99-.4,1.74-1.4,5.89-3.1,13.81Z"/>
        <path d="M81.95,4483.85c.12-.58.21-1.01.33-1.59-.36.57-.52.92-.33,1.59Z"/>
        <path d="M65.85,4551.36c.72-9.64,3.03-29.61-2.32-10.81.18,7.04,3.3-3.71,2.32,10.81Z"/>
        <path d="M77.38,4491.17l-3.83,16.99c.67-.23,2.17-3.16,1.89,1.63l1.95-18.62Z"/>
        <polygon points="78.22 4482.67 77.38 4491.17 78.81 4484.88 78.22 4482.67"/>
        <path d="M100.58,4401.94c.34-7.57,1.96-15.63,3.71-24.75-2.69,9.62-5.15,19.62-7.19,29.18.62,1.51,1.3,6,3.48-4.44Z"/>
        <path d="M91.93,4437.94c.06-.52.14-1.18.2-1.66-.45.96-.69,1.76-.2,1.66Z"/>
        <path d="M124.02,4287.95c-.31.46-.65.84-.97,1.31.18.15.36.27.53.45l.44-1.76Z"/>
        <path d="M96.22,4407.91c-2.11,7.22-2.34,11.72-2.38,16.04.9-5.52,1.95-11.35,3.26-17.58-.28-.68-.52-.84-.88,1.54Z"/>
        <path d="M113.9,4348.2c-1.51,3.68-3.01,7.88-4.51,12.32,1.79-3.54,5.04-10.82,4.51-12.32Z"/>
        <path d="M93.42,4433.95c-.04.37-.06.71-.12,1.12,1.11-2.29.76-2.04.12-1.12Z"/>
        <path d="M93.42,4433.95c.43-3.83.4-6.91.43-10-.74,4.49-1.34,8.68-1.71,12.32.39-.87.88-1.73,1.29-2.33Z"/>
        <path d="M106.79,4256.33c1.57.98,2.18,6.46,1.49,13.67-.68,7.22-2.65,16.17-6.03,24.17-.87,16.87,11.49,8.1,20.8-4.93-1.31-.78-2.58-1.03-.79-18.19-1.57,2.76-4.68,11.87-7.34,18.45-2.67,6.58-4.87,10.65-4.82,3.27,3.02-22.63,5-18.05,9.11-28.52-3.08,4.19-3.07-3.19-3.29-11.19-.2-8-.65-16.62-4.33-14.82l-1.68,20.05c-1.03.18-1.18-7.24-3.13-1.96Z"/>
        <path d="M115.45,4321.13l-1.1,6.99c1.11-3.89,2.28-7.19,3.77-10.75,1.53-3.55,3.39-7.37,5.86-12.3,1.17-11.75.5-14.37-.39-15.37l-4.15,16.93c-1.39,5.64-2.77,11.28-4.03,16.95l.05-2.45Z"/>
        <path d="M107.69,4359.16c-1.96-5.98.05-22.9-5.52-13.36-3.86,20.4-.23,14.76-1.4,27.16,3.02-16.48,2.97-14.04,2.99-10.4.03,3.64.09,8.46,3.51-3.21-.84,6.54-1.93,12.35-2.98,17.84,1.64-5.83,3.34-11.42,5.09-16.67-.14.29-.24.48-.36.71l-.02.16s-.02-.04-.04-.04c-.7,1.34-1.04,1.76-.46.21-.02-.12.06-.52.08-.69-.39-.3-.64-.98-.87-1.7,2.69-9.36,1.15-1.34.87,1.7.13.14.22.42.38.48.02-.03.04-.07.07-.11l5.32-33.12c-1.95,6.85-3.71,15.57-6.66,31.05Z"/>
        <path d="M61.92,4522.11c.37-.99.53-.92.7-.97.09-2.19.04-3.03-.7.97Z"/>
        <path d="M65.64,4508.72c-.09,2.46.47,4.62-1.14,12.4-1.86,6.67-1.07-.21-1.87.01-.19,4.82-1.3,16.76,2.4,2.18l.11-2.39c3.09-13.19,9.23-29.76,9.15-27.37-2.88,3.5-5.05,6.66-8.64,15.17Z"/>
        <path d="M84.92,4432.59l4.08-27.67-5.2,13.53,1.6-.44c-3.62,15.51-1.19,12.45-.49,14.59Z"/>
        <path d="M126.51,4285.18l2.89,4.33c-.5-5.57-1.04-11.16-1.63-16.75l-1.26,12.42Z"/>
        <polygon points="134.32 4249.74 137.45 4251.73 137.57 4241.99 134.32 4249.74"/>
        <path d="M607,2248.27l-1.02-9.21c-.12,4.13.3,6.97,1.02,9.21Z"/>
        <path d="M586.95,2304.63l5.81,3.72c-2.58-3.91-4.77-5.93-5.81-3.72Z"/>
        <path d="M370.29,3391.27c10.83-9.34,26.39-18.73,17.12-19.88l-9.71,1.04c-1.02,8.37-3.93,14.18-7.41,18.84Z"/>
        <path d="M499.43,2792.35c-1.5.7-3.07,1.43-4.62,2.15,3.03,4.08,5.82,7.9,8.46,11.35-1.24-4.08-2.5-8.67-3.84-13.5Z"/>
        <path d="M454.07,2768.25l12.21-12.61c-3.69,2.51-7.71,6.54-12.21,12.61Z"/>
        <path d="M698.45,1933.29l-12.96-15.5c-4.88,14.32,5.43,11.24,12.96,15.5Z"/>
        <path d="M222.58,3888.82c4.89-9.44,7.87-17.15,10.15-24.01-3.4,5.57-6.88,10.51-9.08,14.58-2.19,4.07-3.06,7.28-1.08,9.43Z"/>
        <path d="M749.49,2326.56c-.66-5.59-2.74-8.65-5.96-9.7.48,5.69,2.08,9.39,5.96,9.7Z"/>
        <path d="M240.73,3836.13c-1.09,1.6-1.88,3.25-2.89,4.91-1.01,7.5-2.26,14.99-5.12,23.76,4.99-8.24,9.48-17.94,8.01-28.67Z"/>
        <path d="M1137.54,833.88c1.29-.37,2.14-1.12,3.58-1.34-2.82-1.53-3.43-.5-3.58,1.34Z"/>
        <path d="M1501.96,619.72c0,3.7-2.35,8.69-4.27,13.53,2.68-1.58,4.36-5.49,4.27-13.53Z"/>
        <path d="M170.38,4108.16c-1.58,7.53.2,1.29,0,0h0Z"/>
        <path d="M144.01,4140.85c-.13-1.7-.48-3.05-1.44-3.45.91.84,1.35,2.03,1.44,3.45Z"/>
        <path d="M221.21,3752.44c.06-.22.11-.39.18-.64-1.81,1.92-1.47,1.59-.18.64Z"/>
        <path d="M165.51,4118.96c1.25-2.69,2.52-5.82,3.73-9.26-.74,1.47-1.91,4.28-3.73,9.26Z"/>
        <path d="M168.02,4117.9c-.85,2.53-1.47,4.53-2.07,6.43.51,1.1,1.19.36,2.07-6.43Z"/>
        <path d="M172.75,4097.72c-1,4.28-2.22,8.22-3.51,11.98.67-1.4,1.09-1.96,1.14-1.53.48-2.2,1.16-5.31,2.37-10.45Z"/>
        <path d="M953.42,1444.13c.77-.23,1.37-.61,2.37-.8-4.77-10.48-4.82-6.79-2.37.8Z"/>
        <path d="M333.71,3171.6c0,.38.2.64.23.99.19-.32.44-.72.63-1h-.86Z"/>
        <path d="M333.79,3142.58c8.93,15.07,5.61,21.09.78,29l29.93-.59-30.71-28.41Z"/>
        <path d="M649.45,2111.18l-19.82,13.34c-14.32-30.77-1.39-44.17-26.13-33.96,11.5,5.16,16.02,12.37,17.03,20.58,1.02,8.21-1.51,17.42-3.9,26.69-4.84,18.51-9.68,37.01,12.67,46.94l-13.76,8.57c1.63-3.33-.86-4.91.77-8.2-14.92,7.76-8.15,15.31.12,24.37,8.29,9.07,18.09,19.66,9.55,33.67-7.16,9.32-16.18,14.33-18.98,5.09l2.8,27.8c-3.24,6.57-10.34,2.03-7.13-4.53l-8.71,37.55-1.2-.75c5.14,7.72,11.69,23.31,14.18,30.65-9.38,6.88-3.01-6.3-9.24-5.95l3.6,23.86c-6.99,2.02-11.74-2.1-14-8.4-2.25-6.3-2.01-14.78,1.13-21.41-24.81,1.38-23.38,6.61-20.73,15.31,2.7,8.73,6.54,20.9-12.6,36.63l.85-20.99c-14.15,1.68-20.18,7.08-25.44,14.06-5.25,6.98-9.74,15.53-20.59,23.65,4.68-1.16,17.5-8.57,29.69-12.41,12.18-3.84,23.72-4.12,25.34,8.69-5.26,4.97-9.48,12.52-4.94,27.35-14.96-5.3-15,7.57-18.83,22.29l-19.25-8.04c.71,17.69,11.01,20.01,16.77,32.32-7.57,16.67-23.64,14.95-37.45,14.59-5.88,13.45,1.55,10.73,9.66,8.97,8.1-1.76,16.9-2.55,13.36,14.55-7.4,10.27-10.43,20.17-11.37,31.44-.47,5.64-.42,11.61-.12,18.15.35,6.56.95,13.68,1.52,21.57-11.54,13.97-10.46-6.82-17.62-2.86l10.23,19.56c-1.47,3.39-5.63.68-7.73-.69,1.85,14.1,18.12,7.44,16.92,28.14,9.24,6.06-1.35,13.2-12.2,22.84-10.87,9.62-21.92,21.78-14.56,37.36-6.92,4.06-10.02-6.53-17.49-7.13,4.28,37.29,2.01,31.41,12.88,64.45-6.2,6.23-12.36,12.49-18.49,18.76,9.07-6.14,15.83-2.58,21.07,5.31,5.24,7.89,8.95,20.11,12.09,31.4,8.13-3.78,15.26-6.93,19-9.39-.26,10.8-.56,21.57-.91,32.33-4,2.61-8.78-2.27-14.24-9.44.72,2.47,1.46,4.83,2.24,6.73-9.81,8.41-17.66-.24-24.67-10.96,4.51-2.48,9.26-4.85,13.97-7.12-7.93-10.72-17.27-21.42-27.78-23.25,1.37,2.59,1.89,6.86,1.54,11.26-2.2-2.85-4.34-4.92-6.32-4.6-2.11.4.7,4.77,3.5,11.06l-21.02.44,6.99,4.14c-7.97,11.64-15.86,23.31-23.69,35.02,2.51,8.5,5.75,16.98,8.94,25.58,3.2,8.61,6.4,17.37,9.06,26.51,5.32,18.27,8.41,38.01,5.01,61.1-9.53-15.07-20.52-9.19-35.73-14.73,9.98-3.41,10.89-12.5,10.49-23.51-.39-11.01-2.11-23.96,3.02-34.88-5.34,11.4-12.06,6.32-13.8,2.41,1.07,15.33,2.03,30.61,2.9,45.85-12.4-5.01-12.09,5.63-20.43,14.68,27.26-.1,7.32,35.76,9.75,54.75-8.45-1.55-15.6-8.18-7.57-27.88-6.28,4.13-8.14,8.6-7.78,13.21.36,4.62,2.93,9.38,5.63,14.17,5.38,9.57,10.96,19.12.07,27.71,1.26-5.03,3.28-7.31-.24-10.56,1.89,6.93-.69,17.02-4.33,24.29-3.65,7.26-8.34,11.72-10.83,7.3l1.27-5.01c-6.17,16.07-13.39,41.21-16.9,63.65-1.76,11.22-2.59,21.76-1.91,30.16.7,8.4,3.02,14.69,7.4,17.36-2.54-.41-21.72-11.3-25.06-14.49,16.06,26.25,31.44,52.18,46.13,77.8-7.15-4.94-21.7-5.31-34.49-8.14-12.8-2.84-23.91-8.17-24.71-23.29-4.43,7.21-9.64,16.23-8.6,34.54,3.66-4.74,26.48-6.62,25.83,1.13-11.62,7.44-14.89,10.27-18.04,13.76-3.12,3.5-6.13,7.66-16.83,17.96,2.74-3.55,9.57-1.3,15.13,3.39,5.57,4.69,9.83,11.8,7.62,18.02-3.02-3.03-23.92-5.86-25.15-11.25l14.68,38.53c-2.01-9.12-19.28-7.12-27.6-1.86,5.35-2.01-7.5,27.45-7.43,36.6l8.75-12c-6.39,17.49-.78,28.63,4.91,39.74,5.72,11.11,11.53,22.19,5.96,39.7-3.24-5.53-24.9-18.45-32.35-1.08,9.04,11.49,43.06,51.46,41.94,84.74l-7.78,4.32c0,8.6-.03,17.19-.1,25.77-5.64-9.56-13.81-27.07-21.82-45.68-3.99-9.3-7.93-18.87-11.37-27.8-3.42-8.93-6.43-17.24-8.27-23.95-4.23,6.03-6.25,6.48-7.84,7.94-1.58,1.46-2.67,3.96-4.83,14.17-7.48,5.57-6.16-13.49-5.12-19.57l-14.73,46.29c12.91,1.31,3.75,39.48,14.2,40.39.05-18.16-.04-36.37-.28-54.65,6.49.68,13.58,10.53,17.51,24.21,3.96,13.69,4.73,31.19-.7,47.47-3.49,3.57-8.38.57-12.97-3.4-4.58-3.96-8.87-8.89-10.96-9.09,3.12,5.46.02,33.75-3.61,36.04l-2.84-15.84c-4.47,8.7-2.39,17.33-1.36,26.17.52,4.42.78,8.9-.11,13.48-.84,4.6-2.84,9.3-6.87,14.18-1.27,3.76-6.26,8.57-10.1,12.84-3.84,4.27-6.54,7.99-3.37,9.52,15.6-9.31,56.46-1.15,63.81,9.63-.8,1.22-6.64,10.4-13.24,20.19-6.62,9.79-13.97,20.22-18.17,23.8-6.5,5.05-11.02-1.15-15.43-7.59-4.39-6.43-8.67-13.09-14.14-8.77,2.88,1.24,4.88,9.19,5.35,12.41-4.46,7.44-8.38-5.71-11.18,12.24,10.17,5.71-9.44,35.53,7.18,10.65-1.11,17.95-6.63,17.69-11.01,38,4.17-2.36,8.82,3.62,12.31,12.41,3.47,8.8,5.62,20.37,4.92,29.3-2.34-1.65-6.66,1.36-8.65,2.85-9.49,34.91-18.44,52.73-26.3,85.55-3.02,2.47-9.44,17.69-11.87,9.98.58,5.13,2.62,10.2.64,20.43-6.1,8.92-5.15,3.18-4.32-3.21.82-6.39,1.67-13.39-4.8-7.02,5.1,2.56,1.74,28.1,1.76,43.33,4.46-1.31,6.73-9.56,7.85-19.42.56-4.93.82-10.26.92-15.31.06-2.53.06-4.99.07-7.29,0-2.3.02-4.45.03-6.35,5.75,1.33,10.1,8.99,12.68,20.74,2.55,11.75,3.15,27.55,1.44,45.22-4.04,27.78-9.8,10.19-9.44,15.26-7.05,25.35-5.12,37.28-3.83,47.9.66,5.31,1.18,10.31.41,16.51-.39,3.1-1.09,6.51-2.26,10.41-.58,1.95-1.28,4.03-2.11,6.25-.82,2.23-1.73,4.61-2.8,7.17-5.1,7.73-8.18,7.26-10.7,5.17-2.52-2.08-4.49-5.77-7.13-4.39,1.2-11.42,4.21-19.72,7.27-27.07,3.06-7.35,6.23-13.72,7.89-21.27l-7.41,17.84c-.46-7.54,1.28-22.77,5.05-30.42-4.58,6.41-9.86,28.01-15.62,52.84-5.51,24.89-11.69,52.96-18.24,72.32.46,7.48-.21,20.07,3.3,14.79l1.92-12.72c3.57-5.27,3.9.98,3.98,6.61.09,5.63-.04,10.64,2.83,2.94-.29,8.74-.3,18.07-1.28,28.08-.97,10.02-2.91,20.72-6.88,32.27l-7.03,3.19c1.84-.15,7.13-14.7,6.78-21.73.24,5.21-3.93,13.83-7.35,22.73-3.32,8.92-5.93,18.13-3.28,24.32,2.52-5.27,5.06-10.52,7.64-15.77-.35,8.75-.16,18.65-.76,28.91-.59,10.27-1.98,20.9-5.24,31.19,3.8-4.22,3.94-5.45,4.33-7.33.4-1.88,1.04-4.41,6.04-11.17-5.54,5.62-2.34-7.73.55-20.12,2.92-12.38,5.51-23.81-1.3-14.38,5.67-6.82,8.04-13.24,10.56-20.24,2.5-7.01,4.96-14.63,11.04-23.79-2.21.18-5.7,6.2-.3-11.06-.41-.92-.72-2.94-.88-4.22.19-.52.27-.7.45-1.15-.17.33-.32.57-.49.91-.13-.82-.17-.91-.18.34-1.95,3.97-3.87,7.12-5.36,8.24-2.63-9.69,4.12-37.55,3.75-47.54,3.5-10.18,1.48,4.89,5.16-.28l-.57-14.93c2.63-.16,6.35-6.62,9.07-9.88,2.71-3.27,4.42-3.35,2.82,9.18l5.72-21.93c3.04-6.16,6-13.61,8.26-20.95,2.28-7.34,4.02-14.54,4.34-20.27,3.95-10.05.95-27.43,2.81-17.48,1.92-11.7,3.79-23.41,5.63-35.14h1.49c4.83-16.86,7.04-34.85,10.51-53.21,1.75-9.17,3.8-18.44,6.79-27.66,3.09-9.19,7.08-18.35,12.58-27.33,1.61-11.74,2.85-23.98,9.94-42.56l6.65-2.34c1.07-7.53,5.56-18.12,9.32-27.78,3.75-9.66,6.73-18.4,4.56-22.29,5.05-2.95,9.09-8.77,12.45-16.24,3.39-7.46,6.25-16.53,8.69-26.03,4.94-18.99,8.43-39.69,13.78-52.04l-7.99-3.1c5.66-17.45,8.29-34.91,11.17-57.67l-8.01-.67c-1.11-20.6,19.83-46.93,28.04-76.82,2.47,2.86-.64,10.16-4.09,15,14.41-15.3,16.99-34.82,18.48-54.23.76-9.7,1.29-19.36,3.08-28.37.9-4.5,2.11-8.85,3.86-12.94,1.79-4.08,4.1-7.92,7.13-11.44-.6-8.86,2.27-14.36,6.23-19.34-.22.75-.27,1.46-.17,2.11.36-.79.77-2,1.14-3.25,2.61-3.11,5.51-6.24,8.17-9.78-3.2,2.74-5.96,5.45-7.65,8.01,1.77-6.21,3.65-15.86,4.31-25.65l10.74-1.2c.11-.78.32-1.37.41-2.19,6.41-7.96-2.24-8.51-10.92-5.76-.13-5.06-.71-9.84-2.01-13.79,8.89-1.44,9.49-7.82,10.28-14.51.8-6.69,1.78-13.69,11.8-16.23-3.15-4.28-1.09-16.25-.29-28.41.89-12.14.58-24.46-7.61-29.54,2.43.37,4.39-2,2.97,2.99,5.26-9.63,10.59-19.21,8.36-29.9l14.48-.45c-3.48-9.16-7.03-18.36-10.66-27.58,12.33-11.16,18.99-15.29,24.88,1.19-2.62-18.55-2.07-25.61-1.63-32.03.41-6.43.69-12.23-3.02-28.51l8.45,4.05c1.38-4.99.43-12.32.25-18.87-.18-6.56.42-12.34,5.13-14.16,12.19-8.38,21.92-35.36,32.89-66.69,5.51-15.66,11.26-32.43,18.03-48.43,6.88-15.96,14.64-31.18,23.92-43.79-16.36.8-10.86-4.69-3.95-11.55,6.91-6.85,15.31-15.03,4.32-19.83,8.06-1.03,14.78-7.55,17.61,3.48,1.66-15.39,8.23-25.22,12.89-34.43,4.67-9.21,7.35-17.83,1.02-30.93,8.39-.89,8.26,9.55,13.57,8.05-.69-2.78-2.89-11.08,2.5-12.63,5.36-1.48,4.49,6.15,5.92,11.67,9.74-29.33-11.61-39.72-31.92-48.85,15.19-11.51,16.53-19.31,6.25-34.72,8.78-2.83,19.22-8.94,15.24,10.03,2.33-4.93,10.48-19.64,15.97-33.96,5.49-14.32,8.25-28.28-.38-31.8,2.8-.84,4.38-4.3,5.16-7.97.79-3.66.75-7.53.21-9.22,9.4-22.49,11.77-23.93,18.27-46.95l-5.22,5.2c-9.27-8.19-8.84-13.3-5.55-18.72,3.27-5.42,9.41-11.15,11.35-20.67l2.08,1.31c15.51-17.98,15.27-23.1,15.21-28.09-.02-2.49.02-4.95,2.15-8.93,2.15-3.98,6.3-9.51,14.84-18.04l-14.91-2.75c-14.43-7.24-6.7-14.77,4.44-23.88,11.11-9.13,25.72-19.79,24.23-33.74l-11.41,5.62c-2.9-8.37,10.95-13.68,26.82-18.24,15.85-4.57,33.73-8.38,38.24-14.11,3.85-1.82,2.66,6.02,3.13,10.66,15.96-13.48,11.62-16.28,3.9-19.1-7.71-2.81-18.71-5.57-16.12-19,6.12-.43,12.19,3.47,17.79,5.45,5.61,1.98,10.7,2.03,15.1-6.03,5.96-2.64,2.45-17.92.95-34.58-1.47-16.65-.95-34.7,14.01-42.4-10.37,2-20.6,4.03-22.27-9.97,2.01-9.52,14.64-18.72,24.38-28.71,9.74-10,16.47-20.84,6.33-33.9,3.24-1.4,5.83-1.42,7.99-.72-1.4-16.21,6.34-48.65-5.3-62.52,30.1,4.09,32.08-19.56,32.54-41.99.26-11.2.11-22.1,3.26-28.89,3.15-6.79,9.52-9.5,22.62-4.39l14.48-42.89,4.99,3.19c14.67-25.31,5.74-39.73-3.43-54.22,6.21-4.76,9.42,1.73,12.04,3.34,26.94-34.85,26.79-39.35,12.7-83.02l19.43,3.7c-3.38-6.5,9.57-17.81,22.9-33.23,6.66-7.71,13.41-16.45,18.16-26.18,2.38-4.86,4.25-9.98,5.36-15.34,1.12-5.36,1.52-10.94.85-16.79,1.94,1.22,5.21,3.45,6.52,7.52-.8-12.87,4.75-24.44,12.67-35.17,7.92-10.73,18.21-20.62,26.73-30.22,17.02-19.21,26.92-37.28-4.85-59.44l-5.18-35.37c-10.61,17.19-17.64,12.73-24.36,5.21-6.71-7.51-13.14-18.09-22.15-12.9.92-8.11,10.12-15.31,18.69-18.04,8.56-2.73,16.45-1.01,14.53,8.62l-4.73,1.33c17.11,10.83,25.26.78,32.27-10.54,7-11.32,12.82-23.94,25.39-18.18,7.36-18.16,16.08-35.62,25.56-52.61,9.57-16.96,19.9-33.45,30.31-49.72,10.41-16.27,20.92-32.33,30.83-48.46,4.96-8.06,9.74-16.14,14.32-24.26,4.6-8.11,8.96-16.28,12.98-24.54l-34.48-5.37,12.21-22.66c10-3.07,28.14,2.11,19.28,18.19,10.8-.65,10.31-9.17,6.23-17.98-4.07-8.81-11.74-17.91-15.05-19.59,13.65-13.65,21.44-6.54,26.37,2.7,4.94,9.25,7.03,20.65,9.7,15.83l3.87-14.53-5.07,1.49c-7.82-16.42-21.07-23.22-10.52-42.6,12.05-9.98,22.52,1.84,26.01-2.62,2.24.99,4.07-.24,4.4-7.24,5.36-9.4,10.83-18.76,16.25-28.13l-30.72.91c-6.57-18.36,13.82-27.11-21.05-25.81,26.61-.53,43.11-26.2,55.27-52.59,6.08-13.2,11.07-26.57,15.77-37.04,4.72-10.46,9.18-17.99,14.13-19.5-10.79-26.5-2.4-44.45,10.1-65.75-8.08,3.14-39.48-6.51-27.25-24.28,29.44,17.01,40.16,11.11,50.07,1.48,9.9-9.63,18.89-23.04,45.18-20.89-36.45.76,17.99-57.72-35.07-54.75,12.47-13.82,24.2,9.4,44.81,3.81-3.46-24.43,10.22-43.7,26.68-63.09,16.45-19.4,35.79-38.87,42.59-64.24-8.31-4.55-25.19-2.48-33.37-18.26,18.26-1.94,36.6-3.84,55.04-5.69.06-5.57-11.51-13.26-18.33-20.01-6.82-6.75-8.92-12.58,10.26-14.35-8.5-.87-21.26-2.18-21.17-9.66,21.36-18.37,35.56-40.21,46.51-63.66,10.98-23.44,18.75-48.48,27.71-73.05,9-24.57,19.16-48.67,35.17-70.1,16.03-21.43,37.87-40.18,70.6-53.92-24.26,4.53-22-4.68-18.1-14.65-7.34,4.35-23.16-10.48-36.49-14.92,17.89-7.84,35.88-15.62,53.99-23.36-16.16-11.52-11.84-22.3-7.5-32.61,4.34-10.31,8.72-20.14-7.58-29.88l.41,15.19c-16.46-17.32-41.8-21.62-69.16-24.69-27.39-3.09-56.8-4.94-82.19-17.71,18.95,19.62-3.42,24.4-23.71,31.9-20.34,7.47-38.53,17.7-12.79,47.5-13.25,2.2-13.94-13.11-27.29-14.72,18.56,17.57,19.01,29,1.9,42.21l-4.52-4.37c-15.46,51.62-45.63,63.25-82.19,112.77l25.95,6.64c-8.22,10.47-16.84,9.62-25.19,12.53,30.92,29.91,15.98-32.57,51.33-2.13-28.04-3.08-36.94,17.87-46.46,37.78-9.5,19.92-19.6,38.81-49.2,32.06-7.82,18.26,29.66,6.74,21.76,24.96l-16.79-1.66,17.11,13.05c-8.14,10.64-29.02,8.61-41.63,3.58,2.67-2.28-.11-9.87.08-13.49-11.84,4.01-14.77,15.74-15.79,26.8-1.01,11.06-.08,21.45-3.96,22.91l16.16-13.75c-3.38,28.15-16.19,55.4-26.83,83.37-10.63,27.98-19.15,56.65-14.82,87.13l12.12.96c4.21,45.49-23.89,24.52-31.51,69.14l-1.88-2.56c7.05,12.66,7.76,25.76,1.99,36.36-3.93-7.75-11.81-5.49-19.64-3.67-7.84,1.81-15.64,3.18-19.6-6.47,2.13,24.59,4.07,31.28,8.96,37.23,4.86,5.94,12.69,11.17,26.1,32.58l-19.41-1.2c11.53,15.62,19.19,19.81,15.07,41.91-3.73-11.4-11.47-10.93-19.65-10.94-8.19-.02-16.81-.5-22.54-13.96-26.9,13.48-23.94,33.4-22.15,49.38,1.83,16.01,2.58,28.14-27.56,26.73,37.4,39.02,40.23-26.12,45.52-10.97,9.35-1.38,16.25,6.33,19.48,15.77,3.24,9.45,2.83,20.63-2.24,26.31-6.73,13.09-67.47-1.68-80.11,33.21,1.57-3.34-1.72-5.01-.18-8.35-8.24,4.03-6.85,12-6.54,19.94.32,7.94-.43,15.85-12.7,19.88,11.62,10.11,9.18,15.06,7.99,19.63-1.19,4.57-1.15,8.74,15.27,17.18l4.81-34.83c.89,10.83,9.59,24.65,14.08,38.36,4.51,13.72,4.79,27.31-10.78,37.93-5.83-5.14-11.19-17.63-13.76-25.76-13.39,4.41-.12,19.32-13.88,23.95-16.24-8.33-14.27-18.7-10.48-30.73,3.79-12.03,9.44-25.7.23-40.82-9,1.59-6.38,13.31-5.69,21.44.69,8.13-.48,12.72-16.89.14,20.57,16.8,15.7,24.64,9.07,33.13-6.64,8.48-15.06,17.6-2.1,36.66l-19.33-9.92c1.72,5.03,8.14,16.65,4.97,23.25l-21.01-23.18c7.38,14.13-.96,21.25-10.41,27.8-9.47,6.54-20.06,12.52-17.6,24.12,6.9-19.25,13.66-18.91,21.24-15.03,7.58,3.89,15.94,11.28,26.27,6.26,4,28.94-11.54,30.26-29.25,31.54-17.75,1.25-37.69,2.43-42.96,30.79-.06-8.3,21.76-22,26.5-7.1-7.82,8.37-20.31,18.53-32.65,20.56-4.48,18.38.91,19.05,8.25,17.63,7.33-1.43,16.63-4.93,19.69,4.94-27.8,2.27,3.01,21.09,4.47,39.37l-19.33-7.84c-27.4,34.75,35.96,26.98,7.29,56.58l-20.63-25.95-.27,21.47-20.17-12.71c8.43,26.94,1.73,31.49-11.65,49.05,14.94.74,33.08,16.47,26.92,34.29-15.62,7.53-15.17-13.92-21.91,12.17-9.45-10.33-21.83-22.49-.61-26.43-5.67-3.59-9.65-10.34-15.25-13.95-17.51,7.85-14.82,31.58-18,40.74,1.97-3.23,4.49-7.01,7.92-8.09,4.11,15.6,8.12,31.15,12.04,46.64-9.02,2.94-12.83-3.8-16.59-10.48-.73,8.17,5.78,16.64,3.3,28.07-13.76-8.74-29.26-14.19-30.72-32.41,1.33,13.82,2.6,27.6,3.81,41.35-7.27-.26-23.99,10.83-27.76,4.16-7.68,7.97-4.72,22.71-2.5,38.01,2.24,15.32,3.71,31.2-6.4,41.81,2.3,2.43,4.01,6.15,4.1,12.39-11.88,22.73-36.74,37.3-27.45,73.42l-30.51,6.55c-1,12.34,8.66,9.85,18.21,9.44,9.54-.42,18.97,1.26,17.02,21.64-1.52,29.34-24.49,1.69-34.56,8.3,3.93,8.97,10.15,21.57,11.79,33.96,1.65,12.4-1.3,24.58-15.35,32.93-1.72-9.75,4.05-14.67,4.88-22.84ZM565.42,2391.61c-1.33-6.5-7.58-20.81,2.67-21.46,15.32,12.47,5.36,14.12-2.67,21.46ZM461.62,2824.93c-2.9-5.38,1.13-10.89,8.19-16.26-.59,5.4-2.92,10.97-8.19,16.26ZM186.41,4025.38c-.03-.25-.06-.43-.13-.64,5.18-11.68,3.26-7.56.13.64ZM177.84,4050.14c.14,2.71.93,2.7,1.95,1.79-.93-2.06.35-7.77,2.33-14.15-1.88,1.48-3.66,4.53-4.27,12.36ZM1125.68,1427.81l-7.58,2.27c-1.34-13,2.81-7.75,7.58-2.27Z"/>
        <path d="M459.29,2771.21c2.66-.8,5.19-.41,7.74.04-1.5-2.85-4.01-3.73-7.74-.04Z"/>
        <path d="M700.83,1936.15c.24-.23.29-.52.5-.76-.89-.88-1.87-1.55-2.88-2.1l2.38,2.86Z"/>
        <path d="M215.91,3643.66c2.33-4.96,4.45-7.52,6.39-9.08-1.85-.78-4.03,1.19-6.39,9.08Z"/>
        <path d="M153.29,4185.91l2.66-16.47c-1.63,7.89-3.32,10.49-4.98,14.3,1.16-.14,3.46-2.92,2.32,2.17Z"/>
        <path d="M96.68,4322.37c.01,2.49-.89,5.1-.86,7.56l1.83-.33c1.81-10.24,1.71-17.67-.97-7.23Z"/>
        <path d="M134.73,4197.88c-4.07.52-4.95,11.03-6.74,22.6.13-.69.24-1.35.43-2.02,4.4,4.4,5.41-8.1,6.3-20.58Z"/>
        <path d="M127.55,4223.15c-.59,3.56-1.27,7.17-2.18,10.59,1.73,1.74,1.35-4.2,2.18-10.59Z"/>
        <path d="M172.94,4082.86c-2.45,5.13,4.76,4.58,2.21,7.23,2.01,3.59,2.62-5.71,2.09-12.18-.53-6.47-2.16-10.1-4.3,4.95Z"/>
        <polygon points="120.4 4204.63 125.86 4201.46 123.41 4194.27 120.4 4204.63"/>
        <path d="M142.99,4114.94l-5.42,17.97c.91-.1.9,2.33.65,5.26,2.64-11.22,6.4-23.33,4.76-23.22Z"/>
        <path d="M138.23,4138.16c-1.39,5.84-2.5,11.44-2.41,14.87.65-3.18,1.99-10.04,2.41-14.87Z"/>
        <polygon points="123.97 4179.26 126.04 4174.04 128.99 4161.16 123.97 4179.26"/>
        <path d="M188.67,3919.2l2.81-20.3c-1.78-2.55-4.4,2.55-5.22,10.16.45,5.12-.43,12.69,2.41,10.13Z"/>
        <path d="M157.95,3975.53c2.43-5.12,3.87-5.17,6.55-7.76l-7.43-2.32.88,10.08Z"/>
        <path d="M168.76,3916.86c-1.74-2.49-.24-30.52-5.06-5.03,1.79,2.55-.69,22.98,5.06,5.03Z"/>
        <polygon points="251.17 3620.12 250.02 3625.19 266.97 3628.81 251.17 3620.12"/>
        <path d="M273.41,3344.5c-10.64,22.24,10.93,9.09-.4,28.7,3.26,6.84,9.27-16.02,11.89-9.2-1.3-15.59,3.38-22.27-11.49-19.5Z"/>
        <path d="M284.9,3364c.19,2.49.52,5.17,1.14,8.09-.17-4.45-.62-6.66-1.14-8.09Z"/>
        <polygon points="1556.11 581.47 1574.46 572.61 1551.45 573.35 1556.11 581.47"/>
        <path d="M1527.83,536.18l37.06,12.5-28.14-22.76c.08,3.88.22,11.41-8.92,10.26Z"/>
        <path d="M511.57,2418.31l4.45,2.88c5.91-.45,7.4-3.8,10.41-10.53l-14.85,7.65Z"/>
        <polygon points="592.38 2221.73 590.79 2225.04 612.4 2225.87 592.38 2221.73"/>
        <path d="M623.31,2042.69c-3.15,6.59-1.29,16.49-4.48,23.09,1.3-16.52,30.78-15.02,4.48-23.09Z"/>
      </g>
    </g>
  </g>
</svg>