<?xml version="1.0" encoding="UTF-8"?>
<svg id="Layer_2" data-name="Layer 2" xmlns="http://www.w3.org/2000/svg" viewBox="0 0 547.63 2714.47">
  <g id="Layer_1-2" data-name="Layer 1">
    <g>
      <rect x="-1009.97" y="1173.57" width="2561.31" height="376.41" transform="translate(1632.46 1091.09) rotate(90)" fill="#ff8c12"/>
      <rect x="312.97" y="-29.11" width="91.06" height="418.6" transform="translate(739.42 54.11) rotate(135)" fill="#4217de"/>
      <rect x="226.62" y="12.23" width="91.06" height="678.33" transform="translate(713.06 407.43) rotate(135)" fill="#4217de"/>
      <rect x="229.87" y="272.75" width="91.06" height="678.91" transform="translate(903.03 850.35) rotate(135)" fill="#4217de"/>
      <rect x="225.26" y="537.9" width="91.06" height="654.49" transform="translate(1074.02 1285.41) rotate(135)" fill="#4217de"/>
      <rect x="225.44" y="802.8" width="91.06" height="640.14" transform="translate(1256.56 1725.26) rotate(135)" fill="#4217de"/>
      <rect x="221.12" y="1041.66" width="91.06" height="663.14" transform="translate(1426.22 2155.71) rotate(135)" fill="#4217de"/>
      <rect x="227.59" y="1314.41" width="91.06" height="639.96" transform="translate(1621.93 2596.94) rotate(135)" fill="#4217de"/>
      <rect x="232.1" y="1560.74" width="91.06" height="671.41" transform="translate(1814.93 3041.12) rotate(135)" fill="#4217de"/>
      <rect x="224.64" y="1822.75" width="91.06" height="647.58" transform="translate(1979.04 3473.33) rotate(135)" fill="#4217de"/>
      <rect x="224.29" y="2048.21" width="91.06" height="642.23" transform="translate(2135.97 3853.89) rotate(135)" fill="#4217de"/>
      <rect x="137.63" y="2339.32" width="91.06" height="401.8" transform="translate(2108.88 4206.91) rotate(135)" fill="#4217de"/>
    </g>
  </g>
</svg>