<?xml version="1.0" encoding="UTF-8"?>
<svg id="Layer_2" data-name="Layer 2" xmlns="http://www.w3.org/2000/svg" viewBox="0 0 377.03 2561.37">
  <g id="Layer_1-2" data-name="Layer 1">
    <rect x="-1092.15" y="1092.5" width="2561.31" height="376.41" transform="translate(1469.21 1092.2) rotate(90)" fill="#ff8c12"/>
    <path d="M241.59,0l135.21,135.21-.02,128.76L112.83.02l128.76-.02Z" fill="#4217de"/>
    <path d="M.17,16.13l376.34,376.34.47,129.25-.29-.29L0,144.74C.06,101.87.11,59,.17,16.13Z" fill="#4217de"/>
    <path d="M.36,273.88l376.21,376.21c.16,43.08.31,86.17.47,129.25L.3,402.6c.02-42.91.03-85.82.05-128.73Z" fill="#4217de"/>
    <path d="M.32,531.39l376.4,376.4c-.04,42.89-.08,85.77-.12,128.66L.41,660.26" fill="#4217de"/>
    <path d="M.29,788.97l376.63,376.63c-.06,42.87-.11,85.74-.17,128.61L.08,917.53" fill="#4217de"/>
    <path d="M.38,1043.68l376.39,376.39c.02,42.95.04,85.89.06,128.84L.45,1172.54c-.03-42.95-.05-85.9-.08-128.86Z" fill="#4217de"/>
    <path d="M.11,1298.1l376.63,376.63c-.02,42.91-.03,85.82-.05,128.73L.39,1427.15c-.09-43.02-.18-86.03-.27-129.05Z" fill="#4217de"/>
    <path d="M.03,1555.56l376.78,376.78c-.03,42.89-.06,85.77-.09,128.66C251.21,1935.67,125.7,1810.34.2,1685.01l-.17-129.45Z" fill="#4217de"/>
    <path d="M.26,1813.36l376.47,376.47c.02,42.95.04,85.89.06,128.84L.05,1941.92c.07-42.85.14-85.71.21-128.56Z" fill="#4217de"/>
    <path d="M.14,2036.36l376.71,376.71c-.05,42.85-.1,85.71-.15,128.56-125.46-125.44-250.91-250.87-376.37-376.3-.06-42.99-.13-85.98-.19-128.97Z" fill="#4217de"/>
    <path d="M.12,2293.9l267.39,267.39c-42.9.03-85.8.06-128.69.08L.03,2422.59c.03-42.9.06-85.8.08-128.69Z" fill="#4217de"/>
  </g>
</svg>