<?xml version="1.0" encoding="UTF-8"?>
<svg id="Layer_2" data-name="Layer 2" xmlns="http://www.w3.org/2000/svg" viewBox="0 0 2476.07 1123.16">
  <g id="Layer_1-2" data-name="Layer 1">
    <g>
      <path d="M24.59,1120.98l-2.85-15.43c-.67-3.63-1.71-8.72-3.1-15.26l-13.68-62.64-4.95-21.13c7.05.11,12.76.17,17.12.17,4.92,0,10.63-.05,17.12-.17,1.51,9.11,2.71,15.79,3.61,20.04l7.05,33.79c1.45,7.27,3.08,16.13,4.87,26.58l2.76-11.74,9.96-38.74,6.86-29.93c7.66.11,14.14.17,19.45.17,5.76,0,12.21-.05,19.37-.17l5.3,35.3,7.32,44.94,3.27-12.33c.61-2.12,1.26-4.28,1.93-6.46.67-2.18,2.07-6.51,4.19-13l10.22-32.2,4.78-16.27c6.76.06,12.34.08,16.76.08,4.97,0,10.53-.03,16.67-.08l-32.51,97.43-5.19,17.02c-8.39-.11-15.71-.17-21.97-.17-6.6,0-13.89.06-21.89.17l-1.93-11.49-7.37-40c-.39-2.4-.74-4.88-1.05-7.42-.31-2.54-.74-6.5-1.3-11.86l-2.94,13c-.73,2.91-1.48,5.84-2.27,8.8l-13.51,48.97c-8.44-.11-15.46-.17-21.05-.17-5.93,0-12.94.06-21.05.17Z" fill="#ff8c12"/>
      <path d="M188.49,1120.98c1.4-14.42,2.42-26.5,3.07-36.22s1.29-22.65,1.93-38.78c.64-16.13.97-26.82.97-32.07l-.08-7.38c13.19.11,29.15.17,47.87.17,17.27,0,32.5-.05,45.69-.17l-.17,2.76c-.06.67-.2,3.09-.42,7.27l-.5,9.11c-.11,1.95-.17,3.93-.17,5.93-10.79-.45-19.84-.67-27.17-.67-8.05,0-13.49.01-16.31.04-2.82.03-7.23.16-13.21.38l-1.02,19.29c6.6.17,14.29.25,23.06.25,3.13,0,11.46-.2,24.99-.59-.56,7.16-1.09,15.68-1.59,25.57-9.67-.11-17.1-.17-22.29-.17-7.71,0-16.34.2-25.9.59l-1,20.38h9.64c2.85,0,8.74-.08,17.68-.25l17.35-.42c2.57-.05,6.87-.28,12.9-.67-.67,8.27-1.23,16.83-1.68,25.66-13.64-.11-28.59-.17-44.86-.17l-36.89.08-11.91.08Z" fill="#ff8c12"/>
      <path d="M300.94,1120.98c1.4-13.19,2.41-23.95,3.03-32.28,1.18-15.2,2.06-30.31,2.65-45.32.59-15.01.88-27.29.88-36.85,7.6.11,14.33.17,20.19.17,3.97,0,9.66-.05,17.09-.17l-2.02,30.35-2.53,47.46-.34,11.66c9.62.17,15.88.25,18.79.25,14.71,0,25.84-.2,33.39-.59l-1.84,25.32c-14.7-.11-28.71-.17-42.01-.17-18,0-33.76.06-47.29.17Z" fill="#ff8c12"/>
      <path d="M501.5,1093.06c-.67,3.29-1.48,7.87-2.43,13.75-.95,5.88-1.59,10.44-1.93,13.67-11.96,1.79-22.64,2.68-32.03,2.68s-17.48-1.13-25.28-3.4-14.95-5.98-21.47-11.15c-6.51-5.17-11.17-11.25-13.96-18.24-2.8-6.99-4.19-14.81-4.19-23.48,0-10.12,1.89-19.21,5.66-27.29,3.77-8.08,9.19-14.81,16.27-20.21,7.07-5.39,14.83-9.25,23.27-11.57,8.44-2.32,17.16-3.48,26.16-3.48,8.27,0,18.5,1.06,30.69,3.19l.17,7.04c.11,3.08.28,6.46.5,10.15l.59,9.56c-6.54-1.56-11.84-2.63-15.89-3.19-4.05-.56-7.81-.84-11.28-.84-7.55,0-14.34,1.51-20.38,4.53s-10.79,7.41-14.25,13.16c-3.47,5.76-5.2,12.13-5.2,19.12,0,6.37,1.45,11.84,4.36,16.39,2.91,4.56,6.83,8.08,11.78,10.56,4.95,2.49,11.05,3.73,18.32,3.73,3.97,0,8.29-.32,12.96-.96,4.67-.64,10.52-1.89,17.57-3.73Z" fill="#ff8c12"/>
      <path d="M586.78,1004.35c8.94,0,17.55,1.2,25.83,3.61,8.27,2.4,15.51,6.25,21.72,11.53,6.21,5.28,10.84,11.36,13.92,18.24,3.07,6.88,4.61,14.79,4.61,23.73,0,9.39-1.69,18.01-5.07,25.87-3.38,7.85-8.26,14.52-14.63,20s-13.98,9.49-22.81,12.03c-8.83,2.54-18.03,3.81-27.59,3.81s-18.5-1.24-27.17-3.73c-8.67-2.49-16.2-6.51-22.6-12.08-6.4-5.56-10.94-11.75-13.63-18.57-2.68-6.82-4.02-14.39-4.02-22.72,0-12.24,2.84-22.99,8.51-32.24,5.67-9.25,14.09-16.48,25.24-21.68,11.15-5.2,23.72-7.8,37.69-7.8ZM585.27,1029.59c-6.43,0-12.24,1.58-17.44,4.74-5.2,3.16-9.2,7.55-11.99,13.16-2.8,5.62-4.19,11.64-4.19,18.07,0,5.93,1.27,11.35,3.81,16.27,2.54,4.92,6.41,8.76,11.61,11.53,5.2,2.77,10.7,4.15,16.52,4.15,6.2,0,11.89-1.55,17.06-4.65,5.17-3.1,9.11-7.46,11.82-13.08,2.71-5.62,4.07-11.5,4.07-17.65s-1.26-11.5-3.77-16.56c-2.52-5.06-6.2-8.98-11.07-11.78-4.86-2.79-10.34-4.19-16.43-4.19Z" fill="#ff8c12"/>
      <path d="M664.34,1120.98l2.08-16.94,5.16-58.78,2.58-38.74c10.32.11,18.43.17,24.32.17,4.88,0,12.34-.05,22.38-.17.72,4.81,1.34,8.46,1.84,10.94.5,2.49,1.74,7.35,3.72,14.59,1.98,7.24,3.57,13.5,4.77,18.78,1.2,5.28,3,14.33,5.39,27.12,2.46-8.78,4.7-16.32,6.72-22.64,2.01-6.32,4.54-13.5,7.56-21.55,3.02-8.05,4.94-13.32,5.75-15.81.81-2.49,1.92-6.3,3.32-11.45,8.38.11,16.6.17,24.65.17,5.48,0,13.08-.05,22.81-.17-1.06,18.84-1.76,35.02-2.1,48.55-.73,26.5-1.09,44.72-1.09,54.67,0,2.07.05,5.81.17,11.24-7.38-.11-12.55-.17-15.51-.17-4.31,0-9.59.06-15.85.17.46-5.03,1.02-17.01,1.7-35.93.68-18.92,1.02-31.01,1.02-36.26,0-2.29-.06-5.48-.17-9.56l-11,34.13-15.79,47.63c-7.27-.11-12.27-.17-15.01-.17-3.47,0-8.78.06-15.93.17l-10.34-46.12-6.05-24.57c-.23-.95-.48-2.12-.76-3.52-.28-1.4-.73-3.86-1.34-7.38l-2.11,23.23-2.79,47.63-.25,10.73c-7.71-.11-12.63-.17-14.76-.17-2.91,0-7.94.06-15.09.17Z" fill="#ff8c12"/>
      <path d="M824.32,1120.98c1.4-14.42,2.42-26.5,3.07-36.22s1.29-22.65,1.93-38.78c.64-16.13.97-26.82.97-32.07l-.08-7.38c13.19.11,29.15.17,47.87.17,17.27,0,32.5-.05,45.69-.17l-.17,2.76c-.06.67-.2,3.09-.42,7.27l-.5,9.11c-.11,1.95-.17,3.93-.17,5.93-10.79-.45-19.84-.67-27.17-.67-8.05,0-13.49.01-16.31.04-2.82.03-7.23.16-13.21.38l-1.02,19.29c6.6.17,14.29.25,23.06.25,3.13,0,11.46-.2,24.99-.59-.56,7.16-1.09,15.68-1.59,25.57-9.67-.11-17.1-.17-22.29-.17-7.71,0-16.34.2-25.9.59l-1,20.38h9.64c2.85,0,8.74-.08,17.68-.25l17.35-.42c2.57-.05,6.87-.28,12.9-.67-.67,8.27-1.23,16.83-1.68,25.66-13.64-.11-28.59-.17-44.86-.17l-36.89.08-11.91.08Z" fill="#ff8c12"/>
      <path d="M1006.02,1120.98c2.78-27.17,4.44-57.07,5-89.72l-35.69.92.42-9.31c.22-4.97.39-10.42.5-16.35,15.87.11,34.37.17,55.49.17l20.7-.08h20.12l10.9-.08-.5,8.21c-.22,4.41-.38,8.05-.46,10.93-.08,2.88-.13,5.05-.13,6.52-11.95-.61-21.81-.92-29.57-.92h-5.86c-.84,9.88-1.49,19-1.94,27.37-.62,12-1.1,23.64-1.44,34.94-.34,11.3-.5,20.44-.5,27.41-9.16-.11-15.08-.17-17.76-.17-2.4,0-8.83.06-19.27.17Z" fill="#ff8c12"/>
      <path d="M1158.8,1004.35c8.94,0,17.55,1.2,25.83,3.61,8.27,2.4,15.51,6.25,21.72,11.53,6.2,5.28,10.84,11.36,13.92,18.24,3.07,6.88,4.61,14.79,4.61,23.73,0,9.39-1.69,18.01-5.07,25.87-3.38,7.85-8.26,14.52-14.63,20-6.37,5.48-13.98,9.49-22.81,12.03-8.83,2.54-18.03,3.81-27.59,3.81s-18.5-1.24-27.17-3.73c-8.67-2.49-16.2-6.51-22.6-12.08-6.4-5.56-10.94-11.75-13.63-18.57-2.68-6.82-4.02-14.39-4.02-22.72,0-12.24,2.84-22.99,8.51-32.24,5.67-9.25,14.09-16.48,25.24-21.68,11.15-5.2,23.71-7.8,37.69-7.8ZM1157.29,1029.59c-6.43,0-12.24,1.58-17.44,4.74-5.2,3.16-9.2,7.55-11.99,13.16-2.8,5.62-4.19,11.64-4.19,18.07,0,5.93,1.27,11.35,3.82,16.27,2.54,4.92,6.41,8.76,11.61,11.53,5.2,2.77,10.7,4.15,16.52,4.15,6.21,0,11.89-1.55,17.06-4.65,5.17-3.1,9.11-7.46,11.82-13.08,2.71-5.62,4.07-11.5,4.07-17.65s-1.26-11.5-3.77-16.56c-2.52-5.06-6.21-8.98-11.07-11.78-4.86-2.79-10.34-4.19-16.43-4.19Z" fill="#ff8c12"/>
      <path d="M1305.45,1120.98c.56-4.53,1.23-12.21,2.01-23.06.78-10.84,1.17-18.5,1.17-22.97l-38.4-68.42c8.43.11,15.39.17,20.86.17s11.54-.05,18.85-.17c2.23,5.59,5.27,12.25,9.09,19.99,3.83,7.74,6.95,14.66,9.35,20.75,6.42-11.34,11.59-20.19,15.5-26.53,3.91-6.34,6.7-11.08,8.38-14.21,7.11.11,13.94.17,20.48.17,3.47,0,9.76-.05,18.89-.17l-36.81,54.25c-7.32,10.85-10.98,16.52-10.98,17.02l-.08.84v.84l-.08.84-.58,12.75c-.39,8.44-.7,17.75-.92,27.92-7.88-.11-13.98-.17-18.28-.17s-10.57.06-18.45.17Z" fill="#ff8c12"/>
      <path d="M1461.24,1004.35c8.94,0,17.55,1.2,25.83,3.61,8.27,2.4,15.51,6.25,21.72,11.53,6.2,5.28,10.84,11.36,13.92,18.24,3.07,6.88,4.61,14.79,4.61,23.73,0,9.39-1.69,18.01-5.07,25.87-3.38,7.85-8.26,14.52-14.63,20-6.37,5.48-13.98,9.49-22.81,12.03-8.83,2.54-18.03,3.81-27.59,3.81s-18.5-1.24-27.17-3.73c-8.67-2.49-16.2-6.51-22.6-12.08-6.4-5.56-10.94-11.75-13.63-18.57-2.68-6.82-4.02-14.39-4.02-22.72,0-12.24,2.84-22.99,8.51-32.24,5.67-9.25,14.09-16.48,25.24-21.68,11.15-5.2,23.71-7.8,37.69-7.8ZM1459.73,1029.59c-6.43,0-12.24,1.58-17.44,4.74-5.2,3.16-9.2,7.55-11.99,13.16-2.8,5.62-4.19,11.64-4.19,18.07,0,5.93,1.27,11.35,3.82,16.27,2.54,4.92,6.41,8.76,11.61,11.53,5.2,2.77,10.7,4.15,16.52,4.15,6.21,0,11.89-1.55,17.06-4.65,5.17-3.1,9.11-7.46,11.82-13.08,2.71-5.62,4.07-11.5,4.07-17.65s-1.26-11.5-3.77-16.56c-2.52-5.06-6.21-8.98-11.07-11.78-4.86-2.79-10.34-4.19-16.43-4.19Z" fill="#ff8c12"/>
      <path d="M1545.78,1006.53c8.71.11,14.86.17,18.44.17,4.47,0,10.42-.05,17.85-.17l-2.49,35.64c-.5,6.71-.87,13-1.12,18.87-.25,5.87-.37,9.92-.37,12.16,0,4.25.31,7.8.92,10.65.61,2.85,1.73,5.27,3.35,7.25,1.62,1.99,3.87,3.48,6.75,4.49,2.88,1.01,5.88,1.51,9.01,1.51,2.68,0,5.19-.37,7.54-1.1,1.84-.6,3.49-1.43,4.94-2.5,1.28-1,2.4-2.16,3.35-3.5,1.17-1.6,2.21-3.59,3.1-5.99.89-2.26,1.56-5.19,2.01-8.79.5-3.66,1.17-11.98,2.01-24.96.73-11.05,1.29-21.17,1.68-30.35.33-8.92.64-13.38.92-13.38h36.98l-4.08,59.53c-.06,1.12-.08,2.04-.08,2.77-.22,11.63-.94,19.83-2.14,24.61-1.2,4.78-3.2,8.93-6,12.45s-6.88,6.69-12.25,9.52c-5.37,2.82-11.46,4.82-18.28,6s-13.73,1.76-20.72,1.76c-6.26,0-12.3-.45-18.12-1.34-5.37-.89-10.21-2.19-14.51-3.9-4.31-1.7-8.05-3.7-11.24-6-2.91-2.12-5.15-4.29-6.71-6.5-1.57-2.21-2.8-4.85-3.69-7.92-1.01-3.47-1.51-7.18-1.51-11.15,0-1.34.06-3.37.17-6.08.11-2.71.37-6.61.76-11.7l1.09-13.42c.28-3.52.59-8.69.93-15.51l1.52-33.12Z" fill="#ff8c12"/>
      <path d="M1674.05,1120.98c1.07-9.84,1.91-18.7,2.52-26.58.62-7.88,1.15-17.02,1.6-27.42s.78-21.37,1.01-32.91c.22-11.54.34-20.72.34-27.54,6.99.17,12.63.25,16.93.25s9.92-.13,16.35-.38c6.43-.25,12.69-.38,18.78-.38,7.15,0,13.53.28,19.11.84,4.19.39,8.01,1.2,11.44,2.43,3.44,1.23,6.33,2.73,8.68,4.49s4.3,3.73,5.87,5.91,2.78,4.74,3.65,7.67c.87,2.93,1.3,6.08,1.3,9.43,0,3.75-.48,7.25-1.43,10.52-.95,3.27-2.45,6.35-4.49,9.22-2.04,2.88-4.61,5.37-7.71,7.46-3.1,2.1-7.45,4.23-13.04,6.41l4.36,10.65c1.23,2.96,2.54,5.98,3.94,9.06l11.24,24.57c.5,1.06,1.4,3.16,2.68,6.29-9.22-.11-15.42-.17-18.6-.17-4.02,0-10.62.06-19.78.17-.9-2.91-2.52-8.3-4.87-16.18-.95-3.3-1.76-5.84-2.43-7.63-1.34-3.97-3.33-9.53-5.96-16.69l-8.65-23.73c3.02.56,5.98.84,8.89.84,4.08,0,7.78-.61,11.11-1.84s5.84-3.13,7.55-5.7c1.71-2.57,2.56-5.28,2.56-8.13,0-2.4-.64-4.51-1.93-6.33-1.29-1.82-3.31-3.17-6.08-4.07-2.77-.89-7.03-1.34-12.79-1.34-1.96,0-3.98.04-6.08.12-2.1.08-4.54.16-7.34.21-.72,11.46-1.35,25.44-1.9,41.92-.55,16.49-.91,32.67-1.07,48.55-9.35-.11-15.42-.17-18.22-.17-3.25,0-9.09.06-17.55.17Z" fill="#ff8c12"/>
      <path d="M1822.47,1120.98l6.96-12.07,43.37-81.67,4.61-9.14c1.34-2.68,3.21-6.54,5.62-11.57,9.84.11,17.02.17,21.55.17,7.88,0,15.17-.05,21.88-.17l12.23,34.96,24.89,67.25,4.86,12.24c-9.68-.11-15.56-.17-17.63-.17-4.7,0-11.61.06-20.73.17-2.46-9.22-6-20.07-10.63-32.53h-42.21c-4.86,9.84-9.89,20.68-15.08,32.53-10.41-.11-16.79-.17-19.14-.17-4.25,0-11.11.06-20.57.17ZM1887.39,1064.05h26.04c-6.47-19.7-10.02-30.55-10.63-32.56-3.69,8.2-6.81,14.93-9.38,20.17l-6.03,12.39Z" fill="#ff8c12"/>
      <path d="M1977.34,1120.98l1.68-17.61,3.27-59.7.92-24.06v-13.08c8.68.11,16.35.17,23.01.17,4.76,0,11.45-.05,20.07-.17l35.79,65.09,4.93,9.56c.63-9.39,1.27-22.56,1.93-39.51.66-16.94.99-28.66.99-35.15,6.87.11,12.37.17,16.5.17,1.9,0,7.37-.05,16.42-.17l-2.01,24.99-3.77,69.43-.5,20.04c-7.27-.11-14.07-.17-20.39-.17-5.26,0-12.53.06-21.81.17-2.9-5.48-5.05-9.45-6.45-11.91l-14.07-23.91c-4.63-7.83-8.91-15.32-12.81-22.48-2.57-4.53-5.22-9.51-7.96-14.93l-1.8,39.76-.86,33.47c-6.92-.11-12.2-.17-15.83-.17-3.07,0-8.82.06-17.25.17Z" fill="#ff8c12"/>
      <path d="M2118.54,1120.98c3.22-44.89,4.83-79.43,4.83-103.64l-.08-10.82c9.79.11,16.33.17,19.64.17,1.51,0,7.52-.05,18.04-.17-1.01,12.58-1.83,24.48-2.44,35.72-.79,15.65-1.35,30.28-1.68,43.89-.34,13.61-.5,25.23-.5,34.84l-17.18-.17c-3.35,0-10.22.06-20.62.17Z" fill="#ff8c12"/>
      <path d="M2174.97,1120.98l2.08-16.94,5.16-58.78,2.58-38.74c10.32.11,18.43.17,24.32.17,4.88,0,12.34-.05,22.38-.17.72,4.81,1.34,8.46,1.84,10.94s1.74,7.35,3.72,14.59c1.98,7.24,3.57,13.5,4.77,18.78,1.2,5.28,3,14.33,5.39,27.12,2.46-8.78,4.7-16.32,6.72-22.64,2.02-6.32,4.54-13.5,7.56-21.55,3.02-8.05,4.94-13.32,5.75-15.81.81-2.49,1.92-6.3,3.32-11.45,8.38.11,16.6.17,24.65.17,5.48,0,13.08-.05,22.81-.17-1.06,18.84-1.76,35.02-2.1,48.55-.73,26.5-1.09,44.72-1.09,54.67,0,2.07.05,5.81.17,11.24-7.38-.11-12.55-.17-15.51-.17-4.3,0-9.59.06-15.85.17.46-5.03,1.02-17.01,1.7-35.93.68-18.92,1.02-31.01,1.02-36.26,0-2.29-.06-5.48-.17-9.56l-11,34.13-15.79,47.63c-7.27-.11-12.27-.17-15.01-.17-3.47,0-8.78.06-15.93.17l-10.34-46.12-6.05-24.57c-.23-.95-.48-2.12-.76-3.52-.28-1.4-.73-3.86-1.34-7.38l-2.11,23.23-2.79,47.63-.25,10.73c-7.71-.11-12.63-.17-14.76-.17-2.91,0-7.94.06-15.09.17Z" fill="#ff8c12"/>
      <path d="M2320.03,1120.98l6.96-12.07,43.37-81.67,4.61-9.14c1.34-2.68,3.21-6.54,5.62-11.57,9.84.11,17.02.17,21.55.17,7.88,0,15.17-.05,21.88-.17l12.23,34.96,24.89,67.25,4.86,12.24c-9.68-.11-15.56-.17-17.63-.17-4.7,0-11.61.06-20.73.17-2.46-9.22-6-20.07-10.63-32.53h-42.21c-4.86,9.84-9.89,20.68-15.08,32.53-10.41-.11-16.79-.17-19.14-.17-4.25,0-11.11.06-20.57.17ZM2384.95,1064.05h26.04c-6.47-19.7-10.02-30.55-10.63-32.56-3.69,8.2-6.81,14.93-9.38,20.17l-6.03,12.39Z" fill="#ff8c12"/>
    </g>
    <g>
      <rect x="1823.94" y="924.64" width="321.25" height="22.47" fill="#ff8c12"/>
      <rect x="2144.16" y="924.64" width="322.27" height="22.47" fill="#ff8c12"/>
      <rect x="1823.94" y="956.31" width="321.25" height="13.38" fill="#ff8c12"/>
      <rect x="1823.94" y="976.1" width="321.25" height="13.13" fill="#ff8c12"/>
      <rect x="1823.94" y="995.65" width="321.25" height="13.97" transform="translate(3969.12 2005.27) rotate(180)" fill="#ff8c12"/>
      <rect x="2145.18" y="973.18" width="321.25" height="12.25" transform="translate(4611.62 1958.61) rotate(180)" fill="#ff8c12"/>
      <rect x="1823.94" y="1009.62" width="321.25" height="14.78" transform="translate(3969.12 2034.02) rotate(180)" fill="#ff8c12"/>
      <rect x="2145.18" y="988.93" width="321.25" height="13.71" transform="translate(4611.62 1991.56) rotate(180)" fill="#ff8c12"/>
      <rect x="2144.59" y="950.93" width="321.84" height="15.26" fill="#ff8c12"/>
      <rect x="2145.18" y="1016.04" width="321.25" height="22.47" transform="translate(4611.62 2054.55) rotate(180)" fill="#ff8c12"/>
      <rect x="1823.94" y="1034.03" width="321.25" height="13.92" transform="translate(3969.12 2081.97) rotate(180)" fill="#ff8c12"/>
      <rect x="2145.18" y="1108.04" width="321.25" height="13.38" transform="translate(4611.62 2229.45) rotate(180)" fill="#ff8c12"/>
      <rect x="2145.18" y="1092.74" width="321.25" height="7.38" transform="translate(4611.62 2192.86) rotate(180)" fill="#ff8c12"/>
      <rect x="2145.18" y="1075.7" width="321.25" height="10.98" fill="#ff8c12"/>
      <rect x="1823.94" y="1061.24" width="321.25" height="21.44" fill="#ff8c12"/>
      <rect x="2145.18" y="1048.6" width="321.25" height="13.92" fill="#ff8c12"/>
      <rect x="1823.34" y="1096.43" width="321.25" height="14.78" transform="translate(3967.93 2207.64) rotate(180)" fill="#ff8c12"/>
    </g>
    <g>
      <path d="M1984.84,101.88l2.83-39.99,1.31-29.15.36-12.96c.1-3.76.15-7.37.15-10.84l-.07-7.03c7.67.1,13.42.15,17.23.15,2.98,0,8.16-.05,15.54-.15-1.16,14.01-1.91,26.39-2.24,37.13h39.87c.24-4.01.47-9.43.69-16.26.22-6.83.33-11.48.33-13.98,0-1.32-.05-3.62-.15-6.9l17.34.15c1.8,0,6.92-.05,15.36-.15-1.74,25.1-2.86,43.76-3.34,55.99-.49,12.23-.73,26.89-.73,43.98l-15.98-.15c-2.4,0-8.11.05-17.16.15,1.22-11.62,2.05-25.15,2.49-40.58h-39.9l-1.23,40.58-17.01-.15c-2.15,0-7.38.05-15.69.15Z" fill="#ff8c12"/>
      <path d="M2129.56,101.88c2.42-23.73,3.88-49.85,4.37-78.37l-31.17.81.37-8.13c.19-4.35.34-9.11.44-14.28,13.86.1,30.02.15,48.47.15l18.08-.07h17.57l9.52-.07-.44,7.17c-.2,3.85-.33,7.03-.4,9.54-.07,2.51-.11,4.41-.11,5.69-10.44-.54-19.05-.81-25.83-.81h-5.12c-.74,8.63-1.3,16.59-1.69,23.91-.54,10.48-.96,20.65-1.25,30.52s-.44,17.85-.44,23.94c-8-.1-13.17-.15-15.52-.15-2.1,0-7.71.05-16.83.15Z" fill="#ff8c12"/>
      <path d="M2224.78,101.88c2.42-23.73,3.88-49.85,4.37-78.37l-31.17.81.37-8.13c.19-4.35.34-9.11.44-14.28,13.86.1,30.02.15,48.47.15l18.08-.07h17.57l9.52-.07-.44,7.17c-.2,3.85-.33,7.03-.4,9.54-.07,2.51-.11,4.41-.11,5.69-10.44-.54-19.05-.81-25.83-.81h-5.12c-.74,8.63-1.3,16.59-1.69,23.91-.54,10.48-.96,20.65-1.25,30.52s-.44,17.85-.44,23.94c-8-.1-13.17-.15-15.52-.15-2.1,0-7.71.05-16.83.15Z" fill="#ff8c12"/>
      <path d="M2298.02,101.88l1.45-18.75,1.89-36.62.8-25.93c.05-2.78.07-5.57.07-8.35,0-2.1-.03-5.54-.07-10.33,6.45.15,11.62.22,15.53.22s8.91-.11,15.46-.33c6.54-.22,12.09-.33,16.63-.33,6.54,0,11.39.42,14.54,1.25,3.15.83,6,2.14,8.54,3.92,2.54,1.78,4.64,3.87,6.3,6.26,1.66,2.39,2.91,5.12,3.74,8.17.83,3.05,1.25,6.17,1.25,9.34,0,6.54-1.59,12.52-4.76,17.94-3.17,5.42-7.64,9.47-13.4,12.16-5.76,2.69-12.23,4.03-19.41,4.03-2.64,0-5.69-.29-9.16-.88-.39-2.25-1.12-5.59-2.2-10.03-1.08-4.44-1.95-7.74-2.64-9.89,2.15.44,4.39.66,6.74.66,4.93,0,8.61-1.18,11.02-3.55,2.42-2.37,3.63-5.26,3.63-8.68,0-1.66-.27-3.14-.81-4.43-.54-1.29-1.39-2.35-2.56-3.19-1.17-.83-2.47-1.37-3.88-1.61-1.42-.24-3.03-.37-4.83-.37s-3.59.05-5.49.15l-6.15.44c-.63,9.42-1.11,19.9-1.45,31.42-.63,21-.94,33.59-.94,37.79v9.52l-14.59-.15c-2.05,0-7.14.05-15.25.15Z" fill="#ff8c12"/>
      <path d="M2392.58,100.34c-.63-10.4-1.37-18.72-2.2-24.98,5.48,2.44,10.36,4.14,14.64,5.09,4.28.95,8.03,1.43,11.26,1.43,4.25,0,7.64-.62,10.16-1.87s3.78-3.09,3.78-5.53c0-.83-.12-1.62-.37-2.38-.25-.76-.71-1.61-1.39-2.56s-1.66-1.99-2.94-3.11l-13.8-12.01c-3.23-2.73-5.48-4.71-6.75-5.93-2.59-2.49-4.61-4.81-6.05-6.96-1.44-2.15-2.5-4.33-3.16-6.56-.66-2.22-.99-4.58-.99-7.07,0-2.98.52-5.9,1.57-8.75,1.05-2.86,2.62-5.53,4.72-8.02,2.1-2.49,4.88-4.64,8.35-6.45,3.47-1.81,7.18-3.04,11.13-3.7s8.03-.99,12.23-.99c8.25,0,17.24.95,26.95,2.86.15,3.37.32,6.46.51,9.26.19,2.81.66,7.73,1.39,14.76-4.49-1.81-8.59-3.06-12.3-3.77-3.71-.71-6.91-1.06-9.59-1.06-3.81,0-6.97.71-9.48,2.12-2.52,1.42-3.77,3.17-3.77,5.27,0,.98.19,1.93.59,2.86.39.93,1.12,2.01,2.2,3.26,1.07,1.25,2.49,2.61,4.25,4.1,1.76,1.49,4.52,3.7,8.28,6.63l5.27,4.17c1.56,1.27,3.25,2.81,5.05,4.61,1.81,1.81,3.37,3.59,4.69,5.35s2.33,3.37,3.04,4.83c.71,1.46,1.23,2.94,1.57,4.43.34,1.49.51,3.09.51,4.8,0,4.39-1.05,8.58-3.15,12.56-2.1,3.98-5.08,7.25-8.94,9.81-3.86,2.56-8.09,4.36-12.71,5.38-4.62,1.03-9.49,1.54-14.61,1.54-7.91,0-17.9-1.15-29.96-3.44Z" fill="#ff8c12"/>
      <path d="M2007.19,281.88l-2.49-13.48c-.59-3.17-1.49-7.62-2.71-13.33l-11.95-54.71-4.33-18.46c6.16.1,11.14.15,14.95.15,4.3,0,9.29-.05,14.95-.15,1.32,7.96,2.37,13.79,3.15,17.5l6.16,29.52c1.27,6.35,2.69,14.09,4.25,23.22l2.41-10.25,8.7-33.84,5.99-26.15c6.69.1,12.35.15,16.99.15,5.03,0,10.67-.05,16.92-.15l4.63,30.83,6.39,39.26,2.85-10.77c.54-1.86,1.1-3.74,1.68-5.64s1.81-5.69,3.66-11.35l8.93-28.12,4.17-14.21c5.9.05,10.78.07,14.64.07,4.34,0,9.2-.02,14.57-.07l-28.4,85.11-4.54,14.87c-7.33-.1-13.72-.15-19.19-.15-5.76,0-12.14.05-19.12.15l-1.68-10.03-6.43-34.94c-.34-2.1-.65-4.26-.92-6.48-.27-2.22-.64-5.68-1.13-10.36l-2.56,11.35c-.64,2.54-1.29,5.1-1.98,7.69l-11.8,42.77c-7.37-.1-13.5-.15-18.39-.15-5.18,0-11.31.05-18.39.15Z" fill="#ff8c12"/>
      <path d="M2170.16,281.88l-2.49-13.48c-.59-3.17-1.49-7.62-2.71-13.33l-11.95-54.71-4.32-18.46c6.16.1,11.14.15,14.95.15,4.3,0,9.28-.05,14.95-.15,1.32,7.96,2.37,13.79,3.15,17.5l6.16,29.52c1.27,6.35,2.69,14.09,4.25,23.22l2.41-10.25,8.7-33.84,5.99-26.15c6.69.1,12.35.15,16.99.15,5.03,0,10.67-.05,16.92-.15l4.63,30.83,6.39,39.26,2.85-10.77c.54-1.86,1.1-3.74,1.68-5.64s1.81-5.69,3.66-11.35l8.93-28.12,4.17-14.21c5.9.05,10.78.07,14.64.07,4.34,0,9.2-.02,14.56-.07l-28.4,85.11-4.54,14.87c-7.32-.1-13.72-.15-19.19-.15-5.76,0-12.13.05-19.12.15l-1.68-10.03-6.43-34.94c-.34-2.1-.65-4.26-.91-6.48-.27-2.22-.65-5.68-1.13-10.36l-2.56,11.35c-.64,2.54-1.3,5.1-1.98,7.69l-11.8,42.77c-7.38-.1-13.5-.15-18.39-.15-5.18,0-11.31.05-18.39.15Z" fill="#ff8c12"/>
      <path d="M2333.12,281.88l-2.49-13.48c-.59-3.17-1.49-7.62-2.71-13.33l-11.95-54.71-4.33-18.46c6.16.1,11.14.15,14.95.15,4.3,0,9.29-.05,14.95-.15,1.32,7.96,2.37,13.79,3.15,17.5l6.16,29.52c1.27,6.35,2.69,14.09,4.25,23.22l2.41-10.25,8.7-33.84,5.99-26.15c6.69.1,12.35.15,16.99.15,5.03,0,10.67-.05,16.92-.15l4.63,30.83,6.39,39.26,2.85-10.77c.54-1.86,1.1-3.74,1.68-5.64s1.81-5.69,3.66-11.35l8.93-28.12,4.17-14.21c5.9.05,10.78.07,14.64.07,4.34,0,9.2-.02,14.57-.07l-28.4,85.11-4.54,14.87c-7.33-.1-13.72-.15-19.19-.15-5.76,0-12.14.05-19.12.15l-1.68-10.03-6.43-34.94c-.34-2.1-.65-4.26-.92-6.48-.27-2.22-.64-5.68-1.13-10.36l-2.56,11.35c-.64,2.54-1.29,5.1-1.98,7.69l-11.8,42.77c-7.37-.1-13.5-.15-18.39-.15-5.18,0-11.31.05-18.39.15Z" fill="#ff8c12"/>
      <path d="M1667.7,437.49c-.59,2.87-1.29,6.88-2.12,12.01-.83,5.14-1.39,9.12-1.68,11.94-10.45,1.56-19.78,2.34-27.98,2.34s-15.27-.99-22.08-2.97c-6.81-1.98-13.06-5.22-18.75-9.74-5.69-4.52-9.75-9.83-12.19-15.93-2.44-6.1-3.66-12.94-3.66-20.51,0-8.84,1.65-16.78,4.94-23.84,3.29-7.05,8.03-12.94,14.21-17.65,6.18-4.71,12.95-8.08,20.32-10.11,7.37-2.03,14.99-3.04,22.85-3.04,7.23,0,16.16.93,26.81,2.78l.15,6.15c.1,2.69.24,5.64.44,8.86l.51,8.35c-5.71-1.37-10.34-2.29-13.88-2.78-3.54-.49-6.82-.73-9.85-.73-6.59,0-12.52,1.32-17.8,3.96s-9.42,6.47-12.45,11.5c-3.03,5.03-4.54,10.6-4.54,16.7,0,5.57,1.27,10.34,3.81,14.32,2.54,3.98,5.97,7.06,10.29,9.23,4.32,2.17,9.65,3.26,16,3.26,3.47,0,7.24-.28,11.32-.84,4.08-.56,9.19-1.65,15.34-3.26Z" fill="#ff8c12"/>
      <path d="M1742.18,360c7.81,0,15.33,1.05,22.56,3.15,7.23,2.1,13.55,5.46,18.97,10.07s9.47,9.92,12.16,15.93c2.68,6.01,4.03,12.92,4.03,20.73,0,8.2-1.48,15.74-4.43,22.59-2.96,6.86-7.21,12.68-12.78,17.47-5.57,4.79-12.21,8.29-19.92,10.51-7.72,2.22-15.75,3.33-24.1,3.33s-16.16-1.09-23.73-3.26c-7.57-2.17-14.15-5.69-19.74-10.55-5.59-4.86-9.56-10.26-11.9-16.22-2.34-5.96-3.52-12.57-3.52-19.85,0-10.69,2.48-20.08,7.43-28.16,4.96-8.08,12.3-14.39,22.05-18.93,9.74-4.54,20.71-6.81,32.92-6.81ZM1740.87,382.05c-5.62,0-10.69,1.38-15.23,4.14-4.54,2.76-8.03,6.59-10.47,11.5-2.44,4.91-3.66,10.17-3.66,15.78,0,5.18,1.11,9.91,3.33,14.21,2.22,4.3,5.6,7.65,10.14,10.07s9.35,3.63,14.43,3.63c5.42,0,10.39-1.36,14.9-4.07,4.52-2.71,7.96-6.52,10.33-11.43,2.37-4.91,3.55-10.04,3.55-15.42s-1.1-10.05-3.3-14.47c-2.2-4.42-5.42-7.85-9.67-10.29-4.25-2.44-9.03-3.66-14.36-3.66Z" fill="#ff8c12"/>
      <path d="M1811.69,461.88l1.46-15.38,2.86-52.15.81-21.02v-11.43c7.58.1,14.28.15,20.1.15,4.16,0,10-.05,17.53-.15l31.26,56.86,4.31,8.35c.55-8.21,1.11-19.71,1.69-34.51s.87-25.03.87-30.7c6,.1,10.8.15,14.41.15,1.66,0,6.44-.05,14.34-.15l-1.76,21.83-3.3,60.64-.44,17.5c-6.35-.1-12.29-.15-17.81-.15-4.59,0-10.94.05-19.06.15-2.54-4.79-4.41-8.25-5.63-10.41l-12.29-20.88c-4.05-6.84-7.78-13.38-11.19-19.64-2.24-3.96-4.56-8.3-6.95-13.04l-1.58,34.73-.75,29.24c-6.05-.1-10.66-.15-13.83-.15-2.68,0-7.71.05-15.07.15Z" fill="#ff8c12"/>
      <path d="M1933.86,460.34c-.64-10.4-1.37-18.72-2.2-24.98,5.48,2.44,10.36,4.14,14.64,5.09,4.28.95,8.04,1.43,11.26,1.43,4.25,0,7.64-.62,10.16-1.87,2.52-1.25,3.78-3.09,3.78-5.53,0-.83-.12-1.62-.37-2.38-.25-.76-.71-1.61-1.39-2.56-.69-.95-1.66-1.99-2.94-3.11l-13.8-12.01c-3.23-2.73-5.48-4.71-6.75-5.93-2.59-2.49-4.61-4.81-6.06-6.96-1.44-2.15-2.5-4.33-3.16-6.56-.66-2.22-.99-4.58-.99-7.07,0-2.98.52-5.9,1.58-8.75,1.05-2.86,2.62-5.53,4.72-8.02,2.1-2.49,4.88-4.64,8.35-6.45,3.47-1.81,7.18-3.04,11.13-3.7s8.03-.99,12.23-.99c8.25,0,17.24.95,26.95,2.86.15,3.37.32,6.46.51,9.26.19,2.81.66,7.73,1.39,14.76-4.49-1.81-8.59-3.06-12.3-3.77-3.71-.71-6.91-1.06-9.59-1.06-3.81,0-6.97.71-9.49,2.12-2.52,1.42-3.77,3.17-3.77,5.27,0,.98.19,1.93.59,2.86.39.93,1.12,2.01,2.2,3.26,1.07,1.25,2.49,2.61,4.25,4.1,1.76,1.49,4.52,3.7,8.28,6.63l5.27,4.17c1.56,1.27,3.25,2.81,5.05,4.61,1.81,1.81,3.37,3.59,4.69,5.35s2.33,3.37,3.04,4.83c.71,1.46,1.23,2.94,1.58,4.43.34,1.49.51,3.09.51,4.8,0,4.39-1.05,8.58-3.15,12.56-2.1,3.98-5.08,7.25-8.94,9.81-3.86,2.56-8.09,4.36-12.71,5.38-4.61,1.03-9.48,1.54-14.61,1.54-7.91,0-17.9-1.15-29.96-3.44Z" fill="#ff8c12"/>
      <path d="M2022.06,361.9c7.61.1,12.98.15,16.1.15,3.91,0,9.1-.05,15.59-.15l-2.18,31.13c-.44,5.86-.76,11.35-.98,16.48-.22,5.13-.33,8.67-.33,10.62,0,3.71.27,6.81.8,9.3s1.51,4.6,2.93,6.33c1.41,1.73,3.38,3.04,5.89,3.92,2.51.88,5.13,1.32,7.87,1.32,2.34,0,4.54-.32,6.59-.96,1.61-.52,3.05-1.25,4.32-2.18,1.12-.87,2.1-1.89,2.93-3.05,1.02-1.4,1.93-3.14,2.71-5.23.78-1.98,1.37-4.53,1.76-7.67.44-3.2,1.03-10.46,1.76-21.8.63-9.65,1.12-18.49,1.47-26.51.29-7.79.56-11.69.8-11.69h32.3l-3.56,52c-.05.98-.07,1.78-.07,2.42-.2,10.16-.82,17.32-1.87,21.5s-2.8,7.8-5.24,10.88c-2.44,3.08-6.01,5.85-10.7,8.31-4.69,2.47-10.01,4.21-15.97,5.24s-11.99,1.54-18.1,1.54c-5.47,0-10.75-.39-15.82-1.17-4.69-.78-8.92-1.92-12.68-3.41-3.76-1.49-7.03-3.23-9.82-5.24-2.54-1.86-4.49-3.75-5.86-5.68-1.37-1.93-2.44-4.24-3.22-6.92-.88-3.03-1.32-6.27-1.32-9.74,0-1.17.05-2.94.15-5.31.1-2.37.32-5.77.66-10.22l.96-11.72c.25-3.08.51-7.59.81-13.55l1.32-28.93Z" fill="#ff8c12"/>
      <path d="M2132.57,461.88l1.81-14.79,4.5-51.34,2.25-33.84c9.02.1,16.1.15,21.24.15,4.26,0,10.78-.05,19.55-.15.63,4.2,1.17,7.39,1.61,9.56.44,2.17,1.52,6.42,3.25,12.74,1.73,6.32,3.12,11.79,4.16,16.41,1.05,4.61,2.62,12.51,4.71,23.69,2.15-7.67,4.11-14.26,5.87-19.78,1.76-5.52,3.96-11.79,6.6-18.82s4.32-11.63,5.03-13.81c.71-2.17,1.68-5.5,2.9-10,7.32.1,14.5.15,21.53.15,4.79,0,11.43-.05,19.92-.15-.93,16.46-1.54,30.59-1.83,42.41-.64,23.14-.95,39.06-.95,47.75,0,1.81.05,5.08.15,9.81-6.45-.1-10.96-.15-13.55-.15-3.76,0-8.38.05-13.84.15.4-4.39.89-14.86,1.49-31.38.59-16.53.89-27.09.89-31.68,0-2-.05-4.79-.15-8.35l-9.61,29.81-13.79,41.6c-6.35-.1-10.72-.15-13.11-.15-3.03,0-7.67.05-13.92.15l-9.03-40.28-5.29-21.46c-.2-.83-.42-1.86-.66-3.08-.25-1.22-.64-3.37-1.17-6.45l-1.85,20.29-2.44,41.6-.22,9.38c-6.74-.1-11.04-.15-12.89-.15-2.54,0-6.93.05-13.18.15Z" fill="#ff8c12"/>
      <path d="M2272.31,461.88c1.22-12.6,2.12-23.14,2.68-31.64.56-8.5,1.13-19.79,1.69-33.88.56-14.09.84-23.42.84-28.01l-.07-6.45c11.52.1,25.46.15,41.81.15,15.09,0,28.39-.05,39.91-.15l-.15,2.41c-.05.58-.17,2.7-.37,6.35l-.44,7.96c-.1,1.7-.15,3.43-.15,5.18-9.42-.39-17.33-.59-23.73-.59-7.03,0-11.78.01-14.25.04-2.47.03-6.31.14-11.54.33l-.89,16.85c5.76.15,12.48.22,20.15.22,2.74,0,10.01-.17,21.83-.51-.49,6.25-.95,13.7-1.39,22.34-8.44-.1-14.93-.15-19.47-.15-6.73,0-14.27.17-22.62.51l-.87,17.8h8.42c2.49,0,7.64-.07,15.44-.22l15.15-.37c2.24-.05,6-.24,11.27-.59-.59,7.23-1.08,14.7-1.46,22.41-11.92-.1-24.98-.15-39.18-.15l-32.23.07-10.4.07Z" fill="#ff8c12"/>
      <path d="M2371.12,461.88c.93-8.59,1.67-16.33,2.2-23.22.54-6.88,1-14.87,1.39-23.95.39-9.08.69-18.66.88-28.75.2-10.08.29-18.1.29-24.06,6.1.15,11.03.22,14.79.22s8.67-.11,14.28-.33c5.62-.22,11.08-.33,16.4-.33,6.25,0,11.81.25,16.7.73,3.66.34,6.99,1.05,10,2.12,3,1.07,5.53,2.38,7.58,3.92s3.76,3.26,5.13,5.16,2.43,4.14,3.19,6.7c.76,2.56,1.13,5.31,1.13,8.24,0,3.27-.42,6.33-1.25,9.19-.83,2.86-2.14,5.54-3.92,8.06-1.78,2.52-4.03,4.69-6.74,6.52-2.71,1.83-6.51,3.7-11.39,5.6l3.81,9.3c1.07,2.59,2.22,5.23,3.44,7.91l9.81,21.46c.44.93,1.22,2.76,2.34,5.49-8.05-.1-13.47-.15-16.25-.15-3.51,0-9.27.05-17.27.15-.78-2.54-2.2-7.25-4.25-14.14-.83-2.88-1.54-5.1-2.13-6.67-1.17-3.47-2.91-8.32-5.21-14.58l-7.55-20.73c2.64.49,5.22.73,7.76.73,3.56,0,6.8-.54,9.7-1.61,2.9-1.07,5.1-2.73,6.59-4.98,1.49-2.25,2.23-4.61,2.23-7.1,0-2.1-.56-3.94-1.68-5.53-1.12-1.59-2.89-2.77-5.31-3.55-2.42-.78-6.14-1.17-11.17-1.17-1.71,0-3.48.04-5.31.11-1.83.07-3.97.14-6.41.18-.63,10.01-1.18,22.22-1.66,36.62-.48,14.4-.79,28.54-.94,42.41-8.16-.1-13.47-.15-15.91-.15-2.84,0-7.94.05-15.33.15Z" fill="#ff8c12"/>
      <path d="M1938.62,641.88c2.42-23.73,3.88-49.85,4.37-78.37l-31.17.81.37-8.13c.19-4.35.34-9.11.44-14.28,13.86.1,30.02.15,48.47.15l18.08-.07h17.57l9.52-.07-.44,7.17c-.19,3.85-.33,7.03-.4,9.54-.07,2.51-.11,4.41-.11,5.69-10.44-.54-19.05-.81-25.83-.81h-5.12c-.74,8.63-1.3,16.59-1.7,23.91-.54,10.48-.96,20.65-1.25,30.52s-.44,17.85-.44,23.94c-8-.1-13.18-.15-15.52-.15-2.1,0-7.71.05-16.83.15Z" fill="#ff8c12"/>
      <path d="M2072.07,540c7.81,0,15.33,1.05,22.56,3.15,7.23,2.1,13.55,5.46,18.97,10.07s9.47,9.92,12.16,15.93c2.68,6.01,4.03,12.92,4.03,20.73,0,8.2-1.48,15.74-4.43,22.59-2.96,6.86-7.21,12.68-12.78,17.47-5.57,4.79-12.21,8.29-19.92,10.51-7.72,2.22-15.75,3.33-24.1,3.33s-16.16-1.09-23.73-3.26c-7.57-2.17-14.15-5.69-19.74-10.55-5.59-4.86-9.56-10.26-11.9-16.22-2.34-5.96-3.52-12.57-3.52-19.85,0-10.69,2.48-20.08,7.43-28.16,4.96-8.08,12.3-14.39,22.05-18.93,9.74-4.54,20.71-6.81,32.92-6.81ZM2070.75,562.05c-5.62,0-10.69,1.38-15.23,4.14-4.54,2.76-8.03,6.59-10.47,11.5-2.44,4.91-3.66,10.17-3.66,15.78,0,5.18,1.11,9.91,3.33,14.21,2.22,4.3,5.6,7.65,10.14,10.07s9.35,3.63,14.43,3.63c5.42,0,10.39-1.36,14.9-4.07,4.52-2.71,7.96-6.52,10.33-11.43,2.37-4.91,3.55-10.04,3.55-15.42s-1.1-10.05-3.3-14.47c-2.2-4.42-5.42-7.85-9.67-10.29-4.25-2.44-9.03-3.66-14.36-3.66Z" fill="#ff8c12"/>
      <path d="M2141.65,641.88c1.08-11.13,1.82-20.04,2.21-26.73.59-9.96,1.18-22.85,1.77-38.67.44-12.11.66-20.78.66-26v-8.57c5.71.15,10.64.22,14.79.22s9.25-.11,15.74-.33,12.59-.33,18.31-.33c6.54,0,12.28.39,17.21,1.17,4.93.78,9.53,2.39,13.8,4.83,4.27,2.44,7.85,5.64,10.73,9.59,2.88,3.96,5.08,8.58,6.59,13.88,1.51,5.3,2.27,10.76,2.27,16.37s-.59,10.83-1.76,15.93c-1.17,5.1-2.81,9.71-4.91,13.81-2.1,4.1-4.55,7.63-7.36,10.58-2.81,2.96-6.02,5.48-9.63,7.58-2.69,1.56-5.4,2.78-8.13,3.66-2.74.88-6.47,1.59-11.21,2.12-5.27.59-11.26.88-17.94.88l-29.59-.22c-2.78,0-7.3.07-13.55.22ZM2173.31,619.83c2.68.25,5.49.37,8.42.37,4.98,0,9.42-.44,13.32-1.32s7.33-2.76,10.28-5.64c2.95-2.88,5.14-6.58,6.55-11.1,1.41-4.52,2.12-9.14,2.12-13.88,0-5.81-1.05-10.71-3.15-14.69-2.1-3.98-4.9-6.75-8.39-8.31-3.49-1.56-8.24-2.34-14.25-2.34-3.52,0-7.67.15-12.45.44l-2.47,56.47Z" fill="#ff8c12"/>
      <path d="M2244.41,641.88l6.08-10.55,37.88-71.34,4.03-7.98c1.17-2.34,2.81-5.71,4.91-10.11,8.59.1,14.87.15,18.82.15,6.88,0,13.25-.05,19.11-.15l10.69,30.54,21.74,58.74,4.25,10.69c-8.46-.1-13.59-.15-15.4-.15-4.11,0-10.14.05-18.11.15-2.14-8.06-5.24-17.53-9.29-28.42h-36.87c-4.24,8.59-8.64,18.07-13.17,28.42-9.09-.1-14.67-.15-16.72-.15-3.72,0-9.7.05-17.96.15ZM2301.11,592.15h22.75c-5.65-17.21-8.75-26.69-9.29-28.44-3.22,7.17-5.95,13.04-8.2,17.62l-5.27,10.82Z" fill="#ff8c12"/>
      <path d="M2400.78,641.88c.49-3.96,1.07-10.67,1.76-20.14.68-9.47,1.03-16.16,1.03-20.07l-33.54-59.77c7.37.1,13.44.15,18.22.15s10.08-.05,16.47-.15c1.95,4.88,4.6,10.7,7.94,17.46,3.34,6.76,6.07,12.8,8.17,18.12,5.61-9.91,10.13-17.63,13.54-23.17,3.42-5.54,5.86-9.68,7.32-12.41,6.21.1,12.17.15,17.89.15,3.03,0,8.53-.05,16.5-.15l-32.15,47.39c-6.4,9.47-9.59,14.43-9.59,14.87l-.07.73v.73l-.07.73-.51,11.13c-.34,7.37-.61,15.5-.8,24.39-6.89-.1-12.21-.15-15.97-.15s-9.23.05-16.12.15Z" fill="#ff8c12"/>
      <path d="M2184.79,720c7.81,0,15.33,1.05,22.56,3.15,7.23,2.1,13.55,5.46,18.97,10.07s9.47,9.92,12.16,15.93c2.68,6.01,4.03,12.92,4.03,20.73,0,8.2-1.48,15.74-4.43,22.59-2.96,6.86-7.21,12.68-12.78,17.47-5.57,4.79-12.21,8.29-19.92,10.51-7.72,2.22-15.75,3.33-24.1,3.33s-16.16-1.09-23.73-3.26c-7.57-2.17-14.15-5.69-19.74-10.55-5.59-4.86-9.56-10.26-11.9-16.22-2.34-5.96-3.52-12.57-3.52-19.85,0-10.69,2.48-20.08,7.43-28.16,4.96-8.08,12.3-14.39,22.04-18.93,9.74-4.54,20.71-6.81,32.92-6.81ZM2183.47,742.05c-5.62,0-10.69,1.38-15.23,4.14-4.54,2.76-8.03,6.59-10.47,11.5-2.44,4.91-3.66,10.17-3.66,15.78,0,5.18,1.11,9.91,3.33,14.21,2.22,4.3,5.6,7.65,10.14,10.07s9.35,3.63,14.43,3.63c5.42,0,10.39-1.36,14.91-4.07,4.52-2.71,7.96-6.52,10.33-11.43,2.37-4.91,3.55-10.04,3.55-15.42s-1.1-10.05-3.3-14.47c-2.2-4.42-5.42-7.85-9.67-10.29-4.25-2.44-9.03-3.66-14.36-3.66Z" fill="#ff8c12"/>
      <path d="M2254.07,821.88c.93-8.59,1.67-16.33,2.2-23.22.54-6.88,1-14.87,1.39-23.95.39-9.08.69-18.66.88-28.75.2-10.08.29-18.1.29-24.06,6.1.15,11.03.22,14.79.22s8.67-.11,14.28-.33c5.62-.22,11.08-.33,16.4-.33,6.25,0,11.81.25,16.7.73,3.66.34,6.99,1.05,10,2.12,3,1.07,5.53,2.38,7.58,3.92s3.76,3.26,5.13,5.16,2.43,4.14,3.19,6.7c.76,2.56,1.13,5.31,1.13,8.24,0,3.27-.42,6.33-1.25,9.19-.83,2.86-2.14,5.54-3.92,8.06-1.78,2.52-4.03,4.69-6.74,6.52-2.71,1.83-6.51,3.7-11.39,5.6l3.81,9.3c1.07,2.59,2.22,5.23,3.44,7.91l9.81,21.46c.44.93,1.22,2.76,2.34,5.49-8.05-.1-13.47-.15-16.25-.15-3.51,0-9.27.05-17.27.15-.78-2.54-2.2-7.25-4.25-14.14-.83-2.88-1.54-5.1-2.13-6.67-1.17-3.47-2.91-8.32-5.21-14.58l-7.55-20.73c2.64.49,5.22.73,7.76.73,3.56,0,6.8-.54,9.7-1.61,2.9-1.07,5.1-2.73,6.59-4.98,1.49-2.25,2.23-4.61,2.23-7.1,0-2.1-.56-3.94-1.68-5.53-1.12-1.59-2.89-2.77-5.31-3.55-2.42-.78-6.14-1.17-11.17-1.17-1.71,0-3.48.04-5.31.11-1.83.07-3.97.14-6.41.18-.63,10.01-1.18,22.22-1.66,36.62-.48,14.4-.79,28.54-.94,42.41-8.16-.1-13.47-.15-15.91-.15-2.84,0-7.94.05-15.33.15Z" fill="#ff8c12"/>
      <path d="M2418.14,763.58c6.69.1,13.06.15,19.12.15,10.35,0,18.46-.05,24.32-.15-.63,6.69-1.28,16.16-1.94,28.42-.66,12.26-1.06,21.51-1.21,27.76-5.62,1.03-10.27,1.77-13.95,2.23-3.69.46-8.12.88-13.29,1.25s-9.79.55-13.84.55c-6.64,0-13.16-.54-19.56-1.61-6.4-1.07-12.12-2.81-17.18-5.2-5.05-2.39-9.27-5.64-12.63-9.74s-5.97-8.96-7.8-14.58c-1.83-5.61-2.75-11.43-2.75-17.43,0-9.91,2.46-19.12,7.4-27.61,4.93-8.5,12.02-15.22,21.28-20.18,9.25-4.96,21.2-7.43,35.85-7.43,10.69,0,22.53,1.29,35.52,3.88,0,7.13.32,15.06.95,23.8-3.52-1.17-6.36-2.06-8.53-2.67-2.17-.61-4.71-1.17-7.62-1.68-2.91-.51-5.67-.89-8.28-1.13-2.61-.24-4.94-.37-6.99-.37-5.37,0-10.45.77-15.23,2.31-4.79,1.54-8.9,3.91-12.34,7.1-3.44,3.2-6.02,7.02-7.73,11.46-1.71,4.44-2.56,9.13-2.56,14.06s.98,9.51,2.93,13.44c1.95,3.93,5.05,6.92,9.3,8.97s8.98,3.08,14.21,3.08c4.35,0,9.11-.63,14.28-1.9l.83-15.89c-3.18-.15-5.06-.22-5.65-.22l-7.78.07.51-9.01c.05-.98.12-2.38.22-4.21.1-1.83.15-4.33.15-7.51Z" fill="#ff8c12"/>
    </g>
  </g>
</svg>