<?xml version="1.0" encoding="UTF-8"?>
<svg id="Layer_2" data-name="Layer 2" xmlns="http://www.w3.org/2000/svg" xmlns:xlink="http://www.w3.org/1999/xlink" viewBox="0 0 2543.53 2581.22">
  <defs>
    <clipPath id="clippath">
      <polygon points="1413.06 1726.03 724.1 379.06 .19 747.74 564.19 1895.45 1218.9 1884.3 1413.06 1726.03" fill="none"/>
    </clipPath>
    <clipPath id="clippath-1">
      <polygon points="1130.66 220.56 1819.62 1567.53 2543.53 1198.86 1979.53 51.15 1324.82 62.29 1130.66 220.56" fill="none"/>
    </clipPath>
    <clipPath id="clippath-2">
      <polygon points="1412.87 1719.83 723.91 372.86 0 741.53 564 1889.24 1218.71 1878.1 1412.87 1719.83" fill="none"/>
    </clipPath>
    <clipPath id="clippath-3">
      <polygon points="1130.47 214.36 1819.43 1561.33 2543.34 1192.65 1979.34 44.94 1324.63 56.09 1130.47 214.36" fill="none"/>
    </clipPath>
  </defs>
  <g id="Layer_1-2" data-name="Layer 1">
    <g>
      <g>
        <path d="M1336.1,1060.65c-.17-2.7-.35-4.86-.52-6.46,2.97,1,5.66,1.5,8.05,1.5,1.48,0,2.67-.3,3.59-.89.91-.59,1.37-1.39,1.37-2.39s-.46-1.69-1.39-2.14c-.93-.45-2.37-.68-4.33-.68-1.27,0-2.42.07-3.48.22.19-2.08.34-4.12.46-6.13.96.17,1.96.26,3.02.26,1.2,0,2.2-.08,2.99-.23.79-.15,1.4-.45,1.81-.9.41-.44.62-.92.62-1.44,0-.46-.16-.88-.49-1.25-.33-.37-.82-.63-1.47-.79-.65-.15-1.47-.23-2.44-.23-.84,0-1.73.05-2.68.14-.95.09-2.23.31-3.86.64l1-4.65c.08-.41.16-.86.24-1.32,2.89-.35,5.54-.52,7.95-.52,1.57,0,3.08.11,4.54.32s2.69.6,3.73,1.17c1.03.57,1.79,1.3,2.28,2.21.49.91.73,1.93.73,3.06,0,.68-.09,1.33-.27,1.96-.18.63-.46,1.21-.83,1.75-.37.54-.81,1.02-1.32,1.43-.51.41-1,.75-1.48,1-.48.25-1.12.54-1.92.86.84.17,1.5.35,1.97.54s.95.46,1.43.81c.48.35.89.77,1.22,1.24.33.47.58,1,.74,1.59.16.59.24,1.21.24,1.88,0,1.32-.3,2.54-.91,3.66s-1.5,2.05-2.68,2.79-2.53,1.27-4.06,1.59c-1.53.32-3.06.48-4.61.48s-2.94-.08-4.31-.23c-1.37-.15-3.01-.43-4.95-.83Z"/>
        <path d="M1374.15,1033.39c2.15,0,4.08.42,5.81,1.26,1.73.84,3.07,2.27,4.04,4.31s1.45,4.43,1.45,7.18c0,2.16-.3,4.3-.89,6.42s-1.4,3.82-2.42,5.11-2.36,2.28-4.03,2.99c-1.67.71-3.44,1.06-5.34,1.06-1.61,0-3.12-.26-4.54-.78-1.41-.52-2.65-1.37-3.72-2.54-1.07-1.17-1.81-2.56-2.24-4.17s-.64-3.32-.64-5.15c0-2.21.3-4.38.89-6.51s1.42-3.87,2.49-5.22c1.07-1.34,2.4-2.34,4.02-2.99s3.32-.97,5.12-.97ZM1374.01,1039.31c-.63,0-1.19.19-1.68.56-.6.45-1.07,1.07-1.42,1.86-.43.95-.75,2.03-.96,3.26-.24,1.35-.36,2.83-.36,4.44,0,1.41.13,2.58.4,3.51.27.93.67,1.64,1.21,2.15.54.51,1.17.76,1.89.76.4,0,.79-.09,1.17-.26.38-.17.78-.52,1.2-1.04.42-.52.79-1.27,1.11-2.24.32-.97.55-1.99.7-3.05.15-1.06.22-2.13.22-3.23,0-2.26-.31-3.95-.94-5.06-.63-1.11-1.47-1.66-2.54-1.66Z"/>
        <path d="M1389.98,1061.19c.79-1.51,1.55-2.93,2.3-4.28.75-1.35,2.18-4.02,4.3-8.02l3.54-6.72c.24-.47.64-1.26,1.2-2.38-1.17-.01-2.07-.02-2.7-.02-2.79,0-5.81.09-9.07.26.13-1.77.23-3.8.28-6.12h21.48l-.3,6.3-4.78,9.18-3.04,6.02c-.81,1.68-1.72,3.61-2.72,5.78h-10.49Z"/>
        <path d="M1414.94,1061.19c.05-.62.1-1.45.13-2.49.03-1.03.08-2.09.13-3.16,1.39-1.13,2.66-2.23,3.82-3.3,1.88-1.73,3.54-3.36,5-4.88,1.16-1.21,2.13-2.33,2.92-3.34.45-.6.75-1.1.9-1.5.11-.28.16-.57.16-.86,0-.39-.09-.72-.26-1.01s-.45-.53-.82-.73c-.37-.2-.83-.36-1.36-.48-.53-.12-1.14-.18-1.82-.18-.93,0-1.92.08-2.95.24-1.03.16-2.44.47-4.23.92l.52-2.86c.12-.57.29-1.67.52-3.3,3.5-.59,6.79-.88,9.85-.88,1.4,0,2.74.13,4.02.38,1.28.25,2.42.68,3.44,1.29,1.01.61,1.77,1.31,2.28,2.12.51.81.76,1.68.76,2.61,0,.61-.07,1.22-.22,1.82-.15.57-.42,1.25-.82,2.02-.51.96-1.13,1.91-1.88,2.84-1.11,1.4-2.38,2.84-3.84,4.34-1.39,1.41-3.05,3-5,4.76l2.2.02c.52,0,1.55-.01,3.09-.04,1.54-.03,2.61-.05,3.21-.08.6-.03,1.34-.09,2.22-.18-.04.64-.1,1.44-.19,2.4s-.18,2.13-.27,3.52c-3.32-.03-6.79-.04-10.41-.04-4.37,0-8.07.01-11.09.04Z"/>
        <path d="M1439.66,1061.19l4.56-6.06,3.38-4.64-6.28-9.71c1.95.03,3.62.04,5.02.04,1.76,0,3.2-.01,4.34-.04l2.12,4.58c.13.28.33.71.58,1.3,1.03-1.76,2.24-3.72,3.64-5.88,1.19.03,2.6.04,4.26.04,1.53,0,2.99-.01,4.38-.04l-3.2,4.2c-.63.83-1.97,2.64-4.02,5.44,1.23,2.12,3.46,5.71,6.71,10.77-1.5-.03-2.99-.04-4.46-.04-1.79,0-3.38.01-4.8.04-.87-1.87-1.53-3.24-1.99-4.14s-.85-1.71-1.17-2.46l-.64,1.1c-.2.33-.51.83-.92,1.48l-2.54,4.02c-1.44-.03-2.84-.04-4.2-.04-1.57,0-3.17.01-4.78.04Z"/>
        <path d="M1478.39,1061.19c.12-1.19.23-2.44.33-3.78.09-1.33.16-2.39.2-3.18l-2.18.02h-1.64l-7.52.12.06-.62c.01-.15.03-.58.06-1.3l.16-3.8c.01-.35.02-.71.02-1.1,1.36-1.64,2.93-3.68,4.7-6.13,1.78-2.44,3.47-4.95,5.08-7.52,2.05.03,3.9.04,5.54.04,1.55,0,3.13-.01,4.76-.04-.22,2.83-.4,5.59-.52,8.28-.13,2.7-.19,4.74-.21,6.13.64.03,1.39.04,2.25.04.68,0,1.07,0,1.18-.01.11,0,.37-.02.78-.05-.05,1.6-.08,3.28-.08,5.06v.94c-.8-.05-1.98-.08-3.53-.08l-.82.02c-.11,1.29-.17,3.61-.17,6.96-1.32-.03-2.68-.04-4.1-.04-1.32,0-2.77.01-4.36.04ZM1480.06,1048.62l.43-9.02c-.88,1.37-1.6,2.47-2.16,3.28-.56.81-.97,1.39-1.22,1.74l-2.91,4h5.86Z"/>
        <path d="M1506.79,1033.39c2.15,0,4.08.42,5.81,1.26,1.73.84,3.07,2.27,4.04,4.31s1.45,4.43,1.45,7.18c0,2.16-.3,4.3-.89,6.42s-1.4,3.82-2.42,5.11-2.36,2.28-4.03,2.99c-1.67.71-3.44,1.06-5.34,1.06-1.61,0-3.12-.26-4.54-.78-1.41-.52-2.65-1.37-3.72-2.54-1.07-1.17-1.81-2.56-2.24-4.17s-.64-3.32-.64-5.15c0-2.21.3-4.38.89-6.51s1.42-3.87,2.49-5.22c1.07-1.34,2.4-2.34,4.02-2.99s3.32-.97,5.12-.97ZM1506.65,1039.31c-.63,0-1.19.19-1.68.56-.6.45-1.07,1.07-1.42,1.86-.43.95-.75,2.03-.96,3.26-.24,1.35-.36,2.83-.36,4.44,0,1.41.13,2.58.4,3.51.27.93.67,1.64,1.21,2.15.54.51,1.17.76,1.89.76.4,0,.79-.09,1.17-.26.38-.17.78-.52,1.2-1.04.42-.52.79-1.27,1.11-2.24.32-.97.55-1.99.7-3.05.15-1.06.22-2.13.22-3.23,0-2.26-.31-3.95-.94-5.06-.63-1.11-1.47-1.66-2.54-1.66Z"/>
        <path d="M1525.24,1061.19c1.17-1.41,2.28-2.78,3.31-4.1,1.03-1.32,2.07-2.72,3.12-4.22,1.05-1.49,1.84-2.72,2.39-3.68s.99-1.87,1.33-2.72.57-1.55.68-2.08c.11-.53.17-1.06.17-1.58,0-.71-.12-1.34-.37-1.89-.25-.55-.62-.97-1.13-1.25-.51-.28-1.07-.42-1.68-.42-1.04,0-1.92.34-2.65,1.01-.73.67-1.09,1.56-1.09,2.67,0,.64.14,1.19.42,1.65.28.46.69.81,1.24,1.06.55.25,1.1.37,1.66.37.35,0,.83-.07,1.46-.22-1.28,1.8-2.57,3.7-3.88,5.72-.45.07-.84.1-1.16.1-.88,0-1.84-.17-2.87-.5s-1.95-.84-2.74-1.51c-.79-.67-1.4-1.54-1.81-2.6-.41-1.06-.62-2.17-.62-3.35,0-1.57.35-3.05,1.04-4.44.69-1.39,1.66-2.52,2.91-3.41,1.25-.89,2.6-1.51,4.08-1.88,1.47-.37,3.06-.55,4.77-.55,1.57,0,3.08.21,4.54.62s2.64,1.05,3.57,1.9,1.62,1.88,2.07,3.07.68,2.34.68,3.45c0,.79-.09,1.67-.28,2.64-.19.97-.48,2-.89,3.08-.41,1.08-.97,2.31-1.69,3.69-.72,1.38-1.57,2.79-2.55,4.25-.98,1.45-2.18,3.16-3.61,5.12h-10.41Z"/>
        <path d="M1561.39,1043.78c.69-.12,1.35-.18,1.98-.18,1.53,0,2.91.3,4.13.9s2.14,1.53,2.77,2.79c.63,1.26.94,2.66.94,4.21,0,1.03-.14,2.01-.43,2.97-.29.95-.7,1.83-1.23,2.64-.53.81-1.2,1.53-1.99,2.16-.79.63-1.64,1.12-2.54,1.45s-1.86.58-2.87.75c-1.01.17-2.04.25-3.08.25-2.41,0-4.51-.4-6.29-1.21s-3.07-1.91-3.88-3.32c-.81-1.41-1.21-2.95-1.21-4.65,0-.97.11-2.04.33-3.2s.71-2.54,1.46-4.15,1.79-3.45,3.1-5.55,2.65-4,4.01-5.74h10.23c-2.02,2.33-3.36,3.91-4.03,4.74-.94,1.19-1.83,2.41-2.66,3.67s-1.52,2.43-2.07,3.51c-.55,1.08-1.02,2.14-1.41,3.18-.23.61-.39,1.19-.49,1.72-.1.53-.15,1.03-.15,1.5,0,.63.13,1.23.38,1.8.25.57.63,1.03,1.14,1.36.5.33,1.11.5,1.81.5.66,0,1.25-.16,1.76-.47.51-.31.89-.75,1.15-1.3.25-.55.38-1.14.38-1.75,0-1.08-.39-1.87-1.17-2.36s-1.56-.74-2.33-.74c-.24,0-.6.03-1.08.1.31-.49.88-1.45,1.72-2.86l1.62-2.72Z"/>
        <path d="M1592.95,1061.19c.17-2.07.39-5.4.65-10.01.26-4.61.42-7.91.46-9.89-.49.31-.97.61-1.44.91-.47.3-1.48,1.01-3.03,2.13.08-1.13.15-2.46.22-3.99s.1-2.65.1-3.37c.68-.39,1.44-.85,2.3-1.38.86-.53,1.38-.87,1.57-1.01.19-.14.48-.36.87-.67,1.19.03,2.55.04,4.1.04,1.47,0,2.97-.01,4.5-.04l-.4,4.46-.86,14.79-.2,5.44v2.6c-1.13-.03-2.51-.04-4.14-.04-1.89,0-3.46.01-4.71.04Z"/>
        <path d="M1611.14,1061.19c.05-.62.1-1.45.13-2.49.03-1.03.08-2.09.13-3.16,1.39-1.13,2.66-2.23,3.82-3.3,1.88-1.73,3.54-3.36,5-4.88,1.16-1.21,2.13-2.33,2.92-3.34.45-.6.75-1.1.9-1.5.11-.28.16-.57.16-.86,0-.39-.09-.72-.26-1.01s-.45-.53-.82-.73c-.37-.2-.83-.36-1.36-.48-.53-.12-1.14-.18-1.82-.18-.93,0-1.92.08-2.95.24-1.03.16-2.44.47-4.23.92l.52-2.86c.12-.57.29-1.67.52-3.3,3.5-.59,6.79-.88,9.85-.88,1.4,0,2.74.13,4.02.38,1.28.25,2.42.68,3.44,1.29,1.01.61,1.77,1.31,2.28,2.12.51.81.76,1.68.76,2.61,0,.61-.07,1.22-.22,1.82-.15.57-.42,1.25-.82,2.02-.51.96-1.13,1.91-1.88,2.84-1.11,1.4-2.38,2.84-3.84,4.34-1.39,1.41-3.05,3-5,4.76l2.2.02c.52,0,1.55-.01,3.09-.04,1.54-.03,2.61-.05,3.21-.08.6-.03,1.34-.09,2.22-.18-.04.64-.1,1.44-.19,2.4s-.18,2.13-.27,3.52c-3.32-.03-6.79-.04-10.41-.04-4.37,0-8.07.01-11.09.04Z"/>
        <path d="M1638.22,1061.19c.11-1.79.2-4.2.28-7.23l4.12.06c.44,0,1.6-.02,3.48-.06-.11,1.45-.23,3.86-.36,7.23l-3.48-.04c-.25,0-1.6.01-4.04.04Z"/>
        <path d="M1651.51,1060.79l-.14-2.01c-.04-.65-.08-1.24-.13-1.77-.05-.53-.14-1.4-.27-2.59,2.76.79,5.04,1.18,6.86,1.18.97,0,1.87-.15,2.69-.46s1.45-.74,1.89-1.3c.44-.56.66-1.18.66-1.84,0-.98-.45-1.71-1.35-2.21s-2.31-.75-4.23-.75c-.85,0-1.69.03-2.51.09s-1.93.18-3.33.37l1.03-12.91c.04-.64.08-1.53.12-2.66,3.34.03,6.56.04,9.65.04,3.92,0,7.18-.01,9.79-.04-.12,1.39-.19,2.49-.22,3.3l-.1,2.72-2.66-.1-1.24-.02h-1.94c-.83-.01-1.85-.02-3.08-.02-.41,0-1.09.01-2.04.04l-.41,4.58c.89-.07,1.59-.1,2.08-.1,2.08,0,3.91.33,5.5.99,1.59.66,2.75,1.58,3.48,2.77.73,1.19,1.1,2.52,1.1,4.02s-.37,2.85-1.12,4.19c-.75,1.34-1.77,2.41-3.07,3.2s-2.8,1.37-4.52,1.72c-1.71.35-3.47.53-5.27.53-.68,0-1.49-.04-2.42-.13s-1.72-.18-2.36-.29-1.46-.27-2.46-.5Z"/>
        <path d="M1682.4,1047.2c-.77-.37-1.34-.69-1.71-.95-.37-.26-.72-.58-1.06-.95-.34-.37-.62-.79-.85-1.24s-.39-.92-.48-1.4-.14-.96-.14-1.44c0-1.29.29-2.46.88-3.5.59-1.04,1.45-1.89,2.6-2.57,1.15-.67,2.37-1.13,3.68-1.39,1.31-.25,2.68-.38,4.12-.38s2.7.16,3.98.47c1.28.31,2.37.8,3.29,1.47.91.67,1.58,1.43,2.01,2.29.43.86.64,1.89.64,3.09,0,.57-.06,1.13-.17,1.66-.11.53-.29,1.02-.53,1.47-.24.45-.53.86-.88,1.23s-.71.7-1.1.98c-.39.28-1.03.65-1.94,1.1.85.24,1.51.46,1.96.65.45.19.89.46,1.31.8.42.34.78.74,1.08,1.2.3.46.52.95.65,1.47.13.52.2,1.07.2,1.64,0,1.33-.33,2.61-.98,3.82-.65,1.21-1.54,2.19-2.67,2.92s-2.43,1.26-3.93,1.59-3.02.49-4.58.49-2.93-.15-4.31-.44-2.61-.78-3.69-1.47c-1.08-.69-1.87-1.5-2.36-2.43-.49-.93-.74-1.99-.74-3.18,0-.69.09-1.37.27-2.02.18-.65.45-1.27.82-1.85.37-.58.79-1.07,1.27-1.46.48-.39.95-.7,1.41-.92s1.11-.47,1.95-.75ZM1688.46,1049.88c-1.2,0-2.13.3-2.81.91s-1.01,1.39-1.01,2.35c0,.56.15,1.08.45,1.56s.73.84,1.3,1.09c.57.25,1.18.37,1.85.37s1.32-.13,1.89-.4,1.02-.66,1.35-1.19c.33-.53.5-1.13.5-1.81,0-.91-.31-1.61-.93-2.12-.62-.51-1.48-.76-2.59-.76ZM1688.96,1038.91c-1.05,0-1.89.29-2.5.88-.61.59-.92,1.31-.92,2.16,0,.51.13.97.4,1.4s.64.74,1.12.95c.48.21,1,.31,1.56.31.97,0,1.79-.28,2.44-.85.65-.57.98-1.3.98-2.21,0-.8-.28-1.44-.83-1.92-.55-.48-1.3-.72-2.25-.72Z"/>
        <path d="M1703.19,1061.19l.5-4.04,1.23-14.01.61-9.23c2.46.03,4.39.04,5.8.04,1.16,0,2.94-.01,5.33-.04.17,1.15.32,2.02.44,2.61.12.59.42,1.75.89,3.48.47,1.73.85,3.22,1.14,4.48.29,1.26.71,3.41,1.29,6.47.59-2.09,1.12-3.89,1.6-5.4s1.08-3.22,1.8-5.14c.72-1.92,1.18-3.17,1.37-3.77s.46-1.5.79-2.73c2,.03,3.96.04,5.88.04,1.31,0,3.12-.01,5.44-.04-.25,4.49-.42,8.35-.5,11.57-.17,6.32-.26,10.66-.26,13.03,0,.49.01,1.39.04,2.68-1.76-.03-2.99-.04-3.7-.04-1.03,0-2.29.01-3.78.04.11-1.2.24-4.05.41-8.56s.24-7.39.24-8.64c0-.55-.01-1.31-.04-2.28l-2.62,8.13-3.76,11.35c-1.73-.03-2.92-.04-3.58-.04-.83,0-2.09.01-3.8.04l-2.46-10.99-1.44-5.86c-.05-.23-.11-.51-.18-.84s-.17-.92-.32-1.76l-.5,5.54-.67,11.35-.06,2.56c-1.84-.03-3.01-.04-3.52-.04-.69,0-1.89.01-3.6.04Z"/>
        <path d="M1741.42,1061.19l.4-5.12.52-9.99.22-7.08c.01-.76.02-1.52.02-2.28,0-.57,0-1.51-.02-2.82,1.76.04,3.17.06,4.24.06s2.43-.03,4.22-.09c1.79-.06,3.3-.09,4.54-.09,1.79,0,3.11.11,3.97.34s1.64.58,2.33,1.07c.69.49,1.27,1.06,1.72,1.71.45.65.79,1.4,1.02,2.23.23.83.34,1.68.34,2.55,0,1.79-.43,3.42-1.3,4.9-.87,1.48-2.09,2.58-3.66,3.32-1.57.73-3.34,1.1-5.3,1.1-.72,0-1.55-.08-2.5-.24-.11-.61-.31-1.53-.6-2.74-.29-1.21-.53-2.11-.72-2.7.59.12,1.2.18,1.84.18,1.34,0,2.35-.32,3.01-.97.66-.65.99-1.44.99-2.37,0-.45-.07-.86-.22-1.21-.15-.35-.38-.64-.7-.87-.32-.23-.67-.37-1.06-.44-.39-.07-.83-.1-1.32-.1s-.98.01-1.5.04l-1.68.12c-.17,2.57-.3,5.43-.4,8.57-.17,5.73-.26,9.17-.26,10.31v2.6l-3.98-.04c-.56,0-1.95.01-4.16.04Z"/>
        <path d="M1785.71,1061.19c.17-2.07.39-5.4.65-10.01.26-4.61.42-7.91.46-9.89-.49.31-.97.61-1.44.91-.47.3-1.48,1.01-3.03,2.13.08-1.13.15-2.46.22-3.99s.1-2.65.1-3.37c.68-.39,1.44-.85,2.3-1.38.86-.53,1.38-.87,1.57-1.01.19-.14.48-.36.87-.67,1.19.03,2.55.04,4.1.04,1.47,0,2.97-.01,4.5-.04l-.4,4.46-.86,14.79-.2,5.44v2.6c-1.13-.03-2.51-.04-4.14-.04-1.89,0-3.46.01-4.71.04Z"/>
        <path d="M1812.37,1061.19c.17-2.07.39-5.4.65-10.01.26-4.61.42-7.91.46-9.89-.49.31-.97.61-1.44.91-.47.3-1.48,1.01-3.03,2.13.08-1.13.15-2.46.22-3.99s.1-2.65.1-3.37c.68-.39,1.44-.85,2.3-1.38.86-.53,1.38-.87,1.57-1.01.19-.14.48-.36.87-.67,1.19.03,2.55.04,4.1.04,1.47,0,2.97-.01,4.5-.04l-.4,4.46-.86,14.79-.2,5.44v2.6c-1.13-.03-2.51-.04-4.14-.04-1.89,0-3.46.01-4.71.04Z"/>
        <path d="M1830.97,1061.19c.11-1.79.2-4.2.28-7.23l4.12.06c.44,0,1.6-.02,3.48-.06-.11,1.45-.23,3.86-.36,7.23l-3.48-.04c-.25,0-1.6.01-4.04.04Z"/>
        <path d="M1846.94,1061.19c1.17-1.41,2.28-2.78,3.31-4.1,1.03-1.32,2.07-2.72,3.12-4.22,1.05-1.49,1.84-2.72,2.39-3.68s.99-1.87,1.33-2.72.57-1.55.68-2.08c.11-.53.17-1.06.17-1.58,0-.71-.12-1.34-.37-1.89-.25-.55-.62-.97-1.13-1.25-.51-.28-1.07-.42-1.68-.42-1.04,0-1.92.34-2.65,1.01-.73.67-1.09,1.56-1.09,2.67,0,.64.14,1.19.42,1.65.28.46.69.81,1.24,1.06.55.25,1.1.37,1.66.37.35,0,.83-.07,1.46-.22-1.28,1.8-2.57,3.7-3.88,5.72-.45.07-.84.1-1.16.1-.88,0-1.84-.17-2.87-.5s-1.95-.84-2.74-1.51c-.79-.67-1.4-1.54-1.81-2.6-.41-1.06-.62-2.17-.62-3.35,0-1.57.35-3.05,1.04-4.44.69-1.39,1.66-2.52,2.91-3.41,1.25-.89,2.6-1.51,4.08-1.88,1.47-.37,3.06-.55,4.77-.55,1.57,0,3.08.21,4.54.62s2.64,1.05,3.57,1.9,1.62,1.88,2.07,3.07.68,2.34.68,3.45c0,.79-.09,1.67-.28,2.64-.19.97-.48,2-.89,3.08-.41,1.08-.97,2.31-1.69,3.69-.72,1.38-1.57,2.79-2.55,4.25-.98,1.45-2.18,3.16-3.61,5.12h-10.41Z"/>
        <path d="M1869.28,1061.19l.5-4.04,1.23-14.01.61-9.23c2.46.03,4.39.04,5.8.04,1.16,0,2.94-.01,5.33-.04.17,1.15.32,2.02.44,2.61.12.59.42,1.75.89,3.48.47,1.73.85,3.22,1.14,4.48.29,1.26.71,3.41,1.29,6.47.59-2.09,1.12-3.89,1.6-5.4s1.08-3.22,1.8-5.14c.72-1.92,1.18-3.17,1.37-3.77s.46-1.5.79-2.73c2,.03,3.96.04,5.88.04,1.31,0,3.12-.01,5.44-.04-.25,4.49-.42,8.35-.5,11.57-.17,6.32-.26,10.66-.26,13.03,0,.49.01,1.39.04,2.68-1.76-.03-2.99-.04-3.7-.04-1.03,0-2.29.01-3.78.04.11-1.2.24-4.05.41-8.56s.24-7.39.24-8.64c0-.55-.01-1.31-.04-2.28l-2.62,8.13-3.76,11.35c-1.73-.03-2.92-.04-3.58-.04-.83,0-2.09.01-3.8.04l-2.46-10.99-1.44-5.86c-.05-.23-.11-.51-.18-.84s-.17-.92-.32-1.76l-.5,5.54-.67,11.35-.06,2.56c-1.84-.03-3.01-.04-3.52-.04-.69,0-1.89.01-3.6.04Z"/>
        <path d="M1907.52,1061.19c.28-2.93.47-5.24.56-6.92.13-2.29.26-5.44.39-9.43s.19-6.82.19-8.45c0-.59,0-1.41-.02-2.48,1.77.04,3.18.06,4.22.06,1.45,0,3.14-.03,5.08-.09,1.93-.06,3.59-.09,4.98-.09,1.67,0,2.85.05,3.56.14.93.12,1.75.33,2.45.64.7.31,1.28.69,1.75,1.14.52.53.93,1.17,1.22,1.92.33.85.5,1.77.5,2.74,0,.76-.1,1.49-.29,2.18-.19.69-.47,1.31-.82,1.85-.35.54-.75.99-1.19,1.35-.44.36-.87.64-1.29.84-.42.2-.98.4-1.69.6.71.12,1.27.26,1.7.41.43.15.88.4,1.37.74s.92.78,1.31,1.31c.39.53.68,1.13.87,1.79s.29,1.36.29,2.09c0,1.01-.17,1.97-.5,2.86s-.8,1.66-1.4,2.3c-.51.55-1.17,1.01-1.98,1.4-.81.39-1.65.65-2.5.8-.69.11-1.96.19-3.79.24-1.83.05-3.77.08-5.83.08l-5.26-.02-3.88.02ZM1915.96,1055.72h3.84c1.01,0,1.76-.06,2.24-.18.59-.15,1.03-.34,1.34-.58s.55-.57.73-.98.27-.87.27-1.38c0-.44-.07-.83-.22-1.16-.15-.33-.37-.61-.66-.84s-.65-.39-1.08-.49c-.43-.1-1.09-.15-2-.15h-4.22l-.25,5.76ZM1916.42,1044.54h2.84c.93,0,1.6-.02,1.99-.07s.78-.13,1.15-.25c.37-.12.7-.32.97-.6.27-.28.47-.59.58-.94.11-.35.17-.69.17-1.04,0-.49-.12-.93-.35-1.32-.23-.39-.61-.67-1.13-.86s-1.31-.28-2.38-.28h-3.6l-.25,5.36Z"/>
        <path d="M1359.04,1103.65c-.16.78-.35,1.88-.58,3.28-.23,1.4-.38,2.49-.46,3.26-2.85.43-5.4.64-7.63.64s-4.17-.27-6.03-.81c-1.86-.54-3.56-1.42-5.12-2.66-1.55-1.23-2.66-2.68-3.33-4.35-.67-1.67-1-3.53-1-5.6,0-2.41.45-4.58,1.35-6.5.9-1.93,2.19-3.53,3.88-4.82s3.53-2.21,5.55-2.76,4.09-.83,6.24-.83c1.97,0,4.41.25,7.31.76l.04,1.68c.03.73.07,1.54.12,2.42l.14,2.28c-1.56-.37-2.82-.63-3.79-.76-.97-.13-1.86-.2-2.69-.2-1.8,0-3.42.36-4.86,1.08-1.44.72-2.57,1.77-3.4,3.14-.83,1.37-1.24,2.89-1.24,4.56,0,1.52.35,2.82,1.04,3.91.69,1.09,1.63,1.93,2.81,2.52,1.18.59,2.63.89,4.37.89.95,0,1.97-.08,3.09-.23,1.11-.15,2.51-.45,4.19-.89Z"/>
        <path d="M1362.4,1110.31l.5-4.04,1.23-14.01.61-9.23c2.46.03,4.39.04,5.8.04,1.16,0,2.94-.01,5.33-.04.17,1.15.32,2.02.44,2.61.12.59.42,1.75.89,3.48.47,1.73.85,3.22,1.14,4.48.29,1.26.71,3.41,1.29,6.47.59-2.09,1.12-3.89,1.6-5.4s1.08-3.22,1.8-5.14c.72-1.92,1.18-3.17,1.37-3.77s.46-1.5.79-2.73c2,.03,3.96.04,5.88.04,1.31,0,3.12-.01,5.44-.04-.25,4.49-.42,8.35-.5,11.57-.17,6.32-.26,10.66-.26,13.03,0,.49.01,1.39.04,2.68-1.76-.03-2.99-.04-3.7-.04-1.03,0-2.29.01-3.78.04.11-1.2.24-4.05.41-8.56s.24-7.39.24-8.64c0-.55-.01-1.31-.04-2.28l-2.62,8.13-3.76,11.35c-1.73-.03-2.92-.04-3.58-.04-.83,0-2.09.01-3.8.04l-2.46-10.99-1.44-5.86c-.05-.23-.11-.51-.18-.84s-.17-.92-.32-1.76l-.5,5.54-.67,11.35-.06,2.56c-1.84-.03-3.01-.04-3.52-.04-.69,0-1.89.01-3.6.04Z"/>
        <path d="M1406.33,1110.31c.13-1.08.29-2.91.48-5.5s.28-4.41.28-5.48l-9.15-16.31c2.01.03,3.67.04,4.97.04s2.75-.01,4.49-.04c.53,1.33,1.26,2.92,2.17,4.77s1.66,3.49,2.23,4.94c1.53-2.7,2.76-4.81,3.7-6.32.93-1.51,1.6-2.64,2-3.39,1.69.03,3.32.04,4.88.04.83,0,2.33-.01,4.5-.04l-8.77,12.93c-1.75,2.58-2.62,3.94-2.62,4.06l-.02.2v.2l-.02.2-.14,3.04c-.09,2.01-.17,4.23-.22,6.66-1.88-.03-3.33-.04-4.36-.04s-2.52.01-4.4.04Z"/>
        <path d="M1426.93,1110.31c.25-2.49.44-4.56.54-6.2.2-2.9.42-6.88.64-11.93.16-3.52.24-6,.24-7.43v-1.72c2.22.03,3.75.04,4.59.04.56,0,2-.01,4.31-.04l-.94,14.93-.48,12.35-4.33-.04c-.61,0-2.14.01-4.57.04ZM1436.94,1095.91l4.48-6.09,3.62-5.07,1.12-1.72c2.48.03,4.16.04,5.04.04.24,0,1.83-.01,4.78-.04l-8.43,10.64-1.58,2.14,1.48,2.36,8.35,12.14-4.92-.04c-1.07,0-2.87.01-5.42.04-1.72-3.24-4.56-8.04-8.51-14.4Z"/>
        <path d="M1492.72,1090.46l-.38,1.66-.98,4.92c-.07.31-.12.58-.15.83-.03.25-.05.42-.06.53s0,.19,0,.26c0,.32.09.56.27.73.18.17.41.25.69.25.6,0,1.29-.3,2.07-.89.78-.59,1.42-1.41,1.91-2.45.49-1.04.74-2.14.74-3.3,0-.92-.16-1.77-.49-2.56-.33-.79-.75-1.43-1.26-1.92-.51-.49-1.13-.93-1.86-1.31-.73-.38-1.54-.67-2.45-.87-1.41-.32-2.88-.48-4.42-.48-1.88,0-3.67.24-5.39.73-1.71.49-3.24,1.3-4.59,2.44-1.35,1.14-2.39,2.52-3.12,4.14-.73,1.62-1.1,3.29-1.1,5.03,0,1.4.24,2.71.73,3.95.49,1.23,1.25,2.26,2.28,3.08,1.03.82,2.23,1.4,3.6,1.74,1.37.34,2.79.51,4.29.51,1.65,0,3.13-.14,4.45-.41,1.31-.27,2.63-.78,3.95-1.53.17,1.05.38,2.08.62,3.1-1.28.75-2.67,1.3-4.18,1.66-1.5.36-3.19.54-5.06.54-2.07,0-4.03-.27-5.91-.81-1.87-.54-3.43-1.35-4.68-2.42-1.25-1.07-2.18-2.39-2.81-3.97s-.94-3.26-.94-5.06c0-2.24.46-4.41,1.37-6.53.91-2.11,2.18-3.89,3.8-5.34,1.62-1.45,3.55-2.51,5.79-3.19s4.6-1.02,7.07-1.02c1.81,0,3.58.2,5.31.6,1.73.4,3.25,1.07,4.58,2,1.33.93,2.33,2.1,3.02,3.5.69,1.4,1.03,2.87,1.03,4.42,0,1.4-.3,2.76-.89,4.08-.59,1.32-1.42,2.47-2.48,3.46-1.06.99-2.25,1.73-3.58,2.24-1.33.51-2.65.76-3.97.76-.96,0-1.79-.17-2.5-.5-.71-.33-1.17-.83-1.38-1.5-.55.48-.91.79-1.1.94-.19.15-.47.31-.86.48-.39.17-.81.31-1.28.42-.47.11-.92.16-1.38.16-1.36,0-2.47-.46-3.33-1.39-.87-.93-1.3-2.16-1.3-3.71,0-1.46.42-2.94,1.26-4.44.84-1.49,2-2.56,3.49-3.2s3.32-.96,5.51-.96c1.76,0,3.78.2,6.06.6ZM1486.78,1093.84c-.45-.09-.87-.14-1.24-.14-.81,0-1.52.18-2.12.53-.6.35-1.07.88-1.41,1.59-.34.71-.51,1.38-.51,2.02s.16,1.11.48,1.45c.32.34.72.52,1.2.52.44,0,.87-.12,1.29-.38s.77-.6,1.05-1.04c.28-.44.5-.99.67-1.63.17-.65.36-1.62.58-2.93Z"/>
        <path d="M1515.09,1109.77c-.17-2.7-.35-4.86-.52-6.46,2.97,1,5.66,1.5,8.05,1.5,1.48,0,2.67-.3,3.59-.89.91-.59,1.37-1.39,1.37-2.39s-.46-1.69-1.39-2.14c-.93-.45-2.37-.68-4.33-.68-1.27,0-2.42.07-3.48.22.19-2.08.34-4.12.46-6.13.96.17,1.96.26,3.02.26,1.2,0,2.2-.08,2.99-.23.79-.15,1.4-.45,1.81-.9.41-.44.62-.92.62-1.44,0-.46-.16-.88-.49-1.25-.33-.37-.82-.63-1.47-.79-.65-.15-1.47-.23-2.44-.23-.84,0-1.73.05-2.68.14-.95.09-2.23.31-3.86.64l1-4.65c.08-.41.16-.86.24-1.32,2.89-.35,5.54-.52,7.95-.52,1.57,0,3.08.11,4.54.32s2.69.6,3.73,1.17c1.03.57,1.79,1.3,2.28,2.21.49.91.73,1.93.73,3.06,0,.68-.09,1.33-.27,1.96-.18.63-.46,1.21-.83,1.75-.37.54-.81,1.02-1.32,1.43-.51.41-1,.75-1.48,1-.48.25-1.12.54-1.92.86.84.17,1.5.35,1.97.54s.95.46,1.43.81c.48.35.89.77,1.22,1.24.33.47.58,1,.74,1.59.16.59.24,1.21.24,1.88,0,1.32-.3,2.54-.91,3.66s-1.5,2.05-2.68,2.79-2.53,1.27-4.06,1.59c-1.53.32-3.06.48-4.61.48s-2.94-.08-4.31-.23c-1.37-.15-3.01-.43-4.95-.83Z"/>
        <path d="M1553.14,1082.51c2.15,0,4.08.42,5.81,1.26,1.73.84,3.07,2.27,4.04,4.31s1.45,4.43,1.45,7.18c0,2.16-.3,4.3-.89,6.42s-1.4,3.82-2.42,5.11-2.36,2.28-4.03,2.99c-1.67.71-3.44,1.06-5.34,1.06-1.61,0-3.12-.26-4.54-.78-1.41-.52-2.65-1.37-3.72-2.54-1.07-1.17-1.81-2.56-2.24-4.17s-.64-3.32-.64-5.15c0-2.21.3-4.38.89-6.51s1.42-3.87,2.49-5.22c1.07-1.34,2.4-2.34,4.02-2.99s3.32-.97,5.12-.97ZM1553,1088.42c-.63,0-1.19.19-1.68.56-.6.45-1.07,1.07-1.42,1.86-.43.95-.75,2.03-.96,3.26-.24,1.35-.36,2.83-.36,4.44,0,1.41.13,2.58.4,3.51.27.93.67,1.64,1.21,2.15.54.51,1.17.76,1.89.76.4,0,.79-.09,1.17-.26.38-.17.78-.52,1.2-1.04.42-.52.79-1.27,1.11-2.24.32-.97.55-1.99.7-3.05.15-1.06.22-2.13.22-3.23,0-2.26-.31-3.95-.94-5.06-.63-1.11-1.47-1.66-2.54-1.66Z"/>
        <path d="M1579.8,1082.51c2.15,0,4.08.42,5.81,1.26,1.73.84,3.07,2.27,4.04,4.31s1.45,4.43,1.45,7.18c0,2.16-.3,4.3-.89,6.42s-1.4,3.82-2.42,5.11-2.36,2.28-4.03,2.99c-1.67.71-3.44,1.06-5.34,1.06-1.61,0-3.12-.26-4.54-.78-1.41-.52-2.65-1.37-3.72-2.54-1.07-1.17-1.81-2.56-2.24-4.17s-.64-3.32-.64-5.15c0-2.21.3-4.38.89-6.51s1.42-3.87,2.49-5.22c1.07-1.34,2.4-2.34,4.02-2.99s3.32-.97,5.12-.97ZM1579.66,1088.42c-.63,0-1.19.19-1.68.56-.6.45-1.07,1.07-1.42,1.86-.43.95-.75,2.03-.96,3.26-.24,1.35-.36,2.83-.36,4.44,0,1.41.13,2.58.4,3.51.27.93.67,1.64,1.21,2.15.54.51,1.17.76,1.89.76.4,0,.79-.09,1.17-.26.38-.17.78-.52,1.2-1.04.42-.52.79-1.27,1.11-2.24.32-.97.55-1.99.7-3.05.15-1.06.22-2.13.22-3.23,0-2.26-.31-3.95-.94-5.06-.63-1.11-1.47-1.66-2.54-1.66Z"/>
        <path d="M1604.66,1110.31c.29-3.04.5-5.47.6-7.29.16-2.72.32-6.24.48-10.55.12-3.3.18-5.67.18-7.09v-2.34c1.56.04,2.9.06,4.04.06s2.52-.03,4.3-.09c1.77-.06,3.44-.09,5-.09,1.78,0,3.35.11,4.7.32,1.34.21,2.6.65,3.77,1.32,1.17.67,2.14,1.54,2.93,2.62.79,1.08,1.39,2.34,1.8,3.79.41,1.45.62,2.93.62,4.47s-.16,2.95-.48,4.35c-.32,1.39-.77,2.65-1.34,3.77-.57,1.12-1.24,2.08-2.01,2.89-.77.81-1.64,1.5-2.63,2.07-.73.43-1.47.76-2.22,1s-1.77.43-3.06.58c-1.44.16-3.07.24-4.9.24l-8.07-.06c-.76,0-1.99.02-3.7.06ZM1613.3,1104.29c.73.07,1.5.1,2.3.1,1.36,0,2.57-.12,3.64-.36,1.06-.24,2-.75,2.81-1.54s1.4-1.79,1.79-3.03c.39-1.23.58-2.5.58-3.79,0-1.59-.29-2.92-.86-4.01-.57-1.08-1.34-1.84-2.29-2.27-.95-.43-2.25-.64-3.89-.64-.96,0-2.09.04-3.4.12l-.67,15.41Z"/>
        <path d="M1636.36,1110.31l.4-5.12.52-9.99.22-7.08c.01-.76.02-1.52.02-2.28,0-.57,0-1.51-.02-2.82,1.76.04,3.17.06,4.24.06s2.43-.03,4.22-.09c1.79-.06,3.3-.09,4.54-.09,1.79,0,3.11.11,3.97.34s1.64.58,2.33,1.07c.69.49,1.27,1.06,1.72,1.71.45.65.79,1.4,1.02,2.23.23.83.34,1.68.34,2.55,0,1.79-.43,3.42-1.3,4.9-.87,1.48-2.09,2.58-3.66,3.32-1.57.73-3.34,1.1-5.3,1.1-.72,0-1.55-.08-2.5-.24-.11-.61-.31-1.53-.6-2.74-.29-1.21-.53-2.11-.72-2.7.59.12,1.2.18,1.84.18,1.34,0,2.35-.32,3.01-.97.66-.65.99-1.44.99-2.37,0-.45-.07-.86-.22-1.21-.15-.35-.38-.64-.7-.87-.32-.23-.67-.37-1.06-.44-.39-.07-.83-.1-1.32-.1s-.98.01-1.5.04l-1.68.12c-.17,2.57-.3,5.43-.4,8.57-.17,5.73-.26,9.17-.26,10.31v2.6l-3.98-.04c-.56,0-1.95.01-4.16.04Z"/>
        <path d="M1662.48,1110.31c.77-10.7,1.15-18.93,1.15-24.7l-.02-2.58c2.33.03,3.89.04,4.68.04.36,0,1.79-.01,4.3-.04-.24,3-.44,5.84-.58,8.51-.19,3.73-.32,7.22-.4,10.46-.08,3.24-.12,6.01-.12,8.3l-4.1-.04c-.8,0-2.44.01-4.91.04Z"/>
      </g>
      <path d="M1278.41,1658.51c-90.52,0-178.34-17.73-261.02-52.7-79.85-33.77-151.56-82.12-213.15-143.71-61.58-61.58-109.93-133.3-143.71-213.15-34.97-82.67-52.7-170.49-52.7-261.02s17.73-178.34,52.7-261.02c33.77-79.85,82.12-151.56,143.71-213.15,61.58-61.58,133.3-109.93,213.15-143.71,82.67-34.97,170.49-52.7,261.02-52.7s178.34,17.73,261.02,52.7c79.85,33.77,151.56,82.12,213.15,143.71s109.93,133.3,143.71,213.15c34.97,82.67,52.7,170.49,52.7,261.02s-17.73,178.34-52.7,261.02c-33.77,79.85-82.12,151.56-143.71,213.15s-133.3,109.93-213.15,143.71c-82.67,34.97-170.49,52.7-261.02,52.7ZM1278.41,321.38c-367.55,0-666.57,299.02-666.57,666.57s299.02,666.57,666.57,666.57,666.57-299.02,666.57-666.57-299.02-666.57-666.57-666.57Z"/>
      <g clip-path="url(#clippath)">
        <path d="M1218.9,1754.06c-105.09,0-207.05-20.58-303.03-61.18-92.7-39.21-175.96-95.34-247.45-166.84-71.49-71.49-127.63-154.75-166.84-247.45-40.6-95.98-61.18-197.93-61.18-303.03s20.58-207.05,61.18-303.03c39.21-92.7,95.34-175.96,166.84-247.45s154.75-127.63,247.45-166.84c95.98-40.6,197.93-61.18,303.03-61.18s207.05,20.58,303.03,61.18c92.7,39.21,175.96,95.34,247.45,166.84s127.63,154.75,166.84,247.45c40.6,95.98,61.18,197.93,61.18,303.03s-20.58,207.05-61.18,303.03c-39.21,92.7-95.34,175.96-166.84,247.45-71.49,71.5-154.75,127.63-247.45,166.84-95.98,40.6-197.93,61.18-303.03,61.18ZM1218.9,204.07c-425.4,0-771.5,346.09-771.5,771.5s346.09,771.5,771.5,771.5,771.5-346.09,771.5-771.5S1644.3,204.07,1218.9,204.07Z"/>
      </g>
      <g clip-path="url(#clippath-1)">
        <path d="M1324.82,1749.53c-105.09,0-207.05-20.58-303.03-61.18-92.7-39.21-175.96-95.34-247.45-166.84-71.49-71.49-127.63-154.75-166.84-247.45-40.6-95.98-61.18-197.93-61.18-303.03s20.58-207.05,61.18-303.03c39.21-92.7,95.34-175.96,166.84-247.45s154.75-127.63,247.45-166.84c95.98-40.6,197.93-61.18,303.03-61.18s207.05,20.58,303.03,61.18c92.7,39.21,175.96,95.34,247.45,166.84,71.5,71.49,127.63,154.75,166.84,247.45,40.6,95.98,61.18,197.93,61.18,303.03s-20.58,207.05-61.18,303.03c-39.21,92.7-95.34,175.96-166.84,247.45-71.49,71.5-154.75,127.63-247.45,166.84-95.98,40.6-197.93,61.18-303.03,61.18ZM1324.82,199.54c-206.07,0-399.81,80.25-545.53,225.97-145.72,145.72-225.97,339.46-225.97,545.53s80.25,399.81,225.97,545.53c145.72,145.72,339.46,225.96,545.53,225.96,425.4,0,771.5-346.09,771.5-771.5S1750.23,199.54,1324.82,199.54Z"/>
      </g>
      <g>
        <path d="M1277.4,6.27c11.5,373.09,23.01,746.18,34.51,1119.27-9.3,485.21-18.61,970.42-27.91,1455.63-13.03-486.78-26.05-973.55-39.08-1460.33,10.83-371.52,21.65-743.05,32.48-1114.57Z"/>
        <path d="M1282,2581.22l-39.08-1460.38v-.06S1275.4,6.21,1275.4,6.21h4s34.51,1119.27,34.51,1119.27l-13.96,727.91-13.96,727.81-4,.02ZM1246.92,1120.84l36.74,1373.23,26.24-1368.56-32.45-1052.51-30.53,1047.84Z"/>
      </g>
      <g>
        <path d="M484.82,988.51c268.99-6.41,537.99-12.83,806.98-19.24,349.83,5.19,699.66,10.38,1049.49,15.56-350.96,7.26-701.92,14.53-1052.88,21.79-267.86-6.04-535.73-12.07-803.59-18.11Z"/>
        <path d="M1288.46,1008.62l-803.68-18.11v-4s806.98-19.24,806.98-19.24l1049.56,15.56v4s-1052.87,21.79-1052.87,21.79ZM571.09,988.46l717.37,16.17,940.21-19.46-936.89-13.89-720.68,17.19Z"/>
      </g>
    </g>
    <g>
      <path d="M1335.91,1054.45c-.17-2.7-.35-4.86-.52-6.46,2.97,1,5.66,1.5,8.05,1.5,1.48,0,2.67-.3,3.59-.89.91-.59,1.37-1.39,1.37-2.39s-.46-1.69-1.39-2.14c-.93-.45-2.37-.68-4.33-.68-1.27,0-2.42.07-3.48.22.19-2.08.34-4.12.46-6.13.96.17,1.96.26,3.02.26,1.2,0,2.2-.08,2.99-.23.79-.15,1.4-.45,1.81-.9.41-.44.62-.92.62-1.44,0-.46-.16-.88-.49-1.25-.33-.37-.82-.63-1.47-.79-.65-.15-1.47-.23-2.44-.23-.84,0-1.73.05-2.68.14-.95.09-2.23.31-3.86.64l1-4.65c.08-.41.16-.86.24-1.32,2.89-.35,5.54-.52,7.95-.52,1.57,0,3.08.11,4.54.32s2.69.6,3.73,1.17c1.03.57,1.79,1.3,2.28,2.21.49.91.73,1.93.73,3.06,0,.68-.09,1.33-.27,1.96-.18.63-.46,1.21-.83,1.75-.37.54-.81,1.02-1.32,1.43-.51.41-1,.75-1.48,1-.48.25-1.12.54-1.92.86.84.17,1.5.35,1.97.54s.95.46,1.43.81c.48.35.89.77,1.22,1.24.33.47.58,1,.74,1.59.16.59.24,1.21.24,1.88,0,1.32-.3,2.54-.91,3.66s-1.5,2.05-2.68,2.79-2.53,1.27-4.06,1.59c-1.53.32-3.06.48-4.61.48s-2.94-.08-4.31-.23c-1.37-.15-3.01-.43-4.95-.83Z" fill="#ff8c12"/>
      <path d="M1373.96,1027.19c2.15,0,4.08.42,5.81,1.26,1.73.84,3.07,2.27,4.04,4.31s1.45,4.43,1.45,7.18c0,2.16-.3,4.3-.89,6.42s-1.4,3.82-2.42,5.11-2.36,2.28-4.03,2.99c-1.67.71-3.44,1.06-5.34,1.06-1.61,0-3.12-.26-4.54-.78-1.41-.52-2.65-1.37-3.72-2.54-1.07-1.17-1.81-2.56-2.24-4.17s-.64-3.32-.64-5.15c0-2.21.3-4.38.89-6.51s1.42-3.87,2.49-5.22c1.07-1.34,2.4-2.34,4.02-2.99s3.32-.97,5.12-.97ZM1373.82,1033.1c-.63,0-1.19.19-1.68.56-.6.45-1.07,1.07-1.42,1.86-.43.95-.75,2.03-.96,3.26-.24,1.35-.36,2.83-.36,4.44,0,1.41.13,2.58.4,3.51.27.93.67,1.64,1.21,2.15.54.51,1.17.76,1.89.76.4,0,.79-.09,1.17-.26.38-.17.78-.52,1.2-1.04.42-.52.79-1.27,1.11-2.24.32-.97.55-1.99.7-3.05.15-1.06.22-2.13.22-3.23,0-2.26-.31-3.95-.94-5.06-.63-1.11-1.47-1.66-2.54-1.66Z" fill="#ff8c12"/>
      <path d="M1389.79,1054.99c.79-1.51,1.55-2.93,2.3-4.28.75-1.35,2.18-4.02,4.3-8.02l3.54-6.72c.24-.47.64-1.26,1.2-2.38-1.17-.01-2.07-.02-2.7-.02-2.79,0-5.81.09-9.07.26.13-1.77.23-3.8.28-6.12h21.48l-.3,6.3-4.78,9.18-3.04,6.02c-.81,1.68-1.72,3.61-2.72,5.78h-10.49Z" fill="#ff8c12"/>
      <path d="M1414.75,1054.99c.05-.62.1-1.45.13-2.49.03-1.03.08-2.09.13-3.16,1.39-1.13,2.66-2.23,3.82-3.3,1.88-1.73,3.54-3.36,5-4.88,1.16-1.21,2.13-2.33,2.92-3.34.45-.6.75-1.1.9-1.5.11-.28.16-.57.16-.86,0-.39-.09-.72-.26-1.01s-.45-.53-.82-.73c-.37-.2-.83-.36-1.36-.48-.53-.12-1.14-.18-1.82-.18-.93,0-1.92.08-2.95.24-1.03.16-2.44.47-4.23.92l.52-2.86c.12-.57.29-1.67.52-3.3,3.5-.59,6.79-.88,9.85-.88,1.4,0,2.74.13,4.02.38,1.28.25,2.42.68,3.44,1.29,1.01.61,1.77,1.31,2.28,2.12.51.81.76,1.68.76,2.61,0,.61-.07,1.22-.22,1.82-.15.57-.42,1.25-.82,2.02-.51.96-1.13,1.91-1.88,2.84-1.11,1.4-2.38,2.84-3.84,4.34-1.39,1.41-3.05,3-5,4.76l2.2.02c.52,0,1.55-.01,3.09-.04,1.54-.03,2.61-.05,3.21-.08.6-.03,1.34-.09,2.22-.18-.04.64-.1,1.44-.19,2.4s-.18,2.13-.27,3.52c-3.32-.03-6.79-.04-10.41-.04-4.37,0-8.07.01-11.09.04Z" fill="#ff8c12"/>
      <path d="M1439.47,1054.99l4.56-6.06,3.38-4.64-6.28-9.71c1.95.03,3.62.04,5.02.04,1.76,0,3.2-.01,4.34-.04l2.12,4.58c.13.28.33.71.58,1.3,1.03-1.76,2.24-3.72,3.64-5.88,1.19.03,2.6.04,4.26.04,1.53,0,2.99-.01,4.38-.04l-3.2,4.2c-.63.83-1.97,2.64-4.02,5.44,1.23,2.12,3.46,5.71,6.71,10.77-1.5-.03-2.99-.04-4.46-.04-1.79,0-3.38.01-4.8.04-.87-1.87-1.53-3.24-1.99-4.14s-.85-1.71-1.17-2.46l-.64,1.1c-.2.33-.51.83-.92,1.48l-2.54,4.02c-1.44-.03-2.84-.04-4.2-.04-1.57,0-3.17.01-4.78.04Z" fill="#ff8c12"/>
      <path d="M1478.2,1054.99c.12-1.19.23-2.44.33-3.78.09-1.33.16-2.39.2-3.18l-2.18.02h-1.64l-7.52.12.06-.62c.01-.15.03-.58.06-1.3l.16-3.8c.01-.35.02-.71.02-1.1,1.36-1.64,2.93-3.68,4.7-6.13,1.78-2.44,3.47-4.95,5.08-7.52,2.05.03,3.9.04,5.54.04,1.55,0,3.13-.01,4.76-.04-.22,2.83-.4,5.59-.52,8.28-.13,2.7-.19,4.74-.21,6.13.64.03,1.39.04,2.25.04.68,0,1.07,0,1.18-.01.11,0,.37-.02.78-.05-.05,1.6-.08,3.28-.08,5.06v.94c-.8-.05-1.98-.08-3.53-.08l-.82.02c-.11,1.29-.17,3.61-.17,6.96-1.32-.03-2.68-.04-4.1-.04-1.32,0-2.77.01-4.36.04ZM1479.87,1042.42l.43-9.02c-.88,1.37-1.6,2.47-2.16,3.28-.56.81-.97,1.39-1.22,1.74l-2.91,4h5.86Z" fill="#ff8c12"/>
      <path d="M1506.6,1027.19c2.15,0,4.08.42,5.81,1.26,1.73.84,3.07,2.27,4.04,4.31s1.45,4.43,1.45,7.18c0,2.16-.3,4.3-.89,6.42s-1.4,3.82-2.42,5.11-2.36,2.28-4.03,2.99c-1.67.71-3.44,1.06-5.34,1.06-1.61,0-3.12-.26-4.54-.78-1.41-.52-2.65-1.37-3.72-2.54-1.07-1.17-1.81-2.56-2.24-4.17s-.64-3.32-.64-5.15c0-2.21.3-4.38.89-6.51s1.42-3.87,2.49-5.22c1.07-1.34,2.4-2.34,4.02-2.99s3.32-.97,5.12-.97ZM1506.46,1033.1c-.63,0-1.19.19-1.68.56-.6.45-1.07,1.07-1.42,1.86-.43.95-.75,2.03-.96,3.26-.24,1.35-.36,2.83-.36,4.44,0,1.41.13,2.58.4,3.51.27.93.67,1.64,1.21,2.15.54.51,1.17.76,1.89.76.4,0,.79-.09,1.17-.26.38-.17.78-.52,1.2-1.04.42-.52.79-1.27,1.11-2.24.32-.97.55-1.99.7-3.05.15-1.06.22-2.13.22-3.23,0-2.26-.31-3.95-.94-5.06-.63-1.11-1.47-1.66-2.54-1.66Z" fill="#ff8c12"/>
      <path d="M1525.05,1054.99c1.17-1.41,2.28-2.78,3.31-4.1,1.03-1.32,2.07-2.72,3.12-4.22,1.05-1.49,1.84-2.72,2.39-3.68s.99-1.87,1.33-2.72.57-1.55.68-2.08c.11-.53.17-1.06.17-1.58,0-.71-.12-1.34-.37-1.89-.25-.55-.62-.97-1.13-1.25-.51-.28-1.07-.42-1.68-.42-1.04,0-1.92.34-2.65,1.01-.73.67-1.09,1.56-1.09,2.67,0,.64.14,1.19.42,1.65.28.46.69.81,1.24,1.06.55.25,1.1.37,1.66.37.35,0,.83-.07,1.46-.22-1.28,1.8-2.57,3.7-3.88,5.72-.45.07-.84.1-1.16.1-.88,0-1.84-.17-2.87-.5s-1.95-.84-2.74-1.51c-.79-.67-1.4-1.54-1.81-2.6-.41-1.06-.62-2.17-.62-3.35,0-1.57.35-3.05,1.04-4.44.69-1.39,1.66-2.52,2.91-3.41,1.25-.89,2.6-1.51,4.08-1.88,1.47-.37,3.06-.55,4.77-.55,1.57,0,3.08.21,4.54.62s2.64,1.05,3.57,1.9,1.62,1.88,2.07,3.07.68,2.34.68,3.45c0,.79-.09,1.67-.28,2.64-.19.97-.48,2-.89,3.08-.41,1.08-.97,2.31-1.69,3.69-.72,1.38-1.57,2.79-2.55,4.25-.98,1.45-2.18,3.16-3.61,5.12h-10.41Z" fill="#ff8c12"/>
      <path d="M1561.2,1037.58c.69-.12,1.35-.18,1.98-.18,1.53,0,2.91.3,4.13.9s2.14,1.53,2.77,2.79c.63,1.26.94,2.66.94,4.21,0,1.03-.14,2.01-.43,2.97-.29.95-.7,1.83-1.23,2.64-.53.81-1.2,1.53-1.99,2.16-.79.63-1.64,1.12-2.54,1.45s-1.86.58-2.87.75c-1.01.17-2.04.25-3.08.25-2.41,0-4.51-.4-6.29-1.21s-3.07-1.91-3.88-3.32c-.81-1.41-1.21-2.95-1.21-4.65,0-.97.11-2.04.33-3.2s.71-2.54,1.46-4.15,1.79-3.45,3.1-5.55,2.65-4,4.01-5.74h10.23c-2.02,2.33-3.36,3.91-4.03,4.74-.94,1.19-1.83,2.41-2.66,3.67s-1.52,2.43-2.07,3.51c-.55,1.08-1.02,2.14-1.41,3.18-.23.61-.39,1.19-.49,1.72-.1.53-.15,1.03-.15,1.5,0,.63.13,1.23.38,1.8.25.57.63,1.03,1.14,1.36.5.33,1.11.5,1.81.5.66,0,1.25-.16,1.76-.47.51-.31.89-.75,1.15-1.3.25-.55.38-1.14.38-1.75,0-1.08-.39-1.87-1.17-2.36s-1.56-.74-2.33-.74c-.24,0-.6.03-1.08.1.31-.49.88-1.45,1.72-2.86l1.62-2.72Z" fill="#ff8c12"/>
      <path d="M1592.76,1054.99c.17-2.07.39-5.4.65-10.01.26-4.61.42-7.91.46-9.89-.49.31-.97.61-1.44.91-.47.3-1.48,1.01-3.03,2.13.08-1.13.15-2.46.22-3.99s.1-2.65.1-3.37c.68-.39,1.44-.85,2.3-1.38.86-.53,1.38-.87,1.57-1.01.19-.14.48-.36.87-.67,1.19.03,2.55.04,4.1.04,1.47,0,2.97-.01,4.5-.04l-.4,4.46-.86,14.79-.2,5.44v2.6c-1.13-.03-2.51-.04-4.14-.04-1.89,0-3.46.01-4.71.04Z" fill="#ff8c12"/>
      <path d="M1610.94,1054.99c.05-.62.1-1.45.13-2.49.03-1.03.08-2.09.13-3.16,1.39-1.13,2.66-2.23,3.82-3.3,1.88-1.73,3.54-3.36,5-4.88,1.16-1.21,2.13-2.33,2.92-3.34.45-.6.75-1.1.9-1.5.11-.28.16-.57.16-.86,0-.39-.09-.72-.26-1.01s-.45-.53-.82-.73c-.37-.2-.83-.36-1.36-.48-.53-.12-1.14-.18-1.82-.18-.93,0-1.92.08-2.95.24-1.03.16-2.44.47-4.23.92l.52-2.86c.12-.57.29-1.67.52-3.3,3.5-.59,6.79-.88,9.85-.88,1.4,0,2.74.13,4.02.38,1.28.25,2.42.68,3.44,1.29,1.01.61,1.77,1.31,2.28,2.12.51.81.76,1.68.76,2.61,0,.61-.07,1.22-.22,1.82-.15.57-.42,1.25-.82,2.02-.51.96-1.13,1.91-1.88,2.84-1.11,1.4-2.38,2.84-3.84,4.34-1.39,1.41-3.05,3-5,4.76l2.2.02c.52,0,1.55-.01,3.09-.04,1.54-.03,2.61-.05,3.21-.08.6-.03,1.34-.09,2.22-.18-.04.64-.1,1.44-.19,2.4s-.18,2.13-.27,3.52c-3.32-.03-6.79-.04-10.41-.04-4.37,0-8.07.01-11.09.04Z" fill="#ff8c12"/>
      <path d="M1638.02,1054.99c.11-1.79.2-4.2.28-7.23l4.12.06c.44,0,1.6-.02,3.48-.06-.11,1.45-.23,3.86-.36,7.23l-3.48-.04c-.25,0-1.6.01-4.04.04Z" fill="#ff8c12"/>
      <path d="M1651.31,1054.59l-.14-2.01c-.04-.65-.08-1.24-.13-1.77-.05-.53-.14-1.4-.27-2.59,2.76.79,5.04,1.18,6.86,1.18.97,0,1.87-.15,2.69-.46s1.45-.74,1.89-1.3c.44-.56.66-1.18.66-1.84,0-.98-.45-1.71-1.35-2.21s-2.31-.75-4.23-.75c-.85,0-1.69.03-2.51.09s-1.93.18-3.33.37l1.03-12.91c.04-.64.08-1.53.12-2.66,3.34.03,6.56.04,9.65.04,3.92,0,7.18-.01,9.79-.04-.12,1.39-.19,2.49-.22,3.3l-.1,2.72-2.66-.1-1.24-.02h-1.94c-.83-.01-1.85-.02-3.08-.02-.41,0-1.09.01-2.04.04l-.41,4.58c.89-.07,1.59-.1,2.08-.1,2.08,0,3.91.33,5.5.99,1.59.66,2.75,1.58,3.48,2.77.73,1.19,1.1,2.52,1.1,4.02s-.37,2.85-1.12,4.19c-.75,1.34-1.77,2.41-3.07,3.2s-2.8,1.37-4.52,1.72c-1.71.35-3.47.53-5.27.53-.68,0-1.49-.04-2.42-.13s-1.72-.18-2.36-.29-1.46-.27-2.46-.5Z" fill="#ff8c12"/>
      <path d="M1682.21,1041c-.77-.37-1.34-.69-1.71-.95-.37-.26-.72-.58-1.06-.95-.34-.37-.62-.79-.85-1.24s-.39-.92-.48-1.4-.14-.96-.14-1.44c0-1.29.29-2.46.88-3.5.59-1.04,1.45-1.89,2.6-2.57,1.15-.67,2.37-1.13,3.68-1.39,1.31-.25,2.68-.38,4.12-.38s2.7.16,3.98.47c1.28.31,2.37.8,3.29,1.47.91.67,1.58,1.43,2.01,2.29.43.86.64,1.89.64,3.09,0,.57-.06,1.13-.17,1.66-.11.53-.29,1.02-.53,1.47-.24.45-.53.86-.88,1.23s-.71.7-1.1.98c-.39.28-1.03.65-1.94,1.1.85.24,1.51.46,1.96.65.45.19.89.46,1.31.8.42.34.78.74,1.08,1.2.3.46.52.95.65,1.47.13.52.2,1.07.2,1.64,0,1.33-.33,2.61-.98,3.82-.65,1.21-1.54,2.19-2.67,2.92s-2.43,1.26-3.93,1.59-3.02.49-4.58.49-2.93-.15-4.31-.44-2.61-.78-3.69-1.47c-1.08-.69-1.87-1.5-2.36-2.43-.49-.93-.74-1.99-.74-3.18,0-.69.09-1.37.27-2.02.18-.65.45-1.27.82-1.85.37-.58.79-1.07,1.27-1.46.48-.39.95-.7,1.41-.92s1.11-.47,1.95-.75ZM1688.27,1043.67c-1.2,0-2.13.3-2.81.91s-1.01,1.39-1.01,2.35c0,.56.15,1.08.45,1.56s.73.84,1.3,1.09c.57.25,1.18.37,1.85.37s1.32-.13,1.89-.4,1.02-.66,1.35-1.19c.33-.53.5-1.13.5-1.81,0-.91-.31-1.61-.93-2.12-.62-.51-1.48-.76-2.59-.76ZM1688.77,1032.7c-1.05,0-1.89.29-2.5.88-.61.59-.92,1.31-.92,2.16,0,.51.13.97.4,1.4s.64.74,1.12.95c.48.21,1,.31,1.56.31.97,0,1.79-.28,2.44-.85.65-.57.98-1.3.98-2.21,0-.8-.28-1.44-.83-1.92-.55-.48-1.3-.72-2.25-.72Z" fill="#ff8c12"/>
      <path d="M1703,1054.99l.5-4.04,1.23-14.01.61-9.23c2.46.03,4.39.04,5.8.04,1.16,0,2.94-.01,5.33-.04.17,1.15.32,2.02.44,2.61.12.59.42,1.75.89,3.48.47,1.73.85,3.22,1.14,4.48.29,1.26.71,3.41,1.29,6.47.59-2.09,1.12-3.89,1.6-5.4s1.08-3.22,1.8-5.14c.72-1.92,1.18-3.17,1.37-3.77s.46-1.5.79-2.73c2,.03,3.96.04,5.88.04,1.31,0,3.12-.01,5.44-.04-.25,4.49-.42,8.35-.5,11.57-.17,6.32-.26,10.66-.26,13.03,0,.49.01,1.39.04,2.68-1.76-.03-2.99-.04-3.7-.04-1.03,0-2.29.01-3.78.04.11-1.2.24-4.05.41-8.56s.24-7.39.24-8.64c0-.55-.01-1.31-.04-2.28l-2.62,8.13-3.76,11.35c-1.73-.03-2.92-.04-3.58-.04-.83,0-2.09.01-3.8.04l-2.46-10.99-1.44-5.86c-.05-.23-.11-.51-.18-.84s-.17-.92-.32-1.76l-.5,5.54-.67,11.35-.06,2.56c-1.84-.03-3.01-.04-3.52-.04-.69,0-1.89.01-3.6.04Z" fill="#ff8c12"/>
      <path d="M1741.23,1054.99l.4-5.12.52-9.99.22-7.08c.01-.76.02-1.52.02-2.28,0-.57,0-1.51-.02-2.82,1.76.04,3.17.06,4.24.06s2.43-.03,4.22-.09c1.79-.06,3.3-.09,4.54-.09,1.79,0,3.11.11,3.97.34s1.64.58,2.33,1.07c.69.49,1.27,1.06,1.72,1.71.45.65.79,1.4,1.02,2.23.23.83.34,1.68.34,2.55,0,1.79-.43,3.42-1.3,4.9-.87,1.48-2.09,2.58-3.66,3.32-1.57.73-3.34,1.1-5.3,1.1-.72,0-1.55-.08-2.5-.24-.11-.61-.31-1.53-.6-2.74-.29-1.21-.53-2.11-.72-2.7.59.12,1.2.18,1.84.18,1.34,0,2.35-.32,3.01-.97.66-.65.99-1.44.99-2.37,0-.45-.07-.86-.22-1.21-.15-.35-.38-.64-.7-.87-.32-.23-.67-.37-1.06-.44-.39-.07-.83-.1-1.32-.1s-.98.01-1.5.04l-1.68.12c-.17,2.57-.3,5.43-.4,8.57-.17,5.73-.26,9.17-.26,10.31v2.6l-3.98-.04c-.56,0-1.95.01-4.16.04Z" fill="#ff8c12"/>
      <path d="M1785.51,1054.99c.17-2.07.39-5.4.65-10.01.26-4.61.42-7.91.46-9.89-.49.31-.97.61-1.44.91-.47.3-1.48,1.01-3.03,2.13.08-1.13.15-2.46.22-3.99s.1-2.65.1-3.37c.68-.39,1.44-.85,2.3-1.38.86-.53,1.38-.87,1.57-1.01.19-.14.48-.36.87-.67,1.19.03,2.55.04,4.1.04,1.47,0,2.97-.01,4.5-.04l-.4,4.46-.86,14.79-.2,5.44v2.6c-1.13-.03-2.51-.04-4.14-.04-1.89,0-3.46.01-4.71.04Z" fill="#ff8c12"/>
      <path d="M1812.18,1054.99c.17-2.07.39-5.4.65-10.01.26-4.61.42-7.91.46-9.89-.49.31-.97.61-1.44.91-.47.3-1.48,1.01-3.03,2.13.08-1.13.15-2.46.22-3.99s.1-2.65.1-3.37c.68-.39,1.44-.85,2.3-1.38.86-.53,1.38-.87,1.57-1.01.19-.14.48-.36.87-.67,1.19.03,2.55.04,4.1.04,1.47,0,2.97-.01,4.5-.04l-.4,4.46-.86,14.79-.2,5.44v2.6c-1.13-.03-2.51-.04-4.14-.04-1.89,0-3.46.01-4.71.04Z" fill="#ff8c12"/>
      <path d="M1830.78,1054.99c.11-1.79.2-4.2.28-7.23l4.12.06c.44,0,1.6-.02,3.48-.06-.11,1.45-.23,3.86-.36,7.23l-3.48-.04c-.25,0-1.6.01-4.04.04Z" fill="#ff8c12"/>
      <path d="M1846.75,1054.99c1.17-1.41,2.28-2.78,3.31-4.1,1.03-1.32,2.07-2.72,3.12-4.22,1.05-1.49,1.84-2.72,2.39-3.68s.99-1.87,1.33-2.72.57-1.55.68-2.08c.11-.53.17-1.06.17-1.58,0-.71-.12-1.34-.37-1.89-.25-.55-.62-.97-1.13-1.25-.51-.28-1.07-.42-1.68-.42-1.04,0-1.92.34-2.65,1.01-.73.67-1.09,1.56-1.09,2.67,0,.64.14,1.19.42,1.65.28.46.69.81,1.24,1.06.55.25,1.1.37,1.66.37.35,0,.83-.07,1.46-.22-1.28,1.8-2.57,3.7-3.88,5.72-.45.07-.84.1-1.16.1-.88,0-1.84-.17-2.87-.5s-1.95-.84-2.74-1.51c-.79-.67-1.4-1.54-1.81-2.6-.41-1.06-.62-2.17-.62-3.35,0-1.57.35-3.05,1.04-4.44.69-1.39,1.66-2.52,2.91-3.41,1.25-.89,2.6-1.51,4.08-1.88,1.47-.37,3.06-.55,4.77-.55,1.57,0,3.08.21,4.54.62s2.64,1.05,3.57,1.9,1.62,1.88,2.07,3.07.68,2.34.68,3.45c0,.79-.09,1.67-.28,2.64-.19.97-.48,2-.89,3.08-.41,1.08-.97,2.31-1.69,3.69-.72,1.38-1.57,2.79-2.55,4.25-.98,1.45-2.18,3.16-3.61,5.12h-10.41Z" fill="#ff8c12"/>
      <path d="M1869.09,1054.99l.5-4.04,1.23-14.01.61-9.23c2.46.03,4.39.04,5.8.04,1.16,0,2.94-.01,5.33-.04.17,1.15.32,2.02.44,2.61.12.59.42,1.75.89,3.48.47,1.73.85,3.22,1.14,4.48.29,1.26.71,3.41,1.29,6.47.59-2.09,1.12-3.89,1.6-5.4s1.08-3.22,1.8-5.14c.72-1.92,1.18-3.17,1.37-3.77s.46-1.5.79-2.73c2,.03,3.96.04,5.88.04,1.31,0,3.12-.01,5.44-.04-.25,4.49-.42,8.35-.5,11.57-.17,6.32-.26,10.66-.26,13.03,0,.49.01,1.39.04,2.68-1.76-.03-2.99-.04-3.7-.04-1.03,0-2.29.01-3.78.04.11-1.2.24-4.05.41-8.56s.24-7.39.24-8.64c0-.55-.01-1.31-.04-2.28l-2.62,8.13-3.76,11.35c-1.73-.03-2.92-.04-3.58-.04-.83,0-2.09.01-3.8.04l-2.46-10.99-1.44-5.86c-.05-.23-.11-.51-.18-.84s-.17-.92-.32-1.76l-.5,5.54-.67,11.35-.06,2.56c-1.84-.03-3.01-.04-3.52-.04-.69,0-1.89.01-3.6.04Z" fill="#ff8c12"/>
      <path d="M1907.32,1054.99c.28-2.93.47-5.24.56-6.92.13-2.29.26-5.44.39-9.43s.19-6.82.19-8.45c0-.59,0-1.41-.02-2.48,1.77.04,3.18.06,4.22.06,1.45,0,3.14-.03,5.08-.09,1.93-.06,3.59-.09,4.98-.09,1.67,0,2.85.05,3.56.14.93.12,1.75.33,2.45.64.7.31,1.28.69,1.75,1.14.52.53.93,1.17,1.22,1.92.33.85.5,1.77.5,2.74,0,.76-.1,1.49-.29,2.18-.19.69-.47,1.31-.82,1.85-.35.54-.75.99-1.19,1.35-.44.36-.87.64-1.29.84-.42.2-.98.4-1.69.6.71.12,1.27.26,1.7.41.43.15.88.4,1.37.74s.92.78,1.31,1.31c.39.53.68,1.13.87,1.79s.29,1.36.29,2.09c0,1.01-.17,1.97-.5,2.86s-.8,1.66-1.4,2.3c-.51.55-1.17,1.01-1.98,1.4-.81.39-1.65.65-2.5.8-.69.11-1.96.19-3.79.24-1.83.05-3.77.08-5.83.08l-5.26-.02-3.88.02ZM1915.77,1049.51h3.84c1.01,0,1.76-.06,2.24-.18.59-.15,1.03-.34,1.34-.58s.55-.57.73-.98.27-.87.27-1.38c0-.44-.07-.83-.22-1.16-.15-.33-.37-.61-.66-.84s-.65-.39-1.08-.49c-.43-.1-1.09-.15-2-.15h-4.22l-.25,5.76ZM1916.23,1038.34h2.84c.93,0,1.6-.02,1.99-.07s.78-.13,1.15-.25c.37-.12.7-.32.97-.6.27-.28.47-.59.58-.94.11-.35.17-.69.17-1.04,0-.49-.12-.93-.35-1.32-.23-.39-.61-.67-1.13-.86s-1.31-.28-2.38-.28h-3.6l-.25,5.36Z" fill="#ff8c12"/>
      <path d="M1358.85,1097.45c-.16.78-.35,1.88-.58,3.28-.23,1.4-.38,2.49-.46,3.26-2.85.43-5.4.64-7.63.64s-4.17-.27-6.03-.81c-1.86-.54-3.56-1.42-5.12-2.66-1.55-1.23-2.66-2.68-3.33-4.35-.67-1.67-1-3.53-1-5.6,0-2.41.45-4.58,1.35-6.5.9-1.93,2.19-3.53,3.88-4.82s3.53-2.21,5.55-2.76,4.09-.83,6.24-.83c1.97,0,4.41.25,7.31.76l.04,1.68c.03.73.07,1.54.12,2.42l.14,2.28c-1.56-.37-2.82-.63-3.79-.76-.97-.13-1.86-.2-2.69-.2-1.8,0-3.42.36-4.86,1.08-1.44.72-2.57,1.77-3.4,3.14-.83,1.37-1.24,2.89-1.24,4.56,0,1.52.35,2.82,1.04,3.91.69,1.09,1.63,1.93,2.81,2.52,1.18.59,2.63.89,4.37.89.95,0,1.97-.08,3.09-.23,1.11-.15,2.51-.45,4.19-.89Z" fill="#ff8c12"/>
      <path d="M1362.21,1104.1l.5-4.04,1.23-14.01.61-9.23c2.46.03,4.39.04,5.8.04,1.16,0,2.94-.01,5.33-.04.17,1.15.32,2.02.44,2.61.12.59.42,1.75.89,3.48.47,1.73.85,3.22,1.14,4.48.29,1.26.71,3.41,1.29,6.47.59-2.09,1.12-3.89,1.6-5.4s1.08-3.22,1.8-5.14c.72-1.92,1.18-3.17,1.37-3.77s.46-1.5.79-2.73c2,.03,3.96.04,5.88.04,1.31,0,3.12-.01,5.44-.04-.25,4.49-.42,8.35-.5,11.57-.17,6.32-.26,10.66-.26,13.03,0,.49.01,1.39.04,2.68-1.76-.03-2.99-.04-3.7-.04-1.03,0-2.29.01-3.78.04.11-1.2.24-4.05.41-8.56s.24-7.39.24-8.64c0-.55-.01-1.31-.04-2.28l-2.62,8.13-3.76,11.35c-1.73-.03-2.92-.04-3.58-.04-.83,0-2.09.01-3.8.04l-2.46-10.99-1.44-5.86c-.05-.23-.11-.51-.18-.84s-.17-.92-.32-1.76l-.5,5.54-.67,11.35-.06,2.56c-1.84-.03-3.01-.04-3.52-.04-.69,0-1.89.01-3.6.04Z" fill="#ff8c12"/>
      <path d="M1406.14,1104.1c.13-1.08.29-2.91.48-5.5s.28-4.41.28-5.48l-9.15-16.31c2.01.03,3.67.04,4.97.04s2.75-.01,4.49-.04c.53,1.33,1.26,2.92,2.17,4.77s1.66,3.49,2.23,4.94c1.53-2.7,2.76-4.81,3.7-6.32.93-1.51,1.6-2.64,2-3.39,1.69.03,3.32.04,4.88.04.83,0,2.33-.01,4.5-.04l-8.77,12.93c-1.75,2.58-2.62,3.94-2.62,4.06l-.02.2v.2l-.02.2-.14,3.04c-.09,2.01-.17,4.23-.22,6.66-1.88-.03-3.33-.04-4.36-.04s-2.52.01-4.4.04Z" fill="#ff8c12"/>
      <path d="M1426.74,1104.1c.25-2.49.44-4.56.54-6.2.2-2.9.42-6.88.64-11.93.16-3.52.24-5.99.24-7.43v-1.72c2.22.03,3.75.04,4.59.04.56,0,2-.01,4.31-.04l-.94,14.93-.48,12.35-4.33-.04c-.61,0-2.14.01-4.57.04ZM1436.75,1089.7l4.48-6.09,3.62-5.07,1.12-1.72c2.48.03,4.16.04,5.04.04.24,0,1.83-.01,4.78-.04l-8.43,10.64-1.58,2.14,1.48,2.36,8.35,12.14-4.92-.04c-1.07,0-2.87.01-5.42.04-1.72-3.24-4.56-8.04-8.51-14.4Z" fill="#ff8c12"/>
      <path d="M1492.53,1084.26l-.38,1.66-.98,4.92c-.07.31-.12.58-.15.83-.03.25-.05.42-.06.53s0,.19,0,.26c0,.32.09.56.27.73.18.17.41.25.69.25.6,0,1.29-.3,2.07-.89.78-.59,1.42-1.41,1.91-2.45.49-1.04.74-2.14.74-3.3,0-.92-.16-1.77-.49-2.56-.33-.79-.75-1.43-1.26-1.92-.51-.49-1.13-.93-1.86-1.31-.73-.38-1.54-.67-2.45-.87-1.41-.32-2.88-.48-4.42-.48-1.88,0-3.67.24-5.39.73-1.71.49-3.24,1.3-4.59,2.44-1.35,1.14-2.39,2.52-3.12,4.14-.73,1.62-1.1,3.29-1.1,5.03,0,1.4.24,2.71.73,3.95.49,1.23,1.25,2.26,2.28,3.08,1.03.82,2.23,1.4,3.6,1.74,1.37.34,2.79.51,4.29.51,1.65,0,3.13-.14,4.45-.41,1.31-.27,2.63-.78,3.95-1.53.17,1.05.38,2.08.62,3.1-1.28.75-2.67,1.3-4.18,1.66-1.5.36-3.19.54-5.06.54-2.07,0-4.03-.27-5.91-.81-1.87-.54-3.43-1.35-4.68-2.42-1.25-1.07-2.18-2.39-2.81-3.97s-.94-3.26-.94-5.06c0-2.24.46-4.41,1.37-6.53.91-2.11,2.18-3.89,3.8-5.34,1.62-1.45,3.55-2.51,5.79-3.19s4.6-1.02,7.07-1.02c1.81,0,3.58.2,5.31.6,1.73.4,3.25,1.07,4.58,2,1.33.93,2.33,2.1,3.02,3.5.69,1.4,1.03,2.87,1.03,4.42,0,1.4-.3,2.76-.89,4.08-.59,1.32-1.42,2.47-2.48,3.46-1.06.99-2.25,1.73-3.58,2.24-1.33.51-2.65.76-3.97.76-.96,0-1.79-.17-2.5-.5-.71-.33-1.17-.83-1.38-1.5-.55.48-.91.79-1.1.94-.19.15-.47.31-.86.48-.39.17-.81.31-1.28.42-.47.11-.92.16-1.38.16-1.36,0-2.47-.46-3.33-1.39-.87-.93-1.3-2.16-1.3-3.71,0-1.46.42-2.94,1.26-4.44.84-1.49,2-2.56,3.49-3.2,1.49-.64,3.32-.96,5.51-.96,1.76,0,3.78.2,6.06.6ZM1486.59,1087.63c-.45-.09-.87-.14-1.24-.14-.81,0-1.52.18-2.12.53-.6.35-1.07.88-1.41,1.59-.34.71-.51,1.38-.51,2.02s.16,1.11.48,1.45c.32.34.72.52,1.2.52.44,0,.87-.12,1.29-.38s.77-.6,1.05-1.04c.28-.44.5-.99.67-1.63.17-.65.36-1.62.58-2.93Z" fill="#ff8c12"/>
      <path d="M1514.89,1103.56c-.17-2.7-.35-4.86-.52-6.46,2.97,1,5.66,1.5,8.05,1.5,1.48,0,2.67-.3,3.59-.89.91-.59,1.37-1.39,1.37-2.39s-.46-1.69-1.39-2.14c-.93-.45-2.37-.68-4.33-.68-1.27,0-2.42.07-3.48.22.19-2.08.34-4.12.46-6.13.96.17,1.96.26,3.02.26,1.2,0,2.2-.08,2.99-.23.79-.15,1.4-.45,1.81-.9.41-.44.62-.92.62-1.44,0-.46-.16-.88-.49-1.25-.33-.37-.82-.63-1.47-.79-.65-.15-1.47-.23-2.44-.23-.84,0-1.73.05-2.68.14-.95.09-2.23.31-3.86.64l1-4.65c.08-.41.16-.86.24-1.32,2.89-.35,5.54-.52,7.95-.52,1.57,0,3.08.11,4.54.32s2.69.6,3.73,1.17c1.03.57,1.79,1.3,2.28,2.21.49.91.73,1.93.73,3.06,0,.68-.09,1.33-.27,1.96-.18.63-.46,1.21-.83,1.75-.37.54-.81,1.02-1.32,1.43-.51.41-1,.75-1.48,1-.48.25-1.12.54-1.92.86.84.17,1.5.35,1.97.54s.95.46,1.43.81c.48.35.89.77,1.22,1.24.33.47.58,1,.74,1.59.16.59.24,1.21.24,1.88,0,1.32-.3,2.54-.91,3.66s-1.5,2.05-2.68,2.79-2.53,1.27-4.06,1.59c-1.53.32-3.06.48-4.61.48s-2.94-.08-4.31-.23c-1.37-.15-3.01-.43-4.95-.83Z" fill="#ff8c12"/>
      <path d="M1552.95,1076.3c2.15,0,4.08.42,5.81,1.26,1.73.84,3.07,2.27,4.04,4.31s1.45,4.43,1.45,7.18c0,2.16-.3,4.3-.89,6.42s-1.4,3.82-2.42,5.11-2.36,2.28-4.03,2.99c-1.67.71-3.44,1.06-5.34,1.06-1.61,0-3.12-.26-4.54-.78-1.41-.52-2.65-1.37-3.72-2.54-1.07-1.17-1.81-2.56-2.24-4.17s-.64-3.32-.64-5.15c0-2.21.3-4.38.89-6.51.59-2.13,1.42-3.87,2.49-5.22,1.07-1.34,2.4-2.34,4.02-2.99s3.32-.97,5.12-.97ZM1552.81,1082.22c-.63,0-1.19.19-1.68.56-.6.45-1.07,1.07-1.42,1.86-.43.95-.75,2.03-.96,3.26-.24,1.35-.36,2.83-.36,4.44,0,1.41.13,2.58.4,3.51.27.93.67,1.64,1.21,2.15.54.51,1.17.76,1.89.76.4,0,.79-.09,1.17-.26.38-.17.78-.52,1.2-1.04.42-.52.79-1.27,1.11-2.24.32-.97.55-1.99.7-3.05.15-1.06.22-2.13.22-3.23,0-2.26-.31-3.95-.94-5.06-.63-1.11-1.47-1.66-2.54-1.66Z" fill="#ff8c12"/>
      <path d="M1579.61,1076.3c2.15,0,4.08.42,5.81,1.26,1.73.84,3.07,2.27,4.04,4.31s1.45,4.43,1.45,7.18c0,2.16-.3,4.3-.89,6.42s-1.4,3.82-2.42,5.11-2.36,2.28-4.03,2.99c-1.67.71-3.44,1.06-5.34,1.06-1.61,0-3.12-.26-4.54-.78-1.41-.52-2.65-1.37-3.72-2.54-1.07-1.17-1.81-2.56-2.24-4.17s-.64-3.32-.64-5.15c0-2.21.3-4.38.89-6.51.59-2.13,1.42-3.87,2.49-5.22,1.07-1.34,2.4-2.34,4.02-2.99s3.32-.97,5.12-.97ZM1579.47,1082.22c-.63,0-1.19.19-1.68.56-.6.45-1.07,1.07-1.42,1.86-.43.95-.75,2.03-.96,3.26-.24,1.35-.36,2.83-.36,4.44,0,1.41.13,2.58.4,3.51.27.93.67,1.64,1.21,2.15.54.51,1.17.76,1.89.76.4,0,.79-.09,1.17-.26.38-.17.78-.52,1.2-1.04.42-.52.79-1.27,1.11-2.24.32-.97.55-1.99.7-3.05.15-1.06.22-2.13.22-3.23,0-2.26-.31-3.95-.94-5.06-.63-1.11-1.47-1.66-2.54-1.66Z" fill="#ff8c12"/>
      <path d="M1604.47,1104.1c.29-3.04.5-5.47.6-7.29.16-2.72.32-6.24.48-10.55.12-3.3.18-5.67.18-7.09v-2.34c1.56.04,2.9.06,4.04.06s2.52-.03,4.3-.09c1.77-.06,3.44-.09,5-.09,1.78,0,3.35.11,4.7.32,1.34.21,2.6.65,3.77,1.32,1.17.67,2.14,1.54,2.93,2.62.79,1.08,1.39,2.34,1.8,3.79.41,1.45.62,2.93.62,4.47s-.16,2.95-.48,4.35c-.32,1.39-.77,2.65-1.34,3.77-.57,1.12-1.24,2.08-2.01,2.89-.77.81-1.64,1.5-2.63,2.07-.73.43-1.47.76-2.22,1s-1.77.43-3.06.58c-1.44.16-3.07.24-4.9.24l-8.07-.06c-.76,0-1.99.02-3.7.06ZM1613.11,1098.09c.73.07,1.5.1,2.3.1,1.36,0,2.57-.12,3.64-.36,1.06-.24,2-.75,2.81-1.54s1.4-1.79,1.79-3.03c.39-1.23.58-2.5.58-3.79,0-1.59-.29-2.92-.86-4.01-.57-1.08-1.34-1.84-2.29-2.27-.95-.43-2.25-.64-3.89-.64-.96,0-2.09.04-3.4.12l-.67,15.41Z" fill="#ff8c12"/>
      <path d="M1636.16,1104.1l.4-5.12.52-9.99.22-7.07c.01-.76.02-1.52.02-2.28,0-.57,0-1.51-.02-2.82,1.76.04,3.17.06,4.24.06s2.43-.03,4.22-.09c1.79-.06,3.3-.09,4.54-.09,1.79,0,3.11.11,3.97.34s1.64.58,2.33,1.07c.69.49,1.27,1.06,1.72,1.71.45.65.79,1.4,1.02,2.23.23.83.34,1.68.34,2.55,0,1.79-.43,3.42-1.3,4.9-.87,1.48-2.09,2.58-3.66,3.32-1.57.73-3.34,1.1-5.3,1.1-.72,0-1.55-.08-2.5-.24-.11-.61-.31-1.53-.6-2.74-.29-1.21-.53-2.11-.72-2.7.59.12,1.2.18,1.84.18,1.34,0,2.35-.32,3.01-.97.66-.65.99-1.44.99-2.37,0-.45-.07-.85-.22-1.21-.15-.35-.38-.64-.7-.87-.32-.23-.67-.37-1.06-.44-.39-.07-.83-.1-1.32-.1s-.98.01-1.5.04l-1.68.12c-.17,2.57-.3,5.43-.4,8.57-.17,5.73-.26,9.17-.26,10.31v2.6l-3.98-.04c-.56,0-1.95.01-4.16.04Z" fill="#ff8c12"/>
      <path d="M1662.29,1104.1c.77-10.7,1.15-18.93,1.15-24.7l-.02-2.58c2.33.03,3.89.04,4.68.04.36,0,1.79-.01,4.3-.04-.24,3-.44,5.84-.58,8.51-.19,3.73-.32,7.22-.4,10.46-.08,3.24-.12,6.01-.12,8.3l-4.1-.04c-.8,0-2.44.01-4.91.04Z" fill="#ff8c12"/>
    </g>
    <circle cx="1278.22" cy="981.74" r="668.57" fill="none" stroke="#ff8c12" stroke-width="8"/>
    <g clip-path="url(#clippath-2)">
      <circle cx="1218.71" cy="969.36" r="775" fill="none" stroke="#ff8c12" stroke-width="12"/>
    </g>
    <g clip-path="url(#clippath-3)">
      <circle cx="1324.63" cy="964.83" r="775" fill="none" stroke="#ff8c12" stroke-width="12"/>
    </g>
    <path d="M1277.21.06c11.5,373.09,23.01,746.18,34.51,1119.27-9.3,485.21-18.61,970.42-27.91,1455.63-13.03-486.78-26.05-973.55-39.08-1460.33,10.83-371.52,21.65-743.05,32.48-1114.57Z" fill="#ff8c12" stroke="#ff8c12" stroke-width="4"/>
    <path d="M484.63,982.3c268.99-6.41,537.99-12.83,806.98-19.24,349.83,5.19,699.66,10.38,1049.49,15.56-350.96,7.26-701.92,14.53-1052.88,21.79-267.86-6.04-535.73-12.07-803.59-18.11Z" fill="#ff8c12" stroke="#ff8c12" stroke-width="4"/>
  </g>
</svg>