<?xml version="1.0" encoding="UTF-8"?>
<svg id="Layer_2" data-name="Layer 2" xmlns="http://www.w3.org/2000/svg" viewBox="0 0 2529.28 1063.8">
  <g id="Layer_1-2" data-name="Layer 1">
    <g>
      <path d="M161.78,130.49c-.99,4.84-2.18,11.58-3.58,20.23-1.4,8.65-2.34,15.35-2.84,20.1-17.6,2.63-33.3,3.95-47.12,3.95s-25.72-1.67-37.19-5c-11.47-3.33-22-8.8-31.57-16.4-9.58-7.6-16.43-16.55-20.54-26.83-4.11-10.28-6.17-21.79-6.17-34.53,0-14.88,2.78-28.26,8.33-40.15,5.55-11.88,13.52-21.79,23.93-29.73,10.4-7.93,21.81-13.61,34.23-17.02C91.68,1.71,104.51,0,117.75,0c12.17,0,27.22,1.56,45.14,4.69l.25,10.36c.16,4.52.41,9.5.74,14.92l.86,14.06c-9.62-2.3-17.41-3.86-23.37-4.69-5.96-.82-11.49-1.23-16.59-1.23-11.1,0-21.09,2.22-29.97,6.66-8.88,4.44-15.87,10.9-20.97,19.36-5.1,8.47-7.65,17.84-7.65,28.12,0,9.37,2.14,17.41,6.41,24.11,4.27,6.7,10.05,11.88,17.33,15.54,7.28,3.66,16.26,5.49,26.95,5.49,5.84,0,12.19-.47,19.06-1.42,6.86-.94,15.48-2.77,25.84-5.49Z" fill="#ff8c12"/>
      <path d="M287.22,0c13.15,0,25.82,1.77,37.99,5.3,12.17,3.54,22.82,9.19,31.94,16.96,9.13,7.77,15.95,16.71,20.47,26.83,4.52,10.11,6.78,21.75,6.78,34.91,0,13.81-2.49,26.5-7.46,38.05-4.98,11.55-12.15,21.36-21.52,29.42-9.37,8.06-20.56,13.96-33.55,17.7-12.99,3.74-26.52,5.61-40.58,5.61s-27.22-1.83-39.96-5.49c-12.75-3.66-23.83-9.58-33.24-17.76-9.42-8.18-16.1-17.29-20.04-27.32-3.95-10.03-5.92-21.17-5.92-33.42,0-18.01,4.17-33.81,12.52-47.42,8.34-13.61,20.72-24.24,37.12-31.88,16.4-7.65,34.88-11.47,55.44-11.47ZM285,37.12c-9.46,0-18.01,2.32-25.65,6.97-7.65,4.65-13.53,11.1-17.64,19.36-4.11,8.26-6.17,17.12-6.17,26.58,0,8.72,1.87,16.69,5.61,23.93,3.74,7.24,9.44,12.89,17.08,16.96,7.65,4.07,15.75,6.1,24.3,6.1,9.13,0,17.49-2.28,25.1-6.85,7.6-4.56,13.4-10.98,17.39-19.24,3.99-8.26,5.98-16.92,5.98-25.96s-1.85-16.92-5.55-24.36c-3.7-7.44-9.13-13.22-16.28-17.33-7.15-4.11-15.21-6.17-24.17-6.17Z" fill="#ff8c12"/>
      <path d="M404.27,171.56l2.47-25.9,4.81-87.82,1.36-35.4V3.21c12.77.17,24.05.25,33.85.25,7,0,16.84-.08,29.52-.25l52.65,95.75,7.26,14.07c.93-13.82,1.88-33.19,2.85-58.11.97-24.92,1.46-42.16,1.46-51.7,10.1.17,18.19.25,24.27.25,2.79,0,10.84-.08,24.15-.25l-2.96,36.76-5.55,102.12-.74,29.48c-10.7-.16-20.7-.25-29.99-.25-7.74,0-18.43.08-32.09.25-4.27-8.06-7.43-13.9-9.49-17.52l-20.69-35.17c-6.82-11.52-13.1-22.54-18.85-33.07-3.78-6.66-7.68-13.98-11.7-21.96l-2.65,58.49-1.26,49.23c-10.19-.16-17.95-.25-23.28-.25-4.52,0-12.98.08-25.38.25Z" fill="#ff8c12"/>
      <path d="M610,168.97c-1.07-17.51-2.3-31.53-3.7-42.06,9.23,4.11,17.44,6.97,24.65,8.57s13.53,2.4,18.97,2.4c7.17,0,12.87-1.05,17.11-3.15,4.24-2.1,6.36-5.2,6.36-9.31,0-1.4-.21-2.73-.62-4.01-.41-1.27-1.19-2.71-2.35-4.32-1.15-1.6-2.8-3.35-4.94-5.24l-23.24-20.23c-5.44-4.6-9.23-7.93-11.37-9.99-4.37-4.19-7.77-8.1-10.2-11.72-2.43-3.62-4.2-7.3-5.31-11.04-1.11-3.74-1.67-7.71-1.67-11.9,0-5.01.88-9.93,2.65-14.74,1.77-4.81,4.42-9.31,7.96-13.51,3.53-4.19,8.22-7.81,14.06-10.85,5.84-3.04,12.09-5.12,18.75-6.23,6.66-1.11,13.52-1.67,20.6-1.67,13.89,0,29.02,1.6,45.39,4.81.25,5.67.53,10.88.86,15.6.33,4.73,1.11,13.01,2.34,24.85-7.57-3.04-14.47-5.16-20.72-6.35-6.25-1.19-11.64-1.79-16.16-1.79-6.41,0-11.74,1.19-15.97,3.58-4.24,2.39-6.35,5.35-6.35,8.88,0,1.65.33,3.25.99,4.81.66,1.56,1.89,3.39,3.7,5.49,1.81,2.1,4.19,4.4,7.15,6.91,2.96,2.51,7.6,6.23,13.94,11.16l8.88,7.03c2.63,2.14,5.47,4.73,8.51,7.77,3.04,3.04,5.67,6.04,7.89,9s3.93,5.67,5.12,8.14c1.19,2.47,2.08,4.95,2.65,7.46.57,2.51.86,5.2.86,8.08,0,7.4-1.77,14.45-5.3,21.15-3.54,6.7-8.55,12.21-15.05,16.53-6.5,4.32-13.63,7.34-21.4,9.07s-15.97,2.59-24.61,2.59c-13.32,0-30.14-1.93-50.45-5.8Z" fill="#ff8c12"/>
      <path d="M758.53,3.21c12.82.17,21.86.25,27.12.25,6.58,0,15.33-.08,26.26-.25l-3.67,52.42c-.73,9.87-1.29,19.12-1.65,27.75s-.55,14.6-.55,17.88c0,6.25.45,11.47,1.35,15.66.9,4.19,2.55,7.75,4.93,10.67,2.38,2.92,5.69,5.12,9.92,6.6,4.23,1.48,8.65,2.22,13.25,2.22,3.94,0,7.64-.54,11.09-1.61,2.71-.88,5.13-2.1,7.27-3.67,1.89-1.47,3.53-3.18,4.93-5.14,1.72-2.35,3.25-5.29,4.56-8.81,1.31-3.33,2.3-7.64,2.96-12.92.74-5.38,1.73-17.62,2.96-36.72,1.07-16.25,1.89-31.14,2.47-44.65.49-13.12.94-19.68,1.36-19.68h54.39l-6,87.57c-.08,1.65-.12,3-.12,4.07-.33,17.1-1.38,29.17-3.15,36.2s-4.71,13.14-8.82,18.32-10.12,9.85-18.01,14c-7.9,4.15-16.86,7.09-26.9,8.82-10.03,1.73-20.19,2.59-30.47,2.59-9.21,0-18.1-.66-26.65-1.97-7.9-1.31-15.01-3.23-21.35-5.74-6.33-2.51-11.84-5.45-16.53-8.82-4.28-3.12-7.57-6.31-9.87-9.56-2.3-3.25-4.11-7.13-5.43-11.66-1.48-5.1-2.22-10.56-2.22-16.4,0-1.97.08-4.95.25-8.94.17-3.99.54-9.72,1.12-17.21l1.61-19.73c.41-5.18.87-12.79,1.36-22.82l2.23-48.72Z" fill="#ff8c12"/>
      <path d="M944.62,171.56l3.06-24.91,7.58-86.46,3.79-56.98c15.18.17,27.11.25,35.77.25,7.18,0,18.15-.08,32.93-.25,1.07,7.07,1.97,12.44,2.71,16.1.74,3.66,2.56,10.81,5.48,21.46,2.91,10.65,5.25,19.86,7.01,27.63,1.76,7.77,4.41,21.07,7.93,39.9,3.62-12.91,6.92-24.01,9.88-33.3,2.96-9.29,6.67-19.86,11.12-31.7,4.45-11.84,7.27-19.59,8.46-23.25,1.19-3.66,2.82-9.27,4.88-16.84,12.33.17,24.42.25,36.26.25,8.06,0,19.24-.08,33.55-.25-1.56,27.71-2.59,51.52-3.08,71.41-1.07,38.98-1.6,65.78-1.6,80.42,0,3.04.08,8.55.25,16.53-10.85-.16-18.46-.25-22.82-.25-6.33,0-14.1.08-23.31.25.67-7.4,1.5-25.02,2.51-52.85,1-27.83,1.5-45.61,1.5-53.34,0-3.37-.08-8.06-.25-14.06l-16.18,50.2-23.22,70.06c-10.69-.16-18.05-.25-22.08-.25-5.1,0-12.91.08-23.43.25l-15.21-67.84-8.9-36.14c-.33-1.4-.7-3.12-1.11-5.18-.41-2.05-1.07-5.67-1.98-10.85l-3.11,34.17-4.1,70.06-.37,15.79c-11.35-.16-18.58-.25-21.71-.25-4.28,0-11.68.08-22.2.25Z" fill="#ff8c12"/>
      <path d="M1179.95,171.56c2.06-21.21,3.57-38.98,4.51-53.28.95-14.31,1.9-33.32,2.84-57.04.95-23.72,1.42-39.45,1.42-47.18l-.12-10.85c19.4.17,42.87.25,70.42.25,25.4,0,47.81-.08,67.21-.25l-.25,4.06c-.08.98-.29,4.55-.62,10.69l-.74,13.4c-.17,2.87-.25,5.78-.25,8.73-15.87-.66-29.19-.99-39.96-.99-11.84,0-19.84.02-23.99.06-4.15.04-10.63.23-19.43.56l-1.5,28.37c9.71.25,21.01.37,33.93.37,4.61,0,16.86-.29,36.76-.86-.82,10.53-1.6,23.06-2.34,37.62-14.22-.16-25.15-.25-32.79-.25-11.34,0-24.04.29-38.09.86l-1.47,29.97h14.17c4.19,0,12.86-.12,26.01-.37l25.52-.62c3.78-.08,10.11-.41,18.98-.99-.99,12.17-1.81,24.75-2.47,37.74-20.06-.16-42.06-.25-65.99-.25l-54.27.12-17.51.12Z" fill="#ff8c12"/>
      <path d="M1346.33,171.56c1.57-14.47,2.8-27.5,3.71-39.1.91-11.59,1.69-25.04,2.35-40.33.66-15.29,1.15-31.43,1.48-48.41.33-16.98.5-30.48.5-40.52,10.28.25,18.58.37,24.91.37s14.59-.19,24.05-.55c9.45-.37,18.66-.56,27.62-.56,10.52,0,19.9.41,28.12,1.23,6.17.58,11.77,1.77,16.83,3.58,5.06,1.81,9.31,4.01,12.76,6.6,3.45,2.59,6.33,5.49,8.63,8.7,2.3,3.21,4.09,6.97,5.37,11.29,1.27,4.32,1.91,8.94,1.91,13.88,0,5.51-.7,10.67-2.1,15.48-1.4,4.81-3.6,9.33-6.6,13.57-3,4.24-6.78,7.89-11.35,10.98s-10.96,6.23-19.18,9.44l6.41,15.66c1.81,4.36,3.74,8.8,5.8,13.32l16.53,36.14c.74,1.56,2.05,4.65,3.95,9.25-13.56-.16-22.68-.25-27.36-.25-5.92,0-15.61.08-29.09.25-1.32-4.27-3.7-12.21-7.16-23.8-1.4-4.85-2.59-8.59-3.58-11.22-1.98-5.84-4.9-14.02-8.77-24.54l-12.72-34.91c4.44.82,8.8,1.23,13.07,1.23,6,0,11.45-.9,16.34-2.71,4.89-1.81,8.59-4.6,11.1-8.39,2.51-3.78,3.76-7.77,3.76-11.96,0-3.53-.95-6.64-2.84-9.31-1.89-2.67-4.87-4.67-8.94-5.98-4.07-1.31-10.34-1.97-18.81-1.97-2.88,0-5.86.06-8.94.19-3.08.12-6.68.23-10.79.31-1.05,16.86-1.99,37.41-2.8,61.67-.81,24.26-1.34,48.06-1.58,71.41-13.75-.16-22.68-.25-26.8-.25-4.78,0-13.38.08-25.81.25Z" fill="#ff8c12"/>
      <path d="M1624.22,171.56c4.08-39.96,6.54-83.95,7.35-131.97l-52.5,1.36.62-13.69c.33-7.32.57-15.33.74-24.05,23.34.17,50.55.25,81.62.25l30.46-.12h29.59l16.03-.13-.74,12.08c-.33,6.48-.55,11.83-.68,16.07s-.19,7.43-.19,9.59c-17.58-.9-32.08-1.36-43.5-1.36h-8.63c-1.24,14.53-2.19,27.95-2.85,40.26-.91,17.65-1.61,34.78-2.11,51.4-.5,16.62-.74,30.06-.74,40.32-13.48-.16-22.19-.25-26.13-.25-3.53,0-12.98.08-28.35.25Z" fill="#ff8c12"/>
      <path d="M1848.94,0c13.16,0,25.82,1.77,37.99,5.3,12.17,3.54,22.82,9.19,31.94,16.96s15.95,16.71,20.47,26.83c4.52,10.11,6.78,21.75,6.78,34.91,0,13.81-2.49,26.5-7.46,38.05-4.98,11.55-12.15,21.36-21.52,29.42-9.37,8.06-20.56,13.96-33.55,17.7-12.99,3.74-26.52,5.61-40.58,5.61s-27.22-1.83-39.96-5.49c-12.75-3.66-23.83-9.58-33.24-17.76-9.42-8.18-16.1-17.29-20.04-27.32-3.95-10.03-5.92-21.17-5.92-33.42,0-18.01,4.17-33.81,12.52-47.42,8.34-13.61,20.72-24.24,37.12-31.88,16.4-7.65,34.88-11.47,55.44-11.47ZM1846.72,37.12c-9.46,0-18.01,2.32-25.65,6.97-7.65,4.65-13.53,11.1-17.64,19.36-4.11,8.26-6.17,17.12-6.17,26.58,0,8.72,1.87,16.69,5.61,23.93,3.74,7.24,9.44,12.89,17.08,16.96,7.65,4.07,15.75,6.1,24.3,6.1,9.13,0,17.49-2.28,25.1-6.85,7.6-4.56,13.4-10.98,17.39-19.24,3.99-8.26,5.98-16.92,5.98-25.96s-1.85-16.92-5.55-24.36c-3.7-7.44-9.13-13.22-16.28-17.33-7.15-4.11-15.21-6.17-24.17-6.17Z" fill="#ff8c12"/>
      <path d="M1966.11,171.56c1.82-18.75,3.06-33.75,3.72-45.02.99-16.77,1.99-38.48,2.98-65.12.74-20.39,1.12-34.99,1.12-43.79V3.21c9.62.25,17.92.37,24.91.37s15.58-.19,26.51-.55c10.93-.37,21.21-.56,30.83-.56,11.01,0,20.67.66,28.97,1.97,8.3,1.32,16.05,4.03,23.24,8.14,7.19,4.11,13.21,9.5,18.06,16.16,4.85,6.66,8.55,14.45,11.1,23.37,2.55,8.92,3.82,18.11,3.82,27.57s-.99,18.23-2.96,26.83c-1.97,8.59-4.73,16.34-8.26,23.25-3.54,6.91-7.67,12.85-12.4,17.82-4.73,4.98-10.14,9.23-16.22,12.77-4.52,2.63-9.09,4.69-13.69,6.17-4.61,1.48-10.9,2.67-18.87,3.58-8.88.99-18.95,1.48-30.22,1.48l-49.83-.37c-4.69,0-12.29.12-22.82.37ZM2019.44,134.44c4.52.41,9.25.62,14.18.62,8.38,0,15.86-.74,22.43-2.22,6.57-1.48,12.34-4.64,17.32-9.5,4.97-4.85,8.65-11.08,11.03-18.69,2.38-7.6,3.57-15.4,3.57-23.37,0-9.78-1.77-18.03-5.3-24.73-3.54-6.7-8.25-11.37-14.12-14-5.88-2.63-13.88-3.95-23.99-3.95-5.92,0-12.91.25-20.97.74l-4.15,95.09Z" fill="#ff8c12"/>
      <path d="M2139.16,171.56l10.24-17.76,63.8-120.13,6.79-13.44c1.97-3.95,4.73-9.62,8.27-17.02,14.47.17,25.03.25,31.69.25,11.59,0,22.32-.08,32.19-.25l18,51.43,36.61,98.92,7.15,18.01c-14.24-.16-22.88-.25-25.93-.25-6.91,0-17.08.08-30.5.25-3.61-13.57-8.83-29.52-15.64-47.86h-62.09c-7.15,14.47-14.54,30.42-22.18,47.86-15.31-.16-24.69-.25-28.15-.25-6.26,0-16.34.08-30.25.25ZM2234.65,87.82h38.31c-9.52-28.98-14.74-44.94-15.64-47.9-5.42,12.07-10.02,21.96-13.8,29.67l-8.87,18.22Z" fill="#ff8c12"/>
      <path d="M2402.49,171.56c.82-6.66,1.81-17.97,2.96-33.92,1.15-15.95,1.73-27.22,1.73-33.79l-56.49-100.65c12.41.17,22.63.25,30.69.25s16.97-.08,27.73-.25c3.29,8.22,7.75,18.02,13.38,29.41,5.63,11.39,10.22,21.56,13.75,30.52,9.45-16.69,17.05-29.69,22.81-39.02,5.75-9.33,9.86-16.3,12.33-20.9,10.46.17,20.5.25,30.13.25,5.1,0,14.36-.08,27.78-.25l-54.15,79.8c-10.77,15.95-16.16,24.3-16.16,25.04l-.12,1.23v1.23l-.12,1.23-.86,18.75c-.57,12.42-1.03,26.11-1.35,41.07-11.6-.16-20.56-.25-26.89-.25s-15.54.08-27.14.25Z" fill="#ff8c12"/>
    </g>
    <g>
      <path d="M124.63,321.98c-.7,3.42-1.54,8.19-2.53,14.31-.99,6.12-1.66,10.86-2.01,14.23-12.45,1.86-23.56,2.79-33.34,2.79s-18.2-1.18-26.31-3.53c-8.12-2.36-15.56-6.22-22.34-11.61-6.78-5.38-11.62-11.71-14.53-18.98-2.91-7.27-4.36-15.42-4.36-24.44,0-10.53,1.96-20,5.89-28.41,3.93-8.41,9.57-15.42,16.93-21.03,7.36-5.61,15.43-9.63,24.22-12.04,8.78-2.41,17.86-3.62,27.23-3.62,8.61,0,19.26,1.11,31.94,3.32l.17,7.33c.12,3.2.29,6.72.52,10.56l.61,9.95c-6.81-1.63-12.32-2.73-16.54-3.32-4.22-.58-8.13-.87-11.74-.87-7.85,0-14.92,1.57-21.21,4.71-6.28,3.14-11.23,7.71-14.84,13.7-3.61,5.99-5.41,12.62-5.41,19.9,0,6.63,1.51,12.32,4.54,17.06,3.02,4.74,7.11,8.41,12.26,11,5.15,2.59,11.5,3.88,19.07,3.88,4.13,0,8.62-.33,13.48-1,4.86-.67,10.95-1.96,18.28-3.88Z" fill="#ff8c12"/>
      <path d="M213.39,229.65c9.31,0,18.27,1.25,26.88,3.75,8.61,2.5,16.15,6.5,22.6,12,6.46,5.5,11.29,11.82,14.49,18.98,3.2,7.16,4.8,15.39,4.8,24.7,0,9.77-1.76,18.75-5.28,26.92-3.52,8.17-8.6,15.11-15.23,20.81-6.63,5.7-14.54,9.88-23.74,12.52-9.19,2.65-18.76,3.97-28.71,3.97s-19.26-1.3-28.27-3.88c-9.02-2.59-16.86-6.78-23.52-12.57-6.66-5.79-11.39-12.23-14.18-19.33-2.79-7.1-4.19-14.98-4.19-23.65,0-12.74,2.95-23.93,8.86-33.56,5.9-9.63,14.66-17.15,26.27-22.56,11.61-5.41,24.68-8.12,39.23-8.12ZM211.81,255.92c-6.69,0-12.74,1.64-18.15,4.93-5.41,3.29-9.57,7.85-12.48,13.7-2.91,5.85-4.36,12.12-4.36,18.81,0,6.17,1.32,11.81,3.97,16.93,2.65,5.12,6.68,9.12,12.09,12,5.41,2.88,11.14,4.32,17.19,4.32,6.46,0,12.38-1.61,17.76-4.84,5.38-3.23,9.48-7.77,12.3-13.61,2.82-5.85,4.23-11.97,4.23-18.37s-1.31-11.97-3.93-17.24c-2.62-5.26-6.46-9.35-11.52-12.26-5.06-2.91-10.76-4.36-17.1-4.36Z" fill="#ff8c12"/>
      <path d="M294.11,351.04l2.16-17.63,5.37-61.18,2.68-40.32c10.74.12,19.18.17,25.31.17,5.08,0,12.85-.06,23.3-.17.75,5,1.39,8.8,1.91,11.39.52,2.59,1.81,7.65,3.87,15.19,2.06,7.54,3.71,14.05,4.96,19.55,1.25,5.5,3.12,14.91,5.61,28.23,2.56-9.13,4.9-16.99,6.99-23.56,2.1-6.57,4.72-14.05,7.87-22.43s5.14-13.86,5.99-16.45c.85-2.59,2-6.56,3.45-11.91,8.73.12,17.28.17,25.66.17,5.7,0,13.61-.06,23.74-.17-1.11,19.61-1.83,36.45-2.18,50.53-.76,27.58-1.13,46.54-1.13,56.9,0,2.15.06,6.05.17,11.69-7.68-.12-13.06-.17-16.14-.17-4.48,0-9.98.06-16.49.17.47-5.24,1.06-17.7,1.77-37.4.71-19.69,1.06-32.27,1.06-37.74,0-2.38-.06-5.7-.17-9.95l-11.45,35.52-16.43,49.57c-7.56-.12-12.77-.17-15.62-.17-3.61,0-9.13.06-16.58.17l-10.76-48-6.3-25.57c-.23-.99-.5-2.21-.79-3.67-.29-1.45-.76-4.01-1.4-7.68l-2.2,24.17-2.9,49.57-.26,11.17c-8.03-.12-13.15-.17-15.36-.17-3.03,0-8.26.06-15.71.17Z" fill="#ff8c12"/>
      <path d="M461.06,351.04c3.35-46.72,5.03-82.67,5.03-107.86l-.09-11.26c10.19.12,17,.17,20.44.17,1.57,0,7.83-.06,18.78-.17-1.05,13.09-1.9,25.48-2.54,37.18-.82,16.29-1.4,31.52-1.75,45.69-.35,14.17-.53,26.25-.53,36.26l-17.88-.17c-3.49,0-10.64.06-21.46.17Z" fill="#ff8c12"/>
      <path d="M521.88,351.04l1.75-18.33,3.4-62.14.96-25.05v-13.61c9.03.12,17.02.17,23.95.17,4.95,0,11.92-.06,20.89-.17l37.25,67.75,5.14,9.95c.66-9.78,1.33-23.48,2.01-41.12.69-17.64,1.03-29.83,1.03-36.58,7.15.12,12.87.17,17.17.17,1.98,0,7.67-.06,17.09-.17l-2.09,26.01-3.93,72.26-.52,20.86c-7.57-.12-14.64-.17-21.22-.17-5.47,0-13.04.06-22.71.17-3.02-5.7-5.26-9.84-6.71-12.4l-14.64-24.88c-4.82-8.15-9.27-15.95-13.33-23.4-2.67-4.71-5.43-9.89-8.28-15.54l-1.88,41.38-.89,34.83c-7.21-.12-12.7-.17-16.47-.17-3.2,0-9.18.06-17.96.17Z" fill="#ff8c12"/>
      <path d="M738.57,281.57c7.97.12,15.56.17,22.78.17,12.33,0,21.99-.06,28.97-.17-.76,7.97-1.52,19.26-2.31,33.86-.78,14.6-1.26,25.63-1.44,33.08-6.69,1.22-12.23,2.11-16.63,2.66-4.39.55-9.67,1.05-15.84,1.48-6.17.44-11.67.65-16.49.65-7.91,0-15.68-.64-23.3-1.92-7.62-1.28-14.44-3.34-20.47-6.2-6.02-2.85-11.04-6.72-15.06-11.61-4.01-4.89-7.11-10.68-9.29-17.37-2.18-6.69-3.27-13.61-3.27-20.77,0-11.81,2.94-22.78,8.81-32.9,5.88-10.12,14.33-18.14,25.35-24.04,11.02-5.9,25.26-8.86,42.72-8.86,12.74,0,26.85,1.54,42.33,4.62,0,8.5.38,17.95,1.13,28.36-4.19-1.4-7.58-2.46-10.17-3.19-2.59-.73-5.62-1.4-9.08-2.01-3.46-.61-6.75-1.06-9.86-1.35-3.11-.29-5.89-.44-8.33-.44-6.4,0-12.45.92-18.15,2.75-5.7,1.83-10.6,4.66-14.7,8.47-4.1,3.81-7.17,8.36-9.21,13.66-2.04,5.29-3.05,10.88-3.05,16.76s1.16,11.33,3.49,16.01c2.33,4.68,6.02,8.25,11.08,10.69,5.06,2.44,10.7,3.67,16.93,3.67,5.18,0,10.85-.76,17.02-2.27l1-18.94c-3.79-.17-6.04-.26-6.73-.26l-9.27.09.61-10.73c.06-1.16.14-2.84.26-5.02.12-2.18.17-5.16.17-8.95Z" fill="#ff8c12"/>
      <path d="M876.13,351.04l-2.97-16.06c-.7-3.78-1.78-9.08-3.23-15.88l-14.24-65.19-5.15-21.99c7.34.12,13.28.17,17.82.17,5.12,0,11.06-.06,17.82-.17,1.57,9.48,2.82,16.44,3.76,20.86l7.34,35.17c1.51,7.56,3.2,16.79,5.07,27.66l2.87-12.22,10.36-40.32,7.14-31.16c7.97.12,14.72.17,20.25.17,5.99,0,12.71-.06,20.16-.17l5.52,36.74,7.62,46.78,3.4-12.83c.64-2.21,1.31-4.45,2.01-6.72.7-2.27,2.15-6.78,4.36-13.53l10.64-33.51,4.97-16.93c7.03.06,12.85.09,17.44.09,5.17,0,10.96-.03,17.35-.09l-33.84,101.41-5.41,17.72c-8.73-.12-16.35-.17-22.87-.17-6.87,0-14.46.06-22.78.17l-2-11.96-7.67-41.63c-.41-2.5-.77-5.08-1.09-7.72-.32-2.65-.77-6.76-1.35-12.35l-3.06,13.53c-.76,3.03-1.54,6.08-2.36,9.16l-14.06,50.97c-8.79-.12-16.09-.17-21.91-.17-6.17,0-13.47.06-21.91.17Z" fill="#ff8c12"/>
      <path d="M1047.15,351.04l3.38-47.65,1.56-34.73.43-15.45c.12-4.48.17-8.78.17-12.92l-.09-8.38c9.14.12,15.99.17,20.53.17,3.55,0,9.73-.06,18.52-.17-1.38,16.7-2.27,31.45-2.67,44.25h47.5c.29-4.78.56-11.24.82-19.37.26-8.13.39-13.69.39-16.66,0-1.57-.06-4.31-.17-8.22l20.66.17c2.15,0,8.25-.06,18.3-.17-2.08,29.9-3.41,52.14-3.98,66.72-.58,14.57-.87,32.04-.87,52.41l-19.04-.17c-2.85,0-9.67.06-20.44.17,1.46-13.85,2.44-29.96,2.97-48.35h-47.54l-1.46,48.35-20.27-.17c-2.56,0-8.79.06-18.69.17Z" fill="#ff8c12"/>
      <path d="M1192.98,351.04c1.46-15.01,2.52-27.58,3.19-37.7s1.34-23.58,2.01-40.36c.67-16.78,1.01-27.91,1.01-33.38l-.09-7.68c13.73.12,30.33.17,49.82.17,17.97,0,33.82-.06,47.55-.17l-.17,2.87c-.06.7-.2,3.22-.44,7.57l-.52,9.48c-.12,2.03-.17,4.09-.17,6.18-11.23-.46-20.65-.7-28.27-.7-8.38,0-14.04.02-16.97.04-2.94.03-7.52.16-13.74.39l-1.06,20.07c6.87.17,14.87.26,24,.26,3.26,0,11.93-.2,26.01-.61-.58,7.45-1.13,16.32-1.66,26.62-10.06-.12-17.79-.17-23.2-.17-8.02,0-17.01.2-26.95.61l-1.04,21.21h10.03c2.96,0,9.1-.09,18.4-.26l18.05-.44c2.67-.06,7.15-.29,13.43-.7-.7,8.61-1.28,17.51-1.75,26.7-14.2-.12-29.76-.17-46.69-.17l-38.4.09-12.39.09Z" fill="#ff8c12"/>
      <path d="M1310.97,351.04l1.75-18.33,3.4-62.14.96-25.05v-13.61c9.03.12,17.02.17,23.95.17,4.95,0,11.92-.06,20.89-.17l37.25,67.75,5.14,9.95c.66-9.78,1.33-23.48,2.01-41.12.69-17.64,1.03-29.83,1.03-36.58,7.15.12,12.87.17,17.17.17,1.98,0,7.67-.06,17.09-.17l-2.09,26.01-3.93,72.26-.52,20.86c-7.57-.12-14.64-.17-21.22-.17-5.47,0-13.04.06-22.71.17-3.02-5.7-5.26-9.84-6.71-12.4l-14.64-24.88c-4.82-8.15-9.27-15.95-13.33-23.4-2.67-4.71-5.43-9.89-8.28-15.54l-1.88,41.38-.89,34.83c-7.21-.12-12.7-.17-16.47-.17-3.2,0-9.18.06-17.96.17Z" fill="#ff8c12"/>
      <path d="M1502.61,351.04c3.35-46.72,5.03-82.67,5.03-107.86l-.09-11.26c10.19.12,17,.17,20.44.17,1.57,0,7.83-.06,18.78-.17-1.05,13.09-1.9,25.48-2.54,37.18-.82,16.29-1.4,31.52-1.75,45.69-.35,14.17-.53,26.25-.53,36.26l-17.88-.17c-3.49,0-10.64.06-21.46.17Z" fill="#ff8c12"/>
      <path d="M1589.88,351.04c2.89-28.28,4.62-59.4,5.2-93.38l-37.14.96.44-9.69c.23-5.18.41-10.85.52-17.02,16.52.12,35.77.18,57.75.18l21.55-.09h20.94l11.34-.09-.52,8.55c-.23,4.58-.39,8.37-.48,11.37-.09,3-.13,5.26-.13,6.79-12.44-.64-22.7-.96-30.78-.96h-6.1c-.88,10.28-1.55,19.77-2.02,28.48-.64,12.48-1.14,24.61-1.49,36.37-.35,11.76-.53,21.27-.53,28.53-9.54-.12-15.7-.17-18.49-.17-2.5,0-9.19.06-20.06.17Z" fill="#ff8c12"/>
      <path d="M1712.32,231.92l-11.69,19.2c-1.46,2.44-4.31,7.39-8.55,14.84l-8.29-.17c-.82,0-3.61.06-8.38.17l11-34.04,11.78.17c1.22,0,5.93-.06,14.14-.17Z" fill="#ff8c12"/>
      <path d="M1719.83,349.21c-.76-12.39-1.63-22.31-2.62-29.76,6.53,2.91,12.34,4.93,17.44,6.06,5.1,1.13,9.57,1.7,13.42,1.7,5.07,0,9.11-.74,12.11-2.23s4.5-3.68,4.5-6.59c0-.99-.15-1.93-.44-2.84-.29-.9-.85-1.92-1.66-3.05-.82-1.13-1.98-2.37-3.5-3.71l-16.44-14.31c-3.85-3.26-6.53-5.61-8.04-7.07-3.09-2.97-5.5-5.73-7.21-8.29-1.72-2.56-2.97-5.16-3.76-7.81-.79-2.65-1.18-5.45-1.18-8.42,0-3.55.62-7.03,1.88-10.43,1.25-3.4,3.13-6.59,5.63-9.56,2.5-2.97,5.82-5.53,9.95-7.68,4.13-2.15,8.55-3.62,13.26-4.41,4.71-.79,9.57-1.18,14.57-1.18,9.83,0,20.54,1.13,32.11,3.4.17,4.01.38,7.69.61,11.04.23,3.35.79,9.21,1.66,17.58-5.35-2.15-10.24-3.65-14.66-4.49-4.42-.84-8.23-1.27-11.43-1.27-4.54,0-8.31.84-11.3,2.53-3,1.69-4.5,3.78-4.5,6.28,0,1.16.23,2.3.7,3.4.46,1.11,1.34,2.4,2.62,3.88,1.28,1.48,2.97,3.11,5.06,4.89,2.09,1.78,5.38,4.41,9.86,7.9l6.28,4.97c1.86,1.51,3.87,3.35,6.02,5.5,2.15,2.15,4.01,4.28,5.58,6.37,1.57,2.09,2.78,4.01,3.62,5.76.84,1.75,1.47,3.51,1.88,5.28.41,1.78.61,3.68.61,5.72,0,5.24-1.25,10.23-3.75,14.97-2.5,4.74-6.05,8.64-10.65,11.69-4.6,3.05-9.64,5.19-15.14,6.41-5.5,1.22-11.3,1.83-17.41,1.83-9.43,0-21.32-1.37-35.69-4.1Z" fill="#ff8c12"/>
      <path d="M1864.17,351.04c1.11-10.24,1.98-19.46,2.63-27.66.64-8.2,1.2-17.72,1.66-28.54s.82-22.24,1.05-34.25c.23-12.01.35-21.57.35-28.67,7.27.17,13.15.26,17.63.26s10.32-.13,17.01-.39c6.69-.26,13.21-.39,19.54-.39,7.45,0,14.08.29,19.9.87,4.36.41,8.33,1.25,11.91,2.53,3.58,1.28,6.59,2.84,9.03,4.67,2.44,1.83,4.48,3.88,6.11,6.15,1.63,2.27,2.89,4.93,3.8,7.98.9,3.05,1.35,6.33,1.35,9.82,0,3.9-.5,7.55-1.48,10.95-.99,3.4-2.55,6.6-4.67,9.6-2.12,3-4.8,5.59-8.03,7.77-3.23,2.18-7.75,4.41-13.57,6.68l4.54,11.08c1.28,3.08,2.65,6.23,4.1,9.42l11.69,25.57c.52,1.11,1.45,3.29,2.79,6.55-9.59-.12-16.05-.17-19.36-.17-4.19,0-11.05.06-20.58.17-.93-3.02-2.62-8.64-5.07-16.84-.99-3.43-1.84-6.08-2.53-7.94-1.4-4.13-3.47-9.92-6.2-17.37l-9-24.7c3.14.58,6.22.87,9.25.87,4.25,0,8.1-.64,11.56-1.92,3.46-1.28,6.08-3.26,7.85-5.93,1.77-2.68,2.66-5.5,2.66-8.47,0-2.5-.67-4.7-2.01-6.59-1.34-1.89-3.45-3.3-6.33-4.23-2.88-.93-7.32-1.4-13.31-1.4-2.04,0-4.15.04-6.33.13-2.18.09-4.73.16-7.64.22-.75,11.93-1.41,26.47-1.98,43.63-.57,17.16-.95,34.01-1.12,50.53-9.73-.12-16.05-.17-18.96-.17-3.38,0-9.47.06-18.26.17Z" fill="#ff8c12"/>
      <path d="M1989.49,351.04c1.46-15.01,2.52-27.58,3.19-37.7s1.34-23.58,2.01-40.36c.67-16.78,1.01-27.91,1.01-33.38l-.09-7.68c13.73.12,30.33.17,49.82.17,17.98,0,33.83-.06,47.55-.17l-.17,2.87c-.06.7-.2,3.22-.44,7.57l-.52,9.48c-.12,2.03-.17,4.09-.17,6.18-11.23-.46-20.65-.7-28.28-.7-8.38,0-14.04.02-16.97.04-2.94.03-7.52.16-13.75.39l-1.06,20.07c6.87.17,14.87.26,24,.26,3.26,0,11.93-.2,26.01-.61-.58,7.45-1.13,16.32-1.66,26.62-10.06-.12-17.79-.17-23.2-.17-8.03,0-17.01.2-26.95.61l-1.04,21.21h10.03c2.96,0,9.1-.09,18.4-.26l18.05-.44c2.67-.06,7.15-.29,13.43-.7-.7,8.61-1.28,17.51-1.75,26.7-14.2-.12-29.76-.17-46.69-.17l-38.4.09-12.39.09Z" fill="#ff8c12"/>
      <path d="M2091.77,351.04l7.25-12.57,45.14-85,4.8-9.51c1.4-2.79,3.35-6.81,5.85-12.04,10.24.12,17.71.17,22.43.17,8.2,0,15.79-.06,22.77-.17l12.73,36.39,25.9,69.99,5.06,12.74c-10.08-.12-16.19-.17-18.35-.17-4.89,0-12.08.06-21.58.17-2.56-9.6-6.24-20.89-11.06-33.86h-43.93c-5.06,10.24-10.29,21.53-15.69,33.86-10.83-.12-17.47-.17-19.92-.17-4.43,0-11.56.06-21.4.17ZM2159.33,291.78h27.11c-6.74-20.5-10.43-31.8-11.06-33.89-3.84,8.54-7.09,15.54-9.76,21l-6.28,12.89Z" fill="#ff8c12"/>
      <path d="M2253.04,351.04c1.29-13.27,2.17-23.88,2.63-31.85.7-11.87,1.4-27.23,2.11-46.08.53-14.43.79-24.75.79-30.98v-10.21c6.8.17,12.68.26,17.62.26s11.02-.13,18.76-.39c7.74-.26,15.01-.39,21.81-.39,7.79,0,14.63.47,20.5,1.4,5.87.93,11.36,2.85,16.45,5.76,5.09,2.91,9.35,6.72,12.78,11.43,3.43,4.71,6.05,10.23,7.85,16.54,1.8,6.31,2.71,12.81,2.71,19.5s-.7,12.9-2.09,18.98c-1.4,6.08-3.35,11.56-5.85,16.45-2.5,4.89-5.43,9.09-8.77,12.61-3.35,3.52-7.17,6.53-11.48,9.03-3.2,1.86-6.43,3.32-9.69,4.36-3.26,1.05-7.71,1.89-13.35,2.53-6.28.7-13.41,1.05-21.38,1.05l-35.26-.26c-3.32,0-8.7.09-16.14.26ZM2290.77,324.77c3.2.29,6.54.44,10.03.44,5.93,0,11.22-.52,15.87-1.57,4.65-1.05,8.74-3.29,12.25-6.72,3.52-3.43,6.12-7.84,7.81-13.22,1.69-5.38,2.53-10.89,2.53-16.54,0-6.92-1.25-12.75-3.75-17.5-2.5-4.74-5.83-8.04-9.99-9.91-4.16-1.86-9.82-2.79-16.97-2.79-4.19,0-9.13.17-14.83.52l-2.94,67.28Z" fill="#ff8c12"/>
      <path d="M2416.32,351.04c.58-4.71,1.28-12.71,2.09-24,.81-11.29,1.22-19.26,1.22-23.91l-39.97-71.21c8.78.12,16.01.17,21.71.17s12-.06,19.62-.17c2.33,5.82,5.48,12.75,9.47,20.81,3.98,8.06,7.23,15.25,9.73,21.59,6.69-11.81,12.07-21.01,16.14-27.61,4.07-6.6,6.98-11.53,8.72-14.79,7.4.12,14.5.17,21.32.17,3.61,0,10.16-.06,19.66-.17l-38.31,56.46c-7.62,11.29-11.43,17.19-11.43,17.72l-.09.87v.87l-.09.87-.61,13.27c-.41,8.79-.73,18.47-.96,29.06-8.21-.12-14.55-.17-19.03-.17s-11,.06-19.2.17Z" fill="#ff8c12"/>
    </g>
    <g>
      <path d="M13.4,523.8c1.02-9.91,1.73-17.87,2.12-23.88.58-8.89,1.15-21.1,1.68-36.66.54-15.55.81-26.01.81-31.38v-8.06c14.7.1,28.37.15,41.02.15s25-.05,36.77-.15c-.78,11.23-1.17,18.58-1.17,22.05l-6.37-.22-5.13-.07-5.13-.07h-14.43c-1.66,0-6.52.05-14.58.15l-.66,17.07,10.62.22h11.86c3.42,0,8.64-.07,15.67-.22-.54,9.23-.8,16.46-.8,21.68-7.85-.24-13.67-.37-17.48-.37-6.44,0-13.46.12-21.06.37l-.76,26.37-.08,9.81v3.22l-15.76-.15c-1.22,0-6.94.05-17.16.15Z" fill="#ff8c12"/>
      <path d="M105.03,523.8c.93-8.59,1.67-16.33,2.2-23.22.54-6.88,1-14.87,1.4-23.95.39-9.08.69-18.66.88-28.75.2-10.08.29-18.1.29-24.06,6.1.15,11.03.22,14.79.22s8.67-.11,14.28-.33c5.61-.22,11.08-.33,16.4-.33,6.25,0,11.81.25,16.7.73,3.66.34,6.99,1.05,10,2.12,3,1.07,5.53,2.38,7.58,3.92s3.76,3.26,5.13,5.16,2.43,4.14,3.19,6.7c.76,2.56,1.14,5.31,1.14,8.24,0,3.27-.42,6.34-1.25,9.19-.83,2.86-2.14,5.54-3.92,8.06-1.78,2.52-4.03,4.69-6.74,6.52s-6.51,3.7-11.39,5.6l3.81,9.3c1.07,2.59,2.22,5.23,3.44,7.91l9.81,21.46c.44.93,1.22,2.76,2.34,5.49-8.05-.1-13.47-.15-16.25-.15-3.51,0-9.27.05-17.27.15-.78-2.54-2.2-7.25-4.25-14.14-.83-2.88-1.54-5.1-2.13-6.67-1.17-3.47-2.91-8.32-5.21-14.58l-7.55-20.73c2.64.49,5.22.73,7.76.73,3.56,0,6.8-.54,9.7-1.61,2.9-1.07,5.1-2.73,6.59-4.98,1.49-2.25,2.23-4.61,2.23-7.1,0-2.1-.56-3.94-1.68-5.53-1.12-1.59-2.89-2.77-5.31-3.55-2.42-.78-6.14-1.17-11.17-1.17-1.71,0-3.48.04-5.31.11s-3.97.14-6.41.18c-.63,10.01-1.18,22.22-1.66,36.62-.48,14.4-.79,28.54-.94,42.41-8.16-.1-13.47-.15-15.91-.15-2.84,0-7.94.05-15.33.15Z" fill="#ff8c12"/>
      <path d="M210.21,523.8c1.22-12.6,2.12-23.14,2.68-31.64s1.13-19.79,1.69-33.87c.56-14.09.84-23.42.84-28.02l-.07-6.45c11.52.1,25.46.15,41.81.15,15.09,0,28.39-.05,39.91-.15l-.15,2.41c-.05.58-.17,2.7-.37,6.35l-.44,7.96c-.1,1.7-.15,3.43-.15,5.18-9.42-.39-17.33-.59-23.73-.59-7.03,0-11.78.01-14.25.04-2.47.03-6.31.14-11.54.33l-.89,16.85c5.76.15,12.48.22,20.15.22,2.74,0,10.01-.17,21.83-.51-.49,6.25-.95,13.7-1.39,22.34-8.44-.1-14.93-.15-19.47-.15-6.73,0-14.27.17-22.62.51l-.87,17.8h8.42c2.49,0,7.64-.07,15.44-.22l15.15-.37c2.24-.05,6-.24,11.27-.59-.59,7.23-1.07,14.7-1.46,22.41-11.91-.1-24.98-.15-39.18-.15l-32.23.07-10.4.07Z" fill="#ff8c12"/>
      <path d="M309.08,523.8c1.22-12.6,2.12-23.14,2.68-31.64s1.13-19.79,1.69-33.87c.56-14.09.84-23.42.84-28.02l-.07-6.45c11.52.1,25.46.15,41.81.15,15.09,0,28.39-.05,39.91-.15l-.15,2.41c-.05.58-.17,2.7-.37,6.35l-.44,7.96c-.1,1.7-.15,3.43-.15,5.18-9.42-.39-17.33-.59-23.73-.59-7.03,0-11.78.01-14.25.04-2.47.03-6.31.14-11.54.33l-.89,16.85c5.76.15,12.48.22,20.15.22,2.74,0,10.01-.17,21.83-.51-.49,6.25-.95,13.7-1.39,22.34-8.44-.1-14.93-.15-19.47-.15-6.73,0-14.27.17-22.62.51l-.87,17.8h8.42c2.49,0,7.64-.07,15.44-.22l15.15-.37c2.24-.05,6-.24,11.27-.59-.59,7.23-1.07,14.7-1.46,22.41-11.91-.1-24.98-.15-39.18-.15l-32.23.07-10.4.07Z" fill="#ff8c12"/>
      <path d="M414.55,462.71l12.4-12.16-15.55-5.2c.54-.98,1.67-3.2,3.41-6.67,1.73-3.47,2.89-5.96,3.48-7.47l15.16,7.4-.51-16.7c3.12.1,5.81.15,8.06.15,2.59,0,5.22-.05,7.91-.15l-2.49,16.85,16.04-7.54c1.56,4.95,3.2,9.77,4.91,14.46l-16.17,5.09,11.04,12.16-5.63,4.39c-1.56,1.22-3.9,3.13-7.02,5.71l-10.9-14.58-12.91,14.58c-3.18-3.22-6.92-6.67-11.22-10.33Z" fill="#ff8c12"/>
      <path d="M489.18,462.71l12.4-12.16-15.55-5.2c.54-.98,1.67-3.2,3.41-6.67,1.73-3.47,2.89-5.96,3.48-7.47l15.16,7.4-.51-16.7c3.12.1,5.81.15,8.06.15,2.59,0,5.22-.05,7.91-.15l-2.49,16.85,16.04-7.54c1.56,4.95,3.2,9.77,4.91,14.46l-16.17,5.09,11.04,12.16-5.63,4.39c-1.56,1.22-3.9,3.13-7.02,5.71l-10.9-14.58-12.91,14.58c-3.18-3.22-6.92-6.67-11.22-10.33Z" fill="#ff8c12"/>
      <path d="M99.68,679.41c-.59,2.87-1.29,6.88-2.12,12.01-.83,5.14-1.39,9.12-1.68,11.94-10.45,1.56-19.78,2.34-27.98,2.34s-15.27-.99-22.08-2.97-13.06-5.22-18.75-9.74c-5.69-4.52-9.75-9.83-12.19-15.93-2.44-6.1-3.66-12.94-3.66-20.51,0-8.84,1.65-16.78,4.94-23.84,3.3-7.06,8.03-12.94,14.21-17.65,6.18-4.71,12.95-8.08,20.32-10.11,7.37-2.03,14.99-3.04,22.85-3.04,7.23,0,16.16.93,26.81,2.78l.15,6.15c.1,2.69.24,5.64.44,8.86l.51,8.35c-5.71-1.37-10.34-2.29-13.88-2.78-3.54-.49-6.82-.73-9.85-.73-6.59,0-12.52,1.32-17.8,3.96s-9.42,6.47-12.45,11.5c-3.03,5.03-4.54,10.6-4.54,16.7,0,5.57,1.27,10.34,3.81,14.32,2.54,3.98,5.97,7.06,10.29,9.23,4.32,2.17,9.66,3.26,16,3.26,3.47,0,7.24-.28,11.32-.84,4.08-.56,9.19-1.65,15.34-3.26Z" fill="#ff8c12"/>
      <path d="M174.17,601.92c7.81,0,15.33,1.05,22.56,3.15,7.23,2.1,13.55,5.46,18.97,10.07s9.47,9.92,12.16,15.93c2.68,6.01,4.03,12.92,4.03,20.73,0,8.2-1.48,15.74-4.43,22.6-2.96,6.86-7.21,12.68-12.78,17.47-5.57,4.79-12.21,8.29-19.92,10.51-7.72,2.22-15.75,3.33-24.1,3.33s-16.16-1.09-23.73-3.26c-7.57-2.17-14.15-5.69-19.74-10.55-5.59-4.86-9.56-10.27-11.9-16.22-2.34-5.96-3.52-12.57-3.52-19.85,0-10.69,2.48-20.08,7.43-28.16,4.96-8.08,12.3-14.39,22.05-18.93s20.71-6.81,32.92-6.81ZM172.85,623.96c-5.62,0-10.69,1.38-15.23,4.14-4.54,2.76-8.03,6.59-10.47,11.5-2.44,4.91-3.66,10.17-3.66,15.78,0,5.18,1.11,9.91,3.33,14.21,2.22,4.3,5.6,7.65,10.14,10.07s9.35,3.63,14.43,3.63c5.42,0,10.39-1.35,14.9-4.06,4.52-2.71,7.96-6.52,10.33-11.43,2.37-4.91,3.55-10.05,3.55-15.42s-1.1-10.05-3.3-14.47c-2.2-4.42-5.42-7.85-9.67-10.29-4.25-2.44-9.03-3.66-14.36-3.66Z" fill="#ff8c12"/>
      <path d="M243.68,703.8l1.46-15.38,2.86-52.15.81-21.02v-11.43c7.58.1,14.28.15,20.1.15,4.16,0,10-.05,17.53-.15l31.27,56.86,4.31,8.35c.55-8.21,1.11-19.71,1.69-34.51.58-14.8.86-25.03.86-30.7,6,.1,10.8.15,14.41.15,1.66,0,6.44-.05,14.34-.15l-1.76,21.83-3.3,60.64-.44,17.5c-6.35-.1-12.29-.15-17.81-.15-4.59,0-10.94.05-19.06.15-2.54-4.79-4.41-8.25-5.63-10.4l-12.29-20.88c-4.05-6.84-7.78-13.38-11.19-19.64-2.24-3.96-4.56-8.3-6.95-13.04l-1.58,34.73-.75,29.23c-6.05-.1-10.66-.15-13.83-.15-2.68,0-7.71.05-15.07.15Z" fill="#ff8c12"/>
      <path d="M365.84,702.26c-.64-10.4-1.37-18.72-2.2-24.98,5.48,2.44,10.36,4.14,14.64,5.09s8.03,1.43,11.26,1.43c4.25,0,7.64-.62,10.16-1.87,2.52-1.25,3.78-3.09,3.78-5.53,0-.83-.12-1.62-.37-2.38-.25-.76-.71-1.61-1.39-2.56-.69-.95-1.66-1.99-2.94-3.11l-13.8-12.01c-3.23-2.73-5.48-4.71-6.75-5.93-2.59-2.49-4.61-4.81-6.06-6.96-1.44-2.15-2.5-4.33-3.16-6.56-.66-2.22-.99-4.58-.99-7.07,0-2.98.52-5.9,1.57-8.75,1.05-2.86,2.62-5.53,4.72-8.02,2.1-2.49,4.88-4.64,8.35-6.45,3.47-1.81,7.18-3.04,11.13-3.7s8.03-.99,12.23-.99c8.25,0,17.24.95,26.95,2.86.15,3.37.32,6.46.51,9.27.19,2.81.66,7.73,1.39,14.76-4.49-1.81-8.59-3.06-12.3-3.77-3.71-.71-6.91-1.06-9.59-1.06-3.81,0-6.97.71-9.48,2.12-2.52,1.42-3.77,3.17-3.77,5.27,0,.98.19,1.93.59,2.86.39.93,1.12,2.01,2.2,3.26,1.07,1.25,2.49,2.61,4.25,4.1,1.76,1.49,4.52,3.7,8.28,6.63l5.27,4.17c1.56,1.27,3.25,2.81,5.05,4.61,1.81,1.81,3.37,3.59,4.69,5.35s2.33,3.37,3.04,4.83c.71,1.46,1.23,2.94,1.57,4.43.34,1.49.51,3.09.51,4.8,0,4.39-1.05,8.58-3.15,12.56-2.1,3.98-5.08,7.25-8.94,9.81-3.86,2.56-8.09,4.36-12.71,5.38-4.61,1.03-9.49,1.54-14.61,1.54-7.91,0-17.9-1.15-29.96-3.44Z" fill="#ff8c12"/>
      <path d="M454.05,603.82c7.61.1,12.98.15,16.1.15,3.91,0,9.1-.05,15.59-.15l-2.18,31.13c-.44,5.86-.76,11.35-.98,16.48-.22,5.13-.33,8.67-.33,10.62,0,3.71.27,6.81.8,9.3.54,2.49,1.51,4.6,2.93,6.34,1.41,1.73,3.38,3.04,5.89,3.92,2.51.88,5.13,1.32,7.87,1.32,2.34,0,4.54-.32,6.59-.96,1.61-.52,3.05-1.25,4.32-2.18,1.12-.87,2.1-1.89,2.93-3.05,1.02-1.4,1.93-3.14,2.71-5.23.78-1.98,1.37-4.53,1.76-7.67.44-3.2,1.03-10.47,1.76-21.8.63-9.65,1.12-18.49,1.47-26.51.29-7.79.56-11.69.81-11.69h32.3l-3.56,52c-.05.98-.07,1.78-.07,2.42-.2,10.16-.82,17.32-1.87,21.5s-2.8,7.8-5.24,10.88-6.01,5.85-10.7,8.31c-4.69,2.47-10.01,4.21-15.97,5.24s-11.99,1.54-18.1,1.54c-5.47,0-10.75-.39-15.82-1.17-4.69-.78-8.92-1.92-12.68-3.41-3.76-1.49-7.03-3.23-9.82-5.24-2.54-1.85-4.49-3.75-5.86-5.68-1.37-1.93-2.44-4.24-3.22-6.92-.88-3.03-1.32-6.27-1.32-9.74,0-1.17.05-2.94.15-5.31.1-2.37.32-5.77.66-10.22l.96-11.72c.25-3.08.51-7.59.81-13.55l1.32-28.93Z" fill="#ff8c12"/>
      <path d="M565.5,703.8c1.23-11.52,2.11-20.92,2.65-28.2,1.03-13.28,1.8-26.48,2.32-39.59.51-13.11.77-23.84.77-32.19,6.63.1,12.51.15,17.64.15,3.46,0,8.44-.05,14.93-.15l-1.76,26.51-2.21,41.46-.29,10.18c8.4.15,13.87.22,16.41.22,12.85,0,22.57-.17,29.16-.51l-1.61,22.12c-12.84-.1-25.07-.15-36.69-.15-15.72,0-29.49.05-41.31.15Z" fill="#ff8c12"/>
      <path d="M676.39,703.8c2.42-23.73,3.88-49.85,4.37-78.37l-31.17.81.37-8.13c.19-4.35.34-9.11.44-14.28,13.86.1,30.02.15,48.47.15l18.08-.07h17.57l9.52-.07-.44,7.17c-.2,3.85-.33,7.03-.4,9.54-.07,2.52-.11,4.41-.11,5.69-10.44-.54-19.05-.81-25.83-.81h-5.12c-.74,8.63-1.3,16.6-1.7,23.91-.54,10.48-.96,20.65-1.25,30.52-.29,9.87-.44,17.85-.44,23.94-8-.1-13.18-.15-15.52-.15-2.1,0-7.71.05-16.83.15Z" fill="#ff8c12"/>
      <path d="M736.23,703.8l6.08-10.55,37.88-71.34,4.03-7.98c1.17-2.34,2.81-5.71,4.91-10.11,8.59.1,14.87.15,18.82.15,6.88,0,13.25-.05,19.11-.15l10.69,30.54,21.74,58.74,4.25,10.69c-8.46-.1-13.59-.15-15.4-.15-4.11,0-10.14.05-18.11.15-2.14-8.06-5.24-17.53-9.29-28.42h-36.87c-4.25,8.59-8.64,18.07-13.17,28.42-9.09-.1-14.67-.15-16.72-.15-3.72,0-9.7.05-17.96.15ZM792.94,654.06h22.75c-5.65-17.21-8.75-26.69-9.29-28.44-3.22,7.17-5.95,13.04-8.2,17.62l-5.27,10.82Z" fill="#ff8c12"/>
      <path d="M893.7,703.8c2.42-23.73,3.88-49.85,4.37-78.37l-31.17.81.37-8.13c.19-4.35.34-9.11.44-14.28,13.86.1,30.02.15,48.47.15l18.08-.07h17.57l9.52-.07-.44,7.17c-.2,3.85-.33,7.03-.4,9.54-.07,2.52-.11,4.41-.11,5.69-10.44-.54-19.05-.81-25.83-.81h-5.12c-.74,8.63-1.3,16.6-1.7,23.91-.54,10.48-.96,20.65-1.25,30.52-.29,9.87-.44,17.85-.44,23.94-8-.1-13.18-.15-15.52-.15-2.1,0-7.71.05-16.83.15Z" fill="#ff8c12"/>
      <path d="M966.94,703.8c2.81-39.21,4.22-69.38,4.22-90.53l-.07-9.45c8.55.1,14.27.15,17.15.15,1.32,0,6.57-.05,15.76-.15-.88,10.99-1.59,21.39-2.13,31.2-.69,13.67-1.18,26.45-1.47,38.34-.29,11.89-.44,22.03-.44,30.43l-15.01-.15c-2.93,0-8.93.05-18.01.15Z" fill="#ff8c12"/>
      <path d="M1078.42,601.92c7.81,0,15.33,1.05,22.56,3.15,7.23,2.1,13.55,5.46,18.97,10.07s9.47,9.92,12.16,15.93c2.68,6.01,4.03,12.92,4.03,20.73,0,8.2-1.48,15.74-4.43,22.6-2.95,6.86-7.21,12.68-12.78,17.47-5.57,4.79-12.21,8.29-19.92,10.51-7.72,2.22-15.75,3.33-24.1,3.33s-16.16-1.09-23.73-3.26c-7.57-2.17-14.15-5.69-19.74-10.55-5.59-4.86-9.56-10.27-11.9-16.22-2.34-5.96-3.52-12.57-3.52-19.85,0-10.69,2.48-20.08,7.43-28.16,4.96-8.08,12.3-14.39,22.05-18.93,9.74-4.54,20.71-6.81,32.92-6.81ZM1077.1,623.96c-5.62,0-10.69,1.38-15.23,4.14-4.54,2.76-8.03,6.59-10.47,11.5-2.44,4.91-3.66,10.17-3.66,15.78,0,5.18,1.11,9.91,3.33,14.21,2.22,4.3,5.6,7.65,10.14,10.07s9.35,3.63,14.43,3.63c5.42,0,10.39-1.35,14.9-4.06s7.96-6.52,10.33-11.43c2.37-4.91,3.55-10.05,3.55-15.42s-1.1-10.05-3.3-14.47c-2.2-4.42-5.42-7.85-9.67-10.29-4.25-2.44-9.03-3.66-14.36-3.66Z" fill="#ff8c12"/>
      <path d="M1147.92,703.8l1.46-15.38,2.86-52.15.81-21.02v-11.43c7.58.1,14.28.15,20.1.15,4.16,0,10-.05,17.53-.15l31.27,56.86,4.31,8.35c.55-8.21,1.11-19.71,1.69-34.51.58-14.8.86-25.03.86-30.7,6,.1,10.8.15,14.41.15,1.66,0,6.44-.05,14.34-.15l-1.76,21.83-3.3,60.64-.44,17.5c-6.35-.1-12.29-.15-17.81-.15-4.59,0-10.95.05-19.06.15-2.54-4.79-4.41-8.25-5.63-10.4l-12.29-20.88c-4.05-6.84-7.78-13.38-11.19-19.64-2.24-3.96-4.56-8.3-6.95-13.04l-1.58,34.73-.75,29.23c-6.05-.1-10.66-.15-13.83-.15-2.68,0-7.71.05-15.07.15Z" fill="#ff8c12"/>
      <path d="M1270.09,702.26c-.63-10.4-1.37-18.72-2.2-24.98,5.48,2.44,10.36,4.14,14.64,5.09,4.28.95,8.04,1.43,11.26,1.43,4.25,0,7.64-.62,10.16-1.87s3.78-3.09,3.78-5.53c0-.83-.12-1.62-.37-2.38-.25-.76-.71-1.61-1.39-2.56s-1.66-1.99-2.93-3.11l-13.8-12.01c-3.23-2.73-5.48-4.71-6.75-5.93-2.59-2.49-4.61-4.81-6.05-6.96-1.44-2.15-2.5-4.33-3.16-6.56-.66-2.22-.99-4.58-.99-7.07,0-2.98.52-5.9,1.57-8.75s2.62-5.53,4.72-8.02c2.1-2.49,4.88-4.64,8.35-6.45,3.47-1.81,7.18-3.04,11.13-3.7s8.03-.99,12.23-.99c8.25,0,17.24.95,26.95,2.86.15,3.37.32,6.46.51,9.27.19,2.81.66,7.73,1.39,14.76-4.49-1.81-8.59-3.06-12.3-3.77-3.71-.71-6.91-1.06-9.59-1.06-3.81,0-6.97.71-9.48,2.12-2.52,1.42-3.77,3.17-3.77,5.27,0,.98.19,1.93.59,2.86.39.93,1.12,2.01,2.2,3.26,1.07,1.25,2.49,2.61,4.25,4.1,1.76,1.49,4.52,3.7,8.28,6.63l5.27,4.17c1.56,1.27,3.25,2.81,5.05,4.61,1.81,1.81,3.37,3.59,4.69,5.35s2.33,3.37,3.04,4.83c.71,1.46,1.23,2.94,1.57,4.43.34,1.49.51,3.09.51,4.8,0,4.39-1.05,8.58-3.15,12.56-2.1,3.98-5.08,7.25-8.94,9.81-3.86,2.56-8.09,4.36-12.71,5.38-4.62,1.03-9.49,1.54-14.61,1.54-7.91,0-17.9-1.15-29.96-3.44Z" fill="#ff8c12"/>
      <path d="M35.38,883.8c2.42-23.73,3.88-49.85,4.37-78.37l-31.17.81.37-8.13c.19-4.35.34-9.11.44-14.28,13.86.1,30.02.15,48.47.15l18.08-.07h17.57l9.52-.07-.44,7.17c-.19,3.85-.33,7.03-.4,9.54-.07,2.52-.11,4.41-.11,5.69-10.44-.54-19.05-.81-25.83-.81h-5.12c-.74,8.63-1.3,16.6-1.69,23.91-.54,10.48-.96,20.65-1.25,30.52-.3,9.87-.44,17.85-.44,23.94-8-.1-13.18-.15-15.52-.15-2.1,0-7.71.05-16.83.15Z" fill="#ff8c12"/>
      <path d="M108.25,883.8c1.22-12.6,2.12-23.14,2.68-31.64s1.13-19.79,1.69-33.87c.56-14.09.84-23.42.84-28.02l-.07-6.45c11.52.1,25.46.15,41.81.15,15.09,0,28.39-.05,39.91-.15l-.15,2.41c-.05.58-.17,2.7-.37,6.35l-.44,7.96c-.1,1.7-.15,3.43-.15,5.18-9.42-.39-17.33-.59-23.73-.59-7.03,0-11.78.01-14.25.04-2.47.03-6.31.14-11.54.33l-.89,16.85c5.76.15,12.48.22,20.15.22,2.74,0,10.01-.17,21.83-.51-.49,6.25-.95,13.7-1.39,22.34-8.44-.1-14.93-.15-19.47-.15-6.73,0-14.27.17-22.62.51l-.87,17.8h8.42c2.49,0,7.64-.07,15.44-.22l15.15-.37c2.24-.05,6-.24,11.27-.59-.59,7.23-1.07,14.7-1.46,22.41-11.91-.1-24.98-.15-39.18-.15l-32.23.07-10.4.07Z" fill="#ff8c12"/>
      <path d="M207.06,883.8c.93-8.59,1.67-16.33,2.2-23.22.54-6.88,1-14.87,1.4-23.95.39-9.08.69-18.66.88-28.75.2-10.08.29-18.1.29-24.06,6.1.15,11.03.22,14.79.22s8.67-.11,14.28-.33c5.61-.22,11.08-.33,16.4-.33,6.25,0,11.81.25,16.7.73,3.66.34,6.99,1.05,10,2.12,3,1.07,5.53,2.38,7.58,3.92s3.76,3.26,5.13,5.16,2.43,4.14,3.19,6.7c.76,2.56,1.14,5.31,1.14,8.24,0,3.27-.42,6.34-1.25,9.19-.83,2.86-2.14,5.54-3.92,8.06-1.78,2.52-4.03,4.69-6.74,6.52s-6.51,3.7-11.39,5.6l3.81,9.3c1.07,2.59,2.22,5.23,3.44,7.91l9.81,21.46c.44.93,1.22,2.76,2.34,5.49-8.05-.1-13.47-.15-16.25-.15-3.51,0-9.27.05-17.27.15-.78-2.54-2.2-7.25-4.25-14.14-.83-2.88-1.54-5.1-2.13-6.67-1.17-3.47-2.91-8.32-5.21-14.58l-7.55-20.73c2.64.49,5.22.73,7.76.73,3.56,0,6.8-.54,9.7-1.61,2.9-1.07,5.1-2.73,6.59-4.98,1.49-2.25,2.23-4.61,2.23-7.1,0-2.1-.56-3.94-1.68-5.53-1.12-1.59-2.89-2.77-5.31-3.55-2.42-.78-6.14-1.17-11.17-1.17-1.71,0-3.48.04-5.31.11s-3.97.14-6.41.18c-.63,10.01-1.18,22.22-1.66,36.62-.48,14.4-.79,28.54-.94,42.41-8.16-.1-13.47-.15-15.91-.15-2.84,0-7.94.05-15.33.15Z" fill="#ff8c12"/>
      <path d="M310.62,883.8l1.81-14.79,4.5-51.34,2.25-33.84c9.02.1,16.1.15,21.24.15,4.26,0,10.78-.05,19.55-.15.63,4.2,1.17,7.39,1.61,9.56.44,2.17,1.52,6.42,3.25,12.74,1.73,6.32,3.12,11.79,4.16,16.41,1.05,4.61,2.62,12.51,4.71,23.69,2.15-7.67,4.11-14.26,5.87-19.78,1.76-5.52,3.96-11.79,6.6-18.82,2.64-7.03,4.32-11.63,5.03-13.81.71-2.17,1.68-5.5,2.9-10,7.32.1,14.5.15,21.53.15,4.79,0,11.43-.05,19.92-.15-.93,16.46-1.54,30.59-1.83,42.41-.63,23.14-.95,39.06-.95,47.75,0,1.81.05,5.08.15,9.81-6.45-.1-10.96-.15-13.55-.15-3.76,0-8.38.05-13.84.15.4-4.39.89-14.86,1.49-31.38.6-16.53.89-27.09.89-31.68,0-2-.05-4.78-.15-8.35l-9.61,29.81-13.79,41.6c-6.35-.1-10.72-.15-13.11-.15-3.03,0-7.67.05-13.92.15l-9.03-40.28-5.29-21.46c-.2-.83-.42-1.85-.66-3.08-.25-1.22-.64-3.37-1.17-6.45l-1.85,20.29-2.44,41.6-.22,9.38c-6.74-.1-11.04-.15-12.89-.15-2.54,0-6.93.05-13.18.15Z" fill="#ff8c12"/>
      <path d="M449.56,882.26c-.63-10.4-1.37-18.72-2.2-24.98,5.48,2.44,10.36,4.14,14.64,5.09,4.28.95,8.04,1.43,11.26,1.43,4.25,0,7.64-.62,10.16-1.87s3.78-3.09,3.78-5.53c0-.83-.12-1.62-.37-2.38-.25-.76-.71-1.61-1.39-2.56s-1.66-1.99-2.93-3.11l-13.8-12.01c-3.23-2.73-5.48-4.71-6.75-5.93-2.59-2.49-4.61-4.81-6.05-6.96-1.44-2.15-2.5-4.33-3.16-6.56-.66-2.22-.99-4.58-.99-7.07,0-2.98.52-5.9,1.57-8.75s2.62-5.53,4.72-8.02c2.1-2.49,4.88-4.64,8.35-6.45,3.47-1.81,7.18-3.04,11.13-3.7s8.03-.99,12.23-.99c8.25,0,17.24.95,26.95,2.86.15,3.37.32,6.46.51,9.27.19,2.81.66,7.73,1.39,14.76-4.49-1.81-8.59-3.06-12.3-3.77-3.71-.71-6.91-1.06-9.59-1.06-3.81,0-6.97.71-9.48,2.12-2.52,1.42-3.77,3.17-3.77,5.27,0,.98.19,1.93.59,2.86.39.93,1.12,2.01,2.2,3.26,1.07,1.25,2.49,2.61,4.25,4.1,1.76,1.49,4.52,3.7,8.28,6.63l5.27,4.17c1.56,1.27,3.25,2.81,5.05,4.61,1.81,1.81,3.37,3.59,4.69,5.35s2.33,3.37,3.04,4.83c.71,1.46,1.23,2.94,1.57,4.43.34,1.49.51,3.09.51,4.8,0,4.39-1.05,8.58-3.15,12.56-2.1,3.98-5.08,7.25-8.94,9.81-3.86,2.56-8.09,4.36-12.71,5.38-4.62,1.03-9.49,1.54-14.61,1.54-7.91,0-17.9-1.15-29.96-3.44Z" fill="#ff8c12"/>
      <path d="M0,1063.8l6.08-10.55,37.89-71.34,4.03-7.98c1.17-2.34,2.81-5.71,4.91-10.11,8.59.1,14.87.15,18.82.15,6.88,0,13.25-.05,19.11-.15l10.69,30.54,21.74,58.74,4.25,10.69c-8.46-.1-13.59-.15-15.4-.15-4.11,0-10.14.05-18.11.15-2.14-8.06-5.24-17.53-9.29-28.42h-36.87c-4.24,8.59-8.64,18.07-13.17,28.42-9.09-.1-14.66-.15-16.72-.15-3.72,0-9.7.05-17.96.15ZM56.71,1014.06h22.75c-5.65-17.21-8.75-26.69-9.29-28.44-3.22,7.17-5.95,13.04-8.19,17.62l-5.27,10.82Z" fill="#ff8c12"/>
      <path d="M135.5,1063.8l1.45-18.75,1.89-36.62.8-25.93c.05-2.78.07-5.57.07-8.35,0-2.1-.02-5.54-.07-10.33,6.45.15,11.62.22,15.53.22s8.91-.11,15.46-.33c6.54-.22,12.09-.33,16.63-.33,6.54,0,11.39.42,14.54,1.25,3.15.83,5.99,2.14,8.54,3.92,2.54,1.78,4.64,3.87,6.3,6.26,1.66,2.39,2.91,5.12,3.74,8.17.83,3.05,1.25,6.17,1.25,9.34,0,6.54-1.59,12.52-4.76,17.94-3.17,5.42-7.64,9.47-13.4,12.16-5.76,2.69-12.23,4.03-19.41,4.03-2.64,0-5.69-.29-9.16-.88-.39-2.25-1.12-5.59-2.2-10.03-1.07-4.44-1.95-7.74-2.64-9.89,2.15.44,4.39.66,6.74.66,4.93,0,8.61-1.18,11.02-3.55,2.42-2.37,3.63-5.26,3.63-8.68,0-1.66-.27-3.14-.81-4.43-.54-1.29-1.39-2.35-2.56-3.19-1.17-.83-2.47-1.37-3.88-1.61-1.42-.24-3.03-.37-4.83-.37s-3.59.05-5.49.15l-6.15.44c-.63,9.42-1.11,19.9-1.45,31.42-.63,21-.94,33.59-.94,37.79v9.52l-14.59-.15c-2.05,0-7.14.05-15.25.15Z" fill="#ff8c12"/>
      <path d="M231.23,1063.8l1.45-18.75,1.89-36.62.8-25.93c.05-2.78.07-5.57.07-8.35,0-2.1-.02-5.54-.07-10.33,6.45.15,11.62.22,15.53.22s8.91-.11,15.46-.33c6.54-.22,12.09-.33,16.63-.33,6.54,0,11.39.42,14.54,1.25,3.15.83,5.99,2.14,8.54,3.92,2.54,1.78,4.64,3.87,6.3,6.26,1.66,2.39,2.91,5.12,3.74,8.17.83,3.05,1.25,6.17,1.25,9.34,0,6.54-1.59,12.52-4.76,17.94-3.17,5.42-7.64,9.47-13.4,12.16-5.76,2.69-12.23,4.03-19.41,4.03-2.64,0-5.69-.29-9.16-.88-.39-2.25-1.12-5.59-2.2-10.03-1.07-4.44-1.95-7.74-2.64-9.89,2.15.44,4.39.66,6.74.66,4.93,0,8.61-1.18,11.02-3.55,2.42-2.37,3.63-5.26,3.63-8.68,0-1.66-.27-3.14-.81-4.43-.54-1.29-1.39-2.35-2.56-3.19-1.17-.83-2.47-1.37-3.88-1.61-1.42-.24-3.03-.37-4.83-.37s-3.59.05-5.49.15l-6.15.44c-.63,9.42-1.11,19.9-1.45,31.42-.63,21-.94,33.59-.94,37.79v9.52l-14.59-.15c-2.05,0-7.14.05-15.25.15Z" fill="#ff8c12"/>
      <path d="M325.93,1063.8c1.23-11.52,2.11-20.92,2.65-28.2,1.03-13.28,1.8-26.48,2.32-39.59.51-13.11.77-23.84.77-32.19,6.64.1,12.51.15,17.64.15,3.46,0,8.44-.05,14.93-.15l-1.76,26.51-2.21,41.46-.29,10.18c8.4.15,13.87.22,16.41.22,12.85,0,22.57-.17,29.16-.51l-1.61,22.12c-12.84-.1-25.07-.15-36.69-.15-15.72,0-29.49.05-41.31.15Z" fill="#ff8c12"/>
      <path d="M435.72,1063.8c.49-3.96,1.07-10.67,1.76-20.14.68-9.47,1.03-16.16,1.03-20.07l-33.54-59.77c7.37.1,13.44.15,18.22.15s10.08-.05,16.47-.15c1.95,4.88,4.6,10.7,7.94,17.46,3.34,6.76,6.07,12.8,8.17,18.12,5.61-9.91,10.13-17.63,13.54-23.17,3.42-5.54,5.86-9.68,7.32-12.41,6.21.1,12.17.15,17.89.15,3.03,0,8.53-.05,16.5-.15l-32.15,47.39c-6.4,9.47-9.59,14.43-9.59,14.87l-.07.73v.73l-.07.73-.51,11.13c-.34,7.37-.61,15.5-.8,24.39-6.89-.1-12.21-.15-15.97-.15s-9.23.05-16.12.15Z" fill="#ff8c12"/>
    </g>
  </g>
</svg>