<?xml version="1.0" encoding="UTF-8"?>
<svg id="Layer_2" data-name="Layer 2" xmlns="http://www.w3.org/2000/svg" viewBox="0 0 544.66 2552.84">
  <g id="Layer_1-2" data-name="Layer 1">
    <g>
      <rect x="-9.14" y="2491.08" width="129.96" height="11.2" transform="translate(-1749.06 770.74) rotate(-45)" fill="#ff8c12"/>
      <rect x="132.66" y="2349.27" width="129.96" height="11.2" transform="translate(-1607.26 829.48) rotate(-45)" fill="#ff8c12"/>
      <rect x="-5.18" y="2353.23" width="129.96" height="11.2" transform="translate(1685.46 648.6) rotate(45)" fill="#ff8c12"/>
      <rect x="136.62" y="2495.04" width="129.96" height="11.2" transform="translate(1827.27 589.86) rotate(45)" fill="#ff8c12"/>
      <rect x="-9.14" y="2157.21" width="129.96" height="11.2" transform="translate(-1512.98 672.96) rotate(-45)" fill="#ff8c12"/>
      <rect x="132.66" y="2015.4" width="129.96" height="11.2" transform="translate(-1371.18 731.69) rotate(-45)" fill="#ff8c12"/>
      <rect x="-5.18" y="2019.36" width="129.96" height="11.2" transform="translate(1449.38 550.81) rotate(45)" fill="#ff8c12"/>
      <rect x="136.62" y="2161.17" width="129.96" height="11.2" transform="translate(1591.19 492.08) rotate(45)" fill="#ff8c12"/>
      <rect x="-10.76" y="1819.38" width="129.96" height="11.2" transform="translate(-1274.57 572.86) rotate(-45)" fill="#ff8c12"/>
      <rect x="131.04" y="1677.57" width="129.96" height="11.2" transform="translate(-1132.77 631.6) rotate(-45)" fill="#ff8c12"/>
      <rect x="-6.8" y="1681.53" width="129.96" height="11.2" transform="translate(1210.03 453.01) rotate(45)" fill="#ff8c12"/>
      <rect x="135" y="1823.34" width="129.96" height="11.2" transform="translate(1351.83 394.27) rotate(45)" fill="#ff8c12"/>
      <rect x="-10.76" y="1485.51" width="129.96" height="11.2" transform="translate(-1038.49 475.07) rotate(-45)" fill="#ff8c12"/>
      <rect x="131.04" y="1343.7" width="129.96" height="11.2" transform="translate(-896.69 533.81) rotate(-45)" fill="#ff8c12"/>
      <rect x="-6.8" y="1347.66" width="129.96" height="11.2" transform="translate(973.94 355.22) rotate(45)" fill="#ff8c12"/>
      <rect x="135" y="1489.47" width="129.96" height="11.2" transform="translate(1115.75 296.49) rotate(45)" fill="#ff8c12"/>
      <rect x="284.01" y="2493.37" width="129.96" height="11.2" transform="translate(-1664.83 978.7) rotate(-45)" fill="#ff8c12"/>
      <rect x="425.81" y="2351.57" width="129.96" height="11.2" transform="translate(-1523.02 1037.44) rotate(-45)" fill="#ff8c12"/>
      <rect x="287.97" y="2355.53" width="129.96" height="11.2" transform="translate(1772.95 441.99) rotate(45)" fill="#ff8c12"/>
      <rect x="429.77" y="2497.33" width="129.96" height="11.2" transform="translate(1914.75 383.25) rotate(45)" fill="#ff8c12"/>
      <rect x="284.01" y="2159.5" width="129.96" height="11.2" transform="translate(-1428.74 880.92) rotate(-45)" fill="#ff8c12"/>
      <rect x="425.81" y="2017.7" width="129.96" height="11.2" transform="translate(-1286.94 939.65) rotate(-45)" fill="#ff8c12"/>
      <rect x="287.97" y="2021.66" width="129.96" height="11.2" transform="translate(1536.87 344.2) rotate(45)" fill="#ff8c12"/>
      <rect x="429.77" y="2163.46" width="129.96" height="11.2" transform="translate(1678.67 285.46) rotate(45)" fill="#ff8c12"/>
      <rect x="282.39" y="1821.67" width="129.96" height="11.2" transform="translate(-1190.34 780.82) rotate(-45)" fill="#ff8c12"/>
      <rect x="424.19" y="1679.87" width="129.96" height="11.2" transform="translate(-1048.53 839.56) rotate(-45)" fill="#ff8c12"/>
      <rect x="286.35" y="1683.83" width="129.96" height="11.2" transform="translate(1297.51 246.4) rotate(45)" fill="#ff8c12"/>
      <rect x="428.15" y="1825.63" width="129.96" height="11.2" transform="translate(1439.31 187.66) rotate(45)" fill="#ff8c12"/>
      <rect x="282.39" y="1487.8" width="129.96" height="11.2" transform="translate(-954.25 683.03) rotate(-45)" fill="#ff8c12"/>
      <rect x="424.19" y="1346" width="129.96" height="11.2" transform="translate(-812.45 741.77) rotate(-45)" fill="#ff8c12"/>
      <rect x="286.35" y="1349.96" width="129.96" height="11.2" transform="translate(1061.43 148.61) rotate(45)" fill="#ff8c12"/>
      <rect x="428.15" y="1491.76" width="129.96" height="11.2" transform="translate(1203.23 89.87) rotate(45)" fill="#ff8c12"/>
      <rect x="-13.45" y="1191.68" width="129.96" height="11.2" transform="translate(-831.51 387.11) rotate(-45)" fill="#ff8c12"/>
      <rect x="128.35" y="1049.88" width="129.96" height="11.2" transform="translate(-689.71 445.85) rotate(-45)" fill="#ff8c12"/>
      <rect x="-9.49" y="1053.84" width="129.96" height="11.2" transform="translate(765.39 271.07) rotate(45)" fill="#ff8c12"/>
      <rect x="132.31" y="1195.64" width="129.96" height="11.2" transform="translate(907.19 212.33) rotate(45)" fill="#ff8c12"/>
      <rect x="-13.45" y="857.81" width="129.96" height="11.2" transform="translate(-595.43 289.32) rotate(-45)" fill="#ff8c12"/>
      <rect x="128.35" y="716.01" width="129.96" height="11.2" transform="translate(-453.63 348.06) rotate(-45)" fill="#ff8c12"/>
      <rect x="-9.49" y="719.97" width="129.96" height="11.2" transform="translate(529.31 173.28) rotate(45)" fill="#ff8c12"/>
      <rect x="132.31" y="861.77" width="129.96" height="11.2" transform="translate(671.11 114.54) rotate(45)" fill="#ff8c12"/>
      <rect x="-15.07" y="519.98" width="129.96" height="11.2" transform="translate(-357.02 189.23) rotate(-45)" fill="#ff8c12"/>
      <rect x="126.73" y="378.18" width="129.96" height="11.2" transform="translate(-215.22 247.97) rotate(-45)" fill="#ff8c12"/>
      <rect x="-11.11" y="382.14" width="129.96" height="11.2" transform="translate(289.95 75.47) rotate(45)" fill="#ff8c12"/>
      <rect x="130.69" y="523.94" width="129.96" height="11.2" transform="translate(431.75 16.74) rotate(45)" fill="#ff8c12"/>
      <rect x="-15.07" y="186.11" width="129.96" height="11.2" transform="translate(-120.94 91.44) rotate(-45)" fill="#ff8c12"/>
      <rect x="126.73" y="44.31" width="129.96" height="11.2" transform="translate(20.86 150.18) rotate(-45)" fill="#ff8c12"/>
      <rect x="-11.11" y="48.27" width="129.96" height="11.2" transform="translate(53.87 -22.31) rotate(45)" fill="#ff8c12"/>
      <rect x="130.69" y="190.07" width="129.96" height="11.2" transform="translate(195.67 -81.05) rotate(45)" fill="#ff8c12"/>
      <rect x="279.7" y="1193.98" width="129.96" height="11.2" transform="translate(-747.28 595.07) rotate(-45)" fill="#ff8c12"/>
      <rect x="421.5" y="1052.17" width="129.96" height="11.2" transform="translate(-605.47 653.81) rotate(-45)" fill="#ff8c12"/>
      <rect x="283.66" y="1056.13" width="129.96" height="11.2" transform="translate(852.87 64.45) rotate(45)" fill="#ff8c12"/>
      <rect x="425.46" y="1197.94" width="129.96" height="11.2" transform="translate(994.68 5.71) rotate(45)" fill="#ff8c12"/>
      <rect x="279.7" y="860.11" width="129.96" height="11.2" transform="translate(-511.2 497.28) rotate(-45)" fill="#ff8c12"/>
      <rect x="421.5" y="718.3" width="129.96" height="11.2" transform="translate(-369.39 556.02) rotate(-45)" fill="#ff8c12"/>
      <rect x="283.66" y="722.27" width="129.96" height="11.2" transform="translate(616.79 -33.34) rotate(45)" fill="#ff8c12"/>
      <rect x="425.46" y="864.07" width="129.96" height="11.2" transform="translate(758.6 -92.07) rotate(45)" fill="#ff8c12"/>
      <rect x="278.08" y="522.28" width="129.96" height="11.2" transform="translate(-272.79 397.19) rotate(-45)" fill="#ff8c12"/>
      <rect x="419.88" y="380.47" width="129.96" height="11.2" transform="translate(-130.98 455.93) rotate(-45)" fill="#ff8c12"/>
      <rect x="282.04" y="384.43" width="129.96" height="11.2" transform="translate(377.44 -131.14) rotate(45)" fill="#ff8c12"/>
      <rect x="423.84" y="526.24" width="129.96" height="11.2" transform="translate(519.24 -189.88) rotate(45)" fill="#ff8c12"/>
      <rect x="278.08" y="188.41" width="129.96" height="11.2" transform="translate(-36.71 299.4) rotate(-45)" fill="#ff8c12"/>
      <rect x="419.88" y="46.6" width="129.96" height="11.2" transform="translate(105.1 358.14) rotate(-45)" fill="#ff8c12"/>
      <rect x="282.04" y="50.56" width="129.96" height="11.2" transform="translate(141.35 -228.93) rotate(45)" fill="#ff8c12"/>
      <rect x="423.84" y="192.37" width="129.96" height="11.2" transform="translate(283.16 -287.66) rotate(45)" fill="#ff8c12"/>
    </g>
  </g>
</svg>