<?xml version="1.0" encoding="UTF-8"?>
<svg id="Layer_2" data-name="Layer 2" xmlns="http://www.w3.org/2000/svg" viewBox="0 0 395.33 2550.55">
  <g id="Layer_1-2" data-name="Layer 1">
    <rect x="-9.13" y="2491.08" width="129.96" height="11.2" transform="translate(-1749.06 770.75) rotate(-45)" fill="#ff8c12"/>
    <rect x="132.68" y="2349.27" width="129.96" height="11.2" transform="translate(-1607.26 829.49) rotate(-45)" fill="#ff8c12"/>
    <rect x="-5.16" y="2353.23" width="129.96" height="11.2" transform="translate(1685.47 648.59) rotate(45)" fill="#ff8c12"/>
    <rect x="136.64" y="2495.04" width="129.96" height="11.2" transform="translate(1827.27 589.85) rotate(45)" fill="#ff8c12"/>
    <rect x="-9.13" y="2157.21" width="129.96" height="11.2" transform="translate(-1512.98 672.97) rotate(-45)" fill="#ff8c12"/>
    <rect x="132.68" y="2015.4" width="129.96" height="11.2" transform="translate(-1371.17 731.7) rotate(-45)" fill="#ff8c12"/>
    <rect x="-5.16" y="2019.36" width="129.96" height="11.2" transform="translate(1449.39 550.8) rotate(45)" fill="#ff8c12"/>
    <rect x="136.64" y="2161.17" width="129.96" height="11.2" transform="translate(1591.19 492.07) rotate(45)" fill="#ff8c12"/>
    <rect x="-10.75" y="1819.38" width="129.96" height="11.2" transform="translate(-1274.57 572.87) rotate(-45)" fill="#ff8c12"/>
    <rect x="131.06" y="1677.57" width="129.96" height="11.2" transform="translate(-1132.77 631.61) rotate(-45)" fill="#ff8c12"/>
    <rect x="-6.78" y="1681.53" width="129.96" height="11.2" transform="translate(1210.03 453) rotate(45)" fill="#ff8c12"/>
    <rect x="135.02" y="1823.34" width="129.96" height="11.2" transform="translate(1351.83 394.26) rotate(45)" fill="#ff8c12"/>
    <rect x="-10.75" y="1485.51" width="129.96" height="11.2" transform="translate(-1038.49 475.08) rotate(-45)" fill="#ff8c12"/>
    <rect x="131.06" y="1343.7" width="129.96" height="11.2" transform="translate(-896.68 533.82) rotate(-45)" fill="#ff8c12"/>
    <rect x="-6.78" y="1347.66" width="129.96" height="11.2" transform="translate(973.95 355.21) rotate(45)" fill="#ff8c12"/>
    <rect x="135.02" y="1489.47" width="129.96" height="11.2" transform="translate(1115.75 296.48) rotate(45)" fill="#ff8c12"/>
    <rect x="-13.44" y="1191.68" width="129.96" height="11.2" transform="translate(-831.51 387.12) rotate(-45)" fill="#ff8c12"/>
    <rect x="128.37" y="1049.88" width="129.96" height="11.2" transform="translate(-689.71 445.86) rotate(-45)" fill="#ff8c12"/>
    <rect x="-9.48" y="1053.84" width="129.96" height="11.2" transform="translate(765.39 271.06) rotate(45)" fill="#ff8c12"/>
    <rect x="132.33" y="1195.64" width="129.96" height="11.2" transform="translate(907.2 212.32) rotate(45)" fill="#ff8c12"/>
    <rect x="-13.44" y="857.81" width="129.96" height="11.2" transform="translate(-595.43 289.33) rotate(-45)" fill="#ff8c12"/>
    <rect x="128.37" y="716.01" width="129.96" height="11.2" transform="translate(-453.62 348.07) rotate(-45)" fill="#ff8c12"/>
    <rect x="-9.48" y="719.97" width="129.96" height="11.2" transform="translate(529.31 173.27) rotate(45)" fill="#ff8c12"/>
    <rect x="132.33" y="861.77" width="129.96" height="11.2" transform="translate(671.12 114.53) rotate(45)" fill="#ff8c12"/>
    <rect x="-15.06" y="519.98" width="129.96" height="11.2" transform="translate(-357.02 189.24) rotate(-45)" fill="#ff8c12"/>
    <rect x="126.75" y="378.18" width="129.96" height="11.2" transform="translate(-215.22 247.98) rotate(-45)" fill="#ff8c12"/>
    <rect x="-11.1" y="382.14" width="129.96" height="11.2" transform="translate(289.96 75.46) rotate(45)" fill="#ff8c12"/>
    <rect x="130.71" y="523.94" width="129.96" height="11.2" transform="translate(431.76 16.73) rotate(45)" fill="#ff8c12"/>
    <rect x="-15.06" y="186.11" width="129.96" height="11.2" transform="translate(-120.94 91.45) rotate(-45)" fill="#ff8c12"/>
    <rect x="126.75" y="44.31" width="129.96" height="11.2" transform="translate(20.86 150.19) rotate(-45)" fill="#ff8c12"/>
    <rect x="-11.1" y="48.27" width="129.96" height="11.2" transform="translate(53.87 -22.32) rotate(45)" fill="#ff8c12"/>
    <rect x="130.71" y="190.07" width="129.96" height="11.2" transform="translate(195.68 -81.06) rotate(45)" fill="#ff8c12"/>
    <path d="M389.34,155.66l-88.26,88.26-7.92-7.92,91.89-91.9,4.29,4.29v7.27Z" fill="#ff8c12"/>
    <path d="M389.02,106.07L297.12,14.18l7.92-7.92,84.33,84.33c0,5.05,0,10.1-.01,15.14l-.34.34Z" fill="#ff8c12"/>
    <rect x="-15.07" y="519.97" width="129.96" height="11.2" transform="translate(-357.02 189.23) rotate(-45)" fill="#ff8c12"/>
    <rect x="126.73" y="378.17" width="129.96" height="11.2" transform="translate(-215.22 247.97) rotate(-45)" fill="#ff8c12"/>
    <rect x="-11.11" y="382.13" width="129.96" height="11.2" transform="translate(289.95 75.47) rotate(45)" fill="#ff8c12"/>
    <rect x="130.69" y="523.94" width="129.96" height="11.2" transform="translate(431.75 16.74) rotate(45)" fill="#ff8c12"/>
    <path d="M389.33,489.53l-88.26,88.26-7.92-7.92,91.89-91.9,4.29,4.29v7.27Z" fill="#ff8c12"/>
    <path d="M389,439.94l-91.9-91.89,7.92-7.92,84.33,84.33c0,5.05,0,10.1-.01,15.14l-.34.34Z" fill="#ff8c12"/>
    <rect x="-13.39" y="857.82" width="129.96" height="11.2" transform="translate(-595.42 289.37) rotate(-45)" fill="#ff8c12"/>
    <rect x="128.41" y="716.01" width="129.96" height="11.2" transform="translate(-453.62 348.1) rotate(-45)" fill="#ff8c12"/>
    <rect x="-9.43" y="719.98" width="129.96" height="11.2" transform="translate(529.33 173.24) rotate(45)" fill="#ff8c12"/>
    <rect x="132.37" y="861.78" width="129.96" height="11.2" transform="translate(671.13 114.5) rotate(45)" fill="#ff8c12"/>
    <path d="M391.01,827.37l-88.26,88.26-7.92-7.92,91.89-91.9,4.29,4.29v7.27Z" fill="#ff8c12"/>
    <path d="M390.68,777.78l-91.9-91.89,7.92-7.92,84.33,84.33c0,5.05,0,10.1-.01,15.14l-.34.34Z" fill="#ff8c12"/>
    <rect x="-13.55" y="1191.6" width="129.96" height="11.2" transform="translate(-831.49 387.01) rotate(-45)" fill="#ff8c12"/>
    <rect x="128.25" y="1049.8" width="129.96" height="11.2" transform="translate(-689.68 445.75) rotate(-45)" fill="#ff8c12"/>
    <rect x="-9.59" y="1053.76" width="129.96" height="11.2" transform="translate(765.3 271.12) rotate(45)" fill="#ff8c12"/>
    <rect x="132.21" y="1195.56" width="129.96" height="11.2" transform="translate(907.11 212.38) rotate(45)" fill="#ff8c12"/>
    <path d="M390.84,1161.15l-88.26,88.26-7.92-7.92,91.89-91.9,4.29,4.29v7.27Z" fill="#ff8c12"/>
    <path d="M390.52,1111.56l-91.9-91.89,7.92-7.92,84.33,84.33c0,5.05,0,10.1-.01,15.14l-.34.34Z" fill="#ff8c12"/>
    <rect x="-9.15" y="2491.06" width="129.96" height="11.2" transform="translate(-1749.06 770.73) rotate(-45)" fill="#ff8c12"/>
    <rect x="132.65" y="2349.26" width="129.96" height="11.2" transform="translate(-1607.25 829.47) rotate(-45)" fill="#ff8c12"/>
    <rect x="-5.19" y="2353.22" width="129.96" height="11.2" transform="translate(1685.45 648.6) rotate(45)" fill="#ff8c12"/>
    <rect x="136.62" y="2495.03" width="129.96" height="11.2" transform="translate(1827.26 589.87) rotate(45)" fill="#ff8c12"/>
    <rect x="-9.15" y="2157.19" width="129.96" height="11.2" transform="translate(-1512.98 672.95) rotate(-45)" fill="#ff8c12"/>
    <rect x="132.65" y="2015.39" width="129.96" height="11.2" transform="translate(-1371.17 731.68) rotate(-45)" fill="#ff8c12"/>
    <rect x="-5.19" y="2019.35" width="129.96" height="11.2" transform="translate(1449.37 550.82) rotate(45)" fill="#ff8c12"/>
    <rect x="136.62" y="2161.16" width="129.96" height="11.2" transform="translate(1591.17 492.08) rotate(45)" fill="#ff8c12"/>
    <rect x="-10.77" y="1819.36" width="129.96" height="11.2" transform="translate(-1274.57 572.85) rotate(-45)" fill="#ff8c12"/>
    <rect x="131.03" y="1677.56" width="129.96" height="11.2" transform="translate(-1132.76 631.59) rotate(-45)" fill="#ff8c12"/>
    <rect x="-6.81" y="1681.52" width="129.96" height="11.2" transform="translate(1210.01 453.01) rotate(45)" fill="#ff8c12"/>
    <rect x="135" y="1823.32" width="129.96" height="11.2" transform="translate(1351.82 394.28) rotate(45)" fill="#ff8c12"/>
    <rect x="-10.77" y="1485.49" width="129.96" height="11.2" transform="translate(-1038.49 475.06) rotate(-45)" fill="#ff8c12"/>
    <rect x="131.03" y="1343.69" width="129.96" height="11.2" transform="translate(-896.68 533.8) rotate(-45)" fill="#ff8c12"/>
    <rect x="-6.81" y="1347.65" width="129.96" height="11.2" transform="translate(973.93 355.23) rotate(45)" fill="#ff8c12"/>
    <rect x="135" y="1489.46" width="129.96" height="11.2" transform="translate(1115.74 296.49) rotate(45)" fill="#ff8c12"/>
    <path d="M393.63,1455.04l-88.26,88.26-7.92-7.92,91.89-91.9,4.29,4.29v7.27Z" fill="#ff8c12"/>
    <path d="M393.31,1405.46l-91.9-91.89,7.92-7.92,84.33,84.33c0,5.05,0,10.1-.01,15.14l-.34.34Z" fill="#ff8c12"/>
    <rect x="-10.78" y="1819.36" width="129.96" height="11.2" transform="translate(-1274.57 572.84) rotate(-45)" fill="#ff8c12"/>
    <rect x="131.02" y="1677.56" width="129.96" height="11.2" transform="translate(-1132.77 631.58) rotate(-45)" fill="#ff8c12"/>
    <rect x="-6.82" y="1681.52" width="129.96" height="11.2" transform="translate(1210.01 453.02) rotate(45)" fill="#ff8c12"/>
    <rect x="134.98" y="1823.32" width="129.96" height="11.2" transform="translate(1351.81 394.29) rotate(45)" fill="#ff8c12"/>
    <path d="M393.62,1788.91l-88.26,88.26-7.92-7.92,91.89-91.9,4.29,4.29v7.27Z" fill="#ff8c12"/>
    <path d="M393.29,1739.32l-91.9-91.89,7.92-7.92,84.33,84.33c0,5.05,0,10.1-.01,15.14l-.34.34Z" fill="#ff8c12"/>
    <rect x="-9.1" y="2157.2" width="129.96" height="11.2" transform="translate(-1512.97 672.98) rotate(-45)" fill="#ff8c12"/>
    <rect x="132.7" y="2015.4" width="129.96" height="11.2" transform="translate(-1371.16 731.72) rotate(-45)" fill="#ff8c12"/>
    <rect x="-5.14" y="2019.36" width="129.96" height="11.2" transform="translate(1449.39 550.79) rotate(45)" fill="#ff8c12"/>
    <rect x="136.66" y="2161.16" width="129.96" height="11.2" transform="translate(1591.19 492.05) rotate(45)" fill="#ff8c12"/>
    <path d="M395.29,2126.75l-88.26,88.26-7.92-7.92,91.89-91.9,4.29,4.29v7.27Z" fill="#ff8c12"/>
    <path d="M394.97,2077.17l-91.9-91.89,7.92-7.92,84.33,84.33c0,5.05,0,10.1-.01,15.14l-.34.34Z" fill="#ff8c12"/>
    <rect x="-9.27" y="2490.98" width="129.96" height="11.2" transform="translate(-1749.03 770.63) rotate(-45)" fill="#ff8c12"/>
    <rect x="132.54" y="2349.18" width="129.96" height="11.2" transform="translate(-1607.23 829.36) rotate(-45)" fill="#ff8c12"/>
    <rect x="-5.31" y="2353.14" width="129.96" height="11.2" transform="translate(1685.36 648.66) rotate(45)" fill="#ff8c12"/>
    <rect x="136.5" y="2494.94" width="129.96" height="11.2" transform="translate(1827.16 589.93) rotate(45)" fill="#ff8c12"/>
    <path d="M395.13,2460.53l-88.26,88.26-7.92-7.92,91.89-91.9,4.29,4.29v7.27Z" fill="#ff8c12"/>
    <path d="M394.81,2410.95l-91.9-91.89,7.92-7.92,84.33,84.33c0,5.05,0,10.1-.01,15.14l-.34.34Z" fill="#ff8c12"/>
  </g>
</svg>