<?xml version="1.0" encoding="UTF-8"?>
<svg id="Layer_2" data-name="Layer 2" xmlns="http://www.w3.org/2000/svg" viewBox="0 0 3754.6 4803.31">
  <g id="Layer_1-2" data-name="Layer 1">
    <g>
      <g opacity=".8">
        <path d="M3704.66,136.6c-12.93,23.83-25.19,47.66-37.33,71.23-12.13,23.57-24.03,46.95-35.74,70.16-2.92,5.81-5.83,11.6-8.74,17.38-1.45,2.89-2.9,5.78-4.34,8.67-1.42,2.9-2.84,5.8-4.26,8.7-5.63,11.6-11.24,23.16-16.83,34.68-11.13,23.06-22.09,46-32.89,68.88-5.38,11.45-10.74,22.87-16.09,34.27-5.22,11.47-10.42,22.92-15.62,34.35-10.35,22.88-20.58,45.74-30.7,68.61-5.04,11.45-10.08,22.89-15.12,34.33-2.52,5.72-4.99,11.46-7.44,17.23l-7.35,17.28c-9.78,23.05-19.49,46.17-29.14,69.4-7.72,17.93-15.54,35.67-23.4,53.3-7.76,17.68-15.59,35.23-23.5,52.65-7.9,17.42-15.87,34.73-23.91,51.94-8.1,17.19-16.17,34.32-24.22,51.41-32.19,68.43-65.53,135.59-98.78,203.51-8.37,16.95-16.76,33.93-25.16,50.95-4.21,8.51-8.43,17.04-12.65,25.57-4.19,8.56-8.38,17.13-12.58,25.72-16.8,34.36-33.71,68.99-50.68,104.07-8.52,17.52-16.88,35.26-25.34,53.08-8.44,17.83-16.89,35.8-25.34,53.92-8.45,18.13-16.91,36.4-25.35,54.88-8.39,18.5-16.78,37.19-25.16,56.07-67.96,149.09-126.47,288.91-187.68,436.56-68.92,145.7-139.23,299.68-209.7,459.57-70.47,159.89-140.95,325.75-210.59,495.23-4.33,8.87-10.75,22.06-17.51,36.84-6.81,14.77-13.94,31.13-19.62,46.39-11.36,30.52-16.9,56.64-2.33,56.71-9.5,20.13-18.99,40.22-28.45,60.27-9.55,20.03-19.07,40.03-28.59,59.99-19.03,39.92-37.88,79.75-56.95,119.38-18.9,39.68-37.75,79.26-56.55,118.73-18.87,39.46-37.53,78.88-55.94,118.3-74.11,157.54-145.58,314.6-211.29,474.19-29.26,66.29-64.49,131.5-100.91,196.13-9.01,16.2-18.02,32.39-27.01,48.57-8.88,16.23-17.75,32.44-26.59,48.61-17.59,32.39-34.39,64.94-49.6,97.85-2.96,6.75-5.95,13.49-8.98,20.2-1.52,3.35-3.02,6.72-4.57,10.05l-4.7,9.99c-6.29,13.3-12.69,26.53-19.19,39.69-3.29,6.61-6.59,13.22-9.88,19.83-4.74,9.4-9.48,18.8-14.22,28.19-4.77,9.35-9.54,18.69-14.31,28.03-4.84,9.23-9.67,18.46-14.5,27.68l-7.26,13.76c-2.43,4.57-4.83,9.19-7.3,13.62-4.92,8.92-9.84,17.83-14.76,26.74-9.84,17.75-19.65,35.34-29.43,52.76-19.55,34.84-38.92,68.98-57.99,102.46l-3.57,6.27-.22.39-.11.2c-.03.12-.11-.06-.17-.07l-.74-.64-1.48-1.29-2.96-2.57-11.82-10.27c-7.83-6.81-15.66-13.62-23.49-20.42-7.77-6.76-15.54-13.51-23.3-20.26-7.72-6.73-15.5-13.4-23.02-20.12-15.03-13.29-30.06-26.57-45.08-39.84-7.44-6.55-14.87-13.09-22.3-19.63-1.86-1.6-3.69-3.3-5.52-4.99l-5.48-5.04-10.94-10.04c-14.57-13.35-29.07-26.57-43.54-39.67l-10.84-9.8-10.7-9.99c-3.59-3.31-7.08-6.67-10.6-10l-10.15-9.61c-10.59-10.1-21.28-20.08-31.96-30.07-10.52-10.14-21.11-20.2-31.78-30.17-6.55-4.9-15.27-10.95-24.9-17.67-9.5-6.84-19.94-14.32-30.15-21.82-10.21-7.5-20.18-15.03-28.74-21.98-8.44-7.04-15.42-13.53-19.84-18.75-6.39-7.85-12.8-15.63-19.25-23.35-3.23-3.85-6.46-7.69-9.69-11.53l-2.43-2.87-2.38-2.9-4.77-5.79c-12.73-15.41-25.58-30.57-38.53-45.51-6.4-7.52-12.8-15.03-19.18-22.53-6.4-7.47-12.83-14.89-19.28-22.26-13.01-14.66-25.64-29.51-38.52-44.07-6.43-7.29-12.88-14.54-19.35-21.75l-4.85-5.41-4.78-5.46c-3.2-3.63-6.39-7.25-9.58-10.87-6.4-7.23-12.82-14.42-19.26-21.58-3.23-3.58-6.45-7.15-9.68-10.72-3.23-3.57-6.48-7.11-9.64-10.72-12.74-14.37-25.55-28.62-38.43-42.78-3.21-3.55-6.47-7.05-9.64-10.62-3.18-3.56-6.36-7.12-9.53-10.68-6.38-7.1-12.76-14.19-19.13-21.28-6.41-7.06-12.81-14.12-19.21-21.17-6.33-7.1-12.66-14.19-18.99-21.28-6.35-7.08-12.69-14.15-19.03-21.21-6.34-7.07-12.76-14.08-18.99-21.22-12.58-14.21-25.14-28.4-37.69-42.58-6.33-7.06-12.48-14.24-18.69-21.38l-18.61-21.44-18.6-21.46-18.33-21.65-18.3-21.69c-6.09-7.24-12.21-14.47-18.18-21.8-12-14.62-23.96-29.28-35.88-44.02-6-7.35-11.8-14.81-17.67-22.24-5.83-7.46-11.67-14.92-17.51-22.39-35.69-47.67-67.28-89.94-97.69-132.2-7.66-10.54-15.08-21.16-22.54-31.83-7.45-10.68-14.87-21.44-22.3-32.37-1.85-2.74-3.71-5.48-5.58-8.23-1.83-2.77-3.68-5.55-5.52-8.33-3.66-5.59-7.36-11.23-11.08-16.92-7.41-11.4-14.86-23.06-22.4-35.08-15.49-2.31-28.52-26.26-49.25-51.27-5.87-9.06-14.43-23.62-25.15-42.18-5.35-9.28-11.22-19.57-17.5-30.69-6.19-11.16-12.83-23.13-19.82-35.73-27.88-50.47-60.32-111.54-91.43-171.73C61.2,3012.13,4.64,2895.28.03,2872.71c-1.1-5.62,28.95,41.18,75,114.26,46.08,73.05,108.14,172.41,171.75,271.27,7.97,12.35,15.94,24.7,23.88,37,3.98,6.15,7.94,12.28,11.9,18.4,3.99,6.1,7.96,12.19,11.92,18.25,7.93,12.11,15.79,24.13,23.55,36,7.77,11.87,15.57,23.52,23.18,35,7.63,11.47,15.14,22.74,22.48,33.77,7.43,10.98,14.7,21.71,21.76,32.14,7.09,10.42,13.98,20.54,20.63,30.32,6.75,9.72,13.26,19.1,19.51,28.09,24.91,35.97,46.25,65.21,61.09,84.96,7.41,9.88,13.42,17.27,17.5,21.91,4.09,4.64,6.33,6.48,6.45,5.15-.37-1.4-2.06-4.65-4.93-9.52-2.85-4.88-6.93-11.33-11.88-19.27-9.92-15.86-23.9-37.27-40.42-62.58-32.97-50.67-76.12-116.91-119.17-184.32-43.01-67.43-85.95-135.98-119.7-190.65-16.79-27.37-31.41-51.21-42.51-69.75-11.09-18.54-18.78-31.72-21.87-37.69,39.87,57.85,78.3,112.84,115.06,165.15,36.92,52.23,72.16,101.79,106.15,148.56,67.85,93.62,129.99,176.43,186.56,249.33,7.07,9.11,14.03,18.08,20.89,26.92,6.93,8.78,13.76,17.42,20.48,25.93,6.72,8.5,13.33,16.87,19.84,25.1,3.24,4.13,6.51,8.18,9.76,12.2,3.24,4.02,6.46,8,9.65,11.96,6.38,7.9,12.66,15.67,18.83,23.32,6.19,7.63,12.2,15.18,18.28,22.47,12.09,14.63,23.77,28.75,35.03,42.38,5.6,6.83,11.22,13.45,16.74,19.94,5.51,6.5,10.91,12.88,16.22,19.13,10.64,12.49,20.73,24.59,30.75,35.97,9.96,11.42,19.51,22.39,28.67,32.9,4.6,5.24,9.03,10.41,13.49,15.38,4.45,4.97,8.81,9.82,13.07,14.57,33.89,38.12,62.43,68.45,85.11,92.66,23.06,23.9,40.32,41.63,52.61,53.74,24.81,24.01,28.92,26.27,17.29,12.14-2.91-3.53-6.8-8.09-11.61-13.59-1.2-1.37-2.46-2.81-3.77-4.3-1.29-1.51-2.64-3.08-4.04-4.71-2.81-3.25-5.82-6.73-9.03-10.44-6.44-7.4-13.69-15.68-21.7-24.74-4.01-4.53-8.2-9.26-12.56-14.18-4.31-4.97-8.78-10.14-13.41-15.48-9.3-10.68-19.23-22.1-29.73-34.16-5.3-6-10.6-12.27-16.06-18.67-5.47-6.4-11.06-12.95-16.78-19.65-5.73-6.69-11.58-13.52-17.55-20.49-3-3.47-5.96-7.03-8.96-10.61-3-3.58-6.02-7.19-9.07-10.83-6.11-7.28-12.32-14.69-18.63-22.2-3.16-3.76-6.34-7.54-9.54-11.35-1.6-1.91-3.21-3.82-4.82-5.74-1.59-1.94-3.19-3.88-4.79-5.83-51.6-62.07-107.43-131.64-163.18-202.87-55.75-71.23-111.31-144.18-162.86-212.58-13.89-22.75-30.64-47.01-49.29-73.58-9.35-13.27-19.32-27.03-29.68-41.45-10.38-14.41-21.2-29.44-32.48-45.11-45.02-62.74-96.62-136.23-150.73-224.27,18.1,24.93,42.18,55.53,68.51,88.18,13.23,16.29,27.03,33.1,40.95,49.95,13.94,16.85,28.11,33.68,41.9,50.15,27.67,32.83,54.05,64.11,75.89,90.03,10.88,12.96,20.52,24.64,28.5,34.58,7.98,9.94,14.37,18.09,18.57,24.11,10.18,13.6,19.69,26.17,28.61,37.86,8.98,11.64,17.41,22.38,25.31,32.38,7.91,10,15.3,19.25,22.28,27.9,7.04,8.6,13.66,16.59,19.94,24.12,6.3,7.51,12.23,14.57,17.9,21.32,5.68,6.74,11.11,13.14,16.45,19.3,10.64,12.35,20.6,23.94,30.58,35.87,9.94,11.96,20.11,24.1,30.96,37.69,5.43,6.79,11.04,13.94,16.93,21.58,5.86,7.65,12.05,15.75,18.68,24.41,6.6,8.68,13.57,17.99,20.99,28.05,3.69,5.04,7.52,10.26,11.49,15.67,3.98,5.4,8.11,10.99,12.39,16.79,8.54,11.61,17.64,24.1,27.39,37.62,4.84,6.78,9.98,13.71,15.26,20.93,5.27,7.23,10.73,14.72,16.39,22.48,4.63,6.38,9.4,12.87,14.29,19.48,4.89,6.61,10.04,13.22,15.24,20,10.43,13.52,21.31,27.45,32.61,41.71,11.47,14.12,23.34,28.56,35.53,43.27,3.05,3.67,6.12,7.37,9.21,11.08,3.09,3.71,6.28,7.36,9.45,11.07,6.36,7.38,12.79,14.83,19.26,22.34,51.98,59.9,109.34,121.7,167.82,180.48,58.53,58.74,118.09,114.47,173.24,163.79,13.83,12.26,27.32,24.22,40.4,35.81,13.24,11.36,26.06,22.37,38.4,32.96,3.07,2.65,6.11,5.28,9.12,7.88,3.02,2.58,5.94,5.22,8.96,7.68,5.97,4.98,11.8,9.86,17.49,14.61,2.84,2.38,5.64,4.74,8.41,7.06,1.36,1.14,2.7,2.27,4.04,3.4.77.6,1.54,1.2,2.3,1.8,2.97,2.35,5.86,4.63,8.66,6.84-1.73-.71-3.54-1.46-5.47-2.29-1.95-.85-3.99-1.76-6.14-2.74-.54-.25-1.08-.49-1.63-.74-.15-.08-.24-.1-.44-.22l-.66-.41c-.44-.28-.88-.56-1.32-.83-1.77-1.12-3.57-2.25-5.39-3.41-3.64-2.31-7.39-4.69-11.23-7.13-3.84-2.45-7.78-4.97-11.81-7.54-2.01-1.3-4.05-2.61-6.1-3.93-2.03-1.36-4.08-2.74-6.14-4.13-8.27-5.6-16.87-11.42-25.75-17.43-8.86-6.08-18.01-12.36-27.39-18.8-9.24-6.62-18.66-13.48-28.25-20.5-9.59-7.02-19.35-14.22-29.2-21.57-9.77-7.44-19.52-15.15-29.38-22.92-9.85-7.78-19.74-15.68-29.63-23.67-9.74-8.13-19.45-16.38-29.1-24.67-9.64-8.3-19.26-16.61-28.66-25.04-9.31-8.52-18.49-17.06-27.49-25.58-8.98-8.54-17.87-17-26.38-25.55-8.45-8.6-16.66-17.15-24.58-25.61-7.92-8.46-15.56-16.84-22.85-25.09-7.16-8.37-13.98-16.61-20.41-24.68,6.67,9.06,13.21,17.84,19.67,26.31,6.57,8.38,13.02,16.49,19.37,24.33,6.35,7.85,12.6,15.44,18.75,22.79,3.09,3.66,6.1,7.32,9.18,10.82,3.1,3.49,6.16,6.94,9.18,10.35,12.14,13.58,23.92,26.27,35.38,38.23,2.85,3.01,5.76,5.89,8.64,8.74,2.89,2.84,5.75,5.65,8.58,8.42,5.69,5.53,11.3,10.9,16.85,16.12,44.4,41.78,85.88,72.97,128.16,103.48,10.47,7.74,21.33,15.07,32.15,22.68,10.85,7.58,21.81,15.28,32.96,23.24,1.39,1,2.79,2,4.19,3,1.42.98,2.84,1.97,4.27,2.95,2.85,1.98,5.72,3.97,8.61,5.98,5.77,4.02,11.59,8.13,17.49,12.34,1.47,1.05,2.95,2.11,4.43,3.17.17.12.41.3.52.36l.39.25.78.49,1.56.99c2.05,1.31,4.13,2.64,6.22,3.98,4.09,2.62,8.14,5.28,12.28,7.86,8.24,5.21,16.41,10.56,24.63,16.23,2.04,1.42,4.1,2.86,6.18,4.31,2.08,1.43,4.18,2.88,6.31,4.34,4.23,2.93,8.5,5.97,12.83,9.14,4.33,3.17,8.71,6.47,13.18,9.93,2.22,1.75,4.53,3.45,6.85,5.22,2.32,1.79,4.67,3.6,7.05,5.44,4.76,3.72,9.64,7.63,14.68,11.78,1.26,1.05,2.53,2.1,3.81,3.16.64.54,1.28,1.07,1.93,1.61l.97.82.24.2.12.1s.05-.08.08-.12l.29-.54c1.55-2.85,3.12-5.73,4.71-8.66,9.27-18.53,19.02-43.54,27.33-68.76,6.18-8.85,12.2-17.94,18.74-27.87,3.32-5.07,6.73-10.26,10.26-15.66.9-1.39,1.81-2.78,2.73-4.2l.7-1.07.35-.54.55-.93c.74-1.26,1.48-2.52,2.22-3.8,2.98-5.09,6.03-10.3,9.15-15.64,8.7-17.19,17.32-34.26,25.71-51.29,8.28-17.1,16.44-34.1,24.49-51.04,8.05-16.93,16.01-33.79,23.87-50.57,3.92-8.4,7.83-16.78,11.74-25.13,3.89-8.36,7.79-16.7,11.53-25.09,15.11-33.49,29.96-66.75,44.69-99.87,3.68-8.28,7.35-16.55,11.02-24.81,1.83-4.13,3.67-8.26,5.5-12.39,1.8-4.15,3.59-8.29,5.39-12.43,7.18-16.57,14.35-33.11,21.51-49.64,14.37-33.04,28.73-66.04,43.13-99.14,14.27-33.16,28.7-66.35,43.45-99.66,14.85-33.25,29.55-66.86,44.83-100.61,7.63-16.88,15.38-33.81,23.26-50.81,7.92-16.98,15.89-34.07,23.91-51.27-9.67,24.28-28.89,33.89-41.31,57.43-16,28.67-31,57.1-45.23,85.4-3.53,7.08-7.05,14.14-10.56,21.18-3.52,7.03-6.99,14.06-10.42,21.08-6.86,14.04-13.56,28.06-20.12,42.08-13.15,28.02-25.66,56.05-38.04,84.07-12.5,27.95-24.7,55.98-36.82,84.18-24.02,56.51-48.71,113.19-74.67,171.45-3.26,7.27-6.54,14.57-9.83,21.91-1.66,3.66-3.31,7.33-4.98,11-1.7,3.65-3.41,7.32-5.12,10.99-6.86,14.67-13.85,29.44-21,44.32-14.3,29.76-29.2,59.97-45.01,90.67-6.72,11.44-12.69,24.69-18.26,38.92-2.79,7.12-5.47,14.48-8.1,21.98-.65,1.88-1.31,3.76-1.96,5.65l-.97,2.84-.23.68-.07.37-.15.75c-.4,2.04-.79,4.09-1.19,6.14-1.62,8.33-3.45,17.34-5.83,26.16-1.19,4.4-2.49,8.75-3.96,12.85-1.49,4.09-3.13,7.94-4.89,11.37-6.97,14.23-14.34,27.28-21.58,38.81-3.62,5.77-7.22,11.18-10.75,16.22-.88,1.24-1.76,2.48-2.63,3.71l-.65.91-.33.45c-.02.08-.08-.05-.12-.07l-.13-.14-.27-.27-2.13-2.19c-2.83-2.92-5.63-5.84-8.38-8.75-5.5-5.81-10.83-11.57-15.98-17.22-2.59-2.8-5.07-5.65-7.5-8.47l-7.18-8.32c-4.53-5.29-9.07-10.58-13.63-15.9-4.34-5.18-8.5-10.24-12.61-15.07,4.91,2.92,9.63,5.86,14.3,8.72,4.71,2.81,9.31,5.62,13.81,8.44,8.93,5.73,17.8,11.15,26.4,16.82,1.07.71,2.15,1.42,3.22,2.13l1.6,1.07.8.54s.07.07.1.05l.06-.14.11-.27.23-.54c1.22-2.85,2.44-5.7,3.66-8.57,2.44-5.65,4.86-11.17,7.29-16.59,4.85-10.85,9.69-21.33,14.55-31.63,4.8-10.32,9.54-20.5,14.33-30.54,6.36-12.95,12.72-25.91,19.07-38.86,3.25-6.6,6.49-13.2,9.73-19.8l4.86-9.89,4.77-9.93c12.67-26.5,25.29-52.9,37.82-79.11,6.23-13.12,12.43-26.19,18.61-39.2,3.07-6.51,6.13-13.01,9.18-19.49,2.98-6.52,5.96-13.02,8.93-19.5,18.58-43.58,30.9-100.9,40.05-137.21-23.11,47.23-46.2,94.57-69.08,142.14-23.23,47.37-46.49,94.85-69.47,142.63-1.22,2.62-2.45,5.25-3.67,7.89-1.25,2.62-2.49,5.26-3.74,7.89-2.49,5.28-4.98,10.59-7.49,15.92-4.99,10.67-9.99,21.45-14.99,32.33-1.25,2.72-2.5,5.45-3.75,8.18l-1.87,4.1c-.43.91-.33.78-.43,1.03l-.18.55c-.49,1.48-.98,2.97-1.48,4.47-1.01,3.14-2.02,6.31-3.05,9.49-2.05,6.6-4.36,13.69-6.83,21.42-2.68,8.3-5.39,16.67-8.1,25.08-.75,2.29-1.51,4.58-2.26,6.88l-1.17,3.53-.59,1.79-.15.45c-.02.12-.08.02-.12.02l-.14-.06-.54-.25c-2.9-1.34-5.93-2.77-9.08-4.28-3.14-1.53-6.46-3.09-9.79-4.87-3.34-1.78-6.8-3.66-10.38-5.65-7.21-3.91-14.68-8.5-22.6-13.46-3.96-2.48-8.04-5.04-12.09-7.84l-3.16-2.17-1.59-1.1-.8-.55-1.78-1.46c-4.76-3.91-9.51-7.81-14.25-11.71-75.58-62.66-145.62-127.68-205.45-191.23-3.74-3.97-7.46-7.92-11.15-11.84-3.69-3.93-7.35-7.83-10.88-11.83-7.1-7.94-14.07-15.81-20.88-23.62-6.82-7.81-13.48-15.55-19.99-23.21-6.47-7.71-12.64-15.47-18.73-23.08-6.06-7.63-11.96-15.18-17.67-22.64-2.84-3.75-5.65-7.46-8.44-11.13-2.78-3.68-5.4-7.44-8.04-11.12-10.49-14.77-20.22-29.17-29.12-43.15-5.84-5.32-11.53-10.64-23.11-21.53-1.4-3.96-4.16-8.7-7.56-13.75-4.12-4.89-8.3-9.93-12.53-15.09-2.11-2.59-4.23-5.2-6.37-7.84-1.06-1.32-2.13-2.65-3.2-3.99-1.05-1.35-2.1-2.71-3.16-4.08-8.44-10.93-16.94-22.3-25.31-33.94-4.18-5.82-8.33-11.71-12.41-17.65-4.07-5.96-7.97-12.05-11.85-18.12-7.72-12.17-15.08-24.46-21.88-36.71l21.15,28.31,10.58,14.16,5.29,7.07,5.38,7,21.5,28,10.75,14,5.38,7,5.46,6.92c66.11,64.72,132.63,132.41,200.91,200.65,68.26,68.23,138.29,137.01,211.08,203.8,4.57,4.15,9.14,8.3,13.71,12.46l3.43,3.12,1.71,1.56.49.43,1.7,1.49,3.22,2.81,3.2,2.69c4.27,3.58,8.43,7.23,12.73,10.66,4.26,3.47,8.47,6.96,12.78,10.22l6.37,4.89.79.6.2.15s.07.08.09.04l.06-.12.23-.48.92-1.93,1.82-3.87c4.79-10.31,9.47-20.61,13.31-30.58.96-2.49,1.87-4.95,2.73-7.36l1.25-3.58c2.66-5.73,5.32-11.45,7.98-17.18,5.32-11.56,10.63-23.1,15.94-34.62,2.63-5.77,5.26-11.54,7.88-17.3,2.55-5.8,5.11-11.6,7.66-17.39,8.36-20.87,19.96-44.25,33.18-68.92,6.61-12.33,13.63-24.98,20.85-37.79,3.63-6.4,7.29-12.85,10.96-19.32,3.63-6.5,7.28-13.02,10.93-19.55,14.61-26.09,29.22-52.2,42.23-77.03,6.51-12.42,12.61-24.51,18.11-36.13,5.55-11.59,10.26-22.83,14.3-33.35,24.71-61.44,51.18-122.79,77.8-184.57,13.4-30.84,27.17-61.61,41.05-92.39,13.74-30.87,27.74-61.67,41.97-92.39,7.11-15.36,14.29-30.69,21.51-46,7.15-15.35,14.31-30.7,21.54-46.01,14.45-30.62,29.1-61.12,43.93-91.47,7.39-15.2,14.77-30.37,22.14-45.53,7.4-15.15,14.84-30.25,22.31-45.31,7.47-15.06,14.98-30.07,22.52-45.04,7.54-14.97,15.06-29.91,22.57-44.82,212.21-432.55,415.87-870.08,623.16-1303.31,103.66-216.6,208.28-432.11,315.29-645.32,107-213.2,216.39-424.09,329.45-631.36l6.32-15.19c2.15-5.04,4.3-10.08,6.44-15.11,4.3-10.06,8.62-20.07,12.95-30-6.41,7.62-12.64,15.03-18.85,22.41,10.64-17.73,21.45-35.44,32.18-52.98,6.1-13.83,12.25-27.61,18.47-41.32,6.24-13.7,12.43-27.39,18.93-40.9,12.91-27.07,26.12-53.87,39.73-80.38,27.02-53.11,56.53-104.58,88.12-154.69,28.89-39.63-35.46,77.42-41.91,115.1,12.89-23.45,25.77-46.88,25.77-46.88,0,0,3.21,7.07,6.41,14.12,6.23-19.7,17.85-27.61,27.86-38.86-6.9,14.82-13.81,29.64-20.72,44.47l-10.35,22.26-5.17,11.13-5.09,11.18c-13.53,29.83-27.07,59.69-40.62,89.57-6.77,14.94-13.53,29.89-20.3,44.85-6.66,15.01-13.32,30.03-19.99,45.05-13.32,30.05-26.65,60.12-40,90.21-6.72,15.02-13.22,30.16-19.82,45.25-6.59,15.1-13.17,30.21-19.76,45.32-6.6,15.11-13.2,30.22-19.81,45.34l-9.92,22.68-9.81,22.74c-13.1,30.33-26.22,60.67-39.34,91.04-6.56,15.19-13.22,30.33-19.73,45.55-6.53,15.22-13.07,30.44-19.61,45.66,6.65-5.41,13.4-14.06,20.03-24.5,6.65-10.43,13.12-22.71,19.44-35.26,12.58-25.14,23.94-51.73,32.43-68.32,7.87-20.49,15.73-40.97,23.68-61.29,7.97-20.3,16.18-40.34,24.46-60.1,8.3-19.75,16.76-39.17,25.46-58.1,8.71-18.92,17.57-37.39,27-55.06,10.96-25.57,22.43-51.05,34.29-76.43,11.89-25.37,24.02-50.72,36.83-75.77,12.72-25.09,25.73-50.09,38.89-74.98,6.62-12.43,13.24-24.85,19.86-37.27,3.3-6.21,6.71-12.36,10.1-18.52,3.39-6.15,6.79-12.31,10.18-18.46,54.15-98.45,109.89-194.8,160.24-289.19,21.68-33.41,43.62-66.34,66.13-97.69,7.47-9.79,11.31-10.97,12.23-6.16.46,2.41.19,6.31-.72,11.39-.87,5.05-2.35,11.24-4.38,18.29-8.1,28.17-24.82,69.75-44.62,104.18ZM2195.91,3073.44c17.8-32.3,35.72-64.01,54.08-95.66,18.44-31.63,36.94-63.36,55.81-95.74,11.01-23.8,21.98-47.41,33.2-71.15,14.25-29.21,27.02-61.61,38.6-95.85,30.97-62.95,61.87-125.73,92.75-188.51,30.91-62.78,61.67-125.63,92.46-188.62-74.02,121.01-147.65,248.29-220.25,408.99,88.13-209.89,181.47-400.33,277.05-585.16,95.57-184.83,193.3-364.04,289.92-551.38,13.25-28.89,26.54-57.87,39.89-86.97,13.29-29.11,26.55-58.37,39.77-87.79,13.32-29.37,26.61-58.91,39.87-88.63,13.19-29.74,26.45-59.62,39.78-89.66,18.36-42.52,35.76-84.9,52.75-127.02,17.1-42.06,33.65-83.94,49.96-125.64-251.93,505.24-499.19,1010.07-746.12,1516.91-123.11,253.02-246.56,506.73-370.79,762.07-30.97,63.65-61.99,127.4-93.06,191.27-15.63,31.86-31.21,63.76-46.73,95.73-3.88,7.99-7.75,15.99-11.63,23.98-3.88,8-7.73,16.01-11.67,23.97-7.82,15.96-15.65,31.92-23.49,47.89-15.57,31.97-31.17,63.98-46.77,96.02-15.75,31.95-31.44,63.96-47.07,96.04-3.9,8.02-7.81,16.04-11.71,24.07-3.91,8.02-7.76,16.08-11.75,24.06-7.89,16.01-15.79,32.03-23.69,48.06-15.7,32.1-31.42,64.23-47.16,96.4,91.93-161.33,177.88-322.57,262.42-484.98,10.55-20.32,21.1-40.64,31.66-60.96,5.28-10.17,10.57-20.33,15.85-30.5,5.23-10.2,10.46-20.41,15.69-30.61,20.99-40.83,42.01-81.71,63.08-122.69,20.94-41.07,42.03-82.23,63.32-123.49,21.19-41.31,42.41-82.83,64-124.44ZM2158.73,3205.17c-15.26,34.02-30.34,67.99-45.27,101.91-14.92,33.91-29.8,67.73-44.64,101.44-14.71,33.76-29.38,67.42-44,100.98-14.68,33.52-29.22,66.99-43.6,100.39-5.12,11.26-10.26,22.55-15.41,33.87-5.21,11.29-10.44,22.6-15.68,33.94-10.44,22.68-20.93,45.44-31.43,68.24-5.23,11.41-10.47,22.82-15.7,34.24-2.6,5.72-5.24,11.41-7.91,17.1l-7.96,17.08c-10.56,22.79-21.12,45.56-31.64,68.28-5.23,11.37-10.46,22.73-15.68,34.07-2.6,5.67-5.2,11.34-7.79,17-2.63,5.64-5.26,11.28-7.89,16.91-10.5,22.52-20.9,44.96-31.17,67.27-10.21,22.34-20.35,44.52-30.4,66.51-10.16,21.93-20.17,43.69-29.97,65.24-9.8,21.55-19.41,42.9-28.8,63.99-2.34,5.27-4.68,10.53-7.01,15.77-2.36,5.22-4.71,10.42-7.05,15.6-4.65,10.38-9.26,20.68-13.83,30.9-9.09,20.46-17.92,40.63-26.46,60.47-8.47,19.87-16.78,39.35-24.89,58.39-4.06,9.52-8.03,18.95-11.92,28.28-1.93,4.67-3.86,9.31-5.77,13.92-.95,2.31-1.89,4.61-2.83,6.91-.47,1.15-.94,2.29-1.4,3.44l-1.13,2.89c-5.84,15.09-11.58,30.27-17.21,45.59-5.81,15.94-11.44,31.37-16.87,46.25-5.59,15.54-11.09,31.25-16.5,47.15,8.48-18.43,16.98-36.9,25.5-55.42,2.09-4.55,4.17-9.1,6.26-13.65,2.03-4.54,4.06-9.08,6.09-13.63,4.02-8.99,8.04-18,12.06-27.01,3.96-8.88,7.93-17.77,11.91-26.67,4.55-10.05,9.11-20.11,13.67-30.18,9.11-20.16,18.39-40.27,27.29-60.64,18.04-40.59,36.16-81.37,54.36-122.32,17.97-41.05,36.02-82.27,54.14-123.68,72.23-165.71,144.73-334.61,219-506.1-4.59,10.11-8.94,19.69-13.04,28.72-4.15,9.01-8.06,17.49-11.72,25.45-7.32,15.92-13.69,29.76-19.14,41.6-10.87,23.69-18.01,39.4-21.77,47.82-7.52,16.85-1.52,4.55,15.29-31.41,8.36-18,19.47-41.9,32.99-71,3.39-7.27,6.85-14.91,10.45-22.86,3.6-7.95,7.35-16.22,11.23-24.79,7.75-17.15,16.04-35.53,24.85-55.03,8.77-19.52,18.14-40.14,27.79-61.9,9.6-21.78,19.67-44.6,30.17-68.39,10.46-23.81,21.34-48.58,32.6-74.22,11.1-25.72,22.57-52.33,34.39-79.72,2.92-10.67,12.05-32.35,23.43-58.99Z"/>
        <path d="M3014.44,1190.79c40.65-72.11,81.62-144.77,122.57-217.42,41.29-72.42,82.34-144.85,124.74-215.83-20.8,24.99-40.64,48.4-60.48,73.34-19.74,24.98-39.61,51.44-60.76,82.42-6.75,10.62-13.43,21.39-20.06,32.28-3.31,5.45-6.62,10.92-9.89,16.43-3.23,5.53-6.46,11.08-9.71,16.65-12.9,22.31-25.58,45.06-38.11,68.15-6.26,11.54-12.49,23.17-18.68,34.87-6.19,11.7-12.37,23.46-18.41,35.31-12.15,23.69-24.18,47.61-36.17,71.63-11.96,24.04-23.97,48.15-35.8,72.33-11.86,24.17-23.72,48.34-35.54,72.44-11.87,24.08-23.86,48.03-35.83,71.81-11.96,23.78-24.03,47.35-36.27,70.59-35.34,66.71-69.99,134.13-104.56,202.03-17.21,33.97-34.32,68.08-51.38,102.32-8.5,17.13-17.02,34.28-25.54,51.45-8.45,17.2-16.9,34.41-25.37,51.65-67.57,137.99-133.83,277.97-199.34,419.51-65.46,141.57-130.28,284.57-194.69,428.8-16.15,36.02-32.26,72.14-48.31,108.34-16.08,36.17-32.18,72.4-48.31,108.69-32.1,72.58-64.31,145.39-96.61,218.42-14.22,28.11-43.51,91.2-59.69,141.09,87.14-181.52,171.36-361.57,254.54-540.26,83.18-178.69,165.32-356.03,248.19-532.22,82.87-176.19,166.4-351.26,252.43-525.36,86.02-174.09,174.49-347.22,267.05-519.45Z"/>
        <path d="M1537.25,4226.52c-11.67,26.59-23.34,53.17-34.97,79.68-5.88,13.22-11.93,26.32-17.92,39.43-3.01,6.55-6.02,13.08-9.02,19.61-1.51,3.26-3.01,6.52-4.52,9.78l-2.26,4.88-.28.61-.07.15h0s0,.02,0,.02v.06s.04.12.04.12c.55,2.47-.38,6.14-1.84,7.54,2.08,3.14,4.51,4.22,7.11,3.88,2.59-.34,5.29-2.11,7.96-4.59l.25-.24.03-.03h0s.04-.08.04-.08l.09-.16.34-.63.69-1.25,2.75-5.01c1.83-3.35,3.66-6.7,5.49-10.05,3.63-6.71,7.27-13.43,10.9-20.14,3.6-6.72,7.19-13.44,10.77-20.13,1.78-3.35,3.55-6.7,5.33-10.03,1.73-3.36,3.46-6.71,5.18-10.06,13.75-26.76,26.99-53.02,39.41-77.83l24.93-52.93c8.16-17.73,16.33-35.45,24.49-53.17,8.17-17.72,16.33-35.43,24.49-53.13,4.09-8.85,8.17-17.69,12.26-26.53,4.09-8.84,8.19-17.67,12.18-26.56,32.27-70.94,64.43-141.66,96.39-211.92-9.2,17.02-18.41,34.07-27.64,51.16-4.59,8.55-9.18,17.11-13.78,25.68-4.64,8.54-9.28,17.09-13.93,25.66-18.54,34.27-36.97,68.78-55.23,103.63-9.18,17.38-18.4,34.82-27.64,52.33-9.2,17.52-18.35,35.13-27.46,52.85-4.53,8.87-9.07,17.76-13.62,26.66-2.26,4.46-4.52,8.93-6.78,13.4l-3.38,6.71-3.44,6.69c-9.17,17.85-18.29,35.82-27.34,53.92Z"/>
        <path d="M1992.23,3308.08c-13.99,28.92-27.97,57.83-42.14,87.12-8.12,16.75-16.2,33.57-24.25,50.48-8.13,16.86-16.25,33.77-24.32,50.77-16.17,33.98-32.11,68.28-48.09,102.75-32.29,68.74-63.76,138.65-95.93,208.64,9.77-17.94,19.54-35.84,29.29-53.73l7.34-13.41,7.25-13.45c4.84-8.97,9.67-17.93,14.51-26.89,19.39-35.84,38.75-71.63,58.12-107.43,19.12-35.98,38.24-71.97,57.4-108.04,4.77-9.03,9.54-18.07,14.31-27.11,4.7-9.08,9.41-18.17,14.12-27.26,9.36-18.22,18.74-36.46,28.13-54.73-11.93-4.81-7.16-32.83,4.26-67.7Z"/>
      </g>
      <g opacity=".8">
        <path d="M3704.66,137.83c-12.93,23.83-25.19,47.66-37.33,71.23-12.13,23.57-24.03,46.95-35.74,70.16-2.92,5.81-5.83,11.6-8.74,17.38-1.45,2.89-2.9,5.78-4.34,8.67-1.42,2.9-2.84,5.8-4.26,8.7-5.63,11.6-11.24,23.16-16.83,34.68-11.13,23.06-22.09,46-32.89,68.88-5.38,11.45-10.74,22.87-16.09,34.27-5.22,11.47-10.42,22.92-15.62,34.35-10.35,22.88-20.58,45.74-30.7,68.61-5.04,11.45-10.08,22.89-15.12,34.33-2.52,5.72-4.99,11.46-7.44,17.23l-7.35,17.28c-9.78,23.05-19.49,46.17-29.14,69.4-7.72,17.93-15.54,35.67-23.4,53.3-7.76,17.68-15.59,35.23-23.5,52.65-7.9,17.42-15.87,34.73-23.91,51.94-8.1,17.19-16.17,34.32-24.22,51.41-32.19,68.43-65.53,135.59-98.78,203.51-8.37,16.95-16.76,33.93-25.16,50.95-4.21,8.51-8.43,17.04-12.65,25.57-4.19,8.56-8.38,17.13-12.58,25.72-16.8,34.36-33.71,68.99-50.68,104.07-8.52,17.52-16.88,35.26-25.34,53.08-8.44,17.83-16.89,35.8-25.34,53.92-8.45,18.13-16.91,36.4-25.35,54.88-8.39,18.5-16.78,37.19-25.16,56.07-67.96,149.09-126.47,288.91-187.68,436.56-68.92,145.7-139.23,299.68-209.7,459.57-70.47,159.89-140.95,325.75-210.59,495.23-4.33,8.87-10.75,22.06-17.51,36.84-6.81,14.77-13.94,31.13-19.62,46.39-11.36,30.52-16.9,56.64-2.33,56.71-9.5,20.13-18.99,40.22-28.45,60.27-9.55,20.03-19.07,40.03-28.59,59.99-19.03,39.92-37.88,79.75-56.95,119.38-18.9,39.68-37.75,79.26-56.55,118.73-18.87,39.46-37.53,78.88-55.94,118.3-74.11,157.54-145.58,314.6-211.29,474.19-29.26,66.29-64.49,131.5-100.91,196.13-9.01,16.2-18.02,32.39-27.01,48.57-8.88,16.23-17.75,32.44-26.59,48.61-17.59,32.39-34.39,64.94-49.6,97.85-2.96,6.75-5.95,13.49-8.98,20.2-1.52,3.35-3.02,6.72-4.57,10.05l-4.7,9.99c-6.29,13.3-12.69,26.53-19.19,39.69-3.29,6.61-6.59,13.22-9.88,19.83-4.74,9.4-9.48,18.8-14.22,28.19-4.77,9.35-9.54,18.69-14.31,28.03-4.84,9.23-9.67,18.46-14.5,27.68l-7.26,13.76c-2.43,4.57-4.83,9.18-7.3,13.62-4.92,8.92-9.84,17.83-14.76,26.74-9.84,17.75-19.65,35.34-29.43,52.76-19.55,34.84-38.92,68.98-57.99,102.47l-3.57,6.27-.22.39-.11.2c-.03.12-.11-.06-.17-.07l-.74-.64-1.48-1.29-2.96-2.57-11.82-10.27c-7.83-6.81-15.66-13.62-23.49-20.42-7.77-6.76-15.54-13.51-23.3-20.26-7.72-6.73-15.5-13.4-23.02-20.12-15.03-13.29-30.06-26.57-45.08-39.84-7.44-6.55-14.87-13.09-22.3-19.63-1.86-1.6-3.69-3.3-5.52-4.99l-5.48-5.04-10.94-10.04c-14.57-13.35-29.07-26.57-43.54-39.67l-10.84-9.8-10.7-9.99c-3.59-3.31-7.08-6.67-10.6-10l-10.15-9.61c-10.59-10.1-21.28-20.08-31.96-30.07-10.52-10.14-21.11-20.2-31.78-30.17-6.55-4.9-15.27-10.95-24.9-17.67-9.5-6.84-19.94-14.32-30.15-21.82-10.21-7.5-20.18-15.03-28.74-21.98-8.44-7.04-15.42-13.53-19.84-18.75-6.39-7.85-12.8-15.63-19.25-23.35-3.23-3.85-6.46-7.69-9.69-11.53l-2.43-2.87-2.38-2.9-4.77-5.79c-12.73-15.41-25.58-30.57-38.53-45.51-6.4-7.52-12.8-15.03-19.18-22.53-6.4-7.47-12.83-14.89-19.28-22.26-13.01-14.66-25.64-29.51-38.52-44.07-6.43-7.29-12.88-14.54-19.35-21.75l-4.85-5.41-4.78-5.46c-3.2-3.63-6.39-7.25-9.58-10.87-6.4-7.23-12.82-14.42-19.26-21.58-3.23-3.58-6.45-7.15-9.68-10.72-3.23-3.57-6.48-7.11-9.64-10.72-12.74-14.37-25.55-28.62-38.43-42.78-3.21-3.55-6.47-7.05-9.64-10.62-3.18-3.56-6.36-7.12-9.53-10.68-6.38-7.1-12.76-14.19-19.13-21.28-6.41-7.06-12.81-14.12-19.21-21.17-6.33-7.1-12.66-14.19-18.99-21.28-6.35-7.08-12.69-14.15-19.03-21.21-6.34-7.07-12.76-14.08-18.99-21.22-12.58-14.21-25.14-28.4-37.69-42.58-6.33-7.06-12.48-14.24-18.69-21.38l-18.61-21.44-18.6-21.46-18.33-21.65-18.3-21.69c-6.09-7.24-12.21-14.47-18.18-21.8-12-14.62-23.96-29.28-35.88-44.02-6-7.35-11.8-14.81-17.67-22.24-5.83-7.46-11.67-14.92-17.51-22.39-35.69-47.67-67.28-89.94-97.69-132.2-7.66-10.54-15.08-21.16-22.54-31.83-7.45-10.68-14.87-21.44-22.3-32.37-1.85-2.74-3.71-5.48-5.58-8.23-1.83-2.77-3.68-5.55-5.52-8.33-3.66-5.59-7.36-11.23-11.08-16.92-7.41-11.4-14.86-23.06-22.4-35.08-15.49-2.31-28.52-26.26-49.25-51.27-5.87-9.06-14.43-23.62-25.15-42.18-5.35-9.28-11.22-19.57-17.5-30.69-6.19-11.16-12.83-23.13-19.82-35.73-27.88-50.47-60.32-111.54-91.43-171.73C61.2,3013.36,4.64,2896.51.03,2873.94c-1.1-5.62,28.95,41.18,75,114.26,46.08,73.05,108.14,172.41,171.75,271.27,7.97,12.35,15.94,24.7,23.88,37,3.98,6.15,7.94,12.28,11.9,18.4,3.99,6.1,7.96,12.19,11.92,18.25,7.93,12.11,15.79,24.13,23.55,36,7.77,11.87,15.57,23.52,23.18,35,7.63,11.47,15.14,22.74,22.48,33.77,7.43,10.98,14.7,21.71,21.76,32.14,7.09,10.42,13.98,20.54,20.63,30.32,6.75,9.72,13.26,19.1,19.51,28.09,24.91,35.97,46.25,65.21,61.09,84.96,7.41,9.88,13.42,17.27,17.5,21.91,4.09,4.64,6.33,6.48,6.45,5.15-.37-1.4-2.06-4.65-4.93-9.52-2.85-4.88-6.93-11.33-11.88-19.27-9.92-15.86-23.9-37.27-40.42-62.58-32.97-50.67-76.12-116.91-119.17-184.32-43.01-67.43-85.95-135.98-119.7-190.65-16.79-27.37-31.41-51.21-42.51-69.75-11.09-18.54-18.78-31.72-21.87-37.69,39.87,57.85,78.3,112.84,115.06,165.15,36.92,52.23,72.16,101.79,106.15,148.56,67.85,93.62,129.99,176.43,186.56,249.33,7.07,9.11,14.03,18.08,20.89,26.92,6.93,8.78,13.76,17.42,20.48,25.93,6.72,8.5,13.33,16.87,19.84,25.1,3.24,4.13,6.51,8.18,9.76,12.2,3.24,4.02,6.46,8,9.65,11.96,6.38,7.9,12.66,15.67,18.83,23.32,6.19,7.63,12.2,15.18,18.28,22.47,12.09,14.63,23.77,28.75,35.03,42.38,5.6,6.83,11.22,13.45,16.74,19.95,5.51,6.5,10.91,12.88,16.22,19.13,10.64,12.49,20.73,24.59,30.75,35.97,9.96,11.42,19.51,22.39,28.67,32.9,4.6,5.24,9.03,10.41,13.49,15.38,4.45,4.97,8.81,9.82,13.07,14.57,33.89,38.12,62.43,68.45,85.11,92.66,23.06,23.9,40.32,41.63,52.61,53.74,24.81,24.01,28.92,26.27,17.29,12.14-2.91-3.53-6.8-8.09-11.61-13.59-1.2-1.37-2.46-2.81-3.77-4.3-1.29-1.51-2.64-3.08-4.04-4.71-2.81-3.25-5.82-6.73-9.03-10.44-6.44-7.4-13.69-15.68-21.7-24.74-4.01-4.53-8.2-9.26-12.56-14.18-4.31-4.97-8.78-10.14-13.41-15.48-9.3-10.68-19.23-22.1-29.73-34.16-5.3-6-10.6-12.27-16.06-18.67-5.47-6.4-11.06-12.95-16.78-19.65-5.73-6.69-11.58-13.52-17.55-20.49-3-3.47-5.96-7.03-8.96-10.61-3-3.58-6.02-7.19-9.07-10.83-6.11-7.28-12.32-14.69-18.63-22.2-3.16-3.76-6.34-7.54-9.54-11.35-1.6-1.91-3.21-3.82-4.82-5.74-1.59-1.94-3.19-3.88-4.79-5.83-51.6-62.07-107.43-131.64-163.18-202.87-55.75-71.23-111.31-144.18-162.86-212.58-13.89-22.75-30.64-47.01-49.29-73.59-9.35-13.27-19.32-27.03-29.68-41.45-10.38-14.41-21.2-29.44-32.48-45.11-45.02-62.74-96.62-136.23-150.73-224.27,18.1,24.93,42.18,55.53,68.51,88.18,13.23,16.29,27.03,33.1,40.95,49.95,13.94,16.85,28.11,33.68,41.9,50.15,27.67,32.83,54.05,64.11,75.89,90.03,10.88,12.96,20.52,24.64,28.5,34.58,7.98,9.94,14.37,18.09,18.57,24.11,10.18,13.6,19.69,26.17,28.61,37.86,8.98,11.64,17.41,22.38,25.31,32.38,7.91,10,15.3,19.25,22.28,27.9,7.04,8.6,13.66,16.59,19.94,24.12,6.3,7.51,12.23,14.57,17.9,21.32,5.68,6.74,11.11,13.14,16.45,19.3,10.64,12.35,20.6,23.94,30.58,35.87,9.94,11.96,20.11,24.1,30.96,37.69,5.43,6.79,11.04,13.94,16.93,21.58,5.86,7.65,12.05,15.75,18.68,24.41,6.6,8.68,13.57,17.99,20.99,28.05,3.69,5.04,7.52,10.26,11.49,15.67,3.98,5.4,8.11,10.99,12.39,16.79,8.54,11.61,17.64,24.1,27.39,37.62,4.84,6.78,9.98,13.71,15.26,20.93,5.27,7.23,10.73,14.72,16.39,22.48,4.63,6.38,9.4,12.87,14.29,19.48,4.89,6.61,10.04,13.22,15.24,20,10.43,13.52,21.31,27.45,32.61,41.71,11.47,14.12,23.34,28.56,35.53,43.27,3.05,3.67,6.12,7.37,9.21,11.08,3.09,3.71,6.28,7.36,9.45,11.07,6.36,7.38,12.79,14.83,19.26,22.34,51.98,59.9,109.34,121.7,167.82,180.48,58.53,58.74,118.09,114.47,173.24,163.79,13.83,12.26,27.32,24.22,40.4,35.81,13.24,11.37,26.06,22.37,38.4,32.96,3.07,2.65,6.11,5.28,9.12,7.88,3.02,2.58,5.94,5.22,8.96,7.68,5.97,4.98,11.8,9.86,17.49,14.61,2.84,2.38,5.64,4.74,8.41,7.06,1.36,1.14,2.7,2.27,4.04,3.4.77.6,1.54,1.2,2.3,1.8,2.97,2.35,5.86,4.63,8.66,6.84-1.73-.71-3.54-1.46-5.47-2.29-1.95-.85-3.99-1.76-6.14-2.74-.54-.25-1.08-.49-1.63-.74-.15-.08-.24-.1-.44-.22l-.66-.41c-.44-.28-.88-.56-1.32-.83-1.77-1.12-3.57-2.25-5.39-3.41-3.64-2.31-7.39-4.69-11.23-7.13-3.84-2.45-7.78-4.97-11.81-7.54-2.01-1.3-4.05-2.61-6.1-3.93-2.03-1.36-4.08-2.74-6.14-4.13-8.27-5.6-16.87-11.42-25.75-17.43-8.86-6.08-18.01-12.36-27.39-18.8-9.24-6.62-18.66-13.48-28.25-20.5-9.59-7.02-19.35-14.22-29.2-21.57-9.77-7.44-19.52-15.15-29.38-22.92-9.85-7.78-19.74-15.68-29.63-23.67-9.74-8.13-19.45-16.38-29.1-24.67-9.64-8.3-19.26-16.61-28.66-25.04-9.31-8.52-18.49-17.06-27.49-25.58-8.98-8.54-17.87-17-26.38-25.55-8.45-8.6-16.66-17.15-24.58-25.61-7.92-8.46-15.56-16.84-22.85-25.09-7.16-8.37-13.98-16.61-20.41-24.68,6.67,9.06,13.21,17.84,19.67,26.31,6.57,8.38,13.02,16.49,19.37,24.33,6.35,7.85,12.6,15.44,18.75,22.79,3.09,3.66,6.1,7.32,9.18,10.82,3.1,3.49,6.16,6.94,9.18,10.35,12.14,13.58,23.92,26.28,35.38,38.23,2.85,3.01,5.76,5.89,8.64,8.74,2.89,2.84,5.75,5.65,8.58,8.42,5.69,5.53,11.3,10.9,16.85,16.12,44.4,41.78,85.88,72.97,128.16,103.48,10.47,7.74,21.33,15.07,32.15,22.68,10.85,7.58,21.81,15.28,32.96,23.24,1.39,1,2.79,2,4.19,3,1.42.98,2.84,1.97,4.27,2.95,2.85,1.98,5.72,3.97,8.61,5.98,5.77,4.02,11.59,8.13,17.49,12.34,1.47,1.05,2.95,2.11,4.43,3.17.17.12.41.3.52.36l.39.25.78.49,1.56.99c2.05,1.31,4.13,2.64,6.22,3.98,4.09,2.62,8.14,5.28,12.28,7.86,8.24,5.21,16.41,10.56,24.63,16.23,2.04,1.42,4.1,2.86,6.18,4.31,2.08,1.43,4.18,2.88,6.31,4.34,4.23,2.93,8.5,5.97,12.83,9.14,4.33,3.17,8.71,6.46,13.18,9.93,2.22,1.75,4.53,3.45,6.85,5.22,2.32,1.79,4.67,3.6,7.05,5.44,4.76,3.72,9.64,7.63,14.68,11.78,1.26,1.05,2.53,2.1,3.81,3.16.64.54,1.28,1.07,1.93,1.61l.97.82.24.2.12.1s.05-.08.08-.12l.29-.54c1.55-2.85,3.12-5.73,4.71-8.66,9.27-18.53,19.02-43.54,27.33-68.76,6.18-8.85,12.2-17.94,18.74-27.87,3.32-5.07,6.73-10.26,10.26-15.66.9-1.39,1.81-2.79,2.73-4.2l.7-1.07.35-.54.55-.93c.74-1.26,1.48-2.52,2.22-3.8,2.98-5.09,6.03-10.3,9.15-15.64,8.7-17.19,17.32-34.26,25.71-51.29,8.28-17.1,16.44-34.1,24.49-51.04,8.05-16.93,16.01-33.79,23.87-50.57,3.92-8.4,7.83-16.78,11.74-25.13,3.89-8.36,7.79-16.7,11.53-25.09,15.11-33.49,29.96-66.75,44.69-99.87,3.68-8.28,7.35-16.55,11.02-24.81,1.83-4.13,3.67-8.26,5.5-12.39,1.8-4.15,3.59-8.29,5.39-12.43,7.18-16.57,14.35-33.11,21.51-49.64,14.37-33.04,28.73-66.04,43.13-99.14,14.27-33.16,28.7-66.35,43.45-99.66,14.85-33.25,29.55-66.86,44.83-100.61,7.63-16.88,15.38-33.81,23.26-50.81,7.92-16.98,15.89-34.07,23.91-51.27-9.67,24.28-28.89,33.89-41.31,57.43-16,28.67-31,57.1-45.23,85.4-3.53,7.08-7.05,14.14-10.56,21.18-3.52,7.03-6.99,14.06-10.42,21.08-6.86,14.04-13.56,28.06-20.12,42.08-13.15,28.02-25.66,56.05-38.04,84.07-12.5,27.95-24.7,55.98-36.82,84.18-24.02,56.51-48.71,113.19-74.67,171.45-3.26,7.27-6.54,14.57-9.83,21.91-1.66,3.66-3.31,7.33-4.98,11-1.7,3.65-3.41,7.32-5.12,10.99-6.86,14.67-13.85,29.44-21,44.32-14.3,29.76-29.2,59.97-45.01,90.67-6.72,11.44-12.69,24.69-18.26,38.92-2.79,7.12-5.47,14.48-8.1,21.98-.65,1.88-1.31,3.76-1.96,5.65l-.97,2.84-.23.69-.07.37-.15.75c-.4,2.04-.79,4.09-1.19,6.14-1.62,8.33-3.45,17.34-5.83,26.16-1.19,4.4-2.49,8.75-3.96,12.85-1.49,4.09-3.13,7.94-4.89,11.37-6.97,14.23-14.34,27.28-21.58,38.82-3.62,5.77-7.22,11.18-10.75,16.22-.88,1.24-1.76,2.48-2.63,3.71l-.65.91-.33.45c-.02.08-.08-.05-.12-.07l-.13-.14-.27-.27-2.13-2.19c-2.83-2.92-5.63-5.84-8.38-8.75-5.5-5.81-10.83-11.57-15.98-17.21-2.59-2.8-5.07-5.65-7.5-8.47l-7.18-8.32c-4.53-5.29-9.07-10.58-13.63-15.9-4.34-5.18-8.5-10.24-12.61-15.07,4.91,2.92,9.63,5.86,14.3,8.72,4.71,2.81,9.31,5.62,13.81,8.44,8.93,5.73,17.8,11.15,26.4,16.82,1.07.71,2.15,1.42,3.22,2.13l1.6,1.07.8.54s.07.07.1.05l.06-.14.11-.27.23-.54c1.22-2.85,2.44-5.7,3.66-8.57,2.44-5.65,4.86-11.17,7.29-16.59,4.85-10.85,9.69-21.33,14.55-31.63,4.8-10.32,9.54-20.5,14.33-30.54,6.36-12.95,12.72-25.91,19.07-38.86,3.25-6.6,6.49-13.2,9.73-19.8l4.86-9.89,4.77-9.93c12.67-26.5,25.29-52.9,37.82-79.11,6.23-13.12,12.43-26.19,18.61-39.2,3.07-6.51,6.13-13.01,9.18-19.49,2.98-6.52,5.96-13.02,8.93-19.5,18.58-43.58,30.9-100.9,40.05-137.21-23.11,47.23-46.2,94.57-69.08,142.14-23.23,47.37-46.49,94.85-69.47,142.63-1.22,2.62-2.45,5.25-3.67,7.89-1.25,2.62-2.49,5.26-3.74,7.89-2.49,5.28-4.98,10.59-7.49,15.92-4.99,10.67-9.99,21.45-14.99,32.33-1.25,2.72-2.5,5.45-3.75,8.18l-1.87,4.1c-.43.91-.33.78-.43,1.03l-.18.55c-.49,1.48-.98,2.97-1.48,4.47-1.01,3.14-2.02,6.31-3.05,9.49-2.05,6.6-4.36,13.69-6.83,21.42-2.68,8.3-5.39,16.67-8.1,25.08-.75,2.29-1.51,4.58-2.26,6.88l-1.17,3.53-.59,1.79-.15.45c-.02.12-.08.02-.12.02l-.14-.06-.54-.25c-2.9-1.34-5.93-2.77-9.08-4.28-3.14-1.53-6.46-3.09-9.79-4.87-3.34-1.78-6.8-3.66-10.38-5.65-7.21-3.91-14.68-8.5-22.6-13.46-3.96-2.48-8.04-5.04-12.09-7.84l-3.16-2.17-1.59-1.1-.8-.55-1.78-1.46c-4.76-3.91-9.51-7.81-14.25-11.71-75.58-62.66-145.62-127.68-205.45-191.23-3.74-3.97-7.46-7.92-11.15-11.84-3.69-3.93-7.35-7.83-10.88-11.83-7.1-7.94-14.07-15.81-20.88-23.62-6.82-7.81-13.48-15.55-19.99-23.21-6.47-7.71-12.64-15.47-18.73-23.08-6.06-7.63-11.96-15.18-17.67-22.64-2.84-3.75-5.65-7.46-8.44-11.13-2.78-3.68-5.4-7.44-8.04-11.12-10.49-14.77-20.22-29.17-29.12-43.15-5.84-5.32-11.53-10.64-23.11-21.53-1.4-3.96-4.16-8.7-7.56-13.75-4.12-4.89-8.3-9.93-12.53-15.09-2.11-2.59-4.23-5.2-6.37-7.84-1.06-1.32-2.13-2.65-3.2-3.99-1.05-1.35-2.1-2.71-3.16-4.08-8.44-10.93-16.94-22.3-25.31-33.94-4.18-5.82-8.33-11.71-12.41-17.65-4.07-5.96-7.97-12.05-11.85-18.12-7.72-12.17-15.08-24.46-21.88-36.71l21.15,28.31,10.58,14.16,5.29,7.07,5.38,7,21.5,28,10.75,14,5.38,7,5.46,6.92c66.11,64.72,132.63,132.41,200.91,200.65,68.26,68.23,138.29,137.01,211.08,203.8,4.57,4.15,9.14,8.3,13.71,12.46l3.43,3.12,1.71,1.56.49.43,1.7,1.49,3.22,2.81,3.2,2.69c4.27,3.58,8.43,7.23,12.73,10.66,4.26,3.47,8.47,6.96,12.78,10.22l6.37,4.89.79.6.2.15s.07.08.09.04l.06-.12.23-.48.92-1.93,1.82-3.87c4.79-10.31,9.47-20.61,13.31-30.58.96-2.49,1.87-4.95,2.73-7.36l1.25-3.58c2.66-5.73,5.32-11.45,7.98-17.18,5.32-11.56,10.63-23.1,15.94-34.62,2.63-5.77,5.26-11.54,7.88-17.3,2.55-5.8,5.11-11.6,7.66-17.39,8.36-20.87,19.96-44.25,33.18-68.92,6.61-12.33,13.63-24.98,20.85-37.79,3.63-6.4,7.29-12.84,10.96-19.32,3.63-6.5,7.28-13.02,10.93-19.55,14.61-26.09,29.22-52.2,42.23-77.03,6.51-12.42,12.61-24.51,18.11-36.13,5.55-11.59,10.26-22.83,14.3-33.35,24.71-61.44,51.18-122.79,77.8-184.57,13.4-30.84,27.17-61.61,41.05-92.39,13.74-30.87,27.74-61.67,41.97-92.39,7.11-15.36,14.29-30.69,21.51-46,7.15-15.35,14.31-30.7,21.54-46.01,14.45-30.62,29.1-61.12,43.93-91.47,7.39-15.2,14.77-30.37,22.14-45.53,7.4-15.15,14.84-30.25,22.31-45.31,7.47-15.06,14.98-30.07,22.52-45.04,7.54-14.97,15.06-29.91,22.57-44.82,212.21-432.55,415.87-870.08,623.16-1303.31,103.66-216.6,208.28-432.11,315.29-645.32,107-213.2,216.39-424.09,329.45-631.36l6.32-15.19c2.15-5.04,4.3-10.08,6.44-15.11,4.3-10.06,8.62-20.07,12.95-30-6.41,7.62-12.64,15.03-18.85,22.41,10.64-17.73,21.45-35.44,32.18-52.98,6.1-13.83,12.25-27.61,18.47-41.32,6.24-13.7,12.43-27.39,18.93-40.9,12.91-27.07,26.12-53.87,39.73-80.38,27.02-53.11,56.53-104.58,88.12-154.69,28.89-39.63-35.46,77.42-41.91,115.1,12.89-23.45,25.77-46.88,25.77-46.88,0,0,3.21,7.07,6.41,14.12,6.23-19.7,17.85-27.61,27.86-38.85-6.9,14.82-13.81,29.64-20.72,44.47l-10.35,22.26-5.17,11.13-5.09,11.18c-13.53,29.83-27.07,59.69-40.62,89.57-6.77,14.94-13.53,29.89-20.3,44.85-6.66,15.01-13.32,30.03-19.99,45.05-13.32,30.05-26.65,60.12-40,90.21-6.72,15.02-13.22,30.16-19.82,45.25-6.59,15.1-13.17,30.21-19.76,45.32-6.6,15.11-13.2,30.22-19.81,45.34l-9.92,22.68-9.81,22.74c-13.1,30.33-26.22,60.67-39.34,91.04-6.56,15.19-13.22,30.33-19.73,45.55-6.53,15.22-13.07,30.44-19.61,45.66,6.65-5.41,13.4-14.06,20.03-24.5,6.65-10.43,13.12-22.71,19.44-35.26,12.58-25.14,23.94-51.73,32.43-68.32,7.87-20.49,15.73-40.97,23.68-61.29,7.97-20.3,16.18-40.34,24.46-60.1,8.3-19.75,16.76-39.17,25.46-58.1,8.71-18.92,17.57-37.39,27-55.06,10.96-25.57,22.43-51.05,34.29-76.43,11.89-25.37,24.02-50.72,36.83-75.77,12.72-25.09,25.73-50.09,38.89-74.98,6.62-12.43,13.24-24.85,19.86-37.27,3.3-6.21,6.71-12.36,10.1-18.52,3.39-6.15,6.79-12.31,10.18-18.46,54.15-98.45,109.89-194.8,160.24-289.19,21.68-33.41,43.62-66.34,66.13-97.69,7.47-9.79,11.31-10.97,12.23-6.16.46,2.41.19,6.31-.72,11.39-.87,5.05-2.35,11.24-4.38,18.29-8.1,28.17-24.82,69.75-44.62,104.18ZM2195.91,3074.67c17.8-32.3,35.72-64.01,54.08-95.66,18.44-31.63,36.94-63.36,55.81-95.74,11.01-23.8,21.98-47.41,33.2-71.15,14.25-29.21,27.02-61.61,38.6-95.85,30.97-62.95,61.87-125.73,92.75-188.51,30.91-62.78,61.67-125.63,92.46-188.62-74.02,121.01-147.65,248.29-220.25,408.99,88.13-209.89,181.47-400.33,277.05-585.16,95.57-184.83,193.3-364.04,289.92-551.38,13.25-28.89,26.54-57.87,39.89-86.97,13.29-29.11,26.55-58.37,39.77-87.79,13.32-29.37,26.61-58.91,39.87-88.63,13.19-29.74,26.45-59.62,39.78-89.66,18.36-42.52,35.76-84.9,52.75-127.02,17.1-42.06,33.65-83.94,49.96-125.64-251.93,505.24-499.19,1010.07-746.12,1516.91-123.11,253.02-246.56,506.73-370.79,762.07-30.97,63.65-61.99,127.4-93.06,191.27-15.63,31.86-31.21,63.76-46.73,95.73-3.88,7.99-7.75,15.99-11.63,23.98-3.88,8-7.73,16.01-11.67,23.97-7.82,15.96-15.65,31.92-23.49,47.89-15.57,31.97-31.17,63.98-46.77,96.02-15.75,31.95-31.44,63.96-47.07,96.04-3.9,8.02-7.81,16.04-11.71,24.07-3.91,8.02-7.76,16.08-11.75,24.06-7.89,16.01-15.79,32.03-23.69,48.06-15.7,32.1-31.42,64.23-47.16,96.4,91.93-161.33,177.88-322.57,262.42-484.98,10.55-20.32,21.1-40.64,31.66-60.96,5.28-10.17,10.57-20.33,15.85-30.5,5.23-10.2,10.46-20.41,15.69-30.61,20.99-40.83,42.01-81.71,63.08-122.69,20.94-41.07,42.03-82.23,63.32-123.49,21.19-41.31,42.41-82.83,64-124.44ZM2158.73,3206.4c-15.26,34.02-30.34,67.99-45.27,101.91-14.92,33.91-29.8,67.73-44.64,101.44-14.71,33.76-29.38,67.42-44,100.98-14.68,33.52-29.22,66.99-43.6,100.39-5.12,11.26-10.26,22.55-15.41,33.87-5.21,11.29-10.44,22.6-15.68,33.94-10.44,22.68-20.93,45.44-31.43,68.24-5.23,11.41-10.47,22.82-15.7,34.24-2.6,5.72-5.24,11.41-7.91,17.1l-7.96,17.08c-10.56,22.79-21.12,45.56-31.64,68.28-5.23,11.37-10.46,22.73-15.68,34.07-2.6,5.67-5.2,11.34-7.79,17-2.63,5.64-5.26,11.28-7.89,16.91-10.5,22.52-20.9,44.96-31.17,67.27-10.21,22.34-20.35,44.52-30.4,66.51-10.16,21.93-20.17,43.69-29.97,65.24-9.8,21.55-19.41,42.9-28.8,63.99-2.34,5.27-4.68,10.53-7.01,15.77-2.36,5.22-4.71,10.42-7.05,15.6-4.65,10.38-9.26,20.68-13.83,30.9-9.09,20.46-17.92,40.63-26.46,60.47-8.47,19.87-16.78,39.35-24.89,58.39-4.06,9.52-8.03,18.95-11.92,28.28-1.93,4.67-3.86,9.31-5.77,13.92-.95,2.31-1.89,4.61-2.83,6.91-.47,1.15-.94,2.29-1.4,3.44l-1.13,2.89c-5.84,15.09-11.58,30.28-17.21,45.59-5.81,15.94-11.44,31.37-16.87,46.25-5.59,15.54-11.09,31.25-16.5,47.15,8.48-18.43,16.98-36.9,25.5-55.42,2.09-4.55,4.17-9.1,6.26-13.65,2.03-4.54,4.06-9.08,6.09-13.63,4.02-8.99,8.04-17.99,12.06-27.01,3.96-8.88,7.93-17.77,11.91-26.67,4.55-10.05,9.11-20.11,13.67-30.18,9.11-20.16,18.39-40.27,27.29-60.64,18.04-40.59,36.16-81.37,54.36-122.32,17.97-41.05,36.02-82.27,54.14-123.68,72.23-165.71,144.73-334.61,219-506.1-4.59,10.11-8.94,19.68-13.04,28.72-4.15,9.01-8.06,17.49-11.72,25.45-7.32,15.92-13.69,29.76-19.14,41.59-10.87,23.69-18.01,39.4-21.77,47.82-7.52,16.85-1.52,4.55,15.29-31.41,8.36-18,19.47-41.9,32.99-71,3.39-7.27,6.85-14.91,10.45-22.86,3.6-7.95,7.35-16.22,11.23-24.79,7.75-17.15,16.04-35.53,24.85-55.03,8.77-19.52,18.14-40.14,27.79-61.9,9.6-21.78,19.67-44.6,30.17-68.39,10.46-23.81,21.34-48.58,32.6-74.22,11.1-25.72,22.57-52.33,34.39-79.72,2.92-10.67,12.05-32.35,23.43-58.99Z"/>
        <path d="M3014.44,1192.02c40.65-72.11,81.62-144.77,122.57-217.42,41.29-72.42,82.34-144.85,124.74-215.83-20.8,24.99-40.64,48.4-60.48,73.34-19.74,24.98-39.61,51.44-60.76,82.42-6.75,10.62-13.43,21.39-20.06,32.28-3.31,5.45-6.62,10.92-9.89,16.43-3.23,5.53-6.46,11.08-9.71,16.65-12.9,22.31-25.58,45.06-38.11,68.15-6.26,11.54-12.49,23.17-18.68,34.87-6.19,11.7-12.37,23.46-18.41,35.31-12.15,23.69-24.18,47.61-36.17,71.63-11.96,24.04-23.97,48.15-35.8,72.33-11.86,24.17-23.72,48.34-35.54,72.44-11.87,24.08-23.86,48.03-35.83,71.81-11.96,23.78-24.03,47.35-36.27,70.59-35.34,66.71-69.99,134.13-104.56,202.03-17.21,33.97-34.32,68.08-51.38,102.32-8.5,17.13-17.02,34.28-25.54,51.45-8.45,17.2-16.9,34.41-25.37,51.65-67.57,137.99-133.83,277.97-199.34,419.51-65.46,141.57-130.28,284.57-194.69,428.8-16.15,36.02-32.26,72.14-48.31,108.34-16.08,36.17-32.18,72.4-48.31,108.69-32.1,72.58-64.31,145.39-96.61,218.42-14.22,28.11-43.51,91.2-59.69,141.09,87.14-181.52,171.36-361.57,254.54-540.26,83.18-178.69,165.32-356.03,248.19-532.22,82.87-176.19,166.4-351.26,252.43-525.36,86.02-174.09,174.49-347.22,267.05-519.45Z"/>
        <path d="M1537.25,4227.75c-11.67,26.59-23.34,53.17-34.97,79.68-5.88,13.22-11.93,26.32-17.92,39.43-3.01,6.55-6.02,13.08-9.02,19.61-1.51,3.26-3.01,6.52-4.52,9.78l-2.26,4.88-.28.61-.07.15h0s0,.02,0,.02v.06s.04.12.04.12c.55,2.47-.38,6.14-1.84,7.54,2.08,3.14,4.51,4.22,7.11,3.88,2.59-.34,5.29-2.11,7.96-4.59l.25-.24.03-.03h0s.04-.08.04-.08l.09-.16.34-.63.69-1.25,2.75-5.01c1.83-3.35,3.66-6.7,5.49-10.05,3.63-6.71,7.27-13.43,10.9-20.14,3.6-6.73,7.19-13.44,10.77-20.13,1.78-3.35,3.55-6.7,5.33-10.03,1.73-3.36,3.46-6.71,5.18-10.06,13.75-26.76,26.99-53.02,39.41-77.83l24.93-52.93c8.16-17.73,16.33-35.45,24.49-53.17,8.17-17.72,16.33-35.43,24.49-53.13,4.09-8.85,8.17-17.69,12.26-26.53,4.09-8.84,8.19-17.67,12.18-26.56,32.27-70.94,64.43-141.66,96.39-211.92-9.2,17.02-18.41,34.07-27.64,51.16-4.59,8.55-9.18,17.11-13.78,25.68-4.64,8.54-9.28,17.09-13.93,25.66-18.54,34.27-36.97,68.78-55.23,103.63-9.18,17.38-18.4,34.82-27.64,52.33-9.2,17.52-18.35,35.13-27.46,52.85-4.53,8.87-9.07,17.76-13.62,26.66-2.26,4.46-4.52,8.93-6.78,13.4l-3.38,6.71-3.44,6.69c-9.17,17.85-18.29,35.82-27.34,53.92Z"/>
        <path d="M1992.23,3309.31c-13.99,28.92-27.97,57.83-42.14,87.12-8.12,16.75-16.2,33.57-24.25,50.48-8.13,16.86-16.25,33.77-24.32,50.77-16.17,33.98-32.11,68.28-48.09,102.75-32.29,68.74-63.76,138.65-95.93,208.64,9.77-17.94,19.54-35.84,29.29-53.73l7.34-13.41,7.25-13.45c4.84-8.97,9.67-17.93,14.51-26.89,19.39-35.84,38.75-71.63,58.12-107.43,19.12-35.98,38.24-71.97,57.4-108.04,4.77-9.03,9.54-18.07,14.31-27.11,4.7-9.08,9.41-18.17,14.12-27.26,9.36-18.22,18.74-36.46,28.13-54.73-11.93-4.81-7.16-32.83,4.26-67.7Z"/>
      </g>
    </g>
  </g>
</svg>