<?xml version="1.0" encoding="UTF-8"?>
<svg id="Layer_2" data-name="Layer 2" xmlns="http://www.w3.org/2000/svg" xmlns:xlink="http://www.w3.org/1999/xlink" viewBox="0 0 388.66 110.8">
  <defs>
    <clipPath id="clippath">
      <circle cx="323.77" cy="88.89" r="21.91" fill="none"/>
    </clipPath>
    <clipPath id="clippath-1">
      <circle cx="323.77" cy="45.07" r="21.91" fill="none"/>
    </clipPath>
    <clipPath id="clippath-2">
      <circle cx="345.68" cy="88.89" r="21.91" fill="none"/>
    </clipPath>
    <clipPath id="clippath-3">
      <circle cx="345.68" cy="45.07" r="21.91" fill="none"/>
    </clipPath>
    <clipPath id="clippath-4">
      <circle cx="281.59" cy="88.89" r="21.91" fill="none"/>
    </clipPath>
    <clipPath id="clippath-5">
      <circle cx="281.59" cy="45.07" r="21.91" fill="none"/>
    </clipPath>
    <clipPath id="clippath-6">
      <circle cx="303.5" cy="88.89" r="21.91" fill="none"/>
    </clipPath>
    <clipPath id="clippath-7">
      <circle cx="303.5" cy="45.07" r="21.91" fill="none"/>
    </clipPath>
    <clipPath id="clippath-8">
      <circle cx="237.77" cy="88.89" r="21.91" fill="none"/>
    </clipPath>
    <clipPath id="clippath-9">
      <circle cx="237.77" cy="45.07" r="21.91" fill="none"/>
    </clipPath>
    <clipPath id="clippath-10">
      <circle cx="259.68" cy="88.89" r="21.91" fill="none"/>
    </clipPath>
    <clipPath id="clippath-11">
      <circle cx="259.68" cy="45.07" r="21.91" fill="none"/>
    </clipPath>
    <clipPath id="clippath-12">
      <circle cx="193.93" cy="88.89" r="21.91" fill="none"/>
    </clipPath>
    <clipPath id="clippath-13">
      <circle cx="193.93" cy="45.07" r="21.91" fill="none"/>
    </clipPath>
    <clipPath id="clippath-14">
      <circle cx="215.84" cy="88.89" r="21.91" fill="none"/>
    </clipPath>
    <clipPath id="clippath-15">
      <circle cx="215.84" cy="45.07" r="21.91" fill="none"/>
    </clipPath>
    <clipPath id="clippath-16">
      <circle cx="151.75" cy="88.89" r="21.91" fill="none"/>
    </clipPath>
    <clipPath id="clippath-17">
      <circle cx="151.75" cy="45.07" r="21.91" fill="none"/>
    </clipPath>
    <clipPath id="clippath-18">
      <circle cx="173.66" cy="88.89" r="21.91" fill="none"/>
    </clipPath>
    <clipPath id="clippath-19">
      <circle cx="173.66" cy="45.07" r="21.91" fill="none"/>
    </clipPath>
    <clipPath id="clippath-20">
      <circle cx="107.93" cy="88.89" r="21.91" fill="none"/>
    </clipPath>
    <clipPath id="clippath-21">
      <circle cx="107.93" cy="45.07" r="21.91" fill="none"/>
    </clipPath>
    <clipPath id="clippath-22">
      <circle cx="129.84" cy="88.89" r="21.91" fill="none"/>
    </clipPath>
    <clipPath id="clippath-23">
      <circle cx="129.84" cy="45.07" r="21.91" fill="none"/>
    </clipPath>
    <clipPath id="clippath-24">
      <circle cx="64.09" cy="88.89" r="21.91" fill="none"/>
    </clipPath>
    <clipPath id="clippath-25">
      <circle cx="64.09" cy="45.07" r="21.91" fill="none"/>
    </clipPath>
    <clipPath id="clippath-26">
      <circle cx="85.99" cy="88.89" r="21.91" fill="none"/>
    </clipPath>
    <clipPath id="clippath-27">
      <circle cx="85.99" cy="45.07" r="21.91" fill="none"/>
    </clipPath>
    <clipPath id="clippath-28">
      <circle cx="366.75" cy="88.89" r="21.91" fill="none"/>
    </clipPath>
    <clipPath id="clippath-29">
      <circle cx="21.91" cy="45.07" r="21.91" fill="none"/>
    </clipPath>
    <clipPath id="clippath-30">
      <circle cx="43.82" cy="88.89" r="21.91" fill="none"/>
    </clipPath>
    <clipPath id="clippath-31">
      <circle cx="43.82" cy="45.07" r="21.91" fill="none"/>
    </clipPath>
  </defs>
  <g id="Layer_1-2" data-name="Layer 1">
    <g>
      <g>
        <g clip-path="url(#clippath)">
          <rect x="288.85" y="76.97" width="46.26" height="23.58" transform="translate(400.73 -223.22) rotate(90)" fill="#231f20"/>
        </g>
        <g clip-path="url(#clippath-1)">
          <rect x="312.43" y="33.42" width="46.26" height="23.58" transform="translate(290.35 380.77) rotate(-90)" fill="#231f20"/>
        </g>
        <g clip-path="url(#clippath-2)">
          <rect x="310.76" y="76.97" width="46.26" height="23.58" transform="translate(422.64 -245.13) rotate(90)" fill="#231f20"/>
        </g>
        <g clip-path="url(#clippath-3)">
          <rect x="334.34" y="33.42" width="46.26" height="23.58" transform="translate(312.26 402.68) rotate(-90)" fill="#231f20"/>
        </g>
        <g clip-path="url(#clippath-4)">
          <rect x="246.67" y="76.97" width="46.26" height="23.58" transform="translate(358.56 -181.05) rotate(90)" fill="#231f20"/>
        </g>
        <g clip-path="url(#clippath-5)">
          <rect x="270.25" y="33.42" width="46.26" height="23.58" transform="translate(248.17 338.59) rotate(-90)" fill="#231f20"/>
        </g>
        <g clip-path="url(#clippath-6)">
          <rect x="268.58" y="76.97" width="46.26" height="23.58" transform="translate(380.47 -202.96) rotate(90)" fill="#231f20"/>
        </g>
        <g clip-path="url(#clippath-7)">
          <rect x="292.16" y="33.42" width="46.26" height="23.58" transform="translate(270.08 360.5) rotate(-90)" fill="#231f20"/>
        </g>
        <g clip-path="url(#clippath-8)">
          <rect x="202.85" y="76.97" width="46.26" height="23.58" transform="translate(314.74 -137.23) rotate(90)" fill="#231f20"/>
        </g>
        <g clip-path="url(#clippath-9)">
          <rect x="226.43" y="33.42" width="46.26" height="23.58" transform="translate(204.35 294.77) rotate(-90)" fill="#231f20"/>
        </g>
        <g clip-path="url(#clippath-10)">
          <rect x="224.76" y="76.97" width="46.26" height="23.58" transform="translate(336.65 -159.14) rotate(90)" fill="#231f20"/>
        </g>
        <g clip-path="url(#clippath-11)">
          <rect x="248.34" y="33.42" width="46.26" height="23.58" transform="translate(226.26 316.68) rotate(-90)" fill="#231f20"/>
        </g>
        <g clip-path="url(#clippath-12)">
          <rect x="159.01" y="76.97" width="46.26" height="23.58" transform="translate(270.89 -93.38) rotate(90)" fill="#231f20"/>
        </g>
        <g clip-path="url(#clippath-13)">
          <rect x="182.59" y="33.42" width="46.26" height="23.58" transform="translate(160.51 250.93) rotate(-90)" fill="#231f20"/>
        </g>
        <g clip-path="url(#clippath-14)">
          <rect x="180.92" y="76.97" width="46.26" height="23.58" transform="translate(292.8 -115.29) rotate(90)" fill="#231f20"/>
        </g>
        <g clip-path="url(#clippath-15)">
          <rect x="204.5" y="33.42" width="46.26" height="23.58" transform="translate(182.42 272.84) rotate(-90)" fill="#231f20"/>
        </g>
        <g clip-path="url(#clippath-16)">
          <rect x="116.83" y="76.97" width="46.26" height="23.58" transform="translate(228.72 -51.2) rotate(90)" fill="#231f20"/>
        </g>
        <g clip-path="url(#clippath-17)">
          <rect x="140.41" y="33.42" width="46.26" height="23.58" transform="translate(118.33 208.75) rotate(-90)" fill="#231f20"/>
        </g>
        <g clip-path="url(#clippath-18)">
          <rect x="138.74" y="76.97" width="46.26" height="23.58" transform="translate(250.63 -73.11) rotate(90)" fill="#231f20"/>
        </g>
        <g clip-path="url(#clippath-19)">
          <rect x="162.32" y="33.42" width="46.26" height="23.58" transform="translate(140.24 230.66) rotate(-90)" fill="#231f20"/>
        </g>
        <g clip-path="url(#clippath-20)">
          <rect x="73.01" y="76.97" width="46.26" height="23.58" transform="translate(184.9 -7.38) rotate(90)" fill="#231f20"/>
        </g>
        <g clip-path="url(#clippath-21)">
          <rect x="96.59" y="33.42" width="46.26" height="23.58" transform="translate(74.51 164.93) rotate(-90)" fill="#231f20"/>
        </g>
        <g clip-path="url(#clippath-22)">
          <rect x="94.92" y="76.97" width="46.26" height="23.58" transform="translate(206.81 -29.29) rotate(90)" fill="#231f20"/>
        </g>
        <g clip-path="url(#clippath-23)">
          <rect x="118.5" y="33.42" width="46.26" height="23.58" transform="translate(96.42 186.84) rotate(-90)" fill="#231f20"/>
        </g>
        <g clip-path="url(#clippath-24)">
          <rect x="29.17" y="76.97" width="46.26" height="23.58" transform="translate(141.05 36.46) rotate(90)" fill="#231f20"/>
        </g>
        <g clip-path="url(#clippath-25)">
          <rect x="52.75" y="33.42" width="46.26" height="23.58" transform="translate(30.67 121.09) rotate(-90)" fill="#231f20"/>
        </g>
        <g clip-path="url(#clippath-26)">
          <rect x="51.08" y="76.97" width="46.26" height="23.58" transform="translate(162.96 14.55) rotate(90)" fill="#231f20"/>
        </g>
        <g clip-path="url(#clippath-27)">
          <rect x="74.66" y="33.42" width="46.26" height="23.58" transform="translate(52.58 142.99) rotate(-90)" fill="#231f20"/>
        </g>
        <g clip-path="url(#clippath-28)">
          <rect x="331.83" y="76.97" width="46.26" height="23.58" transform="translate(443.72 -266.21) rotate(90)" fill="#231f20"/>
        </g>
        <g clip-path="url(#clippath-29)">
          <rect x="10.57" y="33.42" width="46.26" height="23.58" transform="translate(-11.51 78.91) rotate(-90)" fill="#231f20"/>
        </g>
        <g clip-path="url(#clippath-30)">
          <rect x="8.9" y="76.97" width="46.26" height="23.58" transform="translate(120.79 56.73) rotate(90)" fill="#231f20"/>
        </g>
        <g clip-path="url(#clippath-31)">
          <rect x="32.48" y="33.42" width="46.26" height="23.58" transform="translate(10.4 100.82) rotate(-90)" fill="#231f20"/>
        </g>
      </g>
      <g>
        <path d="M25.46,13l-.33-1.72c-.08-.41-.2-.97-.36-1.7l-1.57-6.98-.57-2.35c.81.01,1.46.02,1.96.02.56,0,1.22,0,1.96-.02.17,1.02.31,1.76.41,2.23l.81,3.77c.17.81.35,1.8.56,2.96l.32-1.31,1.14-4.32.79-3.34c.88.01,1.62.02,2.23.02.66,0,1.4,0,2.22-.02l.61,3.93.84,5.01.37-1.37c.07-.24.14-.48.22-.72.08-.24.24-.73.48-1.45l1.17-3.59.55-1.81c.77,0,1.41,0,1.92,0,.57,0,1.21,0,1.91,0l-3.73,10.86-.6,1.9c-.96-.01-1.8-.02-2.52-.02-.76,0-1.59,0-2.51.02l-.22-1.28-.84-4.46c-.04-.27-.08-.54-.12-.83s-.08-.72-.15-1.32l-.34,1.45c-.08.32-.17.65-.26.98l-1.55,5.46c-.97-.01-1.77-.02-2.41-.02-.68,0-1.48,0-2.41.02Z" fill="#231f20"/>
        <path d="M44.29,13l.37-5.1.17-3.72.05-1.65c.01-.48.02-.94.02-1.38V.24c1,.01,1.75.02,2.25.02.39,0,1.07,0,2.04-.02-.15,1.79-.25,3.37-.29,4.74h5.23c.03-.51.06-1.2.09-2.07.03-.87.04-1.47.04-1.78,0-.17,0-.46-.02-.88l2.27.02c.24,0,.91,0,2.02-.02-.23,3.2-.38,5.58-.44,7.14s-.1,3.43-.1,5.61l-2.1-.02c-.31,0-1.07,0-2.25.02.16-1.48.27-3.21.33-5.18h-5.24l-.16,5.18-2.23-.02c-.28,0-.97,0-2.06.02Z" fill="#231f20"/>
        <path d="M68.3,0c1.02,0,2.01.13,2.96.4.95.27,1.78.7,2.49,1.29s1.24,1.27,1.6,2.03c.35.77.53,1.65.53,2.64,0,1.05-.19,2.01-.58,2.88-.39.88-.95,1.62-1.68,2.23s-1.6,1.06-2.61,1.34c-1.01.28-2.07.43-3.16.43s-2.12-.14-3.11-.42c-.99-.28-1.86-.73-2.59-1.35s-1.25-1.31-1.56-2.07-.46-1.6-.46-2.53c0-1.36.32-2.56.97-3.59s1.62-1.84,2.89-2.42c1.28-.58,2.72-.87,4.32-.87ZM68.13,2.81c-.74,0-1.4.18-2,.53-.6.35-1.05.84-1.37,1.47-.32.63-.48,1.3-.48,2.01,0,.66.15,1.26.44,1.81.29.55.74.98,1.33,1.29.6.31,1.23.46,1.89.46.71,0,1.36-.17,1.96-.52s1.04-.83,1.36-1.46.47-1.28.47-1.97-.14-1.28-.43-1.85c-.29-.56-.71-1-1.27-1.31-.56-.31-1.18-.47-1.88-.47Z" fill="#231f20"/>
        <path d="M77.32,13c.16-1.47.28-2.67.35-3.6.13-1.69.24-3.38.3-5.05s.1-3.04.1-4.11c.87.01,1.64.02,2.31.02.46,0,1.11,0,1.96-.02l-.23,3.38-.29,5.29-.04,1.3c1.1.02,1.82.03,2.15.03,1.69,0,2.96-.02,3.83-.07l-.21,2.82c-1.68-.01-3.29-.02-4.81-.02-2.06,0-3.87,0-5.42.02Z" fill="#231f20"/>
        <path d="M88.94,13c.16-1.61.28-2.95.35-4.04.07-1.08.15-2.53.22-4.32.07-1.8.11-2.99.11-3.57V.24c1.5.01,3.33.02,5.48.02,1.98,0,3.73,0,5.24-.02l-.02.31c0,.08-.02.34-.05.81l-.06,1.02c-.01.22-.02.44-.02.66-1.24-.05-2.27-.07-3.11-.07-.92,0-1.54,0-1.87,0-.32,0-.83.02-1.51.04l-.12,2.15c.76.02,1.64.03,2.64.03.36,0,1.31-.02,2.86-.07-.06.8-.12,1.75-.18,2.85-1.11-.01-1.96-.02-2.56-.02-.88,0-1.87.02-2.97.07l-.11,2.27h1.1c.33,0,1,0,2.03-.03l1.99-.05c.29,0,.79-.03,1.48-.08-.08.92-.14,1.88-.19,2.86-1.56-.01-3.28-.02-5.14-.02h-4.23s-1.36.02-1.36.02Z" fill="#231f20"/>
        <path d="M101.81,12.8c-.08-1.33-.18-2.39-.29-3.19.72.31,1.36.53,1.92.65.56.12,1.05.18,1.48.18.56,0,1-.08,1.33-.24.33-.16.5-.39.5-.71,0-.11-.02-.21-.05-.3s-.09-.21-.18-.33c-.09-.12-.22-.25-.39-.4l-1.81-1.53c-.42-.35-.72-.6-.89-.76-.34-.32-.61-.61-.79-.89s-.33-.55-.41-.84c-.09-.28-.13-.58-.13-.9,0-.38.07-.75.21-1.12.14-.36.34-.71.62-1.02.28-.32.64-.59,1.1-.82s.94-.39,1.46-.47c.52-.08,1.05-.13,1.61-.13,1.08,0,2.26.12,3.54.36.02.43.04.82.07,1.18.03.36.09.99.18,1.88-.59-.23-1.13-.39-1.62-.48-.49-.09-.91-.14-1.26-.14-.5,0-.92.09-1.25.27s-.49.41-.49.67c0,.12.03.25.08.36.05.12.15.26.29.42.14.16.33.33.56.52.23.19.59.47,1.09.85l.69.53c.21.16.43.36.66.59s.44.46.62.68c.17.22.31.43.4.62.09.19.16.38.21.57s.07.39.07.61c0,.56-.14,1.09-.41,1.6s-.67.92-1.17,1.25-1.06.56-1.67.69c-.61.13-1.24.2-1.92.2-1.04,0-2.35-.15-3.93-.44Z" fill="#231f20"/>
        <path d="M111.08,13l.8-1.35,4.97-9.1.53-1.02c.15-.3.37-.73.64-1.29,1.13.01,1.95.02,2.47.02.9,0,1.74,0,2.51-.02l1.4,3.9,2.85,7.5.56,1.36c-1.11-.01-1.78-.02-2.02-.02-.54,0-1.33,0-2.38.02-.28-1.03-.69-2.24-1.22-3.63h-4.84c-.56,1.1-1.13,2.3-1.73,3.63-1.19-.01-1.92-.02-2.19-.02-.49,0-1.27,0-2.36.02ZM118.52,6.65h2.98c-.74-2.2-1.15-3.41-1.22-3.63-.42.92-.78,1.66-1.08,2.25l-.69,1.38Z" fill="#231f20"/>
        <path d="M128.73,13c.16-1.47.28-2.67.35-3.6.13-1.69.24-3.38.3-5.05s.1-3.04.1-4.11c.87.01,1.64.02,2.31.02.46,0,1.11,0,1.96-.02l-.23,3.38-.29,5.29-.04,1.3c1.1.02,1.82.03,2.15.03,1.69,0,2.96-.02,3.83-.07l-.21,2.82c-1.68-.01-3.29-.02-4.81-.02-2.06,0-3.87,0-5.42.02Z" fill="#231f20"/>
        <path d="M140.35,13c.16-1.61.28-2.95.35-4.04.07-1.08.15-2.53.22-4.32.07-1.8.11-2.99.11-3.57V.24c1.5.01,3.33.02,5.48.02,1.98,0,3.73,0,5.24-.02l-.02.31c0,.08-.02.34-.05.81l-.06,1.02c-.01.22-.02.44-.02.66-1.24-.05-2.27-.07-3.11-.07-.92,0-1.54,0-1.87,0-.32,0-.83.02-1.51.04l-.12,2.15c.76.02,1.64.03,2.64.03.36,0,1.31-.02,2.86-.07-.06.8-.12,1.75-.18,2.85-1.11-.01-1.96-.02-2.56-.02-.88,0-1.87.02-2.97.07l-.11,2.27h1.1c.33,0,1,0,2.03-.03l1.99-.05c.29,0,.79-.03,1.48-.08-.08.92-.14,1.88-.19,2.86-1.56-.01-3.28-.02-5.14-.02h-4.23s-1.36.02-1.36.02Z" fill="#231f20"/>
        <path d="M158.29,13c.13-1.37.22-2.45.27-3.23.06-1.07.13-2.54.19-4.41.06-1.87.09-3.19.09-3.95,0-.27,0-.66,0-1.16.85.02,1.53.03,2.03.03.7,0,1.51-.01,2.44-.04.93-.03,1.73-.04,2.39-.04.8,0,1.37.02,1.71.07.45.06.84.16,1.18.3.34.14.62.32.84.53.25.25.45.55.59.9.16.4.24.83.24,1.28,0,.35-.05.69-.14,1.02-.09.32-.22.61-.39.86-.17.25-.36.46-.57.63-.21.17-.42.3-.62.39-.2.09-.47.19-.81.28.34.06.61.12.82.19.21.07.42.19.66.35.23.16.44.36.63.61.19.25.33.53.42.84.09.31.14.63.14.98,0,.47-.08.92-.24,1.34-.16.42-.38.78-.67,1.07-.24.26-.56.47-.95.65s-.79.31-1.2.37c-.33.05-.94.09-1.82.11-.88.02-1.82.04-2.8.04h-2.53s-1.87,0-1.87,0ZM162.35,10.44h1.85c.49,0,.85-.03,1.08-.08.28-.07.5-.16.64-.27s.26-.26.35-.46c.09-.19.13-.41.13-.64,0-.21-.04-.39-.11-.54-.07-.16-.18-.29-.32-.39-.14-.11-.31-.18-.52-.23s-.53-.07-.96-.07h-2.03l-.12,2.69ZM162.57,5.21h1.37c.45,0,.77-.01.96-.03.19-.02.37-.06.55-.12.18-.06.33-.15.47-.28s.22-.28.28-.44.08-.32.08-.49c0-.23-.06-.44-.17-.62-.11-.18-.29-.31-.54-.4-.25-.09-.63-.13-1.14-.13h-1.73l-.12,2.5Z" fill="#231f20"/>
        <path d="M172.79.24c1,.01,1.7.02,2.11.02.51,0,1.19,0,2.05-.02l-.29,3.97c-.06.75-.1,1.45-.13,2.1-.03.65-.04,1.11-.04,1.36,0,.47.04.87.11,1.19.07.32.2.59.38.81.19.22.44.39.77.5.33.11.67.17,1.03.17.31,0,.59-.04.86-.12.21-.07.4-.16.57-.28.15-.11.28-.24.38-.39.13-.18.25-.4.36-.67.1-.25.18-.58.23-.98.06-.41.13-1.34.23-2.78.08-1.23.15-2.36.19-3.38.04-.99.07-1.49.11-1.49h4.24l-.47,6.63c0,.12,0,.23,0,.31-.03,1.3-.11,2.21-.25,2.74-.14.53-.37,1-.69,1.39-.32.39-.79.75-1.4,1.06-.62.31-1.31.54-2.1.67s-1.57.2-2.37.2c-.72,0-1.41-.05-2.08-.15-.62-.1-1.17-.25-1.66-.43-.49-.19-.92-.41-1.29-.67-.33-.24-.59-.48-.77-.72s-.32-.54-.42-.88c-.12-.39-.17-.8-.17-1.24,0-.15,0-.38.02-.68.01-.3.04-.74.09-1.3l.12-1.5c.03-.39.07-.97.11-1.73l.17-3.69Z" fill="#231f20"/>
        <path d="M190.29,13c.06-.5.14-1.36.23-2.57s.13-2.06.13-2.56l-4.4-7.63c.97.01,1.76.02,2.39.02s1.32,0,2.16-.02c.26.62.6,1.37,1.04,2.23.44.86.8,1.63,1.07,2.31.74-1.26,1.33-2.25,1.78-2.96s.77-1.23.96-1.58c.81.01,1.6.02,2.35.02.4,0,1.12,0,2.17-.02l-4.22,6.05c-.84,1.21-1.26,1.84-1.26,1.9v.09s0,.09,0,.09v.09s-.08,1.42-.08,1.42c-.04.94-.08,1.98-.11,3.11-.9-.01-1.6-.02-2.09-.02s-1.21,0-2.12.02Z" fill="#231f20"/>
        <path d="M200.25,13c.37-5,.55-8.85.55-11.55V.24c1.11.01,1.86.02,2.24.02.17,0,.86,0,2.07-.02-.12,1.4-.21,2.73-.28,3.98-.09,1.74-.15,3.38-.19,4.89-.04,1.52-.06,2.81-.06,3.88l-1.97-.02c-.38,0-1.17,0-2.36.02Z" fill="#231f20"/>
        <path d="M206.95,13l.19-1.96.37-6.65.11-2.68V.24c.99.01,1.87.02,2.64.02.54,0,1.31,0,2.3-.02l4.1,7.25.57,1.07c.07-1.05.15-2.51.22-4.4.08-1.89.11-3.19.11-3.92.79.01,1.42.02,1.89.02.22,0,.84,0,1.88-.02l-.23,2.79-.43,7.74-.06,2.23c-.83-.01-1.61-.02-2.34-.02-.6,0-1.44,0-2.5.02-.33-.61-.58-1.05-.74-1.33l-1.61-2.66c-.53-.87-1.02-1.71-1.47-2.51-.29-.5-.6-1.06-.91-1.66l-.21,4.43-.1,3.73c-.79-.01-1.4-.02-1.81-.02-.35,0-1.01,0-1.98.02Z" fill="#231f20"/>
        <path d="M230.81,5.56c.88.01,1.71.02,2.51.02,1.36,0,2.42,0,3.19-.02-.08.85-.17,2.06-.25,3.63-.09,1.56-.14,2.75-.16,3.54-.74.13-1.35.23-1.83.29-.48.06-1.07.11-1.74.16-.68.05-1.29.07-1.82.07-.87,0-1.73-.07-2.57-.21-.84-.14-1.59-.36-2.25-.66-.66-.31-1.22-.72-1.66-1.24-.44-.52-.78-1.14-1.02-1.86-.24-.72-.36-1.46-.36-2.22,0-1.26.32-2.44.97-3.52.65-1.08,1.58-1.94,2.79-2.58,1.21-.63,2.78-.95,4.7-.95,1.4,0,2.96.17,4.66.5,0,.91.04,1.92.12,3.04-.46-.15-.83-.26-1.12-.34s-.62-.15-1-.21-.74-.11-1.09-.14-.65-.05-.92-.05c-.71,0-1.37.1-2,.29s-1.17.5-1.62.91c-.45.41-.79.9-1.01,1.46-.22.57-.34,1.17-.34,1.79s.13,1.21.38,1.71c.26.5.66.88,1.22,1.14.56.26,1.18.39,1.86.39.57,0,1.19-.08,1.87-.24l.11-2.03c-.42-.02-.66-.03-.74-.03h-1.02s.07-1.14.07-1.14c0-.12.02-.3.03-.54.01-.23.02-.55.02-.96Z" fill="#231f20"/>
        <path d="M237.22,15.39l1.16-3.24.52-1.48c.89.01,1.54.02,1.95.02.33,0,.95,0,1.85-.02-.32.53-.65,1.06-.99,1.6-.34.54-.67,1.08-1,1.63-.32.55-.63,1.04-.91,1.49-.56-.01-.99-.02-1.27-.02-.35,0-.79,0-1.33.03Z" fill="#231f20"/>
        <path d="M249.07,12.8c-.08-1.33-.18-2.39-.29-3.19.72.31,1.36.53,1.92.65.56.12,1.05.18,1.48.18.56,0,1-.08,1.33-.24.33-.16.5-.39.5-.71,0-.11-.02-.21-.05-.3s-.09-.21-.18-.33c-.09-.12-.22-.25-.39-.4l-1.81-1.53c-.42-.35-.72-.6-.89-.76-.34-.32-.61-.61-.79-.89s-.33-.55-.41-.84c-.09-.28-.13-.58-.13-.9,0-.38.07-.75.21-1.12.14-.36.34-.71.62-1.02.28-.32.64-.59,1.1-.82s.94-.39,1.46-.47c.52-.08,1.05-.13,1.61-.13,1.08,0,2.26.12,3.54.36.02.43.04.82.07,1.18.03.36.09.99.18,1.88-.59-.23-1.13-.39-1.62-.48-.49-.09-.91-.14-1.26-.14-.5,0-.92.09-1.25.27s-.49.41-.49.67c0,.12.03.25.08.36.05.12.15.26.29.42.14.16.33.33.56.52.23.19.59.47,1.09.85l.69.53c.21.16.43.36.66.59s.44.46.62.68c.17.22.31.43.4.62.09.19.16.38.21.57s.07.39.07.61c0,.56-.14,1.09-.41,1.6s-.67.92-1.17,1.25-1.06.56-1.67.69c-.61.13-1.24.2-1.92.2-1.04,0-2.35-.15-3.93-.44Z" fill="#231f20"/>
        <path d="M260.1,13c.37-5,.55-8.85.55-11.55V.24c1.11.01,1.86.02,2.24.02.17,0,.86,0,2.07-.02-.12,1.4-.21,2.73-.28,3.98-.09,1.74-.16,3.38-.19,4.89-.04,1.52-.06,2.81-.06,3.88l-1.97-.02c-.38,0-1.17,0-2.36.02Z" fill="#231f20"/>
        <path d="M266.57,13l.24-1.89.59-6.55.29-4.32c1.18.01,2.11.02,2.79.02.56,0,1.41,0,2.57-.02.08.54.15.94.21,1.22.06.28.2.82.43,1.63.23.81.41,1.5.55,2.09.14.59.34,1.6.62,3.02.28-.98.54-1.82.77-2.52.23-.7.52-1.5.87-2.4s.57-1.48.66-1.76c.09-.28.22-.7.38-1.28.96.01,1.9.02,2.83.02.63,0,1.5,0,2.61-.02-.12,2.1-.2,3.9-.24,5.41-.08,2.95-.12,4.98-.12,6.09,0,.23,0,.65.02,1.25-.85-.01-1.44-.02-1.78-.02-.49,0-1.1,0-1.82.02.05-.56.12-1.9.2-4,.08-2.11.12-3.46.12-4.04,0-.26,0-.61-.02-1.07l-1.26,3.8-1.81,5.31c-.83-.01-1.41-.02-1.72-.02-.4,0-1.01,0-1.83.02l-1.19-5.14-.69-2.74c-.03-.11-.05-.24-.09-.39-.03-.16-.08-.43-.15-.82l-.24,2.59-.32,5.31-.03,1.2c-.88-.01-1.45-.02-1.69-.02-.33,0-.91,0-1.73.02Z" fill="#231f20"/>
        <path d="M284.95,13l.19-2.39.25-4.67.11-3.31c0-.36,0-.71,0-1.07,0-.27,0-.71,0-1.32.85.02,1.53.03,2.04.03s1.17-.01,2.03-.04c.86-.03,1.59-.04,2.18-.04.86,0,1.5.05,1.91.16.41.11.79.27,1.12.5.33.23.61.49.83.8.22.31.38.65.49,1.04.11.39.16.79.16,1.19,0,.83-.21,1.6-.62,2.29-.42.69-1,1.21-1.76,1.55s-1.61.51-2.55.51c-.35,0-.75-.04-1.2-.11-.05-.29-.15-.71-.29-1.28-.14-.57-.26-.99-.35-1.26.28.06.58.08.88.08.65,0,1.13-.15,1.45-.45.32-.3.48-.67.48-1.11,0-.21-.04-.4-.11-.57-.07-.17-.18-.3-.34-.41-.15-.11-.32-.17-.51-.21-.19-.03-.4-.05-.63-.05s-.47,0-.72.02l-.81.06c-.08,1.2-.15,2.54-.19,4.01-.08,2.68-.12,4.29-.12,4.82v1.21l-1.91-.02c-.27,0-.94,0-2,.02Z" fill="#231f20"/>
        <path d="M297.38,13c.16-1.47.28-2.67.35-3.6.13-1.69.24-3.38.3-5.05s.1-3.04.1-4.11c.87.01,1.64.02,2.31.02.46,0,1.11,0,1.96-.02l-.23,3.38-.29,5.29-.04,1.3c1.1.02,1.82.03,2.15.03,1.69,0,2.96-.02,3.83-.07l-.21,2.82c-1.68-.01-3.29-.02-4.81-.02-2.06,0-3.87,0-5.42.02Z" fill="#231f20"/>
        <path d="M309.05,13c.37-5,.55-8.85.55-11.55V.24c1.11.01,1.86.02,2.24.02.17,0,.86,0,2.07-.02-.12,1.4-.21,2.73-.28,3.98-.09,1.74-.15,3.38-.19,4.89-.04,1.52-.06,2.81-.06,3.88l-1.97-.02c-.38,0-1.17,0-2.36.02Z" fill="#231f20"/>
        <path d="M315.78,13c.13-1.26.23-2.28.28-3.05.08-1.13.15-2.69.22-4.68s.11-3.32.11-4V.24c1.93.01,3.72.02,5.38.02s3.28,0,4.83-.02c-.1,1.43-.15,2.37-.15,2.81l-.84-.03h-.67s-.67-.02-.67-.02h-1.89c-.22,0-.86,0-1.91.02l-.09,2.18,1.39.03h1.56c.45,0,1.13,0,2.06-.03-.07,1.18-.11,2.1-.11,2.77-1.03-.03-1.79-.05-2.29-.05-.84,0-1.77.02-2.76.05l-.1,3.36v1.25s0,.41,0,.41l-2.07-.02c-.16,0-.91,0-2.25.02Z" fill="#231f20"/>
        <path d="M327.86,13c.37-5,.55-8.85.55-11.55V.24c1.11.01,1.86.02,2.24.02.17,0,.86,0,2.07-.02-.12,1.4-.21,2.73-.28,3.98-.09,1.74-.15,3.38-.19,4.89-.04,1.52-.06,2.81-.06,3.88l-1.97-.02c-.38,0-1.17,0-2.36.02Z" fill="#231f20"/>
        <path d="M334.54,13c.16-1.61.28-2.95.35-4.04.07-1.08.15-2.53.22-4.32.07-1.8.11-2.99.11-3.57V.24c1.5.01,3.33.02,5.48.02,1.98,0,3.72,0,5.24-.02l-.02.31c0,.08-.02.34-.05.81l-.06,1.02c-.01.22-.02.44-.02.66-1.24-.05-2.28-.07-3.11-.07-.92,0-1.55,0-1.87,0-.32,0-.83.02-1.51.04l-.12,2.15c.76.02,1.64.03,2.64.03.36,0,1.31-.02,2.87-.07-.06.8-.12,1.75-.18,2.85-1.11-.01-1.96-.02-2.55-.02-.88,0-1.87.02-2.97.07l-.11,2.27h1.1c.33,0,1,0,2.03-.03l1.99-.05c.29,0,.79-.03,1.48-.08-.08.92-.14,1.88-.19,2.86-1.56-.01-3.28-.02-5.14-.02h-4.23s-1.37.02-1.37.02Z" fill="#231f20"/>
        <path d="M347.54,13c.14-1.42.24-2.56.29-3.41.08-1.27.15-2.92.23-4.93.06-1.54.09-2.65.09-3.32V.24c.75.02,1.4.03,1.94.03s1.21-.01,2.07-.04c.85-.03,1.65-.04,2.4-.04.86,0,1.61.05,2.26.15.65.1,1.25.31,1.81.62s1.03.72,1.41,1.22c.38.5.67,1.09.87,1.77.2.68.3,1.37.3,2.09s-.08,1.38-.23,2.03c-.15.65-.37,1.24-.64,1.76s-.6.97-.97,1.35-.79.7-1.26.97c-.35.2-.71.36-1.07.47-.36.11-.85.2-1.47.27-.69.08-1.48.11-2.36.11l-3.88-.03c-.37,0-.96,0-1.78.03ZM351.69,10.19c.35.03.72.05,1.11.05.65,0,1.24-.06,1.75-.17.51-.11.96-.35,1.35-.72.39-.37.67-.84.86-1.42s.28-1.17.28-1.77c0-.74-.14-1.37-.41-1.87s-.64-.86-1.1-1.06c-.46-.2-1.08-.3-1.87-.3-.46,0-1.01.02-1.63.06l-.32,7.21Z" fill="#231f20"/>
        <path d="M362.73,13c.05-.83.1-1.96.13-3.38l1.98.03c.21,0,.77,0,1.67-.03-.05.68-.11,1.81-.17,3.38l-1.67-.02c-.12,0-.77,0-1.94.02Z" fill="#231f20"/>
      </g>
    </g>
  </g>
</svg>