<?xml version="1.0" encoding="UTF-8"?>
<svg id="Layer_2" data-name="Layer 2" xmlns="http://www.w3.org/2000/svg" xmlns:xlink="http://www.w3.org/1999/xlink" viewBox="0 0 101.4 1650.84">
  <defs>
    <filter id="drop-shadow-1" x="-8.71" y="-8.67" width="153.36" height="1702.8" filterUnits="userSpaceOnUse">
      <feOffset dx="17.28" dy="17.28"/>
      <feGaussianBlur result="blur" stdDeviation="8.64"/>
      <feFlood flood-color="#231f20" flood-opacity=".91"/>
      <feComposite in2="blur" operator="in"/>
      <feComposite in="SourceGraphic"/>
    </filter>
  </defs>
  <g id="Layer_1-2" data-name="Layer 1">
    <g filter="url(#drop-shadow-1)">
      <rect x="50.57" y="1545.55" width="50.57" height="64.44" transform="translate(151.7 3155.53) rotate(180)"/>
      <rect x="50.57" y="1466.34" width="50.57" height="63.24" transform="translate(151.7 2995.92) rotate(180)"/>
      <rect x="50.57" y="1368.11" width="50.57" height="67.3"/>
      <rect y="1484.66" width="50.57" height="59"/>
      <rect x="50.57" y="1296.89" width="50.57" height="71.22"/>
      <rect y="1401.77" width="50.57" height="66.04"/>
      <rect y="1577.31" width="50.66" height="73.53" transform="translate(50.66 3228.14) rotate(180)"/>
      <rect y="1228.96" width="50.57" height="108.24"/>
      <rect x="50.57" y="1183.5" width="50.57" height="67.04"/>
      <rect y="829.55" width="50.57" height="64.44"/>
      <rect y="932.16" width="50.57" height="35.54"/>
      <rect y="996.9" width="50.57" height="52.9" transform="translate(50.57 2046.71) rotate(180)"/>
      <rect x="50.57" y="1016.15" width="50.57" height="103.31" transform="translate(151.7 2135.61) rotate(180)"/>
      <rect y="1113.31" width="50.57" height="67.04" transform="translate(50.57 2293.66) rotate(180)"/>
      <rect x="50.66" y="878.71" width="50.57" height="71.22"/>
      <rect x=".16" y="445.52" width="50.57" height="71.22" transform="translate(50.89 962.26) rotate(180)"/>
      <rect x="50.73" y="476.44" width="50.57" height="108.24" transform="translate(152.02 1061.11) rotate(180)"/>
      <rect x=".16" y="563.09" width="50.57" height="67.04" transform="translate(50.89 1193.23) rotate(180)"/>
      <rect x="50.73" y="763.83" width="50.57" height="52.9"/>
      <rect x=".16" y="694.17" width="50.57" height="103.31"/>
      <rect x="50.73" y="633.28" width="50.57" height="67.04"/>
      <rect x=".11" y="135.61" width="50.57" height="64.44"/>
      <rect x=".11" y="238.22" width="50.57" height="35.54"/>
      <rect x=".11" y="302.97" width="50.57" height="52.9" transform="translate(50.79 658.83) rotate(180)"/>
      <rect x="50.68" y="322.21" width="50.57" height="103.31" transform="translate(151.92 747.73) rotate(180)"/>
      <rect x="50.77" y="184.77" width="50.57" height="71.22"/>
      <rect y="400.66" width="50.57" height="35.54"/>
      <rect x=".26" width="50.57" height="108.24"/>
      <rect x="50.67" width="50.73" height="108.24"/>
    </g>
  </g>
</svg>