<?xml version="1.0" encoding="UTF-8"?>
<svg id="Layer_2" data-name="Layer 2" xmlns="http://www.w3.org/2000/svg" viewBox="0 0 329.64 946.04">
  <g id="Layer_1-2" data-name="Layer 1">
    <g>
      <rect x="74.53" y="218.35" width="472.58" height="37.64" transform="translate(547.99 -73.66) rotate(90)"/>
      <rect x="73.78" y="690.18" width="474.08" height="37.64" transform="translate(1019.82 398.18) rotate(90)"/>
      <rect x="29.09" y="225.96" width="472.58" height="22.41" transform="translate(502.55 -28.22) rotate(90)"/>
      <rect x="-3.86" y="226.17" width="472.58" height="21.99" transform="translate(469.6 4.73) rotate(90)"/>
      <rect x="-37.31" y="225.47" width="472.58" height="23.4" transform="translate(-38.19 436.15) rotate(-90)"/>
      <rect x="1.77" y="699.49" width="472.58" height="20.52" transform="translate(-471.69 947.82) rotate(-90)"/>
      <rect x="-61.39" y="224.78" width="472.58" height="24.77" transform="translate(-62.27 412.06) rotate(-90)"/>
      <rect x="-25.83" y="698.27" width="472.58" height="22.97" transform="translate(-499.29 920.22) rotate(-90)"/>
      <rect x="36.08" y="696.53" width="473.46" height="25.57" transform="translate(982.12 436.5) rotate(90)"/>
      <rect x="-78.58" y="690.93" width="472.58" height="37.64" transform="translate(-552.04 867.46) rotate(-90)"/>
      <rect x="-101.55" y="225.51" width="472.58" height="23.31" transform="translate(-102.43 371.91) rotate(-90)"/>
      <rect x="-225.09" y="698.55" width="472.58" height="22.41" transform="translate(-698.55 720.96) rotate(-90)"/>
      <rect x="-194.43" y="703.57" width="472.58" height="12.36" transform="translate(-667.89 751.61) rotate(-90)"/>
      <rect x="-168.9" y="700.55" width="472.58" height="18.4" transform="translate(777.14 642.36) rotate(90)"/>
      <rect x="-153.44" y="219.2" width="472.58" height="35.92" transform="translate(320.02 154.32) rotate(90)"/>
      <rect x="-125.96" y="698.09" width="472.58" height="23.31" transform="translate(820.08 599.42) rotate(90)"/>
      <rect x="-206.82" y="223.91" width="472.58" height="24.77" transform="translate(-206.82 265.77) rotate(-90)"/>
    </g>
  </g>
</svg>