<?xml version="1.0" encoding="UTF-8"?>
<svg id="Layer_2" data-name="Layer 2" xmlns="http://www.w3.org/2000/svg" viewBox="0 0 95.49 1510.05">
  <g id="Layer_1-2" data-name="Layer 1">
    <g>
      <rect x="63.42" y="47.7" width="15.9" height="15.9" transform="translate(127.02 -15.72) rotate(90)" fill="#231f20"/>
      <rect x="79.32" y="63.6" width="15.9" height="15.9" transform="translate(158.82 -15.72) rotate(90)" fill="#231f20"/>
      <rect x="63.42" y="79.5" width="15.9" height="15.9" transform="translate(158.82 16.08) rotate(90)" fill="#231f20"/>
      <rect x="47.52" y="95.4" width="15.9" height="15.9" transform="translate(158.82 47.88) rotate(90)" fill="#231f20"/>
      <rect x="79.32" y="95.4" width="15.9" height="15.9" transform="translate(190.61 16.08) rotate(90)" fill="#231f20"/>
      <rect x="63.42" y="111.3" width="15.9" height="15.9" transform="translate(190.61 47.88) rotate(90)" fill="#231f20"/>
      <rect x="63.42" y="143.1" width="15.9" height="15.9" transform="translate(222.41 79.68) rotate(90)" fill="#231f20"/>
      <rect x="47.52" y="159" width="15.9" height="15.9" transform="translate(222.41 111.48) rotate(90)" fill="#231f20"/>
      <rect x="79.32" y="0" width="15.9" height="15.9" transform="translate(95.22 -79.32) rotate(90)" fill="#231f20"/>
      <rect x="63.42" y="15.9" width="15.9" height="15.9" transform="translate(95.22 -47.52) rotate(90)" fill="#231f20"/>
      <rect x="47.76" y="31.8" width="15.9" height="15.9" transform="translate(95.46 -15.96) rotate(90)" fill="#231f20"/>
      <rect x="31.86" y="47.7" width="15.9" height="15.9" transform="translate(95.46 15.84) rotate(90)" fill="#231f20"/>
      <rect x=".06" y="79.5" width="15.9" height="15.9" transform="translate(95.46 79.44) rotate(90)" fill="#231f20"/>
      <rect x="15.96" y="95.4" width="15.9" height="15.9" transform="translate(127.26 79.44) rotate(90)" fill="#231f20"/>
      <rect x="15.96" y="127.2" width="15.9" height="15.9" transform="translate(159.06 111.24) rotate(90)" fill="#231f20"/>
      <rect x=".06" y="111.3" width="15.9" height="15.9" transform="translate(127.26 111.24) rotate(90)" fill="#231f20"/>
      <rect x=".06" y="143.1" width="15.9" height="15.9" transform="translate(159.06 143.04) rotate(90)" fill="#231f20"/>
      <rect x="31.86" y="143.1" width="15.9" height="15.9" transform="translate(190.86 111.24) rotate(90)" fill="#231f20"/>
      <rect x="79.44" y="254.58" width="15.9" height="15.9" transform="translate(349.92 175.15) rotate(90)" fill="#231f20"/>
      <rect x="63.54" y="270.48" width="15.9" height="15.9" transform="translate(349.92 206.94) rotate(90)" fill="#231f20"/>
      <rect x="47.64" y="254.58" width="15.9" height="15.9" transform="translate(318.12 206.94) rotate(90)" fill="#231f20"/>
      <rect x="47.64" y="286.38" width="15.9" height="15.9" transform="translate(349.92 238.74) rotate(90)" fill="#231f20"/>
      <rect x="63.54" y="302.28" width="15.9" height="15.9" transform="translate(381.72 238.74) rotate(90)" fill="#231f20"/>
      <rect x="79.44" y="318.18" width="15.9" height="15.9" transform="translate(413.52 238.74) rotate(90)" fill="#231f20"/>
      <rect x="63.54" y="334.08" width="15.9" height="15.9" transform="translate(413.52 270.54) rotate(90)" fill="#231f20"/>
      <rect x="47.64" y="349.98" width="15.9" height="15.9" transform="translate(413.52 302.34) rotate(90)" fill="#231f20"/>
      <rect x="79.44" y="349.98" width="15.9" height="15.9" transform="translate(445.32 270.54) rotate(90)" fill="#231f20"/>
      <rect x="63.54" y="175.08" width="15.9" height="15.9" transform="translate(254.52 111.55) rotate(90)" fill="#231f20"/>
      <rect x="79.44" y="190.98" width="15.9" height="15.9" transform="translate(286.32 111.55) rotate(90)" fill="#231f20"/>
      <rect x="47.88" y="190.8" width="15.9" height="15.9" transform="translate(254.57 142.92) rotate(90)" fill="#231f20"/>
      <rect x="47.88" y="222.78" width="15.9" height="15.9" transform="translate(286.56 174.9) rotate(90)" fill="#231f20"/>
      <rect x="16.08" y="222.78" width="15.9" height="15.9" transform="translate(254.76 206.7) rotate(90)" fill="#231f20"/>
      <rect x="16.08" y="254.58" width="15.9" height="15.9" transform="translate(286.56 238.5) rotate(90)" fill="#231f20"/>
      <rect x="31.98" y="270.48" width="15.9" height="15.9" transform="translate(318.36 238.5) rotate(90)" fill="#231f20"/>
      <rect x="16.08" y="286.38" width="15.9" height="15.9" transform="translate(318.36 270.3) rotate(90)" fill="#231f20"/>
      <rect x="31.98" y="302.28" width="15.9" height="15.9" transform="translate(350.16 270.3) rotate(90)" fill="#231f20"/>
      <rect x="31.98" y="175.08" width="15.9" height="15.9" transform="translate(222.96 143.1) rotate(90)" fill="#231f20"/>
      <rect x="16.08" y="190.98" width="15.9" height="15.9" transform="translate(222.96 174.9) rotate(90)" fill="#231f20"/>
      <rect x=".42" y="174.9" width="15.9" height="15.9" transform="translate(191.22 174.47) rotate(90)" fill="#231f20"/>
      <rect x="79.26" y="444.79" width="15.9" height="15.9" transform="translate(539.95 365.54) rotate(90)" fill="#231f20"/>
      <rect x="63.36" y="460.69" width="15.9" height="15.9" transform="translate(539.95 397.34) rotate(90)" fill="#231f20"/>
      <rect x="47.46" y="476.59" width="15.9" height="15.9" transform="translate(539.95 429.13) rotate(90)" fill="#231f20"/>
      <rect x="79.26" y="476.59" width="15.9" height="15.9" transform="translate(571.75 397.34) rotate(90)" fill="#231f20"/>
      <rect x="79.26" y="508.39" width="15.9" height="15.9" transform="translate(603.55 429.13) rotate(90)" fill="#231f20"/>
      <rect x="63.36" y="524.29" width="15.9" height="15.9" transform="translate(603.55 460.93) rotate(90)" fill="#231f20"/>
      <rect x="47.46" y="540.19" width="15.9" height="15.9" transform="translate(603.55 492.73) rotate(90)" fill="#231f20"/>
      <rect x="79.26" y="540.19" width="15.9" height="15.9" transform="translate(635.35 460.93) rotate(90)" fill="#231f20"/>
      <rect x="63.36" y="365.3" width="15.9" height="15.9" transform="translate(444.55 301.94) rotate(90)" fill="#231f20"/>
      <rect x="63.36" y="397.09" width="15.9" height="15.9" transform="translate(476.35 333.74) rotate(90)" fill="#231f20"/>
      <rect x="47.7" y="412.99" width="15.9" height="15.9" transform="translate(476.59 365.29) rotate(90)" fill="#231f20"/>
      <rect x="78.88" y="412.99" width="15.9" height="15.9" transform="translate(507.77 334.11) rotate(90)" fill="#231f20"/>
      <rect x="15.9" y="412.99" width="15.9" height="15.9" transform="translate(444.79 397.09) rotate(90)" fill="#231f20"/>
      <rect x="31.8" y="428.89" width="15.9" height="15.9" transform="translate(476.59 397.09) rotate(90)" fill="#231f20"/>
      <rect x="15.9" y="444.79" width="15.9" height="15.9" transform="translate(476.59 428.89) rotate(90)" fill="#231f20"/>
      <rect x="0" y="428.89" width="15.9" height="15.9" transform="translate(444.79 428.89) rotate(90)" fill="#231f20"/>
      <rect x="0" y="460.69" width="15.9" height="15.9" transform="translate(476.59 460.69) rotate(90)" fill="#231f20"/>
      <rect x="31.8" y="492.49" width="15.9" height="15.9" transform="translate(540.19 460.69) rotate(90)" fill="#231f20"/>
      <rect x="15.9" y="508.39" width="15.9" height="15.9" transform="translate(540.19 492.49) rotate(90)" fill="#231f20"/>
      <rect x="0" y="492.49" width="15.9" height="15.9" transform="translate(508.39 492.49) rotate(90)" fill="#231f20"/>
      <rect x="0" y="524.29" width="15.9" height="15.9" transform="translate(540.19 524.29) rotate(90)" fill="#231f20"/>
      <rect x="31.8" y="524.29" width="15.9" height="15.9" transform="translate(571.99 492.49) rotate(90)" fill="#231f20"/>
      <rect x="31.8" y="365.3" width="15.9" height="15.9" transform="translate(412.99 333.5) rotate(90)" fill="#231f20"/>
      <rect x="15.9" y="381.19" width="15.9" height="15.9" transform="translate(412.99 365.29) rotate(90)" fill="#231f20"/>
      <rect x=".24" y="397.09" width="15.9" height="15.9" transform="translate(413.24 396.85) rotate(90)" fill="#231f20"/>
      <rect x="63.48" y="619.88" width="15.9" height="15.9" transform="translate(699.26 556.4) rotate(90)" fill="#231f20"/>
      <rect x="79.38" y="635.78" width="15.9" height="15.9" transform="translate(731.05 556.4) rotate(90)" fill="#231f20"/>
      <rect x="63.48" y="651.68" width="15.9" height="15.9" transform="translate(731.05 588.2) rotate(90)" fill="#231f20"/>
      <rect x="47.58" y="667.58" width="15.9" height="15.9" transform="translate(731.05 620) rotate(90)" fill="#231f20"/>
      <rect x="79.38" y="699.38" width="15.9" height="15.9" transform="translate(794.65 620) rotate(90)" fill="#231f20"/>
      <rect x="63.48" y="715.28" width="15.9" height="15.9" transform="translate(794.65 651.8) rotate(90)" fill="#231f20"/>
      <rect x="47.58" y="699.38" width="15.9" height="15.9" transform="translate(762.85 651.8) rotate(90)" fill="#231f20"/>
      <rect x="47.58" y="731.18" width="15.9" height="15.9" transform="translate(794.65 683.6) rotate(90)" fill="#231f20"/>
      <rect x="79.38" y="731.18" width="15.9" height="15.9" transform="translate(826.45 651.8) rotate(90)" fill="#231f20"/>
      <rect x="63.48" y="588.08" width="15.9" height="15.9" transform="translate(667.46 524.6) rotate(90)" fill="#231f20"/>
      <rect x="47.82" y="571.99" width="15.9" height="15.9" transform="translate(635.71 524.17) rotate(90)" fill="#231f20"/>
      <rect x="79" y="603.98" width="15.9" height="15.9" transform="translate(698.88 524.98) rotate(90)" fill="#231f20"/>
      <rect x=".12" y="619.88" width="15.9" height="15.9" transform="translate(635.9 619.76) rotate(90)" fill="#231f20"/>
      <rect x=".12" y="651.68" width="15.9" height="15.9" transform="translate(667.7 651.56) rotate(90)" fill="#231f20"/>
      <rect x="16.02" y="667.58" width="15.9" height="15.9" transform="translate(699.5 651.56) rotate(90)" fill="#231f20"/>
      <rect x="31.92" y="683.48" width="15.9" height="15.9" transform="translate(731.3 651.56) rotate(90)" fill="#231f20"/>
      <rect x="16.02" y="699.38" width="15.9" height="15.9" transform="translate(731.3 683.36) rotate(90)" fill="#231f20"/>
      <rect x=".12" y="683.48" width="15.9" height="15.9" transform="translate(699.5 683.36) rotate(90)" fill="#231f20"/>
      <rect x=".12" y="715.28" width="15.9" height="15.9" transform="translate(731.3 715.15) rotate(90)" fill="#231f20"/>
      <rect x="31.92" y="715.28" width="15.9" height="15.9" transform="translate(763.1 683.36) rotate(90)" fill="#231f20"/>
      <rect x="31.92" y="556.28" width="15.9" height="15.9" transform="translate(604.1 524.36) rotate(90)" fill="#231f20"/>
      <rect x="16.02" y="572.18" width="15.9" height="15.9" transform="translate(604.1 556.16) rotate(90)" fill="#231f20"/>
      <rect x=".36" y="556.09" width="15.9" height="15.9" transform="translate(572.35 555.73) rotate(90)" fill="#231f20"/>
      <rect x=".36" y="588.08" width="15.9" height="15.9" transform="translate(604.34 587.72) rotate(90)" fill="#231f20"/>
      <rect x="63.57" y="810.67" width="15.9" height="15.9" transform="translate(890.14 747.1) rotate(90)" fill="#231f20"/>
      <rect x="79.47" y="826.57" width="15.9" height="15.9" transform="translate(921.94 747.1) rotate(90)" fill="#231f20"/>
      <rect x="63.57" y="842.47" width="15.9" height="15.9" transform="translate(921.94 778.9) rotate(90)" fill="#231f20"/>
      <rect x="47.67" y="858.37" width="15.9" height="15.9" transform="translate(921.94 810.7) rotate(90)" fill="#231f20"/>
      <rect x="79.47" y="858.37" width="15.9" height="15.9" transform="translate(953.74 778.9) rotate(90)" fill="#231f20"/>
      <rect x="63.57" y="906.07" width="15.9" height="15.9" transform="translate(985.54 842.5) rotate(90)" fill="#231f20"/>
      <rect x="47.67" y="890.17" width="15.9" height="15.9" transform="translate(953.74 842.5) rotate(90)" fill="#231f20"/>
      <rect x="47.67" y="921.97" width="15.9" height="15.9" transform="translate(985.54 874.3) rotate(90)" fill="#231f20"/>
      <rect x="79.47" y="921.97" width="15.9" height="15.9" transform="translate(1017.34 842.5) rotate(90)" fill="#231f20"/>
      <rect x="63.57" y="778.87" width="15.9" height="15.9" transform="translate(858.34 715.31) rotate(90)" fill="#231f20"/>
      <rect x="47.91" y="762.79" width="15.9" height="15.9" transform="translate(826.6 714.88) rotate(90)" fill="#231f20"/>
      <rect x="47.91" y="794.77" width="15.9" height="15.9" transform="translate(858.58 746.86) rotate(90)" fill="#231f20"/>
      <rect x="79.09" y="794.77" width="15.9" height="15.9" transform="translate(889.77 715.68) rotate(90)" fill="#231f20"/>
      <rect x="32.01" y="810.67" width="15.9" height="15.9" transform="translate(858.58 778.66) rotate(90)" fill="#231f20"/>
      <rect x="16.11" y="826.57" width="15.9" height="15.9" transform="translate(858.58 810.46) rotate(90)" fill="#231f20"/>
      <rect x=".21" y="810.67" width="15.9" height="15.9" transform="translate(826.78 810.46) rotate(90)" fill="#231f20"/>
      <rect x=".21" y="842.47" width="15.9" height="15.9" transform="translate(858.58 842.26) rotate(90)" fill="#231f20"/>
      <rect x="16.11" y="858.37" width="15.9" height="15.9" transform="translate(890.38 842.26) rotate(90)" fill="#231f20"/>
      <rect x="32.01" y="874.27" width="15.9" height="15.9" transform="translate(922.18 842.26) rotate(90)" fill="#231f20"/>
      <rect x=".21" y="874.27" width="15.9" height="15.9" transform="translate(890.38 874.06) rotate(90)" fill="#231f20"/>
      <rect x=".21" y="906.07" width="15.9" height="15.9" transform="translate(922.18 905.86) rotate(90)" fill="#231f20"/>
      <rect x="32.01" y="906.07" width="15.9" height="15.9" transform="translate(953.98 874.06) rotate(90)" fill="#231f20"/>
      <rect x="15.36" y="921.97" width="15.9" height="15.9" transform="translate(953.23 906.61) rotate(90)" fill="#231f20"/>
      <rect x="32.01" y="747.08" width="15.9" height="15.9" transform="translate(794.99 715.06) rotate(90)" fill="#231f20"/>
      <rect x="16.11" y="762.97" width="15.9" height="15.9" transform="translate(794.99 746.86) rotate(90)" fill="#231f20"/>
      <rect x="79.59" y="1017.56" width="15.9" height="15.9" transform="translate(1113.05 937.97) rotate(90)" fill="#231f20"/>
      <rect x="63.69" y="1033.46" width="15.9" height="15.9" transform="translate(1113.05 969.77) rotate(90)" fill="#231f20"/>
      <rect x="47.79" y="1017.56" width="15.9" height="15.9" transform="translate(1081.25 969.77) rotate(90)" fill="#231f20"/>
      <rect x="47.79" y="1049.36" width="15.9" height="15.9" transform="translate(1113.05 1001.57) rotate(90)" fill="#231f20"/>
      <rect x="63.69" y="1065.26" width="15.9" height="15.9" transform="translate(1144.85 1001.57) rotate(90)" fill="#231f20"/>
      <rect x="79.59" y="1081.16" width="15.9" height="15.9" transform="translate(1176.64 1001.57) rotate(90)" fill="#231f20"/>
      <rect x="63.69" y="1097.06" width="15.9" height="15.9" transform="translate(1176.64 1033.37) rotate(90)" fill="#231f20"/>
      <rect x="47.79" y="1081.16" width="15.9" height="15.9" transform="translate(1144.85 1033.37) rotate(90)" fill="#231f20"/>
      <rect x="47.79" y="1112.96" width="15.9" height="15.9" transform="translate(1176.64 1065.17) rotate(90)" fill="#231f20"/>
      <rect x="79.59" y="1112.96" width="15.9" height="15.9" transform="translate(1208.44 1033.37) rotate(90)" fill="#231f20"/>
      <rect x="79.59" y="953.96" width="15.9" height="15.9" transform="translate(1049.45 874.37) rotate(90)" fill="#231f20"/>
      <rect x="48.03" y="953.77" width="15.9" height="15.9" transform="translate(1017.7 905.74) rotate(90)" fill="#231f20"/>
      <rect x="48.03" y="985.76" width="15.9" height="15.9" transform="translate(1049.69 937.73) rotate(90)" fill="#231f20"/>
      <rect x="79.21" y="985.76" width="15.9" height="15.9" transform="translate(1080.87 906.55) rotate(90)" fill="#231f20"/>
      <rect x=".33" y="1001.66" width="15.9" height="15.9" transform="translate(1017.89 1001.33) rotate(90)" fill="#231f20"/>
      <rect x=".33" y="1033.46" width="15.9" height="15.9" transform="translate(1049.69 1033.12) rotate(90)" fill="#231f20"/>
      <rect x="32.13" y="1033.46" width="15.9" height="15.9" transform="translate(1081.49 1001.33) rotate(90)" fill="#231f20"/>
      <rect x="16.23" y="1049.36" width="15.9" height="15.9" transform="translate(1081.49 1033.12) rotate(90)" fill="#231f20"/>
      <rect x="16.23" y="1081.16" width="15.9" height="15.9" transform="translate(1113.29 1064.92) rotate(90)" fill="#231f20"/>
      <rect x=".33" y="1097.06" width="15.9" height="15.9" transform="translate(1113.29 1096.72) rotate(90)" fill="#231f20"/>
      <rect x="32.13" y="938.06" width="15.9" height="15.9" transform="translate(986.09 905.93) rotate(90)" fill="#231f20"/>
      <rect x="16.23" y="953.96" width="15.9" height="15.9" transform="translate(986.09 937.73) rotate(90)" fill="#231f20"/>
      <rect x=".57" y="937.87" width="15.9" height="15.9" transform="translate(954.34 937.3) rotate(90)" fill="#231f20"/>
      <rect x="31.76" y="969.86" width="15.9" height="15.9" transform="translate(1017.51 938.1) rotate(90)" fill="#231f20"/>
      <rect x="63.51" y="1191.87" width="15.9" height="15.9" transform="translate(1271.28 1128.36) rotate(90)" fill="#231f20"/>
      <rect x="79.41" y="1207.77" width="15.9" height="15.9" transform="translate(1303.08 1128.36) rotate(90)" fill="#231f20"/>
      <rect x="47.61" y="1207.77" width="15.9" height="15.9" transform="translate(1271.28 1160.16) rotate(90)" fill="#231f20"/>
      <rect x="47.61" y="1239.57" width="15.9" height="15.9" transform="translate(1303.08 1191.96) rotate(90)" fill="#231f20"/>
      <rect x="63.51" y="1287.27" width="15.9" height="15.9" transform="translate(1366.67 1223.76) rotate(90)" fill="#231f20"/>
      <rect x="47.61" y="1271.37" width="15.9" height="15.9" transform="translate(1334.87 1223.76) rotate(90)" fill="#231f20"/>
      <rect x="47.61" y="1303.17" width="15.9" height="15.9" transform="translate(1366.67 1255.56) rotate(90)" fill="#231f20"/>
      <rect x="79.41" y="1303.17" width="15.9" height="15.9" transform="translate(1398.47 1223.76) rotate(90)" fill="#231f20"/>
      <rect x="79.41" y="1144.17" width="15.9" height="15.9" transform="translate(1239.48 1064.76) rotate(90)" fill="#231f20"/>
      <rect x="47.85" y="1143.98" width="15.9" height="15.9" transform="translate(1207.73 1096.13) rotate(90)" fill="#231f20"/>
      <rect x="47.85" y="1175.97" width="15.9" height="15.9" transform="translate(1239.72 1128.12) rotate(90)" fill="#231f20"/>
      <rect x="79.03" y="1175.97" width="15.9" height="15.9" transform="translate(1270.9 1096.94) rotate(90)" fill="#231f20"/>
      <rect x="16.05" y="1175.97" width="15.9" height="15.9" transform="translate(1207.92 1159.92) rotate(90)" fill="#231f20"/>
      <rect x="31.95" y="1191.87" width="15.9" height="15.9" transform="translate(1239.72 1159.92) rotate(90)" fill="#231f20"/>
      <rect x=".15" y="1191.87" width="15.9" height="15.9" transform="translate(1207.92 1191.72) rotate(90)" fill="#231f20"/>
      <rect x=".15" y="1223.67" width="15.9" height="15.9" transform="translate(1239.72 1223.52) rotate(90)" fill="#231f20"/>
      <rect x="31.95" y="1223.67" width="15.9" height="15.9" transform="translate(1271.52 1191.72) rotate(90)" fill="#231f20"/>
      <rect x="16.05" y="1239.57" width="15.9" height="15.9" transform="translate(1271.52 1223.52) rotate(90)" fill="#231f20"/>
      <rect x="31.95" y="1255.47" width="15.9" height="15.9" transform="translate(1303.32 1223.52) rotate(90)" fill="#231f20"/>
      <rect x="16.05" y="1271.37" width="15.9" height="15.9" transform="translate(1303.32 1255.32) rotate(90)" fill="#231f20"/>
      <rect x=".15" y="1287.27" width="15.9" height="15.9" transform="translate(1303.32 1287.11) rotate(90)" fill="#231f20"/>
      <rect x="31.95" y="1287.27" width="15.9" height="15.9" transform="translate(1335.12 1255.32) rotate(90)" fill="#231f20"/>
      <rect x="31.95" y="1128.27" width="15.9" height="15.9" transform="translate(1176.12 1096.32) rotate(90)" fill="#231f20"/>
      <rect x="16.05" y="1144.17" width="15.9" height="15.9" transform="translate(1176.12 1128.12) rotate(90)" fill="#231f20"/>
      <rect x=".15" y="1128.27" width="15.9" height="15.9" transform="translate(1144.32 1128.12) rotate(90)" fill="#231f20"/>
      <rect x=".39" y="1160.07" width="15.9" height="15.9" transform="translate(1176.36 1159.68) rotate(90)" fill="#231f20"/>
      <rect x="31.57" y="1160.07" width="15.9" height="15.9" transform="translate(1207.54 1128.49) rotate(90)" fill="#231f20"/>
      <rect x="63.63" y="1382.85" width="15.9" height="15.9" transform="translate(1462.38 1319.22) rotate(90)" fill="#231f20"/>
      <rect x="79.53" y="1398.75" width="15.9" height="15.9" transform="translate(1494.18 1319.22) rotate(90)" fill="#231f20"/>
      <rect x="63.63" y="1414.65" width="15.9" height="15.9" transform="translate(1494.18 1351.02) rotate(90)" fill="#231f20"/>
      <rect x="47.73" y="1398.75" width="15.9" height="15.9" transform="translate(1462.38 1351.02) rotate(90)" fill="#231f20"/>
      <rect x="47.73" y="1430.55" width="15.9" height="15.9" transform="translate(1494.18 1382.82) rotate(90)" fill="#231f20"/>
      <rect x="79.53" y="1430.55" width="15.9" height="15.9" transform="translate(1525.98 1351.02) rotate(90)" fill="#231f20"/>
      <rect x="79.53" y="1462.35" width="15.9" height="15.9" transform="translate(1557.78 1382.82) rotate(90)" fill="#231f20"/>
      <rect x="63.63" y="1478.25" width="15.9" height="15.9" transform="translate(1557.78 1414.62) rotate(90)" fill="#231f20"/>
      <rect x="47.73" y="1462.35" width="15.9" height="15.9" transform="translate(1525.98 1414.62) rotate(90)" fill="#231f20"/>
      <rect x="47.73" y="1494.15" width="15.9" height="15.9" transform="translate(1557.78 1446.42) rotate(90)" fill="#231f20"/>
      <rect x="79.53" y="1494.15" width="15.9" height="15.9" transform="translate(1589.58 1414.62) rotate(90)" fill="#231f20"/>
      <rect x="63.63" y="1319.25" width="15.9" height="15.9" transform="translate(1398.78 1255.62) rotate(90)" fill="#231f20"/>
      <rect x="79.53" y="1335.15" width="15.9" height="15.9" transform="translate(1430.58 1255.62) rotate(90)" fill="#231f20"/>
      <rect x="63.63" y="1351.05" width="15.9" height="15.9" transform="translate(1430.58 1287.42) rotate(90)" fill="#231f20"/>
      <rect x="16.17" y="1366.95" width="15.9" height="15.9" transform="translate(1399.02 1350.78) rotate(90)" fill="#231f20"/>
      <rect x="32.07" y="1382.85" width="15.9" height="15.9" transform="translate(1430.82 1350.78) rotate(90)" fill="#231f20"/>
      <rect x=".27" y="1382.85" width="15.9" height="15.9" transform="translate(1399.02 1382.58) rotate(90)" fill="#231f20"/>
      <rect x=".27" y="1414.65" width="15.9" height="15.9" transform="translate(1430.82 1414.38) rotate(90)" fill="#231f20"/>
      <rect x="32.07" y="1414.65" width="15.9" height="15.9" transform="translate(1462.62 1382.58) rotate(90)" fill="#231f20"/>
      <rect x="16.17" y="1430.55" width="15.9" height="15.9" transform="translate(1462.62 1414.38) rotate(90)" fill="#231f20"/>
      <rect x="32.07" y="1446.45" width="15.9" height="15.9" transform="translate(1494.42 1414.38) rotate(90)" fill="#231f20"/>
      <rect x=".27" y="1446.45" width="15.9" height="15.9" transform="translate(1462.62 1446.18) rotate(90)" fill="#231f20"/>
      <rect x=".27" y="1478.25" width="15.9" height="15.9" transform="translate(1494.42 1477.98) rotate(90)" fill="#231f20"/>
      <rect x="16.17" y="1494.15" width="15.9" height="15.9" transform="translate(1526.22 1477.98) rotate(90)" fill="#231f20"/>
      <rect x="32.07" y="1319.25" width="15.9" height="15.9" transform="translate(1367.23 1287.18) rotate(90)" fill="#231f20"/>
      <rect x="16.17" y="1335.15" width="15.9" height="15.9" transform="translate(1367.23 1318.98) rotate(90)" fill="#231f20"/>
      <rect x=".51" y="1319.07" width="15.9" height="15.9" transform="translate(1335.48 1318.55) rotate(90)" fill="#231f20"/>
      <rect x=".51" y="1351.05" width="15.9" height="15.9" transform="translate(1367.47 1350.54) rotate(90)" fill="#231f20"/>
    </g>
  </g>
</svg>