<?xml version="1.0" encoding="UTF-8"?>
<svg id="Layer_2" data-name="Layer 2" xmlns="http://www.w3.org/2000/svg" viewBox="0 0 57.87 377.98">
  <g id="Layer_1-2" data-name="Layer 1">
    <g>
      <circle cx="43.7" cy="137.02" r="4.72"/>
      <circle cx="43.7" cy="146.47" r="4.72"/>
      <circle cx="43.7" cy="155.92" r="4.72"/>
      <circle cx="43.7" cy="165.37" r="4.72"/>
      <circle cx="43.7" cy="174.82" r="4.72"/>
      <circle cx="43.7" cy="184.26" r="4.72"/>
      <circle cx="43.7" cy="193.71" r="4.72"/>
      <circle cx="43.7" cy="203.16" r="4.72"/>
      <circle cx="34.25" cy="137.02" r="4.72"/>
      <circle cx="34.25" cy="146.47" r="4.72"/>
      <circle cx="34.25" cy="155.92" r="4.72"/>
      <circle cx="34.25" cy="165.37" r="4.72"/>
      <circle cx="34.25" cy="174.82" r="4.72"/>
      <circle cx="34.25" cy="184.26" r="4.72"/>
      <circle cx="24.8" cy="165.37" r="4.72"/>
      <circle cx="24.8" cy="174.82" r="4.72"/>
      <circle cx="24.8" cy="184.26" r="4.72"/>
      <circle cx="53.15" cy="80.32" r="4.72"/>
      <circle cx="53.15" cy="89.77" r="4.72"/>
      <circle cx="53.15" cy="99.22" r="4.72"/>
      <circle cx="53.15" cy="108.67" r="4.72"/>
      <circle cx="53.15" cy="118.12" r="4.72"/>
      <circle cx="53.15" cy="127.57" r="4.72"/>
      <circle cx="53.15" cy="137.02" r="4.72"/>
      <circle cx="53.15" cy="146.47" r="4.72"/>
      <circle cx="43.7" cy="80.32" r="4.72"/>
      <circle cx="43.7" cy="89.77" r="4.72"/>
      <circle cx="43.7" cy="99.22" r="4.72"/>
      <circle cx="43.7" cy="108.67" r="4.72"/>
      <circle cx="43.7" cy="118.12" r="4.72"/>
      <circle cx="43.7" cy="127.57" r="4.72"/>
      <circle cx="34.25" cy="108.67" r="4.72"/>
      <circle cx="34.25" cy="118.12" r="4.72"/>
      <path d="M34.25,132.29c-2.61,0-4.72-2.12-4.72-4.72,0-2.61,2.12-4.72,4.72-4.72s4.72,2.12,4.72,4.72c0,2.61-2.12,4.72-4.72,4.72Z"/>
      <circle cx="24.8" cy="70.87" r="4.72"/>
      <path d="M24.8,56.7c2.61,0,4.72,2.12,4.72,4.72,0,2.61-2.12,4.72-4.72,4.72-2.61,0-4.72-2.12-4.72-4.72,0-2.61,2.12-4.72,4.72-4.72Z"/>
      <circle cx="24.8" cy="51.97" r="4.72"/>
      <circle cx="24.8" cy="42.52" r="4.72"/>
      <circle cx="24.8" cy="33.07" r="4.72"/>
      <circle cx="24.8" cy="23.62" r="4.72"/>
      <circle cx="24.8" cy="14.17" r="4.72"/>
      <circle cx="24.8" cy="4.72" r="4.72"/>
      <circle cx="34.25" cy="70.87" r="4.72"/>
      <circle cx="34.25" cy="61.42" r="4.72"/>
      <circle cx="34.25" cy="51.97" r="4.72"/>
      <circle cx="34.25" cy="42.52" r="4.72"/>
      <path d="M34.25,28.35c2.61,0,4.72,2.12,4.72,4.72,0,2.61-2.12,4.72-4.72,4.72-2.61,0-4.72-2.12-4.72-4.72,0-2.61,2.12-4.72,4.72-4.72Z"/>
      <circle cx="34.25" cy="23.62" r="4.72"/>
      <circle cx="43.7" cy="42.52" r="4.72"/>
      <circle cx="43.7" cy="33.07" r="4.72"/>
      <circle cx="43.7" cy="23.62" r="4.72"/>
      <circle cx="15.35" cy="127.57" r="4.72"/>
      <circle cx="15.35" cy="118.12" r="4.72"/>
      <circle cx="15.35" cy="108.67" r="4.72"/>
      <circle cx="15.35" cy="99.22" r="4.72"/>
      <path d="M15.35,85.05c2.61,0,4.72,2.12,4.72,4.72,0,2.61-2.12,4.72-4.72,4.72-2.61,0-4.72-2.12-4.72-4.72,0-2.61,2.12-4.72,4.72-4.72Z"/>
      <circle cx="15.35" cy="80.32" r="4.72"/>
      <circle cx="15.35" cy="70.87" r="4.72"/>
      <circle cx="15.35" cy="61.42" r="4.72"/>
      <circle cx="24.8" cy="127.57" r="4.72"/>
      <circle cx="24.8" cy="118.12" r="4.72"/>
      <path d="M24.8,103.94c2.61,0,4.72,2.12,4.72,4.72,0,2.61-2.12,4.72-4.72,4.72-2.61,0-4.72-2.12-4.72-4.72,0-2.61,2.12-4.72,4.72-4.72Z"/>
      <circle cx="24.8" cy="99.22" r="4.72"/>
      <circle cx="24.8" cy="89.77" r="4.72"/>
      <circle cx="24.8" cy="80.32" r="4.72"/>
      <circle cx="34.25" cy="99.22" r="4.72"/>
      <circle cx="34.25" cy="89.77" r="4.72"/>
      <path d="M34.25,75.6c2.61,0,4.72,2.12,4.72,4.72,0,2.61-2.12,4.72-4.72,4.72-2.61,0-4.72-2.12-4.72-4.72s2.12-4.72,4.72-4.72Z"/>
      <circle cx="33.07" cy="307.11" r="4.72"/>
      <circle cx="33.07" cy="316.56" r="4.72"/>
      <circle cx="33.07" cy="326.01" r="4.72"/>
      <circle cx="33.07" cy="335.46" r="4.72"/>
      <circle cx="33.07" cy="344.91" r="4.72"/>
      <circle cx="33.07" cy="354.36" r="4.72"/>
      <circle cx="33.07" cy="363.8" r="4.72"/>
      <path d="M33.07,377.98c-2.61,0-4.72-2.12-4.72-4.72s2.12-4.72,4.72-4.72,4.72,2.12,4.72,4.72c0,2.61-2.12,4.72-4.72,4.72Z"/>
      <circle cx="23.62" cy="307.11" r="4.72"/>
      <circle cx="23.62" cy="316.56" r="4.72"/>
      <circle cx="23.62" cy="326.01" r="4.72"/>
      <circle cx="23.62" cy="335.46" r="4.72"/>
      <circle cx="23.62" cy="344.91" r="4.72"/>
      <circle cx="23.62" cy="354.36" r="4.72"/>
      <circle cx="14.17" cy="335.46" r="4.72"/>
      <circle cx="14.17" cy="344.91" r="4.72"/>
      <circle cx="14.17" cy="354.36" r="4.72"/>
      <circle cx="42.52" cy="250.41" r="4.72"/>
      <circle cx="42.52" cy="259.86" r="4.72"/>
      <circle cx="42.52" cy="269.31" r="4.72"/>
      <circle cx="42.52" cy="278.76" r="4.72"/>
      <circle cx="42.52" cy="288.21" r="4.72"/>
      <circle cx="42.52" cy="297.66" r="4.72"/>
      <circle cx="42.52" cy="307.11" r="4.72"/>
      <circle cx="42.52" cy="316.56" r="4.72"/>
      <path d="M33.07,255.14c-2.61,0-4.72-2.12-4.72-4.72,0-2.61,2.12-4.72,4.72-4.72s4.72,2.12,4.72,4.72c0,2.61-2.12,4.72-4.72,4.72Z"/>
      <circle cx="33.07" cy="259.86" r="4.72"/>
      <circle cx="33.07" cy="269.31" r="4.72"/>
      <circle cx="33.07" cy="278.76" r="4.72"/>
      <circle cx="33.07" cy="288.21" r="4.72"/>
      <circle cx="33.07" cy="297.66" r="4.72"/>
      <path d="M23.62,283.48c-2.61,0-4.72-2.12-4.72-4.72,0-2.61,2.12-4.72,4.72-4.72s4.72,2.12,4.72,4.72c0,2.61-2.12,4.72-4.72,4.72Z"/>
      <circle cx="23.62" cy="288.21" r="4.72"/>
      <circle cx="23.62" cy="297.66" r="4.72"/>
      <circle cx="14.17" cy="240.96" r="4.72"/>
      <circle cx="14.17" cy="231.51" r="4.72"/>
      <circle cx="14.17" cy="222.06" r="4.72"/>
      <circle cx="14.17" cy="212.61" r="4.72"/>
      <circle cx="14.17" cy="203.16" r="4.72"/>
      <circle cx="14.17" cy="193.71" r="4.72"/>
      <circle cx="14.17" cy="184.26" r="4.72"/>
      <circle cx="14.17" cy="174.82" r="4.72"/>
      <circle cx="23.62" cy="240.96" r="4.72"/>
      <path d="M23.62,226.79c2.61,0,4.72,2.12,4.72,4.72,0,2.61-2.12,4.72-4.72,4.72-2.61,0-4.72-2.12-4.72-4.72,0-2.61,2.12-4.72,4.72-4.72Z"/>
      <circle cx="23.62" cy="222.06" r="4.72"/>
      <circle cx="23.62" cy="212.61" r="4.72"/>
      <circle cx="23.62" cy="203.16" r="4.72"/>
      <circle cx="23.62" cy="193.71" r="4.72"/>
      <circle cx="33.07" cy="212.61" r="4.72"/>
      <path d="M33.07,198.44c2.61,0,4.72,2.12,4.72,4.72,0,2.61-2.12,4.72-4.72,4.72-2.61,0-4.72-2.12-4.72-4.72s2.12-4.72,4.72-4.72Z"/>
      <circle cx="33.07" cy="193.71" r="4.72"/>
      <circle cx="4.72" cy="297.66" r="4.72"/>
      <path d="M4.72,283.48c2.61,0,4.72,2.12,4.72,4.72,0,2.61-2.12,4.72-4.72,4.72C2.12,292.93,0,290.82,0,288.21c0-2.61,2.12-4.72,4.72-4.72Z"/>
      <circle cx="4.72" cy="278.76" r="4.72"/>
      <circle cx="4.72" cy="269.31" r="4.72"/>
      <circle cx="4.72" cy="259.86" r="4.72"/>
      <circle cx="4.72" cy="250.41" r="4.72"/>
      <path d="M4.72,236.24c2.61,0,4.72,2.12,4.72,4.72,0,2.61-2.12,4.72-4.72,4.72C2.12,245.69,0,243.57,0,240.96s2.12-4.72,4.72-4.72Z"/>
      <circle cx="4.72" cy="231.51" r="4.72"/>
      <circle cx="14.17" cy="297.66" r="4.72"/>
      <circle cx="14.17" cy="288.21" r="4.72"/>
      <circle cx="14.17" cy="278.76" r="4.72"/>
      <circle cx="14.17" cy="269.31" r="4.72"/>
      <path d="M14.17,255.14c2.61,0,4.72,2.12,4.72,4.72s-2.12,4.72-4.72,4.72c-2.61,0-4.72-2.12-4.72-4.72s2.12-4.72,4.72-4.72Z"/>
      <circle cx="14.17" cy="250.41" r="4.72"/>
      <circle cx="23.62" cy="269.31" r="4.72"/>
      <circle cx="23.62" cy="259.86" r="4.72"/>
      <circle cx="23.62" cy="250.41" r="4.72"/>
    </g>
  </g>
</svg>