<?xml version="1.0" encoding="UTF-8"?>
<svg id="Layer_2" data-name="Layer 2" xmlns="http://www.w3.org/2000/svg" viewBox="0 0 2283.6 1983.79">
  <g id="Layer_1-2" data-name="Layer 1">
    <g>
      <g>
        <path d="M86.82,1349.95c0,2.2-1.46,2.78-3.31,2.78-1.18,0-3.16-.22-3.16-.22v-1.55s1.71.22,2.73.22c1.07,0,2.05-.22,2.05-1.45v-1.17c0-1.12-.8-1.38-1.6-1.38h-2.95v-5.89h5.76v1.51h-4.06v2.86h1.51c2.13,0,3.03,1.13,3.03,2.75v1.53Z" fill="#231f20" stroke="#000" stroke-miterlimit="10"/>
        <path d="M120.71,1349.18v-5.91l-2.13.43v-1.75l3.83-.83v8.06h-1.7Z" fill="#231f20" stroke="#000" stroke-miterlimit="10"/>
        <path d="M132.23,1344.64v1.22c0,2.63-1.43,3.51-3.61,3.51s-3.61-.88-3.61-3.51v-1.22c0-2.63,1.45-3.51,3.61-3.51s3.61.88,3.61,3.51ZM126.7,1344.74v1.02c0,1.43.52,2.03,1.91,2.03s1.92-.6,1.92-2.03v-1.02c0-1.43-.52-2-1.92-2s-1.91.57-1.91,2Z" fill="#231f20" stroke="#000" stroke-miterlimit="10"/>
        <path d="M166.43,1349.18v-5.91l-2.13.43v-1.75l3.83-.83v8.06h-1.7Z" fill="#231f20" stroke="#000" stroke-miterlimit="10"/>
        <path d="M176.94,1349.95c0,2.2-1.46,2.78-3.31,2.78-1.18,0-3.16-.22-3.16-.22v-1.55s1.71.22,2.73.22c1.07,0,2.05-.22,2.05-1.45v-1.17c0-1.12-.8-1.38-1.6-1.38h-2.95v-5.89h5.76v1.51h-4.06v2.86h1.51c2.13,0,3.03,1.13,3.03,2.75v1.53Z" fill="#231f20" stroke="#000" stroke-miterlimit="10"/>
        <path d="M212.36,1347.65v1.53h-6.86v-1.45l3.46-2.33c.72-.48,1.23-.8,1.23-1.7v-.25c0-.53-.17-.77-.9-.77-.93,0-3.15.22-3.15.22v-1.6s2.2-.2,3.28-.2c1.28,0,2.46.38,2.46,1.76v1c0,.87-.47,1.56-1.38,2.16l-2.33,1.55v.07h4.18Z" fill="#231f20" stroke="#000" stroke-miterlimit="10"/>
        <path d="M221.21,1344.64v1.22c0,2.63-1.43,3.51-3.61,3.51s-3.61-.88-3.61-3.51v-1.22c0-2.63,1.45-3.51,3.61-3.51s3.61.88,3.61,3.51ZM215.69,1344.74v1.02c0,1.43.52,2.03,1.92,2.03s1.91-.6,1.91-2.03v-1.02c0-1.43-.52-2-1.91-2s-1.92.57-1.92,2Z" fill="#231f20" stroke="#000" stroke-miterlimit="10"/>
        <path d="M256.95,1347.65v1.53h-6.86v-1.45l3.46-2.33c.72-.48,1.23-.8,1.23-1.7v-.25c0-.53-.17-.77-.9-.77-.93,0-3.15.22-3.15.22v-1.6s2.2-.2,3.28-.2c1.28,0,2.46.38,2.46,1.76v1c0,.87-.47,1.56-1.38,2.16l-2.33,1.55v.07h4.18Z" fill="#231f20" stroke="#000" stroke-miterlimit="10"/>
        <path d="M264.79,1349.95c0,2.2-1.46,2.78-3.31,2.78-1.18,0-3.16-.22-3.16-.22v-1.55s1.71.22,2.73.22c1.07,0,2.05-.22,2.05-1.45v-1.17c0-1.12-.8-1.38-1.6-1.38h-2.95v-5.89h5.76v1.51h-4.06v2.86h1.51c2.13,0,3.03,1.13,3.03,2.75v1.53Z" fill="#231f20" stroke="#000" stroke-miterlimit="10"/>
        <path d="M303.13,1349.6c0,1.96-.98,3.13-3.45,3.13-1.13,0-2.9-.22-2.9-.22v-1.53s1.7.22,2.83.22c1.07,0,1.81-.22,1.81-1.45v-.75l-1.3-1.28h-2.41v-1.51h2.45l1.21-1.2v-1.02c0-1.08-.3-1.35-1.35-1.35-.7,0-2.95.22-2.95.22v-1.53s2.15-.22,3.08-.22c2.58,0,2.91,1.3,2.91,2.98v.96c0,.13-.02.35-.1.48l-1.45,1.43,1.5,1.48c.08.13.1.35.1.48v.67Z" fill="#231f20" stroke="#000" stroke-miterlimit="10"/>
        <path d="M312.52,1344.64v1.22c0,2.63-1.43,3.51-3.61,3.51s-3.61-.88-3.61-3.51v-1.22c0-2.63,1.45-3.51,3.61-3.51s3.61.88,3.61,3.51ZM306.99,1344.74v1.02c0,1.43.52,2.03,1.92,2.03s1.91-.6,1.91-2.03v-1.02c0-1.43-.52-2-1.91-2s-1.92.57-1.92,2Z" fill="#231f20" stroke="#000" stroke-miterlimit="10"/>
      </g>
      <g opacity=".28">
        <path d="M1570.99,983.05c-71.16,0-138.06-27.71-188.38-78.03s-78.03-117.22-78.03-188.38,27.71-138.06,78.03-188.38,117.22-78.03,188.38-78.03,138.06,27.71,188.38,78.03c50.32,50.32,78.03,117.22,78.03,188.38s-27.71,138.06-78.03,188.38-117.22,78.03-188.38,78.03ZM1570.99,454.24c-144.69,0-262.41,117.71-262.41,262.41s117.71,262.41,262.41,262.41,262.4-117.71,262.4-262.41-117.71-262.41-262.4-262.41Z"/>
      </g>
      <path d="M1570.28,966.82c-67.02,0-130.02-26.1-177.41-73.48-47.39-47.39-73.48-110.39-73.48-177.41s26.1-130.02,73.48-177.41,110.39-73.48,177.41-73.48,130.02,26.1,177.41,73.48,73.48,110.39,73.48,177.41-26.1,130.02-73.48,177.41c-47.39,47.39-110.39,73.48-177.41,73.48ZM1570.28,469.04c-136.14,0-246.89,110.75-246.89,246.89s110.75,246.89,246.89,246.89,246.89-110.75,246.89-246.89-110.75-246.89-246.89-246.89Z"/>
      <path d="M1567.66,934.86c-58.48,0-113.45-22.77-154.8-64.12s-64.12-96.33-64.12-154.8,22.77-113.45,64.12-154.8c41.35-41.35,96.33-64.12,154.8-64.12s113.45,22.77,154.8,64.12c41.35,41.35,64.12,96.33,64.12,154.8s-22.77,113.45-64.12,154.8-96.33,64.12-154.8,64.12ZM1567.66,501.01c-118.51,0-214.93,96.42-214.93,214.92s96.42,214.93,214.93,214.93,214.92-96.42,214.92-214.93-96.42-214.92-214.92-214.92Z"/>
      <path d="M1567.66,1431.87c-96.65,0-190.41-18.93-278.67-56.26-85.25-36.06-161.82-87.68-227.57-153.43-65.75-65.75-117.37-142.31-153.43-227.57-37.33-88.27-56.26-182.03-56.26-278.67s18.93-190.41,56.26-278.67c36.06-85.25,87.68-161.82,153.43-227.57,65.75-65.75,142.31-117.37,227.57-153.43C1377.25,18.93,1471.01,0,1567.66,0s190.41,18.93,278.67,56.26c85.25,36.06,161.82,87.68,227.57,153.43,65.75,65.75,117.37,142.31,153.43,227.57,37.33,88.27,56.26,182.03,56.26,278.67s-18.93,190.41-56.26,278.67c-36.06,85.25-87.68,161.82-153.43,227.57-65.75,65.75-142.31,117.37-227.57,153.43-88.26,37.33-182.02,56.26-278.67,56.26ZM1567.66,4c-392.56,0-711.93,319.37-711.93,711.93s319.37,711.93,711.93,711.93,711.93-319.37,711.93-711.93S1960.22,4,1567.66,4Z"/>
      <path d="M1570.99,1155.14c-59.2,0-116.62-11.59-170.68-34.46-52.21-22.08-99.11-53.7-139.38-93.97-40.27-40.27-71.89-87.16-93.97-139.38-22.87-54.06-34.46-111.49-34.46-170.68s11.59-116.62,34.46-170.68c22.08-52.22,53.7-99.11,93.97-139.38,40.27-40.27,87.16-71.89,139.38-93.97,54.06-22.87,111.49-34.46,170.68-34.46s116.62,11.59,170.68,34.46c52.22,22.08,99.11,53.7,139.38,93.97,40.27,40.27,71.89,87.16,93.97,139.38,22.87,54.06,34.46,111.49,34.46,170.68s-11.59,116.62-34.46,170.68c-22.09,52.22-53.7,99.11-93.97,139.38-40.27,40.27-87.16,71.89-139.38,93.97-54.06,22.87-111.49,34.46-170.68,34.46ZM1570.99,282.16c-239.58,0-434.49,194.91-434.49,434.49s194.91,434.49,434.49,434.49,434.49-194.91,434.49-434.49-194.91-434.49-434.49-434.49Z"/>
      <path d="M1570.28,983.05c-71.35,0-138.43-27.79-188.88-78.24s-78.24-117.53-78.24-188.88,27.79-138.43,78.24-188.88,117.53-78.24,188.88-78.24,138.43,27.79,188.88,78.24,78.24,117.53,78.24,188.88-27.79,138.43-78.24,188.88-117.53,78.24-188.88,78.24ZM1570.28,452.81c-145.08,0-263.12,118.04-263.12,263.12s118.04,263.12,263.12,263.12,263.12-118.04,263.12-263.12-118.04-263.12-263.12-263.12Z"/>
      <g opacity=".28">
        <path d="M1570.28,833.89c-64.65,0-117.24-52.59-117.24-117.24s52.59-117.24,117.24-117.24,117.24,52.59,117.24,117.24-52.59,117.24-117.24,117.24ZM1570.28,603.41c-62.44,0-113.24,50.8-113.24,113.24s50.8,113.24,113.24,113.24,113.24-50.8,113.24-113.24-50.8-113.24-113.24-113.24Z"/>
      </g>
      <path d="M1570.28,833.17c-64.65,0-117.24-52.59-117.24-117.24s52.59-117.24,117.24-117.24,117.24,52.59,117.24,117.24-52.59,117.24-117.24,117.24ZM1570.28,602.7c-62.44,0-113.24,50.8-113.24,113.24s50.8,113.24,113.24,113.24,113.24-50.8,113.24-113.24-50.8-113.24-113.24-113.24Z"/>
      <path d="M1570.99,824.97c-60.12,0-109.04-48.92-109.04-109.04s48.92-109.04,109.04-109.04,109.04,48.92,109.04,109.04-48.92,109.04-109.04,109.04ZM1570.99,607.89c-59.57,0-108.04,48.47-108.04,108.04s48.47,108.04,108.04,108.04,108.04-48.47,108.04-108.04-48.47-108.04-108.04-108.04Z"/>
      <rect x="793.58" y="1230.63" width="774.17" height="4" transform="translate(-526.02 1256.59) rotate(-47.04)"/>
      <rect x="1206.74" y="1167.36" width="425.39" height="4" transform="translate(-145.75 2134.95) rotate(-71.15)"/>
      <rect x="290.07" y="1138.13" width="1147.53" height="4" transform="translate(-385.4 443.34) rotate(-23.7)"/>
      <rect x="176.46" y="937.37" width="1159.22" height="4" transform="translate(-205.34 211.53) rotate(-14.04)"/>
      <rect x="593.04" y="1058.77" width="817.44" height="4" transform="translate(-342.38 493.28) rotate(-23.75)"/>
      <rect x="1373.29" y="1097.05" width="252.82" height="4" transform="translate(350.04 2560.3) rotate(-88.04)"/>
      <rect x="1568.99" y="981.05" width="4" height="811.65"/>
      <rect x="337.05" y="751.1" width="970.91" height="4" transform="translate(-54.31 63.99) rotate(-4.31)"/>
      <rect x="481.79" y="755.48" width="824.62" height="4" transform="translate(-56.1 71.69) rotate(-4.45)"/>
      <rect x="49.18" y="787.56" width="289.23" height="4"/>
      <rect x="172.17" y="1078.11" width="21.63" height="4"/>
      <rect y="1368.65" width="338.42" height="4"/>
      <rect x="18.76" y="1513.93" width="898.13" height="4"/>
      <rect x="223.3" y="1223.38" width="404.35" height="4"/>
      <rect x="1348.74" y="1370.65" width="4" height="613.13"/>
      <rect x="1493.35" y="1225.38" width="4" height="585.06"/>
      <rect x="1014.01" y="1076.63" width="458.34" height="4" transform="translate(-401.61 1018.61) rotate(-38.86)"/>
      <rect x="785.01" y="1477.46" width="4" height="44.84" transform="translate(-815.03 949.89) rotate(-43.37)"/>
      <rect x="338.42" y="1481.85" width="433.85" height="4"/>
      <rect x="336.42" y="1469.88" width="4" height="14.82"/>
      <rect x="113.08" y="1362.21" width="4" height="8.45"/>
      <rect x="123.34" y="1353.05" width="4" height="16.89"/>
      <rect x="139.39" y="1362.21" width="4" height="8.45"/>
      <rect x="155.43" y="1362.21" width="4" height="8.45"/>
      <rect x="167.84" y="1353.05" width="4" height="16.89"/>
      <rect x="183.88" y="1361.5" width="4" height="8.45"/>
      <rect x="197.04" y="1361.5" width="4" height="8.45"/>
      <rect x="210.19" y="1353.05" width="4" height="16.89"/>
      <rect x="226.23" y="1361.5" width="4" height="8.45"/>
      <rect x="242.27" y="1361.5" width="4" height="8.45"/>
      <rect x="256.5" y="1353.05" width="4" height="16.89"/>
      <rect x="272.33" y="1361.5" width="4" height="8.45"/>
      <rect x="288.38" y="1361.5" width="4" height="8.45"/>
      <rect x="302.6" y="1353.05" width="4" height="16.89"/>
      <rect x="1046.84" y="178.26" width="4" height="611.38" transform="translate(164.23 1226.73) rotate(-64.79)"/>
      <rect x="627.02" y="351.73" width="145.25" height="4"/>
      <rect x="1248.31" y="487.81" width="4" height="170.49" transform="translate(203.24 1464.86) rotate(-65.05)"/>
      <rect x="1210.3" y="154.83" width="4" height="453.85" transform="translate(46.3 887.57) rotate(-40.93)"/>
      <rect x="1237.66" y="-.37" width="4" height="562.94" transform="translate(102.01 848.12) rotate(-39.27)"/>
      <path d="M1572.28,1155.14c-59.2,0-116.62-11.59-170.68-34.46-52.22-22.08-99.11-53.7-139.38-93.97-40.27-40.27-71.89-87.16-93.97-139.38-22.87-54.06-34.46-111.49-34.46-170.68s11.59-116.62,34.46-170.68c22.09-52.22,53.7-99.11,93.97-139.38,40.27-40.27,87.16-71.89,139.38-93.97,54.06-22.87,111.49-34.46,170.68-34.46s116.62,11.59,170.68,34.46c52.21,22.08,99.11,53.7,139.38,93.97,40.27,40.27,71.89,87.16,93.97,139.38,22.87,54.06,34.46,111.49,34.46,170.68s-11.59,116.62-34.46,170.68c-22.08,52.22-53.7,99.11-93.97,139.38-40.27,40.27-87.16,71.89-139.38,93.97-54.06,22.87-111.49,34.46-170.68,34.46ZM1572.28,282.16c-239.58,0-434.49,194.91-434.49,434.49s194.91,434.49,434.49,434.49,434.49-194.91,434.49-434.49-194.91-434.49-434.49-434.49Z"/>
      <rect x="329.16" y="761.69" width="4" height="32.32" transform="translate(-443.1 438.38) rotate(-43.26)"/>
      <rect x="219.35" y="764.37" width="101.46" height="4"/>
      <rect x="218.24" y="750.6" width="4" height="15.11"/>
      <path d="M1567.33,1429.2c-96.45,0-190.01-18.89-278.09-56.14-85.07-35.98-161.48-87.5-227.09-153.11s-117.13-142.02-153.11-227.09c-37.25-88.08-56.14-181.64-56.14-278.09s18.89-190.01,56.14-278.09c35.98-85.07,87.5-161.48,153.11-227.09s142.02-117.13,227.09-153.11C1377.32,19.22,1470.88.33,1567.33.33s190.01,18.89,278.09,56.14c85.08,35.98,161.48,87.5,227.09,153.11s117.12,142.02,153.11,227.09c37.25,88.08,56.14,181.64,56.14,278.09s-18.89,190.01-56.14,278.09c-35.98,85.07-87.5,161.48-153.11,227.09s-142.02,117.13-227.09,153.11c-88.08,37.25-181.64,56.14-278.09,56.14ZM1567.33,1.33c-393.39,0-713.43,320.04-713.43,713.43s320.04,713.43,713.43,713.43,713.43-320.04,713.43-713.43S1960.72,1.33,1567.33,1.33Z"/>
      <rect x="1647.75" y="466.27" width="1" height="6.25" transform="translate(97.1 1198.1) rotate(-41.06)"/>
      <rect x="1714.88" y="923.7" width="4" height="201.55" transform="translate(-221.55 1514.09) rotate(-45)"/>
      <rect x="1709.62" y="943.04" width="4" height="186.65" transform="translate(-231.5 1513.84) rotate(-45)"/>
      <g opacity=".21">
        <rect x="1643.62" y="953.46" width="4" height="16.92"/>
      </g>
      <rect x="1787.57" y="1096.52" width="4" height="738.18"/>
      <rect x="1775.44" y="1101.47" width="4" height="763.36"/>
      <g opacity=".28">
        <path d="M1570.99,753.97c-20.52,0-37.22-16.7-37.22-37.22s16.7-37.22,37.22-37.22,37.22,16.7,37.22,37.22-16.7,37.22-37.22,37.22ZM1570.99,683.54c-18.32,0-33.22,14.9-33.22,33.22s14.9,33.22,33.22,33.22,33.22-14.9,33.22-33.22-14.9-33.22-33.22-33.22Z"/>
      </g>
      <path d="M1570.99,753.76c-20.52,0-37.22-16.7-37.22-37.22s16.7-37.22,37.22-37.22,37.22,16.7,37.22,37.22-16.7,37.22-37.22,37.22ZM1570.99,683.32c-18.32,0-33.22,14.9-33.22,33.22s14.9,33.22,33.22,33.22,33.22-14.9,33.22-33.22-14.9-33.22-33.22-33.22Z"/>
      <path d="M1570.99,751.93c-19.39,0-35.17-15.78-35.17-35.17s15.78-35.17,35.17-35.17,35.17,15.78,35.17,35.17-15.78,35.17-35.17,35.17ZM1570.99,685.59c-17.19,0-31.17,13.98-31.17,31.17s13.98,31.17,31.17,31.17,31.17-13.98,31.17-31.17-13.98-31.17-31.17-31.17Z"/>
      <g>
        <path d="M892.65,891.46c.15,1.13-.32,2.26-1.17,2.9l3.25,4.44-2.54.64-3.11-4.25-1.91.48.69,4.86-2.33.58-1.74-12.26,5.66-1.42c1.36-.34,2.54.45,2.86,1.76.01.05.04.14.06.32l.28,1.94ZM890.14,890.81c-.03-.18-.05-.27-.06-.32-.16-.62-.5-.87-1.46-.63l-2.21.55.44,3.1,2.21-.55c1.13-.28,1.21-.88,1.12-1.75l-.04-.4Z" fill="#231f20" stroke="#000" stroke-miterlimit="10"/>
        <path d="M902.81,893.55l-4.56,1.14-.54,3.37-2.49.62,2.38-13.29,3.25-.82,5.86,11.23-2.46.62-1.43-2.87ZM898.64,892.25l3.13-.78-2.13-4.31-.18.04-.82,5.05Z" fill="#231f20" stroke="#000" stroke-miterlimit="10"/>
        <path d="M915.17,893.68l-6.04-7.22,1.21,8.43-2.33.58-1.74-12.26,2.32-.58,6.04,7.24-1.2-8.45,2.33-.58,1.74,12.26-2.33.58Z" fill="#231f20" stroke="#000" stroke-miterlimit="10"/>
        <path d="M924.41,891.57c-2.16.54-4.34.45-4.97-2.08-.04-.14-.06-.23-.12-.61l-.71-5.01c-.44-3.12,1.7-4.39,4.01-4.97.95-.24,2.29-.44,3.18-.59l.31,2.2s-1.89.25-3.07.54c-2.07.52-2.24,1.39-1.93,3.45l.38,2.55c.08.56.15.96.21,1.21.29,1.15.84,1.54,2.53,1.11.51-.13,1.14-.32,1.7-.5l-.41-2.98-2.23.56-.32-2.16,4.56-1.14,1.01,7.09c-1.89.64-3.06,1.05-4.12,1.32Z" fill="#231f20" stroke="#000" stroke-miterlimit="10"/>
        <path d="M930.79,889.76l-1.74-12.26,7.37-1.85.29,2.14-5.04,1.26.41,2.92,4.21-1.05.32,2.16-4.21,1.05.41,2.88,5.18-1.3.32,2.16-7.51,1.88Z" fill="#231f20" stroke="#000" stroke-miterlimit="10"/>
        <path d="M946.5,875.36l1.44,10.1-2.33.58-1.44-10.1-3.08.77-.3-2.16,8.48-2.13.3,2.16-3.07.77Z" fill="#231f20" stroke="#000" stroke-miterlimit="10"/>
        <path d="M959.37,873.13c.02.09.07.28.11.5l.71,5.01c.4,2.87-1.63,4.37-3.94,4.95-2.17.54-4.3.21-4.9-2.17-.02-.07-.05-.19-.1-.54l-.71-5.01c-.42-2.86,1.61-4.37,3.92-4.95,2.16-.54,4.31-.2,4.91,2.21ZM952.96,876.05l.49,3.45c.03.2.06.4.11.57.34,1.36,1.14,1.61,2.37,1.3,1.4-.35,2.06-1.08,1.8-2.95l-.49-3.45c-.03-.2-.06-.4-.1-.56-.34-1.36-1.14-1.61-2.37-1.3-1.4.35-2.06,1.08-1.8,2.93Z" fill="#231f20" stroke="#000" stroke-miterlimit="10"/>
        <path d="M965.41,870.62l1.44,10.1-2.33.58-1.44-10.1-3.08.77-.3-2.16,8.48-2.13.3,2.16-3.07.77Z" fill="#231f20" stroke="#000" stroke-miterlimit="10"/>
        <path d="M976.88,874.97l-4.56,1.14-.55,3.37-2.49.62,2.38-13.29,3.25-.82,5.86,11.23-2.46.62-1.43-2.87ZM972.71,873.67l3.13-.78-2.13-4.31-.18.04-.82,5.05Z" fill="#231f20" stroke="#000" stroke-miterlimit="10"/>
        <path d="M982.08,876.9l-1.74-12.26,2.33-.58,1.43,10.1,4.9-1.23.32,2.16-7.23,1.81Z" fill="#231f20" stroke="#000" stroke-miterlimit="10"/>
        <path d="M998.17,869.82c.32,2.23-1.14,3.54-3.93,4.24-1.25.31-3.65.73-3.65.73l-.32-2.25s2.14-.31,3.41-.63c1.94-.49,2.2-1.06,2.09-1.91l-.03-.27c-.03-.18-.04-.24-.05-.27-.12-.46-.39-.82-1.31-.72l-1.99.23c-1.41.16-2.59-.57-2.96-2.07-.03-.12-.07-.34-.09-.5l-.13-.98c-.29-2.12,1.14-3.48,3.72-4.12,1.01-.25,2.63-.51,3.34-.63l.32,2.32s-2.14.29-3.27.58c-1.47.37-1.82.85-1.71,1.67l.04.31c.02.15.05.27.06.3.12.46.39.8,1.26.7l2.06-.25c1.42-.17,2.55.56,2.9,1.98,0,.04.04.18.07.36l.17,1.22Z" fill="#231f20" stroke="#000" stroke-miterlimit="10"/>
        <path d="M1001.58,863.11l.4,2.79-2.54.64-.4-2.79,2.54-.64ZM1000.27,872.34l-.4-2.79,2.54-.64.4,2.79-2.54.64Z" fill="#231f20" stroke="#000" stroke-miterlimit="10"/>
        <path d="M1016.64,865.42c.21,1.51-.64,2.98-2.29,3.39l-5.87,1.47-1.74-12.26,5.83-1.46c1.52-.38,2.71.41,3.04,1.72.02.07.04.16.06.32l.96,6.82ZM1013.5,860.08c-.03-.2-.05-.27-.07-.34-.21-.85-.67-1.02-1.66-.77l-2.4.6,1.13,7.96,2.4-.6c1.11-.28,1.45-.72,1.3-1.87l-.71-4.99Z" fill="#231f20" stroke="#000" stroke-miterlimit="10"/>
        <path d="M1019.38,867.55l-1.74-12.26,2.33-.58,1.74,12.26-2.33.58Z" fill="#231f20" stroke="#000" stroke-miterlimit="10"/>
        <path d="M1031.58,861.45c.32,2.23-1.14,3.54-3.93,4.24-1.25.31-3.65.73-3.65.73l-.32-2.25s2.14-.31,3.41-.63c1.94-.49,2.2-1.06,2.09-1.92l-.03-.27c-.03-.18-.04-.23-.05-.27-.12-.46-.39-.82-1.31-.72l-1.99.23c-1.41.17-2.59-.57-2.96-2.07-.03-.12-.07-.34-.09-.5l-.13-.98c-.29-2.12,1.14-3.48,3.72-4.12,1.01-.25,2.63-.51,3.34-.63l.32,2.32s-2.14.29-3.27.58c-1.47.37-1.82.85-1.7,1.67l.04.31c.02.15.05.27.06.3.12.46.39.8,1.26.7l2.06-.25c1.42-.17,2.54.56,2.9,1.98,0,.04.04.18.07.36l.17,1.22Z" fill="#231f20" stroke="#000" stroke-miterlimit="10"/>
        <path d="M1036.86,852.7l1.44,10.1-2.33.58-1.44-10.1-3.07.77-.3-2.16,8.48-2.13.3,2.16-3.08.77Z" fill="#231f20" stroke="#000" stroke-miterlimit="10"/>
        <path d="M1048.34,857.06l-4.56,1.14-.55,3.37-2.49.62,2.38-13.29,3.25-.81,5.86,11.23-2.46.62-1.43-2.87ZM1044.17,855.76l3.13-.78-2.13-4.31-.18.04-.82,5.05Z" fill="#231f20" stroke="#000" stroke-miterlimit="10"/>
        <path d="M1060.7,857.19l-6.04-7.22,1.21,8.43-2.33.58-1.74-12.26,2.32-.58,6.04,7.24-1.2-8.45,2.33-.58,1.74,12.26-2.33.58Z" fill="#231f20" stroke="#000" stroke-miterlimit="10"/>
        <path d="M1073.1,854.08c-.87.29-2.21.76-3.17,1-2.16.54-4.34.45-4.97-2.08-.05-.19-.08-.39-.12-.61l-.71-5.01c-.44-3.12,1.7-4.39,4.01-4.97.95-.24,2.29-.44,3.18-.59l.31,2.2s-1.89.25-3.08.54c-2.07.52-2.24,1.39-1.93,3.45l.38,2.55c.06.47.12.87.21,1.21.29,1.15.84,1.54,2.53,1.11,1.18-.3,3.04-.99,3.04-.99l.32,2.17Z" fill="#231f20" stroke="#000" stroke-miterlimit="10"/>
        <path d="M1074.89,853.63l-1.74-12.26,7.37-1.85.29,2.14-5.04,1.26.41,2.92,4.21-1.05.32,2.16-4.21,1.05.4,2.88,5.18-1.3.32,2.16-7.51,1.88Z" fill="#231f20" stroke="#000" stroke-miterlimit="10"/>
        <path d="M1087.49,854.27l3.18-11.28-5.07,1.27-.31-2.14,7.72-1.94.23,1.6-3.12,11.83-2.63.66Z" fill="#231f20" stroke="#000" stroke-miterlimit="10"/>
        <path d="M1101.92,844.62l.32,2.16-7.56,1.9-.27-1.9,3.21-3.25c.72-.72,1.08-1,.96-1.95l-.02-.16c-.05-.44-.34-.53-.8-.42-.87.22-3.3,1.05-3.3,1.05l-.31-2.12s2.38-.82,3.53-1.11c1.31-.33,2.73-.29,3.05,1,.01.05.02.07.04.25l.15,1.03c.16,1.09-.17,1.66-1.11,2.61l-1.82,1.83.02.07,3.92-.98Z" fill="#231f20" stroke="#000" stroke-miterlimit="10"/>
        <path d="M1103.49,846.46l-.4-2.79,2.54-.64.4,2.79-2.54.64Z" fill="#231f20" stroke="#000" stroke-miterlimit="10"/>
        <path d="M1114.94,838.29c.04.18.07.36.1.56l.25,1.82c.33,2.34-1.65,3.46-3.45,3.91-1.7.42-3.72.37-4.22-1.61,0-.04-.04-.18-.09-.5l-.83-5.88c-.42-2.94,1.15-4.12,3.39-4.68.97-.24,2.19-.4,3.42-.61l.32,2.17s-2.42.33-3.39.57c-1.5.38-1.52,1.04-1.37,2.09l.14,1.02c.5-.24,1.14-.46,1.71-.6,2.46-.62,3.62.13,4.03,1.75ZM1109.54,839.51l.25,1.76c.03.18.06.38.08.49.2.79.62,1.05,1.68.78,1.25-.31,1.47-.86,1.31-2.04l-.08-.53c-.05-.34-.1-.61-.12-.72-.15-.62-.45-.81-1.35-.58-1.11.28-1.78.84-1.78.84Z" fill="#231f20" stroke="#000" stroke-miterlimit="10"/>
        <path d="M1127.4,840.46l-.73-5.15c-.03-.18-.04-.25-.05-.27-.17-.67-.63-.8-1.08-.69-.12.03-.22.08-.33.12l-1.39.76.86,5.91-2.33.58-.73-5.15c-.02-.16-.04-.25-.05-.27-.17-.67-.63-.8-1.08-.69-.11.03-.21.07-.31.12l-1.37.75.84,5.91-2.33.58-1.23-8.59,2.33-.58.19,1.29,1.46-1.83c.15-.09.34-.16.48-.19,1.43-.36,2.44.06,2.93.99l1.62-2.06c.15-.09.32-.15.46-.19,1.75-.44,2.85.3,3.19,1.64.01.05.05.19.08.39l.87,6.04-2.33.58Z" fill="#231f20" stroke="#000" stroke-miterlimit="10"/>
        <path d="M1141.59,836.91l-.73-5.15c-.03-.18-.04-.25-.05-.27-.17-.67-.63-.8-1.08-.69-.12.03-.22.08-.33.12l-1.39.76.86,5.91-2.33.58-.73-5.15c-.02-.16-.04-.25-.05-.27-.17-.67-.63-.8-1.08-.69-.11.03-.21.07-.31.12l-1.37.75.84,5.91-2.33.59-1.23-8.59,2.33-.58.19,1.29,1.46-1.83c.15-.09.34-.16.48-.19,1.43-.36,2.44.06,2.93.99l1.62-2.06c.15-.09.32-.15.46-.19,1.75-.44,2.85.3,3.19,1.64.01.05.05.19.08.39l.87,6.04-2.33.58Z" fill="#231f20" stroke="#000" stroke-miterlimit="10"/>
      </g>
      <g>
        <path d="M962.64,429.85l-6.63-3.18-4.02,3.51-3.62-1.74,16.14-13.62,4.73,2.27-4.16,19.36-3.57-1.71,1.14-4.89ZM958.92,424.12l4.55,2.18,1.74-7.32-.26-.12-6.03,5.26Z" fill="#231f20" stroke="#000" stroke-miterlimit="10"/>
        <path d="M973.73,435.45l.26.12,11.66-10.62,3.78,1.81-16.13,13.62-3.6-1.72,4.16-19.36,3.62,1.74-3.75,14.41Z" fill="#231f20" stroke="#000" stroke-miterlimit="10"/>
        <path d="M986.87,447.25c-3.13-1.5-5.67-3.79-3.91-7.47.1-.21.16-.33.47-.85l4.14-6.73c2.58-4.2,6.43-3.58,9.79-1.97,1.39.67,3.2,1.76,4.41,2.46l-1.82,2.95s-2.52-1.59-4.25-2.41c-3.01-1.44-4.09-.57-5.77,2.22l-2.1,3.45c-.46.76-.78,1.3-.95,1.66-.8,1.67-.53,2.69,1.94,3.87.74.36,1.69.75,2.54,1.09l2.48-3.99-3.24-1.55,1.77-2.91,6.63,3.18-5.87,9.54c-2.91-1.11-4.73-1.79-6.27-2.53Z" fill="#231f20" stroke="#000" stroke-miterlimit="10"/>
        <path d="M1015.43,455.47c-1.85,3-4.9,3.11-8.96,1.17-1.82-.87-5.12-2.77-5.12-2.77l1.86-3.03s2.88,1.76,4.73,2.65c2.83,1.36,3.7.92,4.43-.21l.24-.36c.15-.24.19-.32.21-.37.32-.67.35-1.38-.85-2.18l-2.63-1.7c-1.86-1.21-2.54-3.27-1.49-5.46.09-.18.26-.48.4-.69l.82-1.31c1.77-2.85,4.84-3.05,8.59-1.25,1.46.7,3.68,2.02,4.64,2.57l-1.94,3.12s-2.87-1.79-4.52-2.58c-2.13-1.02-3.03-.79-3.71.3l-.26.41c-.12.19-.21.37-.24.42-.32.67-.33,1.36.82,2.1l2.73,1.75c1.88,1.22,2.5,3.22,1.52,5.28-.02.05-.12.26-.27.5l-1.01,1.63Z" fill="#231f20" stroke="#000" stroke-miterlimit="10"/>
        <path d="M1015.85,460.79l10.15-16.49,3.39,1.63-8.38,13.58,7.12,3.41-1.77,2.91-10.51-5.04Z" fill="#231f20" stroke="#000" stroke-miterlimit="10"/>
        <path d="M1048.21,460.38c-.06.13-.2.41-.37.71l-4.14,6.73c-2.38,3.85-6.32,3.63-9.69,2.02-3.16-1.51-5.39-4.04-3.73-7.51.05-.1.14-.28.42-.75l4.14-6.73c2.36-3.86,6.3-3.65,9.66-2.03,3.13,1.5,5.38,4.06,3.71,7.56ZM1037.58,457.5l-2.85,4.63c-.16.27-.32.54-.45.8-.95,1.98-.24,3.08,1.56,3.94,2.03.97,3.55.76,5.11-1.75l2.85-4.63c.16-.27.32-.54.43-.77.95-1.98.24-3.07-1.56-3.94-2.03-.97-3.55-.76-5.09,1.73Z" fill="#231f20" stroke="#000" stroke-miterlimit="10"/>
        <path d="M1062.29,469.82c-1.25,2.02-3.84,2.93-5.97,1.91l-4.83-2.31-4.02,6.54-3.39-1.63,10.15-16.49,8.22,3.94c1.98.95,2.6,3.08,1.69,4.98-.05.1-.1.21-.25.45l-1.6,2.61ZM1059.92,466.53c.16-.27.21-.37.25-.45.43-.9.27-1.55-1.12-2.21l-3.21-1.54-2.57,4.17,3.21,1.54c1.64.79,2.33.14,3.09-.98l.35-.53Z" fill="#231f20" stroke="#000" stroke-miterlimit="10"/>
        <path d="M1058.26,481.12l10.15-16.49,10.71,5.13-1.79,2.87-7.32-3.51-2.42,3.93,6.11,2.93-1.77,2.91-6.11-2.93-2.39,3.87,7.53,3.61-1.77,2.91-10.92-5.23Z" fill="#231f20" stroke="#000" stroke-miterlimit="10"/>
        <path d="M1092.86,487.95c-.14.28-.31.58-.49.9l-1.08,1.79c-2.33,3.88-5.66,3.96-8.97,2.37-3.08-1.48-4.7-3.64-3.1-6.98.1-.21.18-.38.51-.93l1.08-1.79c2.33-3.87,5.63-3.97,8.94-2.38,3.06,1.47,4.71,3.68,3.11,7.02ZM1083.91,485.4l-.47.79c-.15.25-.43.71-.63,1.12-.59,1.23-.44,2.03,1.28,2.86,2.13,1.02,2.97.26,4.09-1.61l.48-.81c.16-.27.48-.81.61-1.07.59-1.23.45-2.06-1.27-2.88-2.13-1.02-2.97-.26-4.09,1.61Z" fill="#231f20" stroke="#000" stroke-miterlimit="10"/>
        <path d="M1091.14,496.88l2.31-3.76,3.7,1.77-2.31,3.76-3.7-1.77Z" fill="#231f20" stroke="#000" stroke-miterlimit="10"/>
        <path d="M1092.71,504.02l15.09-10.39-7.37-3.53,1.76-2.88,11.23,5.38-1.32,2.15-15.56,11.11-3.83-1.83Z" fill="#231f20" stroke="#000" stroke-miterlimit="10"/>
        <path d="M1114.97,508.31l-2.96-1.42,18.19-12.64,2.95,1.42-18.19,12.64ZM1124.54,494.61s-.05.1-.2.35l-2.28,3.71c-1.3,2.12-3.74,1.87-5.87.85-2-.96-3.51-2.5-2.57-4.46.04-.08.11-.23.24-.42l2.25-3.63c1.3-2.12,3.77-1.86,5.84-.86,1.98.95,3.53,2.52,2.6,4.47ZM1118.81,492.93l-1.6,2.55c-.11.17-.17.3-.19.32-.32.67.08,1.08.62,1.34.59.28,1.23.34,1.75-.49l1.59-2.52c.15-.24.17-.3.2-.35.32-.67-.11-1.09-.65-1.35-.59-.28-1.19-.35-1.72.5ZM1131.49,507.54s-.05.1-.2.35l-2.28,3.71c-1.3,2.12-3.74,1.87-5.87.85-2-.96-3.51-2.5-2.57-4.46.04-.08.11-.23.24-.42l2.25-3.63c1.3-2.12,3.77-1.86,5.85-.86,1.98.95,3.53,2.51,2.6,4.47ZM1125.75,505.87l-1.6,2.55c-.11.17-.17.3-.19.32-.32.67.08,1.08.62,1.34.59.28,1.23.34,1.75-.49l1.59-2.52c.15-.25.17-.3.2-.35.32-.67-.11-1.09-.65-1.35-.59-.28-1.19-.35-1.72.5Z" fill="#231f20" stroke="#000" stroke-miterlimit="10"/>
      </g>
      <g>
        <path d="M466.29,772.52l.43-16.65,10.19-.81-.09,2.91-6.96.55-.1,3.97,5.81-.46-.06,2.93-5.81.46-.11,3.92,7.16-.57-.06,2.93-10.38.82Z" fill="#231f20" stroke="#000" stroke-miterlimit="10"/>
        <path d="M478.96,771.52l.43-16.65,3.22-.25-.37,13.72,6.77-.54-.06,2.93-9.99.79Z" fill="#231f20" stroke="#000" stroke-miterlimit="10"/>
        <path d="M490.96,770.57l.43-16.65,10.19-.81-.09,2.91-6.96.55-.1,3.97,5.81-.46-.06,2.93-5.81.46-.11,3.92,7.16-.57-.06,2.93-10.38.82Z" fill="#231f20" stroke="#000" stroke-miterlimit="10"/>
        <path d="M509.67,765.08l.25-.02,4.09-12.93,3.59-.28-6.12,17.1-3.42.27-5.26-16.2,3.44-.27,3.43,12.34Z" fill="#231f20" stroke="#000" stroke-miterlimit="10"/>
        <path d="M530.4,767.72c-2.98.24-5.86-.37-6.13-3.87-.01-.2-.02-.32-.02-.83l.17-6.8c.11-4.24,3.23-5.44,6.43-5.7,1.32-.1,3.14-.08,4.35-.07l-.08,2.98s-2.56-.09-4.2.04c-2.86.23-3.29,1.34-3.33,4.15l-.07,3.47c-.01.76-.02,1.3,0,1.65.13,1.59.77,2.23,3.11,2.04.71-.06,1.58-.17,2.36-.28l.12-4.04-3.08.24.06-2.93,6.3-.5-.25,9.63c-2.65.43-4.29.71-5.76.82Z" fill="#231f20" stroke="#000" stroke-miterlimit="10"/>
        <path d="M549.07,761.74l-6.3.5-1.48,4.34-3.44.27,6.12-17.1,4.5-.36,5.26,16.2-3.4.27-1.26-4.13ZM543.82,759.09l4.32-.34-1.87-6.19-.24.02-2.21,6.52Z" fill="#231f20" stroke="#000" stroke-miterlimit="10"/>
        <path d="M555.7,765.45l.43-16.65,3.22-.25-.43,16.65-3.22.25Z" fill="#231f20" stroke="#000" stroke-miterlimit="10"/>
        <path d="M572.21,764.14l-6.39-10.92-.27,11.45-3.22.25.43-16.65,3.2-.25,6.4,10.95.3-11.48,3.22-.25-.43,16.65-3.22.25Z" fill="#231f20" stroke="#000" stroke-miterlimit="10"/>
        <path d="M578.9,764.2l-2.81.22,6.87-18.24,2.83-.22-6.89,18.24Z" fill="#231f20" stroke="#000" stroke-miterlimit="10"/>
        <path d="M586.01,763.05l.43-16.65,3.22-.25-.37,13.72,6.77-.54-.06,2.93-9.99.79Z" fill="#231f20" stroke="#000" stroke-miterlimit="10"/>
        <path d="M609.9,748.77c0,.12.03.39.03.69l-.18,6.8c-.11,3.89-3.13,5.44-6.33,5.69-3,.24-5.76-.67-6.02-3.97,0-.1-.02-.27,0-.74l.18-6.8c.08-3.89,3.11-5.43,6.31-5.69,2.98-.24,5.76.7,6.02,4.02ZM600.75,751.21l-.12,4.68c0,.27,0,.54.01.79.15,1.88,1.15,2.39,2.86,2.26,1.93-.15,2.97-.97,3.04-3.51l.12-4.68c0-.27,0-.54-.01-.76-.15-1.88-1.15-2.39-2.86-2.26-1.93.15-2.97.97-3.04,3.49Z" fill="#231f20" stroke="#000" stroke-miterlimit="10"/>
        <path d="M623.53,756.1c-.08,3.03-2.3,4.44-6.16,4.74-1.73.14-5,.15-5,.15l.08-3.06s2.91.07,4.67-.07c2.69-.21,3.15-.91,3.2-2.07l.02-.37c0-.25,0-.32,0-.37-.05-.64-.34-1.18-1.57-1.25l-2.69-.13c-1.9-.1-3.3-1.34-3.47-3.41-.01-.17-.01-.47,0-.69l.04-1.33c.09-2.88,2.29-4.36,5.85-4.64,1.39-.11,3.61-.09,4.57-.09l-.09,3.15s-2.91-.09-4.47.03c-2.03.16-2.6.72-2.63,1.83l-.02.42c0,.2,0,.37,0,.42.05.63.34,1.15,1.52,1.21l2.79.12c1.92.09,3.25,1.32,3.41,3.27,0,.05.02.24.01.49l-.04,1.65Z" fill="#231f20" stroke="#000" stroke-miterlimit="10"/>
        <path d="M637.06,755.03c-.08,3.03-2.3,4.44-6.16,4.74-1.74.14-5,.15-5,.15l.08-3.05s2.91.07,4.66-.07c2.69-.21,3.15-.91,3.2-2.07l.02-.37c0-.25,0-.32,0-.37-.05-.64-.34-1.18-1.57-1.25l-2.69-.13c-1.9-.1-3.3-1.34-3.46-3.41-.01-.17-.01-.47,0-.69l.04-1.33c.09-2.88,2.29-4.36,5.85-4.64,1.39-.11,3.61-.09,4.57-.09l-.09,3.15s-2.91-.09-4.47.03c-2.03.16-2.6.72-2.63,1.83l-.02.42c0,.2,0,.37,0,.42.05.63.34,1.15,1.52,1.21l2.79.12c1.93.09,3.25,1.32,3.41,3.27,0,.05.02.24.01.49l-.04,1.65Z" fill="#231f20" stroke="#000" stroke-miterlimit="10"/>
        <path d="M653.58,757.71l-.15,4.98-3.08.24.15-4.98-7.33.58.07-2.86,7.83-9.42,2.79-.22-.22,8.74,2.32-.18-.06,2.93-2.32.18ZM650.68,750.51l-3.85,4.8,3.74-.3.11-4.51Z" fill="#231f20" stroke="#000" stroke-miterlimit="10"/>
        <path d="M662.91,750.65v-.84c0-.37,0-.46-.01-.56-.08-.95-.47-1.24-1.74-1.14-1.03.08-4.15.65-4.15.65l.06-2.93s2.83-.54,4.54-.68c3.27-.26,4.32,1.13,4.48,3.21.02.22.03.66.02.93l-.02,1.25c0,.2-.03.52-.16.73l-2.18,2.29,2.13,2.02c.14.21.13.43.13.7l-.02.99c-.06,3.03-1.54,4.82-5.59,5.14-1.47.12-4.18.01-4.18.01l.06-3s2.79.12,3.81.04c1.44-.11,2.63-.31,2.7-1.91l.03-.86-1.59-1.5-3.44.27.07-2.88,3.47-.27,1.59-1.65Z" fill="#231f20" stroke="#000" stroke-miterlimit="10"/>
        <path d="M682.48,755.42l.18-7c0-.25,0-.34,0-.37-.07-.93-.66-1.2-1.27-1.15-.17.01-.32.05-.46.08l-2.01.7-.18,8.03-3.22.25.18-7c0-.22,0-.34,0-.37-.07-.93-.66-1.2-1.27-1.15-.15.01-.29.05-.44.08l-1.99.7-.2,8.03-3.22.25.28-11.67,3.22-.25-.03,1.75,2.34-2.1c.21-.09.48-.14.68-.15,1.98-.16,3.22.63,3.67,1.97l2.62-2.37c.21-.09.46-.13.65-.15,2.42-.19,3.72,1.03,3.87,2.89,0,.07.02.27.02.54l-.19,8.2-3.23.25Z" fill="#231f20" stroke="#000" stroke-miterlimit="10"/>
        <path d="M702.09,753.87l.18-7c0-.25,0-.34,0-.37-.07-.93-.66-1.2-1.27-1.15-.17.01-.32.05-.46.09l-2.01.7-.18,8.03-3.22.26.18-7c0-.22,0-.34,0-.37-.07-.93-.66-1.2-1.27-1.15-.15.01-.29.05-.44.08l-1.99.7-.2,8.03-3.22.26.28-11.67,3.22-.26-.03,1.75,2.34-2.1c.21-.09.48-.13.68-.15,1.98-.16,3.22.63,3.67,1.97l2.62-2.37c.21-.09.46-.13.65-.15,2.42-.19,3.72,1.03,3.87,2.89,0,.07.02.27.02.54l-.19,8.2-3.22.26Z" fill="#231f20" stroke="#000" stroke-miterlimit="10"/>
        <path d="M707.78,753.42l.09-3.79,3.52-.28-.09,3.79-3.52.28Z" fill="#231f20" stroke="#000" stroke-miterlimit="10"/>
        <path d="M716.79,747.42l.09-2.93,6.89-.54-.09,2.93-6.89.54Z" fill="#231f20" stroke="#000" stroke-miterlimit="10"/>
        <path d="M736.69,744.2c.02.24.01.49.01.76l-.08,2.47c-.09,3.18-2.96,4.22-5.45,4.41-2.35.19-5.02-.34-5.23-3.08,0-.05-.02-.24,0-.69l.2-7.98c.1-3.99,2.44-5.21,5.54-5.45,1.34-.11,3-.04,4.67-.05l-.06,2.96s-3.28-.11-4.62,0c-2.08.16-2.25,1.04-2.29,2.47l-.04,1.38c.72-.21,1.62-.35,2.4-.41,3.4-.27,4.77.97,4.95,3.22ZM729.25,744.61l-.06,2.39c0,.25,0,.52,0,.66.09,1.1.59,1.53,2.05,1.41,1.73-.14,2.15-.81,2.19-2.41l.02-.71c.01-.47,0-.84,0-.98-.07-.86-.41-1.17-1.66-1.07-1.54.12-2.55.72-2.55.72Z" fill="#231f20" stroke="#000" stroke-miterlimit="10"/>
        <path d="M748.52,751.25c-.08,3.33-2.46,4.37-5.12,4.58-1.74.14-4.89.07-4.89.07l.09-2.93s2.37.13,4.03,0c1.54-.12,2.66-.26,2.69-2.08l.02-1.03c0-.22,0-.34,0-.37-.11-1.34-1.2-1.5-2.3-1.42l-3.98.32.24-9.11,8.84-.7-.07,2.91-5.62.44-.08,3.32,1.95-.15c2.79-.22,4.07,1.15,4.24,3.21,0,.1.03.37.02.61l-.06,2.34Z" fill="#231f20" stroke="#000" stroke-miterlimit="10"/>
        <path d="M764.73,748.91l.18-7c0-.25,0-.34,0-.37-.07-.93-.66-1.2-1.27-1.15-.17.01-.32.05-.46.09l-2.01.7-.18,8.03-3.22.25.18-7c0-.22,0-.34,0-.37-.07-.93-.66-1.2-1.27-1.15-.15.01-.29.05-.44.08l-1.99.7-.2,8.03-3.22.25.28-11.67,3.22-.25-.03,1.75,2.34-2.1c.21-.09.48-.14.68-.15,1.98-.16,3.22.63,3.67,1.97l2.62-2.37c.21-.09.46-.13.65-.15,2.42-.19,3.72,1.03,3.87,2.89,0,.07.02.27.02.54l-.19,8.2-3.22.25Z" fill="#231f20" stroke="#000" stroke-miterlimit="10"/>
        <path d="M784.34,747.36l.18-7c0-.25,0-.34,0-.37-.07-.93-.66-1.2-1.27-1.15-.17.01-.32.05-.46.09l-2.01.7-.18,8.03-3.22.26.18-7c0-.22,0-.34,0-.37-.07-.93-.66-1.2-1.27-1.15-.15.01-.29.05-.44.08l-1.98.7-.2,8.03-3.22.26.28-11.67,3.22-.26-.03,1.75,2.34-2.1c.21-.09.48-.13.68-.15,1.98-.16,3.22.63,3.67,1.97l2.62-2.37c.21-.09.46-.13.65-.15,2.42-.19,3.72,1.03,3.87,2.89,0,.07.02.27.02.54l-.19,8.2-3.22.26Z" fill="#231f20" stroke="#000" stroke-miterlimit="10"/>
      </g>
      <g>
        <path d="M645.93,350.41l2.02-19.26h11.88l-.37,3.36h-8.12l-.48,4.59h6.78l-.34,3.39h-6.78l-.48,4.53h8.35l-.34,3.39h-12.11Z" fill="#231f20" stroke="#000" stroke-miterlimit="10"/>
        <path d="M660.71,350.41l2.02-19.26h3.76l-1.68,15.87h7.89l-.34,3.39h-11.65Z" fill="#231f20" stroke="#000" stroke-miterlimit="10"/>
        <path d="M674.7,350.41l2.02-19.26h11.88l-.37,3.36h-8.12l-.48,4.59h6.78l-.34,3.39h-6.78l-.48,4.53h8.35l-.34,3.39h-12.11Z" fill="#231f20" stroke="#000" stroke-miterlimit="10"/>
        <path d="M696.89,345.76h.29l5.92-14.61h4.19l-8.66,19.26h-3.99l-4.62-19.26h4.02l2.85,14.61Z" fill="#231f20" stroke="#000" stroke-miterlimit="10"/>
        <path d="M717.23,345.51h-7.35l-2.11,4.9h-4.02l8.66-19.26h5.24l4.62,19.26h-3.96l-1.08-4.9ZM711.39,341.95h5.04l-1.6-7.35h-.29l-3.16,7.35Z" fill="#231f20" stroke="#000" stroke-miterlimit="10"/>
        <path d="M731.61,334.54l-1.65,15.87h-3.76l1.65-15.87h-4.96l.37-3.39h13.67l-.37,3.39h-4.96Z" fill="#231f20" stroke="#000" stroke-miterlimit="10"/>
        <path d="M737.16,350.41l2.02-19.26h3.76l-2.02,19.26h-3.76Z" fill="#231f20" stroke="#000" stroke-miterlimit="10"/>
        <path d="M760.75,336.05c0,.14,0,.46-.03.8l-.83,7.86c-.48,4.5-4.13,6.01-7.86,6.01-3.5,0-6.61-1.31-6.61-5.16,0-.11,0-.31.06-.85l.83-7.86c.46-4.5,4.1-6.01,7.83-6.01,3.48,0,6.61,1.34,6.61,5.21ZM749.93,338.04l-.57,5.41c-.03.31-.06.63-.06.91,0,2.19,1.11,2.88,3.11,2.88,2.25,0,3.53-.85,3.85-3.79l.57-5.41c.03-.31.06-.63.06-.88,0-2.19-1.11-2.88-3.11-2.88-2.25,0-3.53.85-3.85,3.76Z" fill="#231f20" stroke="#000" stroke-miterlimit="10"/>
        <path d="M774.59,350.41l-6.41-13.25-1.37,13.25h-3.76l2.02-19.26h3.73l6.41,13.28,1.4-13.28h3.76l-2.02,19.26h-3.76Z" fill="#231f20" stroke="#000" stroke-miterlimit="10"/>
        <path d="M787.7,344.28l.37-3.39h8.03l-.37,3.39h-8.03Z" fill="#231f20" stroke="#000" stroke-miterlimit="10"/>
        <path d="M809.15,347.02l-.34,3.39h-12.19l.31-2.99,6.1-3.7c1.37-.83,2.02-1.11,2.19-2.59l.03-.26c.09-.68-.31-.94-1.05-.94-1.4,0-5.41.34-5.41.34l.34-3.33s3.93-.34,5.78-.34c2.11,0,4.25.6,4.25,2.68,0,.09,0,.11-.03.4l-.17,1.62c-.17,1.71-.88,2.45-2.68,3.53l-3.45,2.08v.11h6.32Z" fill="#231f20" stroke="#000" stroke-miterlimit="10"/>
        <path d="M818.17,343.09l.09-.97c.03-.43.03-.54.03-.66,0-1.11-.43-1.48-1.91-1.48-1.2,0-4.87.37-4.87.37l.34-3.39s3.33-.37,5.33-.37c3.82,0,4.9,1.71,4.9,4.13,0,.26-.03.77-.06,1.08l-.14,1.45c-.03.23-.09.6-.26.83l-2.74,2.45,2.28,2.54c.14.26.11.51.09.83l-.11,1.14c-.34,3.5-2.22,5.44-6.95,5.44-1.71,0-4.84-.37-4.84-.37l.34-3.48s3.22.4,4.42.4c1.68,0,3.08-.11,3.3-1.97l.11-1-1.71-1.88h-4.02l.34-3.33h4.04l1.99-1.77Z" fill="#231f20" stroke="#000" stroke-miterlimit="10"/>
        <path d="M828.29,350.35c-.2,1.71-.71,2.96-1.48,4.04l-1.94-.6s1-1.51,1.2-3.39h-1.88l.46-4.39h4.1l-.46,4.33Z" fill="#231f20" stroke="#000" stroke-miterlimit="10"/>
        <path d="M835.18,344.28l.37-3.39h8.03l-.37,3.39h-8.03Z" fill="#231f20" stroke="#000" stroke-miterlimit="10"/>
        <path d="M852.36,343.09l.08-.97c.03-.43.03-.54.03-.66,0-1.11-.43-1.48-1.91-1.48-1.2,0-4.87.37-4.87.37l.34-3.39s3.33-.37,5.33-.37c3.82,0,4.9,1.71,4.9,4.13,0,.26-.03.77-.06,1.08l-.14,1.45c-.03.23-.08.6-.26.83l-2.73,2.45,2.28,2.54c.14.26.11.51.08.83l-.11,1.14c-.34,3.5-2.22,5.44-6.95,5.44-1.71,0-4.84-.37-4.84-.37l.34-3.48s3.22.4,4.42.4c1.68,0,3.08-.11,3.3-1.97l.11-1-1.71-1.88h-4.02l.34-3.33h4.05l1.99-1.77Z" fill="#231f20" stroke="#000" stroke-miterlimit="10"/>
        <path d="M860.5,337.19c0-.11,0-.37.03-.68l.11-1c.31-2.79,2.71-4.67,6.35-4.67,3.42,0,5.36,1.62,5.36,4.1,0,.08,0,.31-.03.57l-.11,1.2c-.17,1.62-1.23,3.13-2.99,3.85,1.94.71,2.62,2.08,2.62,3.48,0,.08,0,.2-.03.51l-.14,1.42c-.37,3.68-3.93,4.76-6.78,4.76s-5.78-.97-5.78-4.16c0-.11,0-.31.03-.6l.14-1.42c.14-1.6,1.11-3.19,3.42-3.99-1.48-.63-2.19-1.94-2.19-3.36ZM868.02,344.77c.03-.34.03-.46.03-.54,0-1.42-.74-1.91-1.97-1.91h-.63c-1.37,0-2.28.6-2.45,2.45l-.06.57c-.03.28-.03.43-.03.46,0,1.51.97,1.88,2.31,1.88,1.42,0,2.56-.46,2.73-2.31l.06-.6ZM864.35,336.25l-.06.37c-.06.37-.06.54-.06.63,0,1.31.57,1.77,1.51,1.77h.54c1.17,0,1.88-.54,2.17-2.39l.06-.37c.03-.17.03-.43.03-.51,0-1.48-.83-1.85-1.88-1.85-1.17,0-2.02.46-2.31,2.36Z" fill="#231f20" stroke="#000" stroke-miterlimit="10"/>
      </g>
      <rect x="1026.2" y="255.92" width="4" height="604.53" transform="translate(131.12 1309.18) rotate(-68.43)"/>
    </g>
  </g>
</svg>