<?xml version="1.0" encoding="UTF-8"?>
<svg id="Layer_2" data-name="Layer 2" xmlns="http://www.w3.org/2000/svg" xmlns:xlink="http://www.w3.org/1999/xlink" viewBox="0 0 115.5 2966.43">
  <defs>
    <filter id="drop-shadow-1" x="-8.72" y="-8.69" width="167.52" height="3018.48" filterUnits="userSpaceOnUse">
      <feOffset dx="17.28" dy="17.28"/>
      <feGaussianBlur result="blur" stdDeviation="8.64"/>
      <feFlood flood-color="#231f20" flood-opacity=".91"/>
      <feComposite in2="blur" operator="in"/>
      <feComposite in="SourceGraphic"/>
    </filter>
  </defs>
  <g id="Layer_1-2" data-name="Layer 1">
    <g filter="url(#drop-shadow-1)">
      <rect x="18.68" y="1387.65" width="29.22" height="30.67" transform="translate(-1369.7 1436.27) rotate(-90)" fill="#eb1c4e"/>
      <rect x="9.7" y="1320.25" width="29.22" height="48.62" transform="translate(-1320.25 1368.87) rotate(-90)" fill="#eb1c4e"/>
      <rect x="17.05" y="1269.16" width="29.22" height="33.93" transform="translate(-1254.47 1317.78) rotate(-90)" fill="#eb1c4e"/>
      <rect x="25.16" y="1221.6" width="29.22" height="17.71" transform="translate(-1190.69 1270.22) rotate(-90)" fill="#eb1c4e"/>
      <rect x="17.81" y="1155.83" width="29.22" height="32.4" transform="translate(-1139.6 1204.45) rotate(-90)" fill="#eb1c4e"/>
      <rect x="11.77" y="1091.35" width="29.22" height="44.49" transform="translate(-1087.22 1139.97) rotate(-90)" fill="#eb1c4e"/>
      <rect x="19.45" y="982.17" width="29.22" height="29.13" transform="translate(-962.68 1030.79) rotate(-90)" fill="#eb1c4e"/>
      <rect x="18.1" y="922.39" width="29.22" height="31.82" transform="translate(-905.59 971.01) rotate(-90)" fill="#eb1c4e"/>
      <rect x="22.28" y="870.9" width="29.22" height="23.47" transform="translate(-845.75 919.52) rotate(-90)" fill="#eb1c4e"/>
      <rect x="18.68" y="317.73" width="29.22" height="30.67" transform="translate(366.35 299.78) rotate(90)" fill="#eb1c4e"/>
      <rect x="9.7" y="367.19" width="29.22" height="48.62" transform="translate(415.81 367.19) rotate(90)" fill="#eb1c4e"/>
      <rect x="20.02" y="462.39" width="29.22" height="27.98" transform="translate(511.01 441.75) rotate(90)" fill="#eb1c4e"/>
      <rect x="22.28" y="523.07" width="29.22" height="23.47" transform="translate(571.69 497.92) rotate(90)" fill="#eb1c4e"/>
      <rect x="11.77" y="600.21" width="29.22" height="44.49" transform="translate(648.83 596.08) rotate(90)" fill="#eb1c4e"/>
      <rect x="24.52" y="700.61" width="29.22" height="18.98" transform="translate(749.23 670.97) rotate(90)" fill="#eb1c4e"/>
      <rect x="24.29" y="814.48" width="29.22" height="19.44" transform="translate(863.1 785.3) rotate(90)" fill="#eb1c4e"/>
      <rect x="25.53" y="266.15" width="29.22" height="16.97" transform="translate(-234.5 314.77) rotate(-90)" fill="#eb1c4e"/>
      <rect x="18.68" y="200.87" width="29.22" height="30.67" transform="translate(-182.92 249.49) rotate(-90)" fill="#eb1c4e"/>
      <rect x="28.81" y="152.57" width="29.22" height="10.4" transform="translate(-114.35 201.19) rotate(-90)" fill="#eb1c4e"/>
      <rect x="13.45" y="81.54" width="29.22" height="41.13" transform="translate(-74.05 130.16) rotate(-90)" fill="#eb1c4e"/>
      <rect x="24.88" y="34.54" width="29.22" height="18.26" transform="translate(-4.18 83.16) rotate(-90)" fill="#eb1c4e"/>
      <rect x="49.35" y="-.73" width="29.22" height="30.67" transform="translate(78.56 -49.35) rotate(90)" fill="#eb1c4e"/>
      <rect x="58.32" y="48.73" width="29.22" height="48.62" transform="translate(145.97 .11) rotate(90)" fill="#eb1c4e"/>
      <rect x="50.98" y="114.5" width="29.22" height="33.93" transform="translate(197.06 65.88) rotate(90)" fill="#eb1c4e"/>
      <rect x="42.87" y="178.28" width="29.22" height="17.71" transform="translate(244.61 129.66) rotate(90)" fill="#eb1c4e"/>
      <rect x="50.21" y="229.37" width="29.22" height="32.4" transform="translate(310.39 180.75) rotate(90)" fill="#eb1c4e"/>
      <rect x="56.26" y="281.75" width="29.22" height="44.49" transform="translate(374.87 233.13) rotate(90)" fill="#eb1c4e"/>
      <rect x="48.58" y="406.3" width="29.22" height="29.13" transform="translate(484.05 357.68) rotate(90)" fill="#eb1c4e"/>
      <rect x="49.92" y="463.38" width="29.22" height="31.82" transform="translate(543.83 414.76) rotate(90)" fill="#eb1c4e"/>
      <rect x="45.75" y="523.23" width="29.22" height="23.47" transform="translate(595.32 474.61) rotate(90)" fill="#eb1c4e"/>
      <rect x="49.35" y="1069.2" width="29.22" height="30.67" transform="translate(-1020.58 1148.49) rotate(-90)" fill="#eb1c4e"/>
      <rect x="58.32" y="1001.79" width="29.22" height="48.62" transform="translate(-953.17 1099.03) rotate(-90)" fill="#eb1c4e"/>
      <rect x="48" y="927.23" width="29.22" height="27.98" transform="translate(-878.61 1003.83) rotate(-90)" fill="#eb1c4e"/>
      <rect x="45.75" y="871.05" width="29.22" height="23.47" transform="translate(-822.43 943.14) rotate(-90)" fill="#eb1c4e"/>
      <rect x="56.26" y="772.89" width="29.22" height="44.49" transform="translate(-724.27 866.01) rotate(-90)" fill="#eb1c4e"/>
      <rect x="43.5" y="698" width="29.22" height="18.98" transform="translate(-649.38 765.6) rotate(-90)" fill="#eb1c4e"/>
      <rect x="43.73" y="583.67" width="29.22" height="19.44" transform="translate(-535.05 651.73) rotate(-90)" fill="#eb1c4e"/>
      <rect x="42.5" y="1134.48" width="29.22" height="16.97" transform="translate(1200.07 1085.86) rotate(90)" fill="#eb1c4e"/>
      <rect x="49.35" y="1186.06" width="29.22" height="30.67" transform="translate(1265.35 1137.44) rotate(90)" fill="#eb1c4e"/>
      <rect x="39.21" y="1254.62" width="29.22" height="10.4" transform="translate(1313.65 1206) rotate(90)" fill="#eb1c4e"/>
      <rect x="54.58" y="1294.93" width="29.22" height="41.13" transform="translate(1384.68 1246.31) rotate(90)" fill="#eb1c4e"/>
      <rect x="43.14" y="1364.79" width="29.22" height="18.26" transform="translate(1431.68 1316.17) rotate(90)" fill="#eb1c4e"/>
      <rect x="18.68" y="2805.1" width="29.22" height="30.67" transform="translate(-2787.14 2853.72) rotate(-90)" fill="#eb1c4e"/>
      <rect x="9.7" y="2737.69" width="29.22" height="48.62" transform="translate(-2737.69 2786.31) rotate(-90)" fill="#eb1c4e"/>
      <rect x="17.05" y="2686.6" width="29.22" height="33.93" transform="translate(-2671.91 2735.22) rotate(-90)" fill="#eb1c4e"/>
      <rect x="25.16" y="2639.05" width="29.22" height="17.71" transform="translate(-2608.14 2687.67) rotate(-90)" fill="#eb1c4e"/>
      <rect x="17.81" y="2573.27" width="29.22" height="32.4" transform="translate(-2557.05 2621.89) rotate(-90)" fill="#eb1c4e"/>
      <rect x="11.77" y="2508.79" width="29.22" height="44.49" transform="translate(-2504.66 2557.41) rotate(-90)" fill="#eb1c4e"/>
      <rect x="19.45" y="2399.61" width="29.22" height="29.13" transform="translate(-2380.12 2448.23) rotate(-90)" fill="#eb1c4e"/>
      <rect x="18.1" y="2339.83" width="29.22" height="31.82" transform="translate(-2323.03 2388.45) rotate(-90)" fill="#eb1c4e"/>
      <rect x="22.28" y="2288.34" width="29.22" height="23.47" transform="translate(-2263.19 2336.96) rotate(-90)" fill="#eb1c4e"/>
      <rect x="18.68" y="1735.17" width="29.22" height="30.67" transform="translate(1783.79 1717.22) rotate(90)" fill="#eb1c4e"/>
      <rect x="9.7" y="1784.63" width="29.22" height="48.62" transform="translate(1833.25 1784.63) rotate(90)" fill="#eb1c4e"/>
      <rect x="20.02" y="1879.83" width="29.22" height="27.98" transform="translate(1928.45 1859.19) rotate(90)" fill="#eb1c4e"/>
      <rect x="22.28" y="1940.52" width="29.22" height="23.47" transform="translate(1989.14 1915.37) rotate(90)" fill="#eb1c4e"/>
      <rect x="11.77" y="2017.65" width="29.22" height="44.49" transform="translate(2066.27 2013.53) rotate(90)" fill="#eb1c4e"/>
      <rect x="24.52" y="2118.06" width="29.22" height="18.98" transform="translate(2166.68 2088.42) rotate(90)" fill="#eb1c4e"/>
      <rect x="24.29" y="2231.93" width="29.22" height="19.44" transform="translate(2280.55 2202.74) rotate(90)" fill="#eb1c4e"/>
      <rect x="25.53" y="1683.59" width="29.22" height="16.97" transform="translate(-1651.94 1732.21) rotate(-90)" fill="#eb1c4e"/>
      <rect x="18.68" y="1618.31" width="29.22" height="30.67" transform="translate(-1600.36 1666.93) rotate(-90)" fill="#eb1c4e"/>
      <rect x="28.81" y="1570.01" width="29.22" height="10.4" transform="translate(-1531.79 1618.63) rotate(-90)" fill="#eb1c4e"/>
      <rect x="13.45" y="1498.98" width="29.22" height="41.13" transform="translate(-1491.49 1547.6) rotate(-90)" fill="#eb1c4e"/>
      <rect x="24.88" y="1451.98" width="29.22" height="18.26" transform="translate(-1421.63 1500.6) rotate(-90)" fill="#eb1c4e"/>
      <rect x="49.35" y="1416.72" width="29.22" height="30.67" transform="translate(1496.01 1368.1) rotate(90)" fill="#eb1c4e"/>
      <rect x="58.32" y="1466.17" width="29.22" height="48.62" transform="translate(1563.41 1417.55) rotate(90)" fill="#eb1c4e"/>
      <rect x="50.98" y="1531.95" width="29.22" height="33.93" transform="translate(1614.5 1483.33) rotate(90)" fill="#eb1c4e"/>
      <rect x="42.87" y="1595.73" width="29.22" height="17.71" transform="translate(1662.06 1547.11) rotate(90)" fill="#eb1c4e"/>
      <rect x="50.21" y="1646.81" width="29.22" height="32.4" transform="translate(1727.83 1598.19) rotate(90)" fill="#eb1c4e"/>
      <rect x="56.26" y="1699.2" width="29.22" height="44.49" transform="translate(1792.31 1650.58) rotate(90)" fill="#eb1c4e"/>
      <rect x="48.58" y="1823.74" width="29.22" height="29.13" transform="translate(1901.49 1775.12) rotate(90)" fill="#eb1c4e"/>
      <rect x="49.92" y="1880.83" width="29.22" height="31.82" transform="translate(1961.27 1832.21) rotate(90)" fill="#eb1c4e"/>
      <rect x="45.75" y="1940.67" width="29.22" height="23.47" transform="translate(2012.76 1892.05) rotate(90)" fill="#eb1c4e"/>
      <rect x="49.35" y="2486.64" width="29.22" height="30.67" transform="translate(-2438.02 2565.93) rotate(-90)" fill="#eb1c4e"/>
      <rect x="58.32" y="2419.23" width="29.22" height="48.62" transform="translate(-2370.61 2516.47) rotate(-90)" fill="#eb1c4e"/>
      <rect x="48" y="2344.67" width="29.22" height="27.98" transform="translate(-2296.05 2421.27) rotate(-90)" fill="#eb1c4e"/>
      <rect x="45.75" y="2288.49" width="29.22" height="23.47" transform="translate(-2239.87 2360.58) rotate(-90)" fill="#eb1c4e"/>
      <rect x="56.26" y="2190.34" width="29.22" height="44.49" transform="translate(-2141.72 2283.45) rotate(-90)" fill="#eb1c4e"/>
      <rect x="43.5" y="2115.44" width="29.22" height="18.98" transform="translate(-2066.82 2183.05) rotate(-90)" fill="#eb1c4e"/>
      <rect x="43.73" y="2001.12" width="29.22" height="19.44" transform="translate(-1952.5 2069.18) rotate(-90)" fill="#eb1c4e"/>
      <rect x="42.5" y="2551.92" width="29.22" height="16.97" transform="translate(2617.51 2503.3) rotate(90)" fill="#eb1c4e"/>
      <rect x="49.35" y="2603.5" width="29.22" height="30.67" transform="translate(2682.79 2554.88) rotate(90)" fill="#eb1c4e"/>
      <rect x="39.21" y="2672.07" width="29.22" height="10.4" transform="translate(2731.09 2623.45) rotate(90)" fill="#eb1c4e"/>
      <rect x="54.58" y="2712.37" width="29.22" height="41.13" transform="translate(2802.12 2663.75) rotate(90)" fill="#eb1c4e"/>
      <rect x="43.14" y="2782.24" width="29.22" height="18.26" transform="translate(2849.12 2733.61) rotate(90)" fill="#eb1c4e"/>
      <rect x="36.94" y="1519.05" width="29.22" height="30.67" transform="translate(-1482.83 1585.93) rotate(-90)" fill="#eb1c4e"/>
      <rect x="27.97" y="1451.64" width="29.22" height="48.62" transform="translate(-1433.38 1518.52) rotate(-90)" fill="#eb1c4e"/>
      <rect x="35.31" y="1400.55" width="29.22" height="33.93" transform="translate(-1367.6 1467.44) rotate(-90)" fill="#eb1c4e"/>
      <rect x="43.42" y="1353" width="29.22" height="17.71" transform="translate(-1303.82 1419.88) rotate(-90)" fill="#eb1c4e"/>
      <rect x="36.08" y="1287.22" width="29.22" height="32.4" transform="translate(-1252.74 1354.1) rotate(-90)" fill="#eb1c4e"/>
      <rect x="30.03" y="1222.74" width="29.22" height="44.49" transform="translate(-1200.35 1289.63) rotate(-90)" fill="#eb1c4e"/>
      <rect x="37.71" y="1113.56" width="29.22" height="29.13" transform="translate(-1075.81 1180.44) rotate(-90)" fill="#eb1c4e"/>
      <rect x="36.36" y="1053.78" width="29.22" height="31.82" transform="translate(-1018.72 1120.67) rotate(-90)" fill="#eb1c4e"/>
      <rect x="40.54" y="1002.29" width="29.22" height="23.47" transform="translate(-958.88 1069.18) rotate(-90)" fill="#eb1c4e"/>
      <rect x="36.94" y="449.12" width="29.22" height="30.67" transform="translate(516.01 412.91) rotate(90)" fill="#eb1c4e"/>
      <rect x="27.97" y="498.58" width="29.22" height="48.62" transform="translate(565.46 480.32) rotate(90)" fill="#eb1c4e"/>
      <rect x="38.28" y="593.78" width="29.22" height="27.98" transform="translate(660.66 554.88) rotate(90)" fill="#eb1c4e"/>
      <rect x="40.54" y="654.47" width="29.22" height="23.47" transform="translate(721.35 611.06) rotate(90)" fill="#eb1c4e"/>
      <rect x="30.03" y="731.6" width="29.22" height="44.49" transform="translate(798.49 709.21) rotate(90)" fill="#eb1c4e"/>
      <rect x="42.78" y="832.01" width="29.22" height="18.98" transform="translate(898.89 784.11) rotate(90)" fill="#eb1c4e"/>
      <rect x="42.56" y="945.88" width="29.22" height="19.44" transform="translate(1012.76 898.43) rotate(90)" fill="#eb1c4e"/>
      <rect x="43.79" y="397.54" width="29.22" height="16.97" transform="translate(-347.63 464.43) rotate(-90)" fill="#eb1c4e"/>
      <rect x="36.94" y="332.26" width="29.22" height="30.67" transform="translate(-296.05 399.14) rotate(-90)" fill="#eb1c4e"/>
      <rect x="47.07" y="283.96" width="29.22" height="10.4" transform="translate(-227.48 350.85) rotate(-90)" fill="#eb1c4e"/>
      <rect x="31.71" y="212.93" width="29.22" height="41.13" transform="translate(-187.18 279.81) rotate(-90)" fill="#eb1c4e"/>
      <rect x="43.14" y="165.93" width="29.22" height="18.26" transform="translate(-117.31 232.82) rotate(-90)" fill="#eb1c4e"/>
      <rect x="67.61" y="130.67" width="29.22" height="30.67" transform="translate(228.22 63.78) rotate(90)" fill="#eb1c4e"/>
      <rect x="76.59" y="180.12" width="29.22" height="48.62" transform="translate(295.63 113.24) rotate(90)" fill="#eb1c4e"/>
      <rect x="69.24" y="245.9" width="29.22" height="33.93" transform="translate(346.71 179.01) rotate(90)" fill="#eb1c4e"/>
      <rect x="61.13" y="309.68" width="29.22" height="17.71" transform="translate(394.27 242.79) rotate(90)" fill="#eb1c4e"/>
      <rect x="68.47" y="360.76" width="29.22" height="32.4" transform="translate(460.05 293.88) rotate(90)" fill="#eb1c4e"/>
      <rect x="74.52" y="413.15" width="29.22" height="44.49" transform="translate(524.52 346.27) rotate(90)" fill="#eb1c4e"/>
      <rect x="66.84" y="537.69" width="29.22" height="29.13" transform="translate(633.71 470.81) rotate(90)" fill="#eb1c4e"/>
      <rect x="68.19" y="594.78" width="29.22" height="31.82" transform="translate(693.48 527.89) rotate(90)" fill="#eb1c4e"/>
      <rect x="64.01" y="654.62" width="29.22" height="23.47" transform="translate(744.97 587.74) rotate(90)" fill="#eb1c4e"/>
      <rect x="67.61" y="1200.59" width="29.22" height="30.67" transform="translate(-1133.71 1298.14) rotate(-90)" fill="#eb1c4e"/>
      <rect x="76.59" y="1133.18" width="29.22" height="48.62" transform="translate(-1066.3 1248.69) rotate(-90)" fill="#eb1c4e"/>
      <rect x="66.27" y="1058.62" width="29.22" height="27.98" transform="translate(-991.74 1153.48) rotate(-90)" fill="#eb1c4e"/>
      <rect x="64.01" y="1002.44" width="29.22" height="23.47" transform="translate(-935.56 1092.8) rotate(-90)" fill="#eb1c4e"/>
      <rect x="74.52" y="904.29" width="29.22" height="44.49" transform="translate(-837.4 1015.66) rotate(-90)" fill="#eb1c4e"/>
      <rect x="61.77" y="829.39" width="29.22" height="18.98" transform="translate(-762.51 915.26) rotate(-90)" fill="#eb1c4e"/>
      <rect x="61.99" y="715.07" width="29.22" height="19.44" transform="translate(-648.18 801.39) rotate(-90)" fill="#eb1c4e"/>
      <rect x="60.76" y="1265.87" width="29.22" height="16.97" transform="translate(1349.72 1198.99) rotate(90)" fill="#eb1c4e"/>
      <rect x="67.61" y="1317.45" width="29.22" height="30.67" transform="translate(1415.01 1250.57) rotate(90)" fill="#eb1c4e"/>
      <rect x="57.48" y="1386.02" width="29.22" height="10.4" transform="translate(1463.3 1319.14) rotate(90)" fill="#eb1c4e"/>
      <rect x="72.84" y="1426.32" width="29.22" height="41.13" transform="translate(1534.34 1359.44) rotate(90)" fill="#eb1c4e"/>
      <rect x="61.41" y="1496.19" width="29.22" height="18.26" transform="translate(1581.33 1429.3) rotate(90)" fill="#eb1c4e"/>
      <rect x="36.94" y="2936.49" width="29.22" height="30.67" transform="translate(-2900.28 3003.37) rotate(-90)" fill="#eb1c4e"/>
      <rect x="27.97" y="2869.08" width="29.22" height="48.62" transform="translate(-2850.82 2935.97) rotate(-90)" fill="#eb1c4e"/>
      <rect x="35.31" y="2818" width="29.22" height="33.93" transform="translate(-2785.05 2884.88) rotate(-90)" fill="#eb1c4e"/>
      <rect x="43.42" y="2770.44" width="29.22" height="17.71" transform="translate(-2721.27 2837.32) rotate(-90)" fill="#eb1c4e"/>
      <rect x="36.08" y="2704.66" width="29.22" height="32.4" transform="translate(-2670.18 2771.55) rotate(-90)" fill="#eb1c4e"/>
      <rect x="30.03" y="2640.19" width="29.22" height="44.49" transform="translate(-2617.8 2707.07) rotate(-90)" fill="#eb1c4e"/>
      <rect x="37.71" y="2531" width="29.22" height="29.13" transform="translate(-2493.25 2597.89) rotate(-90)" fill="#eb1c4e"/>
      <rect x="36.36" y="2471.23" width="29.22" height="31.82" transform="translate(-2436.17 2538.11) rotate(-90)" fill="#eb1c4e"/>
      <rect x="40.54" y="2419.74" width="29.22" height="23.47" transform="translate(-2376.32 2486.62) rotate(-90)" fill="#eb1c4e"/>
      <rect x="36.94" y="1866.57" width="29.22" height="30.67" transform="translate(1933.45 1830.35) rotate(90)" fill="#eb1c4e"/>
      <rect x="27.97" y="1916.02" width="29.22" height="48.62" transform="translate(1982.91 1897.76) rotate(90)" fill="#eb1c4e"/>
      <rect x="38.28" y="2011.23" width="29.22" height="27.98" transform="translate(2078.11 1972.32) rotate(90)" fill="#eb1c4e"/>
      <rect x="40.54" y="2071.91" width="29.22" height="23.47" transform="translate(2138.8 2028.5) rotate(90)" fill="#eb1c4e"/>
      <rect x="30.03" y="2149.05" width="29.22" height="44.49" transform="translate(2215.93 2126.66) rotate(90)" fill="#eb1c4e"/>
      <rect x="42.78" y="2249.45" width="29.22" height="18.98" transform="translate(2316.33 2201.55) rotate(90)" fill="#eb1c4e"/>
      <rect x="42.56" y="2363.32" width="29.22" height="19.44" transform="translate(2430.2 2315.88) rotate(90)" fill="#eb1c4e"/>
      <rect x="43.79" y="1814.99" width="29.22" height="16.97" transform="translate(-1765.07 1881.87) rotate(-90)" fill="#eb1c4e"/>
      <rect x="36.94" y="1749.7" width="29.22" height="30.67" transform="translate(-1713.49 1816.59) rotate(-90)" fill="#eb1c4e"/>
      <rect x="47.07" y="1701.41" width="29.22" height="10.4" transform="translate(-1644.93 1768.29) rotate(-90)" fill="#eb1c4e"/>
      <rect x="31.71" y="1630.37" width="29.22" height="41.13" transform="translate(-1604.62 1697.26) rotate(-90)" fill="#eb1c4e"/>
      <rect x="43.14" y="1583.38" width="29.22" height="18.26" transform="translate(-1534.76 1650.26) rotate(-90)" fill="#eb1c4e"/>
      <rect x="67.61" y="1548.11" width="29.22" height="30.67" transform="translate(1645.66 1481.23) rotate(90)" fill="#eb1c4e"/>
      <rect x="76.59" y="1597.57" width="29.22" height="48.62" transform="translate(1713.07 1530.68) rotate(90)" fill="#eb1c4e"/>
      <rect x="69.24" y="1663.34" width="29.22" height="33.93" transform="translate(1764.16 1596.46) rotate(90)" fill="#eb1c4e"/>
      <rect x="61.13" y="1727.12" width="29.22" height="17.71" transform="translate(1811.71 1660.24) rotate(90)" fill="#eb1c4e"/>
      <rect x="68.47" y="1778.21" width="29.22" height="32.4" transform="translate(1877.49 1711.32) rotate(90)" fill="#eb1c4e"/>
      <rect x="74.52" y="1830.59" width="29.22" height="44.49" transform="translate(1941.97 1763.71) rotate(90)" fill="#eb1c4e"/>
      <rect x="66.84" y="1955.13" width="29.22" height="29.13" transform="translate(2051.15 1888.25) rotate(90)" fill="#eb1c4e"/>
      <rect x="68.19" y="2012.22" width="29.22" height="31.82" transform="translate(2110.93 1945.34) rotate(90)" fill="#eb1c4e"/>
      <rect x="64.01" y="2072.06" width="29.22" height="23.47" transform="translate(2162.42 2005.18) rotate(90)" fill="#eb1c4e"/>
      <rect x="67.61" y="2618.03" width="29.22" height="30.67" transform="translate(-2551.15 2715.59) rotate(-90)" fill="#eb1c4e"/>
      <rect x="76.59" y="2550.63" width="29.22" height="48.62" transform="translate(-2483.74 2666.13) rotate(-90)" fill="#eb1c4e"/>
      <rect x="66.27" y="2476.06" width="29.22" height="27.98" transform="translate(-2409.18 2570.93) rotate(-90)" fill="#eb1c4e"/>
      <rect x="64.01" y="2419.89" width="29.22" height="23.47" transform="translate(-2353 2510.24) rotate(-90)" fill="#eb1c4e"/>
      <rect x="74.52" y="2321.73" width="29.22" height="44.49" transform="translate(-2254.85 2433.11) rotate(-90)" fill="#eb1c4e"/>
      <rect x="61.77" y="2246.84" width="29.22" height="18.98" transform="translate(-2179.95 2332.7) rotate(-90)" fill="#eb1c4e"/>
      <rect x="61.99" y="2132.51" width="29.22" height="19.44" transform="translate(-2065.63 2218.83) rotate(-90)" fill="#eb1c4e"/>
      <rect x="60.76" y="2683.32" width="29.22" height="16.97" transform="translate(2767.17 2616.43) rotate(90)" fill="#eb1c4e"/>
      <rect x="67.61" y="2734.9" width="29.22" height="30.67" transform="translate(2832.45 2668.01) rotate(90)" fill="#eb1c4e"/>
      <rect x="57.48" y="2803.46" width="29.22" height="10.4" transform="translate(2880.75 2736.58) rotate(90)" fill="#eb1c4e"/>
      <rect x="72.84" y="2843.76" width="29.22" height="41.13" transform="translate(2951.78 2776.88) rotate(90)" fill="#eb1c4e"/>
      <rect x="61.41" y="2913.63" width="29.22" height="18.26" transform="translate(2998.78 2846.75) rotate(90)" fill="#eb1c4e"/>
    </g>
  </g>
</svg>