<?xml version="1.0" encoding="UTF-8"?>
<svg id="Layer_2" data-name="Layer 2" xmlns="http://www.w3.org/2000/svg" viewBox="0 0 454.54 3087.9">
  <g id="Layer_1-2" data-name="Layer 1">
    <g>
      <path d="M291.25,0l163.01,163.01c0,51.74-.02,103.48-.02,155.23L136.03.02c51.74,0,103.48-.02,155.23-.02Z" fill="#f8eb31"/>
      <path d="M.2,19.45l453.7,453.7c.19,51.94.38,103.88.57,155.82l-.35-.35L0,174.5C.07,122.81.13,71.13.2,19.45Z" fill="#f8eb31"/>
      <path d="M.43,330.17l453.54,453.54c.19,51.94.38,103.88.57,155.82L.37,485.36c.02-51.73.04-103.46.06-155.19Z" fill="#f8eb31"/>
      <path d="M.38,640.63l453.78,453.78c-.05,51.7-.09,103.41-.14,155.11L.5,795.99" fill="#f8eb31"/>
      <path d="M.35,951.16l454.05,454.05c-.07,51.68-.13,103.37-.2,155.05L.09,1106.15" fill="#f8eb31"/>
      <path d="M.45,1258.23l453.76,453.76c.03,51.78.05,103.55.08,155.32L.55,1413.57c-.03-51.78-.06-103.56-.09-155.34Z" fill="#f8eb31"/>
      <path d="M.14,1564.94l454.05,454.05c-.02,51.73-.04,103.46-.06,155.19L.47,1720.52c-.11-51.86-.22-103.72-.33-155.58Z" fill="#f8eb31"/>
      <path d="M.03,1875.33l454.23,454.23c-.04,51.7-.07,103.41-.11,155.11C302.84,2333.58,151.54,2182.48.24,2031.39c-.07-52.02-.14-104.04-.21-156.06Z" fill="#f8eb31"/>
      <path d="M.32,2186.12l453.86,453.86c.03,51.77.05,103.55.08,155.32L.06,2341.11c.09-51.66.17-103.33.26-154.99Z" fill="#f8eb31"/>
      <path d="M.17,2454.97l454.15,454.15c-.06,51.66-.12,103.33-.18,154.99-151.25-151.22-302.49-302.44-453.74-453.66-.08-51.83-.16-103.65-.23-155.48Z" fill="#f8eb31"/>
      <path d="M.14,2765.44l322.36,322.36c-51.72.03-103.43.07-155.15.1L.04,2920.59c.03-51.72.07-103.43.1-155.15Z" fill="#f8eb31"/>
    </g>
  </g>
</svg>