<?xml version="1.0" encoding="UTF-8"?>
<svg id="Layer_2" data-name="Layer 2" xmlns="http://www.w3.org/2000/svg" viewBox="0 0 22.33 210.23">
  <g id="Layer_1-2" data-name="Layer 1">
    <g>
      <polygon points="11.43 54.86 11.43 56.6 13.17 57.47 14.9 56.6 14.9 54.86 13.17 53.99 11.43 54.86" fill="#ea008a"/>
      <polygon points="11.43 53.12 11.43 54.86 13.17 55.73 14.9 54.86 14.9 53.12 13.17 52.25 11.43 53.12" fill="#ea008a"/>
      <polygon points="11.43 51.35 11.43 53.09 13.17 53.96 14.9 53.09 14.9 51.35 13.17 50.48 11.43 51.35" fill="#ea008a"/>
      <polygon points="15.12 48.52 15.12 50.26 16.85 51.13 18.59 50.26 18.59 48.52 16.85 47.65 15.12 48.52" fill="#ea008a"/>
      <polygon points="15.12 46.77 15.12 48.52 16.85 49.39 18.59 48.52 18.59 46.77 16.85 45.9 15.12 46.77" fill="#ea008a"/>
      <polygon points="15.12 45.01 15.12 46.75 16.85 47.62 18.59 46.75 18.59 45.01 16.85 44.13 15.12 45.01" fill="#ea008a"/>
      <polygon points="18.59 54.87 18.59 56.62 20.32 57.49 22.06 56.62 22.06 54.87 20.32 54 18.59 54.87" fill="#ea008a"/>
      <polygon points="18.59 53.13 18.59 54.87 20.32 55.74 22.06 54.87 22.06 53.13 20.32 52.26 18.59 53.13" fill="#ea008a"/>
      <polygon points="18.59 51.36 18.59 53.11 20.32 53.98 22.06 53.11 22.06 51.36 20.32 50.49 18.59 51.36" fill="#ea008a"/>
      <polygon points="11.54 42.44 11.54 44.18 13.28 45.05 15.01 44.18 15.01 42.44 13.28 41.57 11.54 42.44" fill="#ea008a"/>
      <polygon points="11.54 40.7 11.54 42.44 13.28 43.31 15.01 42.44 15.01 40.7 13.28 39.83 11.54 40.7" fill="#ea008a"/>
      <polygon points="11.54 38.93 11.54 40.67 13.28 41.54 15.01 40.67 15.01 38.93 13.28 38.06 11.54 38.93" fill="#ea008a"/>
      <polygon points="15.23 36.1 15.23 37.84 16.96 38.71 18.7 37.84 18.7 36.1 16.96 35.22 15.23 36.1" fill="#ea008a"/>
      <polygon points="15.23 34.35 15.23 36.1 16.96 36.97 18.7 36.1 18.7 34.35 16.96 33.48 15.23 34.35" fill="#ea008a"/>
      <polygon points="15.23 32.59 15.23 34.33 16.96 35.2 18.7 34.33 18.7 32.59 16.96 31.71 15.23 32.59" fill="#ea008a"/>
      <polygon points="18.7 42.45 18.7 44.2 20.43 45.07 22.17 44.2 22.17 42.45 20.43 41.58 18.7 42.45" fill="#ea008a"/>
      <polygon points="18.7 40.71 18.7 42.45 20.43 43.32 22.17 42.45 22.17 40.71 20.43 39.84 18.7 40.71" fill="#ea008a"/>
      <polygon points="18.7 38.94 18.7 40.68 20.43 41.56 22.17 40.68 22.17 38.94 20.43 38.07 18.7 38.94" fill="#ea008a"/>
      <polygon points="11.6 29.5 11.6 31.25 13.33 32.12 15.07 31.25 15.07 29.5 13.33 28.63 11.6 29.5" fill="#ea008a"/>
      <polygon points="11.6 27.76 11.6 29.5 13.33 30.37 15.07 29.5 15.07 27.76 13.33 26.89 11.6 27.76" fill="#ea008a"/>
      <polygon points="11.6 25.99 11.6 27.74 13.33 28.61 15.07 27.74 15.07 25.99 13.33 25.12 11.6 25.99" fill="#ea008a"/>
      <polygon points="15.28 23.16 15.28 24.9 17.02 25.77 18.75 24.9 18.75 23.16 17.02 22.29 15.28 23.16" fill="#ea008a"/>
      <polygon points="15.28 21.42 15.28 23.16 17.02 24.03 18.75 23.16 18.75 21.42 17.02 20.55 15.28 21.42" fill="#ea008a"/>
      <polygon points="15.28 19.65 15.28 21.39 17.02 22.26 18.75 21.39 18.75 19.65 17.02 18.78 15.28 19.65" fill="#ea008a"/>
      <polygon points="18.75 29.52 18.75 31.26 20.49 32.13 22.22 31.26 22.22 29.52 20.49 28.64 18.75 29.52" fill="#ea008a"/>
      <polygon points="18.75 27.77 18.75 29.52 20.49 30.39 22.22 29.52 22.22 27.77 20.49 26.9 18.75 27.77" fill="#ea008a"/>
      <polygon points="18.75 26.01 18.75 27.75 20.49 28.62 22.22 27.75 22.22 26.01 20.49 25.13 18.75 26.01" fill="#ea008a"/>
      <polygon points="11.7 17.08 11.7 18.83 13.44 19.7 15.17 18.83 15.17 17.08 13.44 16.21 11.7 17.08" fill="#ea008a"/>
      <polygon points="11.7 15.34 11.7 17.08 13.44 17.95 15.17 17.08 15.17 15.34 13.44 14.47 11.7 15.34" fill="#ea008a"/>
      <polygon points="11.7 13.57 11.7 15.31 13.44 16.19 15.17 15.31 15.17 13.57 13.44 12.7 11.7 13.57" fill="#ea008a"/>
      <polygon points="15.39 10.74 15.39 12.48 17.12 13.35 18.86 12.48 18.86 10.74 17.12 9.87 15.39 10.74" fill="#ea008a"/>
      <polygon points="15.39 9 15.39 10.74 17.12 11.61 18.86 10.74 18.86 9 17.12 8.12 15.39 9" fill="#ea008a"/>
      <polygon points="15.39 7.23 15.39 8.97 17.12 9.84 18.86 8.97 18.86 7.23 17.12 6.36 15.39 7.23" fill="#ea008a"/>
      <polygon points="18.86 17.1 18.86 18.84 20.59 19.71 22.33 18.84 22.33 17.1 20.59 16.22 18.86 17.1" fill="#ea008a"/>
      <polygon points="18.86 15.35 18.86 17.1 20.59 17.97 22.33 17.1 22.33 15.35 20.59 14.48 18.86 15.35" fill="#ea008a"/>
      <polygon points="18.86 13.58 18.86 15.33 20.59 16.2 22.33 15.33 22.33 13.58 20.59 12.71 18.86 13.58" fill="#ea008a"/>
      <polygon points="11.16 105.99 11.16 107.73 12.9 108.61 14.63 107.73 14.63 105.99 12.9 105.12 11.16 105.99" fill="#ea008a"/>
      <polygon points="11.16 104.25 11.16 105.99 12.9 106.86 14.63 105.99 14.63 104.25 12.9 103.38 11.16 104.25" fill="#ea008a"/>
      <polygon points="11.16 102.48 11.16 104.22 12.9 105.09 14.63 104.22 14.63 102.48 12.9 101.61 11.16 102.48" fill="#ea008a"/>
      <polygon points="14.85 99.65 14.85 101.39 16.58 102.26 18.32 101.39 18.32 99.65 16.58 98.78 14.85 99.65" fill="#ea008a"/>
      <polygon points="14.85 97.9 14.85 99.65 16.58 100.52 18.32 99.65 18.32 97.9 16.58 97.03 14.85 97.9" fill="#ea008a"/>
      <polygon points="14.85 96.14 14.85 97.88 16.58 98.75 18.32 97.88 18.32 96.14 16.58 95.27 14.85 96.14" fill="#ea008a"/>
      <polygon points="18.32 106 18.32 107.75 20.05 108.62 21.79 107.75 21.79 106 20.05 105.13 18.32 106" fill="#ea008a"/>
      <polygon points="18.32 104.26 18.32 106 20.05 106.88 21.79 106 21.79 104.26 20.05 103.39 18.32 104.26" fill="#ea008a"/>
      <polygon points="18.32 102.49 18.32 104.24 20.05 105.11 21.79 104.24 21.79 102.49 20.05 101.62 18.32 102.49" fill="#ea008a"/>
      <polygon points="11.27 93.57 11.27 95.31 13.01 96.18 14.74 95.31 14.74 93.57 13.01 92.7 11.27 93.57" fill="#ea008a"/>
      <polygon points="11.27 91.83 11.27 93.57 13.01 94.44 14.74 93.57 14.74 91.83 13.01 90.96 11.27 91.83" fill="#ea008a"/>
      <polygon points="11.27 90.06 11.27 91.8 13.01 92.67 14.74 91.8 14.74 90.06 13.01 89.19 11.27 90.06" fill="#ea008a"/>
      <polygon points="14.96 87.23 14.96 88.97 16.69 89.84 18.43 88.97 18.43 87.23 16.69 86.36 14.96 87.23" fill="#ea008a"/>
      <polygon points="14.96 85.48 14.96 87.23 16.69 88.1 18.43 87.23 18.43 85.48 16.69 84.61 14.96 85.48" fill="#ea008a"/>
      <polygon points="14.96 83.72 14.96 85.46 16.69 86.33 18.43 85.46 18.43 83.72 16.69 82.84 14.96 83.72" fill="#ea008a"/>
      <polygon points="18.43 93.58 18.43 95.33 20.16 96.2 21.9 95.33 21.9 93.58 20.16 92.71 18.43 93.58" fill="#ea008a"/>
      <polygon points="18.43 91.84 18.43 93.58 20.16 94.45 21.9 93.58 21.9 91.84 20.16 90.97 18.43 91.84" fill="#ea008a"/>
      <polygon points="18.43 90.07 18.43 91.82 20.16 92.69 21.9 91.82 21.9 90.07 20.16 89.2 18.43 90.07" fill="#ea008a"/>
      <polygon points="11.33 80.63 11.33 82.38 13.06 83.25 14.8 82.38 14.8 80.63 13.06 79.76 11.33 80.63" fill="#ea008a"/>
      <polygon points="11.33 78.89 11.33 80.63 13.06 81.51 14.8 80.63 14.8 78.89 13.06 78.02 11.33 78.89" fill="#ea008a"/>
      <polygon points="11.33 77.12 11.33 78.87 13.06 79.74 14.8 78.87 14.8 77.12 13.06 76.25 11.33 77.12" fill="#ea008a"/>
      <polygon points="15.01 74.29 15.01 76.03 16.75 76.9 18.48 76.03 18.48 74.29 16.75 73.42 15.01 74.29" fill="#ea008a"/>
      <polygon points="15.01 72.55 15.01 74.29 16.75 75.16 18.48 74.29 18.48 72.55 16.75 71.68 15.01 72.55" fill="#ea008a"/>
      <polygon points="15.01 70.78 15.01 72.52 16.75 73.39 18.48 72.52 18.48 70.78 16.75 69.91 15.01 70.78" fill="#ea008a"/>
      <polygon points="18.48 80.65 18.48 82.39 20.21 83.26 21.95 82.39 21.95 80.65 20.21 79.78 18.48 80.65" fill="#ea008a"/>
      <polygon points="18.48 78.9 18.48 80.65 20.21 81.52 21.95 80.65 21.95 78.9 20.21 78.03 18.48 78.9" fill="#ea008a"/>
      <polygon points="18.48 77.14 18.48 78.88 20.21 79.75 21.95 78.88 21.95 77.14 20.21 76.26 18.48 77.14" fill="#ea008a"/>
      <polygon points="11.43 68.21 11.43 69.96 13.17 70.83 14.9 69.96 14.9 68.21 13.17 67.34 11.43 68.21" fill="#ea008a"/>
      <polygon points="11.43 66.47 11.43 68.21 13.17 69.08 14.9 68.21 14.9 66.47 13.17 65.6 11.43 66.47" fill="#ea008a"/>
      <polygon points="11.43 64.7 11.43 66.45 13.17 67.32 14.9 66.45 14.9 64.7 13.17 63.83 11.43 64.7" fill="#ea008a"/>
      <polygon points="15.12 61.87 15.12 63.61 16.85 64.48 18.59 63.61 18.59 61.87 16.85 61 15.12 61.87" fill="#ea008a"/>
      <polygon points="15.12 60.13 15.12 61.87 16.85 62.74 18.59 61.87 18.59 60.13 16.85 59.26 15.12 60.13" fill="#ea008a"/>
      <polygon points="15.12 58.36 15.12 60.1 16.85 60.97 18.59 60.1 18.59 58.36 16.85 57.49 15.12 58.36" fill="#ea008a"/>
      <polygon points="18.59 68.23 18.59 69.97 20.32 70.84 22.06 69.97 22.06 68.23 20.32 67.35 18.59 68.23" fill="#ea008a"/>
      <polygon points="18.59 66.48 18.59 68.23 20.32 69.1 22.06 68.23 22.06 66.48 20.32 65.61 18.59 66.48" fill="#ea008a"/>
      <polygon points="18.59 64.72 18.59 66.46 20.32 67.33 22.06 66.46 22.06 64.72 20.32 63.84 18.59 64.72" fill="#ea008a"/>
      <polygon points=".81 48.5 .81 50.25 2.55 51.12 4.28 50.25 4.28 48.5 2.55 47.63 .81 48.5" fill="#ea008a"/>
      <polygon points=".81 46.76 .81 48.5 2.55 49.38 4.28 48.5 4.28 46.76 2.55 45.89 .81 46.76" fill="#ea008a"/>
      <polygon points=".81 44.99 .81 46.74 2.55 47.61 4.28 46.74 4.28 44.99 2.55 44.12 .81 44.99" fill="#ea008a"/>
      <polygon points="4.5 42.16 4.5 43.9 6.23 44.77 7.97 43.9 7.97 42.16 6.23 41.29 4.5 42.16" fill="#ea008a"/>
      <polygon points="4.5 40.42 4.5 42.16 6.23 43.03 7.97 42.16 7.97 40.42 6.23 39.55 4.5 40.42" fill="#ea008a"/>
      <polygon points="4.5 38.65 4.5 40.39 6.23 41.26 7.97 40.39 7.97 38.65 6.23 37.78 4.5 38.65" fill="#ea008a"/>
      <polygon points="7.97 48.52 7.97 50.26 9.7 51.13 11.43 50.26 11.43 48.52 9.7 47.65 7.97 48.52" fill="#ea008a"/>
      <polygon points="7.97 46.77 7.97 48.52 9.7 49.39 11.43 48.52 11.43 46.77 9.7 45.9 7.97 46.77" fill="#ea008a"/>
      <polygon points="7.97 45.01 7.97 46.75 9.7 47.62 11.43 46.75 11.43 45.01 9.7 44.13 7.97 45.01" fill="#ea008a"/>
      <polygon points=".92 36.08 .92 37.83 2.65 38.7 4.39 37.83 4.39 36.08 2.65 35.21 .92 36.08" fill="#ea008a"/>
      <polygon points=".92 34.34 .92 36.08 2.65 36.95 4.39 36.08 4.39 34.34 2.65 33.47 .92 34.34" fill="#ea008a"/>
      <polygon points=".92 32.57 .92 34.32 2.65 35.19 4.39 34.32 4.39 32.57 2.65 31.7 .92 32.57" fill="#ea008a"/>
      <polygon points="4.6 29.74 4.6 31.48 6.34 32.35 8.07 31.48 8.07 29.74 6.34 28.87 4.6 29.74" fill="#ea008a"/>
      <polygon points="4.6 28 4.6 29.74 6.34 30.61 8.07 29.74 8.07 28 6.34 27.13 4.6 28" fill="#ea008a"/>
      <polygon points="4.6 26.23 4.6 27.97 6.34 28.84 8.07 27.97 8.07 26.23 6.34 25.36 4.6 26.23" fill="#ea008a"/>
      <polygon points="8.07 36.1 8.07 37.84 9.81 38.71 11.54 37.84 11.54 36.1 9.81 35.22 8.07 36.1" fill="#ea008a"/>
      <polygon points="8.07 34.35 8.07 36.1 9.81 36.97 11.54 36.1 11.54 34.35 9.81 33.48 8.07 34.35" fill="#ea008a"/>
      <polygon points="8.07 32.59 8.07 34.33 9.81 35.2 11.54 34.33 11.54 32.59 9.81 31.71 8.07 32.59" fill="#ea008a"/>
      <polygon points=".97 23.15 .97 24.89 2.71 25.76 4.44 24.89 4.44 23.15 2.71 22.28 .97 23.15" fill="#ea008a"/>
      <polygon points=".97 21.4 .97 23.15 2.71 24.02 4.44 23.15 4.44 21.4 2.71 20.53 .97 21.4" fill="#ea008a"/>
      <polygon points=".97 19.64 .97 21.38 2.71 22.25 4.44 21.38 4.44 19.64 2.71 18.76 .97 19.64" fill="#ea008a"/>
      <polygon points="4.66 16.8 4.66 18.55 6.39 19.42 8.13 18.55 8.13 16.8 6.39 15.93 4.66 16.8" fill="#ea008a"/>
      <polygon points="4.66 15.06 4.66 16.8 6.39 17.67 8.13 16.8 8.13 15.06 6.39 14.19 4.66 15.06" fill="#ea008a"/>
      <polygon points="4.66 13.29 4.66 15.03 6.39 15.91 8.13 15.03 8.13 13.29 6.39 12.42 4.66 13.29" fill="#ea008a"/>
      <polygon points="8.13 23.16 8.13 24.9 9.86 25.77 11.6 24.9 11.6 23.16 9.86 22.29 8.13 23.16" fill="#ea008a"/>
      <polygon points="8.13 21.42 8.13 23.16 9.86 24.03 11.6 23.16 11.6 21.42 9.86 20.55 8.13 21.42" fill="#ea008a"/>
      <polygon points="8.13 19.65 8.13 21.39 9.86 22.26 11.6 21.39 11.6 19.65 9.86 18.78 8.13 19.65" fill="#ea008a"/>
      <polygon points="1.08 10.73 1.08 12.47 2.82 13.34 4.55 12.47 4.55 10.73 2.82 9.85 1.08 10.73" fill="#ea008a"/>
      <polygon points="1.08 8.98 1.08 10.73 2.82 11.6 4.55 10.73 4.55 8.98 2.82 8.11 1.08 8.98" fill="#ea008a"/>
      <polygon points="1.08 7.22 1.08 8.96 2.82 9.83 4.55 8.96 4.55 7.22 2.82 6.34 1.08 7.22" fill="#ea008a"/>
      <polygon points="4.77 4.38 4.77 6.12 6.5 7 8.24 6.12 8.24 4.38 6.5 3.51 4.77 4.38" fill="#ea008a"/>
      <polygon points="4.77 2.64 4.77 4.38 6.5 5.25 8.24 4.38 8.24 2.64 6.5 1.77 4.77 2.64" fill="#ea008a"/>
      <polygon points="4.77 .87 4.77 2.61 6.5 3.49 8.24 2.61 8.24 .87 6.5 0 4.77 .87" fill="#ea008a"/>
      <polygon points="8.24 10.74 8.24 12.48 9.97 13.35 11.7 12.48 11.7 10.74 9.97 9.87 8.24 10.74" fill="#ea008a"/>
      <polygon points="8.24 9 8.24 10.74 9.97 11.61 11.7 10.74 11.7 9 9.97 8.12 8.24 9" fill="#ea008a"/>
      <polygon points="8.24 7.23 8.24 8.97 9.97 9.84 11.7 8.97 11.7 7.23 9.97 6.36 8.24 7.23" fill="#ea008a"/>
      <polygon points=".54 99.63 .54 101.38 2.28 102.25 4.01 101.38 4.01 99.63 2.28 98.76 .54 99.63" fill="#ea008a"/>
      <polygon points=".54 97.89 .54 99.63 2.28 100.51 4.01 99.63 4.01 97.89 2.28 97.02 .54 97.89" fill="#ea008a"/>
      <polygon points=".54 96.12 .54 97.87 2.28 98.74 4.01 97.87 4.01 96.12 2.28 95.25 .54 96.12" fill="#ea008a"/>
      <polygon points="4.23 93.29 4.23 95.03 5.96 95.9 7.7 95.03 7.7 93.29 5.96 92.42 4.23 93.29" fill="#ea008a"/>
      <polygon points="4.23 91.55 4.23 93.29 5.96 94.16 7.7 93.29 7.7 91.55 5.96 90.68 4.23 91.55" fill="#ea008a"/>
      <polygon points="4.23 89.78 4.23 91.52 5.96 92.39 7.7 91.52 7.7 89.78 5.96 88.91 4.23 89.78" fill="#ea008a"/>
      <polygon points="7.7 99.65 7.7 101.39 9.43 102.26 11.16 101.39 11.16 99.65 9.43 98.78 7.7 99.65" fill="#ea008a"/>
      <polygon points="7.7 97.9 7.7 99.65 9.43 100.52 11.16 99.65 11.16 97.9 9.43 97.03 7.7 97.9" fill="#ea008a"/>
      <polygon points="7.7 96.14 7.7 97.88 9.43 98.75 11.16 97.88 11.16 96.14 9.43 95.27 7.7 96.14" fill="#ea008a"/>
      <polygon points=".65 87.21 .65 88.96 2.38 89.83 4.12 88.96 4.12 87.21 2.38 86.34 .65 87.21" fill="#ea008a"/>
      <polygon points=".65 85.47 .65 87.21 2.38 88.09 4.12 87.21 4.12 85.47 2.38 84.6 .65 85.47" fill="#ea008a"/>
      <polygon points=".65 83.7 .65 85.45 2.38 86.32 4.12 85.45 4.12 83.7 2.38 82.83 .65 83.7" fill="#ea008a"/>
      <polygon points="4.33 80.87 4.33 82.61 6.07 83.48 7.8 82.61 7.8 80.87 6.07 80 4.33 80.87" fill="#ea008a"/>
      <polygon points="4.33 79.13 4.33 80.87 6.07 81.74 7.8 80.87 7.8 79.13 6.07 78.26 4.33 79.13" fill="#ea008a"/>
      <polygon points="4.33 77.36 4.33 79.1 6.07 79.97 7.8 79.1 7.8 77.36 6.07 76.49 4.33 77.36" fill="#ea008a"/>
      <polygon points="7.8 87.23 7.8 88.97 9.54 89.84 11.27 88.97 11.27 87.23 9.54 86.36 7.8 87.23" fill="#ea008a"/>
      <polygon points="7.8 85.48 7.8 87.23 9.54 88.1 11.27 87.23 11.27 85.48 9.54 84.61 7.8 85.48" fill="#ea008a"/>
      <polygon points="7.8 83.72 7.8 85.46 9.54 86.33 11.27 85.46 11.27 83.72 9.54 82.84 7.8 83.72" fill="#ea008a"/>
      <polygon points=".7 74.28 .7 76.02 2.44 76.89 4.17 76.02 4.17 74.28 2.44 73.41 .7 74.28" fill="#ea008a"/>
      <polygon points=".7 72.53 .7 74.28 2.44 75.15 4.17 74.28 4.17 72.53 2.44 71.66 .7 72.53" fill="#ea008a"/>
      <polygon points=".7 70.77 .7 72.51 2.44 73.38 4.17 72.51 4.17 70.77 2.44 69.9 .7 70.77" fill="#ea008a"/>
      <polygon points="4.39 67.93 4.39 69.68 6.12 70.55 7.86 69.68 7.86 67.93 6.12 67.06 4.39 67.93" fill="#ea008a"/>
      <polygon points="4.39 66.19 4.39 67.93 6.12 68.8 7.86 67.93 7.86 66.19 6.12 65.32 4.39 66.19" fill="#ea008a"/>
      <polygon points="4.39 64.42 4.39 66.16 6.12 67.04 7.86 66.16 7.86 64.42 6.12 63.55 4.39 64.42" fill="#ea008a"/>
      <polygon points="7.86 74.29 7.86 76.03 9.59 76.9 11.33 76.03 11.33 74.29 9.59 73.42 7.86 74.29" fill="#ea008a"/>
      <polygon points="7.86 72.55 7.86 74.29 9.59 75.16 11.33 74.29 11.33 72.55 9.59 71.68 7.86 72.55" fill="#ea008a"/>
      <polygon points="7.86 70.78 7.86 72.52 9.59 73.39 11.33 72.52 11.33 70.78 9.59 69.91 7.86 70.78" fill="#ea008a"/>
      <polygon points=".81 61.86 .81 63.6 2.55 64.47 4.28 63.6 4.28 61.86 2.55 60.99 .81 61.86" fill="#ea008a"/>
      <polygon points=".81 60.11 .81 61.86 2.55 62.73 4.28 61.86 4.28 60.11 2.55 59.24 .81 60.11" fill="#ea008a"/>
      <polygon points=".81 58.35 .81 60.09 2.55 60.96 4.28 60.09 4.28 58.35 2.55 57.47 .81 58.35" fill="#ea008a"/>
      <polygon points="4.5 55.51 4.5 57.26 6.23 58.13 7.97 57.26 7.97 55.51 6.23 54.64 4.5 55.51" fill="#ea008a"/>
      <polygon points="4.5 53.77 4.5 55.51 6.23 56.38 7.97 55.51 7.97 53.77 6.23 52.9 4.5 53.77" fill="#ea008a"/>
      <polygon points="4.5 52 4.5 53.74 6.23 54.62 7.97 53.74 7.97 52 6.23 51.13 4.5 52" fill="#ea008a"/>
      <polygon points="7.97 61.87 7.97 63.61 9.7 64.48 11.43 63.61 11.43 61.87 9.7 61 7.97 61.87" fill="#ea008a"/>
      <polygon points="7.97 60.13 7.97 61.87 9.7 62.74 11.43 61.87 11.43 60.13 9.7 59.26 7.97 60.13" fill="#ea008a"/>
      <polygon points="7.97 58.36 7.97 60.1 9.7 60.97 11.43 60.1 11.43 58.36 9.7 57.49 7.97 58.36" fill="#ea008a"/>
      <polygon points="10.89 156.47 10.89 158.21 12.63 159.08 14.36 158.21 14.36 156.47 12.63 155.6 10.89 156.47" fill="#ea008a"/>
      <polygon points="10.89 154.73 10.89 156.47 12.63 157.34 14.36 156.47 14.36 154.73 12.63 153.86 10.89 154.73" fill="#ea008a"/>
      <polygon points="10.89 152.96 10.89 154.7 12.63 155.57 14.36 154.7 14.36 152.96 12.63 152.09 10.89 152.96" fill="#ea008a"/>
      <polygon points="14.58 150.13 14.58 151.87 16.31 152.74 18.05 151.87 18.05 150.13 16.31 149.25 14.58 150.13" fill="#ea008a"/>
      <polygon points="14.58 148.38 14.58 150.13 16.31 151 18.05 150.13 18.05 148.38 16.31 147.51 14.58 148.38" fill="#ea008a"/>
      <polygon points="14.58 146.62 14.58 148.36 16.31 149.23 18.05 148.36 18.05 146.62 16.31 145.74 14.58 146.62" fill="#ea008a"/>
      <polygon points="18.05 156.48 18.05 158.23 19.78 159.1 21.52 158.23 21.52 156.48 19.78 155.61 18.05 156.48" fill="#ea008a"/>
      <polygon points="18.05 154.74 18.05 156.48 19.78 157.35 21.52 156.48 21.52 154.74 19.78 153.87 18.05 154.74" fill="#ea008a"/>
      <polygon points="18.05 152.97 18.05 154.71 19.78 155.59 21.52 154.71 21.52 152.97 19.78 152.1 18.05 152.97" fill="#ea008a"/>
      <polygon points="11 144.05 11 145.79 12.74 146.66 14.47 145.79 14.47 144.05 12.74 143.18 11 144.05" fill="#ea008a"/>
      <polygon points="11 142.31 11 144.05 12.74 144.92 14.47 144.05 14.47 142.31 12.74 141.44 11 142.31" fill="#ea008a"/>
      <polygon points="11 140.54 11 142.28 12.74 143.15 14.47 142.28 14.47 140.54 12.74 139.67 11 140.54" fill="#ea008a"/>
      <polygon points="14.69 137.71 14.69 139.45 16.42 140.32 18.16 139.45 18.16 137.71 16.42 136.83 14.69 137.71" fill="#ea008a"/>
      <polygon points="14.69 135.96 14.69 137.71 16.42 138.58 18.16 137.71 18.16 135.96 16.42 135.09 14.69 135.96" fill="#ea008a"/>
      <polygon points="14.69 134.19 14.69 135.94 16.42 136.81 18.16 135.94 18.16 134.19 16.42 133.32 14.69 134.19" fill="#ea008a"/>
      <polygon points="18.16 144.06 18.16 145.8 19.89 146.68 21.62 145.8 21.62 144.06 19.89 143.19 18.16 144.06" fill="#ea008a"/>
      <polygon points="18.16 142.32 18.16 144.06 19.89 144.93 21.62 144.06 21.62 142.32 19.89 141.45 18.16 142.32" fill="#ea008a"/>
      <polygon points="18.16 140.55 18.16 142.29 19.89 143.17 21.62 142.29 21.62 140.55 19.89 139.68 18.16 140.55" fill="#ea008a"/>
      <polygon points="11.06 131.11 11.06 132.86 12.79 133.73 14.52 132.86 14.52 131.11 12.79 130.24 11.06 131.11" fill="#ea008a"/>
      <polygon points="11.06 129.37 11.06 131.11 12.79 131.98 14.52 131.11 14.52 129.37 12.79 128.5 11.06 129.37" fill="#ea008a"/>
      <polygon points="11.06 127.6 11.06 129.34 12.79 130.22 14.52 129.34 14.52 127.6 12.79 126.73 11.06 127.6" fill="#ea008a"/>
      <polygon points="14.74 124.77 14.74 126.51 16.48 127.38 18.21 126.51 18.21 124.77 16.48 123.9 14.74 124.77" fill="#ea008a"/>
      <polygon points="14.74 123.03 14.74 124.77 16.48 125.64 18.21 124.77 18.21 123.03 16.48 122.15 14.74 123.03" fill="#ea008a"/>
      <polygon points="14.74 121.26 14.74 123 16.48 123.87 18.21 123 18.21 121.26 16.48 120.39 14.74 121.26" fill="#ea008a"/>
      <polygon points="18.21 131.13 18.21 132.87 19.94 133.74 21.68 132.87 21.68 131.13 19.94 130.25 18.21 131.13" fill="#ea008a"/>
      <polygon points="18.21 129.38 18.21 131.13 19.94 132 21.68 131.13 21.68 129.38 19.94 128.51 18.21 129.38" fill="#ea008a"/>
      <polygon points="18.21 127.61 18.21 129.36 19.94 130.23 21.68 129.36 21.68 127.61 19.94 126.74 18.21 127.61" fill="#ea008a"/>
      <polygon points="11.16 118.69 11.16 120.43 12.9 121.31 14.63 120.43 14.63 118.69 12.9 117.82 11.16 118.69" fill="#ea008a"/>
      <polygon points="11.16 116.95 11.16 118.69 12.9 119.56 14.63 118.69 14.63 116.95 12.9 116.08 11.16 116.95" fill="#ea008a"/>
      <polygon points="11.16 115.18 11.16 116.92 12.9 117.8 14.63 116.92 14.63 115.18 12.9 114.31 11.16 115.18" fill="#ea008a"/>
      <polygon points="14.85 112.35 14.85 114.09 16.58 114.96 18.32 114.09 18.32 112.35 16.58 111.48 14.85 112.35" fill="#ea008a"/>
      <polygon points="14.85 110.61 14.85 112.35 16.58 113.22 18.32 112.35 18.32 110.61 16.58 109.73 14.85 110.61" fill="#ea008a"/>
      <polygon points="14.85 108.84 14.85 110.58 16.58 111.45 18.32 110.58 18.32 108.84 16.58 107.97 14.85 108.84" fill="#ea008a"/>
      <polygon points="18.32 118.7 18.32 120.45 20.05 121.32 21.79 120.45 21.79 118.7 20.05 117.83 18.32 118.7" fill="#ea008a"/>
      <polygon points="18.32 116.96 18.32 118.7 20.05 119.58 21.79 118.7 21.79 116.96 20.05 116.09 18.32 116.96" fill="#ea008a"/>
      <polygon points="18.32 115.19 18.32 116.94 20.05 117.81 21.79 116.94 21.79 115.19 20.05 114.32 18.32 115.19" fill="#ea008a"/>
      <polygon points="10.62 207.6 10.62 209.34 12.36 210.21 14.09 209.34 14.09 207.6 12.36 206.73 10.62 207.6" fill="#ea008a"/>
      <polygon points="10.62 205.86 10.62 207.6 12.36 208.47 14.09 207.6 14.09 205.86 12.36 204.99 10.62 205.86" fill="#ea008a"/>
      <polygon points="10.62 204.09 10.62 205.83 12.36 206.7 14.09 205.83 14.09 204.09 12.36 203.22 10.62 204.09" fill="#ea008a"/>
      <polygon points="14.31 201.26 14.31 203 16.04 203.87 17.78 203 17.78 201.26 16.04 200.38 14.31 201.26" fill="#ea008a"/>
      <polygon points="14.31 199.51 14.31 201.26 16.04 202.13 17.78 201.26 17.78 199.51 16.04 198.64 14.31 199.51" fill="#ea008a"/>
      <polygon points="14.31 197.75 14.31 199.49 16.04 200.36 17.78 199.49 17.78 197.75 16.04 196.87 14.31 197.75" fill="#ea008a"/>
      <polygon points="17.78 207.61 17.78 209.36 19.51 210.23 21.25 209.36 21.25 207.61 19.51 206.74 17.78 207.61" fill="#ea008a"/>
      <polygon points="17.78 205.87 17.78 207.61 19.51 208.48 21.25 207.61 21.25 205.87 19.51 205 17.78 205.87" fill="#ea008a"/>
      <polygon points="17.78 204.1 17.78 205.84 19.51 206.72 21.25 205.84 21.25 204.1 19.51 203.23 17.78 204.1" fill="#ea008a"/>
      <polygon points="10.73 195.18 10.73 196.92 12.47 197.79 14.2 196.92 14.2 195.18 12.47 194.31 10.73 195.18" fill="#ea008a"/>
      <polygon points="10.73 193.44 10.73 195.18 12.47 196.05 14.2 195.18 14.2 193.44 12.47 192.57 10.73 193.44" fill="#ea008a"/>
      <polygon points="10.73 191.67 10.73 193.41 12.47 194.28 14.2 193.41 14.2 191.67 12.47 190.8 10.73 191.67" fill="#ea008a"/>
      <polygon points="14.42 188.84 14.42 190.58 16.15 191.45 17.89 190.58 17.89 188.84 16.15 187.96 14.42 188.84" fill="#ea008a"/>
      <polygon points="14.42 187.09 14.42 188.84 16.15 189.71 17.89 188.84 17.89 187.09 16.15 186.22 14.42 187.09" fill="#ea008a"/>
      <polygon points="14.42 185.33 14.42 187.07 16.15 187.94 17.89 187.07 17.89 185.33 16.15 184.45 14.42 185.33" fill="#ea008a"/>
      <polygon points="17.89 195.19 17.89 196.94 19.62 197.81 21.35 196.94 21.35 195.19 19.62 194.32 17.89 195.19" fill="#ea008a"/>
      <polygon points="17.89 193.45 17.89 195.19 19.62 196.06 21.35 195.19 21.35 193.45 19.62 192.58 17.89 193.45" fill="#ea008a"/>
      <polygon points="17.89 191.68 17.89 193.42 19.62 194.3 21.35 193.42 21.35 191.68 19.62 190.81 17.89 191.68" fill="#ea008a"/>
      <polygon points="10.79 182.24 10.79 183.99 12.52 184.86 14.25 183.99 14.25 182.24 12.52 181.37 10.79 182.24" fill="#ea008a"/>
      <polygon points="10.79 180.5 10.79 182.24 12.52 183.11 14.25 182.24 14.25 180.5 12.52 179.63 10.79 180.5" fill="#ea008a"/>
      <polygon points="10.79 178.73 10.79 180.47 12.52 181.35 14.25 180.47 14.25 178.73 12.52 177.86 10.79 178.73" fill="#ea008a"/>
      <polygon points="14.47 175.9 14.47 177.64 16.2 178.51 17.94 177.64 17.94 175.9 16.2 175.03 14.47 175.9" fill="#ea008a"/>
      <polygon points="14.47 174.16 14.47 175.9 16.2 176.77 17.94 175.9 17.94 174.16 16.2 173.28 14.47 174.16" fill="#ea008a"/>
      <polygon points="14.47 172.39 14.47 174.13 16.2 175 17.94 174.13 17.94 172.39 16.2 171.52 14.47 172.39" fill="#ea008a"/>
      <polygon points="17.94 182.26 17.94 184 19.67 184.87 21.41 184 21.41 182.26 19.67 181.38 17.94 182.26" fill="#ea008a"/>
      <polygon points="17.94 180.51 17.94 182.26 19.67 183.13 21.41 182.26 21.41 180.51 19.67 179.64 17.94 180.51" fill="#ea008a"/>
      <polygon points="17.94 178.74 17.94 180.49 19.67 181.36 21.41 180.49 21.41 178.74 19.67 177.87 17.94 178.74" fill="#ea008a"/>
      <polygon points="10.89 169.82 10.89 171.57 12.63 172.44 14.36 171.57 14.36 169.82 12.63 168.95 10.89 169.82" fill="#ea008a"/>
      <polygon points="10.89 168.08 10.89 169.82 12.63 170.69 14.36 169.82 14.36 168.08 12.63 167.21 10.89 168.08" fill="#ea008a"/>
      <polygon points="10.89 166.31 10.89 168.05 12.63 168.93 14.36 168.05 14.36 166.31 12.63 165.44 10.89 166.31" fill="#ea008a"/>
      <polygon points="14.58 163.48 14.58 165.22 16.31 166.09 18.05 165.22 18.05 163.48 16.31 162.61 14.58 163.48" fill="#ea008a"/>
      <polygon points="14.58 161.74 14.58 163.48 16.31 164.35 18.05 163.48 18.05 161.74 16.31 160.86 14.58 161.74" fill="#ea008a"/>
      <polygon points="14.58 159.97 14.58 161.71 16.31 162.58 18.05 161.71 18.05 159.97 16.31 159.1 14.58 159.97" fill="#ea008a"/>
      <polygon points="18.05 169.84 18.05 171.58 19.78 172.45 21.52 171.58 21.52 169.84 19.78 168.96 18.05 169.84" fill="#ea008a"/>
      <polygon points="18.05 168.09 18.05 169.84 19.78 170.71 21.52 169.84 21.52 168.09 19.78 167.22 18.05 168.09" fill="#ea008a"/>
      <polygon points="18.05 166.32 18.05 168.07 19.78 168.94 21.52 168.07 21.52 166.32 19.78 165.45 18.05 166.32" fill="#ea008a"/>
      <polygon points=".27 150.11 .27 151.86 2 152.73 3.74 151.86 3.74 150.11 2 149.24 .27 150.11" fill="#ea008a"/>
      <polygon points=".27 148.37 .27 150.11 2 150.98 3.74 150.11 3.74 148.37 2 147.5 .27 148.37" fill="#ea008a"/>
      <polygon points=".27 146.6 .27 148.35 2 149.22 3.74 148.35 3.74 146.6 2 145.73 .27 146.6" fill="#ea008a"/>
      <polygon points="3.96 143.77 3.96 145.51 5.69 146.38 7.42 145.51 7.42 143.77 5.69 142.9 3.96 143.77" fill="#ea008a"/>
      <polygon points="3.96 142.03 3.96 143.77 5.69 144.64 7.42 143.77 7.42 142.03 5.69 141.16 3.96 142.03" fill="#ea008a"/>
      <polygon points="3.96 140.26 3.96 142 5.69 142.87 7.42 142 7.42 140.26 5.69 139.39 3.96 140.26" fill="#ea008a"/>
      <polygon points="7.42 150.13 7.42 151.87 9.16 152.74 10.89 151.87 10.89 150.13 9.16 149.25 7.42 150.13" fill="#ea008a"/>
      <polygon points="7.42 148.38 7.42 150.13 9.16 151 10.89 150.13 10.89 148.38 9.16 147.51 7.42 148.38" fill="#ea008a"/>
      <polygon points="7.42 146.62 7.42 148.36 9.16 149.23 10.89 148.36 10.89 146.62 9.16 145.74 7.42 146.62" fill="#ea008a"/>
      <polygon points=".38 137.69 .38 139.44 2.11 140.31 3.85 139.44 3.85 137.69 2.11 136.82 .38 137.69" fill="#ea008a"/>
      <polygon points=".38 135.95 .38 137.69 2.11 138.56 3.85 137.69 3.85 135.95 2.11 135.08 .38 135.95" fill="#ea008a"/>
      <polygon points=".38 134.18 .38 135.92 2.11 136.8 3.85 135.92 3.85 134.18 2.11 133.31 .38 134.18" fill="#ea008a"/>
      <polygon points="4.06 131.35 4.06 133.09 5.8 133.96 7.53 133.09 7.53 131.35 5.8 130.48 4.06 131.35" fill="#ea008a"/>
      <polygon points="4.06 129.61 4.06 131.35 5.8 132.22 7.53 131.35 7.53 129.61 5.8 128.73 4.06 129.61" fill="#ea008a"/>
      <polygon points="4.06 127.84 4.06 129.58 5.8 130.45 7.53 129.58 7.53 127.84 5.8 126.97 4.06 127.84" fill="#ea008a"/>
      <polygon points="7.53 137.71 7.53 139.45 9.27 140.32 11 139.45 11 137.71 9.27 136.83 7.53 137.71" fill="#ea008a"/>
      <polygon points="7.53 135.96 7.53 137.71 9.27 138.58 11 137.71 11 135.96 9.27 135.09 7.53 135.96" fill="#ea008a"/>
      <polygon points="7.53 134.19 7.53 135.94 9.27 136.81 11 135.94 11 134.19 9.27 133.32 7.53 134.19" fill="#ea008a"/>
      <polygon points=".43 124.76 .43 126.5 2.17 127.37 3.9 126.5 3.9 124.76 2.17 123.88 .43 124.76" fill="#ea008a"/>
      <polygon points=".43 123.01 .43 124.76 2.17 125.63 3.9 124.76 3.9 123.01 2.17 122.14 .43 123.01" fill="#ea008a"/>
      <polygon points=".43 121.25 .43 122.99 2.17 123.86 3.9 122.99 3.9 121.25 2.17 120.37 .43 121.25" fill="#ea008a"/>
      <polygon points="4.12 118.41 4.12 120.15 5.85 121.03 7.59 120.15 7.59 118.41 5.85 117.54 4.12 118.41" fill="#ea008a"/>
      <polygon points="4.12 116.67 4.12 118.41 5.85 119.28 7.59 118.41 7.59 116.67 5.85 115.8 4.12 116.67" fill="#ea008a"/>
      <polygon points="4.12 114.9 4.12 116.64 5.85 117.51 7.59 116.64 7.59 114.9 5.85 114.03 4.12 114.9" fill="#ea008a"/>
      <polygon points="7.59 124.77 7.59 126.51 9.32 127.38 11.06 126.51 11.06 124.77 9.32 123.9 7.59 124.77" fill="#ea008a"/>
      <polygon points="7.59 123.03 7.59 124.77 9.32 125.64 11.06 124.77 11.06 123.03 9.32 122.15 7.59 123.03" fill="#ea008a"/>
      <polygon points="7.59 121.26 7.59 123 9.32 123.87 11.06 123 11.06 121.26 9.32 120.39 7.59 121.26" fill="#ea008a"/>
      <polygon points=".54 112.34 .54 114.08 2.28 114.95 4.01 114.08 4.01 112.34 2.28 111.46 .54 112.34" fill="#ea008a"/>
      <polygon points=".54 110.59 .54 112.34 2.28 113.21 4.01 112.34 4.01 110.59 2.28 109.72 .54 110.59" fill="#ea008a"/>
      <polygon points=".54 108.82 .54 110.57 2.28 111.44 4.01 110.57 4.01 108.82 2.28 107.95 .54 108.82" fill="#ea008a"/>
      <polygon points="4.23 105.99 4.23 107.73 5.96 108.61 7.7 107.73 7.7 105.99 5.96 105.12 4.23 105.99" fill="#ea008a"/>
      <polygon points="4.23 104.25 4.23 105.99 5.96 106.86 7.7 105.99 7.7 104.25 5.96 103.38 4.23 104.25" fill="#ea008a"/>
      <polygon points="4.23 102.48 4.23 104.22 5.96 105.09 7.7 104.22 7.7 102.48 5.96 101.61 4.23 102.48" fill="#ea008a"/>
      <polygon points="7.7 112.35 7.7 114.09 9.43 114.96 11.16 114.09 11.16 112.35 9.43 111.48 7.7 112.35" fill="#ea008a"/>
      <polygon points="7.7 110.61 7.7 112.35 9.43 113.22 11.16 112.35 11.16 110.61 9.43 109.73 7.7 110.61" fill="#ea008a"/>
      <polygon points="7.7 108.84 7.7 110.58 9.43 111.45 11.16 110.58 11.16 108.84 9.43 107.97 7.7 108.84" fill="#ea008a"/>
      <polygon points="0 201.24 0 202.99 1.73 203.86 3.47 202.99 3.47 201.24 1.73 200.37 0 201.24" fill="#ea008a"/>
      <polygon points="0 199.5 0 201.24 1.73 202.11 3.47 201.24 3.47 199.5 1.73 198.63 0 199.5" fill="#ea008a"/>
      <polygon points="0 197.73 0 199.48 1.73 200.35 3.47 199.48 3.47 197.73 1.73 196.86 0 197.73" fill="#ea008a"/>
      <polygon points="3.69 194.9 3.69 196.64 5.42 197.51 7.15 196.64 7.15 194.9 5.42 194.03 3.69 194.9" fill="#ea008a"/>
      <polygon points="3.69 193.16 3.69 194.9 5.42 195.77 7.15 194.9 7.15 193.16 5.42 192.29 3.69 193.16" fill="#ea008a"/>
      <polygon points="3.69 191.39 3.69 193.13 5.42 194 7.15 193.13 7.15 191.39 5.42 190.52 3.69 191.39" fill="#ea008a"/>
      <polygon points="7.15 201.26 7.15 203 8.89 203.87 10.62 203 10.62 201.26 8.89 200.38 7.15 201.26" fill="#ea008a"/>
      <polygon points="7.15 199.51 7.15 201.26 8.89 202.13 10.62 201.26 10.62 199.51 8.89 198.64 7.15 199.51" fill="#ea008a"/>
      <polygon points="7.15 197.75 7.15 199.49 8.89 200.36 10.62 199.49 10.62 197.75 8.89 196.87 7.15 197.75" fill="#ea008a"/>
      <polygon points=".11 188.82 .11 190.57 1.84 191.44 3.58 190.57 3.58 188.82 1.84 187.95 .11 188.82" fill="#ea008a"/>
      <polygon points=".11 187.08 .11 188.82 1.84 189.69 3.58 188.82 3.58 187.08 1.84 186.21 .11 187.08" fill="#ea008a"/>
      <polygon points=".11 185.31 .11 187.06 1.84 187.93 3.58 187.06 3.58 185.31 1.84 184.44 .11 185.31" fill="#ea008a"/>
      <polygon points="3.79 182.48 3.79 184.22 5.53 185.09 7.26 184.22 7.26 182.48 5.53 181.61 3.79 182.48" fill="#ea008a"/>
      <polygon points="3.79 180.74 3.79 182.48 5.53 183.35 7.26 182.48 7.26 180.74 5.53 179.87 3.79 180.74" fill="#ea008a"/>
      <polygon points="3.79 178.97 3.79 180.71 5.53 181.58 7.26 180.71 7.26 178.97 5.53 178.1 3.79 178.97" fill="#ea008a"/>
      <polygon points="7.26 188.84 7.26 190.58 9 191.45 10.73 190.58 10.73 188.84 9 187.96 7.26 188.84" fill="#ea008a"/>
      <polygon points="7.26 187.09 7.26 188.84 9 189.71 10.73 188.84 10.73 187.09 9 186.22 7.26 187.09" fill="#ea008a"/>
      <polygon points="7.26 185.33 7.26 187.07 9 187.94 10.73 187.07 10.73 185.33 9 184.45 7.26 185.33" fill="#ea008a"/>
      <polygon points=".16 175.89 .16 177.63 1.9 178.5 3.63 177.63 3.63 175.89 1.9 175.01 .16 175.89" fill="#ea008a"/>
      <polygon points=".16 174.14 .16 175.89 1.9 176.76 3.63 175.89 3.63 174.14 1.9 173.27 .16 174.14" fill="#ea008a"/>
      <polygon points=".16 172.38 .16 174.12 1.9 174.99 3.63 174.12 3.63 172.38 1.9 171.5 .16 172.38" fill="#ea008a"/>
      <polygon points="3.85 169.54 3.85 171.28 5.58 172.16 7.32 171.28 7.32 169.54 5.58 168.67 3.85 169.54" fill="#ea008a"/>
      <polygon points="3.85 167.8 3.85 169.54 5.58 170.41 7.32 169.54 7.32 167.8 5.58 166.93 3.85 167.8" fill="#ea008a"/>
      <polygon points="3.85 166.03 3.85 167.77 5.58 168.65 7.32 167.77 7.32 166.03 5.58 165.16 3.85 166.03" fill="#ea008a"/>
      <polygon points="7.32 175.9 7.32 177.64 9.05 178.51 10.79 177.64 10.79 175.9 9.05 175.03 7.32 175.9" fill="#ea008a"/>
      <polygon points="7.32 174.16 7.32 175.9 9.05 176.77 10.79 175.9 10.79 174.16 9.05 173.28 7.32 174.16" fill="#ea008a"/>
      <polygon points="7.32 172.39 7.32 174.13 9.05 175 10.79 174.13 10.79 172.39 9.05 171.52 7.32 172.39" fill="#ea008a"/>
      <polygon points=".27 163.47 .27 165.21 2 166.08 3.74 165.21 3.74 163.47 2 162.59 .27 163.47" fill="#ea008a"/>
      <polygon points=".27 161.72 .27 163.47 2 164.34 3.74 163.47 3.74 161.72 2 160.85 .27 161.72" fill="#ea008a"/>
      <polygon points=".27 159.96 .27 161.7 2 162.57 3.74 161.7 3.74 159.96 2 159.08 .27 159.96" fill="#ea008a"/>
      <polygon points="3.96 157.12 3.96 158.86 5.69 159.74 7.42 158.86 7.42 157.12 5.69 156.25 3.96 157.12" fill="#ea008a"/>
      <polygon points="3.96 155.38 3.96 157.12 5.69 157.99 7.42 157.12 7.42 155.38 5.69 154.51 3.96 155.38" fill="#ea008a"/>
      <polygon points="3.96 153.61 3.96 155.35 5.69 156.22 7.42 155.35 7.42 153.61 5.69 152.74 3.96 153.61" fill="#ea008a"/>
      <polygon points="7.42 163.48 7.42 165.22 9.16 166.09 10.89 165.22 10.89 163.48 9.16 162.61 7.42 163.48" fill="#ea008a"/>
      <polygon points="7.42 161.74 7.42 163.48 9.16 164.35 10.89 163.48 10.89 161.74 9.16 160.86 7.42 161.74" fill="#ea008a"/>
      <polygon points="7.42 159.97 7.42 161.71 9.16 162.58 10.89 161.71 10.89 159.97 9.16 159.1 7.42 159.97" fill="#ea008a"/>
    </g>
  </g>
</svg>