<?xml version="1.0" encoding="UTF-8"?>
<svg id="Layer_2" data-name="Layer 2" xmlns="http://www.w3.org/2000/svg" viewBox="0 0 131.24 68.56">
  <g id="Layer_1-2" data-name="Layer 1">
    <g>
      <rect x="58.36" y="0" width="16.1" height="68.55" rx="2.63" ry="2.63"/>
      <path d="M.41,8.46C.41,4.01,4.02.41,8.46.41h52.45c4.45,0,8.05,3.6,8.05,8.05s-3.6,8.05-8.05,8.05H8.46C4.02,16.51.41,12.9.41,8.46Z"/>
      <path d="M0,8.05C0,3.6,3.6,0,8.05,0h52.45C64.94,0,68.55,3.6,68.55,8.05s-3.6,8.05-8.05,8.05H8.05C3.6,16.1,0,12.5,0,8.05Z"/>
      <path d="M32.09.92h14.33c.49,0,.88.4.88.88v66.78c0,.49-.4.88-.88.88h-10.84c-2.41,0-4.37-1.96-4.37-4.37V1.8c0-.49.4-.88.88-.88Z" transform="translate(4.06 74.44) rotate(-89.99)"/>
      <path d="M32.09.92h14.33c.49,0,.88.4.88.88v66.78c0,.49-.4.88-.88.88h-10.84c-2.41,0-4.37-1.96-4.37-4.37V1.8c0-.49.4-.88.88-.88Z" transform="translate(4.06 74.44) rotate(-89.99)"/>
      <path d="M.88,0h14.33c.49,0,.88.4.88.88v66.78c0,.49-.4.88-.88.88H4.37C1.96,68.56,0,66.6,0,64.18V.89C0,.41.4,0,.88,0Z"/>
      <path d="M116.03,0h14.33c.49,0,.88.4.88.88v66.78c0,.49-.4.88-.88.88h-10.84c-2.41,0-4.37-1.96-4.37-4.37V.89c0-.49.4-.88.88-.88Z" transform="translate(246.38 68.59) rotate(-179.99)"/>
      <path d="M88.52,26.23h14.33c.49,0,.88.4.88.88v66.78c0,.49-.4.88-.88.88h-10.84c-2.41,0-4.37-1.96-4.37-4.37V27.12c0-.49.4-.88.88-.88Z" transform="translate(156.21 -35.16) rotate(90.01)"/>
    </g>
  </g>
</svg>