<?xml version="1.0" encoding="UTF-8"?>
<svg id="Layer_2" data-name="Layer 2" xmlns="http://www.w3.org/2000/svg" viewBox="0 0 2574.15 207.2">
  <g id="Layer_1-2" data-name="Layer 1">
    <g>
      <g>
        <path d="M25.66,204.92l-2.98-16.1c-.7-3.79-1.78-9.1-3.24-15.93L5.17,107.52,0,85.47c7.36.12,13.31.17,17.87.17,5.14,0,11.09-.06,17.87-.17,1.58,9.51,2.83,16.48,3.77,20.92l7.36,35.27c1.52,7.58,3.21,16.83,5.08,27.74l2.88-12.25,10.39-40.43,7.16-31.24c7.99.12,14.76.17,20.3.17,6.01,0,12.75-.06,20.22-.17l5.53,36.84,7.64,46.91,3.41-12.86c.64-2.22,1.31-4.46,2.01-6.74.7-2.27,2.16-6.8,4.37-13.56l10.67-33.6,4.98-16.98c7.05.06,12.88.09,17.49.09,5.19,0,10.99-.03,17.4-.09l-33.93,101.69-5.42,17.76c-8.75-.12-16.4-.18-22.93-.18-6.89,0-14.5.06-22.84.18l-2.01-11.99-7.69-41.74c-.41-2.51-.77-5.09-1.09-7.75-.32-2.65-.77-6.78-1.35-12.38l-3.06,13.56c-.76,3.03-1.55,6.1-2.37,9.19l-14.1,51.11c-8.81-.12-16.14-.18-21.97-.18-6.19,0-13.51.06-21.97.18Z"/>
        <path d="M196.73,204.92c1.46-15.05,2.53-27.65,3.2-37.8s1.35-23.64,2.02-40.47c.67-16.83,1.01-27.99,1.01-33.47l-.09-7.7c13.77.12,30.42.17,49.96.17,18.02,0,33.92-.06,47.69-.17l-.18,2.88c-.06.7-.2,3.23-.44,7.59l-.53,9.51c-.12,2.04-.17,4.1-.17,6.19-11.26-.47-20.71-.7-28.35-.7-8.4,0-14.08.02-17.02.04-2.95.03-7.54.16-13.78.39l-1.06,20.13c6.89.18,14.91.26,24.07.26,3.27,0,11.96-.2,26.09-.61-.58,7.47-1.14,16.36-1.66,26.69-10.09-.12-17.84-.17-23.26-.17-8.05,0-17.06.2-27.03.61l-1.04,21.26h10.06c2.97,0,9.12-.09,18.45-.26l18.1-.44c2.68-.06,7.17-.29,13.47-.7-.7,8.63-1.28,17.56-1.75,26.78-14.24-.12-29.84-.18-46.82-.18l-38.51.09-12.43.09Z"/>
        <path d="M314.08,204.92c1.46-13.77,2.52-25,3.16-33.69,1.23-15.87,2.15-31.64,2.77-47.3.62-15.66.92-28.48.92-38.46,7.93.12,14.95.17,21.07.17,4.14,0,10.09-.06,17.84-.17l-2.11,31.68-2.64,49.53-.35,12.16c10.04.18,16.57.26,19.61.26,15.35,0,26.96-.2,34.84-.61l-1.93,26.43c-15.34-.12-29.96-.18-43.84-.18-18.79,0-35.24.06-49.36.18Z"/>
        <path d="M523.41,175.78c-.7,3.43-1.55,8.21-2.54,14.35-.99,6.14-1.66,10.89-2.01,14.26-12.49,1.87-23.63,2.8-33.43,2.8s-18.25-1.18-26.38-3.54c-8.14-2.36-15.61-6.24-22.4-11.64-6.8-5.4-11.65-11.74-14.57-19.03-2.92-7.29-4.38-15.46-4.38-24.5,0-10.56,1.97-20.05,5.91-28.48,3.94-8.43,9.6-15.46,16.98-21.09,7.38-5.63,15.47-9.66,24.28-12.08,8.81-2.42,17.91-3.63,27.3-3.63,8.63,0,19.31,1.11,32.03,3.33l.18,7.35c.12,3.21.29,6.74.52,10.59l.61,9.98c-6.83-1.63-12.35-2.74-16.58-3.33-4.23-.58-8.15-.87-11.77-.87-7.88,0-14.96,1.57-21.27,4.73s-11.26,7.73-14.88,13.74c-3.62,6.01-5.43,12.66-5.43,19.95,0,6.65,1.52,12.35,4.55,17.11,3.03,4.76,7.13,8.43,12.3,11.03,5.16,2.6,11.54,3.89,19.12,3.89,4.14,0,8.65-.33,13.52-1.01,4.87-.67,10.98-1.97,18.33-3.89Z"/>
        <path d="M612.41,83.19c9.33,0,18.32,1.26,26.95,3.76,8.63,2.51,16.19,6.52,22.67,12.03,6.48,5.51,11.32,11.86,14.53,19.03,3.21,7.18,4.81,15.43,4.81,24.77,0,9.8-1.77,18.8-5.29,27-3.53,8.2-8.62,15.15-15.27,20.87-6.65,5.72-14.59,9.9-23.8,12.56-9.22,2.65-18.81,3.98-28.79,3.98s-19.31-1.3-28.35-3.89c-9.04-2.6-16.9-6.8-23.58-12.6-6.68-5.8-11.42-12.27-14.22-19.38-2.8-7.12-4.2-15.02-4.2-23.72,0-12.78,2.96-23.99,8.88-33.65,5.92-9.66,14.7-17.2,26.34-22.62,11.64-5.43,24.75-8.14,39.34-8.14ZM610.83,109.53c-6.71,0-12.78,1.65-18.2,4.94-5.43,3.3-9.6,7.88-12.51,13.74-2.92,5.86-4.38,12.15-4.38,18.86,0,6.18,1.33,11.84,3.98,16.98,2.65,5.13,6.69,9.14,12.12,12.03,5.43,2.89,11.17,4.33,17.24,4.33,6.48,0,12.41-1.62,17.81-4.86,5.4-3.24,9.51-7.79,12.34-13.65,2.83-5.86,4.24-12,4.24-18.42s-1.31-12-3.94-17.28c-2.62-5.28-6.48-9.38-11.55-12.29-5.08-2.92-10.79-4.38-17.15-4.38Z"/>
        <path d="M693.35,204.92l2.17-17.68,5.38-61.35,2.69-40.43c10.77.12,19.23.17,25.38.17,5.09,0,12.88-.06,23.36-.17.76,5.02,1.4,8.82,1.92,11.42.52,2.6,1.82,7.67,3.88,15.23,2.06,7.56,3.72,14.09,4.97,19.6,1.25,5.51,3.13,14.95,5.63,28.31,2.57-9.16,4.91-17.04,7.01-23.63,2.1-6.59,4.73-14.09,7.89-22.49,3.16-8.4,5.16-13.9,6.01-16.5.85-2.6,2-6.58,3.46-11.95,8.75.12,17.33.17,25.73.17,5.72,0,13.65-.06,23.8-.17-1.11,19.66-1.84,36.55-2.19,50.67-.76,27.65-1.14,46.67-1.14,57.06,0,2.16.06,6.07.17,11.73-7.7-.12-13.1-.18-16.19-.18-4.49,0-10.01.06-16.54.18.47-5.25,1.07-17.75,1.78-37.5.71-19.75,1.07-32.36,1.07-37.85,0-2.39-.06-5.72-.17-9.98l-11.48,35.62-16.48,49.71c-7.58-.12-12.81-.18-15.66-.18-3.62,0-9.16.06-16.63.18l-10.79-48.13-6.31-25.64c-.23-.99-.5-2.22-.79-3.68-.29-1.46-.76-4.02-1.4-7.7l-2.21,24.24-2.91,49.71-.27,11.2c-8.05-.12-13.19-.18-15.4-.18-3.03,0-8.28.06-15.75.18Z"/>
        <path d="M860.33,204.92c1.46-15.05,2.53-27.65,3.2-37.8.67-10.15,1.35-23.64,2.02-40.47.67-16.83,1.01-27.99,1.01-33.47l-.09-7.7c13.77.12,30.42.17,49.96.17,18.02,0,33.92-.06,47.69-.17l-.18,2.88c-.06.7-.2,3.23-.44,7.59l-.53,9.51c-.12,2.04-.17,4.1-.17,6.19-11.26-.47-20.71-.7-28.35-.7-8.4,0-14.08.02-17.02.04-2.95.03-7.54.16-13.78.39l-1.06,20.13c6.89.18,14.91.26,24.07.26,3.27,0,11.96-.2,26.09-.61-.58,7.47-1.14,16.36-1.66,26.69-10.09-.12-17.84-.17-23.26-.17-8.05,0-17.06.2-27.03.61l-1.04,21.26h10.06c2.97,0,9.12-.09,18.45-.26l18.1-.44c2.68-.06,7.17-.29,13.47-.7-.7,8.63-1.28,17.56-1.75,26.78-14.24-.12-29.84-.18-46.82-.18l-38.51.09-12.43.09Z"/>
        <path d="M1049.96,204.92c2.9-28.35,4.64-59.56,5.22-93.64l-37.25.96.44-9.71c.23-5.19.41-10.88.52-17.06,16.56.12,35.87.18,57.91.18l21.61-.09h21l11.37-.09-.52,8.57c-.23,4.6-.39,8.4-.48,11.4-.09,3-.13,5.27-.13,6.8-12.47-.64-22.76-.96-30.86-.96h-6.12c-.88,10.31-1.56,19.83-2.03,28.56-.65,12.52-1.15,24.68-1.5,36.47-.35,11.79-.53,21.33-.53,28.61-9.56-.12-15.74-.18-18.54-.18-2.51,0-9.21.06-20.11.18Z"/>
        <path d="M1209.41,83.19c9.33,0,18.32,1.26,26.95,3.76,8.63,2.51,16.19,6.52,22.67,12.03,6.48,5.51,11.32,11.86,14.53,19.03,3.21,7.18,4.81,15.43,4.81,24.77,0,9.8-1.77,18.8-5.29,27-3.53,8.2-8.62,15.15-15.27,20.87-6.65,5.72-14.59,9.9-23.8,12.56-9.22,2.65-18.81,3.98-28.79,3.98s-19.31-1.3-28.35-3.89c-9.04-2.6-16.9-6.8-23.58-12.6-6.68-5.8-11.42-12.27-14.22-19.38-2.8-7.12-4.2-15.02-4.2-23.72,0-12.78,2.96-23.99,8.88-33.65,5.92-9.66,14.7-17.2,26.34-22.62,11.64-5.43,24.75-8.14,39.34-8.14ZM1207.83,109.53c-6.71,0-12.78,1.65-18.2,4.94-5.43,3.3-9.6,7.88-12.51,13.74-2.92,5.86-4.38,12.15-4.38,18.86,0,6.18,1.33,11.84,3.98,16.98,2.65,5.13,6.69,9.14,12.12,12.03,5.43,2.89,11.17,4.33,17.24,4.33,6.48,0,12.41-1.62,17.81-4.86,5.4-3.24,9.51-7.79,12.34-13.65,2.83-5.86,4.24-12,4.24-18.42s-1.31-12-3.94-17.28c-2.63-5.28-6.48-9.38-11.55-12.29-5.08-2.92-10.79-4.38-17.15-4.38Z"/>
        <path d="M1362.47,204.92c.58-4.73,1.28-12.75,2.1-24.07.82-11.32,1.23-19.31,1.23-23.98l-40.08-71.41c8.8.12,16.06.17,21.77.17s12.04-.06,19.68-.17c2.33,5.83,5.5,12.79,9.49,20.86,4,8.08,7.25,15.3,9.76,21.65,6.71-11.84,12.1-21.07,16.18-27.69,4.08-6.62,7-11.56,8.75-14.83,7.42.12,14.54.17,21.38.17,3.62,0,10.19-.06,19.71-.17l-38.42,56.62c-7.64,11.32-11.46,17.24-11.46,17.76l-.09.88v.87l-.09.88-.61,13.3c-.41,8.81-.73,18.52-.96,29.14-8.23-.12-14.59-.18-19.08-.18s-11.03.06-19.26.18Z"/>
        <path d="M1525.06,83.19c9.33,0,18.32,1.26,26.95,3.76,8.63,2.51,16.19,6.52,22.67,12.03,6.48,5.51,11.32,11.86,14.53,19.03,3.21,7.18,4.81,15.43,4.81,24.77,0,9.8-1.77,18.8-5.29,27-3.53,8.2-8.62,15.15-15.27,20.87-6.65,5.72-14.59,9.9-23.8,12.56-9.22,2.65-18.81,3.98-28.79,3.98s-19.31-1.3-28.35-3.89c-9.04-2.6-16.9-6.8-23.58-12.6-6.68-5.8-11.42-12.27-14.22-19.38-2.8-7.12-4.2-15.02-4.2-23.72,0-12.78,2.96-23.99,8.88-33.65,5.92-9.66,14.7-17.2,26.34-22.62,11.64-5.43,24.75-8.14,39.34-8.14ZM1523.49,109.53c-6.71,0-12.78,1.65-18.2,4.94-5.43,3.3-9.6,7.88-12.51,13.74-2.92,5.86-4.38,12.15-4.38,18.86,0,6.18,1.33,11.84,3.98,16.98,2.65,5.13,6.69,9.14,12.12,12.03,5.43,2.89,11.17,4.33,17.24,4.33,6.48,0,12.41-1.62,17.81-4.86,5.4-3.24,9.51-7.79,12.34-13.65,2.83-5.86,4.24-12,4.24-18.42s-1.31-12-3.94-17.28c-2.63-5.28-6.48-9.38-11.55-12.29-5.08-2.92-10.79-4.38-17.15-4.38Z"/>
        <path d="M1613.3,85.47c9.1.12,15.51.17,19.24.17,4.66,0,10.88-.06,18.63-.17l-2.6,37.19c-.52,7-.91,13.56-1.17,19.69-.26,6.13-.39,10.36-.39,12.69,0,4.43.32,8.14.96,11.11.64,2.98,1.81,5.5,3.5,7.57,1.69,2.07,4.04,3.63,7.04,4.68,3,1.05,6.13,1.57,9.4,1.57,2.8,0,5.42-.38,7.87-1.15,1.92-.62,3.64-1.49,5.16-2.61,1.34-1.04,2.51-2.26,3.5-3.65,1.22-1.67,2.3-3.75,3.23-6.25.93-2.36,1.63-5.42,2.1-9.17.52-3.82,1.23-12.5,2.1-26.05.76-11.53,1.34-22.09,1.75-31.68.35-9.31.67-13.96.96-13.96h38.59l-4.25,62.13c-.06,1.17-.09,2.13-.09,2.89-.23,12.14-.98,20.7-2.23,25.68-1.26,4.99-3.34,9.32-6.26,13-2.92,3.68-7.18,6.99-12.78,9.93-5.6,2.95-11.96,5.03-19.08,6.26s-14.33,1.84-21.62,1.84c-6.54,0-12.84-.47-18.91-1.4-5.6-.93-10.65-2.29-15.14-4.07-4.49-1.78-8.4-3.86-11.73-6.26-3.04-2.22-5.37-4.48-7-6.78-1.63-2.3-2.92-5.06-3.85-8.27-1.05-3.62-1.58-7.5-1.58-11.64,0-1.4.06-3.51.18-6.34.12-2.83.38-6.9.79-12.21l1.14-14c.29-3.68.61-9.07.97-16.19l1.58-34.57Z"/>
        <path d="M1747.17,204.92c1.11-10.27,1.99-19.51,2.63-27.74.64-8.23,1.2-17.76,1.67-28.62.47-10.85.82-22.3,1.05-34.35.23-12.05.35-21.63.35-28.75,7.29.17,13.18.26,17.67.26s10.35-.13,17.06-.39c6.71-.26,13.24-.39,19.6-.39,7.47,0,14.12.29,19.95.88,4.37.41,8.36,1.26,11.94,2.54,3.59,1.28,6.61,2.84,9.06,4.68,2.45,1.84,4.49,3.89,6.12,6.17,1.63,2.27,2.9,4.94,3.81,8.01.9,3.06,1.36,6.34,1.36,9.85,0,3.91-.5,7.57-1.49,10.98-.99,3.41-2.55,6.62-4.68,9.63-2.13,3.01-4.81,5.6-8.05,7.79-3.24,2.19-7.78,4.42-13.61,6.69l4.55,11.11c1.28,3.09,2.65,6.24,4.11,9.45l11.73,25.64c.52,1.11,1.46,3.3,2.8,6.56-9.62-.12-16.09-.18-19.41-.18-4.2,0-11.08.06-20.64.18-.94-3.03-2.63-8.66-5.08-16.89-.99-3.44-1.84-6.1-2.54-7.96-1.4-4.14-3.48-9.95-6.22-17.41l-9.02-24.77c3.15.58,6.24.87,9.28.87,4.26,0,8.12-.64,11.59-1.92,3.47-1.28,6.1-3.27,7.88-5.95,1.78-2.68,2.67-5.51,2.67-8.49,0-2.51-.67-4.71-2.01-6.61-1.34-1.9-3.46-3.31-6.34-4.25-2.89-.93-7.34-1.4-13.35-1.4-2.04,0-4.16.04-6.34.13-2.19.09-4.74.16-7.66.22-.75,11.96-1.41,26.55-1.99,43.76-.58,17.21-.95,34.1-1.12,50.67-9.75-.12-16.09-.18-19.01-.18-3.39,0-9.49.06-18.31.18Z"/>
        <path d="M1902.06,204.92l7.27-12.6,45.27-85.24,4.82-9.54c1.4-2.8,3.36-6.83,5.87-12.08,10.27.12,17.76.17,22.49.17,8.23,0,15.84-.06,22.84-.17l12.77,36.49,25.97,70.18,5.07,12.78c-10.1-.12-16.24-.18-18.4-.18-4.91,0-12.12.06-21.64.18-2.56-9.63-6.26-20.94-11.1-33.95h-44.05c-5.07,10.27-10.32,21.59-15.74,33.95-10.86-.12-17.52-.18-19.97-.18-4.44,0-11.59.06-21.46.18ZM1969.82,145.5h27.18c-6.76-20.56-10.46-31.89-11.1-33.98-3.85,8.56-7.11,15.58-9.79,21.05l-6.3,12.93Z"/>
        <path d="M2063.7,204.92l1.75-18.38,3.41-62.31.96-25.12v-13.65c9.06.12,17.06.17,24.02.17,4.97,0,11.95-.06,20.95-.17l37.36,67.93,5.15,9.98c.66-9.8,1.33-23.55,2.02-41.23.69-17.68,1.03-29.91,1.03-36.68,7.17.12,12.91.17,17.22.17,1.98,0,7.69-.06,17.13-.17l-2.1,26.08-3.94,72.46-.52,20.92c-7.59-.12-14.68-.18-21.28-.18-5.49,0-13.08.06-22.77.18-3.03-5.72-5.27-9.86-6.73-12.43l-14.68-24.95c-4.84-8.17-9.29-15.99-13.37-23.46-2.68-4.73-5.45-9.92-8.3-15.58l-1.88,41.5-.9,34.93c-7.23-.12-12.73-.18-16.52-.18-3.21,0-9.21.06-18.01.18Z"/>
        <path d="M2211.07,204.92c3.36-46.85,5.04-82.9,5.04-108.16l-.09-11.29c10.22.12,17.05.17,20.49.17,1.57,0,7.85-.06,18.83-.17-1.06,13.13-1.9,25.55-2.55,37.28-.82,16.34-1.41,31.61-1.76,45.81-.35,14.21-.53,26.33-.53,36.36l-17.93-.18c-3.5,0-10.67.06-21.52.18Z"/>
        <path d="M2269.96,204.92l2.17-17.68,5.38-61.35,2.69-40.43c10.77.12,19.23.17,25.38.17,5.09,0,12.88-.06,23.36-.17.76,5.02,1.4,8.82,1.92,11.42s1.82,7.67,3.88,15.23c2.06,7.56,3.72,14.09,4.97,19.6,1.25,5.51,3.13,14.95,5.63,28.31,2.57-9.16,4.91-17.04,7.01-23.63,2.1-6.59,4.73-14.09,7.89-22.49,3.16-8.4,5.16-13.9,6.01-16.5.85-2.6,2-6.58,3.46-11.95,8.75.12,17.33.17,25.73.17,5.72,0,13.65-.06,23.8-.17-1.11,19.66-1.84,36.55-2.19,50.67-.76,27.65-1.14,46.67-1.14,57.06,0,2.16.06,6.07.18,11.73-7.7-.12-13.1-.18-16.19-.18-4.49,0-10.01.06-16.54.18.47-5.25,1.07-17.75,1.78-37.5.71-19.75,1.07-32.36,1.07-37.85,0-2.39-.06-5.72-.18-9.98l-11.48,35.62-16.48,49.71c-7.58-.12-12.81-.18-15.66-.18-3.62,0-9.16.06-16.63.18l-10.79-48.13-6.31-25.64c-.24-.99-.5-2.22-.79-3.68-.29-1.46-.76-4.02-1.4-7.7l-2.21,24.24-2.91,49.71-.26,11.2c-8.05-.12-13.19-.18-15.4-.18-3.03,0-8.28.06-15.75.18Z"/>
        <path d="M2421.36,204.92l7.27-12.6,45.27-85.24,4.82-9.54c1.4-2.8,3.36-6.83,5.87-12.08,10.27.12,17.76.17,22.49.17,8.23,0,15.84-.06,22.84-.17l12.77,36.49,25.97,70.18,5.07,12.78c-10.1-.12-16.24-.18-18.4-.18-4.91,0-12.12.06-21.64.18-2.56-9.63-6.26-20.94-11.1-33.95h-44.05c-5.07,10.27-10.32,21.59-15.74,33.95-10.86-.12-17.52-.18-19.97-.18-4.44,0-11.59.06-21.46.18ZM2489.11,145.5h27.18c-6.76-20.56-10.46-31.89-11.1-33.98-3.85,8.56-7.11,15.58-9.79,21.05l-6.3,12.93Z"/>
      </g>
      <g>
        <rect x="1903.6" y="0" width="335.28" height="23.45"/>
        <rect x="2237.81" y="0" width="336.34" height="23.45"/>
        <rect x="1903.6" y="33.05" width="335.28" height="13.96"/>
        <rect x="1903.6" y="53.71" width="335.28" height="13.7"/>
        <rect x="1903.6" y="74.11" width="335.28" height="14.58" transform="translate(4142.48 162.81) rotate(180)"/>
        <rect x="2238.88" y="50.66" width="335.28" height="12.78" transform="translate(4813.03 114.11) rotate(180)"/>
        <rect x="1903.6" y="88.69" width="335.28" height="15.43" transform="translate(4142.48 192.82) rotate(180)"/>
        <rect x="2238.88" y="67.09" width="335.28" height="14.31" transform="translate(4813.03 148.5) rotate(180)"/>
        <rect x="2238.25" y="27.44" width="335.9" height="15.93"/>
        <rect x="2238.88" y="95.39" width="335.28" height="23.45" transform="translate(4813.03 214.23) rotate(180)"/>
        <rect x="1903.6" y="114.17" width="335.28" height="14.52" transform="translate(4142.48 242.86) rotate(180)"/>
        <rect x="2238.88" y="191.41" width="335.28" height="13.96" transform="translate(4813.03 396.78) rotate(180)"/>
        <rect x="2238.88" y="175.44" width="335.28" height="7.7" transform="translate(4813.03 358.58) rotate(180)"/>
        <rect x="2238.88" y="157.65" width="335.28" height="11.46"/>
        <rect x="1903.6" y="142.56" width="335.28" height="22.38"/>
        <rect x="2238.88" y="129.37" width="335.28" height="14.52"/>
        <rect x="1902.98" y="179.29" width="335.28" height="15.43" transform="translate(4141.23 374.01) rotate(180)"/>
      </g>
    </g>
  </g>
</svg>