<?xml version="1.0" encoding="UTF-8"?>
<svg id="Layer_2" data-name="Layer 2" xmlns="http://www.w3.org/2000/svg" viewBox="0 0 2296.49 235.72">
  <g id="Layer_1-2" data-name="Layer 1">
    <g>
      <g>
        <path d="M0,233.92l5.73-9.93,35.68-67.19,3.8-7.52c1.1-2.21,2.65-5.38,4.62-9.52,8.09.09,14,.14,17.73.14,6.48,0,12.48-.05,18-.14l10.07,28.77,20.48,55.33,4,10.07c-7.97-.09-12.8-.14-14.5-.14-3.87,0-9.55.05-17.06.14-2.02-7.59-4.94-16.51-8.75-26.77h-34.73c-4,8.09-8.13,17.02-12.41,26.77-8.56-.09-13.81-.14-15.74-.14-3.5,0-9.14.05-16.92.14ZM53.41,187.08h21.43c-5.33-16.21-8.24-25.13-8.75-26.79-3.03,6.75-5.61,12.28-7.72,16.6l-4.96,10.19Z"/>
        <path d="M127.48,233.92c1.02-10.49,1.71-18.88,2.08-25.18.55-9.38,1.11-21.52,1.67-36.42.42-11.4.62-19.57.62-24.49v-8.07c5.38.14,10.02.21,13.93.21s8.71-.1,14.83-.31c6.12-.21,11.86-.31,17.24-.31,6.16,0,11.56.37,16.21,1.1,4.64.74,8.98,2.25,13,4.55,4.02,2.3,7.39,5.31,10.1,9.04,2.71,3.72,4.78,8.08,6.21,13.07,1.42,4.99,2.14,10.13,2.14,15.42s-.55,10.2-1.66,15c-1.1,4.81-2.64,9.14-4.62,13s-4.29,7.19-6.93,9.97-5.67,5.16-9.07,7.14c-2.53,1.47-5.08,2.62-7.66,3.45-2.58.83-6.09,1.5-10.55,2-4.97.55-10.6.83-16.9.83l-27.87-.21c-2.62,0-6.88.07-12.76.21ZM157.31,213.16c2.53.23,5.17.35,7.93.35,4.69,0,8.87-.41,12.55-1.24,3.68-.83,6.91-2.6,9.69-5.31,2.78-2.71,4.84-6.2,6.17-10.45,1.33-4.25,2-8.61,2-13.07,0-5.47-.99-10.08-2.97-13.83-1.98-3.75-4.61-6.36-7.9-7.83-3.29-1.47-7.76-2.21-13.42-2.21-3.31,0-7.22.14-11.73.41l-2.32,53.19Z"/>
        <path d="M261.68,233.92l-2.55-8.42-16.84-48.5-13.25-37.25c6.25.09,11.81.14,16.68.14,2.99,0,7.67-.05,14.06-.14,1.06,4.1,1.89,7.2,2.49,9.32.83,2.76,2.4,7.76,4.7,14.98l10.16,32.65c1.01,3.41,2.26,7.85,3.73,13.32l3.17-7.94,24.05-52.74c.41-.97.88-2.07,1.41-3.31.53-1.24,1.37-3.34,2.52-6.28,6.67.09,12.03.14,16.08.14,2.53,0,7.54-.05,15.05-.14-4.69,8.74-10,18.95-15.93,30.63l-23.79,47.18c-2.3,4.6-4.87,10.05-7.72,16.35-7.73-.09-13.25-.14-16.56-.14-3.08,0-8.9.05-17.46.14Z"/>
        <path d="M342.99,233.92c1.15-11.87,1.99-21.8,2.52-29.8.53-8,1.06-18.64,1.59-31.91s.79-22.06.79-26.39l-.07-6.07c10.85.09,23.98.14,39.38.14,14.21,0,26.74-.05,37.59-.14l-.14,2.27c-.05.55-.16,2.54-.35,5.98l-.41,7.5c-.09,1.6-.14,3.23-.14,4.88-8.88-.37-16.33-.55-22.35-.55-6.62,0-11.1.01-13.42.03-2.32.02-5.94.13-10.87.31l-.84,15.87c5.43.14,11.75.21,18.97.21,2.58,0,9.43-.16,20.56-.48-.46,5.89-.9,12.9-1.31,21.04-7.95-.09-14.06-.14-18.34-.14-6.34,0-13.45.16-21.3.48l-.82,16.76h7.93c2.34,0,7.19-.07,14.55-.21l14.27-.34c2.12-.04,5.65-.23,10.62-.55-.55,6.81-1.01,13.84-1.38,21.11-11.22-.09-23.52-.14-36.91-.14l-30.35.07-9.79.07Z"/>
        <path d="M436.26,233.92l1.38-14.49,2.69-49.12.76-19.8v-10.76c7.14.09,13.45.14,18.93.14,3.92,0,9.42-.05,16.51-.14l29.45,53.55,4.06,7.87c.52-7.73,1.05-18.56,1.59-32.5.54-13.94.81-23.58.81-28.92,5.65.09,10.18.14,13.58.14,1.56,0,6.06-.05,13.51-.14l-1.66,20.56-3.1,57.12-.41,16.49c-5.98-.09-11.58-.14-16.78-.14-4.33,0-10.31.05-17.95.14-2.39-4.51-4.16-7.77-5.31-9.8l-11.57-19.67c-3.81-6.44-7.33-12.61-10.54-18.5-2.11-3.73-4.29-7.82-6.54-12.28l-1.48,32.71-.71,27.54c-5.7-.09-10.04-.14-13.02-.14-2.53,0-7.26.05-14.19.14Z"/>
        <path d="M573.12,233.92c2.28-22.35,3.65-46.96,4.11-73.81l-29.36.76.35-7.66c.18-4.09.32-8.58.41-13.45,13.06.09,28.27.14,45.65.14l17.03-.07h16.55l8.96-.07-.41,6.76c-.18,3.62-.31,6.62-.38,8.99-.07,2.37-.1,4.16-.1,5.36-9.83-.5-17.94-.76-24.33-.76h-4.82c-.7,8.12-1.23,15.63-1.6,22.52-.51,9.87-.9,19.45-1.18,28.75-.28,9.3-.42,16.81-.42,22.55-7.54-.09-12.41-.14-14.61-.14-1.98,0-7.26.05-15.86.14Z"/>
        <path d="M645.99,139.76c7.17.09,12.23.14,15.17.14,3.68,0,8.57-.05,14.69-.14l-2.05,29.32c-.41,5.52-.72,10.69-.92,15.52-.21,4.83-.31,8.16-.31,10,0,3.5.25,6.42.76,8.76.51,2.35,1.43,4.34,2.76,5.97,1.33,1.63,3.18,2.86,5.55,3.69,2.37.83,4.83,1.24,7.41,1.24,2.21,0,4.27-.3,6.21-.9,1.52-.49,2.87-1.18,4.07-2.05,1.05-.82,1.97-1.78,2.76-2.88.96-1.31,1.82-2.96,2.55-4.93.73-1.86,1.29-4.27,1.65-7.23.41-3.01.97-9.86,1.66-20.54.6-9.09,1.06-17.41,1.38-24.97.28-7.34.53-11.01.76-11.01h30.42l-3.35,48.98c-.04.92-.07,1.68-.07,2.28-.18,9.57-.77,16.31-1.76,20.25-.99,3.93-2.63,7.35-4.93,10.24s-5.66,5.51-10.07,7.83c-4.42,2.32-9.43,3.97-15.04,4.93-5.61.97-11.29,1.45-17.04,1.45-5.15,0-10.12-.37-14.9-1.1-4.42-.73-8.4-1.8-11.94-3.21-3.54-1.4-6.62-3.05-9.25-4.93-2.39-1.75-4.23-3.53-5.52-5.35-1.29-1.82-2.3-3.99-3.04-6.52-.83-2.85-1.24-5.91-1.24-9.17,0-1.1.05-2.77.14-5,.09-2.23.3-5.44.62-9.62l.9-11.04c.23-2.9.48-7.15.76-12.76l1.25-27.25Z"/>
        <path d="M751.52,233.92c.88-8.09,1.57-15.38,2.08-21.87.51-6.48.95-14,1.31-22.56.37-8.55.64-17.58.83-27.08.18-9.5.28-17.05.28-22.66,5.75.14,10.39.21,13.93.21s8.16-.1,13.45-.31c5.29-.21,10.44-.31,15.45-.31,5.88,0,11.13.23,15.73.69,3.45.32,6.59.99,9.41,2s5.21,2.24,7.14,3.69c1.93,1.45,3.54,3.07,4.83,4.86s2.29,3.9,3,6.31c.71,2.42,1.07,5,1.07,7.76,0,3.08-.39,5.97-1.17,8.66s-2.01,5.22-3.69,7.59c-1.68,2.37-3.79,4.42-6.35,6.14s-6.13,3.48-10.73,5.28l3.59,8.76c1.01,2.44,2.09,4.92,3.24,7.45l9.24,20.21c.41.87,1.15,2.6,2.21,5.17-7.58-.09-12.69-.14-15.3-.14-3.31,0-8.73.05-16.27.14-.74-2.39-2.07-6.83-4.01-13.31-.78-2.71-1.45-4.8-2-6.28-1.11-3.26-2.74-7.84-4.9-13.73l-7.11-19.52c2.48.46,4.92.69,7.31.69,3.36,0,6.4-.51,9.14-1.52,2.74-1.01,4.81-2.58,6.21-4.69s2.11-4.35,2.11-6.69c0-1.98-.53-3.71-1.59-5.21-1.06-1.49-2.72-2.61-5-3.35-2.28-.74-5.78-1.1-10.52-1.1-1.61,0-3.28.03-5,.1-1.72.07-3.74.13-6.04.17-.59,9.43-1.11,20.93-1.56,34.49-.46,13.57-.75,26.88-.88,39.94-7.69-.09-12.69-.14-14.99-.14-2.67,0-7.48.05-14.44.14Z"/>
        <path d="M850.92,233.92c2.65-36.93,3.98-65.35,3.98-85.26l-.07-8.9c8.05.09,13.44.14,16.15.14,1.24,0,6.19-.05,14.84-.14-.83,10.35-1.5,20.14-2.01,29.39-.65,12.88-1.11,24.92-1.39,36.11-.28,11.2-.41,20.75-.41,28.66l-14.14-.14c-2.76,0-8.41.05-16.96.14Z"/>
        <path d="M898.11,232.48c-.6-9.8-1.29-17.64-2.07-23.52,5.16,2.3,9.76,3.9,13.79,4.79,4.03.9,7.57,1.34,10.61,1.34,4.01,0,7.2-.59,9.57-1.76s3.56-2.91,3.56-5.21c0-.78-.12-1.53-.35-2.24-.23-.71-.67-1.52-1.31-2.42-.65-.9-1.57-1.87-2.77-2.93l-13-11.31c-3.04-2.58-5.16-4.44-6.36-5.59-2.44-2.34-4.34-4.53-5.7-6.55-1.36-2.02-2.35-4.08-2.97-6.17-.62-2.09-.93-4.31-.93-6.66,0-2.8.49-5.55,1.48-8.24.99-2.69,2.47-5.21,4.45-7.55,1.98-2.35,4.6-4.37,7.87-6.07,3.26-1.7,6.76-2.86,10.48-3.48,3.72-.62,7.56-.93,11.52-.93,7.77,0,16.23.9,25.38,2.69.14,3.17.3,6.08.48,8.73.18,2.64.62,7.28,1.31,13.9-4.23-1.7-8.1-2.89-11.59-3.55-3.5-.67-6.51-1-9.04-1-3.59,0-6.56.67-8.93,2-2.37,1.33-3.55,2.99-3.55,4.97,0,.92.18,1.82.55,2.69.37.87,1.06,1.9,2.07,3.07,1.01,1.17,2.35,2.46,4,3.86,1.65,1.4,4.25,3.48,7.79,6.24l4.97,3.93c1.47,1.2,3.06,2.64,4.76,4.35,1.7,1.7,3.17,3.38,4.42,5.04,1.24,1.66,2.2,3.17,2.86,4.55s1.16,2.77,1.48,4.17c.32,1.4.48,2.91.48,4.52,0,4.14-.99,8.08-2.97,11.83-1.98,3.75-4.78,6.83-8.42,9.24-3.63,2.42-7.62,4.1-11.97,5.07s-8.93,1.45-13.76,1.45c-7.45,0-16.86-1.08-28.21-3.24Z"/>
        <path d="M998,233.92c2.28-22.35,3.65-46.96,4.11-73.81l-29.36.76.35-7.66c.18-4.09.32-8.58.41-13.45,13.06.09,28.27.14,45.65.14l17.03-.07h16.55l8.96-.07-.41,6.76c-.18,3.62-.31,6.62-.38,8.99-.07,2.37-.1,4.16-.1,5.36-9.83-.5-17.94-.76-24.33-.76h-4.82c-.7,8.12-1.23,15.63-1.6,22.52-.51,9.87-.9,19.45-1.18,28.75-.28,9.3-.42,16.81-.42,22.55-7.54-.09-12.41-.14-14.61-.14-1.98,0-7.26.05-15.86.14Z"/>
        <path d="M1102.3,233.92c.96-9.34,1.63-16.83,2-22.49.55-8.37,1.08-19.88,1.58-34.53.51-14.65.76-24.5.76-29.56v-7.59c13.84.09,26.72.14,38.63.14s23.55-.05,34.63-.14c-.74,10.58-1.1,17.5-1.1,20.76l-6-.21-4.83-.07-4.83-.07h-13.59c-1.56,0-6.14.05-13.73.14l-.62,16.07,10,.21h11.17c3.22,0,8.14-.07,14.76-.21-.5,8.69-.76,15.5-.76,20.42-7.39-.23-12.88-.35-16.46-.35-6.06,0-12.67.12-19.83.35l-.72,24.83-.07,9.24v3.04l-14.85-.14c-1.15,0-6.54.05-16.16.14Z"/>
        <path d="M1188.05,233.92c1.15-10.85,1.99-19.71,2.49-26.56.97-12.51,1.7-24.94,2.18-37.29.48-12.35.73-22.46.73-30.32,6.25.09,11.79.14,16.61.14,3.26,0,7.95-.05,14.06-.14l-1.66,24.97-2.08,39.04-.28,9.59c7.91.14,13.06.21,15.46.21,12.1,0,21.26-.16,27.47-.48l-1.52,20.83c-12.1-.09-23.62-.14-34.56-.14-14.81,0-27.78.05-38.91.14Z"/>
        <path d="M1328.5,137.97c7.36,0,14.44.99,21.25,2.97,6.81,1.98,12.76,5.14,17.87,9.49,5.11,4.35,8.92,9.35,11.45,15,2.53,5.66,3.79,12.17,3.79,19.52,0,7.73-1.39,14.82-4.17,21.28-2.78,6.46-6.79,11.95-12.04,16.45-5.24,4.51-11.5,7.81-18.77,9.9-7.27,2.09-14.83,3.14-22.7,3.14s-15.22-1.02-22.35-3.07c-7.13-2.05-13.33-5.36-18.59-9.93-5.27-4.58-9-9.67-11.21-15.28-2.21-5.61-3.31-11.84-3.31-18.69,0-10.07,2.33-18.91,7-26.52s11.59-13.56,20.76-17.83c9.18-4.28,19.51-6.42,31.01-6.42ZM1327.26,158.73c-5.29,0-10.07,1.3-14.35,3.9-4.28,2.6-7.56,6.21-9.87,10.83-2.3,4.62-3.45,9.58-3.45,14.87,0,4.88,1.05,9.34,3.14,13.38,2.09,4.05,5.28,7.21,9.55,9.49,4.28,2.28,8.81,3.42,13.59,3.42,5.11,0,9.79-1.28,14.04-3.83,4.25-2.55,7.5-6.14,9.73-10.76,2.23-4.62,3.35-9.46,3.35-14.52s-1.04-9.46-3.1-13.62c-2.07-4.16-5.11-7.39-9.11-9.69-4-2.3-8.51-3.45-13.52-3.45Z"/>
        <path d="M1412.47,233.92l-2.35-12.69c-.55-2.99-1.4-7.17-2.55-12.55l-11.25-51.53-4.07-17.38c5.8.09,10.49.14,14.08.14,4.05,0,8.75-.05,14.09-.14,1.24,7.5,2.23,12.99,2.97,16.49l5.8,27.8c1.2,5.98,2.53,13.27,4,21.87l2.27-9.66,8.19-31.87,5.64-24.63c6.3.09,11.63.14,16,.14,4.74,0,10.05-.05,15.94-.14l4.36,29.04,6.02,36.98,2.69-10.14c.51-1.75,1.03-3.52,1.59-5.31.55-1.79,1.7-5.36,3.45-10.69l8.41-26.49,3.93-13.38c5.56.05,10.16.07,13.79.07,4.09,0,8.66-.02,13.72-.07l-26.75,80.16-4.27,14c-6.9-.09-12.92-.14-18.08-.14-5.43,0-11.43.05-18.01.14l-1.59-9.45-6.06-32.91c-.32-1.98-.61-4.01-.86-6.11-.25-2.09-.61-5.35-1.07-9.76l-2.41,10.69c-.6,2.39-1.22,4.81-1.87,7.24l-11.11,40.29c-6.95-.09-12.72-.14-17.32-.14-4.88,0-10.65.05-17.32.14Z"/>
      </g>
      <g>
        <path d="M5.25,99.25l1.71-13.93,4.24-48.36,2.12-31.87c8.49.09,15.16.14,20.01.14,4.02,0,10.15-.05,18.42-.14.6,3.96,1.1,6.96,1.51,9,.41,2.05,1.43,6.05,3.06,12,1.63,5.96,2.94,11.11,3.92,15.45.98,4.35,2.46,11.79,4.44,22.32,2.03-7.22,3.87-13.43,5.53-18.63,1.66-5.2,3.73-11.11,6.22-17.73,2.49-6.62,4.07-10.96,4.73-13,.67-2.05,1.58-5.18,2.73-9.42,6.9.09,13.66.14,20.28.14,4.51,0,10.76-.05,18.76-.14-.87,15.5-1.45,28.81-1.72,39.94-.6,21.8-.9,36.79-.9,44.98,0,1.7.04,4.78.14,9.24-6.07-.09-10.33-.14-12.76-.14-3.54,0-7.89.05-13.04.14.37-4.14.84-13.99,1.4-29.56s.84-25.51.84-29.84c0-1.89-.05-4.51-.14-7.86l-9.05,28.08-12.99,39.18c-5.98-.09-10.1-.14-12.35-.14-2.85,0-7.22.05-13.11.14l-8.5-37.94-4.98-20.21c-.19-.78-.39-1.75-.62-2.9s-.6-3.17-1.11-6.07l-1.74,19.11-2.29,39.18-.21,8.83c-6.35-.09-10.39-.14-12.14-.14-2.39,0-6.53.05-12.42.14Z"/>
        <path d="M137.22,99.25c2.65-36.93,3.98-65.35,3.98-85.26l-.07-8.9c8.05.09,13.44.14,16.16.14,1.24,0,6.19-.05,14.84-.14-.83,10.35-1.5,20.14-2.01,29.39-.65,12.88-1.11,24.92-1.39,36.11-.28,11.2-.42,20.75-.42,28.66l-14.14-.14c-2.76,0-8.41.05-16.96.14Z"/>
        <path d="M266.77,76.28c-.55,2.71-1.22,6.48-2,11.31-.78,4.84-1.31,8.58-1.59,11.24-9.84,1.47-18.63,2.21-26.35,2.21s-14.38-.93-20.8-2.79c-6.42-1.86-12.3-4.92-17.66-9.17-5.36-4.25-9.19-9.25-11.49-15-2.3-5.75-3.45-12.19-3.45-19.32,0-8.32,1.55-15.81,4.66-22.45,3.1-6.65,7.56-12.19,13.38-16.62,5.82-4.44,12.2-7.61,19.14-9.52,6.94-1.91,14.12-2.86,21.52-2.86,6.81,0,15.22.87,25.25,2.62l.14,5.79c.09,2.53.23,5.31.41,8.35l.48,7.86c-5.38-1.29-9.74-2.16-13.07-2.62-3.33-.46-6.43-.69-9.28-.69-6.21,0-11.8,1.24-16.76,3.72s-8.88,6.09-11.73,10.83c-2.85,4.74-4.28,9.98-4.28,15.73,0,5.24,1.2,9.74,3.59,13.49,2.39,3.75,5.62,6.65,9.69,8.69,4.07,2.05,9.09,3.07,15.07,3.07,3.26,0,6.82-.26,10.66-.79,3.84-.53,8.66-1.55,14.45-3.07Z"/>
        <path d="M279.81,99.25c.88-8.09,1.57-15.38,2.08-21.87.51-6.48.95-14,1.31-22.56.37-8.55.65-17.58.83-27.08.18-9.5.28-17.05.28-22.66,5.75.14,10.39.21,13.93.21s8.16-.1,13.45-.31c5.29-.21,10.44-.31,15.45-.31,5.88,0,11.13.23,15.73.69,3.45.32,6.59.99,9.41,2s5.21,2.24,7.14,3.69c1.93,1.45,3.54,3.07,4.83,4.86s2.29,3.9,3,6.31c.71,2.42,1.07,5,1.07,7.76,0,3.08-.39,5.97-1.17,8.66s-2.01,5.22-3.69,7.59c-1.68,2.37-3.79,4.42-6.35,6.14s-6.13,3.48-10.73,5.28l3.59,8.76c1.01,2.44,2.09,4.92,3.24,7.45l9.24,20.21c.41.87,1.15,2.6,2.21,5.17-7.58-.09-12.69-.14-15.3-.14-3.31,0-8.73.05-16.27.14-.74-2.39-2.07-6.83-4.01-13.31-.78-2.71-1.45-4.8-2-6.28-1.11-3.26-2.74-7.84-4.9-13.73l-7.11-19.52c2.48.46,4.92.69,7.31.69,3.36,0,6.4-.51,9.14-1.52,2.74-1.01,4.81-2.58,6.21-4.69s2.11-4.35,2.11-6.69c0-1.98-.53-3.71-1.59-5.21-1.06-1.49-2.72-2.61-5-3.35-2.28-.74-5.78-1.1-10.52-1.1-1.61,0-3.28.03-5,.1-1.72.07-3.74.13-6.04.17-.59,9.43-1.11,20.93-1.56,34.49-.46,13.57-.75,26.88-.88,39.94-7.69-.09-12.69-.14-14.99-.14-2.67,0-7.48.05-14.44.14Z"/>
        <path d="M435.92,3.3c7.36,0,14.44.99,21.25,2.97,6.8,1.98,12.76,5.14,17.87,9.49,5.1,4.35,8.92,9.35,11.45,15,2.53,5.66,3.79,12.17,3.79,19.52,0,7.73-1.39,14.82-4.17,21.28-2.78,6.46-6.79,11.95-12.04,16.45-5.24,4.51-11.5,7.81-18.76,9.9-7.27,2.09-14.83,3.14-22.7,3.14s-15.22-1.02-22.35-3.07-13.33-5.36-18.59-9.93c-5.27-4.58-9-9.67-11.21-15.28-2.21-5.61-3.31-11.84-3.31-18.69,0-10.07,2.33-18.91,7-26.52s11.59-13.56,20.77-17.83c9.17-4.28,19.51-6.42,31.01-6.42ZM434.68,24.06c-5.29,0-10.07,1.3-14.35,3.9-4.28,2.6-7.57,6.21-9.87,10.83-2.3,4.62-3.45,9.58-3.45,14.87,0,4.88,1.04,9.34,3.14,13.38,2.09,4.05,5.28,7.21,9.55,9.49s8.81,3.42,13.59,3.42c5.11,0,9.78-1.28,14.04-3.83,4.25-2.55,7.49-6.14,9.73-10.76,2.23-4.62,3.35-9.46,3.35-14.52s-1.04-9.46-3.11-13.62c-2.07-4.16-5.1-7.39-9.11-9.69-4-2.3-8.51-3.45-13.52-3.45Z"/>
        <path d="M499.73,99.25l1.71-13.93,4.24-48.36,2.12-31.87c8.49.09,15.16.14,20.01.14,4.02,0,10.15-.05,18.42-.14.6,3.96,1.1,6.96,1.51,9,.41,2.05,1.43,6.05,3.06,12,1.63,5.96,2.94,11.11,3.92,15.45.98,4.35,2.46,11.79,4.44,22.32,2.03-7.22,3.87-13.43,5.53-18.63,1.66-5.2,3.73-11.11,6.22-17.73,2.49-6.62,4.07-10.96,4.73-13,.67-2.05,1.58-5.18,2.73-9.42,6.9.09,13.66.14,20.28.14,4.51,0,10.76-.05,18.76-.14-.87,15.5-1.45,28.81-1.72,39.94-.6,21.8-.9,36.79-.9,44.98,0,1.7.04,4.78.14,9.24-6.07-.09-10.33-.14-12.76-.14-3.54,0-7.89.05-13.04.14.38-4.14.84-13.99,1.4-29.56s.84-25.51.84-29.84c0-1.89-.05-4.51-.14-7.86l-9.05,28.08-12.99,39.18c-5.98-.09-10.1-.14-12.35-.14-2.85,0-7.22.05-13.11.14l-8.51-37.94-4.98-20.21c-.19-.78-.39-1.75-.62-2.9s-.6-3.17-1.11-6.07l-1.74,19.11-2.29,39.18-.21,8.83c-6.35-.09-10.39-.14-12.14-.14-2.39,0-6.53.05-12.42.14Z"/>
        <path d="M631.7,99.25c.96-10.12,1.61-18.07,1.93-23.87.46-7.91.91-18.76,1.34-32.56s.65-23.52.65-29.18c0-2.02-.02-4.87-.07-8.55,6.12.14,10.97.21,14.56.21,5.01,0,10.85-.1,17.52-.31,6.67-.21,12.39-.31,17.18-.31,5.75,0,9.84.16,12.28.48,3.22.41,6.04,1.15,8.45,2.21s4.43,2.37,6.04,3.93c1.79,1.84,3.2,4.05,4.21,6.62,1.15,2.94,1.72,6.09,1.72,9.45,0,2.62-.33,5.13-1,7.52-.67,2.39-1.61,4.52-2.83,6.38s-2.59,3.42-4.1,4.66c-1.52,1.24-3,2.21-4.45,2.9-1.45.69-3.39,1.38-5.83,2.07,2.44.41,4.39.89,5.86,1.41,1.47.53,3.05,1.38,4.73,2.55,1.68,1.17,3.18,2.68,4.52,4.52,1.33,1.84,2.33,3.9,3,6.17.67,2.28,1,4.68,1,7.21,0,3.5-.58,6.78-1.72,9.87-1.15,3.08-2.76,5.73-4.83,7.93-1.75,1.89-4.02,3.5-6.83,4.83-2.81,1.33-5.68,2.25-8.62,2.76-2.39.37-6.75.64-13.07.83-6.32.18-13.03.28-20.11.28l-18.14-.07-13.38.07ZM660.85,80.35h13.26c3.5,0,6.08-.21,7.73-.62,2.03-.51,3.57-1.17,4.62-2,1.06-.83,1.9-1.95,2.52-3.38.62-1.42.93-3.01.93-4.76,0-1.52-.25-2.85-.76-4s-1.27-2.12-2.28-2.9c-1.01-.78-2.25-1.35-3.72-1.69-1.47-.34-3.77-.52-6.9-.52h-14.56l-.85,19.87ZM662.43,41.79h9.81c3.22,0,5.51-.08,6.87-.24,1.36-.16,2.68-.45,3.97-.86,1.29-.41,2.41-1.1,3.35-2.07.95-.97,1.61-2.04,2-3.24.39-1.2.59-2.39.59-3.59,0-1.7-.4-3.22-1.21-4.55s-2.1-2.32-3.9-2.97c-1.79-.64-4.53-.97-8.21-.97h-12.42l-.86,18.49Z"/>
        <path d="M731.94,99.25c2.65-36.93,3.97-65.35,3.97-85.26l-.07-8.9c8.05.09,13.44.14,16.16.14,1.24,0,6.19-.05,14.84-.14-.83,10.35-1.5,20.14-2.01,29.39-.65,12.88-1.11,24.92-1.38,36.11-.28,11.2-.42,20.75-.42,28.66l-14.13-.14c-2.76,0-8.41.05-16.96.14Z"/>
        <path d="M767.6,99.25l5.73-9.93,35.68-67.19,3.8-7.52c1.1-2.21,2.64-5.38,4.62-9.52,8.09.09,14,.14,17.73.14,6.48,0,12.48-.05,18-.14l10.06,28.77,20.48,55.33,4,10.07c-7.96-.09-12.8-.14-14.5-.14-3.87,0-9.55.05-17.06.14-2.02-7.59-4.94-16.51-8.75-26.77h-34.73c-4,8.09-8.13,17.02-12.41,26.77-8.56-.09-13.81-.14-15.74-.14-3.5,0-9.14.05-16.92.14ZM821.01,52.41h21.43c-5.33-16.21-8.24-25.13-8.75-26.79-3.03,6.75-5.61,12.28-7.72,16.6l-4.96,10.19Z"/>
      </g>
      <g>
        <path d="M1156.89,74.82c-.56,2.77-1.25,6.64-2.05,11.6-.8,4.96-1.34,8.8-1.62,11.53-10.09,1.51-19.09,2.26-27.01,2.26s-14.74-.96-21.32-2.86c-6.58-1.91-12.61-5.04-18.1-9.41-5.49-4.36-9.42-9.49-11.77-15.38-2.36-5.89-3.54-12.49-3.54-19.8,0-8.53,1.59-16.21,4.77-23.02,3.18-6.81,7.75-12.49,13.72-17.04,5.96-4.55,12.5-7.8,19.62-9.76s14.47-2.94,22.06-2.94c6.98,0,15.6.9,25.88,2.69l.14,5.94c.09,2.59.23,5.45.42,8.56l.49,8.06c-5.52-1.32-9.98-2.21-13.4-2.69-3.42-.47-6.59-.71-9.51-.71-6.36,0-12.09,1.27-17.18,3.82s-9.1,6.25-12.02,11.1c-2.92,4.86-4.38,10.23-4.38,16.12,0,5.37,1.23,9.98,3.68,13.83,2.45,3.84,5.76,6.81,9.94,8.91,4.17,2.1,9.32,3.15,15.45,3.15,3.35,0,6.99-.27,10.93-.81,3.94-.54,8.88-1.59,14.81-3.15Z"/>
        <path d="M1211.63,24.33c5.84,0,11.47.9,16.87,2.69,5.4,1.79,9.96,4.37,13.68,7.74,3.72,3.37,6.47,7.31,8.24,11.81,1.77,4.5,2.65,9.35,2.65,14.53s-.79,9.84-2.37,14.39c-1.58,4.55-4.26,8.82-8.03,12.8-3.77,3.98-8.57,6.97-14.39,8.95-5.82,1.98-11.99,2.97-18.49,2.97-5.99,0-11.74-.87-17.25-2.62-5.52-1.74-10.12-4.29-13.83-7.64-3.7-3.35-6.48-7.35-8.34-12.02-1.86-4.67-2.79-9.57-2.79-14.71s.91-10.04,2.72-14.71c1.81-4.67,4.69-8.86,8.63-12.59,3.94-3.72,8.8-6.59,14.6-8.59,5.8-2,11.83-3,18.1-3ZM1211.13,45.12c-3.02,0-5.71.78-8.06,2.33-2.36,1.56-4.14,3.83-5.34,6.82-1.2,2.99-1.8,6.26-1.8,9.79,0,5.19,1.29,9.16,3.89,11.92,2.59,2.76,5.85,4.14,9.76,4.14,2.97,0,5.63-.79,7.99-2.37,2.36-1.58,4.14-3.91,5.34-7,1.2-3.09,1.8-6.4,1.8-9.94,0-2.92-.47-5.56-1.41-7.92-.94-2.36-2.49-4.24-4.63-5.66-2.15-1.41-4.66-2.12-7.53-2.12Z"/>
        <path d="M1262.82,98.37c1.36-10.7,2.4-22.52,3.12-35.46.72-12.94,1.16-25.19,1.3-36.74,5.66.09,10.55.14,14.66.14,4.77,0,9.35-.05,13.74-.14l-.71,9.62c1.56-1.74,2.9-3.12,4.03-4.14,1.13-1.01,2.53-2,4.21-2.97,1.67-.97,3.45-1.76,5.34-2.37,1.88-.61,3.95-1.1,6.19-1.45,2.24-.35,4.58-.53,7.04-.53,3.39,0,6.71.37,9.94,1.1,3.23.73,5.93,1.77,8.1,3.11,2.17,1.34,3.98,3.02,5.45,5.02s2.43,4.16,2.9,6.47c.47,2.31.71,4.69.71,7.14,0,1.79-.19,5.66-.57,11.6l-1.22,25.6c-.24,5.04-.36,9.71-.36,14-4.76-.09-9.21-.14-13.35-.14-5.61,0-10.71.05-15.33.14.43-4.29.88-10.67,1.35-19.13.48-8.46.71-14.41.71-17.86,0-5.33-1.03-9.04-3.08-11.14-2.05-2.1-4.64-3.15-7.75-3.15-2.74,0-5.32.9-7.75,2.69-2.43,1.79-4.3,4.4-5.63,7.81-1.32,3.42-2.25,9.04-2.8,16.87-.54,7.83-.91,15.79-1.1,23.9-4.71-.09-9.31-.14-13.78-.14-4.71,0-9.82.05-15.34.14Z"/>
        <path d="M1361.4,97.02c-.19-2.07-.38-4.25-.57-6.54-.19-2.29-.49-5.43-.92-9.44l-.56-5.09c4.56,1.79,8.49,3.12,11.78,4,3.29.87,6.33,1.31,9.1,1.31,2.3,0,4.17-.21,5.61-.64,1.43-.42,2.48-1.04,3.14-1.84.66-.8.99-1.63.99-2.47,0-.75-.25-1.5-.74-2.23-.49-.73-1.61-1.73-3.35-3.01-3.86-2.83-7.25-5.4-10.19-7.71-2.94-2.31-5.15-4.36-6.63-6.15-1.48-1.79-2.61-3.72-3.38-5.8-.78-2.07-1.16-4.22-1.16-6.43,0-3.91,1.12-7.57,3.36-10.96,2.24-3.39,5.54-5.86,9.9-7.39,4.36-1.53,9.68-2.3,15.95-2.3s14.92.85,25.11,2.55l1.13,19.8c-5.71-2.26-11.2-3.39-16.48-3.39-3.72,0-6.42.38-8.1,1.15-1.67.77-2.51,1.94-2.51,3.52,0,.52.09,1.01.28,1.49.19.47.53.97,1.03,1.48.49.52,1.11,1.05,1.84,1.59s2.51,1.8,5.34,3.78c2.83,1.98,5.04,3.61,6.65,4.88,2.64,2.08,4.66,4,6.05,5.76s2.45,3.65,3.18,5.66c.73,2,1.1,4.11,1.1,6.33,0,3.35-.81,6.42-2.44,9.23-1.63,2.81-4.08,5.15-7.35,7.04-3.28,1.89-6.82,3.19-10.64,3.92-3.82.73-7.76,1.1-11.81,1.1-2.73,0-6.16-.24-10.29-.71-4.13-.47-8.92-1.3-14.39-2.48Z"/>
        <path d="M1511.06,98.37c-5.38-.09-9.86-.14-13.45-.14-4.43,0-8.89.05-13.37.14l-.08-9.69c-1.7,2.12-3.14,3.71-4.31,4.77s-2.46,1.99-3.85,2.79c-1.39.8-2.95,1.5-4.67,2.09s-3.7,1.05-5.94,1.38c-2.24.33-4.51.5-6.82.5-3.72,0-7.25-.44-10.57-1.31-3.32-.87-6.25-2.34-8.77-4.42-2.52-2.07-4.24-4.43-5.16-7.07-.92-2.64-1.38-5.7-1.38-9.19,0-.85.07-2.17.21-3.96l1.13-16.05c.33-5.89.63-12.42.92-19.59.19-4.38.28-8.53.28-12.45,5.85.09,10.82.14,14.92.14s8.72-.05,13.72-.14l-2.19,26.94c-.33,4.1-.51,6.9-.53,8.38-.03,1.49-.04,2.49-.04,3.01,0,4.95,1,8.3,3.01,10.04,2.01,1.74,4.41,2.62,7.2,2.62,1.13,0,2.27-.17,3.4-.5,1.13-.33,2.22-.8,3.26-1.41.9-.57,1.72-1.27,2.48-2.12.8-.89,1.51-1.98,2.13-3.25.76-1.56,1.32-3.23,1.7-5.02.52-2.5.92-5.66,1.21-9.48.18-2.78.44-7.59.76-14.43l.55-14.78c6.07.09,11.07.14,14.98.14,4.38,0,8.78-.05,13.21-.14-1.08,11.97-1.93,23.36-2.54,34.16-.61,10.8-1.08,23.48-1.41,38.05Z"/>
        <path d="M1527.23,98.37l1.98-34.08,1.13-26.66.14-11.46c5.19.09,9.76.14,13.72.14,4.48,0,8.84-.05,13.09-.14l-.49,9.41c1.46-1.89,2.7-3.33,3.71-4.35,1.01-1.01,2.25-1.98,3.71-2.9,1.46-.92,2.97-1.65,4.53-2.19,1.56-.54,3.3-.98,5.23-1.31s3.96-.5,6.08-.5c2.4,0,4.62.2,6.65.6,2.03.4,3.77.91,5.23,1.52,1.46.61,2.73,1.32,3.82,2.12s2.04,1.71,2.86,2.72c.82,1.01,1.78,2.49,2.86,4.42,2.07-3.02,4.27-5.3,6.58-6.86,2.31-1.56,4.94-2.7,7.88-3.43,2.95-.73,5.97-1.1,9.09-1.1,4.1,0,7.97.59,11.6,1.77,3.63,1.18,6.61,3.22,8.95,6.12s3.5,6.66,3.5,11.28c0,2.17-.16,5.45-.47,9.83-.31,4.38-.74,11.92-1.29,22.59-.55,10.68-.85,18.16-.89,22.45-4.33-.09-8.53-.14-12.57-.14-4.95,0-10.13.05-15.54.14.47-5.99.96-13.5,1.46-22.52.5-9.03.75-15.29.75-18.78,0-3.06-.36-5.34-1.06-6.84s-1.62-2.53-2.73-3.08c-1.11-.55-2.33-.83-3.65-.83-1.42,0-2.65.26-3.69.79-1.13.57-2.13,1.45-2.98,2.64-1.13,1.57-2.05,3.54-2.76,5.92-.57,1.85-1.02,4.68-1.35,8.48-.33,3.87-.59,8.96-.78,15.27l-.57,18.95c-5.04-.09-9.59-.14-13.64-.14s-9.02.05-14.62.14c.43-4.2.93-11.24,1.51-21.14.57-9.9.86-16.52.86-19.87,0-2.83-.28-4.95-.85-6.36-.56-1.42-1.36-2.55-2.37-3.39s-2.37-1.27-4.07-1.27c-1.84,0-3.44.54-4.81,1.63-1.37,1.08-2.53,2.64-3.5,4.67-.97,2.03-1.65,4.82-2.05,8.38-.4,3.56-.77,8.99-1.1,16.3-.33,7.31-.54,14.33-.63,21.07-5.71-.09-10.34-.14-13.88-.14-3.92,0-8.78.05-14.58.14Z"/>
        <path d="M1732.03,77.01c-.61,2.83-1.79,9.67-3.54,20.51-5.47,1.08-10.07,1.8-13.79,2.16-3.72.35-7.5.53-11.32.53-5.61,0-10.77-.39-15.49-1.17s-8.78-2.15-12.2-4.13c-3.42-1.98-6.28-4.44-8.59-7.38s-4.07-6.44-5.27-10.49c-1.2-4.05-1.8-8.22-1.8-12.51,0-6.03,1.2-11.93,3.61-17.7,2.4-5.77,5.5-10.28,9.3-13.53,3.79-3.25,8.17-5.56,13.12-6.92,4.95-1.37,10.02-2.05,15.2-2.05s10.5.62,15.38,1.87c4.88,1.25,9.02,3.43,12.41,6.54s5.81,6.62,7.25,10.54c1.44,3.91,2.16,8.13,2.16,12.66,0,2.69-.31,5.68-.92,8.98l-49.57.07c-.05.75-.07,1.43-.07,2.04,0,5.07,1.81,8.8,5.45,11.2s8.06,3.59,13.29,3.59c3.11,0,6.66-.36,10.64-1.1,3.98-.73,8.9-1.97,14.74-3.71ZM1688.54,54.17h23.34c.05-.8.07-1.48.07-2.05,0-2.45-.44-4.55-1.31-6.29-.87-1.74-2.12-3.02-3.75-3.82-1.63-.8-3.46-1.2-5.48-1.2-1.41,0-2.78.22-4.1.67-1.32.45-2.51,1.11-3.57,1.98-1.06.87-1.94,1.87-2.65,3-.71,1.13-1.22,2.23-1.55,3.29-.33,1.06-.66,2.53-.99,4.42Z"/>
        <path d="M1747.66,98.37l2.19-31.4.71-18.03c.05-3.25.07-6.58.07-9.97s-.05-7.71-.14-12.8c5.71.09,10.23.14,13.58.14,3.91,0,8.42-.05,13.51-.14l-.29,7.99c1.84-2.07,3.35-3.62,4.53-4.63,1.18-1.01,2.52-1.93,4.03-2.76,1.51-.82,3.09-1.44,4.74-1.84,1.65-.4,3.37-.6,5.16-.6,1.7,0,3.59.24,5.66.71.05,5.14.16,9.38.35,12.73l.49,10.89c-2.59-.75-5.02-1.13-7.28-1.13-2.83,0-5.27.41-7.31,1.24-2.05.83-3.86,2.08-5.44,3.75-1.58,1.67-2.84,3.76-3.78,6.26-.94,2.5-1.6,6.46-1.98,11.88-.38,5.42-.56,11.62-.56,18.6,0,2.45.09,5.49.28,9.12-4.58-.09-9.18-.14-13.8-.14s-9.48.05-14.72.14Z"/>
        <path d="M1868.51,98.37c2.34-22.91,3.75-48.13,4.22-75.67l-30.1.78.35-7.85c.19-4.2.33-8.79.42-13.79,13.38.09,28.98.14,46.8.14l17.46-.07h16.97l9.19-.07-.42,6.93c-.19,3.71-.32,6.79-.39,9.21-.07,2.43-.11,4.26-.11,5.5-10.08-.52-18.39-.78-24.94-.78h-4.95c-.71,8.33-1.26,16.02-1.64,23.08-.52,10.12-.93,19.94-1.21,29.47-.29,9.53-.43,17.23-.43,23.12-7.73-.09-12.72-.14-14.98-.14-2.03,0-7.44.05-16.25.14Z"/>
        <path d="M1980.17,24.33c5.85,0,11.47.9,16.87,2.69,5.4,1.79,9.96,4.37,13.68,7.74,3.72,3.37,6.47,7.31,8.24,11.81,1.77,4.5,2.65,9.35,2.65,14.53s-.79,9.84-2.37,14.39c-1.58,4.55-4.25,8.82-8.03,12.8-3.77,3.98-8.57,6.97-14.39,8.95-5.82,1.98-11.99,2.97-18.49,2.97-5.99,0-11.74-.87-17.26-2.62-5.52-1.74-10.12-4.29-13.82-7.64-3.7-3.35-6.48-7.35-8.35-12.02-1.86-4.67-2.79-9.57-2.79-14.71s.91-10.04,2.72-14.71c1.81-4.67,4.69-8.86,8.63-12.59,3.94-3.72,8.8-6.59,14.6-8.59,5.8-2,11.83-3,18.1-3ZM1979.68,45.12c-3.02,0-5.71.78-8.06,2.33s-4.14,3.83-5.34,6.82c-1.2,2.99-1.8,6.26-1.8,9.79,0,5.19,1.3,9.16,3.89,11.92,2.59,2.76,5.84,4.14,9.76,4.14,2.97,0,5.63-.79,7.99-2.37,2.36-1.58,4.14-3.91,5.34-7,1.2-3.09,1.8-6.4,1.8-9.94,0-2.92-.47-5.56-1.41-7.92-.94-2.36-2.49-4.24-4.63-5.66-2.15-1.41-4.66-2.12-7.53-2.12Z"/>
        <path d="M2111.72,98.37c-5.05-.09-9.25-.14-12.59-.14-3.77,0-8.35.05-13.72.14l.4-8.98c-1.84,1.79-3.44,3.24-4.81,4.35-1.37,1.11-3.12,2.18-5.27,3.22s-4.45,1.84-6.93,2.4c-2.47.57-5.03.85-7.67.85-4.52,0-8.75-.83-12.69-2.48-3.94-1.65-7.29-4-10.07-7.04-2.78-3.04-4.86-6.65-6.22-10.82-1.37-4.17-2.05-8.5-2.05-12.98,0-6.36,1.25-12.59,3.75-18.67,2.5-6.08,5.77-10.87,9.8-14.36,4.03-3.49,8.59-5.95,13.66-7.39,5.07-1.44,10.56-2.16,16.46-2.16,3.92,0,8.49.35,13.73,1.06.37-5.61.63-13.46.77-23.55,5.79.09,10.53.14,14.2.14,4.76,0,9.56-.05,14.41-.14-1.37,14-2.56,31.09-3.6,51.27-1.04,20.18-1.55,35.26-1.55,45.26ZM2086.52,43.77c-2.5-.57-4.87-.85-7.09-.85-4.58,0-8.48.88-11.69,2.65s-5.68,4.53-7.41,8.27c-1.72,3.75-2.59,7.44-2.59,11.07,0,2.74.48,5.2,1.45,7.39.97,2.19,2.46,3.92,4.46,5.2,2.01,1.27,4.24,1.91,6.7,1.91,2.6,0,4.97-.73,7.12-2.19,2.15-1.46,3.9-3.61,5.25-6.43,1.35-2.83,2.27-6.19,2.76-10.08.49-3.89.84-9.54,1.03-16.94Z"/>
        <path d="M2134.27,46.74c.89-4.67,1.46-7.88,1.7-9.65.23-1.77.61-4.54,1.13-8.31,13.58-2.97,25.25-4.46,35.01-4.46,5.56,0,10.66.62,15.28,1.87s8.23,3.26,10.82,6.05c2.59,2.78,3.89,6.77,3.89,11.95,0,2.64-.35,8.58-1.06,17.82-.71,9.24-1.25,21.36-1.62,36.35-4.62-.09-9.22-.14-13.8-.14s-9.15.05-14.15.14c.64-5.19,1.36-15.89,2.14-32.11-1.79.85-3.19,1.46-4.2,1.84-1.01.38-2.79.94-5.33,1.7-2.54.75-4.53,1.39-5.96,1.91-1.43.52-2.68,1.18-3.74,1.98s-1.81,1.63-2.26,2.47-.67,1.79-.67,2.83c0,1.6.64,2.97,1.91,4.1,1.27,1.13,3.3,1.7,6.08,1.7.99,0,2.05-.08,3.18-.25,1.13-.16,2.69-.58,4.67-1.24-1.37,3.63-3,8.93-4.88,15.91-4.05.66-7.9.99-11.53.99-5.85,0-10.71-.81-14.6-2.44-3.89-1.63-6.88-4.25-8.98-7.88-2.1-3.63-3.15-7.26-3.15-10.89,0-2.22.39-4.38,1.17-6.51.78-2.12,1.99-4.2,3.64-6.22,1.65-2.03,3.58-3.76,5.8-5.2,2.21-1.44,5.24-2.79,9.08-4.07,3.84-1.27,8.71-2.48,14.6-3.61,2.45-.47,4.7-.98,6.75-1.52,2.05-.54,3.51-1.01,4.38-1.41.87-.4,1.58-.87,2.12-1.42.54-.54.93-1.11,1.17-1.7.24-.59.35-1.21.35-1.87,0-1.79-.75-3.17-2.26-4.14-1.51-.97-3.72-1.45-6.64-1.45-8.11,0-18.12,2.29-30.04,6.86Z"/>
        <path d="M2209.44,130.68c-1.46-11.27-2.45-18.27-2.97-21,2.97,1.41,5.6,2.38,7.89,2.9,2.29.52,4.26.78,5.91.78,1.74,0,3.38-.24,4.92-.71,1.53-.47,2.75-1.05,3.64-1.73s1.88-1.73,2.94-3.15c1.06-1.41,1.85-2.63,2.37-3.64.52-1.01,1.04-2.46,1.56-4.35l-13.31-40.24-11.4-33.38c7.03.09,11.96.14,14.79.14,3.3,0,7.81-.05,13.52-.14.89,3.63,2.56,9.9,4.99,18.81,2.43,8.91,4.19,15.89,5.28,20.93.61,2.78,1.2,6.32,1.77,10.61l1.48-5.66c.47-1.51,1.01-3.23,1.62-5.16.61-1.93,1.39-4.24,2.33-6.93l4.59-12.87,7.63-19.73c5.89.09,10.34.14,13.36.14,2.64,0,7.35-.05,14.13-.14l-13.64,30.83-24.66,57.21c-1.61,3.21-3.14,5.75-4.6,7.64-1.37,1.7-2.85,3.18-4.46,4.46-1.51,1.18-3.14,2.17-4.88,2.97-2.36,1.08-4.95,1.93-7.78,2.55-3.11.66-6.27.99-9.48.99-1.46,0-3.4-.11-5.8-.32-2.41-.21-4.35-.42-5.84-.64s-3.46-.6-5.91-1.17Z"/>
      </g>
      <rect x="966.79" y="10.22" width="12.8" height="82.69" transform="translate(248.58 703.25) rotate(-45)"/>
      <rect x="966.79" y="10.22" width="12.8" height="82.69" transform="translate(321.5 -673.05) rotate(45)"/>
    </g>
  </g>
</svg>