<?xml version="1.0" encoding="UTF-8"?>
<svg id="Layer_2" data-name="Layer 2" xmlns="http://www.w3.org/2000/svg" viewBox="0 0 709.72 2285.33">
  <g id="Layer_1-2" data-name="Layer 1">
    <path d="M439.13,1269.23c1.89-.17,2.64.86,4.74.51v-1.45c-3.96.51-4.34-2.67-5.7-4.78-1.63-.18-.83,2.06-1.44,2.86,1.51-1.3,2.59.9,2.39,2.86Z"/>
    <path d="M432.91,1258.26c-.23,1.5.39,2.15,1.93,1.89.2-1.5-.45-2.11-1.93-1.89Z"/>
    <path d="M426.68,1257.79h2.89v-1.42c-1.67.34-2.29-.29-1.91-1.93-1.32,1.22-1.21,1.63-2.87.48v1.89c.83.1,2.39-.5,1.89.98Z"/>
    <path d="M204.01,1645.81v-1.4h-1.89c-.5,1.6.65,1.55,1.89,1.4Z"/>
    <path d="M174.87,1632.44c1.97.57,2.07-.78,3.34-.95-.53-.92-3.97-.81-3.34.95Z"/>
    <path d="M173.4,1627.19v1.92h1.93c-.58-.73-.39-2.15-1.93-1.92Z"/>
    <path d="M174.87,1548.33h-1.46c.14.86-.47,2.39.98,1.91-.07-.84.56-.99.48-1.91Z"/>
    <path d="M169.59,1623.38c-1.04.18-.62,2.8.97,1.91.56-1.5-.75-1.17-.97-1.91Z"/>
    <path d="M161.95,1638.18h3.34c.62-1.51-3.96-1.51-3.34,0Z"/>
    <path d="M151.44,1622.88h-.95c-.8.95.05.62,0,1.89h.95c-.06-1.27.8-.94,0-1.89Z"/>
    <path d="M421.93,1760.99c-2.86,1.12-2.21,5.77-6.22,5.72-.55,2.29,1.74,1.78,1.44,3.84,1.95.27,4.86-.37,4.31,2.4,3.36-.32,4.75.34,7.17-.95.71.41-.15.69.46,1.88.48-.47.98-.93,1.44-1.42.55.06.39.89.47,1.42,3.87,1.17,2.03-3.36,5.26-2.86.09-1.36-1.64-.94-.97-2.86-2.16.41-2.66-.84-3.8-1.45-.18-1.14,2.14.25,1.42-1.43-1.55-.41-1.49.75-1.92,1.43-1.04.08-.22-1.67-.47-2.39-1.53.56-1.16-.74-1.89-.94-1.08-.28-.69.92-1.45.94-.65-.13-.42-1.2-.5-1.88-2.13.33-2.47,1.35-4.76.46-1.25-.1.65-.81,0-1.91Z"/>
    <path d="M434.33,1263.51c-.7.57-1.35,1.22-1.9,1.91.08,1.09,1.2-.61,2.42,0-.53-1.78.95-1.54,1.41-2.36.09-3.29-3.51-2.4-5.26-1.45,1.2.56,2.14,1.35,3.33,1.91Z"/>
    <path d="M197.32,1644.41c1.5-.42-.84-.66-1.43-.48,0-1.27-.19-2.75.45-3.36,2.43-.66.33,3.22,2.89,2.39-.61-1.7-2.61-2.67-1.44-4.78-1.84.23-1.51-1.68-3.81-.95-.45-2.29,2.12.24,1.92-.95-.57-1.37-1.96-1.89-3.83-1.91-.47-1.6.67-1.6,1.91-1.45-1.58-3.37-10.2.32-9.55-5.25-2.84.27-1.39.89-3.85,0-.67,1.59-.67,4.62,0,6.22-.57.85-2.76.08-1.91,2.39-1.31-.48.15-2.05,0-2.87-1.31.38-1.23-.64-2.39-.48.61,3.82-.1,3.61-1.41,5.72,2.16.61,1.5-1.68,2.86-1.88,1.42.69-.35,2.15-1.45,1.88.15.66,1.2.41,1.93.48.32,1.3-.99.94-1.44,1.45,1.41,1.13,4.03,1.08,4.32,3.36,3.23,1,2.75-1.73,5.23-1.45.3,1.25-.2,1.7-1.44,1.45,3.13,1.25,6.7-1.76,9.09-1.45.56,1.17,1.5,2.03,3.34,1.93Z"/>
    <path d="M636.36,1837.89c1.97,1.52,2.63-2.02,5.58,0,.96-2.49-6.57-2.49-5.58,0Z"/>
    <path d="M623.75,993.22c-3.74.93-3.37,4.58,0,5.48,1.7-.52,2.63-5.19,0-5.48Z"/>
    <path d="M448.87,1264.29c-2.41,5.53-1.85,10.94,1.6,16.53,3.59-.79,4.75,1.03,7.03,1.57,8.29-4.97,1.72-19.67-8.63-18.1Z"/>
    <path d="M443.54,2180.27c-.34,1.49-1.69,1.98-1.57,3.94,2.86.73.37-3.87,3.91-2.4-.34-.93-1.03-1.57-2.35-1.54Z"/>
    <path d="M426.79,1124.79c-1.84,3.42-2.39-.29-4.77-.79,1.25,1.18.74,4.08.86,6.32,2.41.81,3.32,3.32,6.32,1.55-1.62-1.53-1.43-4.92-2.41-7.08Z"/>
    <path d="M415.75,1614.84c.39-2.35-.25-3.78-.97-5.11,1.48.74,3.06,1.38,4.82,1.84,2.04.53,4,.78,5.89.87.74.26,1.62.29,2.67-.02,3.25-.19,6.22-1.01,8.86-2.33.49,6.15-.18,13.25,5.76,17.26,9.71-2.94,9.22-10.35,5.78-19.07,4.42-6.59,9.5-12.85,3.86-23.91-.93,1.02-1.67,2.13-2.34,3.27-.02-1.17-.1-2.35-.29-3.52-2.15-13.51-14.72-23.79-30.2-19.77-19.07,4.95-23.41,32.92-7.51,43.82-2.56-.12-3.94,1.82-5.76,3.62.25,2.58,1.33,4.4,3.12,5.46,3.39.52,4.45-1.38,6.3-2.41Z"/>
    <path d="M406.33,1926.13c2.66-.4,1.53-4.13-1.57-3.12-.96,2.58,2.53.59,1.57,3.12Z"/>
    <path d="M402.37,1620.44c-2.14-.79-4.13-1.67-7.11-1.58-1.13,1.72-2.36,3.35-2.34,6.3,3.34,3.54,10.35.84,9.44-4.72Z"/>
    <path d="M392.93,1684.26h-3.98c-.27,1.92,1.48,1.69.79,3.96,1.11-1.33,3.79-1.06,3.2-3.96Z"/>
    <path d="M377.93,2037.29c-.12-1.45-1.28-1.82-3.12-1.62-1.06,1.97,3.1,2.46.79,3.15,1.33,3.05,1.28-1.72,2.34-1.53Z"/>
    <path d="M377.14,1350.17h-3.93c.07,3.91-.71,5.46,3.93,4.72v-4.72Z"/>
    <path d="M357.27,2123.83c-.64-2.38-2.18-1.93-.76-4.7-3.69.29-4.38.71-7.07,3.11-.27,1.91,1.44,1.69.78,3.91,1.66-1.74,2.3,1.08,4.7.83.81-1.08.76-2.96,2.35-3.16Z"/>
    <path d="M322.03,1987.62h3.12c-.42-.66-.79-1.28-.79-2.36h-2.33v2.36Z"/>
    <path d="M280.22,1897.04c0,2.04,2.22,1.94,3.22,3.15,3.49-1.92,6.47-10.28-.81-10.3-3.69,2.46,1.97,7.67-2.41,7.16Z"/>
    <path d="M275.78,2270.42c0-.76.88-.61,1.52-.76-.73-3.01-3.16-.59-2.32,2.3.91.68,2.06,1.08,3.89.78-.02-2.59-1.83-.1-3.08-2.32Z"/>
    <path d="M269.44,2163.85c-.07-2.79-2.89-2.89-2.3-6.31-1.22,2.59-1.25,5.82,2.3,6.31Z"/>
    <path d="M245.97,2264.94c.47,1.08,1.66,1.44,3.16,1.59.29-1.66-.54-2.08-.86-3.13-1.03.2-1.17,1.42-2.3,1.54Z"/>
    <path d="M186.53,1971.06h-3.2c.22,1.6,2.14,1.55,2.36,3.13,1.11-.25.71-1.89.84-3.13Z"/>
    <path d="M173.84,1932.45h-3.1c.74,1.4,1.92,2.29,2.34,3.96,1.77.1.37-2.81.76-3.96Z"/>
    <path d="M164.47,2056.18c.98-.24.59-1.97.71-3.15h-3.91c-.84,2.9,2.63,1.48,3.2,3.15Z"/>
    <path d="M157.36,2285.33c1.91-1.71,6.24-1.08,6.31-4.7-3.42,3.2-6.51-.39-10.25,0,.22,4.45,5.36-.74,3.94,4.7Z"/>
    <path d="M160.49,2263.4c-3.11-6.22.32-10.13-5.53-13.41.81,3.18-2.3,2.45-1.54,5.56,1.66.37,2.11-.51,3.16-.76,2.25.05-.71,5.36,1.57,5.43-.76.83-1.52,1.62-2.37,2.4.44.61.86,1.27.81,2.33,2.37.59,1.49-2.18,3.92-1.54Z"/>
    <path d="M144.04,2221.8c2.42-1.39,3.48.74,5.48-.78-.24-1.03-2.01-.61-3.18-.78-.12-.61.37-.74.78-.74-.78-2-3.45.61-3.08,2.3Z"/>
    <path d="M144.83,2274.36c1.15.93,1.88,2.28,3.91,2.35.1-1.37-1-1.66-.78-3.13-.69.64-1.79.83-3.13.78Z"/>
    <path d="M143.12,1847.36c-2.41-1.2-2.41,5.14,0,3.94v-3.94Z"/>
    <path d="M112.46,2071.92v-2.39c-1.87-.22-3.05.17-3.98.81.64,1.11,2.56,1.11,3.98,1.57Z"/>
    <path d="M104.52,1938.73c-1.45-.89-2.78-1.97-4.7-2.31.37,2.06,2.56,4.42,4.7,2.31Z"/>
    <path d="M100.92,2191.26c-.49-1.66-1.22-2.96-3.94-2.37-.1,2.23,1.91,2.28,3.94,2.37Z"/>
    <path d="M97.79,2166.93c.71,1.81.05,2.54.73,5.53,1-1.47,2.99-5.9-.73-5.53Z"/>
    <path d="M96.2,2221.01c-1.71-.42-1.13,1.52-2.35,1.61.2,1.37,1.35,1.76,3.13,1.57-.64-.73-.86-1.76-.78-3.18Z"/>
    <path d="M54.91,1870.99c-4.06-1.7-.69,4.03-3.96,3.15,1.75,2.41,4.75-.42,3.96-3.15Z"/>
    <path d="M49.4,1904.84c1.75.64,2.14,2.65,4.75,2.38.07-2.44-2.41-2.31-4.75-2.38Z"/>
    <path d="M708.07,1971.83c-.07-1.48-3.37.2-2.36,2.36,2.26.71,2.06-1.08,3.93-.79.74-1.43-4.48-.44-1.57-1.58Z"/>
    <path d="M528.45,1344.63c1.67-1.6,3.59-5.83,1.53-8.68-2.19,1.33-3.32-.84-5.48.79.12,1.72,1.77,6.39-.81,3.98-2.17,0,1.89,2.11-1.57,1.52,2.68,1.87,3.44.79,6.34,2.38Z"/>
    <path d="M459.08,1715.02c-.66.59-.39,2.73-2.33,3.91,1.67,3.34,1.94-5.29,3.89-1.6,3.02-1.37-1.67-1.3-1.55-2.31Z"/>
    <path d="M404.36,2196.69c-1.35-.69-1.27-2.81-3.94-2.3-.39,1.66,1.13,1.47,2.37,1.52.29,1.91-1.44,1.79-.83,3.96h-2.33c-.1,1.71,2.79.39,3.94.83-1.08-1.03-1.25-3.91.78-4.01Z"/>
    <path d="M323.2,2039.52c-1.58,1.44-2.3,3.24-2.4,5.18-.53-.23-1.12-.38-1.92-.32,1.43,2.8,1.74,3.54-1.6,4.75.84-3.02-.57-1.03-6.32-2.43-.67.61-.47,2.16-1.52,2.43.29,1.11.98-.42,2.33,0-.76,3.22-3.64,1.5-6.34,3.91,1.16,1.72,3.12,2.63,3.22,5.51-2.58.93-.64-2.56-3.22-1.62-.71,1.47,2.39,2.66,0,3.17.81,2.19,2.12-1.13,3.22.78-.64.76-1.48,1.16-2.41,1.55,1.7,2.56,1.13,2.38,0,4.79,2.95-2.88.99,3.62,4.72,2.31-.67.67-.47,2.19-1.52,2.39,0,.57.24.91.58,1.15-.34,1.68.02,3.05.81,4.54-.21-.05-.39-.1-.63-.15.12.27.49.53.96.78.66,1.13,1.45,2.4,2.42,4.19,1.98-.76,3.93-1.51,5.87-2.26.42,1.1.63,2.38.96,3.57,2.85-4.04,6.17-11.17,10.25-14.19-2.26-2.24,1.55-2.43.81-5.58,2.41-.47,2.83.93,4.74.89.08-2.43-4.03-.64-5.56-3.17.81-.81,1.55-1.57,2.36-2.34-.11-.71-.92-.69-1.57-.83,9.56-5.79-2.02-18.25-8.25-18.97Z"/>
    <path d="M243.29,2072.66c2.36-.54,1.45,2.19,3.89,1.62-2.51,3,2.48,3.91,3.17,6.34,1.33.15,2.02-1.38,2.31,0,2.31-.74-1.03-2.04,0-3.96,2.97,6.35,8.88,1.84,12.64,5.48v-2.39c1.99,2.68,5.36.22,8.66,2.39-.05-.49.01-.83.16-1.08,3.82,12.6,26.48,10.63,24.14-5.49-1.5-10.28-11.73-12.3-18.55-8.5-.05-.61-.13-1.14-.26-1.45,1.94-1.52,4.82-2.07,4.8-5.53-3,.61-2.48-2.34-4.8-2.34.4-1.03,1.03-1.62,2.39-1.58-1.16-1.87-1.62-1.48-.79-3.96-2.48-.91-1.92,1.2-3.15,1.55-1.08-.3-.66-1.94-.76-3.15-1.67-.39-1.53,1.13-1.55,2.41-2.53-.98-.32-2.75-2.41-4.77-.84,2.9-5.39,4.43-5.56,0,.84.54.84,1.84,2.36,1.58-.05-1.13-.1-2.21.79-2.34-.03-1.21-5.56,1.72-4.7-2.43-3.2,1.33-7.82,4.08-10.23,1.62.59,3.69-5.58,2.53-5.48,0-2.63.24,2.31,3.74-1.63,3.15.03,1.6,2.14.98,1.63,3.19-1.8.1-2.54-.69-2.39-2.41-2.63,1.33-1.35,6.59-5.53,6.3,1.5,2.8-.42,3.54-.76,6.27.62.49,1.26.91,2.31.76-.69,1.16-2.09,1.67-3.1,2.46,1.01,1.8,3.12,2.61,2.41,6.25ZM273.54,2077.77c.03.96.17,1.85.37,2.69-1.61-.4-2.13-2.05-2.34-1.46-.91-.15-.69-1.43-.81-2.34,1.13.93,2.02.79,2.83.34,0,.26-.06.5-.05.77Z"/>
    <path d="M235.32,1919.08c.37-1.7-.54-2.12-.79-3.12.64.39,1.3.79,2.36.71-.1-.86.2-1.4.78-1.55-.02-.76-.98-.64-1.57-.79,4.26-2.29,5.29-5.46,7.87-7.87-1.97-.64-4.2-7.28-1.55-5.51,2.46-2.9-5.75-2.09-7.11-4.77-2.31-4.57.91,1.48-1.55-1.57-2.58.34-2.07,3.76-3.17,5.58-.96-.52.59-3.12-3.15-2.43-.03,2.63-.96,4.28-3.17,4.77,4.55,4.5-3.07,4.23-2.31,9.39,2.12.61,1.55-1.52,3.12-1.52,2.19,1.92,1.43,4.43,0,6.27,3.44-.52,3.52,2.31,6.37,2.41v-2.41c2.68-.52.96,3.22,3.86,2.41Z"/>
    <path d="M191.99,1997.8c-.34.79-.69,1.48-1.57,1.65,1.4,1.6,3.71-2.58,3.98-4.75,1.82.22,1.82,2.12,0,2.36-.15,1.77,2.75.37,3.89.74-1.16-3.49.25-5.71,3.96-7.08-.2-.88-.78-.39-.78,0-2.41-.74.86-2.06,1.6-2.31-.44-1.67-1.28-1.67-2.36-.79-.15-1.97,1.75-1.92,2.36-3.15-2.51-1.57-3.98-3.86-1.6-6.3-2.83,3.49-2.51-1.16-6.27-.79,0-2.11.4-4.62-1.58-4.77-1.5.69.81.49.79,1.57-5.44.91-12.02,1.62-18.89,4.72.1,2.21,3.64.98,3.1,3.98-.24,1.03-1.97.64-3.1.79.2,2.66.79,4.97,2.34,6.3-.64.74-1.5,1.18-2.34,1.57.64.84,1.7.54,3.1,0,.32,1.87-1.45,1.72-.76,3.94.22-1.82,3.83-1.82,1.55,0,1.06.42,6.47,0,7.13,3.12.94-1.01,3.37-.81,5.46-.81Z"/>
    <path d="M187.16,2211.62c-.27-3.03-2.42.59-3.16-1.52-1.74.1,1.03,1.91,0,3.89,1.52-.29.59-3.06,3.16-2.37Z"/>
    <path d="M151.87,2253.17c-.64-.15-.73.29-.81.83-2.03.2-.59-3.06-3.11-2.37,1.1,2.96-2.13,1.49-1.62,3.91.76-.32,1.42-.71,1.62-1.54.69.54,1.17,1.42,1.57,2.33.61-1.25,2.47-1.2,2.35-3.16Z"/>
    <path d="M122.71,2064.84c-3.22-4.18,3.74-4.97,5.48-2.41.1-2.17-1.94-2.21-3.94-2.34,3.35-2.34-.2-2.58,5.46-5.53-.07-1.94-2.68-.22-3.1,0,.86-1.48.91-3.79,3.88-3.12-.29-1.25-2.44-.66-1.57-3.17-.93.34-1.57,1.06-1.53,2.36-1.28.2-1.33-.79-2.36-.79-.79-3.1,2.31-2.34,1.58-5.46-1.67,1.5-1.53,4.23-4.77,2.31-1.58,3.24-4.94,7.72-7.84,3.15-.71,2.51,1.18,2.51,2.34,3.19,0,2.51-3.34,1.87-3.15,4.72,3.25-.24.44,1.6.81,3.12.61-.17.79-.78,1.57-.78,1.7-.12.37,2.78.76,3.86-.76-.44-.79-1.77-2.34-1.52-.15,1.45.96,1.67.79,3.2,2.9-1.67,4.94.79,7.92-.79Z"/>
    <path d="M125.81,2042.75c-.66-2.19,1.13-2.02.81-3.93-.69.44-1.33.84-2.36.84-.1,2.07,1.3,1.52,0,3.1-1.84-.37-2.16-3.49-3.98-1.57.03.79.99.69,1.58.79.25,1.3-.71,1.4-.76,2.41.37,1.33,2.41-2.21,4.72-1.62Z"/>
    <path d="M111.65,2050.62c-2.24-.29-3.32,3.59-3.17-.79-1.35.79-1.75,2.51-1.55,4.72h2.33v-1.53c-.24-1.92,3.62.39,2.39-2.41Z"/>
    <path d="M92.29,2086.17c-2.84.74-.47,2.3-.81,4.7.93-.15,1.42.22,1.52.83.54-1.22-.39-3.6-.71-5.53Z"/>
    <path d="M49.16,2173.24c-.37-2.3-2.77-2.45-2.37-5.48-2.18.15-3.35,1.32-3.11,3.89,2.52.42,3.06-1.27,5.48,1.59Z"/>
    <path d="M45.2,2126.16c-2.16-1.93-1.27,3.57,2.35,2.4v-2.4c-.66.64-1.76.88-3.11.83-.12-.74.32-.76.76-.83Z"/>
    <path d="M346.88,2136.48c-4.29,2.85-5.5,8.39-4.73,13,2.36,14.05,27.81,11.65,23.49-6.01-1.35-5.54-5.26-8.21-9.29-8.74-1.45-.19-2.77-.21-3.98-.11-.14-.81-.54-1.58-1.4-2.19-1.76,2.99-3.6,1.86-7.07.79.04,1.89,1.65,2.56,2.97,3.27Z"/>
    <path d="M144.75,2045.9c-5.66.49-10.03,5.26-12.62,6.32.69,3.91,5.98-1.45,6.3,3.12.96-.1.64-1.4.81-2.31,3.39,1.11-.91,1.72,0,4.72,2.11-1.03,1.94-3.05,4.72-1.58.61-1.48,1.28-2.95,1.57-4.75,2.31.49-.79,1.65,0,3.12,2.51.69,2.46-1.21,3.93-1.53-.56-1.6-2.09-2.11-3.93-2.41-.32-1.92,3.57.44,2.31-2.36-2.51.74-2.44-1.23-3.1-2.36Z"/>
    <path d="M159.95,2097.53h-3.89c.17.98-.2,1.42-.78,1.61,2.25,2.11,1.54,2.27,3.18,4.7,1.37.08,1.59-1,3.11-.78.76-3.13-2.45-2.35-1.61-5.53Z"/>
    <path d="M611.57,1022.53c1.99,3.59,3.99,7.26,8.99,4.08-1.81-4.14-4.79-5.46-8.99-4.08Z"/>
    <path d="M561.89,1035.64c.58.34,1.23.59,1.95.76.53,4.36,1.49,8.73,6.76,9.61.64-3.71.56-7.42.1-11.11,1.66-1.45,2.61-3.78,2.09-7.05-.55-3.49-2.22-5.59-5.08-6.28-.96-3.22-1.99-6.4-2.92-9.51-5.14-7.7-1-19.4-9.98-24.78-5.82,11.74,9.64,24.15,3.29,36.13-5.06-.89-10.71-2.44-14.89-5.16-3.35-7.98-14.48-2.56-19.52,5.06-1.7-.31-4.34,1.46-4.36-2.63-2.69,1.57-2.6,4.3-.74,7.73,1.07-.41,2.14-.82,3.2-1.23-.89,2.7-.89,5.44.64,7.8-1.84,15.16,16.39,9.97,23.74,13.43,6.57-1.01,8.56-12.86,12.31-15.7-.25,11.02,1.1,23.5,4.54,38.43,3.59-9.31,2.02-23.78-1.12-35.51Z"/>
    <path d="M601.21,1194.65c-1.08,2.65.37,6.42,2.15,10.41,6.78-1.17,5.87-14.22-2.15-10.41Z"/>
    <path d="M603.39,1229.28c8.99-3.14,4.05-18.27.59-22.62-2.02,6.68-5.25,12.92-.59,22.62Z"/>
    <path d="M595.4,1368.71c-2.82,2.81-3.09,6.74-1.13,11.62,7.31-.95,5.21-9.66,1.13-11.62Z"/>
    <path d="M547.2,1267.73c1.06-.41,2.18-.84,3.24-1.25,2.67-11.2-12.36-2.78-3.24,1.25Z"/>
    <path d="M521.02,1190.08c-5.25,2.1-.61,8.69-.53,13.2,5.28-2.15.65-8.67.53-13.2Z"/>
    <path d="M491.17,1272.49c5.6-3.33,1.4-10.98-1.38-18.15-3.98,3.87-2.15,15.33,1.38,18.15Z"/>
    <path d="M538.44,1390.64c-5.07,2.27-5.65,6.43-2.73,12.23,1.6-.61,3.24-1.25,4.93-1.9,1.08-2.65-.4-6.43-2.2-10.34Z"/>
    <path d="M532.34,1486.38c1.77-3.76-2.32-10.1-3.99-15.26-2.62,2.31-4.1,16.88,3.99,15.26Z"/>
    <path d="M526.09,1518.65c2.44,5.09-.17,8.04,3.41,13.67,9.07-.38,3.96-17.94-3.41-13.67Z"/>
    <path d="M390.82,1167.31c1.21-3.49,4.68-8.76-.5-11.02-4.05,1.77-1.09,6.69.5,11.02Z"/>
    <path d="M476.98,1410.56c7.34-3.09,3.28-11.15.28-18.73-5.52,3.8-3.5,10.99-.28,18.73Z"/>
    <path d="M525.55,1541.33c-1.27-3.29-2.51-6.52-3.76-9.76-3.24,1.67-4.65,15.05,3.76,9.76Z"/>
    <path d="M403.22,1233.48c-1.71.53-.53,8.28-4.22,3.59,3.21,16.88,1.75,35.73,13.28,48.98,18.61-9.56-6.03-40.29-9.06-52.57Z"/>
    <path d="M510.59,1538.51c6.89-4.55,11.51-12.49,10.04-23.58-1.89-14.33-14.89-26.37-32.4-20.87-12.72,4-20.7,18.4-16.47,31.85,4.15,13.2,16.72,18.36,28.11,16.67-.51,1.85-.5,3.93.64,6.52,3.93-6.91,5.01-2.78,8.98,4.01,3.58-3.81,3.17-9.39,1.1-14.59Z"/>
    <path d="M593.06,1774.98c-6.48.69-.21,8.16,1.49,8.78,3.52-.5,2.35-9.56-1.49-8.78Z"/>
    <path d="M460.31,1454.34c8.54-6.95.9-21.12-3.79-33.98-.56,9.86-8.7,26.89,3.79,33.98Z"/>
    <path d="M377.44,1249.04c3.57,9.28,5.08,9.33,6.89,17.89,4.9-4.46.15-18.52-6.89-17.89Z"/>
    <path d="M418.53,1395.79c2.26,1,4.8,1.62,7.65,1.62,11.84,0,19.66-10.57,18.67-20.87-.4-4.22-1.24-7.14-2.74-9.34-6.28-9.12-20.8-9.85-29.08-2.77-.22-.47-.43-.94-.65-1.41,1.37-.11,2.68-.28,3.37-1.06.28-4.57-2.28-7.57-2.93-12.99.59.68,1.21,1.25,1.84,1.54,3.56-2.35,4.39-8.89-.42-10.97-4.54.64-4.27,4.66-2.6,7.7-3.42-1.91-6.77-3.28-10-3.35-.58-.91-1.15-1.83-1.72-2.69-.21.9-.44,1.88-.68,2.89-2.44.49-4.82,1.85-7.09,4.49-1.31,5.78.74,10.63,3.73,13.45-2.01,16.17-.7,34.51,15.2,42.17,3.83-2.04,6.19-4.95,7.47-8.43Z"/>
    <path d="M389.4,1328.49c-2.58,1.37-1.87,14.59,4.38,11.38,1.5-3.07-1.21-10.11-4.38-11.38Z"/>
    <path d="M596.88,1906.08c-3.95-4.11-5.78,3.61-7.5,4.8,4.56,5.9,4.49-2.42,7.5-4.8Z"/>
    <path d="M395.64,1402.72c-5.48,1.15-6.79,4.24-4.07,9.01,5.38-1.28,6.71-4.23,4.07-9.01Z"/>
    <path d="M324.91,1233.85c-3.1,6.51,2.1,9.53,3.67,19.13,4.34-3.69.06-16.2-3.67-19.13Z"/>
    <path d="M523.08,1753.3c-5.17-3.91-5.02,5.79-1.73,10.07,3.56-2.01-1.16-7.71,1.73-10.07Z"/>
    <path d="M469.83,1615.02c-1.94-3.58-4.55-5.95-7.03-8.45-5.66,3.67,1.64,11.65,7.03,8.45Z"/>
    <path d="M615.41,2022.23c-5.18,1.73-3.98,6.37-3.37,10.65,7.32,4.94,9.99-5.65,3.37-10.65Z"/>
    <path d="M512.23,1768.74c.94-1.35,1.96-2.77,4.24-3.49-.96-3.03-3.33-2.7-4.13-5.9-6.07,1.01-3.68,7.95-.1,9.39Z"/>
    <path d="M466.62,1664.83c-4.15-8.82-12.63-14.85-19.8-21.18-1.82-2.92-4.14-5.16-6.79-6.87-2.45-3.04-4.28-6.34-4.97-10.18-3.13,1.41-4.3,3.7-4.52,6.41-8.2-1.51-15.74,1.53-21.1,6.89-1-.75-2.42-.91-4.62.15.07,1.62.2,3.4.61,4.96-4.45,7.26-5.62,16.55-1.2,24.76,4.38,8.13,15.47,16.63,29.79,11.71,2.08,6.61,5.19,13.22,8.85,18.67,6.52,4.58,16.28,1.84,22.89,6.17,2.91-15.55,7.92-26.41.87-41.49Z"/>
    <path d="M414.19,1538.25c3.22,1.84,7.15,3.03,12,3.03,14.13,0,23.91-12.23,22.51-25.26-.4-3.7-1.38-6.91-2.8-9.69,1.14-.51,2.42-.96,4-1.28,2.23,12.27-3.58,25.77,7.67,34.41,18.55-5.02,1.72-17.83-2.49-30.76-4.26-12.92.18-30.04-4.65-41.2-1.48-3.38-3.58-6.6-5.84-9.66,2.06-4.26,2.84-9.27,1.93-14.3-1.2-6.57-5.13-11.26-9.14-13.83,3.57-8.87-7.09-22.28-11.65-31.12-1.23,8.31-3.53,18.32-1.26,27.77-20.93.81-25.93,33.94-6.51,41.35,2.52.96,4.93,1.45,7.24,1.61-.98,8.17-.45,16.84,2.51,25.96-.69-.03-1.34-.13-2.06-.11-21.67.53-28.26,29.21-14.42,41.05-2.05,3.83-.76,9.85,5.22,7.88-.73-1.91-1.49-3.88-2.25-5.83Z"/>
    <path d="M373.04,1455.27c1.1-3.05,1.78-6.95.98-11.19-1.61-8.54-8.45-15.21-18.42-15.09-1.41-3.17-3.81-6.78-3.92-9.35-2.6,1.27-2.55,6.06-1.36,10.09-16.72,4.68-17.34,33.62,1.74,36.87,6.14,1.04,12.77-1.53,16.52-4.55.93,5.86,3.81,11.54,8.6,9.42-1.26-4.04-1.54-11.57-4.14-16.19Z"/>
    <path d="M375.94,1492.4c-1.62.62-2.01-1.48-2.85-2.57-10.34,2.33-2.57,9.68.14,14.93.64-4.26,4.25-7.11,2.71-12.36Z"/>
    <path d="M380.84,1539.08c11.53-5.93,2.94-26.38-5.39-33.39-.79.87-1.47,1.89-2.07,2.98-6.33-11.49-23.26-14.13-32.31-4.73-18.29,19.01,11.73,47.18,29.65,28.56.56-.58,1.17-1.43,1.77-2.42,1.62,3.9,4.28,7.24,8.35,9.01Z"/>
    <path d="M552.95,1971.54c-3.29-4.76-21.45-12.6-16.51.8,7.12-4.34,12.86,5.17,16.51-.8Z"/>
    <path d="M296.57,1325.02c-4.71,3.14-.47,5.12,1.49,8.78,4.09-1.74,1.54-7.53-1.49-8.78Z"/>
    <path d="M554.85,2049.32c-.93-4-2.63-6.13-4.77-7.57-2.73,1.05-5.44,2.09-8.1,3.12.36,5.41.44,5.62,3.78,9.81,4.05-1.35,7.87-2.76,9.1-5.36Z"/>
    <path d="M454.16,1826.52c-7.78,1.11-3.2,7.63-9.51,9.32,3.91,13.11,16.34,17.81,24.74,10.98-5.68-11.15-5.69-16.99-15.23-20.31Z"/>
    <path d="M375.69,1714.83c2.66-1.02,5.37-2.07,8.07-3.11.25-13.14-9.48-18.19-13.52-30.29-5.33,8.85-2.89,26.09,5.45,33.4Z"/>
    <path d="M446.78,1894.78c-5.98,6.9-4.15,12.68,1.03,22,10.82-3.24,7.13-17.99-1.03-22Z"/>
    <path d="M457.24,1941.26c9.58-5.12,3.27-20.71-5.92-20.2-7.03,3.55-3.04,21.36,5.92,20.2Z"/>
    <path d="M391.44,1770.38c-4.63,3.57-2.16,20.81,5.92,20.2,1.34-7.37-6.75-11.67-5.92-20.2Z"/>
    <path d="M325.96,1605.14c2.37-5.16-3.01-6.23-4.41-11.45-4.3.64-.97,15.01,4.41,11.45Z"/>
    <path d="M374.4,1760.12c1.04,2.7,2.1,5.46,3.15,8.19,3.93-.42,3.32-2.85,3.46-4.95.97.76,2.69.79,3.99,1.25-.24-1.53.17-2.46,1.62-2.31-.05-1.57-2.19-1.03-1.62-3.2-1.34.17-2.19.84-2.97,1.6-1.57-2.44-4.22-2.32-7.64-.57Z"/>
    <path d="M347.72,1678.2c1.98.75,4.11,1.32,6.54,1.46,14.57.88,25.19-10.98,23.06-25.26-1.49-10.01-8.3-18.01-19.65-18.67-1.33-3.79-4.31-7.48-7.37-11.03.09-.82.19-1.65.06-2.71-1.11-.61-2.24-1.23-3.69-1.53-2.41-2.91-4.38-5.71-4.92-8.35-2.68,7.81-2.1,17.13,1.29,27.66-8.13,6.15-10.39,17.95-6.66,27.18-4.07,7.12-1.79,18.51,5.63,23.49,6.96-3.1,7.53-7.48,5.72-12.25Z"/>
    <path d="M423.61,1907.39c-2.37,2.5-2.38,6.06-1.3,9.56-20.84,3.55-22.3,37.13.03,40.57,7.82,1.2,14.46-1.52,18.76-6.33,1.48,5.29,4.94,8.2,9.13,10.33.1.73-.25,1.16-2.17.89,1.18,2.12-1.06,5.24,2.41,6.32-1.52,1.55-2.88,1.26-1.6,3.89-1.53-.25-.64-3.05-3.17-2.34.71,1.35,1.77,2.48,3.17,3.12,1.35.34,1.45-.62,1.6-1.58,1.01,1.28,3.69.96,3.1,3.96,4.97-1.66,10.52-3.16,12.14-7.31,2.49,1.56,4.69,3.53,6.29,6.31,2.21-3.6,1.96-6.54.39-9.2.04-.01.06-.04.11-.06-.17-.6-.39-.8-.65-.81-.29-.41-.63-.81-.98-1.21.16-.22.28-.48.03-1.1-.39.1-.67.11-.94.09-.47-.47-.99-.94-1.52-1.4-.31-.71-.64-1.41-1.69-1.39-.26-.21-.52-.42-.79-.63.26-.31.59-.55,1.06-.63-.91-.86-1.56-.59-2.56-.5-.63-.47-1.26-.94-1.89-1.41.27-1.24-.2-1.33-1.1-2.87-.19.62-.59.95-.96,1.31-4.19-3.2-8.16-6.7-9.74-11.24-3.4,3.91-3.9,1.95-5.9,1.29,1.37-3.54,1.83-7.54,1.1-11.68-1.38-7.76-6.09-13.38-12.65-15.64-2.04-4.74-6.81-9.45-9.69-10.33Z"/>
    <path d="M367.04,1755.51c-6.35,3.51-3.03,16.84,2.63,21.39,2.15-.83,4.33-1.67,6.5-2.5,1.03-5.21-3.67-18.65-9.13-18.88Z"/>
    <path d="M375.28,1805.28c1.23-3.35,1.78-7.37.94-11.95-1.53-8.39-7.11-13.51-12.08-15.37-11.27-4.23-14.19-.86-16.47,0-15.39,5.78-17.78,32.86,0,39.54,8.95,3.36,19.63-1.51,23.06-4.94.38-.37.74-.8,1.1-1.23-4.53,15.36-.3,43.57,15.6,40.9,5.35-.87,9.76-6.81,10.5-11.51,2.96-16.42-15.09-27.19-22.65-35.43Z"/>
    <path d="M507.11,2169.15c-7.02,2.02-9.69,10.82-3.72,14.52,4.99-3.17,7.24-7.65,3.72-14.52Z"/>
    <path d="M309.92,1689.75c-4.39,1.08-1.4,13.13,4.75,7.5-.37-5.17-3.9-3.36-4.75-7.5Z"/>
    <path d="M454.03,2113.36c2.22,7.26,6.36,9.85,11.45,10.43,9.4-2.24,2.1-20.22-5.2-18.44-4.92,1.44-4.41,5.24-6.25,8.01Z"/>
    <path d="M321.11,1728.4c-1.07-2.77-2.12-5.51-3.14-8.17-7.2.91-2.82,12.27,3.14,8.17Z"/>
    <path d="M391.48,1916.07c-1.13-4.45-5-2.86-8.36-2.39-.62,2.47-.5,5.19,1.48,8.73,7.05-.03,1.46-5.58,6.88-6.34Z"/>
    <path d="M405.55,1957.36c-.81-2.11-1.68-4.38-2.51-6.53-6.74,1.13-3.23,10.25,2.51,6.53Z"/>
    <path d="M437.02,2102.11c1.34-3.65-.73-7.54-3.3-10.45,1.59-.82,3.13-1.9,4.54-3.45,1.97-2.17,4.46-8.22,3.3-14.28-2.34-12.22-18.23-16.92-26.9-8.24-11.41,11.41-.31,26.99,11.85,27.62-.94,2.34-1.05,5.05,1.08,8.73,3.37-.56,4.8,3.49,9.43.06Z"/>
    <path d="M335.67,1877.8c1.48-.34,2.58.19,3.61.84,2.51,4.32,6.69,7.65,12.77,8.59,15.44,2.38,25.47-10.09,23.06-23.61-1.77-9.94-9.98-17.94-23.06-15.93-5.64.87-9.76,4.17-12.36,8.48-2.79-2-5.67-3.2-7.93-3.01,4.72,9.71-2.58,14.01,3.91,24.64Z"/>
    <path d="M300.86,1743.64c-.36-.99-.72-1.98-1.08-2.95,3.36-3.64,5.31-8.57,5.06-13.81-.21-4.36-1.35-7.74-2.99-10.4,1.12-4.27-2.9-9.97-6.65-11.73-1.35.95-2.05,2.67-2.27,4.63-.05-.02-.11-.05-.16-.07-25.13-8.39-35.4,28.82-13.18,36.24,4.18,1.4,8.15,1.39,11.67.4,2.62.62,6.04-.64,9.61-2.31Z"/>
    <path d="M452.96,2173.34c.91,3.88,2.66,6.01,4.78,7.41,4.69-2.02.58-11.33-4.78-7.41Z"/>
    <path d="M287.57,1816.01c7.66,7.81,5.57,30.4,18.11,32.27,13.43-10.05-7.45-31.14-18.11-32.27Z"/>
    <path d="M359.62,1978.84c1.92-5.84-4.05-13.48-7.91-15.71-4.14,9.27-10.37,9.57-9.02,20.32,6.73.44,8.56-3.77,16.93-4.61Z"/>
    <path d="M356.77,2049.02c-4.37,3.56-7.48,10.11-6.28,15.6-6.96,3.15-12.04,10.85-7.22,19.74,7.45,13.74,29.27,6.01,26.36-9.88-.86-4.66-3.01-7.65-5.73-9.42-.74-6.61-1.94-14.86-7.12-16.04Z"/>
    <path d="M261.57,1801.76c1.84-4.27-1.4-4.19-3.14-8.15-7.22.92-2.85,12.26,3.14,8.15Z"/>
    <path d="M372.02,2107.87c5.74-1.71,2.65-10.83-1.15-12.67-7.18,2.02-4.95,12.08,1.15,12.67Z"/>
    <path d="M372.06,2131.94c-4.9,2.02-.29,13.31,5.31,9.11.61-2.46.47-5.17-1.51-8.72-1.76.99-3.02.74-3.8-.39Z"/>
    <path d="M237.16,1811.16c3.34,3.63,5.41,10.11,11.9,6.63-2.51-5.55-5.46-10.12-11.9-6.63Z"/>
    <path d="M219.97,1761.74c1.55,3.76-.93,5.86,2.15,10.36,2.18-.84,4.4-1.69,6.53-2.51-1.84-4.98-3.16-11.03-8.68-7.84Z"/>
    <path d="M343.86,2116.73c1.53-4.34-2.28-14.98-9.2-9.41-1.35,3.85,3.54,12.07,9.2,9.41Z"/>
    <path d="M206.74,1761.21c-.92-3.02-3.3-2.69-4.15-5.87-7.18,4.94-9.04-1.94-12.88-4.39-1.68,5.43.61,14,5.26,18.49,6.54.78,6.38-4.95,11.76-8.22Z"/>
    <path d="M301.73,2084.67c-1.82,7.15,5.65,14.06,10.09,16.53,2.19-.84,4.35-1.68,6.47-2.49,1.2-8.97-7.92-17.47-16.56-14.03Z"/>
    <path d="M246.47,1917.78c4.07-1.83,1.53-7.55-1.52-8.77-4.05,1.69-1.53,7.55,1.52,8.77Z"/>
    <path d="M187.89,1843.2c-2.79.76,1.16,11.03,3.75,9.74,6.86-1.71-1.02-10.79-3.75-9.74Z"/>
    <path d="M591.49,1313.4c-.98,9.3-6.82,16.49-.59,29.04,10.63-5.08.97-19.11.59-29.04Z"/>
    <path d="M563.46,1356.23c-18.63,1.62-23.7,23.4-14.89,35.68-.31,1.66.05,3.48,1.13,4.74.75-.35,1.06-1.12,1.37-1.89.85.8,1.78,1.5,2.79,2.15-.63.4-1.39.67-2.56.53,2.46,1.92,2.98.81,6.27,1.57.04-.09.05-.16.08-.25,1.93.71,4,1.25,6.36,1.39,14.57.89,25.19-10.98,23.06-25.26-1.66-11.14-9.84-19.87-23.61-18.67Z"/>
    <path d="M566.2,1327.67c12.04-.3,19.72-10.6,18.12-21.97-1.49-10.55-9.1-16.94-19.77-16.47-22.71,1-24.94,39.11,1.65,38.44Z"/>
    <path d="M566.32,1254.58c2.1,6.57,5.1,11.12,9.05,13.52,1.62-.62,3.26-1.26,4.86-1.87.75-4.62-1.56-11.43-5.78-13.96,5.06-2.99,8.19-8.68,7.13-16.29-1.24-8.89-7.36-14.28-15.92-14.28-20.5,0-22.18,32.95,0,32.95.23,0,.44-.05.66-.06Z"/>
    <path d="M578.83,1165.68c-1.11-5.87-5.05-9.4-8.24-10.43-20.68-6.67-24.11,21.77-9.88,26.36,11.26,3.63,20.31-4.36,18.12-15.92Z"/>
    <path d="M576.64,1101.98c.46-2.01.24-3.65-.55-6.59-3.21-11.93-19.56-7.88-21.42,0-4.15,17.61,19.57,16.96,21.96,6.59Z"/>
    <path d="M516.24,1375.45c-.05-.36.05-.74,0-1.1-3.18-23.13-41.18-22.08-41.18,3.84,0,28.72,44.9,26.32,41.18-2.74Z"/>
    <path d="M478.9,1315.59c7.22,18.44,38.32,11.7,34.59-10.43-4.33-25.71-44.04-13.68-34.59,10.43Z"/>
    <path d="M510.75,1234.87c-1.17-5.85-5.3-9.73-8.24-10.98-21.78-9.29-28.36,22.07-13.18,28.55,13.3,5.68,23.72-6.04,21.42-17.57Z"/>
    <path d="M508.55,1167.88c-.41-6.39-3.75-10.13-7.14-11.53-17.95-7.4-24.55,18.57-10.98,24.16,8.88,3.66,18.79-2.19,18.12-12.63Z"/>
    <path d="M505.8,1097.04c-2.09-12.81-20.32-9.64-20.32,1.65,0,12.65,22.94,14.48,20.32-1.65Z"/>
    <path d="M501.96,1026.75c-1.03-3.3-2.73-5.32-7.69-4.39-7.77,1.46-6.35,14.99,3.29,13.18,3.02-.57,6.18-3.04,4.39-8.79Z"/>
    <path d="M403.95,1864.64s-.02.02-.03.03c0,.04.01.07.02.11-.11.89-.27,1.77-.27,2.67,0,2.46.42,4.62,1,6.66.03.28.05.51.09.82.08.06.15.07.23.13,4.16,12.27,18.18,16.28,29.21,12.53.25.16.47.4.72.54,7.48-2.18,10.79-6.37,11.51-11.31,1.45-3.24,2.2-7.04,1.72-11.55-1.24-11.61-8.66-20.66-22.51-20.32-11.6.28-20.3,9.35-21.68,19.7Z"/>
    <path d="M442.11,1304.06c-1.64-7.11-6-9.93-10.98-11.53-23.59-7.59-28.73,28.39-9.33,32.4,15.09,3.11,23.01-9.18,20.32-20.87Z"/>
    <path d="M439.91,1235.97c-2.56-17.27-28.51-14.76-28,2.74.5,17.35,31.12,18.26,28-2.74Z"/>
    <path d="M437.72,1166.78c-.95-6.53-4.59-10.43-11.53-10.43-15.85,0-15.6,24.16,0,24.16,7.26,0,12.81-4.95,11.53-13.73Z"/>
    <path d="M434.42,1095.94c-3.12-11.52-19.47-5.54-17.02,5.49,2.31,10.45,20.37,6.87,17.02-5.49Z"/>
    <path d="M430.58,1027.3c-4.06-11.33-16.44,7.63-3.84,6.59,2.99-.25,5.52-1.93,3.84-6.59Z"/>
    <path d="M377.31,1725.24c-1.28-11.92-9-20.09-21.96-19.77-26.7.65-29.12,44.67,1.1,43.93,13.34-.33,22.2-11.72,20.87-24.16Z"/>
    <path d="M376.77,1584.66c-1.63-10.95-10.51-19.51-23.61-18.12-5.26.56-9.32,2.94-12.28,6.24-.83-.47-1.41-.87-2.12.42-2.36-.48-2.79-2.95-4.78-3.83v1.9c-1.96-1.06-4.17-1.9-5.73-3.31.48-.52.95-.99,1.41-1.48-2.26-.2-2.51-2.54-5.21-2.37.59,2.01-1.59,1.27-1.93,2.37-1.35-.92.18-2.98,0-4.27-1.4-.81-1.79.87-3.81,0-.69-1.86,1.32-.94.94-2.42-1.01.23-.89-.66-.94-1.4-2.56.61-2.89-.93-3.83-1.96-.56.09-.41.88-.47,1.45-1.73-2.06-4.18-2.06-7.66-1.45-.2,1.49.43,2.14,1.89,1.96-1.65.87-3.74,1.32-5.72,1.87.09,1.21,1.64.14,1.93,0-.83,3.01-.19,5.43,1.44,7.19.95-.48,1-1.83.94-3.33h.95c.39,2.06.42,1.98,1.91,3.33-.42,1.3-1.51-.67-2.86,0,3.1,1.4,7.97.77,11.47.51-.69,1.68-3.61,1.12-3.83,3.31,1.27.28,1.73-.18,1.42-1.43,2.45-.38,3.48.68,5.76.47-1.44,2.73,1.41-.34,1.91,1.92.69,1.81-2.14.1-1.45,1.88,1.74.15,2.31-.87,3.83-.92-.14,1.09-.29,2.21-1.89,1.91,1.48,2.24,1.2-.86,2.86-.99,1.55.99-1.16,1.68-.97,2.87,1.32-.3,4.16,1.73,1.91,1.95.85,1.56,1.95-.57,2.4-.98.15,1.91,1.91,2.26,4.3,1.91,1.12.75.75,1.17.47,2.4.02,0,.32-.24.67-.44-3.09,11.79,2.52,26.23,17.62,27.54,15.79,1.37,25.01-11.68,23.06-24.71Z"/>
    <path d="M338.88,1944.34c6.9,17.63,35.57,12.2,34.81-7.66.85.57,1.68,1.19,2.33,2.17,9.1-2.1,3.28-12.32-.78-16.52-2.56,1.06-3.68,2.76-4.34,4.66-9.77-15.99-40.45-4.18-32.02,17.35Z"/>
    <path d="M372.37,1375.45c-3.28-20.55-34.67-17.58-33.49,3.84,1.23,22.5,37.19,19.3,33.49-3.84Z"/>
    <path d="M370.18,1305.16c-.78-3.92-2.54-7-4.94-8.79-9.48-7.04-26.23.22-24.16,14.83,2.59,18.32,33.19,14.39,29.1-6.04Z"/>
    <path d="M346.56,1247.5c8.77,8.77,24.34.52,21.42-12.63-.21-.93-.52-1.68-.83-2.46,2.75,1.26,6.36,1.15,10.77-.44.47-4.87,3.07-7.43,2.41-13.38-7.5-5.76-12.17-3.27-18.91,2.33.08,2.24.46,4.09,1,5.72-10.05-5.44-27.79,8.92-15.86,20.85Z"/>
    <path d="M365.78,1165.68c-2.94-12.82-18.94-7.33-20.32,0-3.17,16.86,24.34,17.53,20.32,0Z"/>
    <path d="M362.49,1097.04c-.91-3.95-2.98-5.49-6.59-5.49-10.31,0-8.92,14.84.55,14.28,4.18-.25,7.42-2.81,6.04-8.79Z"/>
    <path d="M304.84,1654.95c-1.56-10.88-8.27-16.47-18.67-16.47s-19.5,8.41-19.22,19.77c.63,25.72,41.65,23.01,37.89-3.3Z"/>
    <path d="M304.29,1584.66c-3.31-19.68-34.67-21-36.79,1.1-1.2,12.56,9.28,22.32,21.42,20.87,10.14-1.22,17.2-11.1,15.37-21.97Z"/>
    <path d="M303.19,1514.37c-4.38-21.55-38.6-15.5-34.59,7.69,3.49,20.17,39.57,16.82,34.59-7.69Z"/>
    <path d="M302.09,1445.18c-1.42-8.89-6.8-13.29-14.83-13.73-9.56-.52-18.41,7.42-17.57,18.12,1.68,21.38,35.94,17.79,32.4-4.39Z"/>
    <path d="M300.44,1375.45c-2.16-11.77-16.08-16.42-24.71-8.24-5.49,5.21-5.98,15.69-.55,21.42,9.54,10.07,27.98,1.68,25.26-13.18Z"/>
    <path d="M298.79,1306.26c-2.64-15.94-26.34-12.45-25.81,2.75.6,17.17,28.94,16.19,25.81-2.75Z"/>
    <path d="M297.15,1241.46c.46-2.01.24-3.65-.55-6.59-3.21-11.93-19.56-7.88-21.41,0-4.15,17.61,19.57,16.96,21.96,6.59Z"/>
    <path d="M294.4,1167.88c-.44-4.33-2.87-6.96-4.94-7.69-16.09-5.63-14.76,21.63,0,16.47,2.63-.92,5.46-3.63,4.94-8.79Z"/>
    <path d="M290.56,1097.04c-4.06-11.33-16.44,7.64-3.84,6.59,2.99-.25,5.51-1.93,3.84-6.59Z"/>
    <path d="M232.35,1657.15c-.71-13.45-12.74-18.18-21.96-14.83-17.02,6.19-10.23,38.86,12.08,30.75,4.85-1.76,10.29-8.19,9.88-15.92Z"/>
    <path d="M231.81,1585.21c-1.4-7.97-6.09-12.69-14.28-13.18-7.96-.48-16.46,5.53-17.02,14.83-1.36,22.57,35.33,21.33,31.3-1.65Z"/>
    <path d="M231.81,1724.14c-2.34-12.22-18.23-16.91-26.91-8.24-15.22,15.22,9.63,37.88,23.61,22.51,1.97-2.17,4.46-8.22,3.3-14.28Z"/>
    <path d="M231.26,1794.43c-1.21-6.32-5.73-10.37-9.33-11.53-22.57-7.27-27.48,24.34-10.98,29.65,13.3,4.29,22.5-6.73,20.32-18.12Z"/>
    <path d="M230.71,1514.37c-3.78-16.74-26.86-11.42-29.1,0-4.68,23.83,34.66,24.61,29.1,0Z"/>
    <path d="M230.71,1864.71c-2.16-11.77-16.08-16.41-24.71-8.24-5.49,5.21-5.98,15.68-.55,21.41,9.54,10.07,27.98,1.68,25.26-13.18Z"/>
    <path d="M229.61,1444.09c-3.64-15.21-23.28-10.79-26.36-1.65-7.88,23.43,32.16,25.92,26.36,1.65Z"/>
    <path d="M229.61,1935.55c-1.87-14.63-19.13-14.06-24.9-5.66-.66-1.81,1.58-4.15,1.49-6.1-1.58,0-1.03,2.12-3.15,1.6-.25-2.81,3.96-3.1,1.57-5.61-2.51,1.77-1.03,2.51-3.93.84-.89,2.51-.39,2.09.76,3.98-3.69-1.47-3.3,6.84-3.17,9.39-2.34.79-1.38-1.75-1.55-3.15-1.82.74-2.21,4.87-.76,6.32-.76.86-1.48.22-3.98.76,1.65,0,6.69,3.34,6.3,7.89,2.98-1.43,3.24.49,6.34-.81-1.8-.49-1.64-1.63-.84-2.39,5.56,11.15,28.11,10.8,25.82-7.08Z"/>
    <path d="M228.51,1375.45c-1.57-7.89-5.56-10.14-12.63-9.88-15.8.57-15.53,25.86,1.1,25.26,9.38-.34,13-8,11.53-15.38Z"/>
    <path d="M227.96,2004.19c-1.36-5.57-5.29-8.25-9.34-8.79-12.16-1.61-15.47,7.75-14.27,14.83,2.38,14.12,27.95,11.7,23.61-6.04Z"/>
    <path d="M226.86,1305.71c-2.68-11.95-19.64-9.69-21.42,0-3.16,17.28,25.38,17.68,21.42,0Z"/>
    <path d="M206,2077.22c0,12.65,22.94,14.48,20.32-1.65-2.09-12.81-20.32-9.64-20.32,1.65Z"/>
    <path d="M224.67,1236.52c-.85-4.72-3.29-7.14-8.24-7.14-11.94,0-11.31,18.11.55,17.57,4.91-.22,8.94-3.49,7.69-10.43Z"/>
    <path d="M218.11,2154.4c4.21-1.07,5.85-5.63,4.37-10.38-.9-2.9-2.89-4.54-4.37-4.92-15.38-3.91-12.29,18.42,0,15.3Z"/>
    <path d="M221.37,1166.23c-1.07-2.73-2.76-3.14-3.84-3.29-10.08-1.45-7.88,13.62,1.1,10.98,3.01-.89,4.06-4.32,2.75-7.69Z"/>
    <path d="M219.75,2217.78c.21-.79.03-1.91-.55-3.28-.96-2.3-1.47-3.98-5.47-2.73-9.12,2.84,3.9,13.94,6.01,6.01Z"/>
    <path d="M159.32,1585.21c-2.81-14.13-24.33-13.57-25.81,1.1-1.88,18.63,29.84,19.2,25.81-1.1Z"/>
    <path d="M159.32,1654.4c-3.1-14.32-23.73-11.07-25.81,0-4.03,21.5,30.41,21.3,25.81,0Z"/>
    <path d="M159.32,1724.14c-3.07-13.81-23.48-11.99-25.81,0-4.13,21.32,30.64,21.74,25.81,0Z"/>
    <path d="M159.32,1797.17c-.41-6.39-3.75-10.14-7.14-11.53-17.95-7.4-24.55,18.57-10.98,24.16,8.88,3.66,18.79-2.19,18.12-12.63Z"/>
    <path d="M158.78,1516.57c-2.3-15.77-25.19-12.2-24.71,2.2.53,16.15,27.25,15.22,24.71-2.2Z"/>
    <path d="M158.23,1864.16c-1.36-5.57-5.29-8.25-9.33-8.79-12.17-1.61-15.47,7.75-14.28,14.83,2.38,14.12,27.95,11.7,23.61-6.04Z"/>
    <path d="M157.68,1445.18c-2.96-13.21-19.31-9.37-21.96-1.65-6.42,18.67,26.41,21.48,21.96,1.65Z"/>
    <path d="M157.68,1940.49c.47-2.01.24-3.65-.55-6.59-3.21-11.92-19.56-7.88-21.41,0-4.15,17.61,19.57,16.96,21.96,6.59Z"/>
    <path d="M156.58,1377.09c-1.67-13.87-20.75-9.75-20.32,1.65.5,13.09,22.03,12.64,20.32-1.65Z"/>
    <path d="M156.03,2006.39c-1.73-13-19.69-9.05-19.22,1.65.52,11.79,21.08,12.35,19.22-1.65Z"/>
    <path d="M154.38,1306.26c-1.08-4.34-3.82-5.78-6.59-6.04-14.14-1.32-11.3,18.22.55,16.47,4.13-.61,7.74-3.6,6.04-10.43Z"/>
    <path d="M153.83,2076.13c-.68-4.27-2.92-6.59-7.14-6.59-10.38,0-9.71,15.89.55,15.37,4.09-.21,7.48-3.15,6.59-8.79Z"/>
    <path d="M151.64,1235.97c-1.07-2.73-2.76-3.14-3.85-3.3-10.08-1.45-7.88,13.63,1.1,10.98,3.01-.89,4.06-4.32,2.75-7.69Z"/>
    <path d="M149.81,2145.11c-.96-2.3-1.47-3.98-5.46-2.73-9.12,2.84,3.9,13.94,6.01,6.01.21-.79.03-1.91-.55-3.28Z"/>
    <path d="M86.29,1586.31c-2.08-12.81-20.32-9.64-20.32,1.65,0,12.65,22.94,14.48,20.32-1.65Z"/>
    <path d="M86.29,1654.95c-2.94-12.82-18.94-7.33-20.32,0-3.17,16.86,24.34,17.53,20.32,0Z"/>
    <path d="M86.29,1724.69c-2.94-12.82-18.94-7.33-20.32,0-3.17,16.86,24.34,17.53,20.32,0Z"/>
    <path d="M85.74,1517.12c-1.73-13-19.69-9.05-19.22,1.65.52,11.79,21.08,12.35,19.22-1.65Z"/>
    <path d="M85.74,1794.43c-4.51-16.24-28.73-.05-16.47,10.98,7.41,6.67,19.41-.4,16.47-10.98Z"/>
    <path d="M85.2,1865.26c-2.95-12.62-19.51-6.07-18.12,3.84,1.56,11.09,21.27,9.65,18.12-3.84Z"/>
    <path d="M84.1,1445.73c-1.08-4.34-3.82-5.78-6.59-6.04-14.14-1.32-11.3,18.22.55,16.47,4.13-.61,7.74-3.6,6.04-10.43Z"/>
    <path d="M83.55,1934.45c-.91-2.92-2.9-4.56-4.39-4.94-15.46-3.93-12.34,18.51,0,15.37,4.24-1.07,5.88-5.66,4.39-10.43Z"/>
    <path d="M70.37,2072.28c2.24,4.53,4.72,8.83,8.24,12.08,12.05-3.68.4-21.59-8.24-12.08Z"/>
    <path d="M82.45,1375.99c-1.03-3.3-2.73-5.32-7.69-4.39-7.77,1.46-6.35,14.99,3.3,13.18,3.02-.57,6.17-3.04,4.39-8.79Z"/>
    <path d="M81.9,2005.29c-1.06-3.09-2.46-4.76-7.14-3.85-7.12,1.39-5.71,13.84,3.3,12.08,2.81-.55,5.72-2.79,3.84-8.24Z"/>
    <path d="M80.8,1310.1c.21-.79.02-1.92-.55-3.29-.97-2.31-1.48-4-5.49-2.75-9.16,2.86,3.91,14.01,6.04,6.04Z"/>
    <path d="M12.72,1586.31c-.93-3.68-2.7-4.94-6.04-4.94-9.57,0-8.2,13.18,0,13.18,4.42,0,7.49-2.51,6.04-8.24Z"/>
    <path d="M12.72,1655.5c-1.02-3.3-2.73-5.32-7.69-4.39-7.77,1.46-6.35,14.99,3.29,13.18,3.02-.57,6.18-3.04,4.39-8.79Z"/>
    <path d="M12.72,1725.24c-1.02-3.3-2.73-5.32-7.69-4.39-7.77,1.46-6.35,14.99,3.29,13.18,3.02-.57,6.18-3.04,4.39-8.79Z"/>
    <path d="M12.17,1795.52c-1.06-3.09-2.46-4.76-7.14-3.84-7.12,1.39-5.71,13.84,3.29,12.08,2.81-.55,5.72-2.79,3.84-8.24Z"/>
    <path d="M1.18,1933.9c.74,3.47,2.35,6.07,3.3,9.34,15.48,1.81,4.96-20.22-3.3-9.34Z"/>
    <path d="M11.62,1516.02c-1.07-2.73-2.76-3.14-3.84-3.29-10.08-1.45-7.88,13.63,1.1,10.98,3.01-.89,4.06-4.32,2.75-7.69Z"/>
    <path d="M11.07,1865.81c-4.06-11.33-16.44,7.63-3.84,6.59,2.99-.25,5.51-1.93,3.84-6.59Z"/>
    <path d="M11.07,1449.58c.21-.79.03-1.92-.55-3.29-.97-2.31-1.48-4-5.49-2.75-9.16,2.86,3.91,14.01,6.04,6.04Z"/>
    <path d="M471.34,72.02c2.83-1.04,5.39-2.4,9.74-1.76,1,4.07-2.78,2.97-2.39,6.37,3.07.51,11.07-.72,10.5,5.81,2.29,2.34,4.69-1.5,8.64-.71,5.55,11.57,34.72,17.97,27.15-2.88-.32-.11-.65-.23-.98-.42-5.08-2.82-2-12.01,4.36-9.44,1.29.52,2.16,1.28,2.7,2.14,3.77-5.16,6.82-11.24,4.46-15.83,1.19-.78,2.61-1.25,4.14-1.56,5.04,2.71,11.46,2.68,16.13-.88,3.17-.46,6-1.51,7.99-3.93-1.09-.71-2.28-1.33-3.51-1.92,1.8-4.2,1.57-8.64-.08-12.39-5.18,4.71-15.89.45-14.73-7.38.08-.51.23-1,.4-1.49-1.85.14-3.78.59-5.77,1.49-3.74,1.7-7.53,5.79-8.12,11.71-2.37-3-4.28-6.41-7.22-8.86,3.6-10.21-.86-19.12-7.75-23.8-.51.74-1.12,1.46-1.88,2.15-4.9,4.43-12.72,1.22-15.1-4.32-.76.33-1.51.7-2.23,1.17-2.75-.36,1.56-1.77.18-4.29-3-1.25-4.43-1.31-7.51-.31-.64,3.35.72,4.84,4.12,4.47-9.23,1.95-10.32,12.77-18.94,15.36,2.89,8.12-3.41,7.73-6.94,11.56-1.42,5.79,5.06,4.28,2.79,10.87-1.17,1.72-4.61.99-6.53,1.88.67,3.85,7.98,1.61,7.24,6.76.27,3.26-3.59,2.08-5.52,2.99.46,3.03,5.11,2.2,7.4,3.54-1.17,6.2-.95,7.72-2.72,13.88ZM476.3,50.12c-1.43-1.72-1.4-4.79-.11-7.08,1.23-2.2,3.62-3.68,6.99-2.54,7.25,2.45,4.28,10.17-.48,11.78-2.03.69-4.38.28-6.41-2.16Z"/>
    <path d="M391.3,29.96c-2.33,2.06,1.41,5.72-4.5,5.21-.71,15.42,12.22,24.69,27.16,19.39,16.24-16.59-9.87-35.77-22.66-24.6Z"/>
    <path d="M318.62,44.18c15.74,1.65,32.3-2.57,44.41-6.77-15.24-17.38-43.55-6-65.45-4.86-16.86.87-34.3-5.03-45.31,2.42,9.2,15.36,29.9,1.71,48.26,4.16,5.21.69,10.27,3.5,15.66,4.66-.37.77-.76,1.54-1.19,2.25,1.42-.18,2.55-.89,3.33-1.9.1.01.2.04.3.05Z"/>
    <path d="M421.98,68.89c3.44,1.58,10.78,2.47,12.94-.54,5.86-9.7-8.91-16.11-14.68-9.2-1.28,4.95,1.13,6.53,1.74,9.74Z"/>
    <path d="M415.57,67.54c-17.71-1.86-34.28,1.49-49.69,4.41,3.82,7.22,14.34.69,22.61-.14,9.73-.99,22.51,3.1,27.08-4.27Z"/>
    <path d="M129.31,94.45c6.29,8.3,12.36,16.85,20.54,23.45-4.21-10.25-10.77-18.34-20.54-23.45Z"/>
    <path d="M480.05,121.87c-2.48-.46-4.12,0-5.42.86-.03,3.18,6.28,3.13,5.42-.86Z"/>
    <path d="M489.41,129.8c-3.54-3.03-8.08,2.41-11.93,2.72,2.59,5.22,10.15.04,11.93-2.72Z"/>
    <path d="M366.93,124.73c-1.68-1.68-7.85-1.94-9.67-.4.29,2.11,9.62,4.67,9.67.4Z"/>
    <path d="M464.33,137.37c2.8-2.21,8.98-.74,9.89-4.98-3.37,1.58-9.4.27-9.89,4.98Z"/>
    <path d="M143.46,168.2c-1.19,3.84,4.16,1.67,6.36,2.41-.01-2.74-3.53-2.26-6.36-2.41Z"/>
    <path d="M187.03,181.84c-14.22,1.3-25.36-.76-34.69,6.1,10.5-4.42,28.94.75,34.69-6.1Z"/>
    <path d="M180.08,193.39c-.09,1.05-1.36.8-2.19,1,5.49,1.49,7.15,6.5,12.59,8.04-1.93-5.78-6.14-9.5-12.46-11.27.43.99.88,1.96,2.06,2.23Z"/>
    <path d="M168.63,210.14c-.09,3.24,8.64,3.69,7.57-.76-1.81-1.99-6.81-1.7-7.57.76Z"/>
    <path d="M347.5,230.45c.58-4.48-3.47-.91-5.31-1.31,4.55-5.81,17.68-2.29,19.75-10.84.53,2.39,1.47,3.94,2.93,5.2,9.7,8.4,24.61-5.42,14.9-15.54-6.24-6.5-19.55-2.28-18.14,8.74.07.53.18.96.27,1.42-8.91-2.71-14.68,5-23.8,5.49-1.43,3.16-.45,3.65.8,6.48-8.49,1.27-19.45-.19-23.9,5.48,10.57,2.35,23.14-2.47,32.5-5.13Z"/>
    <path d="M169.35,218.79c6.27.09,12.12-.35,16.25-2.56-2.05-3.53-14.83-1.84-16.25,2.56Z"/>
    <path d="M369.84,236.75c-1.44-.06-2.88-.12-4.31-.18-.07,1.8-.15,3.59-.22,5.39,3.37.27,3.79-2.61,4.53-5.21Z"/>
    <path d="M241.87,234.68c1.72,3.58,6.02,4.81,10.53,5.84-1.83-3.49-6.86-4.04-10.53-5.84Z"/>
    <path d="M584.43,252.09c-2.81-.42-4.64.21-4.44,3.04,2.8.44,4.64-.19,4.44-3.04Z"/>
    <path d="M378.83,253.27c.9,4.25,5.62-.51,6.58-2.95-4.1-1.13-3.92,2.44-6.58,2.95Z"/>
    <path d="M450.28,294.95c-2.23-7.65-15.89-4.06-11.98,3.82,4.09,2.78,11.95,1.46,11.98-3.82Z"/>
    <path d="M402.59,303.75c2.25-.53,3.55-2.11,5.5-2.99-1.07-2.5-6.75-.69-5.5,2.99Z"/>
    <path d="M157.97,337.76c1.82.45,2.07-.77,2.24-2.06-33.3,6.87-61.69,19.07-96.76,23.97,14.25,1.56,31.37-4.82,47.7-8.78,16.34-3.96,33.47-6.59,46.82-13.13Z"/>
    <path d="M200.51,350.26c-5.94.69-11.82,1.4-16.29,3.65,2.37,4.09,13.38-.91,16.29-3.65Z"/>
    <path d="M294.94,356.32c-3.77-2.25-3.95.25-7.57.76.01,2.76,1.81,3.85,3.02,5.51,3.43.01,4.82-2.24,4.55-6.27Z"/>
    <path d="M320.63,359.55c-2.12-2.33-5.44-.23-5.49,2.99,2.74,0,5.53.02,5.49-2.99Z"/>
    <path d="M508.45,371.62c-2.42-2.2-6.82,3.01-7.78,6.14,4.05-.47,4.85-4.44,7.78-6.14Z"/>
    <path d="M299.99,364.09c-1.2-.96-2.82-1.55-5.32-1.31-.26,3.84-4.17,3.71-4.6,7.35,5.04-.14,7.93-2.61,9.91-6.03Z"/>
    <path d="M277.31,366.37c.73,3.81,6.28,3.13,10.62,3.66-.42-4.13-7.85-1.74-10.62-3.66Z"/>
    <path d="M467.57,396.83c-10.29.77-15.14,7.48-19.94,14.24,7.85.9,18.21-4.8,19.94-14.24Z"/>
    <path d="M202.08,390.15c1.53,3.04,6.44.38,7.55-.77-1.64-3.12-5.84.29-7.55.77Z"/>
    <path d="M305.93,403.06c-6.52,1.8-4.62,5.84-6.95,11.55,4.47-1.53,5.15-7.14,6.95-11.55Z"/>
    <path d="M302.17,415.81c4.65.93,4.89-2.9,8.72-2.86-1.87-2.31-9-.88-8.72,2.86Z"/>
    <path d="M258.55,455.99c5.24-5.12,12.34-13.07,20.9-10.97,4.35-9.12,18.65-7.45,22.24-17.41,9.11,4.18,14.54-2.02,16.5-8.96-30.91,4.93-46.93,26.09-72.55,36.8-.11,4.5,12.07-1.42,12.91.53Z"/>
    <path d="M161.57,432.6c10.18-6.16,24.09-8.28,32.93-15.85-14.05,1.91-24.42,7.86-32.93,15.85Z"/>
    <path d="M209.48,419.51c-15.95,2.51-25.5,11.97-40.46,15.55,5.73,4.48,13.62-3.08,20.65-5.6,7.31-2.61,17.47-2.5,19.8-9.95Z"/>
    <path d="M251.15,426.62c-3.82-.03-8.64-1.14-8.74,2.87,3.83.04,8.64,1.13,8.74-2.87Z"/>
    <path d="M414.92,447.38c1.27-14.57-18.33-7.99-15.12,1.52,4.16,3.67,12.87,2.96,15.12-1.52Z"/>
    <path d="M238.98,460.56c-6.17-2.31-15.11,1.32-16.46,7.93,6.67,2.83,13.65-2.94,16.46-7.93Z"/>
    <path d="M243.16,463.93c-4.06,1.99-5.78,6.49-7.98,10.44,4.66-1.3,5.93-6.28,7.98-10.44Z"/>
    <path d="M212.9,492.82c8.51-.47,14.96-3.2,19.67-7.78-3.74-4.88-15.77,2.54-19.67,7.78Z"/>
    <path d="M141.32,480.19c-6.51-1.28-15.73,3.72-17.68,11.1,5.81,4.84,21.01-2.51,17.68-11.1Z"/>
    <path d="M325.97,516.88c1.03-4.1-4.97-4.35-4.3-.18,1.43.06,2.85.12,4.3.18Z"/>
    <path d="M329.44,537.47c-1.98,2.36-6.62,1.81-7.76,5.06.09,7.24,7.45,12.45,1.35,19.42,2.69,3.39,5.25,6.89,5.97,12.09,3.26.08,9.68-2.84,10.69,1.53,6.66-2.46,18.57-12.01,10.66-23.26,18.01-16.66-16.78-37.4-20.9-14.84Z"/>
    <path d="M313.52,531.43c2.83.44,3.59-1.34,3.42-4.17-1.45-.06-2.88-.12-4.31-.18-.54,2.23.62,2.88.89,4.34Z"/>
    <path d="M533.56,544.83c.04-1.08.09-2.17.13-3.24-1.98-2.15-6.54-1.39-5.5,3.02,1.81.07,3.57.15,5.36.22Z"/>
    <path d="M477.89,545.23c1.24-.77,2.45-1.75,3.46-3.55-1.08.39-2.65,1.08-4.41,1.91-1.2-1.3-3.21-1.85-5.71-.25-.11,1.11-.17,2.17-.15,3.15-4.19,2.17-8.14,4.38-9.22,5.27-.3.24-.54.65-.63,1.03-.09.37-.08.89.12,1.16.2.27.7.42,1.08.43.38,0,.9-.1,1.14-.35,2.22-2.41,5.03-3.86,7.86-5.27.15.4.33.78.6,1.08,5.22,1.23,6.69-2,5.86-4.59Z"/>
    <path d="M436.8,542.99c-2.8-.43-4.64.19-4.43,3.05,2.79.42,5.36.6,4.43-3.05Z"/>
    <path d="M502.29,546.76c-3.22-.1-6.56-.38-6.6,2.96,3.27.17,7.05.9,6.6-2.96Z"/>
    <path d="M218.83,557.64c-2.24-1.38-5.81-1.54-6.26-4.55.12-6.95,7.59-5.96,9.05-11.46-11.12,1.01-17.38,7.31-23.16,14.11,5.07.63,5.8-3.44,10.86-2.78-2.52,2.84-3.03,7.92-5.79,10.54,3.69,2.96,2.53,5.6,1.74,9.74,11.08-.4,11.91-6.43,13.57-15.6Z"/>
    <path d="M124.15,556.96c-21.78-8.32-23.73,20.47-8.45,22.25,10.53,1.27,21.65-14.57,8.45-22.25Z"/>
    <path d="M449.3,579.01c3.49.44,5.23-1.04,5.55-4.06-3.48-.42-5.22,1.08-5.55,4.06Z"/>
    <path d="M315.74,582.11c4.53-1.8,9.98-2.61,10.06-9.27-1.83,4.78-9.03,3.66-10.06,9.27Z"/>
    <path d="M365.32,579.86c-1.91.17-5.33-1.3-4.37,1.98-11.27-18.38-34.04,9.98-12.48,15.61,10.15-.93,12.08-10.81,16.86-17.6Z"/>
    <path d="M160.96,577.85c6.37-1.27,9.65-5.94,15.38-7.97-4.97-1.61-12.36,3.76-15.38,7.97Z"/>
    <path d="M239.46,578.96c-3.58,1.35-7.35,2.49-8.86,6.09,2.76-2.26,8.32-1.45,8.86-6.09Z"/>
    <path d="M315.3,592.86c4.1-.03,7.11-1.26,7.74-5.07-3.17-2.61-6.81,1.75-7.74,5.07Z"/>
    <path d="M322.86,617.91c2.43,1.56,5.11,2.9,4,7.71,5.61,1.45,11.9,1.86,13.59,9.16,4.94,1.25,6.55-1.12,9.77-1.75,3.28-13.49-.02-42.79-20.21-32.05-6.24,3.34-5.66,11.25-7.16,16.92Z"/>
    <path d="M230.59,610.87c-11.71-20.09-43.92-11.48-43.49,11.11.55,28.65,52.91,23.73,43.49-11.11Z"/>
    <path d="M400.38,616.83c-3.98-.05-2.76,1.45-2.31,4.19,3.96.04,2.75-1.46,2.31-4.19Z"/>
    <path d="M491.26,631.33c3.5.08,5.84-1.12,6.61-4.03-3.4.06-6.44.5-6.61,4.03Z"/>
    <path d="M115.35,613.65c-1.53-4.69-9.65-2.04-8.72,2.86,4.57.85,6.94-.66,8.72-2.86Z"/>
    <path d="M350.84,643.84c.07,13.64,23.01,1.95,9.92-6.06-5.59-3.82-9.93,3.56-9.92,6.06Z"/>
    <path d="M105.12,653.04c2.95,2.4,8.09-2.38,9.88-4.99-5.66-.94-6.13,3.82-9.88,4.99Z"/>
    <path d="M328.11,673.03c3.06-.06,4.55-1.8,7.61-1.84,6.23-14.02-19.27-7.65-7.61,1.84Z"/>
    <path d="M477.62,674.9c.06-1.45.12-2.87.18-4.3-.74-.03-1.43-.06-2.15-.09-5.42,3.65-10.68,7.49-15.32,11.99-.35-.17-.75-.16-1.07.07-4.86,3.55-9.55,7.3-13.35,12.03-.37.46-.64,1.1,0,1.53.24.16.86.03,1.12-.19,2.07-1.72,4.1-3.5,6.14-5.26.02.02.04.05.06.07-1.69,2.38-3.25,4.91-4.57,7.69-3.12,2.62-7.06,4.37-10.73,6.4,1.24-1.54,2.33-3.18,3.17-5-5.71,3.37-10.28,7.81-14.83,12.28-.89.87-1.81,1.71-2.78,2.48-5.85,4.66-10.11,10.95-16.06,15.51-.97.75-.95,2.2-.2,2.66.83.51,1.58.25,2.29-.21.34-.22.64-.52.93-.81,5.95-5.91,11.88-11.83,17.97-17.59-.37.87-.75,1.74-.97,2.77,9.91,1.64,12.5-8.43,17.77-13.26,10.39-9.49,26.9-14.63,32.4-28.78Z"/>
    <path d="M376.78,667.51c-24.69,18.43,24.05,37.52,14.89,3.84-3.01-1.36-5.74-3-9.53-3.64,5.1-.02,10.55-4.72,9.1-11.29-2.23-10.07-19.64-6.62-16.41,5.29.92,3.4,3.04,5.2,5.46,5.78-1.08-.08-2.22-.1-3.5.01Z"/>
    <path d="M284.67,760.53c6.44-.49,11.41-2.57,13.26-8.06,12.98-15.07,31.87-23.74,43.62-40.14,2.79,1.1,5.65,5.61,9.58,2.55,1.27,1.89-.94,6.93,3.99,7.69,3.14-2.46-1.21-6.56,1.42-8.56,4.6-.78,5.33,1.99,6.27,4.57,1.59-5.94,2.93-9.26,9.13-12.54-.36-12.19-.82-22.22-10.62-29.51-.59,2.32-13.34,2.46-10.56-4.72-4.91-.25-.22,3.76-1.34,6.4-3.61.79-5.66,3.27-8.69,1.79-.21,1.94,1.25,2.33.89,4.34-3.33.68-1.94-3.02-5.26-2.38,5.07,6.46-5.28,16.97-3.15,23.56-6.65,3.4-11.65,8.59-16.01,14.48-.95-.23-2.04-.27-3.28-.04-2.92.55-5.95,2.93-4.24,8.47.2.65.45,1.24.72,1.77-7.06,11.39-13.74,23.19-25.7,29.27-12.03-1.41-10.16,8.56-18.64,8.92,2.46,4.06-4.97,5.35-3.71,11.68.94.51,1.87,1.03,2.05,2.25,11.53-3,20.07-12.61,20.26-21.78Z"/>
    <path d="M477,689.94c.98-4-1-5.28-4.09-5.56-.06,3.17.16,6.09,4.09,5.56Z"/>
    <path d="M279.45,678.54c-13.41.01-17.45,10.22-27.46,13.93,2.6,5.95,24.51-7.35,27.46-13.93Z"/>
    <path d="M302.61,691.33c-8.33,1.79-12.45,8.17-18.81,12.14,6.42.58,15.67-5.42,18.81-12.14Z"/>
    <path d="M253.85,699c-4.34-.71-7.25,10.67-1.51,10.7.55-5.18,2.93-5.85,1.51-10.7Z"/>
    <path d="M238.84,724.21c2.8.43,3.58-1.33,3.39-4.16-2.9-.04-5.25,2.23-3.39,4.16Z"/>
    <path d="M159.2,749.99c-5.69-.62-6.59,4.02-10.96,4.9,2,4.3,9.96-1.01,10.96-4.9Z"/>
    <path d="M160.96,759.73c-11.05,4.83-21.1,10.74-28.77,19.24,12.47,1.92,25.15-11.51,28.77-19.24Z"/>
    <path d="M266.26,217.4c-2.37,1.92,3.18,5.28,6.21,5.65.84-4.54-4.39-3.53-6.21-5.65Z"/>
    <path d="M332.67,510.7c3.39.68,4.26,3.65,5.12,6.67,8.63.67,17.32,1.93,18.7-9.98,2,2.29,3.14,5.37,7.3,5.65-2.97-1.71-2.44-6.69-3.9-9.82-.39-3.44,5.34-.19,4.48-4.14-1.08-.04-2.15-.09-3.22-.13.09-2.14.18-4.29.27-6.44,8.73,2.17,16.28-.97,15.4-7.89.84-.49,1.6-1.09,2.04-1.84.77-1.33.73-2.97-.07-3.96,3.88-3.41,8.24-7.38,13.53-5.47-.63-2.71-.89-4.47,1.35-6.39-14.35-2.12-25.35,9.13-35.1,15.76-3.75-3.09-9.04-2.96-14.82-5.98.62-3.45,1.91-6.18,6.66-5.12,1.46.38.79,2.72.91,4.34,6.6-2.99,8.15.43,15.08-.44,2.25-2.83,3.91-6.27,5.78-9.45-4.34-.16-5.28-3.41-5.07-7.76,3.83-.43,2.49,3.91,6.31,3.5-3.28-2.27-2.69-4.89-1.2-7.32,3.31-.14,6.56-2.43,6.56-6.56,0-1.15-.29-2.13-.76-2.98.93-.32,1.89-.6,2.63-1.14.15-1.36-1.2-1.35-2.64-1.23,2.35-1.41,4.61-3.03,6.81-4.78,1.49-1.18,2.49-2.79,3.18-4.57.71-1.85.92-3.95-.41-5.36-.83-.88-1.52-1.84-2.15-2.82.2-.43.33-.92.35-1.47-.4.06-.77.07-1.16.12-1.1-1.93-2.04-3.95-3.11-5.91-.38-.69-.87-1.32-1.4-1.93,1.02-.08,2.1-.21,2.74.07.56-2.21-.61-2.89-.87-4.34-1.77.18-2.19,1.81-3.37,2.61-.08-.09-.16-.18-.24-.26-1.41-1.59-3.07-2.19-4.94-.82-1.01.74-1.89.91-2.69.69,4.03-2.57,7.82-5.31,11.37-5.44,1.5-7.29,3.8-22.51,15.95-21.93-5.34,2.08,6.07,7.25,5.36.22-4.59-1.62-7.87-4.47-12.66-5.9,1.58-5.95-2-7.12-3.89-9.86,3.92-4.67,2.92-11.01,7.14-16.94-2.13-6.8-5.62-19.27-13.01-26.55-.83-1.58-2.13-2.8-3.68-3.65.78-.73,2.59-.34,3.97-.45.34-4.87,7.12-8.69,3.8-13.82,2.78-3.98,14.05-3.82,9.13-12.55-7.17-1.05-7.81,4.98-10.07,9.27-1.75-2.86-4.38-4.93-7.27-6.75,2.03-3.79,5.43-6.06,7.93-9.36.09-4.22-.18-8.1-1.71-10.82,1.71-1.55,4.79-1.56,7.62-1.86-2.09.53-5.23-.58-8.74-1.78.76-4.44-.91-9.32-5.04-11.39.12-.1.25-.19.34-.29-.71-3.11-2.11-1.67-4.01-.77-3.33-.42-6.09.57-8.09,2.37-3.74.08-7.82.45-7.21-3.48-12.79,9.1-16.85-10.41-22.97-17.1-10.02.76-21.64.1-27.73-5.44-2.2,1-4.67,1.64-5.56,4.06-3.71-1.41-5.62-4.46-10.56-4.73-.06,1.42-.12,2.86-.18,4.28-6.5.46-5.35-6.08-11.58-5.86-.02,2.78,4.13,1.72,4.1,4.49-1.8,3.66-4.11,6.73-9.93,6.02,1.23,5.4.71,17.77-4.06,20.29.87,1.93,2.45,3.23,2.99,5.5-.4,1.46-2.73.78-4.35.91,3.12,3.74,2.78,8.56,4.92,10.95-2.4,2.99-6.88,3.73-10.96,4.92-1.38-.19-7.75-.47-4.34.9,4.47.36,8.95.75,10.84-1.69,2.59-.32,2.25,2.06,5.33,1.28.59,5.16-1.83,7.02-4.67,8.42,16.92,1.91,8.05,24.66-5.98,14.82-2.7,1.93-5.1,4.21-4.71,9.51,6.48,4.03,9.38,11.35,16.63,14.66-1.88.96-3.52,3.43-.18,4.31-2.24,1.68-4.17,3.73-7.72,3.98,2.94,2.75,8.31-1.41,8.82-5.03,5.48,9.71,17.77,10.23,30.75,10.98-.74,2.54-1.74,4.82-1.42,8.52,4.16-5.89,13.57-3.62,21.65-3.4,3.12,4.77,6.66,16.19,7.93,16.46,5.91,1.34-7.35,7.28-14.15,3.75-1.87,2.03.04,1.35-.18,4.28-4.27.99-13.13-3.03-14.04,1.57,10.62,1.54,19.14,2.48,26.9.05.07,2.7-2.51,2.5-3.41,4.15,6.3,1.09,2.93,11.1,10.3,11.18.23,3.97.83,6.5-.44,10.75,2.9.9,2.25-2.06,4.37-1.98.77,3.07-1.61,2.73-1.27,5.34,3.99,1.72,2.16-2.88,5.44-1.92,2.73,1.97-2.47,4.71-3.5,6.3-6.72-6.13-9.96,8.82-18.61,7.85,5.74,5.37-11.4,7.59-2.69,12.8-7.4,4.55,2.25,12.5-2.89,18.16,4.31,2.56,7.3,6.37,11.47,9.1-1.74,2.44.16,4.64-1.31,5.32,2.78,3.13,5.04-1.44,9.69.4,1.53.95,1.4,3.53,1.9,5.47-.71,3.69-7.07,1.27-10.81,1.68-3.71,6.7-6.97,8.95-9.14,12.54,4.52,3.82.38,8.6-2.59,10.67,7.26.54,5.98,5.45,8.11,12.17,3.42,1.07,2.34-2.69,4.42-3.05Z"/>
    <path d="M194.93,537.28c-3.46,8.5-.05-2.58,6.62-4.03.09-2.15.18-4.32.27-6.45,1.49-3.22,4.15-5.21,4.68-9.49-3.73,4.75-9.78,15.48-11.58,19.97Z"/>
    <path d="M441.92,361.82c2.05-.33,4.11-.66,6.16-.99-1.09-1.19-2.18-2.38-3.26-3.57-.97,1.52-1.93,3.04-2.9,4.56Z"/>
    <path d="M579.78,304.11c-7.68-2.25-9.65-1.47-11.56,4.98,3.61-2.09,8.56-.98,11.56-4.98Z"/>
    <path d="M552.52,248.26c2.06-4.34.64-7.13-1.93-9.97-4.47,6.03-4.4,6.43,1.93,9.97Z"/>
    <path d="M516.09,285.56c-.28-3.77-.49-6.74-.76-10.34-5.46,3.96-5.3,5.73.76,10.34Z"/>
    <path d="M367.26,116.21c-3.66-.88-5.33.65-6.46,4.59,4.55.91,6.38-.44,6.46-4.59Z"/>
    <path d="M537.8,294.01c.05-.39-.9-.91-1.4-1.37-.57.65-1.32,1.22-1.62,1.98-.12.28.79.98,1.64,1.97.63-1.11,1.28-1.81,1.37-2.58Z"/>
    <path d="M337.84,128.05c-.56.28-.98.82-1.46,1.25.36.25.81.78,1.06.69.6-.2,1.09-.69,1.72-1.12-.61-.4-1.13-.92-1.32-.82Z"/>
    <path d="M250.41,842.1c.16-.19.04-.84-.17-1.04-.22-.22-.83-.34-1.07-.19-1.37.88-2.76,1.77-4,2.83-2.51,2.15-5.17,4.06-8.19,5.42.82.95,1.63,1.89,2.45,2.84,2.82-2.39,5.67-4.75,8.46-7.18.92-.8,1.74-1.73,2.52-2.68Z"/>
    <path d="M456.36,359.56c-.31-.52-.83-.92-1.31-1.31-1.74-1.4-4.11-.58-4.09,1.65.05,5.16.32,10.32.81,15.45.2,2.03,2.27,3.27,4.19,2.83,3.43-.8,6.82-1.79,10.21-2.77.58-.17,1.07-.61,1.8-1.05,1.46-2.03,3.18-4.13,4.57-6.43,2.1-3.46-.3-7.44-4.38-7.29-1.42.05-2.87.47-4.22.97-3.07,1.14-5.7,1.08-7.58-2.06Z"/>
    <path d="M497.16,136.54c4.38.81,8.57.84,12.05-2.77,2.68-2.78,3.22-6.12,3.21-9.69,0-2.26-.96-4.01-3.17-4.82-2.26-.82-4.45-.81-6.58,1.2-1.66,1.95-3.74,4-5.34,6.38-1.12,1.66-1.74,3.73-2.27,5.69-.47,1.73.64,3.73,2.1,4Z"/>
    <path d="M493.4,613.21c1.67-1.52,3.64-2.75,5.57-3.95,2.81-1.75,5.36-3.79,7.1-6.92-1.01.63-2.02,1.26-3.02,1.89l.02-1.5-2.15,1.79.93.45c-5.72,3.62-11.43,7.26-17.2,10.79,1.52-1.91,2.98-3.89,4.28-6.04-3.62,3.15-7.86,7.02-11.72,10.94-8.29,5.77-16.13,12.21-25.29,16.68-1.67.81-3.13,2.05-4.19,3.64-.49.74-.56,1.65.09,2.26.37.34,1.28.55,1.68.33,1.82-.97,3.73-1.9,5.26-3.25,4.27-3.74,9.13-6.61,13.9-9.6-.4.6-.82,1.21-1.14,1.77,1.54-1.35,3.09-2.71,4.63-4.07.87-.58,1.76-1.14,2.61-1.75,6.21-4.48,12.9-8.28,18.61-13.48Z"/>
    <path d="M194.13,286.55c.55-2.25-2.2-2.54-3.78-3.28-1.11-.52-2.36-.91-3.57-1.01-4.12-.34-8.26-.77-12.39-.7-2.74.05-5.34-.02-7.9-1.08-2.33-.96-4.8-1.3-7.31-1.18-1.05.05-2.04.34-2.71,1.16-1.22,1.23-.72,3.53.92,4.22,2.55,1.08,5.32,1.24,7.94.85,3.39-.51,6.5.22,9.76.87,4.65.92,9.4,1.39,14.13,1.74,1.72.13,4.43.38,4.91-1.6Z"/>
    <path d="M274.07,587.7c10.07-3.43,19.19-8.98,28.53-12.37,1.06-.75,1.61-1.15,1.24-1.82-.15-.26-.71-.4-1.08-.39-.62.01-1.26.09-1.84.3-3.12,1.12-6.16,2.55-9.35,3.4-6.68,1.78-12.78,4.92-19,7.73-3.61,1.63-7,3.61-11.08,3.85-1.28.07-2.44.68-3.09,1.84-.27.48-.4,1.25-.2,1.73.19.47.85.98,1.36,1.06,1.96.29,3.61-.74,5.32-1.46,3.06-1.3,6.04-2.8,9.18-3.87Z"/>
    <path d="M479.92,652.72c5.13-4.79,10.27-9.58,15.36-14.41,1.62-1.54,3.11-3.21,4.95-5.12-.91.15-1.34.12-1.66.3-8.27,4.52-14.95,11.07-21.93,17.24-.31.27-.57.6-.82.93-.64.85-1.29,1.88-.57,2.8.77.98,1.87.49,2.75-.15.67-.49,1.31-1.02,1.91-1.58Z"/>
    <path d="M441.99,416.69c-1.33,1.78-.38,4.35,1.79,4.94,4.21,1.14,9.14-2.83,8.83-7.1-.11-1.51-1.44-2.66-2.93-2.58-2.42.14-4.25,1.44-6.42,3.34-.17.19-.79.75-1.28,1.41Z"/>
    <path d="M423.38,647.55c-.18.3-.23.81-.11,1.14.28.79,1.02.72,1.53.4,2.97-1.86,5.89-3.78,8.68-5.59,1.12-1.21,2.13-2.23,3.05-3.33.16-.19.05-.84-.16-1.06-.21-.22-.83-.36-1.05-.21-3.6,2.4-7.17,4.84-10.72,7.3-.49.34-.91.85-1.22,1.36Z"/>
    <path d="M306.65,616.87c2.95-1.03,5.83-2.22,8.39-4.05.51-.36.81-1.1.37-1.62-.35-.4-1.03-.7-1.58-.72-2.9-.12-5.1,1.57-7.58,3.15-.26.3-.74.72-1.03,1.25-.17.31-.18.83-.05,1.17.24.63.87,1.03,1.48.82Z"/>
    <path d="M603.63,948.15c-1.71,3.97-3.39,7.96-5.04,11.96-.15.37-.18.81-.18,1.22,0,.65.25,1.23.91,1.4.66.17,1.28-.18,1.53-.77,1.88-4.57,3.46-9.23,4.5-15.03-1.11.78-1.58.93-1.71,1.23Z"/>
    <path d="M270.43,825.18c.06-.12-.15-.36-.42-.94-3.52,2.66-6.87,5.37-9.91,8.45-.2.2-.25.85-.09,1.04.21.23.82.39,1.07.25,3.87-2.13,7.33-4.71,9.34-8.81Z"/>
    <path d="M544.15,842.15c1.03-1.08,1.57-2.42,1.62-3.92,0-.18-.12-.49-.24-.52-.35-.08-.72-.05-1.1-.07-1.06,1.02-1.9,2.2-1.96,3.73-.01.34.27.87.56,1,.28.13.89,0,1.11-.23Z"/>
    <path d="M163.49,680.1c-.26-.27-.5-.75-.79-.78-1.78-.23-3.25.95-3.23,2.6,0,.29.42.79.7.83,1.58.22,3.27-1.18,3.32-2.64Z"/>
    <path d="M575.44,502.69c.48.47,1.07.36,1.66.06,1.12-.81,1.6-2.07,1.03-3.07-.32-.56-.98-.73-1.55-.41-1.46.82-2.03,2.57-1.14,3.42Z"/>
    <path d="M496.3,699.15c-.63-.65-1.37-.78-2.13-.3-.89.56-1.04,1.9-.31,2.59.48.46,1.07.5,1.66.21,1.02-.52,1.37-1.69.78-2.5Z"/>
    <path d="M316.27,674.77c.84.45,1.62.2,2.24-.43.65-.65.82-1.41.24-2.22-.76-.64-1.56-.51-2.28.02-.97.72-1.06,2.17-.2,2.63Z"/>
    <path d="M384.72,405.86c.26.17.86.13,1.09-.07.52-.46.46-1.04-.09-1.52-.37.02-.88-.1-1.11.1-.52.46-.49,1.11.11,1.49Z"/>
    <path d="M565.35,468.63c.13.7.74.87,1.36.79.66-.09,1.03-.5.97-1.2-.25-.64-.76-.9-1.39-.82-.66.09-1.06.55-.94,1.22Z"/>
    <path d="M529.91,638.94c.13.21.73.3,1.01.18.6-.24.83-.77.55-1.43-.34-.06-.75-.26-1.02-.15-.58.25-.93.78-.54,1.39Z"/>
    <path d="M275.59,614.52c-.33-.06-.71.2-1.07.31.07.35.02.86.24,1.02.26.19.8.21,1.1.07.57-.27.38-1.28-.27-1.4Z"/>
    <path d="M472.76,858.6c.11-.37.21-.71.33-1.1l.1-.07c-.02-.14-.04-.28-.05-.42-.26.33-.51.66-.77.99.13.2.26.4.39.6Z"/>
    <path d="M427.57,847.07c4.36-6.34,8.19-11.52,11.6-16.98,3.76-6,2.61-11.8-2.46-13.27-5.47-1.59-7.36,2.06-9.24,6.34-1.17,2.65-3.66,4.72-5.32,6.75q-25.2-7.33-34.41,8.48c9.78,0,16.39-1.08,22.43.31,5.85,1.34,11.11,5.22,17.4,8.37Z"/>
    <path d="M496.51,743.47c-.49-9.46-1.82-18.94-10.94-24.62-2.02,5.61-4.02,11.13-5.21,14.43-6.64,3.61-13.87,5.18-14.83,8.53-2.29,8.01,4.27,7.44,9.96,6.74,1.75-.21,4.53.74,5.44,2.1,3.21,4.78,6.67,9.65,12.3,4.25,2.51-2.41,3.48-7.6,3.27-11.44Z"/>
    <path d="M490.05,976.62c-5.18.99-8.51,1.62-11.6,2.21-.41-6.36-.43-11.63-1.33-16.75-.18-1.06-3.69-2.24-5.55-2.08-1.73.15-4.65,1.9-4.76,3.14-.96,11.67,1.22,22.72,9.56,38.87,6.3-11.7,9.72-18.04,13.68-25.39Z"/>
    <path d="M507.7,1035.33c4.97-4.51,13.71-5.56,11.65-16.18-5.21-7.9-12.87-11.17-22.1-11.44l-.12-.26c1.6,7.4,3,14.85,4.96,22.15.47,1.74,2.82,2.98,5.6,5.74Z"/>
    <path d="M491.91,1044.75c-1.93-6.4-6.92-11.88-12.45-20.82-3.39,6.84-4.42,7.91-4.26,8.74,1.56,8.08,3.31,16.13,5.23,25.22,8.07-1.98,13.79-5.47,11.47-13.15Z"/>
    <path d="M427.01,774.09c1.5.42,4.87-1.02,5.27-2.27,2.65-8.24-1.57-14.01-10.4-18.25.12,7.25-7.95,16.84,5.13,20.52Z"/>
    <path d="M488.28,882.25c-5.89-8.98-10.72-16.33-15.51-23.65-4.05,13.5-3.56,13.8,15.51,23.65Z"/>
    <path d="M399.15,872.23c-.27-3.32-1.31-6.58-2.48-11.49-.95.51-1.79.96-2.57,1.39.41-2.78-.48-5.83-3.39-8.74-6.98-6.98-20.05-1.08-18.53,9.53,1.61,11.22,11.48,11.03,17.44,6.34,1.47,1.74,2.98,3.45,4.71,4.87.7.57,4.87-1.34,4.82-1.89Z"/>
    <path d="M610.06,1001.89c.22.22,4.32-2.26,4.18-3.08-.41-2.49-2.02-4.78-3.25-7.33-2.68,1.79-4.28,2.86-5.89,3.94,1.59,2.22,3.05,4.57,4.95,6.47Z"/>
    <path d="M560.67,1050.83c2-7.51,3.57-13.41,5.13-19.25-3.09,4.16-6.17,8.2-8.75,12.52-.46.77,1.55,3.01,3.62,6.73Z"/>
    <path d="M565.8,1031.58c.21-.28.41-.56.63-.85.12-.06-.18.07-.35.15l.51-.22c-.19,0-.37-.02-.56-.03-.02.1-.04.2-.06.3-.06.22-.12.44-.17.65Z"/>
    <path d="M535.07,978.53s-.06.05-.1.07c.04-.09.09-.18.09-.25.24-.63.48-1.21.73-1.81-.29.7-.58,1.4-.88,2.1-.09.07-.18.14-.27.2.06.01.11.03.17.05l.26-.36Z"/>
    <path d="M523.09,952.8c-.55.79-.64,1.89-.91,2.87,1.17.15,2.33.3,3.5.44-.11-1.01-.22-2.03-.33-3.04-.78-.11-2.06-.56-2.26-.27Z"/>
    <path d="M433.51,596.39c-1.08-1.03-3.77-.37-5.75-.45.26,1.98-.11,4.53.99,5.77.86.97,3.54.33,5.42.4-.15-1.98.4-4.7-.66-5.72Z"/>
    <path d="M376.71,894.53c.01-1.81-.51-3.63-.83-5.44-1.78.64-3.56,1.28-5.34,1.94,1.18,1.63,2.26,3.34,3.63,4.77.22.23,2.54-.8,2.54-1.26Z"/>
    <path d="M471.82,644.96c-1.2-1.4-2.41-2.79-3.62-4.19-1.4,1.17-3.56,2.14-3.97,3.59-.38,1.37,1.08,3.26,1.73,4.92,1.95-1.44,3.91-2.88,5.86-4.32Z"/>
    <path d="M486.18,704.06c-.94-1.37-3.54-2.75-4.9-2.37-1.51.42-3.52,2.85-3.49,4.38.1,5.37,1.45,10.37,7.62,11.9,4.04-4.34,4.04-9.14.77-13.9Z"/>
    <path d="M485.41,717.96c-.14.16-.25.31-.41.47h-.01c.22.13.37.28.58.41.09-.25.18-.5.27-.75-.16-.03-.28-.1-.43-.13Z"/>
    <path d="M464.81,937.33c-.54.88-1.74,2.05-1.51,2.59.65,1.5,1.91,2.73,2.92,4.07.5-.89,1.01-1.77,1.52-2.66-.98-1.33-1.96-2.66-2.94-4Z"/>
    <polygon points="435.28 918.28 435.08 920.64 437.55 919.39 435.28 918.28"/>
    <polygon points="394.9 669.24 392.67 671.04 394.85 672.17 394.9 669.24"/>
    <polygon points="542.19 951.16 541.34 952.82 543.51 952.85 542.19 951.16"/>
    <path d="M497.26,1007.67c1.06-1.48,2.13-2.93,3.19-4.38-1.1,1.38-2.2,2.76-3.3,4.14,0,0,.12.26.12.23Z"/>
    <polygon points="600.19 419.04 599.56 420.81 601.58 420.53 600.19 419.04"/>
    <path d="M539.47,537.8c-2.69-.82-4.8-.08-4.97,1.48-.26,2.53,1.8,3.41,3.54,3.98,3.16,1.05,6.45,1.71,9.71,2.44,1.85.42,3.74.65,7.63,1.31-4.03-2.9-6.38-4.87-8.99-6.39-2.14-1.24-4.54-2.1-6.92-2.83Z"/>
    <path d="M507.96,967.55c-6.35,2.31-12.35,4.87-16.44,10.27-.16.22.31.92.49,1.39.52.07,1.22.39,1.52.17,4.02-2.95,8.02-5.94,11.95-9.02.97-.76,1.66-1.86,2.48-2.8Z"/>
    <path d="M537.06,944.39c-4.21,1.69-8.54,3.37-10.62,9.09,5.42-1.87,7.36-6.26,10.62-9.09Z"/>
    <path d="M457.78,479.99c0,.44,0,.87-.02,1.55.75-.08,1.46-.15,2.18-.22-.04-.26-.01-.69-.13-.74-.65-.25-1.35-.41-2.03-.59Z"/>
    <path d="M245.62,920.63c-.06,5.53-.1,11.04.53,15.89,12.64,2.08,12.35-18.47-.53-15.89Z"/>
    <path d="M247.21,852.86c-.23,5.77-.71,11.29-1.06,16.94,12.52,1.75,12.97-17.66,1.06-16.94Z"/>
    <path d="M250.39,992.11c1.15,1.84.28,5.72,1.59,7.41,1.77-2.08,1.05-8.6-1.59-7.41Z"/>
    <path d="M308.1,930.69c1.04,4.18,3.68,5.58,6.35,5.82,13.64,1.27,10.9-17.57-.53-15.89-3.99.59-7.46,3.47-5.82,10.06Z"/>
    <path d="M308.1,862.92c.86,4.26,3.17,6.36,7.41,6.36,11.02,0,10.04-16.44-.53-15.89-4.57.24-8.14,3.27-6.88,9.53Z"/>
    <path d="M312.87,988.41c-4.08,1.04-5.67,5.45-4.24,10.06.87,2.81,2.79,4.4,4.24,4.77,14.91,3.79,11.9-17.85,0-14.83Z"/>
    <path d="M314.98,786.14c-3.94.2-7.22,3.04-6.35,8.47.66,4.12,2.81,6.35,6.88,6.35,10.01,0,9.36-15.32-.53-14.82Z"/>
    <path d="M314.98,1056.18c-4.03.24-7.15,2.71-5.82,8.47.88,3.81,2.87,5.3,6.35,5.3,9.95,0,8.6-14.31-.53-13.77Z"/>
    <path d="M314.98,654.3c-2.88.24-5.32,1.86-3.71,6.35,3.92,10.93,15.85-7.36,3.71-6.35Z"/>
    <path d="M393.35,932.81c6.19-18-25.47-20.71-21.18-1.59,2.86,12.74,18.62,9.03,21.18,1.59Z"/>
    <path d="M393.35,999c4-16.98-18.87-16.36-21.18-6.35-.45,1.94-.23,3.52.53,6.35,3.09,11.5,18.86,7.6,20.65,0Z"/>
    <path d="M393.35,796.73c4-16.98-18.87-16.36-21.18-6.35-.45,1.94-.23,3.52.53,6.35,3.09,11.5,18.86,7.6,20.65,0Z"/>
    <path d="M392.82,1065.71c3.05-16.26-23.47-16.9-19.59,0,2.84,12.36,18.26,7.07,19.59,0Z"/>
    <path d="M392.82,726.31c0-12.2-22.12-13.96-19.59,1.59,2.01,12.35,19.59,9.3,19.59-1.59Z"/>
    <path d="M382.23,584.4c-4.03.24-7.15,2.71-5.83,8.47.88,3.81,2.87,5.29,6.36,5.29,9.94,0,8.6-14.31-.53-13.77Z"/>
    <path d="M382.23,519.28c-2.88.24-5.32,1.86-3.71,6.35,3.92,10.93,15.85-7.36,3.71-6.35Z"/>
    <path d="M463.77,928.04c-.48-16.73-30.01-17.61-27,2.65,2.47,16.65,27.49,14.23,27-2.65Z"/>
    <path d="M463.77,860.8c-.48-16.73-30.01-17.61-27,2.65,2.47,16.65,27.49,14.23,27-2.65Z"/>
    <path d="M462.71,1001.11c7.6-22.59-31.01-24.99-25.42-1.59,3.51,14.66,22.45,10.4,25.42,1.59Z"/>
    <path d="M462.71,1066.24c2.12-10.96-6.41-16.19-14.14-15.51-.65-1.2-1.44-2.38-2.14-3.33-.98-1.33-4.02-2.22-5.7-1.76-9.28,2.57-14.07,9.91-15.75,18.51-1.31,6.72,1.84,12.52,13.13,15.29,1.19-2.34,2.36-4.58,3.52-6.78,6.7,5.7,19.32,2.72,21.09-6.41Z"/>
    <path d="M455.3,714.66c-8.56-3.53-18.12,2.11-17.47,12.18.39,6.16,3.62,9.77,6.88,11.12,17.3,7.13,23.68-17.9,10.59-23.3Z"/>
    <path d="M450.01,647.41c-7.01,0-12.35,4.77-11.12,13.24.92,6.3,4.42,10.06,11.12,10.06,15.29,0,15.04-23.3,0-23.3Z"/>
    <path d="M440.47,593.94c1.77,7.74,8.48,8.56,13.58,6.36-.08.15-.19.27-.27.43,4.44-2.25,8.92-4.51,11.13-9.2-1.78.6-3.36,1.41-4.84,2.34,2.95-16.18-23.47-16.79-19.6.08Z"/>
    <path d="M446.83,516.1c-2.54.89-5.27,3.5-4.77,8.47.42,4.17,2.77,6.71,4.77,7.41,5.53,1.93,8.88-.18,10.32-3.45,3.56-1.86,7.12-3.75,10.61-5.74,3.63-2.06,7.32-3.92,11.38-4.97,2.03-.52,3.94-1.32,5.8-2.24.03,0,.06.02.08.03,7.05,2.27,11.74-2.07,12.95-5.83.16-.51.2-.96.3-1.44,3.82-2.01,7.72-4.07,11.86-6.25-1.76-1.08-2.74-.57-3.67-.21-2.66,1.02-5.29,2.14-7.96,3.13-1.19-11.31-22.31-11.37-19.32,3.49.36,1.77,1.01,3.13,1.79,4.19-.26.15-.52.28-.78.43-6.07,3.53-12.23,7.02-19.17,8.81-1.09.28-2.14.7-3.19,1.16-.09-.71-.25-1.41-.48-2.08.39-.9.63-1.95.91-2.97-.59.32-1.27.55-1.92.8-1.78-2.73-4.99-4.33-9.52-2.75Z"/>
    <path d="M448.95,462.09c9.72,1.4,7.6-13.14-1.06-10.59-2.9.85-3.92,4.17-2.65,7.41,1.03,2.63,2.66,3.03,3.71,3.18Z"/>
    <path d="M502.43,988.93c-.93,2.17-1.23,7.23-.53,10.59,4.75,22.67,39.04,10.16,30.18-10.59-1.01-2.37-2.42-4.17-4.05-5.55,2.33-1.21,4.44-2.97,6.62-4.54-2.93-.74-5.88-1.97-8.78-1.88-1.03.03-2,2.04-2.98,3.66-7.95-2.29-17.75,1.94-20.46,8.31Z"/>
    <path d="M502.43,1065.71c1.35,7.68,5.87,12.23,13.77,12.71,7.67.46,15.87-5.33,16.41-14.3,1.31-21.76-34.07-20.57-30.18,1.59Z"/>
    <path d="M531.02,658.53c-.13-4.4-2.29-7.68-5.32-9.79,2.42-1.88,4.96-3.87,7.73-6.03-7.55-1.99-12.99-3.43-19.37-5.12-.51,3.23-.96,6.15-1.4,8.97-5.54,1.52-9.89,6.23-8.64,14.61.4,2.7,1.44,4.85,2.82,6.57-2.95.69-6.9-.39-8.85.99,4.75,11.13,9.38,21.98,14.64,34.33,4.33.04,9.15.1,13.95.17-.8-10.83-1.41-21.7-2.4-32.54,4.03-2.17,7.01-6.26,6.84-12.17Z"/>
    <path d="M506.66,520.87c-.45,1.94-.23,3.52.53,6.35,3.09,11.5,18.86,7.6,20.65,0,4-16.98-18.87-16.35-21.18-6.35Z"/>
    <path d="M517.25,465.27c11.51,0,10.91-17.46-.53-16.94-4.74.21-8.62,3.36-7.41,10.06.82,4.55,3.17,6.88,7.94,6.88Z"/>
    <path d="M515.13,384.26c-2.9.86-3.92,4.17-2.65,7.41,1.03,2.63,2.66,3.03,3.71,3.18,9.72,1.4,7.6-13.14-1.06-10.59Z"/>
    <path d="M567.28,989.76c-5.05,6.29-17.23,6.38-17.15,17.63.07,10.77-10.67,5.68-15.65,10.73,8.58,9.55,19.65,12.03,31.55,12.51,1.41-7.41,2.67-14.89,4.66-21.96,3.43,4.23,8.64,6.37,14.86,6.22,21.08-.5,24.76-32.54,5-37.48-1.75-8.71-3.27-16.25-5.05-25.09-4.13,3.22-7.93,4.66-8.78,7.12-2.9,8.41-4.56,17.25-7.31,25.72-.91,1.42-1.63,2.97-2.14,4.6Z"/>
    <path d="M597.73,523.51c-.58-16.56-27.9-15.61-24.88,2.65,2.54,15.37,25.4,12,24.88-2.65Z"/>
    <path d="M307.55,217.03c1.75,7.79,11.39,5.52,12.95.97,3.79-11.01-15.58-12.67-12.95-.97Z"/>
    <path d="M320.18,157.11c0-7.6-14.02-8.52-11.98,1.3,1.57,7.6,11.98,4.98,11.98-1.3Z"/>
    <path d="M309.17,99.47c.26,2.55,1.69,4.11,2.91,4.53,9.49,3.32,8.71-12.76,0-9.72-1.55.54-3.22,2.14-2.91,5.18Z"/>
    <path d="M309.82,391.26c.9,3.53,5.36,4.69,7.77,1.94,6.2-7.07-10.33-11.94-7.77-1.94Z"/>
    <path d="M382.03,156.47c-.72-13.27-21.94-11.39-19.75,2.27,1.94,12.12,20.45,10.37,19.75-2.27Z"/>
    <path d="M363.25,100.11c1.27,11.42,18.12,9.78,17.81-1.3-.34-12.09-19.12-10.5-17.81,1.3Z"/>
    <path d="M370.7,33.72c-3.6.51-6.64,3.32-5.51,8.74.74,3.55,3.17,5.22,5.83,5.51,11.68,1.24,9.99-15.7-.32-14.25Z"/>
    <path d="M371.35,502.67c-1.87.25-3.43,1.42-2.59,4.53.55,2.03,1.25,2.75,3.56,2.59,4.93-.33,4.07-7.8-.97-7.12Z"/>
    <path d="M429.96,201.48c-4.75.11-9.1,3.57-9.71,4.21-2.22,2.31-3.78,6.41-3.56,10.36.36,6.7,4,10.68,8.42,12.31,21.39,7.85,25.94-27.35,4.86-26.88Z"/>
    <path d="M443.89,270.79c-.69-4.11-4.98-9.73-10.69-10.69-11.45-1.93-17.94,7.17-16.19,16.52.29,1.54.64,3.08,1.3,4.21,6.2,10.69,28.54,7.53,25.58-10.04Z"/>
    <path d="M417.34,158.08c.62,7.67,6.06,12.48,13.28,12.31,15.93-.38,17.29-26.56-.32-26.56-8.41,0-13.55,6.93-12.95,14.25Z"/>
    <path d="M436.44,320.01c-10.54-5.31-20.5,3.57-18.78,13.92.88,5.32,4.05,8.17,6.48,9.39,4.22,2.12,10.24,1.04,12.31,0,7.99-4.02,10.04-18.26,0-23.32Z"/>
    <path d="M421.55,90.72c-1.47,1.53-3.52,5.75-2.92,10.04,1.42,10.05,14.14,13.32,20.4,6.8,1.45-1.51,2.35-3.12,2.86-4.74,1.27,1.01,1.7,3.35,2.21,3.59,12.5,5.9,24.68.58,29.78-8.25-.04.93,0,1.91.14,2.93,1.84,13.98,21.97,18.22,28.18,4.53,5.46-12.06-5.97-26.47-20.08-20.08-2.11.96-4.23,2.7-5.81,5.07.42-4.7-1.05-9.72-5.13-14.3-6.96-3.83-13.38-3.98-21.31-5.18-1.29,4.93-7.17,4.91-10.01,8.2.6,5.14-1.82,7.02-4.66,8.42.67.58,1.37,1.33,1.91,2.1-4.41-3.37-10.72-4.15-15.55.88Z"/>
    <path d="M420.57,43.44c1.3,5.64,6.29,8.69,12.31,7.45,8.64-1.78,10.91-17.83,0-20.08-8.72-1.8-13.95,5.52-12.31,12.63Z"/>
    <path d="M426.73,457.33c7.05,2.27,11.74-2.07,12.95-5.83,5.11-15.88-22.15-18.02-18.78-1.3.89,4.45,3.62,6.41,5.83,7.13Z"/>
    <path d="M429.32,513.35c11.68,1.24,9.99-15.7-.32-14.25-3.61.51-6.64,3.32-5.51,8.74.74,3.55,3.17,5.22,5.83,5.5Z"/>
    <path d="M427.05,565.49c.55,2.03,1.25,2.75,3.56,2.59,1.87-.12,2.9-1.28,3.19-2.62,1.05.04,2.09.09,3.15.13.07-1.81.15-3.58.22-5.38-2.61-.57-4.31-.15-5.13,1.22-.65-.37-1.42-.61-2.4-.48-1.87.25-3.43,1.42-2.59,4.53Z"/>
    <path d="M497.97,259.13c-10.69-6.82-23.93.13-26.05,11.33-8.79,1.68-18.11,5.22-24.24,9.33,7.94-2.12,16.28-3.77,23.97-6.15,0,.66,0,1.33.09,2.01.48,4.02,2.02,7.44,4.37,10.04-.94.26-1.9.58-2.93,1.02,3.3,5.69,10.47,3.59,14.57,7.61,3.95,3.88,8.31,7.71,14.82,9.45-.84-6.89-1.84-8.79-6.37-8.78-3.67,0-5.25-1.68-7-4.15,17.32-.53,21.91-23.33,8.77-31.71Z"/>
    <path d="M488.58,232.57c22.39,0,22.46-34.33,0-34.33-10.23,0-18.09,7.98-16.84,19.11.6,5.38,2.97,9.8,6.97,12.47-14.5,1.03-30.89,6.73-43.42,11.79,12.76-1.87,30.52-6.61,44.74-11.05,2.38,1.25,5.2,2,8.55,2Z"/>
    <path d="M504.78,331.35c-.1-7.34-5.59-16.02-16.52-15.87-9.67.13-16.51,8.44-15.55,17.81,2.03,19.68,32.34,18.83,32.06-1.94Z"/>
    <path d="M503.8,150.64c-2.84-6.94-12.42-12.54-21.7-8.74-7.03,2.88-10.95,9.31-9.39,18.46,1.38,8.08,8.88,14.51,19.11,12.95,9.42-1.44,15.99-12.88,11.98-22.67Z"/>
    <path d="M476.6,450.53c.89,4.83,4.26,7.98,7.12,9.07,15.77,6.01,21.82-14.65,12.38-21.8,1.52-.96,2.98-1.72,4.31-1.96-.85-2.05-4.89-1.62-8.06.11-10.13-3.07-17.37,5.73-15.75,14.59Z"/>
    <path d="M495.38,564.52c0-8.5-15.16-9.06-13.28,1.3,1.43,7.87,13.28,6.57,13.28-1.3Z"/>
    <path d="M564.69,225.12c7.63-14.56-4.05-30.02-18.15-30.22-1.58-.34-3.41-.13-4.97.53,0,.03,0,.07,0,.1-1.58.39-3.16.91-4.73,1.73-6.22,3.26-11.5,11.07-10.36,20.4.94,7.69,5.47,13.3,10.36,15.87,10.78,5.65,23.47-.06,27.85-8.42Z"/>
    <path d="M538.13,114.69c1.17.61,4.45,1.78,7.45,1.94,15.04.8,20.6-13.11,17-23.63,4.97-1.57,8.68-5.05,9.48-10.35,3.07-20.58-32.23-22.37-31.44-.01-5.16,1.79-9.11,5.88-10.67,11.13-.09,0-.16-.04-.24-.04-2.95-.12-5.76.45-8.59,1.02-4.24.86-5.07,2.14-4.24,6.46.12.61.23,1.23.44,1.81,2.24,6.34,8.71,8.58,14.26,4.89,1.82,3.27,4.38,5.64,6.56,6.79Z"/>
    <path d="M561.13,447.93c0-19.08-31.22-18.82-28.82,1.62.93,7.91,6.3,12.95,14.25,12.95,7.64,0,14.57-5.95,14.57-14.57Z"/>
    <path d="M553.94,496.81c1.54-1.07,3.07-2.16,4.67-3.12,6.03-3.62,12.13-7.12,18.2-10.68,1.78-1.04,3.54-2.12,4.02-4.93-3.92,1.75-7.96,3.26-11.72,5.3-5.45,2.96-10.69,6.3-16.02,9.47-1,.59-1.95,1.24-2.71,2.11-.45-.13-.9-.27-1.39-.35-10.36-8.42-25.54-9.95-40.95-9.43.61,3.77,1.22,7.55,1.82,11.32,2.55.11,5.17.29,7.83.49-.17.1-.35.17-.52.28-.5.33-.89.9-.42,1.48.19.23.81.35,1.09.22,1.1-.53,2.16-1.12,3.22-1.72,5.55.44,11.19.89,16.7,1.13-2.22,2.64-3.23,6.3-2.56,10.11,1.04,5.86,5.89,10.58,13.6,9.39,9.85-1.52,12.12-15.42,5.12-21.08Z"/>
  </g>
</svg>