<?xml version="1.0" encoding="UTF-8"?>
<svg id="Layer_2" data-name="Layer 2" xmlns="http://www.w3.org/2000/svg" viewBox="0 0 247.05 3947.96">
  <g id="Layer_1-2" data-name="Layer 1">
    <g>
      <rect x="164.07" y="3742.28" width="41.14" height="41.14" transform="translate(-3578.2 3947.49) rotate(-90)"/>
      <rect x="205.21" y="3701.14" width="41.14" height="41.14" transform="translate(-3495.93 3947.49) rotate(-90)"/>
      <rect x="164.07" y="3660.01" width="41.14" height="41.14" transform="translate(-3495.93 3865.22) rotate(-90)"/>
      <rect x="122.94" y="3701.14" width="41.14" height="41.14" transform="translate(-3578.2 3865.22) rotate(-90)"/>
      <rect x="122.94" y="3618.87" width="41.14" height="41.14" transform="translate(-3495.93 3782.95) rotate(-90)"/>
      <rect x="205.21" y="3618.87" width="41.14" height="41.14" transform="translate(-3413.66 3865.22) rotate(-90)"/>
      <rect x="164.07" y="3577.74" width="41.14" height="41.14" transform="translate(-3413.66 3782.95) rotate(-90)"/>
      <rect x="205.21" y="3536.6" width="41.14" height="41.14" transform="translate(-3331.39 3782.95) rotate(-90)"/>
      <rect x="164.07" y="3495.46" width="41.14" height="41.14" transform="translate(-3331.39 3700.67) rotate(-90)"/>
      <rect x="122.94" y="3536.6" width="41.14" height="41.14" transform="translate(-3413.66 3700.67) rotate(-90)"/>
      <rect x="122.94" y="3454.33" width="41.14" height="41.14" transform="translate(-3331.39 3618.4) rotate(-90)"/>
      <rect x="205.21" y="3454.33" width="41.14" height="41.14" transform="translate(-3249.12 3700.67) rotate(-90)"/>
      <rect x="164.07" y="3906.82" width="41.14" height="41.14" transform="translate(-3742.75 4112.03) rotate(-90)"/>
      <rect x="205.21" y="3865.69" width="41.14" height="41.14" transform="translate(-3660.48 4112.03) rotate(-90)"/>
      <rect x="164.07" y="3824.55" width="41.14" height="41.14" transform="translate(-3660.48 4029.76) rotate(-90)"/>
      <rect x="123.56" y="3866.18" width="41.14" height="41.14" transform="translate(-3742.61 4030.87) rotate(-90)"/>
      <rect x="123.56" y="3783.41" width="41.14" height="41.14" transform="translate(-3659.85 3948.11) rotate(-90)"/>
      <rect x="204.24" y="3783.41" width="41.14" height="41.14" transform="translate(-3579.18 4028.79) rotate(-90)"/>
      <rect x="41.29" y="3783.41" width="41.14" height="41.14" transform="translate(-3742.12 3865.84) rotate(-90)"/>
      <rect x="82.43" y="3742.28" width="41.14" height="41.14" transform="translate(-3659.85 3865.84) rotate(-90)"/>
      <rect x="41.29" y="3701.14" width="41.14" height="41.14" transform="translate(-3659.85 3783.57) rotate(-90)"/>
      <rect x=".16" y="3742.28" width="41.14" height="41.14" transform="translate(-3742.12 3783.57) rotate(-90)"/>
      <rect x=".16" y="3660.01" width="41.14" height="41.14" transform="translate(-3659.85 3701.3) rotate(-90)"/>
      <rect x="82.43" y="3660.01" width="41.14" height="41.14" transform="translate(-3577.58 3783.57) rotate(-90)"/>
      <rect x="41.29" y="3618.87" width="41.14" height="41.14" transform="translate(-3577.58 3701.3) rotate(-90)"/>
      <rect x="82.43" y="3577.74" width="41.14" height="41.14" transform="translate(-3495.31 3701.3) rotate(-90)"/>
      <rect x="41.29" y="3536.6" width="41.14" height="41.14" transform="translate(-3495.31 3619.03) rotate(-90)"/>
      <rect x=".16" y="3577.74" width="41.14" height="41.14" transform="translate(-3577.58 3619.03) rotate(-90)"/>
      <rect x=".16" y="3495.46" width="41.14" height="41.14" transform="translate(-3495.31 3536.76) rotate(-90)"/>
      <rect x="82.43" y="3495.46" width="41.14" height="41.14" transform="translate(-3413.04 3619.03) rotate(-90)"/>
      <rect x="39.35" y="3454.33" width="41.14" height="41.14" transform="translate(-3414.98 3534.81) rotate(-90)"/>
      <rect x="82.43" y="3906.82" width="41.14" height="41.14" transform="translate(-3824.39 4030.39) rotate(-90)"/>
      <rect x="41.29" y="3865.69" width="41.14" height="41.14" transform="translate(-3824.39 3948.11) rotate(-90)"/>
      <rect x=".16" y="3906.82" width="41.14" height="41.14" transform="translate(-3906.67 3948.11) rotate(-90)"/>
      <rect x=".78" y="3824.55" width="41.14" height="41.14" transform="translate(-3823.77 3866.47) rotate(-90)"/>
      <rect x="81.45" y="3824.55" width="41.14" height="41.14" transform="translate(-3743.1 3947.14) rotate(-90)"/>
      <rect x="164.39" y="3248.16" width="41.14" height="41.14" transform="translate(-3083.77 3453.68) rotate(-90)"/>
      <rect x="205.52" y="3207.03" width="41.14" height="41.14" transform="translate(-3001.5 3453.68) rotate(-90)"/>
      <rect x="164.39" y="3165.89" width="41.14" height="41.14" transform="translate(-3001.5 3371.41) rotate(-90)"/>
      <rect x="123.25" y="3207.03" width="41.14" height="41.14" transform="translate(-3083.77 3371.41) rotate(-90)"/>
      <rect x="123.25" y="3124.75" width="41.14" height="41.14" transform="translate(-3001.5 3289.14) rotate(-90)"/>
      <rect x="205.52" y="3124.75" width="41.14" height="41.14" transform="translate(-2919.23 3371.41) rotate(-90)"/>
      <rect x="164.39" y="3083.62" width="41.14" height="41.14" transform="translate(-2919.23 3289.14) rotate(-90)"/>
      <rect x="205.52" y="3042.48" width="41.14" height="41.14" transform="translate(-2836.96 3289.14) rotate(-90)"/>
      <rect x="164.39" y="3001.35" width="41.14" height="41.14" transform="translate(-2836.96 3206.87) rotate(-90)"/>
      <rect x="123.25" y="3042.48" width="41.14" height="41.14" transform="translate(-2919.23 3206.87) rotate(-90)"/>
      <rect x="123.25" y="2960.21" width="41.14" height="41.14" transform="translate(-2836.96 3124.6) rotate(-90)"/>
      <rect x="205.52" y="2960.21" width="41.14" height="41.14" transform="translate(-2754.69 3206.87) rotate(-90)"/>
      <rect x="164.39" y="3412.7" width="41.14" height="41.14" transform="translate(-3248.32 3618.23) rotate(-90)"/>
      <rect x="205.52" y="3371.57" width="41.14" height="41.14" transform="translate(-3166.05 3618.23) rotate(-90)"/>
      <rect x="164.39" y="3330.43" width="41.14" height="41.14" transform="translate(-3166.05 3535.96) rotate(-90)"/>
      <rect x="123.88" y="3372.06" width="41.14" height="41.14" transform="translate(-3248.18 3537.07) rotate(-90)"/>
      <rect x="123.88" y="3289.3" width="41.14" height="41.14" transform="translate(-3165.42 3454.31) rotate(-90)"/>
      <rect x="204.55" y="3289.3" width="41.14" height="41.14" transform="translate(-3084.75 3534.98) rotate(-90)"/>
      <rect x="41.6" y="3289.3" width="41.14" height="41.14" transform="translate(-3247.69 3372.04) rotate(-90)"/>
      <rect x="82.74" y="3248.16" width="41.14" height="41.14" transform="translate(-3165.42 3372.04) rotate(-90)"/>
      <rect x="41.6" y="3207.03" width="41.14" height="41.14" transform="translate(-3165.42 3289.77) rotate(-90)"/>
      <rect x=".47" y="3248.16" width="41.14" height="41.14" transform="translate(-3247.69 3289.77) rotate(-90)"/>
      <rect x=".47" y="3165.89" width="41.14" height="41.14" transform="translate(-3165.42 3207.49) rotate(-90)"/>
      <rect x="82.74" y="3165.89" width="41.14" height="41.14" transform="translate(-3083.15 3289.77) rotate(-90)"/>
      <rect x="41.6" y="3124.75" width="41.14" height="41.14" transform="translate(-3083.15 3207.49) rotate(-90)"/>
      <rect x="82.74" y="3083.62" width="41.14" height="41.14" transform="translate(-3000.88 3207.49) rotate(-90)"/>
      <rect x="41.6" y="3042.48" width="41.14" height="41.14" transform="translate(-3000.88 3125.22) rotate(-90)"/>
      <rect x=".47" y="3083.62" width="41.14" height="41.14" transform="translate(-3083.15 3125.22) rotate(-90)"/>
      <rect x=".47" y="3001.35" width="41.14" height="41.14" transform="translate(-3000.88 3042.95) rotate(-90)"/>
      <rect x="82.74" y="3001.35" width="41.14" height="41.14" transform="translate(-2918.61 3125.22) rotate(-90)"/>
      <rect x="41.6" y="2960.21" width="41.14" height="41.14" transform="translate(-2918.61 3042.95) rotate(-90)"/>
      <rect x="82.74" y="3412.7" width="41.14" height="41.14" transform="translate(-3329.96 3536.58) rotate(-90)"/>
      <rect x="41.6" y="3371.57" width="41.14" height="41.14" transform="translate(-3329.96 3454.31) rotate(-90)"/>
      <rect x="1.09" y="3413.19" width="41.14" height="41.14" transform="translate(-3412.1 3455.42) rotate(-90)"/>
      <rect x="1.09" y="3330.43" width="41.14" height="41.14" transform="translate(-3329.34 3372.66) rotate(-90)"/>
      <rect x="81.77" y="3330.43" width="41.14" height="41.14" transform="translate(-3248.67 3453.34) rotate(-90)"/>
      <rect x="163.92" y="2756.05" width="41.14" height="41.14" transform="translate(-2592.13 2961.1) rotate(-90)"/>
      <rect x="205.05" y="2714.91" width="41.14" height="41.14" transform="translate(-2509.86 2961.1) rotate(-90)"/>
      <rect x="163.92" y="2673.78" width="41.14" height="41.14" transform="translate(-2509.86 2878.83) rotate(-90)"/>
      <rect x="122.78" y="2714.91" width="41.14" height="41.14" transform="translate(-2592.13 2878.83) rotate(-90)"/>
      <rect x="122.78" y="2632.64" width="41.14" height="41.14" transform="translate(-2509.86 2796.56) rotate(-90)"/>
      <rect x="205.05" y="2632.64" width="41.14" height="41.14" transform="translate(-2427.59 2878.83) rotate(-90)"/>
      <rect x="163.92" y="2591.5" width="41.14" height="41.14" transform="translate(-2427.59 2796.56) rotate(-90)"/>
      <rect x="205.05" y="2550.37" width="41.14" height="41.14" transform="translate(-2345.31 2796.56) rotate(-90)"/>
      <rect x="163.92" y="2509.23" width="41.14" height="41.14" transform="translate(-2345.31 2714.29) rotate(-90)"/>
      <rect x="122.78" y="2550.37" width="41.14" height="41.14" transform="translate(-2427.59 2714.29) rotate(-90)"/>
      <rect x="122.78" y="2468.1" width="41.14" height="41.14" transform="translate(-2345.31 2632.01) rotate(-90)"/>
      <rect x="205.05" y="2468.1" width="41.14" height="41.14" transform="translate(-2263.04 2714.29) rotate(-90)"/>
      <rect x="163.92" y="2920.59" width="41.14" height="41.14" transform="translate(-2756.67 3125.64) rotate(-90)"/>
      <rect x="205.05" y="2879.45" width="41.14" height="41.14" transform="translate(-2674.4 3125.64) rotate(-90)"/>
      <rect x="163.92" y="2838.32" width="41.14" height="41.14" transform="translate(-2674.4 3043.37) rotate(-90)"/>
      <rect x="123.41" y="2879.94" width="41.14" height="41.14" transform="translate(-2756.54 3044.49) rotate(-90)"/>
      <rect x="123.41" y="2797.18" width="41.14" height="41.14" transform="translate(-2673.78 2961.73) rotate(-90)"/>
      <rect x="204.08" y="2797.18" width="41.14" height="41.14" transform="translate(-2593.1 3042.4) rotate(-90)"/>
      <rect x="41.14" y="2797.18" width="41.14" height="41.14" transform="translate(-2756.05 2879.45) rotate(-90)"/>
      <rect x="82.27" y="2756.05" width="41.14" height="41.14" transform="translate(-2673.78 2879.45) rotate(-90)"/>
      <rect x="41.14" y="2714.91" width="41.14" height="41.14" transform="translate(-2673.78 2797.18) rotate(-90)"/>
      <rect x="0" y="2756.05" width="41.14" height="41.14" transform="translate(-2756.05 2797.18) rotate(-90)"/>
      <rect x="0" y="2673.78" width="41.14" height="41.14" transform="translate(-2673.78 2714.91) rotate(-90)"/>
      <rect x="82.27" y="2673.78" width="41.14" height="41.14" transform="translate(-2591.5 2797.18) rotate(-90)"/>
      <rect x="41.14" y="2632.64" width="41.14" height="41.14" transform="translate(-2591.5 2714.91) rotate(-90)"/>
      <rect x="82.27" y="2591.5" width="41.14" height="41.14" transform="translate(-2509.23 2714.91) rotate(-90)"/>
      <rect x="41.14" y="2550.37" width="41.14" height="41.14" transform="translate(-2509.23 2632.64) rotate(-90)"/>
      <rect x="0" y="2591.5" width="41.14" height="41.14" transform="translate(-2591.5 2632.64) rotate(-90)"/>
      <rect x="0" y="2509.23" width="41.14" height="41.14" transform="translate(-2509.23 2550.37) rotate(-90)"/>
      <rect x="82.27" y="2509.23" width="41.14" height="41.14" transform="translate(-2426.96 2632.64) rotate(-90)"/>
      <rect x="39.19" y="2468.1" width="41.14" height="41.14" transform="translate(-2428.91 2548.42) rotate(-90)"/>
      <rect x="82.27" y="2920.59" width="41.14" height="41.14" transform="translate(-2838.32 3044) rotate(-90)"/>
      <rect x="41.14" y="2879.45" width="41.14" height="41.14" transform="translate(-2838.32 2961.73) rotate(-90)"/>
      <rect x="0" y="2920.59" width="41.14" height="41.14" transform="translate(-2920.59 2961.73) rotate(-90)"/>
      <rect x=".62" y="2838.32" width="41.14" height="41.14" transform="translate(-2837.69 2880.08) rotate(-90)"/>
      <rect x="81.3" y="2838.32" width="41.14" height="41.14" transform="translate(-2757.02 2960.75) rotate(-90)"/>
      <rect x="164.23" y="2261.93" width="41.14" height="41.14" transform="translate(-2097.7 2467.3) rotate(-90)"/>
      <rect x="205.37" y="2220.79" width="41.14" height="41.14" transform="translate(-2015.43 2467.3) rotate(-90)"/>
      <rect x="164.23" y="2179.66" width="41.14" height="41.14" transform="translate(-2015.43 2385.02) rotate(-90)"/>
      <rect x="123.09" y="2220.79" width="41.14" height="41.14" transform="translate(-2097.7 2385.02) rotate(-90)"/>
      <rect x="123.09" y="2138.52" width="41.14" height="41.14" transform="translate(-2015.43 2302.75) rotate(-90)"/>
      <rect x="205.37" y="2138.52" width="41.14" height="41.14" transform="translate(-1933.16 2385.02) rotate(-90)"/>
      <rect x="164.23" y="2097.39" width="41.14" height="41.14" transform="translate(-1933.16 2302.75) rotate(-90)"/>
      <rect x="205.37" y="2056.25" width="41.14" height="41.14" transform="translate(-1850.88 2302.75) rotate(-90)"/>
      <rect x="164.23" y="2015.11" width="41.14" height="41.14" transform="translate(-1850.88 2220.48) rotate(-90)"/>
      <rect x="123.09" y="2056.25" width="41.14" height="41.14" transform="translate(-1933.16 2220.48) rotate(-90)"/>
      <rect x="123.09" y="1973.98" width="41.14" height="41.14" transform="translate(-1850.88 2138.21) rotate(-90)"/>
      <rect x="205.37" y="1973.98" width="41.14" height="41.14" transform="translate(-1768.61 2220.48) rotate(-90)"/>
      <rect x="164.23" y="2426.47" width="41.14" height="41.14" transform="translate(-2262.24 2631.84) rotate(-90)"/>
      <rect x="205.37" y="2385.34" width="41.14" height="41.14" transform="translate(-2179.97 2631.84) rotate(-90)"/>
      <rect x="164.23" y="2344.2" width="41.14" height="41.14" transform="translate(-2179.97 2549.57) rotate(-90)"/>
      <rect x="123.72" y="2385.83" width="41.14" height="41.14" transform="translate(-2262.11 2550.68) rotate(-90)"/>
      <rect x="123.72" y="2303.06" width="41.14" height="41.14" transform="translate(-2179.35 2467.92) rotate(-90)"/>
      <rect x="204.39" y="2303.06" width="41.14" height="41.14" transform="translate(-2098.67 2548.59) rotate(-90)"/>
      <rect x="41.45" y="2303.06" width="41.14" height="41.14" transform="translate(-2261.62 2385.65) rotate(-90)"/>
      <rect x="82.58" y="2261.93" width="41.14" height="41.14" transform="translate(-2179.35 2385.65) rotate(-90)"/>
      <rect x="41.45" y="2220.79" width="41.14" height="41.14" transform="translate(-2179.35 2303.38) rotate(-90)"/>
      <rect x=".31" y="2261.93" width="41.14" height="41.14" transform="translate(-2261.62 2303.38) rotate(-90)"/>
      <rect x=".31" y="2179.66" width="41.14" height="41.14" transform="translate(-2179.35 2221.11) rotate(-90)"/>
      <rect x="82.58" y="2179.66" width="41.14" height="41.14" transform="translate(-2097.07 2303.38) rotate(-90)"/>
      <rect x="41.45" y="2138.52" width="41.14" height="41.14" transform="translate(-2097.07 2221.11) rotate(-90)"/>
      <rect x="82.58" y="2097.39" width="41.14" height="41.14" transform="translate(-2014.8 2221.11) rotate(-90)"/>
      <rect x="41.45" y="2056.25" width="41.14" height="41.14" transform="translate(-2014.8 2138.83) rotate(-90)"/>
      <rect x=".31" y="2097.39" width="41.14" height="41.14" transform="translate(-2097.07 2138.83) rotate(-90)"/>
      <rect x=".31" y="2015.11" width="41.14" height="41.14" transform="translate(-2014.8 2056.56) rotate(-90)"/>
      <rect x="82.58" y="2015.11" width="41.14" height="41.14" transform="translate(-1932.53 2138.83) rotate(-90)"/>
      <rect x="41.45" y="1973.98" width="41.14" height="41.14" transform="translate(-1932.53 2056.56) rotate(-90)"/>
      <rect x="82.58" y="2426.47" width="41.14" height="41.14" transform="translate(-2343.89 2550.19) rotate(-90)"/>
      <rect x="41.45" y="2385.34" width="41.14" height="41.14" transform="translate(-2343.89 2467.92) rotate(-90)"/>
      <rect x=".94" y="2426.96" width="41.14" height="41.14" transform="translate(-2426.02 2469.03) rotate(-90)"/>
      <rect x=".94" y="2344.2" width="41.14" height="41.14" transform="translate(-2343.26 2386.27) rotate(-90)"/>
      <rect x="81.61" y="2344.2" width="41.14" height="41.14" transform="translate(-2262.59 2466.95) rotate(-90)"/>
      <rect x="164.46" y="1768.3" width="41.14" height="41.14" transform="translate(-1603.84 1973.9) rotate(-90)"/>
      <rect x="205.6" y="1727.16" width="41.14" height="41.14" transform="translate(-1521.56 1973.9) rotate(-90)"/>
      <rect x="164.46" y="1686.03" width="41.14" height="41.14" transform="translate(-1521.56 1891.63) rotate(-90)"/>
      <rect x="123.33" y="1727.16" width="41.14" height="41.14" transform="translate(-1603.84 1891.63) rotate(-90)"/>
      <rect x="123.33" y="1644.89" width="41.14" height="41.14" transform="translate(-1521.56 1809.36) rotate(-90)"/>
      <rect x="205.6" y="1644.89" width="41.14" height="41.14" transform="translate(-1439.29 1891.63) rotate(-90)"/>
      <rect x="164.46" y="1603.76" width="41.14" height="41.14" transform="translate(-1439.29 1809.36) rotate(-90)"/>
      <rect x="205.6" y="1562.62" width="41.14" height="41.14" transform="translate(-1357.02 1809.36) rotate(-90)"/>
      <rect x="164.46" y="1521.49" width="41.14" height="41.14" transform="translate(-1357.02 1727.09) rotate(-90)"/>
      <rect x="123.33" y="1562.62" width="41.14" height="41.14" transform="translate(-1439.29 1727.09) rotate(-90)"/>
      <rect x="123.33" y="1480.35" width="41.14" height="41.14" transform="translate(-1357.02 1644.81) rotate(-90)"/>
      <rect x="205.6" y="1480.35" width="41.14" height="41.14" transform="translate(-1274.75 1727.09) rotate(-90)"/>
      <rect x="164.46" y="1932.84" width="41.14" height="41.14" transform="translate(-1768.38 2138.44) rotate(-90)"/>
      <rect x="205.6" y="1891.71" width="41.14" height="41.14" transform="translate(-1686.11 2138.44) rotate(-90)"/>
      <rect x="164.46" y="1850.57" width="41.14" height="41.14" transform="translate(-1686.11 2056.17) rotate(-90)"/>
      <rect x="123.95" y="1892.2" width="41.14" height="41.14" transform="translate(-1768.24 2057.29) rotate(-90)"/>
      <rect x="123.95" y="1809.44" width="41.14" height="41.14" transform="translate(-1685.48 1974.53) rotate(-90)"/>
      <rect x="204.63" y="1809.44" width="41.14" height="41.14" transform="translate(-1604.81 2055.2) rotate(-90)"/>
      <rect x="41.68" y="1809.44" width="41.14" height="41.14" transform="translate(-1767.75 1892.25) rotate(-90)"/>
      <rect x="82.82" y="1768.3" width="41.14" height="41.14" transform="translate(-1685.48 1892.25) rotate(-90)"/>
      <rect x="41.68" y="1727.16" width="41.14" height="41.14" transform="translate(-1685.48 1809.98) rotate(-90)"/>
      <rect x=".55" y="1768.3" width="41.14" height="41.14" transform="translate(-1767.75 1809.98) rotate(-90)"/>
      <rect x=".55" y="1686.03" width="41.14" height="41.14" transform="translate(-1685.48 1727.71) rotate(-90)"/>
      <rect x="82.82" y="1686.03" width="41.14" height="41.14" transform="translate(-1603.21 1809.98) rotate(-90)"/>
      <rect x="41.68" y="1644.89" width="41.14" height="41.14" transform="translate(-1603.21 1727.71) rotate(-90)"/>
      <rect x="82.82" y="1603.76" width="41.14" height="41.14" transform="translate(-1520.94 1727.71) rotate(-90)"/>
      <rect x="41.68" y="1562.62" width="41.14" height="41.14" transform="translate(-1520.94 1645.44) rotate(-90)"/>
      <rect x=".55" y="1603.76" width="41.14" height="41.14" transform="translate(-1603.21 1645.44) rotate(-90)"/>
      <rect x=".55" y="1521.49" width="41.14" height="41.14" transform="translate(-1520.94 1563.17) rotate(-90)"/>
      <rect x="82.82" y="1521.49" width="41.14" height="41.14" transform="translate(-1438.67 1645.44) rotate(-90)"/>
      <rect x="39.74" y="1480.35" width="41.14" height="41.14" transform="translate(-1440.61 1561.22) rotate(-90)"/>
      <rect x="82.82" y="1932.84" width="41.14" height="41.14" transform="translate(-1850.03 2056.8) rotate(-90)"/>
      <rect x="41.68" y="1891.71" width="41.14" height="41.14" transform="translate(-1850.03 1974.53) rotate(-90)"/>
      <rect x=".55" y="1932.84" width="41.14" height="41.14" transform="translate(-1932.3 1974.53) rotate(-90)"/>
      <rect x="1.17" y="1850.57" width="41.14" height="41.14" transform="translate(-1849.4 1892.88) rotate(-90)"/>
      <rect x="81.85" y="1850.57" width="41.14" height="41.14" transform="translate(-1768.73 1973.55) rotate(-90)"/>
      <rect x="164.78" y="1274.18" width="41.14" height="41.14" transform="translate(-1109.41 1480.1) rotate(-90)"/>
      <rect x="205.91" y="1233.05" width="41.14" height="41.14" transform="translate(-1027.13 1480.1) rotate(-90)"/>
      <rect x="164.78" y="1191.91" width="41.14" height="41.14" transform="translate(-1027.13 1397.82) rotate(-90)"/>
      <rect x="123.64" y="1233.05" width="41.14" height="41.14" transform="translate(-1109.41 1397.82) rotate(-90)"/>
      <rect x="123.64" y="1150.78" width="41.14" height="41.14" transform="translate(-1027.13 1315.55) rotate(-90)"/>
      <rect x="205.91" y="1150.78" width="41.14" height="41.14" transform="translate(-944.86 1397.82) rotate(-90)"/>
      <rect x="164.78" y="1109.64" width="41.14" height="41.14" transform="translate(-944.86 1315.55) rotate(-90)"/>
      <rect x="205.91" y="1068.5" width="41.14" height="41.14" transform="translate(-862.59 1315.55) rotate(-90)"/>
      <rect x="164.78" y="1027.37" width="41.14" height="41.14" transform="translate(-862.59 1233.28) rotate(-90)"/>
      <rect x="123.64" y="1068.5" width="41.14" height="41.14" transform="translate(-944.86 1233.28) rotate(-90)"/>
      <rect x="123.64" y="986.23" width="41.14" height="41.14" transform="translate(-862.59 1151.01) rotate(-90)"/>
      <rect x="205.91" y="986.23" width="41.14" height="41.14" transform="translate(-780.32 1233.28) rotate(-90)"/>
      <rect x="164.78" y="1438.73" width="41.14" height="41.14" transform="translate(-1273.95 1644.64) rotate(-90)"/>
      <rect x="205.91" y="1397.59" width="41.14" height="41.14" transform="translate(-1191.68 1644.64) rotate(-90)"/>
      <rect x="164.78" y="1356.45" width="41.14" height="41.14" transform="translate(-1191.68 1562.37) rotate(-90)"/>
      <rect x="124.27" y="1398.08" width="41.14" height="41.14" transform="translate(-1273.81 1563.48) rotate(-90)"/>
      <rect x="124.27" y="1315.32" width="41.14" height="41.14" transform="translate(-1191.05 1480.72) rotate(-90)"/>
      <rect x="204.94" y="1315.32" width="41.14" height="41.14" transform="translate(-1110.38 1561.39) rotate(-90)"/>
      <rect x="41.99" y="1315.32" width="41.14" height="41.14" transform="translate(-1273.32 1398.45) rotate(-90)"/>
      <rect x="83.13" y="1274.18" width="41.14" height="41.14" transform="translate(-1191.05 1398.45) rotate(-90)"/>
      <rect x="41.99" y="1233.05" width="41.14" height="41.14" transform="translate(-1191.05 1316.18) rotate(-90)"/>
      <rect x=".86" y="1274.18" width="41.14" height="41.14" transform="translate(-1273.32 1316.18) rotate(-90)"/>
      <rect x=".86" y="1191.91" width="41.14" height="41.14" transform="translate(-1191.05 1233.91) rotate(-90)"/>
      <rect x="83.13" y="1191.91" width="41.14" height="41.14" transform="translate(-1108.78 1316.18) rotate(-90)"/>
      <rect x="41.99" y="1150.78" width="41.14" height="41.14" transform="translate(-1108.78 1233.91) rotate(-90)"/>
      <rect x="83.13" y="1109.64" width="41.14" height="41.14" transform="translate(-1026.51 1233.91) rotate(-90)"/>
      <rect x="41.99" y="1068.5" width="41.14" height="41.14" transform="translate(-1026.51 1151.63) rotate(-90)"/>
      <rect x=".86" y="1109.64" width="41.14" height="41.14" transform="translate(-1108.78 1151.63) rotate(-90)"/>
      <rect x=".86" y="1027.37" width="41.14" height="41.14" transform="translate(-1026.51 1069.36) rotate(-90)"/>
      <rect x="83.13" y="1027.37" width="41.14" height="41.14" transform="translate(-944.24 1151.63) rotate(-90)"/>
      <rect x="41.99" y="986.23" width="41.14" height="41.14" transform="translate(-944.24 1069.36) rotate(-90)"/>
      <rect x="83.13" y="1438.73" width="41.14" height="41.14" transform="translate(-1355.59 1562.99) rotate(-90)"/>
      <rect x="41.99" y="1397.59" width="41.14" height="41.14" transform="translate(-1355.59 1480.72) rotate(-90)"/>
      <rect x="1.48" y="1439.21" width="41.14" height="41.14" transform="translate(-1437.73 1481.83) rotate(-90)"/>
      <rect x="1.48" y="1356.45" width="41.14" height="41.14" transform="translate(-1354.97 1399.07) rotate(-90)"/>
      <rect x="82.16" y="1356.45" width="41.14" height="41.14" transform="translate(-1274.3 1479.75) rotate(-90)"/>
      <rect x="164.31" y="782.07" width="41.14" height="41.14" transform="translate(-617.76 987.51) rotate(-90)"/>
      <rect x="205.44" y="740.93" width="41.14" height="41.14" transform="translate(-535.49 987.51) rotate(-90)"/>
      <rect x="164.31" y="699.8" width="41.14" height="41.14" transform="translate(-535.49 905.24) rotate(-90)"/>
      <rect x="123.17" y="740.93" width="41.14" height="41.14" transform="translate(-617.76 905.24) rotate(-90)"/>
      <rect x="123.17" y="658.66" width="41.14" height="41.14" transform="translate(-535.49 822.97) rotate(-90)"/>
      <rect x="205.44" y="658.66" width="41.14" height="41.14" transform="translate(-453.22 905.24) rotate(-90)"/>
      <rect x="164.31" y="617.53" width="41.14" height="41.14" transform="translate(-453.22 822.97) rotate(-90)"/>
      <rect x="205.44" y="576.39" width="41.14" height="41.14" transform="translate(-370.94 822.97) rotate(-90)"/>
      <rect x="164.31" y="535.25" width="41.14" height="41.14" transform="translate(-370.94 740.7) rotate(-90)"/>
      <rect x="123.17" y="576.39" width="41.14" height="41.14" transform="translate(-453.22 740.7) rotate(-90)"/>
      <rect x="123.17" y="494.12" width="41.14" height="41.14" transform="translate(-370.94 658.43) rotate(-90)"/>
      <rect x="205.44" y="494.12" width="41.14" height="41.14" transform="translate(-288.67 740.7) rotate(-90)"/>
      <rect x="164.31" y="946.61" width="41.14" height="41.14" transform="translate(-782.3 1152.06) rotate(-90)"/>
      <rect x="205.44" y="905.48" width="41.14" height="41.14" transform="translate(-700.03 1152.06) rotate(-90)"/>
      <rect x="164.31" y="864.34" width="41.14" height="41.14" transform="translate(-700.03 1069.78) rotate(-90)"/>
      <rect x="123.8" y="905.96" width="41.14" height="41.14" transform="translate(-782.17 1070.9) rotate(-90)"/>
      <rect x="123.8" y="823.2" width="41.14" height="41.14" transform="translate(-699.41 988.14) rotate(-90)"/>
      <rect x="204.47" y="823.2" width="41.14" height="41.14" transform="translate(-618.73 1068.81) rotate(-90)"/>
      <rect x="41.53" y="823.2" width="41.14" height="41.14" transform="translate(-781.68 905.87) rotate(-90)"/>
      <rect x="82.66" y="782.07" width="41.14" height="41.14" transform="translate(-699.41 905.87) rotate(-90)"/>
      <rect x="41.53" y="740.93" width="41.14" height="41.14" transform="translate(-699.41 823.59) rotate(-90)"/>
      <rect x=".39" y="782.07" width="41.14" height="41.14" transform="translate(-781.68 823.59) rotate(-90)"/>
      <rect x=".39" y="699.8" width="41.14" height="41.14" transform="translate(-699.41 741.32) rotate(-90)"/>
      <rect x="82.66" y="699.8" width="41.14" height="41.14" transform="translate(-617.13 823.59) rotate(-90)"/>
      <rect x="41.53" y="658.66" width="41.14" height="41.14" transform="translate(-617.13 741.32) rotate(-90)"/>
      <rect x="82.66" y="617.53" width="41.14" height="41.14" transform="translate(-534.86 741.32) rotate(-90)"/>
      <rect x="41.53" y="576.39" width="41.14" height="41.14" transform="translate(-534.86 659.05) rotate(-90)"/>
      <rect x=".39" y="617.53" width="41.14" height="41.14" transform="translate(-617.13 659.05) rotate(-90)"/>
      <rect x=".39" y="535.25" width="41.14" height="41.14" transform="translate(-534.86 576.78) rotate(-90)"/>
      <rect x="82.66" y="535.25" width="41.14" height="41.14" transform="translate(-452.59 659.05) rotate(-90)"/>
      <rect x="39.58" y="494.12" width="41.14" height="41.14" transform="translate(-454.54 574.83) rotate(-90)"/>
      <rect x="82.66" y="946.61" width="41.14" height="41.14" transform="translate(-863.95 1070.41) rotate(-90)"/>
      <rect x="41.53" y="905.48" width="41.14" height="41.14" transform="translate(-863.95 988.14) rotate(-90)"/>
      <rect x=".39" y="946.61" width="41.14" height="41.14" transform="translate(-946.22 988.14) rotate(-90)"/>
      <rect x="1.02" y="864.34" width="41.14" height="41.14" transform="translate(-863.32 906.49) rotate(-90)"/>
      <rect x="81.69" y="864.34" width="41.14" height="41.14" transform="translate(-782.65 987.16) rotate(-90)"/>
      <rect x="164.62" y="287.95" width="41.14" height="41.14" transform="translate(-123.33 493.71) rotate(-90)"/>
      <rect x="205.76" y="246.81" width="41.14" height="41.14" transform="translate(-41.06 493.71) rotate(-90)"/>
      <rect x="164.62" y="205.68" width="41.14" height="41.14" transform="translate(-41.06 411.44) rotate(-90)"/>
      <rect x="123.49" y="246.81" width="41.14" height="41.14" transform="translate(-123.33 411.44) rotate(-90)"/>
      <rect x="123.49" y="164.54" width="41.14" height="41.14" transform="translate(-41.06 329.16) rotate(-90)"/>
      <rect x="205.76" y="164.54" width="41.14" height="41.14" transform="translate(41.21 411.44) rotate(-90)"/>
      <rect x="164.62" y="123.41" width="41.14" height="41.14" transform="translate(41.21 329.16) rotate(-90)"/>
      <rect x="205.76" y="82.27" width="41.14" height="41.14" transform="translate(123.49 329.16) rotate(-90)"/>
      <rect x="164.62" y="41.14" width="41.14" height="41.14" transform="translate(123.49 246.89) rotate(-90)"/>
      <rect x="123.49" y="82.27" width="41.14" height="41.14" transform="translate(41.21 246.89) rotate(-90)"/>
      <rect x="123.49" y="0" width="41.14" height="41.14" transform="translate(123.49 164.62) rotate(-90)"/>
      <rect x="205.76" y="0" width="41.14" height="41.14" transform="translate(205.76 246.89) rotate(-90)"/>
      <rect x="164.62" y="452.49" width="41.14" height="41.14" transform="translate(-287.87 658.25) rotate(-90)"/>
      <rect x="205.76" y="411.36" width="41.14" height="41.14" transform="translate(-205.6 658.25) rotate(-90)"/>
      <rect x="164.62" y="370.22" width="41.14" height="41.14" transform="translate(-205.6 575.98) rotate(-90)"/>
      <rect x="124.11" y="411.85" width="41.14" height="41.14" transform="translate(-287.74 577.09) rotate(-90)"/>
      <rect x="124.11" y="329.09" width="41.14" height="41.14" transform="translate(-204.98 494.33) rotate(-90)"/>
      <rect x="204.78" y="329.09" width="41.14" height="41.14" transform="translate(-124.3 575.01) rotate(-90)"/>
      <rect x="41.84" y="329.09" width="41.14" height="41.14" transform="translate(-287.25 412.06) rotate(-90)"/>
      <rect x="82.97" y="287.95" width="41.14" height="41.14" transform="translate(-204.98 412.06) rotate(-90)"/>
      <rect x="41.84" y="246.81" width="41.14" height="41.14" transform="translate(-204.98 329.79) rotate(-90)"/>
      <rect x=".7" y="287.95" width="41.14" height="41.14" transform="translate(-287.25 329.79) rotate(-90)"/>
      <rect x=".7" y="205.68" width="41.14" height="41.14" transform="translate(-204.98 247.52) rotate(-90)"/>
      <rect x="82.97" y="205.68" width="41.14" height="41.14" transform="translate(-122.7 329.79) rotate(-90)"/>
      <rect x="41.84" y="164.54" width="41.14" height="41.14" transform="translate(-122.7 247.52) rotate(-90)"/>
      <rect x="82.97" y="123.41" width="41.14" height="41.14" transform="translate(-40.43 247.52) rotate(-90)"/>
      <rect x="41.84" y="82.27" width="41.14" height="41.14" transform="translate(-40.43 165.25) rotate(-90)"/>
      <rect x=".7" y="123.41" width="41.14" height="41.14" transform="translate(-122.7 165.25) rotate(-90)"/>
      <rect x=".7" y="41.14" width="41.14" height="41.14" transform="translate(-40.43 82.97) rotate(-90)"/>
      <rect x="82.97" y="41.14" width="41.14" height="41.14" transform="translate(41.84 165.25) rotate(-90)"/>
      <rect x="41.84" y="0" width="41.14" height="41.14" transform="translate(41.84 82.97) rotate(-90)"/>
      <rect x="82.97" y="452.49" width="41.14" height="41.14" transform="translate(-369.52 576.6) rotate(-90)"/>
      <rect x="41.84" y="411.36" width="41.14" height="41.14" transform="translate(-369.52 494.33) rotate(-90)"/>
      <rect x="1.33" y="452.98" width="41.14" height="41.14" transform="translate(-451.65 495.45) rotate(-90)"/>
      <rect x="1.33" y="370.22" width="41.14" height="41.14" transform="translate(-368.89 412.68) rotate(-90)"/>
      <rect x="82" y="370.22" width="41.14" height="41.14" transform="translate(-288.22 493.36) rotate(-90)"/>
    </g>
  </g>
</svg>