<?xml version="1.0" encoding="UTF-8"?>
<svg id="Layer_2" data-name="Layer 2" xmlns="http://www.w3.org/2000/svg" viewBox="0 0 1612.33 1218.77">
  <g id="Layer_1-2" data-name="Layer 1">
    <g>
      <rect x="851.12" y="274.63" width="24.39" height="146.56"/>
      <rect x="745.88" y="72.16" width="52.08" height="172.96"/>
      <rect x="722.43" y="202.62" width="46.9" height="107.81"/>
      <rect x="732.15" y="220.45" width="15.81" height="998.32"/>
      <rect x="779.28" y="229.37" width="8.54" height="395.77"/>
      <rect x="762" y="241.65" width="14.66" height="407.57"/>
      <rect x="837.66" y="271.71" width="9.09" height="574.25"/>
      <rect x="837.66" y="227.8" width="25.66" height="118.71"/>
      <rect x="887.63" y="287.16" width="62.26" height="146.56"/>
      <rect x="938.81" y="414.53" width="7.9" height="305.65"/>
      <rect x="962.81" y="144.12" width="24.39" height="146.56" transform="translate(1950.01 434.8) rotate(-180)"/>
      <rect x="1063.38" y="233.26" width="46.9" height="107.81" transform="translate(2173.66 574.32) rotate(-180)"/>
      <rect x="1074.28" y="317.39" width="8.54" height="395.77" transform="translate(2157.1 1030.55) rotate(-180)"/>
      <rect x="1094.16" y="291.42" width="14.66" height="407.57" transform="translate(2202.97 990.41) rotate(-180)"/>
      <rect x="965.91" y="196.91" width="9.09" height="574.25" transform="translate(1940.91 968.08) rotate(-180)"/>
      <rect x="949.98" y="133.89" width="25.66" height="118.71" transform="translate(1925.61 386.49) rotate(-180)"/>
      <rect x="1469.8" y="132.44" width="24.39" height="146.56" transform="translate(2964 411.44) rotate(-180)"/>
      <rect x="1482" y="57.64" width="52.08" height="172.96" transform="translate(3016.08 288.24) rotate(-180)"/>
      <rect x="1565.42" y="101.61" width="46.9" height="107.81" transform="translate(3177.75 311.03) rotate(-180)"/>
      <rect x="1573.06" y="146.12" width="15.81" height="998.32" transform="translate(3161.94 1290.56) rotate(-180)"/>
      <rect x="1520.16" y="187.32" width="8.54" height="395.77" transform="translate(3048.85 770.42) rotate(-180)"/>
      <rect x="1467.34" y="205.72" width="14.66" height="407.57" transform="translate(2949.34 819.02) rotate(-180)"/>
      <rect x="1415.11" y="220.45" width="9.09" height="574.25" transform="translate(2839.32 1015.16) rotate(-180)"/>
      <rect x="1411.38" y="158.04" width="25.66" height="118.71" transform="translate(2848.41 434.8) rotate(-180)"/>
      <rect x="1326.73" y="146.13" width="25.4" height="69.76" transform="translate(2678.86 362.03) rotate(-180)"/>
      <rect x="1334.8" y="197.16" width="7.9" height="305.65" transform="translate(2677.51 699.98) rotate(-180)"/>
      <rect y="116.88" width="24.39" height="146.56"/>
      <rect x="1283.72" y="244.57" width="8.54" height="395.77"/>
      <rect x="1139" y="277.06" width="14.66" height="407.57"/>
      <rect x="1226.53" y="134.06" width="9.09" height="574.25"/>
      <rect x="1142.95" y="182.8" width="25.66" height="118.71"/>
      <rect x="640.13" y="95.35" width="24.39" height="146.56" transform="translate(1304.65 337.26) rotate(-180)"/>
      <rect x="668.89" y="92.43" width="9.09" height="574.25" transform="translate(1346.87 759.12) rotate(-180)"/>
      <rect x="652.33" y="48.53" width="25.66" height="118.71" transform="translate(1330.31 215.76) rotate(-180)"/>
      <rect x="598.24" y="259.92" width="62.26" height="146.56" transform="translate(1258.75 666.39) rotate(-180)"/>
      <rect x="601.42" y="387.28" width="7.9" height="305.65" transform="translate(1210.74 1080.22) rotate(-180)"/>
      <rect x="560.94" y="116.88" width="24.39" height="146.56"/>
      <rect x="70.52" y="226.08" width="46.9" height="107.81"/>
      <rect x="97.98" y="310.22" width="8.54" height="395.77"/>
      <rect x="71.98" y="284.25" width="14.66" height="407.57"/>
      <rect x="573.13" y="169.67" width="9.09" height="574.25"/>
      <rect x="572.5" y="106.65" width="25.66" height="118.71"/>
      <rect x="242.81" y="105.38" width="24.39" height="146.56"/>
      <rect x="202.92" y="30.58" width="52.08" height="172.96"/>
      <rect x="124.68" y="74.55" width="46.9" height="107.81"/>
      <rect x="148.13" y="119.06" width="15.81" height="998.32"/>
      <rect x="208.31" y="160.26" width="8.54" height="395.77"/>
      <rect x="255" y="178.66" width="14.66" height="407.57"/>
      <rect x="312.8" y="193.39" width="9.09" height="574.25"/>
      <rect x="299.97" y="130.98" width="25.66" height="118.71"/>
      <rect x="384.87" y="119.07" width="25.4" height="69.76"/>
      <rect x="394.3" y="170.1" width="7.9" height="305.65"/>
      <rect x="498.28" y="0" width="24.39" height="146.56" transform="translate(1020.95 146.56) rotate(-180)"/>
      <rect x="444.75" y="217.51" width="8.54" height="395.77" transform="translate(898.03 830.79) rotate(-180)"/>
      <rect x="27.14" y="269.89" width="14.66" height="407.57" transform="translate(68.93 947.35) rotate(-180)"/>
      <rect x="501.38" y="107" width="9.09" height="574.25" transform="translate(1011.85 788.25) rotate(-180)"/>
      <rect x="12.2" y="175.63" width="25.66" height="118.71" transform="translate(50.05 469.98) rotate(-180)"/>
    </g>
  </g>
</svg>