<?xml version="1.0" encoding="UTF-8"?>
<svg id="Layer_2" data-name="Layer 2" xmlns="http://www.w3.org/2000/svg" viewBox="0 0 128.44 1526.99">
  <g id="Layer_1-2" data-name="Layer 1">
    <polyline points="128.44 219.98 128.44 112.72 0 0 0 109.99" fill="#00aced"/>
    <polyline points="128.44 1155.01 128.44 1047.74 0 935.03 0 1045.02" fill="#00aced"/>
    <polyline points="128.44 967.63 128.44 860.36 0 747.64 0 857.64" fill="#00aced"/>
    <polyline points="128.44 778.06 128.44 670.79 0 558.08 0 668.07" fill="#00aced"/>
    <polyline points="128.44 591.96 128.44 484.69 0 371.97 0 481.97" fill="#00aced"/>
    <polyline points="128.44 408.27 128.44 301 0 188.29 0 298.28" fill="#00aced"/>
    <polyline points="128.44 1526.99 128.44 1419.72 0 1307 0 1416.99" fill="#00aced"/>
    <polyline points="128.44 1343.3 128.44 1236.03 0 1123.32 0 1233.31" fill="#00aced"/>
  </g>
</svg>