<?xml version="1.0" encoding="UTF-8"?>
<svg id="Layer_2" data-name="Layer 2" xmlns="http://www.w3.org/2000/svg" viewBox="0 0 1125.62 2534.26">
  <g id="Layer_1-2" data-name="Layer 1">
    <g>
      <g>
        <g>
          <rect x="853.27" y="1222.95" width="63.8" height="5.5" transform="translate(-607.44 984.91) rotate(-45)" fill="#231f20"/>
          <rect x="922.89" y="1153.33" width="63.8" height="5.5" transform="translate(-537.83 1013.74) rotate(-45)" fill="#231f20"/>
          <rect x="855.22" y="1155.28" width="63.8" height="5.5" transform="translate(1078.68 -288.11) rotate(45)" fill="#231f20"/>
          <rect x="924.83" y="1224.89" width="63.8" height="5.5" transform="translate(1148.29 -316.94) rotate(45)" fill="#231f20"/>
          <rect x="853.27" y="1059.05" width="63.8" height="5.5" transform="translate(-491.54 936.9) rotate(-45)" fill="#231f20"/>
          <rect x="922.89" y="989.43" width="63.8" height="5.5" transform="translate(-421.93 965.74) rotate(-45)" fill="#231f20"/>
          <rect x="855.22" y="991.38" width="63.8" height="5.5" transform="translate(962.78 -336.11) rotate(45)" fill="#231f20"/>
          <rect x="924.83" y="1060.99" width="63.8" height="5.5" transform="translate(1032.4 -364.95) rotate(45)" fill="#231f20"/>
          <rect x="852.48" y="893.2" width="63.8" height="5.5" transform="translate(-374.5 887.77) rotate(-45)" fill="#231f20"/>
          <rect x="922.09" y="823.58" width="63.8" height="5.5" transform="translate(-304.89 916.6) rotate(-45)" fill="#231f20"/>
          <rect x="854.42" y="825.53" width="63.8" height="5.5" transform="translate(845.28 -384.13) rotate(45)" fill="#231f20"/>
          <rect x="924.03" y="895.14" width="63.8" height="5.5" transform="translate(914.89 -412.96) rotate(45)" fill="#231f20"/>
          <rect x="852.48" y="729.3" width="63.8" height="5.5" transform="translate(-258.61 839.76) rotate(-45)" fill="#231f20"/>
          <rect x="922.09" y="659.68" width="63.8" height="5.5" transform="translate(-188.99 868.59) rotate(-45)" fill="#231f20"/>
          <rect x="854.42" y="661.63" width="63.8" height="5.5" transform="translate(729.38 -432.13) rotate(45)" fill="#231f20"/>
          <rect x="924.03" y="731.24" width="63.8" height="5.5" transform="translate(799 -460.97) rotate(45)" fill="#231f20"/>
          <rect x="997.18" y="1224.08" width="63.8" height="5.5" transform="translate(-566.09 1087) rotate(-45)" fill="#231f20"/>
          <rect x="1066.8" y="1154.46" width="63.8" height="5.5" transform="translate(-496.47 1115.84) rotate(-45)" fill="#231f20"/>
          <rect x="999.13" y="1156.41" width="63.8" height="5.5" transform="translate(1121.63 -389.54) rotate(45)" fill="#231f20"/>
          <rect x="1068.74" y="1226.02" width="63.8" height="5.5" transform="translate(1191.24 -418.37) rotate(45)" fill="#231f20"/>
          <rect x="997.18" y="1060.17" width="63.8" height="5.5" transform="translate(-450.19 1039) rotate(-45)" fill="#231f20"/>
          <rect x="1066.8" y="990.56" width="63.8" height="5.5" transform="translate(-380.57 1067.83) rotate(-45)" fill="#231f20"/>
          <rect x="999.13" y="992.5" width="63.8" height="5.5" transform="translate(1005.73 -437.54) rotate(45)" fill="#231f20"/>
          <rect x="1068.74" y="1062.12" width="63.8" height="5.5" transform="translate(1075.35 -466.38) rotate(45)" fill="#231f20"/>
          <rect x="996.39" y="894.33" width="63.8" height="5.5" transform="translate(-333.15 989.86) rotate(-45)" fill="#231f20"/>
          <rect x="1066" y="824.71" width="63.8" height="5.5" transform="translate(-263.54 1018.69) rotate(-45)" fill="#231f20"/>
          <rect x="998.33" y="826.66" width="63.8" height="5.5" transform="translate(888.23 -485.56) rotate(45)" fill="#231f20"/>
          <rect x="1067.95" y="896.27" width="63.8" height="5.5" transform="translate(957.84 -514.39) rotate(45)" fill="#231f20"/>
          <rect x="996.39" y="730.42" width="63.8" height="5.5" transform="translate(-217.25 941.85) rotate(-45)" fill="#231f20"/>
          <rect x="1066" y="660.81" width="63.8" height="5.5" transform="translate(-147.64 970.69) rotate(-45)" fill="#231f20"/>
          <rect x="998.33" y="662.75" width="63.8" height="5.5" transform="translate(772.33 -533.56) rotate(45)" fill="#231f20"/>
          <rect x="1067.95" y="732.37" width="63.8" height="5.5" transform="translate(841.94 -562.4) rotate(45)" fill="#231f20"/>
          <rect x="851.16" y="585.05" width="63.8" height="5.5" transform="translate(-157 796.58) rotate(-45)" fill="#231f20"/>
          <rect x="920.77" y="515.44" width="63.8" height="5.5" transform="translate(-87.38 825.41) rotate(-45)" fill="#231f20"/>
          <rect x="853.1" y="517.38" width="63.8" height="5.5" transform="translate(627 -473.45) rotate(45)" fill="#231f20"/>
          <rect x="922.71" y="587" width="63.8" height="5.5" transform="translate(696.61 -502.28) rotate(45)" fill="#231f20"/>
          <rect x="851.16" y="421.15" width="63.8" height="5.5" transform="translate(-41.1 748.57) rotate(-45)" fill="#231f20"/>
          <rect x="920.77" y="351.53" width="63.8" height="5.5" transform="translate(28.51 777.41) rotate(-45)" fill="#231f20"/>
          <rect x="853.1" y="353.48" width="63.8" height="5.5" transform="translate(511.1 -521.45) rotate(45)" fill="#231f20"/>
          <rect x="922.71" y="423.09" width="63.8" height="5.5" transform="translate(580.72 -550.29) rotate(45)" fill="#231f20"/>
          <rect x="850.36" y="255.3" width="63.8" height="5.5" transform="translate(75.94 699.43) rotate(-45)" fill="#231f20"/>
          <rect x="919.97" y="185.69" width="63.8" height="5.5" transform="translate(145.55 728.27) rotate(-45)" fill="#231f20"/>
          <rect x="852.3" y="187.63" width="63.8" height="5.5" transform="translate(393.6 -569.47) rotate(45)" fill="#231f20"/>
          <rect x="921.92" y="257.25" width="63.8" height="5.5" transform="translate(463.21 -598.3) rotate(45)" fill="#231f20"/>
          <rect x="850.36" y="91.4" width="63.8" height="5.5" transform="translate(191.83 651.43) rotate(-45)" fill="#231f20"/>
          <rect x="919.97" y="21.78" width="63.8" height="5.5" transform="translate(261.45 680.26) rotate(-45)" fill="#231f20"/>
          <rect x="852.3" y="23.73" width="63.8" height="5.5" transform="translate(277.7 -617.47) rotate(45)" fill="#231f20"/>
          <rect x="921.92" y="93.34" width="63.8" height="5.5" transform="translate(347.31 -646.31) rotate(45)" fill="#231f20"/>
          <rect x="995.07" y="586.18" width="63.8" height="5.5" transform="translate(-115.64 898.67) rotate(-45)" fill="#231f20"/>
          <rect x="1064.68" y="516.57" width="63.8" height="5.5" transform="translate(-46.03 927.5) rotate(-45)" fill="#231f20"/>
          <rect x="997.01" y="518.51" width="63.8" height="5.5" transform="translate(669.95 -574.88) rotate(45)" fill="#231f20"/>
          <rect x="1066.63" y="588.12" width="63.8" height="5.5" transform="translate(739.56 -603.71) rotate(45)" fill="#231f20"/>
          <rect x="995.07" y="422.28" width="63.8" height="5.5" transform="translate(.25 850.66) rotate(-45)" fill="#231f20"/>
          <rect x="1064.68" y="352.66" width="63.8" height="5.5" transform="translate(69.87 879.5) rotate(-45)" fill="#231f20"/>
          <rect x="997.01" y="354.61" width="63.8" height="5.5" transform="translate(554.05 -622.88) rotate(45)" fill="#231f20"/>
          <rect x="1066.63" y="424.22" width="63.8" height="5.5" transform="translate(623.66 -651.72) rotate(45)" fill="#231f20"/>
          <rect x="994.27" y="256.43" width="63.8" height="5.5" transform="translate(117.29 801.52) rotate(-45)" fill="#231f20"/>
          <rect x="1063.89" y="186.82" width="63.8" height="5.5" transform="translate(186.91 830.36) rotate(-45)" fill="#231f20"/>
          <rect x="996.22" y="188.76" width="63.8" height="5.5" transform="translate(436.55 -670.9) rotate(45)" fill="#231f20"/>
          <rect x="1065.83" y="258.37" width="63.8" height="5.5" transform="translate(506.16 -699.73) rotate(45)" fill="#231f20"/>
          <rect x="994.27" y="92.53" width="63.8" height="5.5" transform="translate(233.19 753.52) rotate(-45)" fill="#231f20"/>
          <rect x="1063.89" y="22.91" width="63.8" height="5.5" transform="translate(302.8 782.35) rotate(-45)" fill="#231f20"/>
          <rect x="996.22" y="24.86" width="63.8" height="5.5" transform="translate(320.65 -718.9) rotate(45)" fill="#231f20"/>
          <rect x="1065.83" y="94.47" width="63.8" height="5.5" transform="translate(390.26 -747.74) rotate(45)" fill="#231f20"/>
        </g>
        <g>
          <rect x="566.65" y="1222.95" width="63.8" height="5.5" transform="translate(-691.39 782.23) rotate(-45)" fill="#231f20"/>
          <rect x="636.26" y="1153.33" width="63.8" height="5.5" transform="translate(-621.78 811.07) rotate(-45)" fill="#231f20"/>
          <rect x="568.59" y="1155.28" width="63.8" height="5.5" transform="translate(994.73 -85.43) rotate(45)" fill="#231f20"/>
          <rect x="638.2" y="1224.89" width="63.8" height="5.5" transform="translate(1064.34 -114.27) rotate(45)" fill="#231f20"/>
          <rect x="566.65" y="1059.05" width="63.8" height="5.5" transform="translate(-575.49 734.23) rotate(-45)" fill="#231f20"/>
          <rect x="636.26" y="989.43" width="63.8" height="5.5" transform="translate(-505.88 763.06) rotate(-45)" fill="#231f20"/>
          <rect x="568.59" y="991.38" width="63.8" height="5.5" transform="translate(878.83 -133.44) rotate(45)" fill="#231f20"/>
          <rect x="638.2" y="1060.99" width="63.8" height="5.5" transform="translate(948.45 -162.27) rotate(45)" fill="#231f20"/>
          <rect x="565.85" y="893.2" width="63.8" height="5.5" transform="translate(-458.45 685.09) rotate(-45)" fill="#231f20"/>
          <rect x="635.46" y="823.58" width="63.8" height="5.5" transform="translate(-388.84 713.93) rotate(-45)" fill="#231f20"/>
          <rect x="567.8" y="825.53" width="63.8" height="5.5" transform="translate(761.33 -181.45) rotate(45)" fill="#231f20"/>
          <rect x="637.41" y="895.14" width="63.8" height="5.5" transform="translate(830.94 -210.29) rotate(45)" fill="#231f20"/>
          <rect x="565.85" y="729.3" width="63.8" height="5.5" transform="translate(-342.56 637.08) rotate(-45)" fill="#231f20"/>
          <rect x="635.46" y="659.68" width="63.8" height="5.5" transform="translate(-272.94 665.92) rotate(-45)" fill="#231f20"/>
          <rect x="567.8" y="661.63" width="63.8" height="5.5" transform="translate(645.43 -229.46) rotate(45)" fill="#231f20"/>
          <rect x="637.41" y="731.24" width="63.8" height="5.5" transform="translate(715.05 -258.29) rotate(45)" fill="#231f20"/>
          <rect x="710.56" y="1224.08" width="63.8" height="5.5" transform="translate(-650.04 884.33) rotate(-45)" fill="#231f20"/>
          <rect x="780.17" y="1154.46" width="63.8" height="5.5" transform="translate(-580.42 913.16) rotate(-45)" fill="#231f20"/>
          <rect x="712.5" y="1156.41" width="63.8" height="5.5" transform="translate(1037.68 -186.86) rotate(45)" fill="#231f20"/>
          <rect x="782.12" y="1226.02" width="63.8" height="5.5" transform="translate(1107.29 -215.7) rotate(45)" fill="#231f20"/>
          <rect x="710.56" y="1060.17" width="63.8" height="5.5" transform="translate(-534.14 836.32) rotate(-45)" fill="#231f20"/>
          <rect x="780.17" y="990.56" width="63.8" height="5.5" transform="translate(-464.53 865.16) rotate(-45)" fill="#231f20"/>
          <rect x="712.5" y="992.5" width="63.8" height="5.5" transform="translate(921.78 -234.87) rotate(45)" fill="#231f20"/>
          <rect x="782.12" y="1062.12" width="63.8" height="5.5" transform="translate(991.4 -263.7) rotate(45)" fill="#231f20"/>
          <rect x="709.76" y="894.33" width="63.8" height="5.5" transform="translate(-417.1 787.18) rotate(-45)" fill="#231f20"/>
          <rect x="779.38" y="824.71" width="63.8" height="5.5" transform="translate(-347.49 816.02) rotate(-45)" fill="#231f20"/>
          <rect x="711.71" y="826.66" width="63.8" height="5.5" transform="translate(804.28 -282.88) rotate(45)" fill="#231f20"/>
          <rect x="781.32" y="896.27" width="63.8" height="5.5" transform="translate(873.89 -311.72) rotate(45)" fill="#231f20"/>
          <rect x="709.76" y="730.42" width="63.8" height="5.5" transform="translate(-301.2 739.18) rotate(-45)" fill="#231f20"/>
          <rect x="779.38" y="660.81" width="63.8" height="5.5" transform="translate(-231.59 768.01) rotate(-45)" fill="#231f20"/>
          <rect x="711.71" y="662.75" width="63.8" height="5.5" transform="translate(688.38 -330.89) rotate(45)" fill="#231f20"/>
          <rect x="781.32" y="732.37" width="63.8" height="5.5" transform="translate(757.99 -359.72) rotate(45)" fill="#231f20"/>
          <rect x="564.53" y="585.05" width="63.8" height="5.5" transform="translate(-240.95 593.9) rotate(-45)" fill="#231f20"/>
          <rect x="634.14" y="515.44" width="63.8" height="5.5" transform="translate(-171.33 622.74) rotate(-45)" fill="#231f20"/>
          <rect x="566.47" y="517.38" width="63.8" height="5.5" transform="translate(543.05 -270.77) rotate(45)" fill="#231f20"/>
          <rect x="636.09" y="587" width="63.8" height="5.5" transform="translate(612.66 -299.61) rotate(45)" fill="#231f20"/>
          <rect x="564.53" y="421.15" width="63.8" height="5.5" transform="translate(-125.05 545.9) rotate(-45)" fill="#231f20"/>
          <rect x="634.14" y="351.53" width="63.8" height="5.5" transform="translate(-55.44 574.73) rotate(-45)" fill="#231f20"/>
          <rect x="566.47" y="353.48" width="63.8" height="5.5" transform="translate(427.15 -318.78) rotate(45)" fill="#231f20"/>
          <rect x="636.09" y="423.09" width="63.8" height="5.5" transform="translate(496.77 -347.61) rotate(45)" fill="#231f20"/>
          <rect x="563.73" y="255.3" width="63.8" height="5.5" transform="translate(-8.01 496.76) rotate(-45)" fill="#231f20"/>
          <rect x="633.35" y="185.69" width="63.8" height="5.5" transform="translate(61.6 525.59) rotate(-45)" fill="#231f20"/>
          <rect x="565.68" y="187.63" width="63.8" height="5.5" transform="translate(309.65 -366.79) rotate(45)" fill="#231f20"/>
          <rect x="635.29" y="257.25" width="63.8" height="5.5" transform="translate(379.26 -395.63) rotate(45)" fill="#231f20"/>
          <rect x="563.73" y="91.4" width="63.8" height="5.5" transform="translate(107.88 448.75) rotate(-45)" fill="#231f20"/>
          <rect x="633.35" y="21.78" width="63.8" height="5.5" transform="translate(177.5 477.59) rotate(-45)" fill="#231f20"/>
          <rect x="565.68" y="23.73" width="63.8" height="5.5" transform="translate(193.75 -414.8) rotate(45)" fill="#231f20"/>
          <rect x="635.29" y="93.34" width="63.8" height="5.5" transform="translate(263.36 -443.63) rotate(45)" fill="#231f20"/>
          <rect x="708.44" y="586.18" width="63.8" height="5.5" transform="translate(-199.59 695.99) rotate(-45)" fill="#231f20"/>
          <rect x="778.06" y="516.57" width="63.8" height="5.5" transform="translate(-129.98 724.83) rotate(-45)" fill="#231f20"/>
          <rect x="710.39" y="518.51" width="63.8" height="5.5" transform="translate(586 -372.2) rotate(45)" fill="#231f20"/>
          <rect x="780" y="588.12" width="63.8" height="5.5" transform="translate(655.61 -401.04) rotate(45)" fill="#231f20"/>
          <rect x="708.44" y="422.28" width="63.8" height="5.5" transform="translate(-83.7 647.99) rotate(-45)" fill="#231f20"/>
          <rect x="778.06" y="352.66" width="63.8" height="5.5" transform="translate(-14.08 676.82) rotate(-45)" fill="#231f20"/>
          <rect x="710.39" y="354.61" width="63.8" height="5.5" transform="translate(470.1 -420.21) rotate(45)" fill="#231f20"/>
          <rect x="780" y="424.22" width="63.8" height="5.5" transform="translate(539.71 -449.04) rotate(45)" fill="#231f20"/>
          <rect x="707.65" y="256.43" width="63.8" height="5.5" transform="translate(33.34 598.85) rotate(-45)" fill="#231f20"/>
          <rect x="777.26" y="186.82" width="63.8" height="5.5" transform="translate(102.95 627.68) rotate(-45)" fill="#231f20"/>
          <rect x="709.59" y="188.76" width="63.8" height="5.5" transform="translate(352.6 -468.22) rotate(45)" fill="#231f20"/>
          <rect x="779.2" y="258.37" width="63.8" height="5.5" transform="translate(422.21 -497.06) rotate(45)" fill="#231f20"/>
          <rect x="707.65" y="92.53" width="63.8" height="5.5" transform="translate(149.24 550.84) rotate(-45)" fill="#231f20"/>
          <rect x="777.26" y="22.91" width="63.8" height="5.5" transform="translate(218.85 579.68) rotate(-45)" fill="#231f20"/>
          <rect x="709.59" y="24.86" width="63.8" height="5.5" transform="translate(236.7 -516.23) rotate(45)" fill="#231f20"/>
          <rect x="779.2" y="94.47" width="63.8" height="5.5" transform="translate(306.31 -545.06) rotate(45)" fill="#231f20"/>
        </g>
      </g>
      <g>
        <g>
          <rect x="853.75" y="2503.94" width="63.8" height="5.5" transform="translate(-1513.09 1360.44) rotate(-45)" fill="#231f20"/>
          <rect x="923.37" y="2434.32" width="63.8" height="5.5" transform="translate(-1443.48 1389.28) rotate(-45)" fill="#231f20"/>
          <rect x="855.7" y="2436.27" width="63.8" height="5.5" transform="translate(1984.62 86.75) rotate(45)" fill="#231f20"/>
          <rect x="925.31" y="2505.88" width="63.8" height="5.5" transform="translate(2054.23 57.91) rotate(45)" fill="#231f20"/>
          <rect x="853.75" y="2340.04" width="63.8" height="5.5" transform="translate(-1397.2 1312.44) rotate(-45)" fill="#231f20"/>
          <rect x="923.37" y="2270.42" width="63.8" height="5.5" transform="translate(-1327.58 1341.27) rotate(-45)" fill="#231f20"/>
          <rect x="855.7" y="2272.37" width="63.8" height="5.5" transform="translate(1868.72 38.74) rotate(45)" fill="#231f20"/>
          <rect x="925.31" y="2341.98" width="63.8" height="5.5" transform="translate(1938.33 9.9) rotate(45)" fill="#231f20"/>
          <rect x="852.96" y="2174.19" width="63.8" height="5.5" transform="translate(-1280.16 1263.3) rotate(-45)" fill="#231f20"/>
          <rect x="922.57" y="2104.57" width="63.8" height="5.5" transform="translate(-1210.54 1292.13) rotate(-45)" fill="#231f20"/>
          <rect x="854.9" y="2106.52" width="63.8" height="5.5" transform="translate(1751.22 -9.27) rotate(45)" fill="#231f20"/>
          <rect x="924.52" y="2176.13" width="63.8" height="5.5" transform="translate(1820.83 -38.11) rotate(45)" fill="#231f20"/>
          <rect x="852.96" y="2010.29" width="63.8" height="5.5" transform="translate(-1164.26 1215.29) rotate(-45)" fill="#231f20"/>
          <rect x="922.57" y="1940.67" width="63.8" height="5.5" transform="translate(-1094.65 1244.13) rotate(-45)" fill="#231f20"/>
          <rect x="854.9" y="1942.62" width="63.8" height="5.5" transform="translate(1635.32 -57.28) rotate(45)" fill="#231f20"/>
          <rect x="924.52" y="2012.23" width="63.8" height="5.5" transform="translate(1704.93 -86.11) rotate(45)" fill="#231f20"/>
          <rect x="997.67" y="2505.07" width="63.8" height="5.5" transform="translate(-1471.74 1462.53) rotate(-45)" fill="#231f20"/>
          <rect x="1067.28" y="2435.45" width="63.8" height="5.5" transform="translate(-1402.13 1491.37) rotate(-45)" fill="#231f20"/>
          <rect x="999.61" y="2437.4" width="63.8" height="5.5" transform="translate(2027.57 -14.68) rotate(45)" fill="#231f20"/>
          <rect x="1069.22" y="2507.01" width="63.8" height="5.5" transform="translate(2097.18 -43.52) rotate(45)" fill="#231f20"/>
          <rect x="997.67" y="2341.16" width="63.8" height="5.5" transform="translate(-1355.84 1414.53) rotate(-45)" fill="#231f20"/>
          <rect x="1067.28" y="2271.55" width="63.8" height="5.5" transform="translate(-1286.23 1443.36) rotate(-45)" fill="#231f20"/>
          <rect x="999.61" y="2273.49" width="63.8" height="5.5" transform="translate(1911.67 -62.69) rotate(45)" fill="#231f20"/>
          <rect x="1069.22" y="2343.11" width="63.8" height="5.5" transform="translate(1981.28 -91.53) rotate(45)" fill="#231f20"/>
          <rect x="996.87" y="2175.32" width="63.8" height="5.5" transform="translate(-1238.81 1365.39) rotate(-45)" fill="#231f20"/>
          <rect x="1066.48" y="2105.7" width="63.8" height="5.5" transform="translate(-1169.19 1394.23) rotate(-45)" fill="#231f20"/>
          <rect x="998.81" y="2107.65" width="63.8" height="5.5" transform="translate(1794.16 -110.7) rotate(45)" fill="#231f20"/>
          <rect x="1068.43" y="2177.26" width="63.8" height="5.5" transform="translate(1863.78 -139.54) rotate(45)" fill="#231f20"/>
          <rect x="996.87" y="2011.41" width="63.8" height="5.5" transform="translate(-1122.91 1317.38) rotate(-45)" fill="#231f20"/>
          <rect x="1066.48" y="1941.8" width="63.8" height="5.5" transform="translate(-1053.29 1346.22) rotate(-45)" fill="#231f20"/>
          <rect x="998.81" y="1943.74" width="63.8" height="5.5" transform="translate(1678.27 -158.71) rotate(45)" fill="#231f20"/>
          <rect x="1068.43" y="2013.36" width="63.8" height="5.5" transform="translate(1747.88 -187.55) rotate(45)" fill="#231f20"/>
          <rect x="851.64" y="1866.04" width="63.8" height="5.5" transform="translate(-1062.65 1172.11) rotate(-45)" fill="#231f20"/>
          <rect x="921.25" y="1796.43" width="63.8" height="5.5" transform="translate(-993.04 1200.95) rotate(-45)" fill="#231f20"/>
          <rect x="853.58" y="1798.37" width="63.8" height="5.5" transform="translate(1532.94 -98.59) rotate(45)" fill="#231f20"/>
          <rect x="923.2" y="1867.99" width="63.8" height="5.5" transform="translate(1602.55 -127.43) rotate(45)" fill="#231f20"/>
          <rect x="851.64" y="1702.14" width="63.8" height="5.5" transform="translate(-946.76 1124.1) rotate(-45)" fill="#231f20"/>
          <rect x="921.25" y="1632.52" width="63.8" height="5.5" transform="translate(-877.14 1152.94) rotate(-45)" fill="#231f20"/>
          <rect x="853.58" y="1634.47" width="63.8" height="5.5" transform="translate(1417.04 -146.6) rotate(45)" fill="#231f20"/>
          <rect x="923.2" y="1704.08" width="63.8" height="5.5" transform="translate(1486.65 -175.43) rotate(45)" fill="#231f20"/>
          <rect x="850.84" y="1536.29" width="63.8" height="5.5" transform="translate(-829.72 1074.97) rotate(-45)" fill="#231f20"/>
          <rect x="920.46" y="1466.68" width="63.8" height="5.5" transform="translate(-760.1 1103.8) rotate(-45)" fill="#231f20"/>
          <rect x="852.79" y="1468.62" width="63.8" height="5.5" transform="translate(1299.54 -194.61) rotate(45)" fill="#231f20"/>
          <rect x="922.4" y="1538.24" width="63.8" height="5.5" transform="translate(1369.15 -223.45) rotate(45)" fill="#231f20"/>
          <rect x="850.84" y="1372.39" width="63.8" height="5.5" transform="translate(-713.82 1026.96) rotate(-45)" fill="#231f20"/>
          <rect x="920.46" y="1302.77" width="63.8" height="5.5" transform="translate(-644.21 1055.8) rotate(-45)" fill="#231f20"/>
          <rect x="852.79" y="1304.72" width="63.8" height="5.5" transform="translate(1183.64 -242.62) rotate(45)" fill="#231f20"/>
          <rect x="922.4" y="1374.33" width="63.8" height="5.5" transform="translate(1253.25 -271.45) rotate(45)" fill="#231f20"/>
          <rect x="995.55" y="1867.17" width="63.8" height="5.5" transform="translate(-1021.3 1274.2) rotate(-45)" fill="#231f20"/>
          <rect x="1065.16" y="1797.55" width="63.8" height="5.5" transform="translate(-951.69 1303.04) rotate(-45)" fill="#231f20"/>
          <rect x="997.49" y="1799.5" width="63.8" height="5.5" transform="translate(1575.88 -200.02) rotate(45)" fill="#231f20"/>
          <rect x="1067.11" y="1869.11" width="63.8" height="5.5" transform="translate(1645.5 -228.86) rotate(45)" fill="#231f20"/>
          <rect x="995.55" y="1703.27" width="63.8" height="5.5" transform="translate(-905.4 1226.2) rotate(-45)" fill="#231f20"/>
          <rect x="1065.16" y="1633.65" width="63.8" height="5.5" transform="translate(-835.79 1255.03) rotate(-45)" fill="#231f20"/>
          <rect x="997.49" y="1635.6" width="63.8" height="5.5" transform="translate(1459.99 -248.03) rotate(45)" fill="#231f20"/>
          <rect x="1067.11" y="1705.21" width="63.8" height="5.5" transform="translate(1529.6 -276.87) rotate(45)" fill="#231f20"/>
          <rect x="994.75" y="1537.42" width="63.8" height="5.5" transform="translate(-788.36 1177.06) rotate(-45)" fill="#231f20"/>
          <rect x="1064.37" y="1467.8" width="63.8" height="5.5" transform="translate(-718.75 1205.89) rotate(-45)" fill="#231f20"/>
          <rect x="996.7" y="1469.75" width="63.8" height="5.5" transform="translate(1342.48 -296.04) rotate(45)" fill="#231f20"/>
          <rect x="1066.31" y="1539.36" width="63.8" height="5.5" transform="translate(1412.1 -324.88) rotate(45)" fill="#231f20"/>
          <rect x="994.75" y="1373.52" width="63.8" height="5.5" transform="translate(-672.47 1129.05) rotate(-45)" fill="#231f20"/>
          <rect x="1064.37" y="1303.9" width="63.8" height="5.5" transform="translate(-602.85 1157.89) rotate(-45)" fill="#231f20"/>
          <rect x="996.7" y="1305.85" width="63.8" height="5.5" transform="translate(1226.59 -344.05) rotate(45)" fill="#231f20"/>
          <rect x="1066.31" y="1375.46" width="63.8" height="5.5" transform="translate(1296.2 -372.88) rotate(45)" fill="#231f20"/>
        </g>
        <g>
          <rect x="567.13" y="2503.94" width="63.8" height="5.5" transform="translate(-1597.05 1157.77) rotate(-45)" fill="#231f20"/>
          <rect x="636.74" y="2434.32" width="63.8" height="5.5" transform="translate(-1527.43 1186.6) rotate(-45)" fill="#231f20"/>
          <rect x="569.07" y="2436.27" width="63.8" height="5.5" transform="translate(1900.67 289.42) rotate(45)" fill="#231f20"/>
          <rect x="638.69" y="2505.88" width="63.8" height="5.5" transform="translate(1970.28 260.59) rotate(45)" fill="#231f20"/>
          <rect x="567.13" y="2340.04" width="63.8" height="5.5" transform="translate(-1481.15 1109.76) rotate(-45)" fill="#231f20"/>
          <rect x="636.74" y="2270.42" width="63.8" height="5.5" transform="translate(-1411.53 1138.6) rotate(-45)" fill="#231f20"/>
          <rect x="569.07" y="2272.37" width="63.8" height="5.5" transform="translate(1784.77 241.41) rotate(45)" fill="#231f20"/>
          <rect x="638.69" y="2341.98" width="63.8" height="5.5" transform="translate(1854.38 212.58) rotate(45)" fill="#231f20"/>
          <rect x="566.33" y="2174.19" width="63.8" height="5.5" transform="translate(-1364.11 1060.62) rotate(-45)" fill="#231f20"/>
          <rect x="635.95" y="2104.57" width="63.8" height="5.5" transform="translate(-1294.5 1089.46) rotate(-45)" fill="#231f20"/>
          <rect x="568.28" y="2106.52" width="63.8" height="5.5" transform="translate(1667.27 193.4) rotate(45)" fill="#231f20"/>
          <rect x="637.89" y="2176.13" width="63.8" height="5.5" transform="translate(1736.88 164.57) rotate(45)" fill="#231f20"/>
          <rect x="566.33" y="2010.29" width="63.8" height="5.5" transform="translate(-1248.21 1012.62) rotate(-45)" fill="#231f20"/>
          <rect x="635.95" y="1940.67" width="63.8" height="5.5" transform="translate(-1178.6 1041.45) rotate(-45)" fill="#231f20"/>
          <rect x="568.28" y="1942.62" width="63.8" height="5.5" transform="translate(1551.37 145.4) rotate(45)" fill="#231f20"/>
          <rect x="637.89" y="2012.23" width="63.8" height="5.5" transform="translate(1620.98 116.56) rotate(45)" fill="#231f20"/>
          <rect x="711.04" y="2505.07" width="63.8" height="5.5" transform="translate(-1555.69 1259.86) rotate(-45)" fill="#231f20"/>
          <rect x="780.65" y="2435.45" width="63.8" height="5.5" transform="translate(-1486.08 1288.69) rotate(-45)" fill="#231f20"/>
          <rect x="712.98" y="2437.4" width="63.8" height="5.5" transform="translate(1943.62 187.99) rotate(45)" fill="#231f20"/>
          <rect x="782.6" y="2507.01" width="63.8" height="5.5" transform="translate(2013.23 159.16) rotate(45)" fill="#231f20"/>
          <rect x="711.04" y="2341.16" width="63.8" height="5.5" transform="translate(-1439.79 1211.85) rotate(-45)" fill="#231f20"/>
          <rect x="780.65" y="2271.55" width="63.8" height="5.5" transform="translate(-1370.18 1240.69) rotate(-45)" fill="#231f20"/>
          <rect x="712.98" y="2273.49" width="63.8" height="5.5" transform="translate(1827.72 139.98) rotate(45)" fill="#231f20"/>
          <rect x="782.6" y="2343.11" width="63.8" height="5.5" transform="translate(1897.33 111.15) rotate(45)" fill="#231f20"/>
          <rect x="710.24" y="2175.32" width="63.8" height="5.5" transform="translate(-1322.76 1162.72) rotate(-45)" fill="#231f20"/>
          <rect x="779.86" y="2105.7" width="63.8" height="5.5" transform="translate(-1253.14 1191.55) rotate(-45)" fill="#231f20"/>
          <rect x="712.19" y="2107.65" width="63.8" height="5.5" transform="translate(1710.21 91.97) rotate(45)" fill="#231f20"/>
          <rect x="781.8" y="2177.26" width="63.8" height="5.5" transform="translate(1779.83 63.14) rotate(45)" fill="#231f20"/>
          <rect x="710.24" y="2011.41" width="63.8" height="5.5" transform="translate(-1206.86 1114.71) rotate(-45)" fill="#231f20"/>
          <rect x="779.86" y="1941.8" width="63.8" height="5.5" transform="translate(-1137.25 1143.54) rotate(-45)" fill="#231f20"/>
          <rect x="712.19" y="1943.74" width="63.8" height="5.5" transform="translate(1594.32 43.96) rotate(45)" fill="#231f20"/>
          <rect x="781.8" y="2013.36" width="63.8" height="5.5" transform="translate(1663.93 15.13) rotate(45)" fill="#231f20"/>
          <rect x="565.01" y="1866.04" width="63.8" height="5.5" transform="translate(-1146.6 969.44) rotate(-45)" fill="#231f20"/>
          <rect x="634.62" y="1796.43" width="63.8" height="5.5" transform="translate(-1076.99 998.27) rotate(-45)" fill="#231f20"/>
          <rect x="566.96" y="1798.37" width="63.8" height="5.5" transform="translate(1448.99 104.08) rotate(45)" fill="#231f20"/>
          <rect x="636.57" y="1867.99" width="63.8" height="5.5" transform="translate(1518.6 75.25) rotate(45)" fill="#231f20"/>
          <rect x="565.01" y="1702.14" width="63.8" height="5.5" transform="translate(-1030.71 921.43) rotate(-45)" fill="#231f20"/>
          <rect x="634.62" y="1632.52" width="63.8" height="5.5" transform="translate(-961.09 950.26) rotate(-45)" fill="#231f20"/>
          <rect x="566.96" y="1634.47" width="63.8" height="5.5" transform="translate(1333.09 56.08) rotate(45)" fill="#231f20"/>
          <rect x="636.57" y="1704.08" width="63.8" height="5.5" transform="translate(1402.7 27.24) rotate(45)" fill="#231f20"/>
          <rect x="564.22" y="1536.29" width="63.8" height="5.5" transform="translate(-913.67 872.29) rotate(-45)" fill="#231f20"/>
          <rect x="633.83" y="1466.68" width="63.8" height="5.5" transform="translate(-844.05 901.13) rotate(-45)" fill="#231f20"/>
          <rect x="566.16" y="1468.62" width="63.8" height="5.5" transform="translate(1215.58 8.06) rotate(45)" fill="#231f20"/>
          <rect x="635.77" y="1538.24" width="63.8" height="5.5" transform="translate(1285.2 -20.77) rotate(45)" fill="#231f20"/>
          <rect x="564.22" y="1372.39" width="63.8" height="5.5" transform="translate(-797.77 824.29) rotate(-45)" fill="#231f20"/>
          <rect x="633.83" y="1302.77" width="63.8" height="5.5" transform="translate(-728.16 853.12) rotate(-45)" fill="#231f20"/>
          <rect x="566.16" y="1304.72" width="63.8" height="5.5" transform="translate(1099.69 -39.94) rotate(45)" fill="#231f20"/>
          <rect x="635.77" y="1374.33" width="63.8" height="5.5" transform="translate(1169.3 -68.78) rotate(45)" fill="#231f20"/>
          <rect x="708.92" y="1867.17" width="63.8" height="5.5" transform="translate(-1105.25 1071.53) rotate(-45)" fill="#231f20"/>
          <rect x="778.54" y="1797.55" width="63.8" height="5.5" transform="translate(-1035.64 1100.36) rotate(-45)" fill="#231f20"/>
          <rect x="710.87" y="1799.5" width="63.8" height="5.5" transform="translate(1491.93 2.65) rotate(45)" fill="#231f20"/>
          <rect x="780.48" y="1869.11" width="63.8" height="5.5" transform="translate(1561.55 -26.18) rotate(45)" fill="#231f20"/>
          <rect x="708.92" y="1703.27" width="63.8" height="5.5" transform="translate(-989.35 1023.52) rotate(-45)" fill="#231f20"/>
          <rect x="778.54" y="1633.65" width="63.8" height="5.5" transform="translate(-919.74 1052.36) rotate(-45)" fill="#231f20"/>
          <rect x="710.87" y="1635.6" width="63.8" height="5.5" transform="translate(1376.04 -45.36) rotate(45)" fill="#231f20"/>
          <rect x="780.48" y="1705.21" width="63.8" height="5.5" transform="translate(1445.65 -74.19) rotate(45)" fill="#231f20"/>
          <rect x="708.13" y="1537.42" width="63.8" height="5.5" transform="translate(-872.31 974.38) rotate(-45)" fill="#231f20"/>
          <rect x="777.74" y="1467.8" width="63.8" height="5.5" transform="translate(-802.7 1003.22) rotate(-45)" fill="#231f20"/>
          <rect x="710.07" y="1469.75" width="63.8" height="5.5" transform="translate(1258.53 -93.37) rotate(45)" fill="#231f20"/>
          <rect x="779.69" y="1539.36" width="63.8" height="5.5" transform="translate(1328.15 -122.2) rotate(45)" fill="#231f20"/>
          <rect x="708.13" y="1373.52" width="63.8" height="5.5" transform="translate(-756.42 926.38) rotate(-45)" fill="#231f20"/>
          <rect x="777.74" y="1303.9" width="63.8" height="5.5" transform="translate(-686.8 955.21) rotate(-45)" fill="#231f20"/>
          <rect x="710.07" y="1305.85" width="63.8" height="5.5" transform="translate(1142.64 -141.37) rotate(45)" fill="#231f20"/>
          <rect x="779.69" y="1375.46" width="63.8" height="5.5" transform="translate(1212.25 -170.21) rotate(45)" fill="#231f20"/>
        </g>
      </g>
      <g>
        <g>
          <rect x="282.14" y="1222.92" width="63.8" height="5.5" transform="translate(-774.7 581.05) rotate(-45)" fill="#231f20"/>
          <rect x="351.75" y="1153.3" width="63.8" height="5.5" transform="translate(-705.08 609.88) rotate(-45)" fill="#231f20"/>
          <rect x="284.08" y="1155.25" width="63.8" height="5.5" transform="translate(911.38 115.74) rotate(45)" fill="#231f20"/>
          <rect x="353.7" y="1224.86" width="63.8" height="5.5" transform="translate(980.99 86.9) rotate(45)" fill="#231f20"/>
          <rect x="282.14" y="1059.01" width="63.8" height="5.5" transform="translate(-658.8 533.04) rotate(-45)" fill="#231f20"/>
          <rect x="351.75" y="989.4" width="63.8" height="5.5" transform="translate(-589.19 561.88) rotate(-45)" fill="#231f20"/>
          <rect x="284.08" y="991.34" width="63.8" height="5.5" transform="translate(795.48 67.73) rotate(45)" fill="#231f20"/>
          <rect x="353.7" y="1060.96" width="63.8" height="5.5" transform="translate(865.09 38.89) rotate(45)" fill="#231f20"/>
          <rect x="281.34" y="893.16" width="63.8" height="5.5" transform="translate(-541.76 483.9) rotate(-45)" fill="#231f20"/>
          <rect x="350.96" y="823.55" width="63.8" height="5.5" transform="translate(-472.15 512.74) rotate(-45)" fill="#231f20"/>
          <rect x="283.29" y="825.5" width="63.8" height="5.5" transform="translate(677.97 19.72) rotate(45)" fill="#231f20"/>
          <rect x="352.9" y="895.11" width="63.8" height="5.5" transform="translate(747.59 -9.12) rotate(45)" fill="#231f20"/>
          <rect x="281.34" y="729.26" width="63.8" height="5.5" transform="translate(-425.86 435.9) rotate(-45)" fill="#231f20"/>
          <rect x="350.96" y="659.65" width="63.8" height="5.5" transform="translate(-356.25 464.73) rotate(-45)" fill="#231f20"/>
          <rect x="283.29" y="661.59" width="63.8" height="5.5" transform="translate(562.08 -28.29) rotate(45)" fill="#231f20"/>
          <rect x="352.9" y="731.21" width="63.8" height="5.5" transform="translate(631.69 -57.12) rotate(45)" fill="#231f20"/>
          <rect x="426.05" y="1224.04" width="63.8" height="5.5" transform="translate(-733.34 683.14) rotate(-45)" fill="#231f20"/>
          <rect x="495.66" y="1154.43" width="63.8" height="5.5" transform="translate(-663.73 711.97) rotate(-45)" fill="#231f20"/>
          <rect x="428" y="1156.37" width="63.8" height="5.5" transform="translate(954.32 14.3) rotate(45)" fill="#231f20"/>
          <rect x="497.61" y="1225.99" width="63.8" height="5.5" transform="translate(1023.94 -14.53) rotate(45)" fill="#231f20"/>
          <rect x="426.05" y="1060.14" width="63.8" height="5.5" transform="translate(-617.45 635.13) rotate(-45)" fill="#231f20"/>
          <rect x="495.66" y="990.53" width="63.8" height="5.5" transform="translate(-547.83 663.97) rotate(-45)" fill="#231f20"/>
          <rect x="428" y="992.47" width="63.8" height="5.5" transform="translate(838.43 -33.7) rotate(45)" fill="#231f20"/>
          <rect x="497.61" y="1062.08" width="63.8" height="5.5" transform="translate(908.04 -62.54) rotate(45)" fill="#231f20"/>
          <rect x="425.26" y="894.29" width="63.8" height="5.5" transform="translate(-500.41 586) rotate(-45)" fill="#231f20"/>
          <rect x="494.87" y="824.68" width="63.8" height="5.5" transform="translate(-430.79 614.83) rotate(-45)" fill="#231f20"/>
          <rect x="427.2" y="826.62" width="63.8" height="5.5" transform="translate(720.92 -81.71) rotate(45)" fill="#231f20"/>
          <rect x="496.81" y="896.24" width="63.8" height="5.5" transform="translate(790.54 -110.55) rotate(45)" fill="#231f20"/>
          <rect x="425.26" y="730.39" width="63.8" height="5.5" transform="translate(-384.51 537.99) rotate(-45)" fill="#231f20"/>
          <rect x="494.87" y="660.78" width="63.8" height="5.5" transform="translate(-314.9 566.82) rotate(-45)" fill="#231f20"/>
          <rect x="427.2" y="662.72" width="63.8" height="5.5" transform="translate(605.03 -129.72) rotate(45)" fill="#231f20"/>
          <rect x="496.81" y="732.33" width="63.8" height="5.5" transform="translate(674.64 -158.56) rotate(45)" fill="#231f20"/>
          <rect x="280.02" y="585.02" width="63.8" height="5.5" transform="translate(-324.25 392.72) rotate(-45)" fill="#231f20"/>
          <rect x="349.64" y="515.4" width="63.8" height="5.5" transform="translate(-254.64 421.55) rotate(-45)" fill="#231f20"/>
          <rect x="281.97" y="517.35" width="63.8" height="5.5" transform="translate(459.69 -69.6) rotate(45)" fill="#231f20"/>
          <rect x="351.58" y="586.96" width="63.8" height="5.5" transform="translate(529.31 -98.44) rotate(45)" fill="#231f20"/>
          <rect x="280.02" y="421.11" width="63.8" height="5.5" transform="translate(-208.36 344.71) rotate(-45)" fill="#231f20"/>
          <rect x="349.64" y="351.5" width="63.8" height="5.5" transform="translate(-138.74 373.54) rotate(-45)" fill="#231f20"/>
          <rect x="281.97" y="353.45" width="63.8" height="5.5" transform="translate(343.8 -117.61) rotate(45)" fill="#231f20"/>
          <rect x="351.58" y="423.06" width="63.8" height="5.5" transform="translate(413.41 -146.44) rotate(45)" fill="#231f20"/>
          <rect x="279.23" y="255.27" width="63.8" height="5.5" transform="translate(-91.32 295.57) rotate(-45)" fill="#231f20"/>
          <rect x="348.84" y="185.65" width="63.8" height="5.5" transform="translate(-21.71 324.41) rotate(-45)" fill="#231f20"/>
          <rect x="281.17" y="187.6" width="63.8" height="5.5" transform="translate(226.29 -165.62) rotate(45)" fill="#231f20"/>
          <rect x="350.79" y="257.21" width="63.8" height="5.5" transform="translate(295.91 -194.46) rotate(45)" fill="#231f20"/>
          <rect x="279.23" y="91.36" width="63.8" height="5.5" transform="translate(24.58 247.57) rotate(-45)" fill="#231f20"/>
          <rect x="348.84" y="21.75" width="63.8" height="5.5" transform="translate(94.19 276.4) rotate(-45)" fill="#231f20"/>
          <rect x="281.17" y="23.7" width="63.8" height="5.5" transform="translate(110.4 -213.63) rotate(45)" fill="#231f20"/>
          <rect x="350.79" y="93.31" width="63.8" height="5.5" transform="translate(180.01 -242.46) rotate(45)" fill="#231f20"/>
          <rect x="423.93" y="586.15" width="63.8" height="5.5" transform="translate(-282.9 494.81) rotate(-45)" fill="#231f20"/>
          <rect x="493.55" y="516.53" width="63.8" height="5.5" transform="translate(-213.29 523.64) rotate(-45)" fill="#231f20"/>
          <rect x="425.88" y="518.48" width="63.8" height="5.5" transform="translate(502.64 -171.03) rotate(45)" fill="#231f20"/>
          <rect x="495.49" y="588.09" width="63.8" height="5.5" transform="translate(572.26 -199.87) rotate(45)" fill="#231f20"/>
          <rect x="423.93" y="422.24" width="63.8" height="5.5" transform="translate(-167 446.8) rotate(-45)" fill="#231f20"/>
          <rect x="493.55" y="352.63" width="63.8" height="5.5" transform="translate(-97.39 475.64) rotate(-45)" fill="#231f20"/>
          <rect x="425.88" y="354.57" width="63.8" height="5.5" transform="translate(386.75 -219.04) rotate(45)" fill="#231f20"/>
          <rect x="495.49" y="424.19" width="63.8" height="5.5" transform="translate(456.36 -247.88) rotate(45)" fill="#231f20"/>
          <rect x="423.14" y="256.4" width="63.8" height="5.5" transform="translate(-49.97 397.66) rotate(-45)" fill="#231f20"/>
          <rect x="492.75" y="186.78" width="63.8" height="5.5" transform="translate(19.65 426.5) rotate(-45)" fill="#231f20"/>
          <rect x="425.08" y="188.73" width="63.8" height="5.5" transform="translate(269.24 -267.05) rotate(45)" fill="#231f20"/>
          <rect x="494.7" y="258.34" width="63.8" height="5.5" transform="translate(338.86 -295.89) rotate(45)" fill="#231f20"/>
          <rect x="423.14" y="92.49" width="63.8" height="5.5" transform="translate(65.93 349.66) rotate(-45)" fill="#231f20"/>
          <rect x="492.75" y="22.88" width="63.8" height="5.5" transform="translate(135.55 378.49) rotate(-45)" fill="#231f20"/>
          <rect x="425.08" y="24.82" width="63.8" height="5.5" transform="translate(153.34 -315.06) rotate(45)" fill="#231f20"/>
          <rect x="494.7" y="94.44" width="63.8" height="5.5" transform="translate(222.96 -343.9) rotate(45)" fill="#231f20"/>
        </g>
        <g>
          <rect x="-4.49" y="1222.92" width="63.8" height="5.5" transform="translate(-858.65 378.37) rotate(-45)" fill="#231f20"/>
          <rect x="65.13" y="1153.3" width="63.8" height="5.5" transform="translate(-789.03 407.21) rotate(-45)" fill="#231f20"/>
          <rect x="-2.54" y="1155.25" width="63.8" height="5.5" transform="translate(827.43 318.41) rotate(45)" fill="#231f20"/>
          <rect x="67.07" y="1224.86" width="63.8" height="5.5" transform="translate(897.04 289.58) rotate(45)" fill="#231f20"/>
          <rect x="-4.49" y="1059.01" width="63.8" height="5.5" transform="translate(-742.75 330.37) rotate(-45)" fill="#231f20"/>
          <rect x="65.13" y="989.4" width="63.8" height="5.5" transform="translate(-673.14 359.2) rotate(-45)" fill="#231f20"/>
          <rect x="-2.54" y="991.34" width="63.8" height="5.5" transform="translate(711.53 270.4) rotate(45)" fill="#231f20"/>
          <rect x="67.07" y="1060.96" width="63.8" height="5.5" transform="translate(781.14 241.57) rotate(45)" fill="#231f20"/>
          <rect x="-5.28" y="893.16" width="63.8" height="5.5" transform="translate(-625.71 281.23) rotate(-45)" fill="#231f20"/>
          <rect x="64.33" y="823.55" width="63.8" height="5.5" transform="translate(-556.1 310.06) rotate(-45)" fill="#231f20"/>
          <rect x="-3.34" y="825.5" width="63.8" height="5.5" transform="translate(594.02 222.39) rotate(45)" fill="#231f20"/>
          <rect x="66.28" y="895.11" width="63.8" height="5.5" transform="translate(663.64 193.56) rotate(45)" fill="#231f20"/>
          <rect x="-5.28" y="729.26" width="63.8" height="5.5" transform="translate(-509.81 233.22) rotate(-45)" fill="#231f20"/>
          <rect x="64.33" y="659.65" width="63.8" height="5.5" transform="translate(-440.2 262.06) rotate(-45)" fill="#231f20"/>
          <rect x="-3.34" y="661.59" width="63.8" height="5.5" transform="translate(478.13 174.39) rotate(45)" fill="#231f20"/>
          <rect x="66.28" y="731.21" width="63.8" height="5.5" transform="translate(547.74 145.55) rotate(45)" fill="#231f20"/>
          <rect x="139.43" y="1224.04" width="63.8" height="5.5" transform="translate(-817.29 480.46) rotate(-45)" fill="#231f20"/>
          <rect x="209.04" y="1154.43" width="63.8" height="5.5" transform="translate(-747.68 509.3) rotate(-45)" fill="#231f20"/>
          <rect x="141.37" y="1156.37" width="63.8" height="5.5" transform="translate(870.37 216.98) rotate(45)" fill="#231f20"/>
          <rect x="210.98" y="1225.99" width="63.8" height="5.5" transform="translate(939.99 188.14) rotate(45)" fill="#231f20"/>
          <rect x="139.43" y="1060.14" width="63.8" height="5.5" transform="translate(-701.4 432.46) rotate(-45)" fill="#231f20"/>
          <rect x="209.04" y="990.53" width="63.8" height="5.5" transform="translate(-631.78 461.29) rotate(-45)" fill="#231f20"/>
          <rect x="141.37" y="992.47" width="63.8" height="5.5" transform="translate(754.48 168.97) rotate(45)" fill="#231f20"/>
          <rect x="210.98" y="1062.08" width="63.8" height="5.5" transform="translate(824.09 140.14) rotate(45)" fill="#231f20"/>
          <rect x="138.63" y="894.29" width="63.8" height="5.5" transform="translate(-584.36 383.32) rotate(-45)" fill="#231f20"/>
          <rect x="208.24" y="824.68" width="63.8" height="5.5" transform="translate(-514.74 412.16) rotate(-45)" fill="#231f20"/>
          <rect x="140.57" y="826.62" width="63.8" height="5.5" transform="translate(636.97 120.96) rotate(45)" fill="#231f20"/>
          <rect x="210.19" y="896.24" width="63.8" height="5.5" transform="translate(706.59 92.13) rotate(45)" fill="#231f20"/>
          <rect x="138.63" y="730.39" width="63.8" height="5.5" transform="translate(-468.46 335.31) rotate(-45)" fill="#231f20"/>
          <rect x="208.24" y="660.78" width="63.8" height="5.5" transform="translate(-398.85 364.15) rotate(-45)" fill="#231f20"/>
          <rect x="140.57" y="662.72" width="63.8" height="5.5" transform="translate(521.08 72.95) rotate(45)" fill="#231f20"/>
          <rect x="210.19" y="732.33" width="63.8" height="5.5" transform="translate(590.69 44.12) rotate(45)" fill="#231f20"/>
          <rect x="-6.6" y="585.02" width="63.8" height="5.5" transform="translate(-408.21 190.04) rotate(-45)" fill="#231f20"/>
          <rect x="63.01" y="515.4" width="63.8" height="5.5" transform="translate(-338.59 218.88) rotate(-45)" fill="#231f20"/>
          <rect x="-4.66" y="517.35" width="63.8" height="5.5" transform="translate(375.74 133.07) rotate(45)" fill="#231f20"/>
          <rect x="64.96" y="586.96" width="63.8" height="5.5" transform="translate(445.36 104.24) rotate(45)" fill="#231f20"/>
          <rect x="-6.6" y="421.11" width="63.8" height="5.5" transform="translate(-292.31 142.03) rotate(-45)" fill="#231f20"/>
          <rect x="63.01" y="351.5" width="63.8" height="5.5" transform="translate(-222.69 170.87) rotate(-45)" fill="#231f20"/>
          <rect x="-4.66" y="353.45" width="63.8" height="5.5" transform="translate(259.85 85.07) rotate(45)" fill="#231f20"/>
          <rect x="64.96" y="423.06" width="63.8" height="5.5" transform="translate(329.46 56.23) rotate(45)" fill="#231f20"/>
          <rect x="-7.4" y="255.27" width="63.8" height="5.5" transform="translate(-175.27 92.9) rotate(-45)" fill="#231f20"/>
          <rect x="62.22" y="185.65" width="63.8" height="5.5" transform="translate(-105.66 121.73) rotate(-45)" fill="#231f20"/>
          <rect x="-5.45" y="187.6" width="63.8" height="5.5" transform="translate(142.34 37.05) rotate(45)" fill="#231f20"/>
          <rect x="64.16" y="257.21" width="63.8" height="5.5" transform="translate(211.96 8.22) rotate(45)" fill="#231f20"/>
          <rect x="-7.4" y="91.36" width="63.8" height="5.5" transform="translate(-59.37 44.89) rotate(-45)" fill="#231f20"/>
          <rect x="62.22" y="21.75" width="63.8" height="5.5" transform="translate(10.24 73.73) rotate(-45)" fill="#231f20"/>
          <rect x="-5.45" y="23.7" width="63.8" height="5.5" transform="translate(26.45 -10.95) rotate(45)" fill="#231f20"/>
          <rect x="64.16" y="93.31" width="63.8" height="5.5" transform="translate(96.06 -39.79) rotate(45)" fill="#231f20"/>
          <rect x="137.31" y="586.15" width="63.8" height="5.5" transform="translate(-366.85 292.13) rotate(-45)" fill="#231f20"/>
          <rect x="206.92" y="516.53" width="63.8" height="5.5" transform="translate(-297.24 320.97) rotate(-45)" fill="#231f20"/>
          <rect x="139.25" y="518.48" width="63.8" height="5.5" transform="translate(418.69 31.64) rotate(45)" fill="#231f20"/>
          <rect x="208.87" y="588.09" width="63.8" height="5.5" transform="translate(488.31 2.81) rotate(45)" fill="#231f20"/>
          <rect x="137.31" y="422.24" width="63.8" height="5.5" transform="translate(-250.96 244.13) rotate(-45)" fill="#231f20"/>
          <rect x="206.92" y="352.63" width="63.8" height="5.5" transform="translate(-181.34 272.96) rotate(-45)" fill="#231f20"/>
          <rect x="139.25" y="354.57" width="63.8" height="5.5" transform="translate(302.8 -16.37) rotate(45)" fill="#231f20"/>
          <rect x="208.87" y="424.19" width="63.8" height="5.5" transform="translate(372.41 -45.2) rotate(45)" fill="#231f20"/>
          <rect x="136.51" y="256.4" width="63.8" height="5.5" transform="translate(-133.92 194.99) rotate(-45)" fill="#231f20"/>
          <rect x="206.13" y="186.78" width="63.8" height="5.5" transform="translate(-64.3 223.82) rotate(-45)" fill="#231f20"/>
          <rect x="138.46" y="188.73" width="63.8" height="5.5" transform="translate(185.29 -64.38) rotate(45)" fill="#231f20"/>
          <rect x="208.07" y="258.34" width="63.8" height="5.5" transform="translate(254.9 -93.21) rotate(45)" fill="#231f20"/>
          <rect x="136.51" y="92.49" width="63.8" height="5.5" transform="translate(-18.02 146.98) rotate(-45)" fill="#231f20"/>
          <rect x="206.13" y="22.88" width="63.8" height="5.5" transform="translate(51.59 175.82) rotate(-45)" fill="#231f20"/>
          <rect x="138.46" y="24.82" width="63.8" height="5.5" transform="translate(69.39 -112.38) rotate(45)" fill="#231f20"/>
          <rect x="208.07" y="94.44" width="63.8" height="5.5" transform="translate(139.01 -141.22) rotate(45)" fill="#231f20"/>
        </g>
      </g>
      <g>
        <g>
          <rect x="282.62" y="2503.9" width="63.8" height="5.5" transform="translate(-1680.35 956.58) rotate(-45)" fill="#231f20"/>
          <rect x="352.23" y="2434.29" width="63.8" height="5.5" transform="translate(-1610.74 985.42) rotate(-45)" fill="#231f20"/>
          <rect x="284.56" y="2436.24" width="63.8" height="5.5" transform="translate(1817.31 490.59) rotate(45)" fill="#231f20"/>
          <rect x="354.18" y="2505.85" width="63.8" height="5.5" transform="translate(1886.93 461.75) rotate(45)" fill="#231f20"/>
          <rect x="282.62" y="2340" width="63.8" height="5.5" transform="translate(-1564.45 908.58) rotate(-45)" fill="#231f20"/>
          <rect x="352.23" y="2270.39" width="63.8" height="5.5" transform="translate(-1494.84 937.41) rotate(-45)" fill="#231f20"/>
          <rect x="284.56" y="2272.33" width="63.8" height="5.5" transform="translate(1701.42 442.58) rotate(45)" fill="#231f20"/>
          <rect x="354.18" y="2341.95" width="63.8" height="5.5" transform="translate(1771.03 413.75) rotate(45)" fill="#231f20"/>
          <rect x="281.82" y="2174.15" width="63.8" height="5.5" transform="translate(-1447.42 859.44) rotate(-45)" fill="#231f20"/>
          <rect x="351.44" y="2104.54" width="63.8" height="5.5" transform="translate(-1377.8 888.27) rotate(-45)" fill="#231f20"/>
          <rect x="283.77" y="2106.49" width="63.8" height="5.5" transform="translate(1583.91 394.57) rotate(45)" fill="#231f20"/>
          <rect x="353.38" y="2176.1" width="63.8" height="5.5" transform="translate(1653.53 365.73) rotate(45)" fill="#231f20"/>
          <rect x="281.82" y="2010.25" width="63.8" height="5.5" transform="translate(-1331.52 811.43) rotate(-45)" fill="#231f20"/>
          <rect x="351.44" y="1940.64" width="63.8" height="5.5" transform="translate(-1261.91 840.27) rotate(-45)" fill="#231f20"/>
          <rect x="283.77" y="1942.58" width="63.8" height="5.5" transform="translate(1468.01 346.56) rotate(45)" fill="#231f20"/>
          <rect x="353.38" y="2012.2" width="63.8" height="5.5" transform="translate(1537.63 317.73) rotate(45)" fill="#231f20"/>
          <rect x="426.53" y="2505.03" width="63.8" height="5.5" transform="translate(-1639 1058.67) rotate(-45)" fill="#231f20"/>
          <rect x="496.15" y="2435.42" width="63.8" height="5.5" transform="translate(-1569.38 1087.51) rotate(-45)" fill="#231f20"/>
          <rect x="428.48" y="2437.36" width="63.8" height="5.5" transform="translate(1860.26 389.16) rotate(45)" fill="#231f20"/>
          <rect x="498.09" y="2506.98" width="63.8" height="5.5" transform="translate(1929.88 360.32) rotate(45)" fill="#231f20"/>
          <rect x="426.53" y="2341.13" width="63.8" height="5.5" transform="translate(-1523.1 1010.67) rotate(-45)" fill="#231f20"/>
          <rect x="496.15" y="2271.52" width="63.8" height="5.5" transform="translate(-1453.49 1039.5) rotate(-45)" fill="#231f20"/>
          <rect x="428.48" y="2273.46" width="63.8" height="5.5" transform="translate(1744.36 341.15) rotate(45)" fill="#231f20"/>
          <rect x="498.09" y="2343.07" width="63.8" height="5.5" transform="translate(1813.98 312.32) rotate(45)" fill="#231f20"/>
          <rect x="425.74" y="2175.28" width="63.8" height="5.5" transform="translate(-1406.06 961.53) rotate(-45)" fill="#231f20"/>
          <rect x="495.35" y="2105.67" width="63.8" height="5.5" transform="translate(-1336.45 990.36) rotate(-45)" fill="#231f20"/>
          <rect x="427.68" y="2107.61" width="63.8" height="5.5" transform="translate(1626.86 293.14) rotate(45)" fill="#231f20"/>
          <rect x="497.3" y="2177.23" width="63.8" height="5.5" transform="translate(1696.47 264.3) rotate(45)" fill="#231f20"/>
          <rect x="425.74" y="2011.38" width="63.8" height="5.5" transform="translate(-1290.17 913.52) rotate(-45)" fill="#231f20"/>
          <rect x="495.35" y="1941.77" width="63.8" height="5.5" transform="translate(-1220.55 942.36) rotate(-45)" fill="#231f20"/>
          <rect x="427.68" y="1943.71" width="63.8" height="5.5" transform="translate(1510.96 245.13) rotate(45)" fill="#231f20"/>
          <rect x="497.3" y="2013.32" width="63.8" height="5.5" transform="translate(1580.58 216.3) rotate(45)" fill="#231f20"/>
          <rect x="280.5" y="1866.01" width="63.8" height="5.5" transform="translate(-1229.91 768.25) rotate(-45)" fill="#231f20"/>
          <rect x="350.12" y="1796.39" width="63.8" height="5.5" transform="translate(-1160.3 797.08) rotate(-45)" fill="#231f20"/>
          <rect x="282.45" y="1798.34" width="63.8" height="5.5" transform="translate(1365.63 305.25) rotate(45)" fill="#231f20"/>
          <rect x="352.06" y="1867.95" width="63.8" height="5.5" transform="translate(1435.25 276.41) rotate(45)" fill="#231f20"/>
          <rect x="280.5" y="1702.1" width="63.8" height="5.5" transform="translate(-1114.01 720.24) rotate(-45)" fill="#231f20"/>
          <rect x="350.12" y="1632.49" width="63.8" height="5.5" transform="translate(-1044.4 749.08) rotate(-45)" fill="#231f20"/>
          <rect x="282.45" y="1634.44" width="63.8" height="5.5" transform="translate(1249.73 257.24) rotate(45)" fill="#231f20"/>
          <rect x="352.06" y="1704.05" width="63.8" height="5.5" transform="translate(1319.35 228.41) rotate(45)" fill="#231f20"/>
          <rect x="279.71" y="1536.26" width="63.8" height="5.5" transform="translate(-996.97 671.1) rotate(-45)" fill="#231f20"/>
          <rect x="349.32" y="1466.64" width="63.8" height="5.5" transform="translate(-927.36 699.94) rotate(-45)" fill="#231f20"/>
          <rect x="281.65" y="1468.59" width="63.8" height="5.5" transform="translate(1132.23 209.23) rotate(45)" fill="#231f20"/>
          <rect x="351.27" y="1538.2" width="63.8" height="5.5" transform="translate(1201.84 180.39) rotate(45)" fill="#231f20"/>
          <rect x="279.71" y="1372.35" width="63.8" height="5.5" transform="translate(-881.08 623.1) rotate(-45)" fill="#231f20"/>
          <rect x="349.32" y="1302.74" width="63.8" height="5.5" transform="translate(-811.46 651.93) rotate(-45)" fill="#231f20"/>
          <rect x="281.65" y="1304.68" width="63.8" height="5.5" transform="translate(1016.33 161.22) rotate(45)" fill="#231f20"/>
          <rect x="351.27" y="1374.3" width="63.8" height="5.5" transform="translate(1085.95 132.39) rotate(45)" fill="#231f20"/>
          <rect x="424.42" y="1867.13" width="63.8" height="5.5" transform="translate(-1188.56 870.34) rotate(-45)" fill="#231f20"/>
          <rect x="494.03" y="1797.52" width="63.8" height="5.5" transform="translate(-1118.94 899.18) rotate(-45)" fill="#231f20"/>
          <rect x="426.36" y="1799.47" width="63.8" height="5.5" transform="translate(1408.58 203.82) rotate(45)" fill="#231f20"/>
          <rect x="495.97" y="1869.08" width="63.8" height="5.5" transform="translate(1478.19 174.98) rotate(45)" fill="#231f20"/>
          <rect x="424.42" y="1703.23" width="63.8" height="5.5" transform="translate(-1072.66 822.33) rotate(-45)" fill="#231f20"/>
          <rect x="494.03" y="1633.62" width="63.8" height="5.5" transform="translate(-1003.05 851.17) rotate(-45)" fill="#231f20"/>
          <rect x="426.36" y="1635.56" width="63.8" height="5.5" transform="translate(1292.68 155.81) rotate(45)" fill="#231f20"/>
          <rect x="495.97" y="1705.18" width="63.8" height="5.5" transform="translate(1362.3 126.98) rotate(45)" fill="#231f20"/>
          <rect x="423.62" y="1537.38" width="63.8" height="5.5" transform="translate(-955.62 773.2) rotate(-45)" fill="#231f20"/>
          <rect x="493.23" y="1467.77" width="63.8" height="5.5" transform="translate(-886.01 802.03) rotate(-45)" fill="#231f20"/>
          <rect x="425.56" y="1469.72" width="63.8" height="5.5" transform="translate(1175.18 107.8) rotate(45)" fill="#231f20"/>
          <rect x="495.18" y="1539.33" width="63.8" height="5.5" transform="translate(1244.79 78.96) rotate(45)" fill="#231f20"/>
          <rect x="423.62" y="1373.48" width="63.8" height="5.5" transform="translate(-839.72 725.19) rotate(-45)" fill="#231f20"/>
          <rect x="493.23" y="1303.87" width="63.8" height="5.5" transform="translate(-770.11 754.03) rotate(-45)" fill="#231f20"/>
          <rect x="425.56" y="1305.81" width="63.8" height="5.5" transform="translate(1059.28 59.79) rotate(45)" fill="#231f20"/>
          <rect x="495.18" y="1375.43" width="63.8" height="5.5" transform="translate(1128.9 30.96) rotate(45)" fill="#231f20"/>
        </g>
        <g>
          <rect x="-4.01" y="2503.9" width="63.8" height="5.5" transform="translate(-1764.3 753.91) rotate(-45)" fill="#231f20"/>
          <rect x="65.61" y="2434.29" width="63.8" height="5.5" transform="translate(-1694.69 782.74) rotate(-45)" fill="#231f20"/>
          <rect x="-2.06" y="2436.24" width="63.8" height="5.5" transform="translate(1733.36 693.26) rotate(45)" fill="#231f20"/>
          <rect x="67.55" y="2505.85" width="63.8" height="5.5" transform="translate(1802.98 664.43) rotate(45)" fill="#231f20"/>
          <rect x="-4.01" y="2340" width="63.8" height="5.5" transform="translate(-1648.41 705.9) rotate(-45)" fill="#231f20"/>
          <rect x="65.61" y="2270.39" width="63.8" height="5.5" transform="translate(-1578.79 734.74) rotate(-45)" fill="#231f20"/>
          <rect x="-2.06" y="2272.33" width="63.8" height="5.5" transform="translate(1617.47 645.26) rotate(45)" fill="#231f20"/>
          <rect x="67.55" y="2341.95" width="63.8" height="5.5" transform="translate(1687.08 616.42) rotate(45)" fill="#231f20"/>
          <rect x="-4.8" y="2174.15" width="63.8" height="5.5" transform="translate(-1531.37 656.76) rotate(-45)" fill="#231f20"/>
          <rect x="64.81" y="2104.54" width="63.8" height="5.5" transform="translate(-1461.75 685.6) rotate(-45)" fill="#231f20"/>
          <rect x="-2.86" y="2106.49" width="63.8" height="5.5" transform="translate(1499.96 597.24) rotate(45)" fill="#231f20"/>
          <rect x="66.76" y="2176.1" width="63.8" height="5.5" transform="translate(1569.57 568.41) rotate(45)" fill="#231f20"/>
          <rect x="-4.8" y="2010.25" width="63.8" height="5.5" transform="translate(-1415.47 608.76) rotate(-45)" fill="#231f20"/>
          <rect x="64.81" y="1940.64" width="63.8" height="5.5" transform="translate(-1345.86 637.59) rotate(-45)" fill="#231f20"/>
          <rect x="-2.86" y="1942.58" width="63.8" height="5.5" transform="translate(1384.06 549.24) rotate(45)" fill="#231f20"/>
          <rect x="66.76" y="2012.2" width="63.8" height="5.5" transform="translate(1453.68 520.4) rotate(45)" fill="#231f20"/>
          <rect x="139.91" y="2505.03" width="63.8" height="5.5" transform="translate(-1722.95 856) rotate(-45)" fill="#231f20"/>
          <rect x="209.52" y="2435.42" width="63.8" height="5.5" transform="translate(-1653.34 884.83) rotate(-45)" fill="#231f20"/>
          <rect x="141.85" y="2437.36" width="63.8" height="5.5" transform="translate(1776.31 591.83) rotate(45)" fill="#231f20"/>
          <rect x="211.46" y="2506.98" width="63.8" height="5.5" transform="translate(1845.92 563) rotate(45)" fill="#231f20"/>
          <rect x="139.91" y="2341.13" width="63.8" height="5.5" transform="translate(-1607.05 807.99) rotate(-45)" fill="#231f20"/>
          <rect x="209.52" y="2271.52" width="63.8" height="5.5" transform="translate(-1537.44 836.83) rotate(-45)" fill="#231f20"/>
          <rect x="141.85" y="2273.46" width="63.8" height="5.5" transform="translate(1660.41 543.83) rotate(45)" fill="#231f20"/>
          <rect x="211.46" y="2343.07" width="63.8" height="5.5" transform="translate(1730.03 514.99) rotate(45)" fill="#231f20"/>
          <rect x="139.11" y="2175.28" width="63.8" height="5.5" transform="translate(-1490.01 758.85) rotate(-45)" fill="#231f20"/>
          <rect x="208.72" y="2105.67" width="63.8" height="5.5" transform="translate(-1420.4 787.69) rotate(-45)" fill="#231f20"/>
          <rect x="141.06" y="2107.61" width="63.8" height="5.5" transform="translate(1542.91 495.81) rotate(45)" fill="#231f20"/>
          <rect x="210.67" y="2177.23" width="63.8" height="5.5" transform="translate(1612.52 466.98) rotate(45)" fill="#231f20"/>
          <rect x="139.11" y="2011.38" width="63.8" height="5.5" transform="translate(-1374.12 710.85) rotate(-45)" fill="#231f20"/>
          <rect x="208.72" y="1941.77" width="63.8" height="5.5" transform="translate(-1304.5 739.68) rotate(-45)" fill="#231f20"/>
          <rect x="141.06" y="1943.71" width="63.8" height="5.5" transform="translate(1427.01 447.81) rotate(45)" fill="#231f20"/>
          <rect x="210.67" y="2013.32" width="63.8" height="5.5" transform="translate(1496.63 418.97) rotate(45)" fill="#231f20"/>
          <rect x="-6.12" y="1866.01" width="63.8" height="5.5" transform="translate(-1313.86 565.57) rotate(-45)" fill="#231f20"/>
          <rect x="63.49" y="1796.39" width="63.8" height="5.5" transform="translate(-1244.25 594.41) rotate(-45)" fill="#231f20"/>
          <rect x="-4.18" y="1798.34" width="63.8" height="5.5" transform="translate(1281.68 507.92) rotate(45)" fill="#231f20"/>
          <rect x="65.44" y="1867.95" width="63.8" height="5.5" transform="translate(1351.29 479.09) rotate(45)" fill="#231f20"/>
          <rect x="-6.12" y="1702.1" width="63.8" height="5.5" transform="translate(-1197.96 517.57) rotate(-45)" fill="#231f20"/>
          <rect x="63.49" y="1632.49" width="63.8" height="5.5" transform="translate(-1128.35 546.4) rotate(-45)" fill="#231f20"/>
          <rect x="-4.18" y="1634.44" width="63.8" height="5.5" transform="translate(1165.78 459.92) rotate(45)" fill="#231f20"/>
          <rect x="65.44" y="1704.05" width="63.8" height="5.5" transform="translate(1235.4 431.08) rotate(45)" fill="#231f20"/>
          <rect x="-6.92" y="1536.26" width="63.8" height="5.5" transform="translate(-1080.93 468.43) rotate(-45)" fill="#231f20"/>
          <rect x="62.7" y="1466.64" width="63.8" height="5.5" transform="translate(-1011.31 497.26) rotate(-45)" fill="#231f20"/>
          <rect x="-4.97" y="1468.59" width="63.8" height="5.5" transform="translate(1048.28 411.9) rotate(45)" fill="#231f20"/>
          <rect x="64.64" y="1538.2" width="63.8" height="5.5" transform="translate(1117.89 383.07) rotate(45)" fill="#231f20"/>
          <rect x="-6.92" y="1372.35" width="63.8" height="5.5" transform="translate(-965.03 420.42) rotate(-45)" fill="#231f20"/>
          <rect x="62.7" y="1302.74" width="63.8" height="5.5" transform="translate(-895.41 449.26) rotate(-45)" fill="#231f20"/>
          <rect x="-4.97" y="1304.68" width="63.8" height="5.5" transform="translate(932.38 363.9) rotate(45)" fill="#231f20"/>
          <rect x="64.64" y="1374.3" width="63.8" height="5.5" transform="translate(1002 335.06) rotate(45)" fill="#231f20"/>
          <rect x="137.79" y="1867.13" width="63.8" height="5.5" transform="translate(-1272.51 667.67) rotate(-45)" fill="#231f20"/>
          <rect x="207.4" y="1797.52" width="63.8" height="5.5" transform="translate(-1202.89 696.5) rotate(-45)" fill="#231f20"/>
          <rect x="139.73" y="1799.47" width="63.8" height="5.5" transform="translate(1324.63 406.49) rotate(45)" fill="#231f20"/>
          <rect x="209.35" y="1869.08" width="63.8" height="5.5" transform="translate(1394.24 377.66) rotate(45)" fill="#231f20"/>
          <rect x="137.79" y="1703.23" width="63.8" height="5.5" transform="translate(-1156.61 619.66) rotate(-45)" fill="#231f20"/>
          <rect x="207.4" y="1633.62" width="63.8" height="5.5" transform="translate(-1087 648.49) rotate(-45)" fill="#231f20"/>
          <rect x="139.73" y="1635.56" width="63.8" height="5.5" transform="translate(1208.73 358.49) rotate(45)" fill="#231f20"/>
          <rect x="209.35" y="1705.18" width="63.8" height="5.5" transform="translate(1278.35 329.65) rotate(45)" fill="#231f20"/>
          <rect x="136.99" y="1537.38" width="63.8" height="5.5" transform="translate(-1039.57 570.52) rotate(-45)" fill="#231f20"/>
          <rect x="206.61" y="1467.77" width="63.8" height="5.5" transform="translate(-969.96 599.36) rotate(-45)" fill="#231f20"/>
          <rect x="138.94" y="1469.72" width="63.8" height="5.5" transform="translate(1091.23 310.47) rotate(45)" fill="#231f20"/>
          <rect x="208.55" y="1539.33" width="63.8" height="5.5" transform="translate(1160.84 281.64) rotate(45)" fill="#231f20"/>
          <rect x="136.99" y="1373.48" width="63.8" height="5.5" transform="translate(-923.67 522.52) rotate(-45)" fill="#231f20"/>
          <rect x="206.61" y="1303.87" width="63.8" height="5.5" transform="translate(-854.06 551.35) rotate(-45)" fill="#231f20"/>
          <rect x="138.94" y="1305.81" width="63.8" height="5.5" transform="translate(975.33 262.47) rotate(45)" fill="#231f20"/>
          <rect x="208.55" y="1375.43" width="63.8" height="5.5" transform="translate(1044.94 233.63) rotate(45)" fill="#231f20"/>
        </g>
      </g>
    </g>
  </g>
</svg>