<?xml version="1.0" encoding="UTF-8"?>
<svg xmlns="http://www.w3.org/2000/svg" viewBox="0 0 25.49 405.38">
  <g isolation="isolate">
    <g id="Layer_2" data-name="Layer 2">
      <g id="Layer_1-2" data-name="Layer 1">
        <g>
          <g mix-blend-mode="multiply" opacity=".95">
            <g>
              <path d="M24.12,24.96h-5.47v-.86h-1.37v-5.98h1.37v-.85h5.47v.85h1.37v5.98h-1.36v.86ZM20.02,18.13l-.02,5.99h2.76v-5.99h-2.74Z"/>
              <path d="M21.39,34.36v-5.98h-2.74v-.86h2.74v-.85h2.73v7.68h-2.73Z"/>
              <path d="M21.39,43.77v-5.98h-2.74v-.86h2.74v-.85h2.73v7.68h-2.73Z"/>
              <path d="M24.12,53.17h-5.47v-.86h-1.37v-5.98h1.37v-.85h5.47v.85h1.37v5.98h-1.36v.86ZM20.02,46.34l-.02,5.99h2.76v-5.99h-2.74Z"/>
              <path d="M21.39,62.57v-5.98h-2.74v-.86h2.74v-.85h2.73v7.68h-2.73Z"/>
              <path d="M24.12,71.98h-5.47v-.86h-1.37v-5.98h1.37v-.85h5.47v.85h1.37v5.98h-1.36v.86ZM20.02,65.14l-.02,5.99h2.76v-5.99h-2.74Z"/>
              <path d="M24.12,81.38h-5.47v-.86h-1.37v-5.98h1.37v-.85h5.47v.85h1.37v5.98h-1.36v.86ZM20.02,74.54l-.02,5.99h2.76v-5.99h-2.74Z"/>
              <path d="M24.12,90.78h-5.47v-.86h-1.37v-5.98h1.37v-.85h5.47v.85h1.37v5.98h-1.36v.86ZM20.02,83.95l-.02,5.99h2.76v-5.99h-2.74Z"/>
              <path d="M24.12,103.61h-5.47v-.86h-1.37v-5.98h1.37v-.85h5.47v.85h1.37v5.98h-1.36v.86ZM20.02,96.77l-.02,5.99h2.76v-5.99h-2.74Z"/>
              <path d="M21.39,113.01v-5.98h-2.74v-.86h2.74v-.85h2.73v7.68h-2.73Z"/>
              <path d="M21.39,122.41v-5.98h-2.74v-.86h2.74v-.85h2.73v7.68h-2.73Z"/>
              <path d="M24.12,131.82h-5.47v-.86h-1.37v-5.98h1.37v-.85h5.47v.85h1.37v5.98h-1.36v.86ZM20.02,124.98l-.02,5.99h2.76v-5.99h-2.74Z"/>
              <path d="M21.39,141.22v-5.98h-2.74v-.86h2.74v-.85h2.73v7.68h-2.73Z"/>
              <path d="M21.39,150.62v-5.98h-2.74v-.86h2.74v-.85h2.73v7.68h-2.73Z"/>
              <path d="M21.39,160.03v-5.98h-2.74v-.86h2.74v-.85h2.73v7.68h-2.73Z"/>
              <path d="M21.39,169.43v-5.98h-2.74v-.86h2.74v-.85h2.73v7.68h-2.73Z"/>
              <path d="M24.12,182.26h-5.47v-.86h-1.37v-5.98h1.37v-.85h5.47v.85h1.37v5.98h-1.36v.86ZM20.02,175.42l-.02,5.99h2.76v-5.99h-2.74Z"/>
              <path d="M21.39,191.66v-5.98h-2.74v-.86h2.74v-.85h2.73v7.68h-2.73Z"/>
              <path d="M21.39,201.06v-5.98h-2.74v-.86h2.74v-.85h2.73v7.68h-2.73Z"/>
              <path d="M21.39,210.47v-5.98h-2.74v-.86h2.74v-.85h2.73v7.68h-2.73Z"/>
              <path d="M24.12,219.87h-5.47v-.86h-1.37v-5.98h1.37v-.85h5.47v.85h1.37v5.98h-1.36v.86ZM20.02,213.04l-.02,5.99h2.76v-5.99h-2.74Z"/>
              <path d="M21.39,229.27v-5.98h-2.74v-.86h2.74v-.85h2.73v7.68h-2.73Z"/>
              <path d="M21.39,238.68v-5.98h-2.74v-.86h2.74v-.85h2.73v7.68h-2.73Z"/>
              <path d="M21.39,248.08v-5.98h-2.74v-.86h2.74v-.85h2.73v7.68h-2.73Z"/>
              <path d="M24.12,260.91h-5.47v-.86h-1.37v-5.98h1.37v-.85h5.47v.85h1.37v5.98h-1.36v.86ZM20.02,254.07l-.02,5.99h2.76v-5.99h-2.74Z"/>
              <path d="M21.39,270.31v-5.98h-2.74v-.86h2.74v-.85h2.73v7.68h-2.73Z"/>
              <path d="M21.39,279.71v-5.98h-2.74v-.86h2.74v-.85h2.73v7.68h-2.73Z"/>
              <path d="M24.12,289.12h-5.47v-.86h-1.37v-5.98h1.37v-.85h5.47v.85h1.37v5.98h-1.36v.86ZM20.02,282.28l-.02,5.99h2.76v-5.99h-2.74Z"/>
              <path d="M24.12,298.52h-5.47v-.86h-1.37v-5.98h1.37v-.85h5.47v.85h1.37v5.98h-1.36v.86ZM20.02,291.69l-.02,5.99h2.76v-5.99h-2.74Z"/>
              <path d="M24.12,307.92h-5.47v-.86h-1.37v-5.98h1.37v-.85h5.47v.85h1.37v5.98h-1.36v.86ZM20.02,301.09l-.02,5.99h2.76v-5.99h-2.74Z"/>
              <path d="M24.12,317.33h-5.47v-.86h-1.37v-5.98h1.37v-.85h5.47v.85h1.37v5.98h-1.36v.86ZM20.02,310.49l-.02,5.99h2.76v-5.99h-2.74Z"/>
              <path d="M21.39,326.73v-5.98h-2.74v-.86h2.74v-.85h2.73v7.68h-2.73Z"/>
              <path d="M24.12,339.55h-5.47v-.86h-1.37v-5.98h1.37v-.85h5.47v.85h1.37v5.98h-1.36v.86ZM20.02,332.72l-.02,5.99h2.76v-5.99h-2.74Z"/>
              <path d="M21.39,348.96v-5.98h-2.74v-.86h2.74v-.85h2.73v7.68h-2.73Z"/>
              <path d="M21.39,358.36v-5.98h-2.74v-.86h2.74v-.85h2.73v7.68h-2.73Z"/>
              <path d="M21.39,367.76v-5.98h-2.74v-.86h2.74v-.85h2.73v7.68h-2.73Z"/>
              <path d="M24.12,377.17h-5.47v-.86h-1.37v-5.98h1.37v-.85h5.47v.85h1.37v5.98h-1.36v.86ZM20.02,370.33l-.02,5.99h2.76v-5.99h-2.74Z"/>
              <path d="M24.12,386.57h-5.47v-.86h-1.37v-5.98h1.37v-.85h5.47v.85h1.37v5.98h-1.36v.86ZM20.02,379.74l-.02,5.99h2.76v-5.99h-2.74Z"/>
              <path d="M21.39,395.97v-5.98h-2.74v-.86h2.74v-.85h2.73v7.68h-2.73Z"/>
              <path d="M21.39,405.38v-5.98h-2.74v-.86h2.74v-.85h2.73v7.68h-2.73Z"/>
            </g>
          </g>
          <g>
            <path d="M6.84,7.68H1.37v-.86H0V.85h1.37v-.85h5.47v.85h1.37v5.98h-1.36v.86ZM2.74.85l-.02,5.99h2.76V.85h-2.74Z" fill="#eb1c4e"/>
            <path d="M4.11,17.08v-5.98H1.37v-.86h2.74v-.85h2.73v7.68h-2.73Z" fill="#eb1c4e"/>
            <path d="M4.11,26.49v-5.98H1.37v-.86h2.74v-.85h2.73v7.68h-2.73Z" fill="#eb1c4e"/>
            <path d="M6.84,35.89H1.37v-.86H0v-5.98h1.37v-.85h5.47v.85h1.37v5.98h-1.36v.86ZM2.74,29.06l-.02,5.99h2.76v-5.99h-2.74Z" fill="#eb1c4e"/>
            <path d="M4.11,45.29v-5.98H1.37v-.86h2.74v-.85h2.73v7.68h-2.73Z" fill="#eb1c4e"/>
            <path d="M6.84,54.7H1.37v-.86H0v-5.98h1.37v-.85h5.47v.85h1.37v5.98h-1.36v.86ZM2.74,47.86l-.02,5.99h2.76v-5.99h-2.74Z" fill="#eb1c4e"/>
            <path d="M6.84,64.1H1.37v-.86H0v-5.98h1.37v-.85h5.47v.85h1.37v5.98h-1.36v.86ZM2.74,57.27l-.02,5.99h2.76v-5.99h-2.74Z" fill="#eb1c4e"/>
            <path d="M6.84,73.5H1.37v-.86H0v-5.98h1.37v-.85h5.47v.85h1.37v5.98h-1.36v.86ZM2.74,66.67l-.02,5.99h2.76v-5.99h-2.74Z" fill="#eb1c4e"/>
            <path d="M6.84,86.33H1.37v-.86H0v-5.98h1.37v-.85h5.47v.85h1.37v5.98h-1.36v.86ZM2.74,79.49l-.02,5.99h2.76v-5.99h-2.74Z" fill="#eb1c4e"/>
            <path d="M4.11,95.73v-5.98H1.37v-.86h2.74v-.85h2.73v7.68h-2.73Z" fill="#eb1c4e"/>
            <path d="M4.11,105.13v-5.98H1.37v-.86h2.74v-.85h2.73v7.68h-2.73Z" fill="#eb1c4e"/>
            <path d="M6.84,114.54H1.37v-.86H0v-5.98h1.37v-.85h5.47v.85h1.37v5.98h-1.36v.86ZM2.74,107.7l-.02,5.99h2.76v-5.99h-2.74Z" fill="#eb1c4e"/>
            <path d="M4.11,123.94v-5.98H1.37v-.86h2.74v-.85h2.73v7.68h-2.73Z" fill="#eb1c4e"/>
            <path d="M4.11,133.34v-5.98H1.37v-.86h2.74v-.85h2.73v7.68h-2.73Z" fill="#eb1c4e"/>
            <path d="M4.11,142.75v-5.98H1.37v-.86h2.74v-.85h2.73v7.68h-2.73Z" fill="#eb1c4e"/>
            <path d="M4.11,152.15v-5.98H1.37v-.86h2.74v-.85h2.73v7.68h-2.73Z" fill="#eb1c4e"/>
            <path d="M6.84,164.98H1.37v-.86H0v-5.98h1.37v-.85h5.47v.85h1.37v5.98h-1.36v.86ZM2.74,158.14l-.02,5.99h2.76v-5.99h-2.74Z" fill="#eb1c4e"/>
            <path d="M4.11,174.38v-5.98H1.37v-.86h2.74v-.85h2.73v7.68h-2.73Z" fill="#eb1c4e"/>
            <path d="M4.11,183.78v-5.98H1.37v-.86h2.74v-.85h2.73v7.68h-2.73Z" fill="#eb1c4e"/>
            <path d="M4.11,193.19v-5.98H1.37v-.86h2.74v-.85h2.73v7.68h-2.73Z" fill="#eb1c4e"/>
            <path d="M6.84,202.59H1.37v-.86H0v-5.98h1.37v-.85h5.47v.85h1.37v5.98h-1.36v.86ZM2.74,195.76l-.02,5.99h2.76v-5.99h-2.74Z" fill="#eb1c4e"/>
            <path d="M4.11,211.99v-5.98H1.37v-.86h2.74v-.85h2.73v7.68h-2.73Z" fill="#eb1c4e"/>
            <path d="M4.11,221.4v-5.98H1.37v-.86h2.74v-.85h2.73v7.68h-2.73Z" fill="#eb1c4e"/>
            <path d="M4.11,230.8v-5.98H1.37v-.86h2.74v-.85h2.73v7.68h-2.73Z" fill="#eb1c4e"/>
            <path d="M6.84,243.63H1.37v-.86H0v-5.98h1.37v-.85h5.47v.85h1.37v5.98h-1.36v.86ZM2.74,236.79l-.02,5.99h2.76v-5.99h-2.74Z" fill="#eb1c4e"/>
            <path d="M4.11,253.03v-5.98H1.37v-.86h2.74v-.85h2.73v7.68h-2.73Z" fill="#eb1c4e"/>
            <path d="M4.11,262.43v-5.98H1.37v-.86h2.74v-.85h2.73v7.68h-2.73Z" fill="#eb1c4e"/>
            <path d="M6.84,271.84H1.37v-.86H0v-5.98h1.37v-.85h5.47v.85h1.37v5.98h-1.36v.86ZM2.74,265l-.02,5.99h2.76v-5.99h-2.74Z" fill="#eb1c4e"/>
            <path d="M6.84,281.24H1.37v-.86H0v-5.98h1.37v-.85h5.47v.85h1.37v5.98h-1.36v.86ZM2.74,274.41l-.02,5.99h2.76v-5.99h-2.74Z" fill="#eb1c4e"/>
            <path d="M6.84,290.64H1.37v-.86H0v-5.98h1.37v-.85h5.47v.85h1.37v5.98h-1.36v.86ZM2.74,283.81l-.02,5.99h2.76v-5.99h-2.74Z" fill="#eb1c4e"/>
            <path d="M6.84,300.05H1.37v-.86H0v-5.98h1.37v-.85h5.47v.85h1.37v5.98h-1.36v.86ZM2.74,293.21l-.02,5.99h2.76v-5.99h-2.74Z" fill="#eb1c4e"/>
            <path d="M4.11,309.45v-5.98H1.37v-.86h2.74v-.85h2.73v7.68h-2.73Z" fill="#eb1c4e"/>
            <path d="M6.84,322.27H1.37v-.86H0v-5.98h1.37v-.85h5.47v.85h1.37v5.98h-1.36v.86ZM2.74,315.44l-.02,5.99h2.76v-5.99h-2.74Z" fill="#eb1c4e"/>
            <path d="M4.11,331.68v-5.98H1.37v-.86h2.74v-.85h2.73v7.68h-2.73Z" fill="#eb1c4e"/>
            <path d="M4.11,341.08v-5.98H1.37v-.86h2.74v-.85h2.73v7.68h-2.73Z" fill="#eb1c4e"/>
            <path d="M4.11,350.48v-5.98H1.37v-.86h2.74v-.85h2.73v7.68h-2.73Z" fill="#eb1c4e"/>
            <path d="M6.84,359.89H1.37v-.86H0v-5.98h1.37v-.85h5.47v.85h1.37v5.98h-1.36v.86ZM2.74,353.05l-.02,5.99h2.76v-5.99h-2.74Z" fill="#eb1c4e"/>
            <path d="M6.84,369.29H1.37v-.86H0v-5.98h1.37v-.85h5.47v.85h1.37v5.98h-1.36v.86ZM2.74,362.46l-.02,5.99h2.76v-5.99h-2.74Z" fill="#eb1c4e"/>
            <path d="M4.11,378.69v-5.98H1.37v-.86h2.74v-.85h2.73v7.68h-2.73Z" fill="#eb1c4e"/>
            <path d="M4.11,388.1v-5.98H1.37v-.86h2.74v-.85h2.73v7.68h-2.73Z" fill="#eb1c4e"/>
          </g>
        </g>
      </g>
    </g>
  </g>
</svg>