<?xml version="1.0" encoding="UTF-8"?>
<svg id="Layer_2" data-name="Layer 2" xmlns="http://www.w3.org/2000/svg" viewBox="0 0 1054.74 1054.74">
  <g id="Layer_1-2" data-name="Layer 1">
    <g>
      <polygon points=".53 .53 831.57 223.17 1054.21 1054.21 223.17 831.57 .53 .53" fill="none" stroke="#00aced" stroke-miterlimit="10" stroke-width=".75"/>
      <line x1="221.41" y1="824.97" x2="1052.44" y2="1047.61" fill="none" stroke="#00aced" stroke-miterlimit="10" stroke-width=".75"/>
      <line x1="219.64" y1="818.37" x2="1050.67" y2="1041.02" fill="none" stroke="#00aced" stroke-miterlimit="10" stroke-width=".75"/>
      <line x1="217.87" y1="811.78" x2="1048.91" y2="1034.42" fill="none" stroke="#00aced" stroke-miterlimit="10" stroke-width=".75"/>
      <line x1="216.1" y1="805.18" x2="1047.14" y2="1027.82" fill="none" stroke="#00aced" stroke-miterlimit="10" stroke-width=".75"/>
      <line x1="214.34" y1="798.59" x2="1045.37" y2="1021.23" fill="none" stroke="#00aced" stroke-miterlimit="10" stroke-width=".75"/>
      <line x1="212.57" y1="791.99" x2="1043.61" y2="1014.63" fill="none" stroke="#00aced" stroke-miterlimit="10" stroke-width=".75"/>
      <line x1="210.8" y1="785.4" x2="1041.84" y2="1008.04" fill="none" stroke="#00aced" stroke-miterlimit="10" stroke-width=".75"/>
      <line x1="209.04" y1="778.8" x2="1040.07" y2="1001.44" fill="none" stroke="#00aced" stroke-miterlimit="10" stroke-width=".75"/>
      <line x1="207.27" y1="772.21" x2="1038.3" y2="994.85" fill="none" stroke="#00aced" stroke-miterlimit="10" stroke-width=".75"/>
      <line x1="205.5" y1="765.61" x2="1036.54" y2="988.25" fill="none" stroke="#00aced" stroke-miterlimit="10" stroke-width=".75"/>
      <line x1="203.74" y1="759.01" x2="1034.77" y2="981.66" fill="none" stroke="#00aced" stroke-miterlimit="10" stroke-width=".75"/>
      <line x1="201.97" y1="752.42" x2="1033" y2="975.06" fill="none" stroke="#00aced" stroke-miterlimit="10" stroke-width=".75"/>
      <line x1="200.2" y1="745.82" x2="1031.24" y2="968.47" fill="none" stroke="#00aced" stroke-miterlimit="10" stroke-width=".75"/>
      <line x1="198.43" y1="739.23" x2="1029.47" y2="961.87" fill="none" stroke="#00aced" stroke-miterlimit="10" stroke-width=".75"/>
      <line x1="196.67" y1="732.63" x2="1027.7" y2="955.27" fill="none" stroke="#00aced" stroke-miterlimit="10" stroke-width=".75"/>
      <line x1="194.9" y1="726.04" x2="1025.94" y2="948.68" fill="none" stroke="#00aced" stroke-miterlimit="10" stroke-width=".75"/>
      <line x1="193.13" y1="719.44" x2="1024.17" y2="942.08" fill="none" stroke="#00aced" stroke-miterlimit="10" stroke-width=".75"/>
      <line x1="191.37" y1="712.85" x2="1022.4" y2="935.49" fill="none" stroke="#00aced" stroke-miterlimit="10" stroke-width=".75"/>
      <line x1="189.6" y1="706.25" x2="1020.63" y2="928.89" fill="none" stroke="#00aced" stroke-miterlimit="10" stroke-width=".75"/>
      <line x1="187.83" y1="699.65" x2="1018.87" y2="922.3" fill="none" stroke="#00aced" stroke-miterlimit="10" stroke-width=".75"/>
      <line x1="186.07" y1="693.06" x2="1017.1" y2="915.7" fill="none" stroke="#00aced" stroke-miterlimit="10" stroke-width=".75"/>
      <line x1="184.3" y1="686.46" x2="1015.33" y2="909.11" fill="none" stroke="#00aced" stroke-miterlimit="10" stroke-width=".75"/>
      <line x1="182.53" y1="679.87" x2="1013.57" y2="902.51" fill="none" stroke="#00aced" stroke-miterlimit="10" stroke-width=".75"/>
      <line x1="180.76" y1="673.27" x2="1011.8" y2="895.91" fill="none" stroke="#00aced" stroke-miterlimit="10" stroke-width=".75"/>
      <line x1="179" y1="666.68" x2="1010.03" y2="889.32" fill="none" stroke="#00aced" stroke-miterlimit="10" stroke-width=".75"/>
      <line x1="177.23" y1="660.08" x2="1008.27" y2="882.72" fill="none" stroke="#00aced" stroke-miterlimit="10" stroke-width=".75"/>
      <line x1="175.46" y1="653.49" x2="1006.5" y2="876.13" fill="none" stroke="#00aced" stroke-miterlimit="10" stroke-width=".75"/>
      <line x1="173.7" y1="646.89" x2="1004.73" y2="869.53" fill="none" stroke="#00aced" stroke-miterlimit="10" stroke-width=".75"/>
      <line x1="171.93" y1="640.3" x2="1002.96" y2="862.94" fill="none" stroke="#00aced" stroke-miterlimit="10" stroke-width=".75"/>
      <line x1="170.16" y1="633.7" x2="1001.2" y2="856.34" fill="none" stroke="#00aced" stroke-miterlimit="10" stroke-width=".75"/>
      <line x1="168.4" y1="627.1" x2="999.43" y2="849.75" fill="none" stroke="#00aced" stroke-miterlimit="10" stroke-width=".75"/>
      <line x1="166.63" y1="620.51" x2="997.66" y2="843.15" fill="none" stroke="#00aced" stroke-miterlimit="10" stroke-width=".75"/>
      <line x1="164.86" y1="613.91" x2="995.9" y2="836.55" fill="none" stroke="#00aced" stroke-miterlimit="10" stroke-width=".75"/>
      <line x1="163.09" y1="607.32" x2="994.13" y2="829.96" fill="none" stroke="#00aced" stroke-miterlimit="10" stroke-width=".75"/>
      <line x1="161.33" y1="600.72" x2="992.36" y2="823.36" fill="none" stroke="#00aced" stroke-miterlimit="10" stroke-width=".75"/>
      <line x1="159.56" y1="594.13" x2="990.6" y2="816.77" fill="none" stroke="#00aced" stroke-miterlimit="10" stroke-width=".75"/>
      <line x1="157.79" y1="587.53" x2="988.83" y2="810.17" fill="none" stroke="#00aced" stroke-miterlimit="10" stroke-width=".75"/>
      <line x1="156.03" y1="580.94" x2="987.06" y2="803.58" fill="none" stroke="#00aced" stroke-miterlimit="10" stroke-width=".75"/>
      <line x1="154.26" y1="574.34" x2="985.29" y2="796.98" fill="none" stroke="#00aced" stroke-miterlimit="10" stroke-width=".75"/>
      <line x1="152.49" y1="567.74" x2="983.53" y2="790.39" fill="none" stroke="#00aced" stroke-miterlimit="10" stroke-width=".75"/>
      <line x1="150.73" y1="561.15" x2="981.76" y2="783.79" fill="none" stroke="#00aced" stroke-miterlimit="10" stroke-width=".75"/>
      <line x1="148.96" y1="554.55" x2="979.99" y2="777.2" fill="none" stroke="#00aced" stroke-miterlimit="10" stroke-width=".75"/>
      <line x1="147.19" y1="547.96" x2="978.23" y2="770.6" fill="none" stroke="#00aced" stroke-miterlimit="10" stroke-width=".75"/>
      <line x1="145.42" y1="541.36" x2="976.46" y2="764" fill="none" stroke="#00aced" stroke-miterlimit="10" stroke-width=".75"/>
      <line x1="143.66" y1="534.77" x2="974.69" y2="757.41" fill="none" stroke="#00aced" stroke-miterlimit="10" stroke-width=".75"/>
      <line x1="141.89" y1="528.17" x2="972.93" y2="750.81" fill="none" stroke="#00aced" stroke-miterlimit="10" stroke-width=".75"/>
      <line x1="140.12" y1="521.58" x2="971.16" y2="744.22" fill="none" stroke="#00aced" stroke-miterlimit="10" stroke-width=".75"/>
      <line x1="138.36" y1="514.98" x2="969.39" y2="737.62" fill="none" stroke="#00aced" stroke-miterlimit="10" stroke-width=".75"/>
      <line x1="136.59" y1="508.38" x2="967.62" y2="731.03" fill="none" stroke="#00aced" stroke-miterlimit="10" stroke-width=".75"/>
      <line x1="134.82" y1="501.79" x2="965.86" y2="724.43" fill="none" stroke="#00aced" stroke-miterlimit="10" stroke-width=".75"/>
      <line x1="133.06" y1="495.19" x2="964.09" y2="717.84" fill="none" stroke="#00aced" stroke-miterlimit="10" stroke-width=".75"/>
      <line x1="131.29" y1="488.6" x2="962.32" y2="711.24" fill="none" stroke="#00aced" stroke-miterlimit="10" stroke-width=".75"/>
      <line x1="129.52" y1="482" x2="960.56" y2="704.64" fill="none" stroke="#00aced" stroke-miterlimit="10" stroke-width=".75"/>
      <line x1="127.75" y1="475.41" x2="958.79" y2="698.05" fill="none" stroke="#00aced" stroke-miterlimit="10" stroke-width=".75"/>
      <line x1="125.99" y1="468.81" x2="957.02" y2="691.45" fill="none" stroke="#00aced" stroke-miterlimit="10" stroke-width=".75"/>
      <line x1="124.22" y1="462.22" x2="955.26" y2="684.86" fill="none" stroke="#00aced" stroke-miterlimit="10" stroke-width=".75"/>
      <line x1="122.45" y1="455.62" x2="953.49" y2="678.26" fill="none" stroke="#00aced" stroke-miterlimit="10" stroke-width=".75"/>
      <line x1="120.69" y1="449.03" x2="951.72" y2="671.67" fill="none" stroke="#00aced" stroke-miterlimit="10" stroke-width=".75"/>
      <line x1="118.92" y1="442.43" x2="949.95" y2="665.07" fill="none" stroke="#00aced" stroke-miterlimit="10" stroke-width=".75"/>
      <line x1="117.15" y1="435.83" x2="948.19" y2="658.48" fill="none" stroke="#00aced" stroke-miterlimit="10" stroke-width=".75"/>
      <line x1="115.39" y1="429.24" x2="946.42" y2="651.88" fill="none" stroke="#00aced" stroke-miterlimit="10" stroke-width=".75"/>
      <line x1="113.62" y1="422.64" x2="944.65" y2="645.29" fill="none" stroke="#00aced" stroke-miterlimit="10" stroke-width=".75"/>
      <line x1="111.85" y1="416.05" x2="942.89" y2="638.69" fill="none" stroke="#00aced" stroke-miterlimit="10" stroke-width=".75"/>
      <line x1="110.08" y1="409.45" x2="941.12" y2="632.09" fill="none" stroke="#00aced" stroke-miterlimit="10" stroke-width=".75"/>
      <line x1="108.32" y1="402.86" x2="939.35" y2="625.5" fill="none" stroke="#00aced" stroke-miterlimit="10" stroke-width=".75"/>
      <line x1="106.55" y1="396.26" x2="937.59" y2="618.9" fill="none" stroke="#00aced" stroke-miterlimit="10" stroke-width=".75"/>
      <line x1="104.78" y1="389.67" x2="935.82" y2="612.31" fill="none" stroke="#00aced" stroke-miterlimit="10" stroke-width=".75"/>
      <line x1="103.02" y1="383.07" x2="934.05" y2="605.71" fill="none" stroke="#00aced" stroke-miterlimit="10" stroke-width=".75"/>
      <line x1="101.25" y1="376.47" x2="932.28" y2="599.12" fill="none" stroke="#00aced" stroke-miterlimit="10" stroke-width=".75"/>
      <line x1="99.48" y1="369.88" x2="930.52" y2="592.52" fill="none" stroke="#00aced" stroke-miterlimit="10" stroke-width=".75"/>
      <line x1="97.72" y1="363.28" x2="928.75" y2="585.93" fill="none" stroke="#00aced" stroke-miterlimit="10" stroke-width=".75"/>
      <line x1="95.95" y1="356.69" x2="926.98" y2="579.33" fill="none" stroke="#00aced" stroke-miterlimit="10" stroke-width=".75"/>
      <line x1="94.18" y1="350.09" x2="925.22" y2="572.73" fill="none" stroke="#00aced" stroke-miterlimit="10" stroke-width=".75"/>
      <line x1="92.41" y1="343.5" x2="923.45" y2="566.14" fill="none" stroke="#00aced" stroke-miterlimit="10" stroke-width=".75"/>
      <line x1="90.65" y1="336.9" x2="921.68" y2="559.54" fill="none" stroke="#00aced" stroke-miterlimit="10" stroke-width=".75"/>
      <line x1="88.88" y1="330.31" x2="919.92" y2="552.95" fill="none" stroke="#00aced" stroke-miterlimit="10" stroke-width=".75"/>
      <line x1="87.11" y1="323.71" x2="918.15" y2="546.35" fill="none" stroke="#00aced" stroke-miterlimit="10" stroke-width=".75"/>
      <line x1="85.35" y1="317.11" x2="916.38" y2="539.76" fill="none" stroke="#00aced" stroke-miterlimit="10" stroke-width=".75"/>
      <line x1="83.58" y1="310.52" x2="914.61" y2="533.16" fill="none" stroke="#00aced" stroke-miterlimit="10" stroke-width=".75"/>
      <line x1="81.81" y1="303.92" x2="912.85" y2="526.57" fill="none" stroke="#00aced" stroke-miterlimit="10" stroke-width=".75"/>
      <line x1="80.05" y1="297.33" x2="911.08" y2="519.97" fill="none" stroke="#00aced" stroke-miterlimit="10" stroke-width=".75"/>
      <line x1="78.28" y1="290.73" x2="909.31" y2="513.37" fill="none" stroke="#00aced" stroke-miterlimit="10" stroke-width=".75"/>
      <line x1="76.51" y1="284.14" x2="907.55" y2="506.78" fill="none" stroke="#00aced" stroke-miterlimit="10" stroke-width=".75"/>
      <line x1="74.74" y1="277.54" x2="905.78" y2="500.18" fill="none" stroke="#00aced" stroke-miterlimit="10" stroke-width=".75"/>
      <line x1="72.98" y1="270.95" x2="904.01" y2="493.59" fill="none" stroke="#00aced" stroke-miterlimit="10" stroke-width=".75"/>
      <line x1="71.21" y1="264.35" x2="902.25" y2="486.99" fill="none" stroke="#00aced" stroke-miterlimit="10" stroke-width=".75"/>
      <line x1="69.44" y1="257.76" x2="900.48" y2="480.4" fill="none" stroke="#00aced" stroke-miterlimit="10" stroke-width=".75"/>
      <line x1="67.68" y1="251.16" x2="898.71" y2="473.8" fill="none" stroke="#00aced" stroke-miterlimit="10" stroke-width=".75"/>
      <line x1="65.91" y1="244.56" x2="896.94" y2="467.21" fill="none" stroke="#00aced" stroke-miterlimit="10" stroke-width=".75"/>
      <line x1="64.14" y1="237.97" x2="895.18" y2="460.61" fill="none" stroke="#00aced" stroke-miterlimit="10" stroke-width=".75"/>
      <line x1="62.38" y1="231.37" x2="893.41" y2="454.02" fill="none" stroke="#00aced" stroke-miterlimit="10" stroke-width=".75"/>
      <line x1="60.61" y1="224.78" x2="891.64" y2="447.42" fill="none" stroke="#00aced" stroke-miterlimit="10" stroke-width=".75"/>
      <line x1="58.84" y1="218.18" x2="889.88" y2="440.82" fill="none" stroke="#00aced" stroke-miterlimit="10" stroke-width=".75"/>
      <line x1="57.07" y1="211.59" x2="888.11" y2="434.23" fill="none" stroke="#00aced" stroke-miterlimit="10" stroke-width=".75"/>
      <line x1="55.31" y1="204.99" x2="886.34" y2="427.63" fill="none" stroke="#00aced" stroke-miterlimit="10" stroke-width=".75"/>
      <line x1="53.54" y1="198.4" x2="884.58" y2="421.04" fill="none" stroke="#00aced" stroke-miterlimit="10" stroke-width=".75"/>
      <line x1="51.77" y1="191.8" x2="882.81" y2="414.44" fill="none" stroke="#00aced" stroke-miterlimit="10" stroke-width=".75"/>
      <line x1="50.01" y1="185.2" x2="881.04" y2="407.85" fill="none" stroke="#00aced" stroke-miterlimit="10" stroke-width=".75"/>
      <line x1="48.24" y1="178.61" x2="879.27" y2="401.25" fill="none" stroke="#00aced" stroke-miterlimit="10" stroke-width=".75"/>
      <line x1="46.47" y1="172.01" x2="877.51" y2="394.66" fill="none" stroke="#00aced" stroke-miterlimit="10" stroke-width=".75"/>
      <line x1="44.71" y1="165.42" x2="875.74" y2="388.06" fill="none" stroke="#00aced" stroke-miterlimit="10" stroke-width=".75"/>
      <line x1="42.94" y1="158.82" x2="873.97" y2="381.46" fill="none" stroke="#00aced" stroke-miterlimit="10" stroke-width=".75"/>
      <line x1="41.17" y1="152.23" x2="872.21" y2="374.87" fill="none" stroke="#00aced" stroke-miterlimit="10" stroke-width=".75"/>
      <line x1="39.4" y1="145.63" x2="870.44" y2="368.27" fill="none" stroke="#00aced" stroke-miterlimit="10" stroke-width=".75"/>
      <line x1="37.64" y1="139.04" x2="868.67" y2="361.68" fill="none" stroke="#00aced" stroke-miterlimit="10" stroke-width=".75"/>
      <line x1="35.87" y1="132.44" x2="866.91" y2="355.08" fill="none" stroke="#00aced" stroke-miterlimit="10" stroke-width=".75"/>
      <line x1="34.1" y1="125.85" x2="865.14" y2="348.49" fill="none" stroke="#00aced" stroke-miterlimit="10" stroke-width=".75"/>
      <line x1="32.34" y1="119.25" x2="863.37" y2="341.89" fill="none" stroke="#00aced" stroke-miterlimit="10" stroke-width=".75"/>
      <line x1="30.57" y1="112.65" x2="861.6" y2="335.3" fill="none" stroke="#00aced" stroke-miterlimit="10" stroke-width=".75"/>
      <line x1="28.8" y1="106.06" x2="859.84" y2="328.7" fill="none" stroke="#00aced" stroke-miterlimit="10" stroke-width=".75"/>
      <line x1="27.04" y1="99.46" x2="858.07" y2="322.1" fill="none" stroke="#00aced" stroke-miterlimit="10" stroke-width=".75"/>
      <line x1="25.27" y1="92.87" x2="856.3" y2="315.51" fill="none" stroke="#00aced" stroke-miterlimit="10" stroke-width=".75"/>
      <line x1="23.5" y1="86.27" x2="854.54" y2="308.91" fill="none" stroke="#00aced" stroke-miterlimit="10" stroke-width=".75"/>
      <line x1="21.73" y1="79.68" x2="852.77" y2="302.32" fill="none" stroke="#00aced" stroke-miterlimit="10" stroke-width=".75"/>
      <line x1="19.97" y1="73.08" x2="851" y2="295.72" fill="none" stroke="#00aced" stroke-miterlimit="10" stroke-width=".75"/>
      <line x1="18.2" y1="66.49" x2="849.24" y2="289.13" fill="none" stroke="#00aced" stroke-miterlimit="10" stroke-width=".75"/>
      <line x1="16.43" y1="59.89" x2="847.47" y2="282.53" fill="none" stroke="#00aced" stroke-miterlimit="10" stroke-width=".75"/>
      <line x1="14.67" y1="53.29" x2="845.7" y2="275.94" fill="none" stroke="#00aced" stroke-miterlimit="10" stroke-width=".75"/>
      <line x1="12.9" y1="46.7" x2="843.93" y2="269.34" fill="none" stroke="#00aced" stroke-miterlimit="10" stroke-width=".75"/>
      <line x1="11.13" y1="40.1" x2="842.17" y2="262.75" fill="none" stroke="#00aced" stroke-miterlimit="10" stroke-width=".75"/>
      <line x1="9.37" y1="33.51" x2="840.4" y2="256.15" fill="none" stroke="#00aced" stroke-miterlimit="10" stroke-width=".75"/>
      <line x1="7.6" y1="26.91" x2="838.63" y2="249.55" fill="none" stroke="#00aced" stroke-miterlimit="10" stroke-width=".75"/>
      <line x1="5.83" y1="20.32" x2="836.87" y2="242.96" fill="none" stroke="#00aced" stroke-miterlimit="10" stroke-width=".75"/>
      <line x1="4.06" y1="13.72" x2="835.1" y2="236.36" fill="none" stroke="#00aced" stroke-miterlimit="10" stroke-width=".75"/>
      <line x1="2.3" y1="7.13" x2="833.33" y2="229.77" fill="none" stroke="#00aced" stroke-miterlimit="10" stroke-width=".75"/>
      <line x1="824.97" y1="221.41" x2="1047.61" y2="1052.44" fill="none" stroke="#00aced" stroke-miterlimit="10" stroke-width=".75"/>
      <line x1="818.37" y1="219.64" x2="1041.02" y2="1050.67" fill="none" stroke="#00aced" stroke-miterlimit="10" stroke-width=".75"/>
      <line x1="811.78" y1="217.87" x2="1034.42" y2="1048.91" fill="none" stroke="#00aced" stroke-miterlimit="10" stroke-width=".75"/>
      <line x1="805.18" y1="216.1" x2="1027.83" y2="1047.14" fill="none" stroke="#00aced" stroke-miterlimit="10" stroke-width=".75"/>
      <line x1="798.59" y1="214.34" x2="1021.23" y2="1045.37" fill="none" stroke="#00aced" stroke-miterlimit="10" stroke-width=".75"/>
      <line x1="791.99" y1="212.57" x2="1014.63" y2="1043.6" fill="none" stroke="#00aced" stroke-miterlimit="10" stroke-width=".75"/>
      <line x1="785.4" y1="210.8" x2="1008.04" y2="1041.84" fill="none" stroke="#00aced" stroke-miterlimit="10" stroke-width=".75"/>
      <line x1="778.8" y1="209.04" x2="1001.44" y2="1040.07" fill="none" stroke="#00aced" stroke-miterlimit="10" stroke-width=".75"/>
      <line x1="772.21" y1="207.27" x2="994.85" y2="1038.3" fill="none" stroke="#00aced" stroke-miterlimit="10" stroke-width=".75"/>
      <line x1="765.61" y1="205.5" x2="988.25" y2="1036.54" fill="none" stroke="#00aced" stroke-miterlimit="10" stroke-width=".75"/>
      <line x1="759.01" y1="203.74" x2="981.66" y2="1034.77" fill="none" stroke="#00aced" stroke-miterlimit="10" stroke-width=".75"/>
      <line x1="752.42" y1="201.97" x2="975.06" y2="1033" fill="none" stroke="#00aced" stroke-miterlimit="10" stroke-width=".75"/>
      <line x1="745.82" y1="200.2" x2="968.47" y2="1031.24" fill="none" stroke="#00aced" stroke-miterlimit="10" stroke-width=".75"/>
      <line x1="739.23" y1="198.43" x2="961.87" y2="1029.47" fill="none" stroke="#00aced" stroke-miterlimit="10" stroke-width=".75"/>
      <line x1="732.63" y1="196.67" x2="955.27" y2="1027.7" fill="none" stroke="#00aced" stroke-miterlimit="10" stroke-width=".75"/>
      <line x1="726.04" y1="194.9" x2="948.68" y2="1025.93" fill="none" stroke="#00aced" stroke-miterlimit="10" stroke-width=".75"/>
      <line x1="719.44" y1="193.13" x2="942.08" y2="1024.17" fill="none" stroke="#00aced" stroke-miterlimit="10" stroke-width=".75"/>
      <line x1="712.85" y1="191.37" x2="935.49" y2="1022.4" fill="none" stroke="#00aced" stroke-miterlimit="10" stroke-width=".75"/>
      <line x1="706.25" y1="189.6" x2="928.89" y2="1020.63" fill="none" stroke="#00aced" stroke-miterlimit="10" stroke-width=".75"/>
      <line x1="699.65" y1="187.83" x2="922.3" y2="1018.87" fill="none" stroke="#00aced" stroke-miterlimit="10" stroke-width=".75"/>
      <line x1="693.06" y1="186.07" x2="915.7" y2="1017.1" fill="none" stroke="#00aced" stroke-miterlimit="10" stroke-width=".75"/>
      <line x1="686.46" y1="184.3" x2="909.11" y2="1015.33" fill="none" stroke="#00aced" stroke-miterlimit="10" stroke-width=".75"/>
      <line x1="679.87" y1="182.53" x2="902.51" y2="1013.57" fill="none" stroke="#00aced" stroke-miterlimit="10" stroke-width=".75"/>
      <line x1="673.27" y1="180.76" x2="895.91" y2="1011.8" fill="none" stroke="#00aced" stroke-miterlimit="10" stroke-width=".75"/>
      <line x1="666.68" y1="179" x2="889.32" y2="1010.03" fill="none" stroke="#00aced" stroke-miterlimit="10" stroke-width=".75"/>
      <line x1="660.08" y1="177.23" x2="882.72" y2="1008.26" fill="none" stroke="#00aced" stroke-miterlimit="10" stroke-width=".75"/>
      <line x1="653.49" y1="175.46" x2="876.13" y2="1006.5" fill="none" stroke="#00aced" stroke-miterlimit="10" stroke-width=".75"/>
      <line x1="646.89" y1="173.7" x2="869.53" y2="1004.73" fill="none" stroke="#00aced" stroke-miterlimit="10" stroke-width=".75"/>
      <line x1="640.3" y1="171.93" x2="862.94" y2="1002.96" fill="none" stroke="#00aced" stroke-miterlimit="10" stroke-width=".75"/>
      <line x1="633.7" y1="170.16" x2="856.34" y2="1001.2" fill="none" stroke="#00aced" stroke-miterlimit="10" stroke-width=".75"/>
      <line x1="627.1" y1="168.4" x2="849.75" y2="999.43" fill="none" stroke="#00aced" stroke-miterlimit="10" stroke-width=".75"/>
      <line x1="620.51" y1="166.63" x2="843.15" y2="997.66" fill="none" stroke="#00aced" stroke-miterlimit="10" stroke-width=".75"/>
      <line x1="613.91" y1="164.86" x2="836.56" y2="995.9" fill="none" stroke="#00aced" stroke-miterlimit="10" stroke-width=".75"/>
      <line x1="607.32" y1="163.09" x2="829.96" y2="994.13" fill="none" stroke="#00aced" stroke-miterlimit="10" stroke-width=".75"/>
      <line x1="600.72" y1="161.33" x2="823.36" y2="992.36" fill="none" stroke="#00aced" stroke-miterlimit="10" stroke-width=".75"/>
      <line x1="594.13" y1="159.56" x2="816.77" y2="990.59" fill="none" stroke="#00aced" stroke-miterlimit="10" stroke-width=".75"/>
      <line x1="587.53" y1="157.79" x2="810.17" y2="988.83" fill="none" stroke="#00aced" stroke-miterlimit="10" stroke-width=".75"/>
      <line x1="580.94" y1="156.03" x2="803.58" y2="987.06" fill="none" stroke="#00aced" stroke-miterlimit="10" stroke-width=".75"/>
      <line x1="574.34" y1="154.26" x2="796.98" y2="985.29" fill="none" stroke="#00aced" stroke-miterlimit="10" stroke-width=".75"/>
      <line x1="567.74" y1="152.49" x2="790.39" y2="983.53" fill="none" stroke="#00aced" stroke-miterlimit="10" stroke-width=".75"/>
      <line x1="561.15" y1="150.73" x2="783.79" y2="981.76" fill="none" stroke="#00aced" stroke-miterlimit="10" stroke-width=".75"/>
      <line x1="554.55" y1="148.96" x2="777.2" y2="979.99" fill="none" stroke="#00aced" stroke-miterlimit="10" stroke-width=".75"/>
      <line x1="547.96" y1="147.19" x2="770.6" y2="978.23" fill="none" stroke="#00aced" stroke-miterlimit="10" stroke-width=".75"/>
      <line x1="541.36" y1="145.42" x2="764" y2="976.46" fill="none" stroke="#00aced" stroke-miterlimit="10" stroke-width=".75"/>
      <line x1="534.77" y1="143.66" x2="757.41" y2="974.69" fill="none" stroke="#00aced" stroke-miterlimit="10" stroke-width=".75"/>
      <line x1="528.17" y1="141.89" x2="750.81" y2="972.92" fill="none" stroke="#00aced" stroke-miterlimit="10" stroke-width=".75"/>
      <line x1="521.58" y1="140.12" x2="744.22" y2="971.16" fill="none" stroke="#00aced" stroke-miterlimit="10" stroke-width=".75"/>
      <line x1="514.98" y1="138.36" x2="737.62" y2="969.39" fill="none" stroke="#00aced" stroke-miterlimit="10" stroke-width=".75"/>
      <line x1="508.38" y1="136.59" x2="731.03" y2="967.62" fill="none" stroke="#00aced" stroke-miterlimit="10" stroke-width=".75"/>
      <line x1="501.79" y1="134.82" x2="724.43" y2="965.86" fill="none" stroke="#00aced" stroke-miterlimit="10" stroke-width=".75"/>
      <line x1="495.19" y1="133.06" x2="717.84" y2="964.09" fill="none" stroke="#00aced" stroke-miterlimit="10" stroke-width=".75"/>
      <line x1="488.6" y1="131.29" x2="711.24" y2="962.32" fill="none" stroke="#00aced" stroke-miterlimit="10" stroke-width=".75"/>
      <line x1="482" y1="129.52" x2="704.64" y2="960.56" fill="none" stroke="#00aced" stroke-miterlimit="10" stroke-width=".75"/>
      <line x1="475.41" y1="127.75" x2="698.05" y2="958.79" fill="none" stroke="#00aced" stroke-miterlimit="10" stroke-width=".75"/>
      <line x1="468.81" y1="125.99" x2="691.45" y2="957.02" fill="none" stroke="#00aced" stroke-miterlimit="10" stroke-width=".75"/>
      <line x1="462.22" y1="124.22" x2="684.86" y2="955.26" fill="none" stroke="#00aced" stroke-miterlimit="10" stroke-width=".75"/>
      <line x1="455.62" y1="122.45" x2="678.26" y2="953.49" fill="none" stroke="#00aced" stroke-miterlimit="10" stroke-width=".75"/>
      <line x1="449.03" y1="120.69" x2="671.67" y2="951.72" fill="none" stroke="#00aced" stroke-miterlimit="10" stroke-width=".75"/>
      <line x1="442.43" y1="118.92" x2="665.07" y2="949.95" fill="none" stroke="#00aced" stroke-miterlimit="10" stroke-width=".75"/>
      <line x1="435.83" y1="117.15" x2="658.48" y2="948.19" fill="none" stroke="#00aced" stroke-miterlimit="10" stroke-width=".75"/>
      <line x1="429.24" y1="115.39" x2="651.88" y2="946.42" fill="none" stroke="#00aced" stroke-miterlimit="10" stroke-width=".75"/>
      <line x1="422.64" y1="113.62" x2="645.29" y2="944.65" fill="none" stroke="#00aced" stroke-miterlimit="10" stroke-width=".75"/>
      <line x1="416.05" y1="111.85" x2="638.69" y2="942.89" fill="none" stroke="#00aced" stroke-miterlimit="10" stroke-width=".75"/>
      <line x1="409.45" y1="110.08" x2="632.09" y2="941.12" fill="none" stroke="#00aced" stroke-miterlimit="10" stroke-width=".75"/>
      <line x1="402.86" y1="108.32" x2="625.5" y2="939.35" fill="none" stroke="#00aced" stroke-miterlimit="10" stroke-width=".75"/>
      <line x1="396.26" y1="106.55" x2="618.9" y2="937.59" fill="none" stroke="#00aced" stroke-miterlimit="10" stroke-width=".75"/>
      <line x1="389.67" y1="104.78" x2="612.31" y2="935.82" fill="none" stroke="#00aced" stroke-miterlimit="10" stroke-width=".75"/>
      <line x1="383.07" y1="103.02" x2="605.71" y2="934.05" fill="none" stroke="#00aced" stroke-miterlimit="10" stroke-width=".75"/>
      <line x1="376.47" y1="101.25" x2="599.12" y2="932.28" fill="none" stroke="#00aced" stroke-miterlimit="10" stroke-width=".75"/>
      <line x1="369.88" y1="99.48" x2="592.52" y2="930.52" fill="none" stroke="#00aced" stroke-miterlimit="10" stroke-width=".75"/>
      <line x1="363.28" y1="97.72" x2="585.93" y2="928.75" fill="none" stroke="#00aced" stroke-miterlimit="10" stroke-width=".75"/>
      <line x1="356.69" y1="95.95" x2="579.33" y2="926.98" fill="none" stroke="#00aced" stroke-miterlimit="10" stroke-width=".75"/>
      <line x1="350.09" y1="94.18" x2="572.73" y2="925.22" fill="none" stroke="#00aced" stroke-miterlimit="10" stroke-width=".75"/>
      <line x1="343.5" y1="92.41" x2="566.14" y2="923.45" fill="none" stroke="#00aced" stroke-miterlimit="10" stroke-width=".75"/>
      <line x1="336.9" y1="90.65" x2="559.54" y2="921.68" fill="none" stroke="#00aced" stroke-miterlimit="10" stroke-width=".75"/>
      <line x1="330.31" y1="88.88" x2="552.95" y2="919.92" fill="none" stroke="#00aced" stroke-miterlimit="10" stroke-width=".75"/>
      <line x1="323.71" y1="87.11" x2="546.35" y2="918.15" fill="none" stroke="#00aced" stroke-miterlimit="10" stroke-width=".75"/>
      <line x1="317.12" y1="85.35" x2="539.76" y2="916.38" fill="none" stroke="#00aced" stroke-miterlimit="10" stroke-width=".75"/>
      <line x1="310.52" y1="83.58" x2="533.16" y2="914.61" fill="none" stroke="#00aced" stroke-miterlimit="10" stroke-width=".75"/>
      <line x1="303.92" y1="81.81" x2="526.57" y2="912.85" fill="none" stroke="#00aced" stroke-miterlimit="10" stroke-width=".75"/>
      <line x1="297.33" y1="80.05" x2="519.97" y2="911.08" fill="none" stroke="#00aced" stroke-miterlimit="10" stroke-width=".75"/>
      <line x1="290.73" y1="78.28" x2="513.38" y2="909.31" fill="none" stroke="#00aced" stroke-miterlimit="10" stroke-width=".75"/>
      <line x1="284.14" y1="76.51" x2="506.78" y2="907.55" fill="none" stroke="#00aced" stroke-miterlimit="10" stroke-width=".75"/>
      <line x1="277.54" y1="74.74" x2="500.18" y2="905.78" fill="none" stroke="#00aced" stroke-miterlimit="10" stroke-width=".75"/>
      <line x1="270.95" y1="72.98" x2="493.59" y2="904.01" fill="none" stroke="#00aced" stroke-miterlimit="10" stroke-width=".75"/>
      <line x1="264.35" y1="71.21" x2="486.99" y2="902.25" fill="none" stroke="#00aced" stroke-miterlimit="10" stroke-width=".75"/>
      <line x1="257.76" y1="69.44" x2="480.4" y2="900.48" fill="none" stroke="#00aced" stroke-miterlimit="10" stroke-width=".75"/>
      <line x1="251.16" y1="67.68" x2="473.8" y2="898.71" fill="none" stroke="#00aced" stroke-miterlimit="10" stroke-width=".75"/>
      <line x1="244.56" y1="65.91" x2="467.21" y2="896.94" fill="none" stroke="#00aced" stroke-miterlimit="10" stroke-width=".75"/>
      <line x1="237.97" y1="64.14" x2="460.61" y2="895.18" fill="none" stroke="#00aced" stroke-miterlimit="10" stroke-width=".75"/>
      <line x1="231.37" y1="62.38" x2="454.02" y2="893.41" fill="none" stroke="#00aced" stroke-miterlimit="10" stroke-width=".75"/>
      <line x1="224.78" y1="60.61" x2="447.42" y2="891.64" fill="none" stroke="#00aced" stroke-miterlimit="10" stroke-width=".75"/>
      <line x1="218.18" y1="58.84" x2="440.82" y2="889.88" fill="none" stroke="#00aced" stroke-miterlimit="10" stroke-width=".75"/>
      <line x1="211.59" y1="57.07" x2="434.23" y2="888.11" fill="none" stroke="#00aced" stroke-miterlimit="10" stroke-width=".75"/>
      <line x1="204.99" y1="55.31" x2="427.63" y2="886.34" fill="none" stroke="#00aced" stroke-miterlimit="10" stroke-width=".75"/>
      <line x1="198.4" y1="53.54" x2="421.04" y2="884.58" fill="none" stroke="#00aced" stroke-miterlimit="10" stroke-width=".75"/>
      <line x1="191.8" y1="51.77" x2="414.44" y2="882.81" fill="none" stroke="#00aced" stroke-miterlimit="10" stroke-width=".75"/>
      <line x1="185.2" y1="50.01" x2="407.85" y2="881.04" fill="none" stroke="#00aced" stroke-miterlimit="10" stroke-width=".75"/>
      <line x1="178.61" y1="48.24" x2="401.25" y2="879.27" fill="none" stroke="#00aced" stroke-miterlimit="10" stroke-width=".75"/>
      <line x1="172.01" y1="46.47" x2="394.66" y2="877.51" fill="none" stroke="#00aced" stroke-miterlimit="10" stroke-width=".75"/>
      <line x1="165.42" y1="44.71" x2="388.06" y2="875.74" fill="none" stroke="#00aced" stroke-miterlimit="10" stroke-width=".75"/>
      <line x1="158.82" y1="42.94" x2="381.46" y2="873.97" fill="none" stroke="#00aced" stroke-miterlimit="10" stroke-width=".75"/>
      <line x1="152.23" y1="41.17" x2="374.87" y2="872.21" fill="none" stroke="#00aced" stroke-miterlimit="10" stroke-width=".75"/>
      <line x1="145.63" y1="39.4" x2="368.27" y2="870.44" fill="none" stroke="#00aced" stroke-miterlimit="10" stroke-width=".75"/>
      <line x1="139.04" y1="37.64" x2="361.68" y2="868.67" fill="none" stroke="#00aced" stroke-miterlimit="10" stroke-width=".75"/>
      <line x1="132.44" y1="35.87" x2="355.08" y2="866.91" fill="none" stroke="#00aced" stroke-miterlimit="10" stroke-width=".75"/>
      <line x1="125.85" y1="34.1" x2="348.49" y2="865.14" fill="none" stroke="#00aced" stroke-miterlimit="10" stroke-width=".75"/>
      <line x1="119.25" y1="32.34" x2="341.89" y2="863.37" fill="none" stroke="#00aced" stroke-miterlimit="10" stroke-width=".75"/>
      <line x1="112.65" y1="30.57" x2="335.3" y2="861.6" fill="none" stroke="#00aced" stroke-miterlimit="10" stroke-width=".75"/>
      <line x1="106.06" y1="28.8" x2="328.7" y2="859.84" fill="none" stroke="#00aced" stroke-miterlimit="10" stroke-width=".75"/>
      <line x1="99.46" y1="27.04" x2="322.11" y2="858.07" fill="none" stroke="#00aced" stroke-miterlimit="10" stroke-width=".75"/>
      <line x1="92.87" y1="25.27" x2="315.51" y2="856.3" fill="none" stroke="#00aced" stroke-miterlimit="10" stroke-width=".75"/>
      <line x1="86.27" y1="23.5" x2="308.91" y2="854.54" fill="none" stroke="#00aced" stroke-miterlimit="10" stroke-width=".75"/>
      <line x1="79.68" y1="21.73" x2="302.32" y2="852.77" fill="none" stroke="#00aced" stroke-miterlimit="10" stroke-width=".75"/>
      <line x1="73.08" y1="19.97" x2="295.72" y2="851" fill="none" stroke="#00aced" stroke-miterlimit="10" stroke-width=".75"/>
      <line x1="66.49" y1="18.2" x2="289.13" y2="849.24" fill="none" stroke="#00aced" stroke-miterlimit="10" stroke-width=".75"/>
      <line x1="59.89" y1="16.43" x2="282.53" y2="847.47" fill="none" stroke="#00aced" stroke-miterlimit="10" stroke-width=".75"/>
      <line x1="53.29" y1="14.67" x2="275.94" y2="845.7" fill="none" stroke="#00aced" stroke-miterlimit="10" stroke-width=".75"/>
      <line x1="46.7" y1="12.9" x2="269.34" y2="843.93" fill="none" stroke="#00aced" stroke-miterlimit="10" stroke-width=".75"/>
      <line x1="40.1" y1="11.13" x2="262.75" y2="842.17" fill="none" stroke="#00aced" stroke-miterlimit="10" stroke-width=".75"/>
      <line x1="33.51" y1="9.37" x2="256.15" y2="840.4" fill="none" stroke="#00aced" stroke-miterlimit="10" stroke-width=".75"/>
      <line x1="26.91" y1="7.6" x2="249.55" y2="838.63" fill="none" stroke="#00aced" stroke-miterlimit="10" stroke-width=".75"/>
      <line x1="20.32" y1="5.83" x2="242.96" y2="836.87" fill="none" stroke="#00aced" stroke-miterlimit="10" stroke-width=".75"/>
      <line x1="13.72" y1="4.06" x2="236.36" y2="835.1" fill="none" stroke="#00aced" stroke-miterlimit="10" stroke-width=".75"/>
      <line x1="7.13" y1="2.3" x2="229.77" y2="833.33" fill="none" stroke="#00aced" stroke-miterlimit="10" stroke-width=".75"/>
    </g>
  </g>
</svg>