<?xml version="1.0" encoding="UTF-8"?>
<svg id="Layer_2" data-name="Layer 2" xmlns="http://www.w3.org/2000/svg" viewBox="0 0 1090 145.78">
  <g id="Layer_1-2" data-name="Layer 1">
    <g>
      <g>
        <path d="M28.82,109.13V24.84h15.64l30.6,54.39h.11V24.84h11.22v84.29h-14.69l-31.5-56.21h-.17v56.21h-11.22Z" fill="#eb1c4e"/>
        <path d="M127.92,111.24c-11.2,0-19.62-4-25.26-11.99-5.64-7.99-8.46-18.75-8.46-32.26s2.81-24.27,8.43-32.26c5.62-7.99,14.05-11.99,25.29-11.99s19.67,4,25.29,11.99c5.62,7.99,8.43,18.75,8.43,32.26s-2.82,24.27-8.46,32.26c-5.64,7.99-14.06,11.99-25.26,11.99ZM127.89,100.02c3,0,5.67-1.05,7.99-3.16,2.32-2.11,4.16-5.36,5.51-9.77,1.35-4.4,2.03-11.09,2.03-20.05s-.64-15.66-1.91-19.99c-1.27-4.33-3.09-7.59-5.45-9.8-2.36-2.2-5.08-3.3-8.16-3.3s-5.73,1.09-8.07,3.27c-2.34,2.18-4.16,5.46-5.45,9.82-1.29,4.37-1.94,11.03-1.94,19.99s.66,15.69,1.97,20.08c1.31,4.39,3.14,7.63,5.48,9.74s5.01,3.16,8.02,3.16Z" fill="#eb1c4e"/>
        <path d="M189.77,109.13V36.12h-25.29v-11.28h67.49v11.28h-25.29v73.01h-16.92Z" fill="#eb1c4e"/>
        <path d="M313.47,109.13V24.84h58.32v11.28h-41.4v26.65h34.97v10.54h-34.97v35.82h-16.92Z" fill="#eb1c4e"/>
        <path d="M409.04,111.24c-11.2,0-19.62-4-25.26-11.99-5.64-7.99-8.46-18.75-8.46-32.26s2.81-24.27,8.43-32.26c5.62-7.99,14.05-11.99,25.29-11.99s19.67,4,25.29,11.99c5.62,7.99,8.43,18.75,8.43,32.26s-2.82,24.27-8.46,32.26c-5.64,7.99-14.06,11.99-25.26,11.99ZM409.01,100.02c3,0,5.67-1.05,7.99-3.16,2.32-2.11,4.16-5.36,5.51-9.77,1.35-4.4,2.03-11.09,2.03-20.05s-.64-15.66-1.91-19.99c-1.27-4.33-3.09-7.59-5.45-9.8-2.36-2.2-5.08-3.3-8.16-3.3s-5.73,1.09-8.07,3.27c-2.34,2.18-4.16,5.46-5.45,9.82-1.29,4.37-1.94,11.03-1.94,19.99s.66,15.69,1.97,20.08c1.31,4.39,3.14,7.63,5.48,9.74s5.01,3.16,8.02,3.16Z" fill="#eb1c4e"/>
        <path d="M451.98,109.13V24.84h32.01c7.97,0,13.9,2.01,17.77,6.04,3.87,4.02,5.81,9.09,5.81,15.21,0,3.27-.59,6.42-1.77,9.45-1.18,3.04-2.78,5.77-4.81,8.2-2.03,2.43-4.98,4.71-8.86,6.83l21.61,38.56h-19.45l-19.21-34.46h-6.2v34.46h-16.92ZM468.9,63.46h3.12c3.52,0,6.65-.65,9.4-1.94,2.75-1.29,4.84-3.27,6.28-5.95,1.44-2.68,2.16-5.53,2.16-8.57,0-2.09-.4-4.02-1.19-5.78s-1.97-3.07-3.52-3.9c-1.55-.83-5.17-1.25-10.85-1.25h-5.4v27.39Z" fill="#eb1c4e"/>
        <path d="M592.54,109.13V24.84h32.01c7.97,0,13.9,2.01,17.77,6.04,3.87,4.02,5.81,9.09,5.81,15.21,0,3.27-.59,6.42-1.77,9.45-1.18,3.04-2.78,5.77-4.81,8.2-2.03,2.43-4.98,4.71-8.86,6.83l21.61,38.56h-19.45l-19.21-34.46h-6.2v34.46h-16.92ZM609.46,63.46h3.12c3.52,0,6.65-.65,9.4-1.94,2.75-1.29,4.84-3.27,6.28-5.95,1.44-2.68,2.16-5.53,2.16-8.57,0-2.09-.4-4.02-1.19-5.78s-1.97-3.07-3.52-3.9c-1.55-.83-5.17-1.25-10.85-1.25h-5.4v27.39Z" fill="#eb1c4e"/>
        <path d="M664.59,109.13V24.84h52.68v11.28h-35.77v23.81h30.19v10.54h-30.19v27.39h38.79v11.28h-55.7Z" fill="#eb1c4e"/>
        <path d="M750.59,66.93v-19.65h19.65v19.65h-19.65ZM750.59,109.13v-19.65h19.65v19.65h-19.65Z" fill="#eb1c4e"/>
        <path d="M801.51,108.45v-14.12c8.88,3.61,17.07,5.41,24.55,5.41,5.24,0,9.49-1.16,12.76-3.47s4.9-5.18,4.9-8.6c0-1.94-.53-3.72-1.6-5.35-1.1-1.59-3.88-3.61-8.32-6.04l-15.71-8.55c-5.09-2.77-8.66-5.2-10.71-7.29-2.05-2.09-3.61-4.39-4.67-6.89-1.06-2.51-1.59-5.18-1.59-8.03,0-6.3,2.47-11.68,7.42-16.12,4.95-4.44,12.89-6.66,23.81-6.66,8.23,0,16.06.93,23.5,2.79v13.33c-8.04-3.26-15.73-4.9-23.09-4.9-5.08,0-9,.85-11.74,2.53-2.75,1.69-4.12,3.84-4.12,6.46,0,1.41.36,2.81,1.08,4.21.72,1.41,2.94,3.1,6.66,5.07l17.43,9.34c7.4,3.95,12.49,7.78,15.26,11.5,2.73,3.72,4.1,8.09,4.1,13.1,0,4.59-1.23,8.84-3.7,12.73-2.47,3.89-6.16,6.92-11.08,9.08-4.92,2.16-11.59,3.25-20.02,3.25-7.59,0-15.97-.93-25.12-2.79Z" fill="#eb1c4e"/>
        <path d="M867.06,109.13l27.34-84.29h16.86l23.64,84.29h-17.5l-6.01-21.41h-25.64l-6.95,21.41h-11.73ZM889.16,77.18h19.27l-8.94-31.87-10.34,31.87Z" fill="#eb1c4e"/>
        <path d="M948.45,109.13V24.84h16.92v73.01h39.3v11.28h-56.21Z" fill="#eb1c4e"/>
        <path d="M1015.99,109.13V24.84h52.68v11.28h-35.77v23.81h30.19v10.54h-30.19v27.39h38.79v11.28h-55.7Z" fill="#eb1c4e"/>
      </g>
      <path d="M1090,145.78H0V0h1090v145.78ZM4,141.78h1082V4H4v137.78Z" fill="#231f20"/>
    </g>
  </g>
</svg>