<?xml version="1.0" encoding="UTF-8"?>
<svg id="Layer_2" data-name="Layer 2" xmlns="http://www.w3.org/2000/svg" viewBox="0 0 2456.07 41.76">
  <g id="Layer_1-2" data-name="Layer 1">
    <g>
      <path d="M10.26,41.1L0,.66h5.52l4.8,20.46c1.2,5.04,2.28,10.08,3,13.98h.12c.66-4.02,1.92-8.82,3.3-14.04L22.14.66h5.46l4.92,20.52c1.14,4.8,2.22,9.6,2.82,13.86h.12c.84-4.44,1.98-8.94,3.24-13.98L44.04.66h5.34l-11.46,40.44h-5.46l-5.1-21.06c-1.26-5.16-2.1-9.12-2.64-13.2h-.12c-.72,4.02-1.62,7.98-3.12,13.2l-5.76,21.06h-5.46Z"/>
      <path d="M59.64.66v16.92h19.56V.66h5.28v40.44h-5.28v-18.96h-19.56v18.96h-5.22V.66h5.22Z"/>
      <path d="M102.12,41.1v-17.16L89.34.66h5.94l5.7,11.16c1.56,3.06,2.76,5.52,4.02,8.34h.12c1.14-2.64,2.52-5.28,4.08-8.34l5.82-11.16h5.94l-13.56,23.22v17.22h-5.28Z"/>
      <path d="M138.3,41.1V.66h5.7l12.96,20.46c3,4.74,5.34,9,7.26,13.14l.12-.06c-.48-5.4-.6-10.32-.6-16.62V.66h4.92v40.44h-5.28l-12.84-20.52c-2.82-4.5-5.52-9.12-7.56-13.5l-.18.06c.3,5.1.42,9.96.42,16.68v17.28h-4.92Z"/>
      <path d="M212.34,20.46c0,13.92-8.46,21.3-18.78,21.3s-18.18-8.28-18.18-20.52c0-12.84,7.98-21.24,18.78-21.24s18.18,8.46,18.18,20.46ZM180.96,21.12c0,8.64,4.68,16.38,12.9,16.38s12.96-7.62,12.96-16.8c0-8.04-4.2-16.44-12.9-16.44s-12.96,7.98-12.96,16.86Z"/>
      <path d="M225.3,5.1h-12.3V.66h29.94v4.44h-12.36v36h-5.28V5.1Z"/>
      <path d="M265.38,5.1h-12.3V.66h29.94v4.44h-12.36v36h-5.28V5.1Z"/>
      <path d="M287.52,1.2c2.64-.54,6.42-.84,10.02-.84,5.58,0,9.18,1.02,11.7,3.3,2.04,1.8,3.18,4.56,3.18,7.68,0,5.34-3.36,8.88-7.62,10.32v.18c3.12,1.08,4.98,3.96,5.94,8.16,1.32,5.64,2.28,9.54,3.12,11.1h-5.4c-.66-1.14-1.56-4.62-2.7-9.66-1.2-5.58-3.36-7.68-8.1-7.86h-4.92v17.52h-5.22V1.2ZM292.74,19.62h5.34c5.58,0,9.12-3.06,9.12-7.68,0-5.22-3.78-7.5-9.3-7.56-2.52,0-4.32.24-5.16.48v14.76Z"/>
      <path d="M328.14,41.1v-17.16l-12.78-23.28h5.94l5.7,11.16c1.56,3.06,2.76,5.52,4.02,8.34h.12c1.14-2.64,2.52-5.28,4.08-8.34l5.82-11.16h5.94l-13.56,23.22v17.22h-5.28Z"/>
      <path d="M370.86,28.38l-4.2,12.72h-5.4L375,.66h6.3l13.8,40.44h-5.58l-4.32-12.72h-14.34ZM384.12,24.3l-3.96-11.64c-.9-2.64-1.5-5.04-2.1-7.38h-.12c-.6,2.4-1.26,4.86-2.04,7.32l-3.96,11.7h12.18Z"/>
      <path d="M401.04,41.1V.66h5.7l12.96,20.46c3,4.74,5.34,9,7.26,13.14l.12-.06c-.48-5.4-.6-10.32-.6-16.62V.66h4.92v40.44h-5.28l-12.84-20.52c-2.82-4.5-5.52-9.12-7.56-13.5l-.18.06c.3,5.1.42,9.96.42,16.68v17.28h-4.92Z"/>
      <path d="M440.52,1.2c3.18-.48,6.96-.84,11.1-.84,7.5,0,12.84,1.74,16.38,5.04,3.6,3.3,5.7,7.98,5.7,14.52s-2.04,12-5.82,15.72c-3.78,3.78-10.02,5.82-17.88,5.82-3.72,0-6.84-.18-9.48-.48V1.2ZM445.73,36.96c1.32.24,3.24.3,5.28.3,11.16,0,17.22-6.24,17.22-17.16.06-9.54-5.34-15.6-16.38-15.6-2.7,0-4.74.24-6.12.54v31.92Z"/>
      <path d="M492.47,34.74c2.34,1.44,5.76,2.64,9.36,2.64,5.34,0,8.46-2.82,8.46-6.9,0-3.78-2.16-5.94-7.62-8.04-6.6-2.34-10.68-5.76-10.68-11.46,0-6.3,5.22-10.98,13.08-10.98,4.14,0,7.14.96,8.94,1.98l-1.44,4.26c-1.32-.72-4.02-1.92-7.68-1.92-5.52,0-7.62,3.3-7.62,6.06,0,3.78,2.46,5.64,8.04,7.8,6.84,2.64,10.32,5.94,10.32,11.88,0,6.24-4.62,11.64-14.16,11.64-3.9,0-8.16-1.14-10.32-2.58l1.32-4.38Z"/>
      <path d="M543.71,22.14h-15.72v14.58h17.52v4.38h-22.74V.66h21.84v4.38h-16.62v12.78h15.72v4.32Z"/>
      <path d="M552.29,41.1V.66h5.7l12.96,20.46c3,4.74,5.34,9,7.26,13.14l.12-.06c-.48-5.4-.6-10.32-.6-16.62V.66h4.92v40.44h-5.28l-12.84-20.52c-2.82-4.5-5.52-9.12-7.56-13.5l-.18.06c.3,5.1.42,9.96.42,16.68v17.28h-4.92Z"/>
      <path d="M591.77,1.2c3.18-.48,6.96-.84,11.1-.84,7.5,0,12.84,1.74,16.38,5.04,3.6,3.3,5.7,7.98,5.7,14.52s-2.04,12-5.82,15.72c-3.78,3.78-10.02,5.82-17.88,5.82-3.72,0-6.84-.18-9.48-.48V1.2ZM596.99,36.96c1.32.24,3.24.3,5.28.3,11.16,0,17.22-6.24,17.22-17.16.06-9.54-5.34-15.6-16.38-15.6-2.7,0-4.74.24-6.12.54v31.92Z"/>
      <path d="M650.99,28.38l-4.2,12.72h-5.4l13.74-40.44h6.3l13.8,40.44h-5.58l-4.32-12.72h-14.34ZM664.25,24.3l-3.96-11.64c-.9-2.64-1.5-5.04-2.1-7.38h-.12c-.6,2.4-1.26,4.86-2.04,7.32l-3.96,11.7h12.18Z"/>
      <path d="M681.17,41.1V.66h5.7l12.96,20.46c3,4.74,5.34,9,7.26,13.14l.12-.06c-.48-5.4-.6-10.32-.6-16.62V.66h4.92v40.44h-5.28l-12.84-20.52c-2.82-4.5-5.52-9.12-7.56-13.5l-.18.06c.3,5.1.42,9.96.42,16.68v17.28h-4.92Z"/>
      <path d="M754.31,22.14h-15.72v14.58h17.52v4.38h-22.74V.66h21.84v4.38h-16.62v12.78h15.72v4.32Z"/>
      <path d="M796.97,23.34c-.3-5.64-.66-12.42-.6-17.46h-.18c-1.38,4.74-3.06,9.78-5.1,15.36l-7.14,19.62h-3.96l-6.54-19.26c-1.92-5.7-3.54-10.92-4.68-15.72h-.12c-.12,5.04-.42,11.82-.78,17.88l-1.08,17.34h-4.98l2.82-40.44h6.66l6.9,19.56c1.68,4.98,3.06,9.42,4.08,13.62h.18c1.02-4.08,2.46-8.52,4.26-13.62l7.2-19.56h6.66l2.52,40.44h-5.1l-1.02-17.76Z"/>
      <path d="M817.07,28.38l-4.2,12.72h-5.4l13.74-40.44h6.3l13.8,40.44h-5.58l-4.32-12.72h-14.34ZM830.33,24.3l-3.96-11.64c-.9-2.64-1.5-5.04-2.1-7.38h-.12c-.6,2.4-1.26,4.86-2.04,7.32l-3.96,11.7h12.18Z"/>
      <path d="M852.47.66v40.44h-5.22V.66h5.22Z"/>
      <path d="M861.59.66h5.22v36.06h17.28v4.38h-22.5V.66Z"/>
      <path d="M893.81,29.64l-.12-1.56c-.36-3.24.72-6.78,3.72-10.38,2.7-3.18,4.2-5.52,4.2-8.22,0-3.06-1.92-5.1-5.7-5.16-2.16,0-4.56.72-6.06,1.86l-1.44-3.78c1.98-1.44,5.4-2.4,8.58-2.4,6.9,0,10.02,4.26,10.02,8.82,0,4.08-2.28,7.02-5.16,10.44-2.64,3.12-3.6,5.76-3.42,8.82l.06,1.56h-4.68ZM892.49,38.04c0-2.22,1.5-3.78,3.6-3.78s3.54,1.56,3.54,3.78c0,2.1-1.38,3.72-3.6,3.72-2.1,0-3.54-1.62-3.54-3.72Z"/>
      <path d="M933.23,41.1v-17.16l-12.78-23.28h5.94l5.7,11.16c1.56,3.06,2.76,5.52,4.02,8.34h.12c1.14-2.64,2.52-5.28,4.08-8.34l5.82-11.16h5.94l-13.56,23.22v17.22h-5.28Z"/>
      <path d="M989.09,20.46c0,13.92-8.46,21.3-18.78,21.3s-18.18-8.28-18.18-20.52c0-12.84,7.98-21.24,18.78-21.24s18.18,8.46,18.18,20.46ZM957.71,21.12c0,8.64,4.68,16.38,12.9,16.38s12.96-7.62,12.96-16.8c0-8.04-4.2-16.44-12.9-16.44s-12.96,7.98-12.96,16.86Z"/>
      <path d="M1001.09.66v23.94c0,9.06,4.02,12.9,9.42,12.9,6,0,9.84-3.96,9.84-12.9V.66h5.28v23.58c0,12.42-6.54,17.52-15.3,17.52-8.28,0-14.52-4.74-14.52-17.28V.66h5.28Z"/>
      <path d="M1081.48,23.34c-.3-5.64-.66-12.42-.6-17.46h-.18c-1.38,4.74-3.06,9.78-5.1,15.36l-7.14,19.62h-3.96l-6.54-19.26c-1.92-5.7-3.54-10.92-4.68-15.72h-.12c-.12,5.04-.42,11.82-.78,17.88l-1.08,17.34h-4.98l2.82-40.44h6.66l6.9,19.56c1.68,4.98,3.06,9.42,4.08,13.62h.18c1.02-4.08,2.46-8.52,4.26-13.62l7.2-19.56h6.66l2.52,40.44h-5.1l-1.02-17.76Z"/>
      <path d="M1100.86.66v40.44h-5.22V.66h5.22Z"/>
      <path d="M1140.76,39.3c-2.34.84-6.96,2.22-12.42,2.22-6.12,0-11.16-1.56-15.12-5.34-3.48-3.36-5.64-8.76-5.64-15.06.06-12.06,8.34-20.88,21.9-20.88,4.68,0,8.34,1.02,10.08,1.86l-1.26,4.26c-2.16-.96-4.86-1.74-8.94-1.74-9.84,0-16.26,6.12-16.26,16.26s6.18,16.32,15.6,16.32c3.42,0,5.76-.48,6.96-1.08v-12.06h-8.22v-4.2h13.32v19.44Z"/>
      <path d="M1153.96.66v16.92h19.56V.66h5.28v40.44h-5.28v-18.96h-19.56v18.96h-5.22V.66h5.22Z"/>
      <path d="M1195.54,5.1h-12.3V.66h29.94v4.44h-12.36v36h-5.28V5.1Z"/>
      <path d="M1238.68.66h5.22v27.06c0,10.74-5.28,14.04-12.24,14.04-1.92,0-4.26-.42-5.58-.96l.78-4.26c1.08.42,2.64.78,4.38.78,4.68,0,7.44-2.1,7.44-10.02V.66Z"/>
      <path d="M1257.82.66v23.94c0,9.06,4.02,12.9,9.42,12.9,6,0,9.84-3.96,9.84-12.9V.66h5.28v23.58c0,12.42-6.54,17.52-15.3,17.52-8.28,0-14.52-4.74-14.52-17.28V.66h5.28Z"/>
      <path d="M1290.7,34.74c2.34,1.44,5.76,2.64,9.36,2.64,5.34,0,8.46-2.82,8.46-6.9,0-3.78-2.16-5.94-7.62-8.04-6.6-2.34-10.68-5.76-10.68-11.46,0-6.3,5.22-10.98,13.08-10.98,4.14,0,7.14.96,8.94,1.98l-1.44,4.26c-1.32-.72-4.02-1.92-7.68-1.92-5.52,0-7.62,3.3-7.62,6.06,0,3.78,2.46,5.64,8.04,7.8,6.84,2.64,10.32,5.94,10.32,11.88,0,6.24-4.62,11.64-14.16,11.64-3.9,0-8.16-1.14-10.32-2.58l1.32-4.38Z"/>
      <path d="M1328.68,5.1h-12.3V.66h29.94v4.44h-12.36v36h-5.28V5.1Z"/>
      <path d="M1394.32,39.3c-2.34.84-6.96,2.22-12.42,2.22-6.12,0-11.16-1.56-15.12-5.34-3.48-3.36-5.64-8.76-5.64-15.06.06-12.06,8.34-20.88,21.9-20.88,4.68,0,8.34,1.02,10.08,1.86l-1.26,4.26c-2.16-.96-4.86-1.74-8.94-1.74-9.84,0-16.26,6.12-16.26,16.26s6.18,16.32,15.6,16.32c3.42,0,5.76-.48,6.96-1.08v-12.06h-8.22v-4.2h13.32v19.44Z"/>
      <path d="M1423.24,22.14h-15.72v14.58h17.52v4.38h-22.74V.66h21.84v4.38h-16.62v12.78h15.72v4.32Z"/>
      <path d="M1440.46,5.1h-12.3V.66h29.94v4.44h-12.36v36h-5.28V5.1Z"/>
      <path d="M1481.86,28.38l-4.2,12.72h-5.4l13.74-40.44h6.3l13.8,40.44h-5.58l-4.32-12.72h-14.34ZM1495.12,24.3l-3.96-11.64c-.9-2.64-1.5-5.04-2.1-7.38h-.12c-.6,2.4-1.26,4.86-2.04,7.32l-3.96,11.7h12.18Z"/>
      <path d="M1524.76,1.2c2.64-.54,6.42-.84,10.02-.84,5.58,0,9.18,1.02,11.7,3.3,2.04,1.8,3.18,4.56,3.18,7.68,0,5.34-3.36,8.88-7.62,10.32v.18c3.12,1.08,4.98,3.96,5.94,8.16,1.32,5.64,2.28,9.54,3.12,11.1h-5.4c-.66-1.14-1.56-4.62-2.7-9.66-1.2-5.58-3.36-7.68-8.1-7.86h-4.92v17.52h-5.22V1.2ZM1529.98,19.62h5.34c5.58,0,9.12-3.06,9.12-7.68,0-5.22-3.78-7.5-9.3-7.56-2.52,0-4.32.24-5.16.48v14.76Z"/>
      <path d="M1577.98,22.14h-15.72v14.58h17.52v4.38h-22.74V.66h21.84v4.38h-16.62v12.78h15.72v4.32Z"/>
      <path d="M1585.84,34.74c2.34,1.44,5.76,2.64,9.36,2.64,5.34,0,8.46-2.82,8.46-6.9,0-3.78-2.16-5.94-7.62-8.04-6.6-2.34-10.68-5.76-10.68-11.46,0-6.3,5.22-10.98,13.08-10.98,4.14,0,7.14.96,8.94,1.98l-1.44,4.26c-1.32-.72-4.02-1.92-7.68-1.92-5.52,0-7.62,3.3-7.62,6.06,0,3.78,2.46,5.64,8.04,7.8,6.84,2.64,10.32,5.94,10.32,11.88,0,6.24-4.62,11.64-14.16,11.64-3.9,0-8.16-1.14-10.32-2.58l1.32-4.38Z"/>
      <path d="M1616.14,1.14c2.52-.42,5.82-.78,10.02-.78,5.16,0,8.94,1.2,11.34,3.36,2.22,1.92,3.54,4.86,3.54,8.46s-1.08,6.54-3.12,8.64c-2.76,2.94-7.26,4.44-12.36,4.44-1.56,0-3-.06-4.2-.36v16.2h-5.22V1.14ZM1621.36,20.64c1.14.3,2.58.42,4.32.42,6.3,0,10.14-3.06,10.14-8.64s-3.78-7.92-9.54-7.92c-2.28,0-4.02.18-4.92.42v15.72Z"/>
      <path d="M1682.61,20.46c0,13.92-8.46,21.3-18.78,21.3s-18.18-8.28-18.18-20.52c0-12.84,7.98-21.24,18.78-21.24s18.18,8.46,18.18,20.46ZM1651.24,21.12c0,8.64,4.68,16.38,12.9,16.38s12.96-7.62,12.96-16.8c0-8.04-4.2-16.44-12.9-16.44s-12.96,7.98-12.96,16.86Z"/>
      <path d="M1689.4,41.1V.66h5.7l12.96,20.46c3,4.74,5.34,9,7.26,13.14l.12-.06c-.48-5.4-.6-10.32-.6-16.62V.66h4.92v40.44h-5.28l-12.84-20.52c-2.82-4.5-5.52-9.12-7.56-13.5l-.18.06c.3,5.1.42,9.96.42,16.68v17.28h-4.92Z"/>
      <path d="M1728.16,34.74c2.34,1.44,5.76,2.64,9.36,2.64,5.34,0,8.46-2.82,8.46-6.9,0-3.78-2.16-5.94-7.62-8.04-6.6-2.34-10.68-5.76-10.68-11.46,0-6.3,5.22-10.98,13.08-10.98,4.14,0,7.14.96,8.94,1.98l-1.44,4.26c-1.32-.72-4.02-1.92-7.68-1.92-5.52,0-7.62,3.3-7.62,6.06,0,3.78,2.46,5.64,8.04,7.8,6.84,2.64,10.32,5.94,10.32,11.88,0,6.24-4.62,11.64-14.16,11.64-3.9,0-8.16-1.14-10.32-2.58l1.32-4.38Z"/>
      <path d="M1779.4,22.14h-15.72v14.58h17.52v4.38h-22.74V.66h21.84v4.38h-16.62v12.78h15.72v4.32Z"/>
      <path d="M1800.69.66h21.78v4.38h-16.56v13.44h15.3v4.32h-15.3v18.3h-5.22V.66Z"/>
      <path d="M1831.77,28.38l-4.2,12.72h-5.4l13.74-40.44h6.3l13.8,40.44h-5.58l-4.32-12.72h-14.34ZM1845.03,24.3l-3.96-11.64c-.9-2.64-1.5-5.04-2.1-7.38h-.12c-.6,2.4-1.26,4.86-2.04,7.32l-3.96,11.7h12.18Z"/>
      <path d="M1861.23,34.74c2.34,1.44,5.76,2.64,9.36,2.64,5.34,0,8.46-2.82,8.46-6.9,0-3.78-2.16-5.94-7.62-8.04-6.6-2.34-10.68-5.76-10.68-11.46,0-6.3,5.22-10.98,13.08-10.98,4.14,0,7.14.96,8.94,1.98l-1.44,4.26c-1.32-.72-4.02-1.92-7.68-1.92-5.52,0-7.62,3.3-7.62,6.06,0,3.78,2.46,5.64,8.04,7.8,6.84,2.64,10.32,5.94,10.32,11.88,0,6.24-4.62,11.64-14.16,11.64-3.9,0-8.16-1.14-10.32-2.58l1.32-4.38Z"/>
      <path d="M1899.21,5.1h-12.3V.66h29.94v4.44h-12.36v36h-5.28V5.1Z"/>
      <path d="M1942.29,22.14h-15.72v14.58h17.52v4.38h-22.74V.66h21.84v4.38h-16.62v12.78h15.72v4.32Z"/>
      <path d="M1950.87,1.2c2.64-.54,6.42-.84,10.02-.84,5.58,0,9.18,1.02,11.7,3.3,2.04,1.8,3.18,4.56,3.18,7.68,0,5.34-3.36,8.88-7.62,10.32v.18c3.12,1.08,4.98,3.96,5.94,8.16,1.32,5.64,2.28,9.54,3.12,11.1h-5.4c-.66-1.14-1.56-4.62-2.7-9.66-1.2-5.58-3.36-7.68-8.1-7.86h-4.92v17.52h-5.22V1.2ZM1956.09,19.62h5.34c5.58,0,9.12-3.06,9.12-7.68,0-5.22-3.78-7.5-9.3-7.56-2.52,0-4.32.24-5.16.48v14.76Z"/>
      <path d="M2001.09,5.1h-12.3V.66h29.94v4.44h-12.36v36h-5.28V5.1Z"/>
      <path d="M2028.45.66v16.92h19.56V.66h5.28v40.44h-5.28v-18.96h-19.56v18.96h-5.22V.66h5.22Z"/>
      <path d="M2068.89,28.38l-4.2,12.72h-5.4l13.74-40.44h6.3l13.8,40.44h-5.58l-4.32-12.72h-14.34ZM2082.15,24.3l-3.96-11.64c-.9-2.64-1.5-5.04-2.1-7.38h-.12c-.6,2.4-1.26,4.86-2.04,7.32l-3.96,11.7h12.18Z"/>
      <path d="M2099.07,41.1V.66h5.7l12.96,20.46c3,4.74,5.34,9,7.26,13.14l.12-.06c-.48-5.4-.6-10.32-.6-16.62V.66h4.92v40.44h-5.28l-12.84-20.52c-2.82-4.5-5.52-9.12-7.56-13.5l-.18.06c.3,5.1.42,9.96.42,16.68v17.28h-4.92Z"/>
      <path d="M2157.51,41.1v-17.16l-12.78-23.28h5.94l5.7,11.16c1.56,3.06,2.76,5.52,4.02,8.34h.12c1.14-2.64,2.52-5.28,4.08-8.34l5.82-11.16h5.94l-13.56,23.22v17.22h-5.28Z"/>
      <path d="M2213.37,20.46c0,13.92-8.46,21.3-18.78,21.3s-18.18-8.28-18.18-20.52c0-12.84,7.98-21.24,18.78-21.24s18.18,8.46,18.18,20.46ZM2181.99,21.12c0,8.64,4.68,16.38,12.9,16.38s12.96-7.62,12.96-16.8c0-8.04-4.2-16.44-12.9-16.44s-12.96,7.98-12.96,16.86Z"/>
      <path d="M2225.37.66v23.94c0,9.06,4.02,12.9,9.42,12.9,6,0,9.84-3.96,9.84-12.9V.66h5.28v23.58c0,12.42-6.54,17.52-15.3,17.52-8.28,0-14.52-4.74-14.52-17.28V.66h5.28Z"/>
      <path d="M2276.91,5.1h-12.3V.66h29.94v4.44h-12.36v36h-5.28V5.1Z"/>
      <path d="M2304.27.66v16.92h19.56V.66h5.28v40.44h-5.28v-18.96h-19.56v18.96h-5.22V.66h5.22Z"/>
      <path d="M2343.39.66v40.44h-5.22V.66h5.22Z"/>
      <path d="M2352.51,41.1V.66h5.7l12.96,20.46c3,4.74,5.34,9,7.26,13.14l.12-.06c-.48-5.4-.6-10.32-.6-16.62V.66h4.92v40.44h-5.28l-12.84-20.52c-2.82-4.5-5.52-9.12-7.56-13.5l-.18.06c.3,5.1.42,9.96.42,16.68v17.28h-4.92Z"/>
      <path d="M2391.99.66h5.22v19.5h.18c1.08-1.56,2.16-3,3.18-4.32l12.36-15.18h6.48l-14.64,17.16,15.78,23.28h-6.18l-13.32-19.86-3.84,4.44v15.42h-5.22V.66Z"/>
      <path d="M2424.09,37.98c0-2.22,1.5-3.78,3.6-3.78s3.54,1.56,3.54,3.78-1.38,3.78-3.6,3.78c-2.1,0-3.54-1.62-3.54-3.78Z"/>
      <path d="M2436.51,37.98c0-2.22,1.5-3.78,3.6-3.78s3.54,1.56,3.54,3.78-1.38,3.78-3.6,3.78c-2.1,0-3.54-1.62-3.54-3.78Z"/>
      <path d="M2448.93,37.98c0-2.22,1.5-3.78,3.6-3.78s3.54,1.56,3.54,3.78-1.38,3.78-3.6,3.78c-2.1,0-3.54-1.62-3.54-3.78Z"/>
    </g>
  </g>
</svg>