<?xml version="1.0" encoding="UTF-8"?>
<svg id="Layer_2" data-name="Layer 2" xmlns="http://www.w3.org/2000/svg" viewBox="0 0 162.42 169.43">
  <g id="Layer_1-2" data-name="Layer 1">
    <g>
      <polygon points="81.82 42.21 121.93 42.21 121.93 .92 81.82 42.21" fill="#fff" stroke="#000" stroke-miterlimit="10" stroke-width=".75"/>
      <polygon points="81.82 84.6 121.93 84.6 121.93 43.32 81.82 84.6" fill="#fff" stroke="#000" stroke-miterlimit="10" stroke-width=".75"/>
      <polyline points="81.82 126.2 121.93 126.2 121.93 84.92 81.82 126.2" fill="#fff" stroke="#000" stroke-miterlimit="10" stroke-width=".75"/>
      <polyline points="81.82 168.59 121.93 168.59 121.93 127.31 81.82 168.59" fill="#fff" stroke="#000" stroke-miterlimit="10" stroke-width=".75"/>
      <polygon points="121.93 42.37 162.04 42.37 162.04 1.08 121.93 42.37" fill="#fff" stroke="#000" stroke-miterlimit="10" stroke-width=".75"/>
      <polygon points="121.93 84.76 162.04 84.76 162.04 43.47 121.93 84.76" fill="#fff" stroke="#000" stroke-miterlimit="10" stroke-width=".75"/>
      <polyline points="121.93 126.36 162.04 126.36 162.04 85.07 121.93 126.36" fill="#fff" stroke="#000" stroke-miterlimit="10" stroke-width=".75"/>
      <polyline points="121.93 168.75 162.04 168.75 162.04 127.47 121.93 168.75" fill="#fff" stroke="#000" stroke-miterlimit="10" stroke-width=".75"/>
      <polygon points="80.59 127.23 40.48 127.23 40.48 168.51 80.59 127.23" fill="#fff" stroke="#000" stroke-miterlimit="10" stroke-width=".75"/>
      <polygon points="80.59 84.84 40.48 84.84 40.48 126.12 80.59 84.84" fill="#fff" stroke="#000" stroke-miterlimit="10" stroke-width=".75"/>
      <polyline points="80.59 43.24 40.48 43.24 40.48 84.52 80.59 43.24" fill="#fff" stroke="#000" stroke-miterlimit="10" stroke-width=".75"/>
      <polyline points="80.59 .84 40.48 .84 40.48 42.13 80.59 .84" fill="#fff" stroke="#000" stroke-miterlimit="10" stroke-width=".75"/>
      <polygon points="40.48 127.07 .38 127.07 .38 168.35 40.48 127.07" fill="#fff" stroke="#000" stroke-miterlimit="10" stroke-width=".75"/>
      <polygon points="40.48 84.68 .38 84.68 .38 125.96 40.48 84.68" fill="#fff" stroke="#000" stroke-miterlimit="10" stroke-width=".75"/>
      <polyline points="40.48 43.08 .38 43.08 .38 84.36 40.48 43.08" fill="#fff" stroke="#000" stroke-miterlimit="10" stroke-width=".75"/>
      <polyline points="40.48 .69 .38 .69 .38 41.97 40.48 .69" fill="#fff" stroke="#000" stroke-miterlimit="10" stroke-width=".75"/>
    </g>
  </g>
</svg>