<?xml version="1.0" encoding="UTF-8"?>
<svg id="Layer_2" data-name="Layer 2" xmlns="http://www.w3.org/2000/svg" xmlns:xlink="http://www.w3.org/1999/xlink" viewBox="0 0 1565.28 1565.28">
  <defs>
    <filter id="drop-shadow-1" x="0" y="0" width="1565.28" height="1565.28" filterUnits="userSpaceOnUse">
      <feOffset dx="17.28" dy="17.28"/>
      <feGaussianBlur result="blur" stdDeviation="8.64"/>
      <feFlood flood-color="#231f20" flood-opacity="1"/>
      <feComposite in2="blur" operator="in"/>
      <feComposite in="SourceGraphic"/>
    </filter>
  </defs>
  <g id="Layer_1-2" data-name="Layer 1">
    <path d="M9.31,9.19h365v365H9.31V9.19ZM426.46,9.19h52.14v52.14h104.29v52.14h104.29v52.14h-104.29v52.14h-52.14v-104.29h-104.29V9.19ZM582.89,9.19h52.14v52.14h-52.14V9.19ZM687.18,9.19h156.43v52.14h-104.29v52.14h-52.14V9.19ZM895.75,9.19h208.57v156.43h-52.14V61.33h-52.14v104.29h-52.14V61.33h-52.14V9.19ZM1156.47,9.19h365v365h-365V9.19ZM61.46,61.33v260.72h260.72V61.33H61.46ZM843.61,61.33h52.14v104.29h-52.14V61.33ZM1208.61,61.33v260.72h260.72V61.33h-260.72ZM113.6,113.48h156.43v156.43H113.6V113.48ZM1260.76,113.48h156.43v156.43h-156.43V113.48ZM426.46,165.62h52.14v52.14h-52.14v-52.14ZM739.32,165.62h104.29v52.14h-52.14v52.14h-52.14v-104.29ZM895.75,165.62h52.14v52.14h52.14v-52.14h52.14v52.14h52.14v312.86h-104.29v52.14h52.14v52.14h-52.14v52.14h-104.29v-52.14h52.14v-156.43h-52.14v-52.14h-52.14v104.29h-104.29v52.14h-52.14v156.43h-52.14v-52.14h-52.14v52.14h52.14v52.14h-52.14v52.14h52.14v52.14h52.14v52.14h-104.29v-52.14h-52.14v-104.29h-104.29v-52.14h52.14v-52.14h52.14v-52.14h52.14v-52.14h52.14v-104.29h52.14v-52.14h52.14v52.14h52.14v-104.29h52.14v-52.14h-52.14v-52.14h52.14v-52.14h52.14v-52.14ZM478.6,217.76h52.14v104.29h-52.14v-104.29ZM582.89,217.76h104.29v52.14h-104.29v-52.14ZM687.18,269.91h52.14v52.14h-52.14v-52.14ZM947.9,269.91v52.14h-52.14v52.14h52.14v52.14h52.14v52.14h52.14v-156.43h-52.14v-52.14h-52.14ZM426.46,322.05h52.14v104.29h-52.14v-104.29ZM530.75,322.05h52.14v52.14h52.14v104.29h-52.14v-52.14h-52.14v-104.29ZM635.03,322.05h52.14v52.14h-52.14v-52.14ZM739.32,322.05h52.14v52.14h-52.14v-52.14ZM947.9,322.05h52.14v52.14h-52.14v-52.14ZM9.31,426.34h52.14v52.14h52.14v52.14H9.31v-104.29ZM113.6,426.34h104.29v156.43h-52.14v104.29h52.14v-104.29h52.14v-52.14h104.29v-52.14h-104.29v-52.14h156.43v156.43h-104.29v52.14h-52.14v52.14h52.14v52.14h-52.14v52.14h-52.14v-52.14h-104.29v52.14h-52.14v-104.29h52.14v-52.14H9.31v-52.14h104.29v-52.14h52.14v-52.14h-52.14v-52.14ZM478.6,426.34h52.14v52.14h-52.14v-52.14ZM1156.47,426.34h52.14v52.14h104.29v104.29h-52.14v-52.14h-104.29v-104.29ZM1312.9,426.34h52.14v52.14h-52.14v-52.14ZM1417.19,426.34h104.29v104.29h-52.14v-52.14h-52.14v-52.14ZM843.61,530.62h52.14v104.29h-52.14v-104.29ZM1104.33,530.62h52.14v52.14h52.14v52.14h-104.29v-104.29ZM1365.04,530.62h104.29v52.14h-104.29v-52.14ZM1469.33,582.77h52.14v52.14h-52.14v-52.14ZM322.17,634.91h104.29v104.29h-52.14v-52.14h-52.14v-52.14ZM739.32,634.91h104.29v52.14h-52.14v52.14h-52.14v-104.29ZM1208.61,634.91h52.14v52.14h-52.14v-52.14ZM1312.9,634.91h104.29v52.14h104.29v104.29h-52.14v156.43h-52.14v156.43h104.29v52.14h-52.14v52.14h-52.14v-52.14h-52.14v104.29h-52.14v52.14h52.14v52.14h-104.29v156.43h-104.29v-52.14h52.14v-156.43h-52.14v156.43h-52.14v52.14h-208.57v-156.43h104.29v52.14h104.29v-52.14h-52.14v-156.43h-52.14v-52.14h52.14v-104.29h52.14v-52.14h52.14v52.14h104.29v-52.14h52.14v52.14h52.14v-104.29h-52.14v-52.14h-52.14v104.29h-52.14v-208.57h52.14v52.14h104.29v52.14h52.14v-104.29h-52.14v-104.29h-52.14v-52.14ZM843.61,687.05h52.14v52.14h104.29v-52.14h52.14v104.29h-156.43v208.57h-104.29v104.29h-104.29v-52.14h-52.14v-52.14h52.14v-52.14h52.14v-156.43h52.14v52.14h52.14v-52.14h-52.14v-52.14h52.14v-52.14ZM1156.47,687.05h52.14v52.14h-52.14v-52.14ZM322.17,739.2h52.14v52.14h-52.14v-52.14ZM687.18,739.2h52.14v52.14h-52.14v-52.14ZM1104.33,739.2h52.14v52.14h-52.14v-52.14ZM1260.76,739.2h52.14v52.14h-52.14v-52.14ZM9.31,791.34h52.14v52.14H9.31v-52.14ZM165.74,791.34h52.14v52.14h208.57v52.14h104.29v52.14h-52.14v52.14h-52.14v-52.14h-52.14v-52.14h-52.14v52.14h52.14v52.14h-52.14v52.14h156.43v156.43h260.72v-52.14h52.14v-52.14h52.14v-52.14h52.14v-52.14h52.14v-156.43h52.14v156.43h52.14v52.14h-52.14v52.14h-104.29v52.14h-52.14v104.29h-156.43v52.14h52.14v52.14h52.14v52.14h52.14v52.14h-156.43v52.14h-260.72v-52.14h104.29v-52.14h52.14v52.14h52.14v-52.14h52.14v-52.14h-52.14v52.14h-52.14v-52.14h-104.29v52.14h-52.14v-104.29h52.14v-52.14h-52.14v-156.43h-156.43v-104.29h-52.14v-104.29h-52.14v-104.29ZM635.03,791.34h52.14v52.14h-52.14v-52.14ZM1052.18,791.34h52.14v52.14h52.14v52.14h-52.14v104.29h-52.14v-208.57ZM61.46,843.48h52.14v104.29h-52.14v-104.29ZM791.46,895.63v52.14h52.14v-52.14h-52.14ZM9.31,947.77h52.14v52.14H9.31v-52.14ZM113.6,947.77h52.14v52.14h52.14v52.14h-104.29v-104.29ZM61.46,1052.06h52.14v52.14h-52.14v-52.14ZM530.75,1052.06h104.29v104.29h-104.29v-104.29ZM1104.33,1104.2v156.43h156.43v-156.43h-156.43ZM9.31,1156.34h365v365H9.31v-365ZM1156.47,1156.34h52.14v52.14h-52.14v-52.14ZM61.46,1208.49v260.72h260.72v-260.72H61.46ZM1469.33,1208.49h52.14v104.29h-52.14v-104.29ZM113.6,1260.63h156.43v156.43H113.6v-156.43ZM582.89,1260.63v52.14h52.14v-52.14h-52.14ZM843.61,1260.63h52.14v52.14h-52.14v-52.14ZM947.9,1260.63h52.14v52.14h-52.14v-52.14ZM1365.04,1260.63h52.14v52.14h-52.14v-52.14ZM1417.19,1312.78h52.14v52.14h-52.14v-52.14ZM1365.04,1364.92h52.14v52.14h-52.14v-52.14ZM1469.33,1364.92h52.14v52.14h-52.14v-52.14ZM1312.9,1417.06h52.14v52.14h-52.14v-52.14ZM1417.19,1417.06h52.14v104.29h-52.14v-104.29Z" fill="#fff" filter="url(#drop-shadow-1)" stroke="#fff" stroke-miterlimit="10"/>
  </g>
</svg>