<?xml version="1.0" encoding="UTF-8"?>
<svg id="Layer_2" data-name="Layer 2" xmlns="http://www.w3.org/2000/svg" viewBox="0 0 67.96 2440.34">
  <g id="Layer_1-2" data-name="Layer 1">
    <g>
      <rect x="35.26" y="424.07" width="32.69" height="32.69"/>
      <rect x="34.24" y="260.92" width="32.69" height="32.69"/>
      <rect x="1.54" y="260.92" width="32.69" height="32.69"/>
      <rect x="1.54" y="293.61" width="32.69" height="32.69"/>
      <rect x="34.24" y="359" width="32.69" height="32.69"/>
      <rect x="1.54" y="326.3" width="32.69" height="32.69"/>
      <rect x="1.54" y="359" width="32.69" height="32.69"/>
      <rect x="2.57" y="456.61" width="32.69" height="32.69"/>
      <rect x="34.24" y="554.21" width="32.69" height="32.69"/>
      <rect x="2.57" y="521.83" width="32.69" height="32.69"/>
      <rect x="2.57" y="489.14" width="32.69" height="32.69"/>
      <rect x="33.72" y="652.14" width="32.69" height="32.69"/>
      <rect x="2.06" y="619.76" width="32.69" height="32.69"/>
      <rect x="2.06" y="587.06" width="32.69" height="32.69"/>
      <rect x="1.54" width="32.69" height="32.69"/>
      <rect x="34.24" width="32.69" height="32.69"/>
      <rect x="1.54" y="97.84" width="32.69" height="32.69"/>
      <rect x="33.21" y="65.23" width="32.69" height="32.69"/>
      <rect x="1.54" y="32.54" width="32.69" height="32.69"/>
      <rect x="33.21" y="195.53" width="32.69" height="32.69"/>
      <rect x="1.54" y="163.15" width="32.69" height="32.69"/>
      <rect x="1.54" y="130.46" width="32.69" height="32.69"/>
      <rect x="2.31" y="684.51" width="32.69" height="32.69"/>
      <rect x="2.31" y="749.74" width="32.69" height="32.69"/>
      <rect x="2.31" y="717.05" width="32.69" height="32.69"/>
      <rect x="1.54" y="391.53" width="32.69" height="32.69"/>
      <rect x="1.54" y="228.38" width="32.69" height="32.69"/>
      <rect x=".51" y="977.63" width="32.69" height="32.69"/>
      <rect x="33.72" y="782.44" width="32.69" height="32.69"/>
      <rect x="32.69" y="848.99" width="32.69" height="32.69"/>
      <rect x="2.06" y="814.74" width="32.69" height="32.69"/>
      <rect x=".51" y="879.85" width="32.69" height="32.69"/>
      <rect x="32.69" y="1108.81" width="32.69" height="32.69"/>
      <rect x="32.69" y="1010.22" width="32.69" height="32.69"/>
      <rect x=".51" y="1075.42" width="32.69" height="32.69"/>
      <rect x="32.69" y="945.02" width="32.69" height="32.69"/>
      <rect x=".51" y="1042.02" width="32.69" height="32.69"/>
      <rect x="32.69" y="913.24" width="32.69" height="32.69"/>
      <rect x="33.72" y="1565.58" width="32.69" height="32.69"/>
      <rect x="32.69" y="1402.42" width="32.69" height="32.69"/>
      <rect y="1402.42" width="32.69" height="32.69"/>
      <rect y="1435.12" width="32.69" height="32.69"/>
      <rect x="32.69" y="1500.5" width="32.69" height="32.69"/>
      <rect y="1467.81" width="32.69" height="32.69"/>
      <rect y="1500.5" width="32.69" height="32.69"/>
      <rect x="1.03" y="1598.11" width="32.69" height="32.69"/>
      <rect x="32.69" y="1695.72" width="32.69" height="32.69"/>
      <rect x="1.03" y="1663.34" width="32.69" height="32.69"/>
      <rect x="1.03" y="1630.65" width="32.69" height="32.69"/>
      <rect x="32.18" y="1793.64" width="32.69" height="32.69"/>
      <rect x=".51" y="1761.26" width="32.69" height="32.69"/>
      <rect x=".51" y="1728.57" width="32.69" height="32.69"/>
      <rect y="1141.51" width="32.69" height="32.69"/>
      <rect x="32.69" y="1141.51" width="32.69" height="32.69"/>
      <rect y="1239.35" width="32.69" height="32.69"/>
      <rect x="31.66" y="1206.74" width="32.69" height="32.69"/>
      <rect y="1174.04" width="32.69" height="32.69"/>
      <rect x="31.66" y="1337.04" width="32.69" height="32.69"/>
      <rect y="1304.66" width="32.69" height="32.69"/>
      <rect y="1271.97" width="32.69" height="32.69"/>
      <rect x=".77" y="1826.02" width="32.69" height="32.69"/>
      <rect x=".77" y="1891.25" width="32.69" height="32.69"/>
      <rect x=".77" y="1858.56" width="32.69" height="32.69"/>
      <rect y="1533.04" width="32.69" height="32.69"/>
      <rect y="1369.89" width="32.69" height="32.69"/>
      <rect x=".64" y="2117.19" width="32.69" height="32.69"/>
      <rect x="32.18" y="1923.94" width="32.69" height="32.69"/>
      <rect x="32.82" y="1988.55" width="32.69" height="32.69"/>
      <rect x=".51" y="1956.25" width="32.69" height="32.69"/>
      <rect x=".64" y="2019.4" width="32.69" height="32.69"/>
      <rect x="32.95" y="2247.06" width="32.69" height="32.69"/>
      <rect x="32.82" y="2149.77" width="32.69" height="32.69"/>
      <rect x=".77" y="2213.67" width="32.69" height="32.69"/>
      <rect x="32.82" y="2084.57" width="32.69" height="32.69"/>
      <rect x=".64" y="2181.58" width="32.69" height="32.69"/>
      <rect x="32.82" y="2052.8" width="32.69" height="32.69"/>
      <rect x="1.03" y="2278.87" width="32.69" height="32.69"/>
      <rect x="33.21" y="2311.45" width="32.69" height="32.69"/>
      <rect x="1.03" y="2343.26" width="32.69" height="32.69"/>
      <rect x=".77" y="2375.06" width="32.69" height="32.69"/>
      <rect x="33.21" y="2407.65" width="32.69" height="32.69"/>
    </g>
  </g>
</svg>