<?xml version="1.0" encoding="UTF-8"?>
<svg id="Layer_2" data-name="Layer 2" xmlns="http://www.w3.org/2000/svg" viewBox="0 0 275.09 1169.07">
  <g id="Layer_1-2" data-name="Layer 1">
    <g>
      <rect x="0" y="0" width="273.58" height="18"/>
      <rect x="0" y="67.91" width="273.58" height="24.26"/>
      <rect x="0" y="133" width="273.58" height="6.8"/>
      <rect x="0" y="162.35" width="273.58" height="32.26"/>
      <rect x="0" y="231.61" width="273.58" height="29.92"/>
      <rect x="0" y="293.82" width="273.58" height="11.22"/>
      <rect x="0" y="324.95" width="273.58" height="46.61"/>
      <rect x="0" y="390.08" width="273.58" height="6.8"/>
      <rect x="0" y="415.39" width="273.58" height="17.22"/>
      <rect x="0" y="451.12" width="273.58" height="29.92"/>
      <rect x="0" y="495.94" width="273.58" height="18"/>
      <rect x="0" y="533.32" width="273.58" height="11.2"/>
      <rect x="0" y="551.95" width="273.58" height="6.8"/>
      <rect x="0" y="570.3" width="273.58" height="32.26"/>
      <rect x="0" y="611.79" width="273.58" height="29.92"/>
      <rect x="1.5" y="657.31" width="273.58" height="11.22"/>
      <rect x="0" y="711.73" width="273.58" height="46.61"/>
      <rect x="0" y="678.08" width="273.58" height="6.8"/>
      <rect x="0" y="772.46" width="273.58" height="17.22"/>
      <rect x="0" y="823.71" width="273.58" height="29.92"/>
      <rect x="0" y="884.24" width="273.58" height="18"/>
      <rect x="0" y="952.15" width="273.58" height="24.26"/>
      <rect x="0" y="996.81" width="273.58" height="6.8"/>
      <rect x="0" y="1026.15" width="273.58" height="32.26"/>
      <rect x="0" y="1072.72" width="273.58" height="16.41"/>
      <rect x="0" y="1103.43" width="273.58" height="11.22"/>
      <rect x="0" y="1126.54" width="273.58" height="6.8"/>
      <rect y="1151.85" width="273.58" height="17.22"/>
    </g>
  </g>
</svg>