<?xml version="1.0" encoding="UTF-8"?>
<svg id="Layer_2" data-name="Layer 2" xmlns="http://www.w3.org/2000/svg" viewBox="0 0 196.08 1377.29">
  <g id="Layer_1-2" data-name="Layer 1">
    <g>
      <polygon points="191.37 83.91 .33 364.04 0 283.72 138.93 84.02 191.37 83.91"/>
      <polygon points="191.73 174.53 .69 454.66 .36 374.35 139.3 174.64 191.73 174.53"/>
      <polygon points="192.1 264.86 1.06 544.99 .73 464.68 139.66 264.97 192.1 264.86"/>
      <polygon points="192.47 357.29 1.43 637.42 1.1 557.11 140.03 357.4 192.47 357.29"/>
      <polygon points="191.59 453.99 .55 734.12 .22 653.81 139.15 454.1 191.59 453.99"/>
      <polygon points="193.22 544.32 2.18 824.45 1.85 744.14 140.79 544.43 193.22 544.32"/>
      <polyline points="3.81 0 1.22 270.93 189.78 5.24"/>
      <polygon points="194.23 636.74 3.19 916.87 2.86 836.56 141.79 636.85 194.23 636.74"/>
      <polygon points="194.6 727.37 3.56 1007.5 3.23 927.18 142.16 727.48 194.6 727.37"/>
      <polygon points="194.96 817.7 3.92 1097.83 3.59 1017.52 142.52 817.81 194.96 817.7"/>
      <polygon points="195.33 910.13 4.29 1190.26 3.96 1109.94 142.89 910.24 195.33 910.13"/>
      <polygon points="194.45 1006.83 3.41 1286.96 3.08 1206.65 142.01 1006.94 194.45 1006.83"/>
      <polygon points="196.08 1097.15 5.04 1377.29 4.71 1296.97 143.65 1097.27 196.08 1097.15"/>
    </g>
  </g>
</svg>