<?xml version="1.0" encoding="UTF-8"?>
<svg id="Layer_2" data-name="Layer 2" xmlns="http://www.w3.org/2000/svg" viewBox="0 0 177.32 117.05">
  <g id="Layer_1-2" data-name="Layer 1">
    <g>
      <path d="M0,111.93v-1.97h18.29v1.97H0Z"/>
      <path d="M33.74,112.7c-.4.79-.82,1.46-1.28,2-.46.54-.93.99-1.42,1.34-.49.35-.99.6-1.51.75-.51.15-1.03.23-1.54.23-1,0-1.87-.17-2.6-.51-.73-.34-1.34-.8-1.83-1.37-.48-.57-.85-1.22-1.08-1.97-.24-.74-.36-1.51-.36-2.32,0-.86.13-1.66.39-2.39s.62-1.37,1.1-1.9,1.05-.95,1.73-1.25c.68-.3,1.44-.45,2.29-.45.63,0,1.22.1,1.76.3s1.04.49,1.49.85c.46.37.87.8,1.25,1.31.38.51.72,1.07,1.04,1.69.42-.83.86-1.52,1.34-2.06s.97-.97,1.48-1.28c.51-.31,1.05-.53,1.6-.65.55-.12,1.11-.18,1.67-.18.81,0,1.55.16,2.2.48.66.32,1.22.75,1.68,1.3.46.55.81,1.19,1.06,1.92.25.73.37,1.5.37,2.31,0,.88-.13,1.7-.39,2.45-.26.75-.62,1.41-1.1,1.96s-1.05.99-1.74,1.31c-.68.32-1.45.48-2.3.48-.63,0-1.21-.12-1.73-.35s-.99-.54-1.43-.94c-.43-.39-.82-.85-1.18-1.38-.36-.53-.68-1.09-.98-1.69ZM32.54,110.15c-.58-1.34-1.28-2.3-2.09-2.89s-1.69-.88-2.64-.88c-.5,0-.97.09-1.43.26-.46.17-.87.44-1.22.79-.35.36-.63.81-.84,1.36-.21.55-.31,1.19-.31,1.94,0,.62.08,1.2.23,1.74s.39,1,.7,1.39c.31.39.7.7,1.16.92.46.22,1,.33,1.63.33.51,0,.98-.11,1.39-.33s.8-.54,1.17-.96c.37-.42.74-.94,1.09-1.55.36-.61.74-1.32,1.16-2.11ZM34.41,111.57c.23.5.49.99.79,1.47.3.48.64.9,1.02,1.27.38.37.81.67,1.28.89s1,.33,1.59.33,1.07-.12,1.51-.36c.45-.24.82-.58,1.14-1.01.31-.43.55-.94.71-1.52.16-.58.24-1.22.24-1.92,0-.54-.07-1.06-.21-1.54-.14-.48-.35-.9-.64-1.25-.29-.35-.65-.63-1.09-.83-.44-.2-.96-.3-1.57-.3-.53,0-1.03.12-1.48.36-.46.24-.88.57-1.27.99-.39.42-.75.92-1.08,1.51-.33.58-.65,1.22-.94,1.92Z"/>
      <path d="M22.39,20.31c-.4.79-.82,1.46-1.28,2-.46.54-.93.99-1.42,1.34-.49.35-.99.6-1.51.75-.51.15-1.03.23-1.54.23-1,0-1.87-.17-2.6-.51-.73-.34-1.34-.8-1.83-1.37-.48-.57-.85-1.22-1.08-1.97-.24-.74-.36-1.51-.36-2.32,0-.86.13-1.66.39-2.39s.62-1.37,1.1-1.9,1.05-.95,1.73-1.25c.68-.3,1.44-.45,2.29-.45.63,0,1.22.1,1.76.3s1.04.49,1.49.85c.46.37.87.8,1.25,1.31.38.51.72,1.07,1.04,1.69.42-.83.86-1.52,1.34-2.06s.97-.97,1.48-1.28c.51-.31,1.05-.53,1.6-.65.55-.12,1.11-.18,1.67-.18.81,0,1.55.16,2.2.48.66.32,1.22.75,1.68,1.3.46.55.81,1.19,1.06,1.92.25.73.37,1.5.37,2.31,0,.88-.13,1.7-.39,2.45-.26.75-.62,1.41-1.1,1.96s-1.05.99-1.74,1.31c-.68.32-1.45.48-2.3.48-.63,0-1.21-.12-1.73-.35s-.99-.54-1.43-.94c-.43-.39-.82-.85-1.18-1.38-.36-.53-.68-1.09-.98-1.69ZM21.18,17.76c-.58-1.34-1.28-2.3-2.09-2.89s-1.69-.88-2.64-.88c-.5,0-.97.09-1.43.26-.46.17-.87.44-1.22.79-.35.36-.63.81-.84,1.36-.21.55-.31,1.19-.31,1.94,0,.62.08,1.2.23,1.74s.39,1,.7,1.39c.31.39.7.7,1.16.92.46.22,1,.33,1.63.33.51,0,.98-.11,1.39-.33s.8-.54,1.17-.96c.37-.42.74-.94,1.09-1.55.36-.61.74-1.32,1.16-2.11ZM23.05,19.19c.23.5.49.99.79,1.47.3.48.64.9,1.02,1.27.38.37.81.67,1.28.89s1,.33,1.59.33,1.07-.12,1.51-.36c.45-.24.82-.58,1.14-1.01.31-.43.55-.94.71-1.52.16-.58.24-1.22.24-1.92,0-.54-.07-1.06-.21-1.54-.14-.48-.35-.9-.64-1.25-.29-.35-.65-.63-1.09-.83-.44-.2-.96-.3-1.57-.3-.53,0-1.03.12-1.48.36-.46.24-.88.57-1.27.99-.39.42-.75.92-1.08,1.51-.33.58-.65,1.22-.94,1.92Z"/>
      <path d="M31.59,45.03h-2.16c-.11-.62-.34-1.12-.67-1.52-.34-.4-.78-.6-1.34-.6-1.5,0-2.48,1.21-2.95,3.64-.47,2.43-.7,8-.7,16.7,0,7.22-.66,12.95-1.98,17.2-1.32,4.24-3.66,6.36-7,6.36-.67,0-1.26-.06-1.76-.17-.5-.11-.99-.29-1.47-.55l.27-4.14h1.97c.18.67.45,1.22.81,1.66.36.43.86.65,1.52.65,1.47,0,2.39-1.52,2.77-4.57.38-3.04.57-7.49.57-13.32,0-9.1.69-15.73,2.07-19.88,1.38-4.16,3.77-6.24,7.17-6.24.49,0,1.03.07,1.63.2.6.13,1.1.3,1.52.49l-.25,4.07Z"/>
      <path d="M73.83,51.81c-.96,1.06-1.93,1.86-2.92,2.39-.98.53-2.13.8-3.44.8-1.44,0-2.55-.44-3.33-1.31-.79-.88-1.18-2.1-1.18-3.66,0-1.06.19-2.19.57-3.41.38-1.21.96-2.3,1.73-3.27.77-.96,1.7-1.71,2.78-2.24,1.08-.53,2.23-.79,3.44-.79s2.1.24,2.69.73c.6.49.9,1.24.9,2.27,0,1.68-.79,2.94-2.37,3.79-1.58.84-3.92,1.26-7.03,1.26-.12.59-.18,1.24-.18,1.93,0,1.04.2,1.79.61,2.26.41.47,1.07.71,1.99.71s1.73-.2,2.47-.59c.74-.4,1.52-1,2.34-1.83l.92.97ZM65.93,47.11c1.4,0,2.59-.14,3.59-.38,1-.24,1.77-.63,2.3-1.16.53-.53.8-1.24.8-2.15,0-.6-.14-1.08-.42-1.42-.28-.34-.7-.51-1.25-.51-1,0-1.96.5-2.89,1.51-.93,1.01-1.64,2.38-2.13,4.1Z"/>
      <path d="M82.97,15.93v-.99h9.15v.99h-9.15Z"/>
      <path d="M96.76,16.42c-.07-.39-.15-.77-.23-1.13-.08-.36-.16-.7-.24-1.01-.08-.31-.15-.52-.21-.61-.05-.1-.11-.16-.17-.2-.06-.04-.14-.06-.23-.06-.1,0-.2.02-.28.07-.08.05-.18.13-.27.24-.1.12-.23.3-.39.55l-.48-.32c.31-.47.61-.82.9-1.05.29-.23.63-.35,1.02-.35.15,0,.29.02.4.05.12.03.22.09.31.16.09.07.17.16.24.28.07.11.14.27.2.46.06.2.12.44.18.73.06.29.11.59.15.9h.07c.48-.67.84-1.16,1.08-1.47.24-.31.45-.54.62-.69.17-.15.33-.26.49-.32.16-.06.36-.09.62-.09.23,0,.42.03.57.09l-.3,1.34h-.52c-.03-.21-.12-.31-.26-.31-.04,0-.09,0-.14.02-.05.01-.11.05-.18.1-.07.05-.18.15-.32.29-.14.14-.29.32-.47.53-.17.21-.35.43-.53.65l-.5.63c.09.48.17.89.25,1.23.08.35.15.63.21.86.06.23.12.41.16.55.05.13.1.23.15.3.05.07.11.11.17.14.06.03.12.04.2.04.13,0,.26-.05.39-.16.13-.1.31-.34.55-.71l.48.32c-.35.51-.66.88-.94,1.09-.28.21-.61.32-1,.32-.21,0-.39-.04-.54-.12s-.28-.2-.39-.37c-.11-.17-.21-.43-.29-.79-.15-.63-.25-1.12-.28-1.45h-.07c-.52.74-.91,1.27-1.17,1.59-.25.32-.47.56-.63.71-.17.15-.33.26-.48.32s-.36.09-.62.09c-.23,0-.42-.03-.57-.09l.3-1.34h.52c.03.21.12.31.26.31.07,0,.14-.02.22-.06.08-.04.19-.13.33-.27.14-.14.34-.36.59-.66.25-.3.62-.75,1.1-1.36Z"/>
      <path d="M106.52,9.06c.24,0,.44-.02.59-.04.15-.03.27-.08.36-.15.09-.07.16-.16.21-.27.05-.11.12-.28.2-.52h.63l-.13,2.17h-6.11v-.36c.21-.52.5-1.05.86-1.6.36-.54.87-1.19,1.54-1.92.57-.63.99-1.11,1.24-1.44.28-.36.48-.66.62-.92s.23-.5.29-.73c.06-.23.09-.46.09-.69,0-.37-.06-.7-.18-.98s-.3-.51-.55-.67c-.25-.16-.55-.24-.92-.24-.93,0-1.55.51-1.87,1.54h-.9V.8c.6-.28,1.16-.49,1.68-.61.52-.13.99-.19,1.41-.19.92,0,1.62.2,2.09.6.47.4.71.99.71,1.76,0,.26-.03.5-.08.72-.05.22-.13.44-.24.65-.11.21-.26.45-.45.69-.19.25-.4.5-.62.75-.23.25-.62.68-1.18,1.27-.94,1-1.63,1.86-2.07,2.61h2.8Z"/>
      <path d="M96.79,38.98c.24,0,.44-.02.59-.04.15-.03.27-.08.36-.15.09-.07.16-.16.21-.27.05-.11.12-.28.2-.52h.63l-.13,2.17h-6.11v-.36c.21-.52.5-1.05.86-1.6.36-.54.87-1.19,1.54-1.92.57-.63.99-1.11,1.24-1.44.28-.36.48-.66.62-.92s.23-.5.29-.73c.06-.23.09-.46.09-.69,0-.37-.06-.7-.18-.98s-.3-.51-.55-.67c-.25-.16-.55-.24-.92-.24-.93,0-1.55.51-1.87,1.54h-.9v-1.43c.6-.28,1.16-.49,1.68-.61.52-.13.99-.19,1.41-.19.92,0,1.62.2,2.09.6.47.4.71.99.71,1.76,0,.26-.03.5-.08.72-.05.22-.13.44-.24.65-.11.21-.26.45-.45.69-.19.25-.4.5-.62.75-.23.25-.62.68-1.18,1.27-.94,1-1.63,1.86-2.07,2.61h2.8Z"/>
      <rect x="76.79" y="23.79" width="38" height="1"/>
      <path d="M90.23,101.02c.48,0,.88-.03,1.17-.09.3-.06.53-.16.71-.3s.32-.32.42-.54.23-.57.39-1.03h1.26l-.25,4.33h-12.22v-.71c.43-1.04,1-2.1,1.72-3.19.72-1.09,1.75-2.37,3.07-3.85,1.15-1.27,1.97-2.23,2.48-2.88.55-.71.97-1.33,1.24-1.85.27-.52.47-1.01.59-1.47s.18-.92.18-1.39c0-.74-.12-1.4-.36-1.97-.24-.57-.6-1.02-1.09-1.34-.49-.33-1.11-.49-1.85-.49-1.85,0-3.1,1.03-3.74,3.09h-1.8v-2.85c1.2-.56,2.32-.97,3.36-1.23,1.04-.25,1.98-.38,2.81-.38,1.84,0,3.23.4,4.17,1.21s1.41,1.98,1.41,3.51c0,.52-.05,1.01-.16,1.45-.1.44-.27.88-.49,1.31s-.52.89-.9,1.39c-.38.5-.79,1-1.25,1.51-.46.51-1.24,1.36-2.36,2.55-1.88,1.99-3.26,3.73-4.14,5.21h5.6Z"/>
      <path d="M100.9,91.21c-.7,0-1.27.11-1.71.34-.44.23-.92.68-1.44,1.37l-.92-.8c.84-1.18,1.58-1.96,2.23-2.34s1.52-.57,2.63-.57h12.52v2h-3.59v8.91c0,1.3.37,1.94,1.11,1.94.43,0,.94-.25,1.53-.74l.58.89c-1.11.95-2.19,1.42-3.24,1.42-.85,0-1.49-.29-1.91-.86-.42-.57-.63-1.54-.63-2.9v-8.67h-4.56v12.19h-2.98v-.73c.61-2.33.92-5.46.92-9.41v-2.05h-.53Z"/>
      <polygon points="72.66 110.78 65.81 93.17 61.76 94.78 61.36 93.77 66.43 91.74 72.35 106.96 79.36 73.66 114.94 73.66 114.94 74.76 80.25 74.76 72.66 110.78"/>
      <rect x="50.79" y="62.79" width="75" height="2"/>
      <path d="M144.84,72.62c-1.34,1.96-2.62,3.39-3.82,4.3-1.2.91-2.48,1.36-3.82,1.36-1.54,0-2.73-.58-3.58-1.74-.85-1.16-1.27-2.79-1.27-4.89,0-2.41.47-4.72,1.42-6.94.94-2.22,2.24-3.97,3.89-5.25,1.65-1.28,3.49-1.92,5.52-1.92.85,0,1.64.09,2.36.26.72.18,1.46.48,2.22.91l1.09-4.85c.11-.46.21-.97.29-1.53.08-.56.13-1.05.13-1.47s-.08-.74-.23-.96c-.15-.22-.37-.37-.66-.47-.29-.1-.8-.17-1.54-.21l.25-1.09,5.27-.19h1.24l-5.23,23.24c-.31,1.37-.46,2.41-.46,3.11,0,.56.09.97.27,1.22.18.25.47.38.86.38.42,0,.87-.17,1.34-.51.48-.34,1.15-1,2.02-1.96l1.2,1.18c-1.29,1.36-2.37,2.32-3.25,2.88s-1.83.84-2.86.84c-.87,0-1.56-.29-2.08-.86-.52-.57-.78-1.34-.78-2.29,0-.77.16-1.59.48-2.46l-.27-.08ZM146.25,65.19c.21-1.01.31-1.96.31-2.86,0-1.09-.23-1.89-.69-2.38-.46-.5-1.23-.75-2.31-.75-1.43,0-2.71.58-3.84,1.73s-2.03,2.71-2.68,4.67c-.65,1.96-.98,3.91-.98,5.86,0,1.46.2,2.54.6,3.26.4.72,1.07,1.08,2.01,1.08.43,0,.87-.09,1.32-.28.45-.19.91-.49,1.4-.91s.96-.93,1.43-1.53c.47-.6.9-1.21,1.29-1.82.39-.61.76-1.33,1.09-2.16.34-.83.62-1.84.86-3.01l.19-.9Z"/>
      <path d="M165.08,68.48c-.21-1.11-.43-2.17-.65-3.19-.22-1.02-.46-1.97-.69-2.86-.24-.88-.43-1.46-.59-1.73-.15-.27-.32-.46-.49-.57-.18-.1-.4-.16-.66-.16-.29,0-.56.07-.8.2-.24.13-.5.36-.78.69-.28.33-.65.84-1.11,1.54l-1.36-.9c.88-1.33,1.73-2.32,2.54-2.98.81-.66,1.77-.99,2.88-.99.43,0,.82.05,1.14.15.33.1.62.25.87.45.25.2.48.47.67.79.2.32.38.76.57,1.31.18.55.35,1.24.51,2.06.16.82.3,1.67.43,2.55h.21c1.34-1.89,2.36-3.27,3.05-4.15.69-.87,1.28-1.53,1.75-1.95.48-.43.93-.73,1.38-.9.44-.17,1.03-.26,1.75-.26.66,0,1.2.08,1.62.25l-.84,3.8h-1.47c-.08-.59-.33-.88-.73-.88-.13,0-.26.02-.4.06-.14.04-.31.13-.51.27-.2.14-.5.41-.89.82-.39.41-.83.9-1.32,1.49-.49.59-.99,1.2-1.51,1.85l-1.43,1.78c.25,1.34.49,2.51.71,3.49.22.98.42,1.8.6,2.45.17.65.33,1.17.46,1.54.13.38.28.66.43.85.15.19.31.32.47.4.16.08.35.12.56.12.38,0,.75-.15,1.1-.44s.87-.96,1.54-1.99l1.36.9c-.98,1.46-1.87,2.48-2.66,3.08-.79.59-1.73.89-2.82.89-.6,0-1.11-.11-1.53-.33s-.78-.56-1.09-1.04c-.31-.48-.58-1.22-.82-2.23-.43-1.79-.7-3.16-.8-4.12h-.21c-1.48,2.09-2.59,3.58-3.31,4.49-.72.91-1.32,1.58-1.78,2.02-.47.43-.92.74-1.36.91s-1.03.26-1.75.26c-.66,0-1.2-.08-1.62-.25l.84-3.8h1.47c.08.59.33.88.73.88.2,0,.4-.05.62-.16.22-.1.53-.36.93-.76.41-.4.97-1.03,1.68-1.88.71-.85,1.75-2.13,3.11-3.84Z"/>
    </g>
  </g>
</svg>